<svg width="25px" height="25px" viewBox="0 0 50 50" version="1.1" xmlns="http://www.w3.org/2000/svg" xmlns:xlink="http://www.w3.org/1999/xlink">
    <!-- Generator: Sketch 52 (66869) - http://www.bohemiancoding.com/sketch -->
    <title>Group 9</title>
    <desc>Created with Sketch.</desc>
    <g id="Page-1" stroke="none" stroke-width="1" fill="none" fill-rule="evenodd">
        <g id="08-О-комплексе-" transform="translate(-60.000000, -2578.000000)">
            <g id="Group-15" transform="translate(0.000000, 2343.000000)">
                <g id="Group-9" transform="translate(60.000000, 235.000000)">
                    <circle id="Oval" fill="#F9A01A" cx="25" cy="25" r="25"></circle>
                    <path d="M31.1514137,19.0848214 C31.2909226,18.6104911 31.374628,18.1082589 31.374628,17.6060268 C31.374628,14.7879464 29.0866815,12.5 26.2686012,12.5 C24.1480655,12.5 22.3344494,13.8113839 21.5531994,15.6529018 C21.3578869,15.625 21.1346726,15.625 20.9393601,15.625 C18.1212798,15.625 15.8333333,17.9129464 15.8333333,20.7310268 C15.8333333,21.875 16.1960565,22.9352679 16.8377976,23.7723214 C16.4192708,24.5256696 16.1960565,25.4185268 16.1960565,26.3392857 C16.1960565,29.3526786 18.6514137,31.8080357 21.6648065,31.8080357 C22.2228423,31.8080357 22.7529762,31.7243304 23.2273065,31.5848214 L23.2273065,37.5 L26.0174851,37.5 L26.0174851,31.9475446 C28.8355655,31.9196429 31.1514137,29.7712054 31.4304315,27.0089286 C32.6581101,26.1439732 33.4393601,24.7209821 33.4393601,23.1305804 C33.4393601,21.4285714 32.5186012,19.921875 31.1514137,19.0848214 Z" id="Shape" fill="#FFFFFF" fill-rule="nonzero"></path>
                </g>
            </g>
        </g>
    </g>
</svg>