<svg xmlns="http://www.w3.org/2000/svg" xmlns:xlink="http://www.w3.org/1999/xlink" width="1360px" height="480px" viewBox="0 0 1360 480" version="1.1">
    <!-- Generator: Sketch 52 (66869) - http://www.bohemiancoding.com/sketch -->
    <title>Group 12</title>
    <desc>Created with Sketch.</desc>
    <defs>
        <rect id="path-1" x="0" y="0" width="1360" height="480"/>
        <linearGradient x1="50%" y1="0%" x2="50%" y2="100%" id="linearGradient-3">
            <stop stop-color="#FFFFFF" offset="0%"/>
            <stop stop-color="#FFFFFF" stop-opacity="0" offset="100%"/>
        </linearGradient>
        <path d="M8,48 L0.873704659,56.0170823 C0.778820942,56.1238264 0.642818907,56.1849003 0.5,56.1849003 C0.223857625,56.1849003 -3.13031793e-15,55.9610427 -3.16413562e-15,55.6849003 L0,48 L0,1 C-6.76353751e-17,0.44771525 0.44771525,1.01453063e-16 1,0 L136.46255,0 C137.014834,-1.01453063e-16 137.46255,0.44771525 137.46255,1 L137.46255,47 C137.46255,47.5522847 137.014834,48 136.46255,48 L8,48 Z" id="path-4"/>
        <filter x="-36.4%" y="-71.2%" width="172.7%" height="277.8%" filterUnits="objectBoundingBox" id="filter-5">
            <feOffset dx="0" dy="10" in="SourceAlpha" result="shadowOffsetOuter1"/>
            <feGaussianBlur stdDeviation="15" in="shadowOffsetOuter1" result="shadowBlurOuter1"/>
            <feColorMatrix values="0 0 0 0 0   0 0 0 0 0   0 0 0 0 0  0 0 0 0.3 0" type="matrix" in="shadowBlurOuter1"/>
        </filter>
        <path d="M8,48 L0.873704659,56.0170823 C0.778820942,56.1238264 0.642818907,56.1849003 0.5,56.1849003 C0.223857625,56.1849003 -3.13031793e-15,55.9610427 -3.16413562e-15,55.6849003 L0,48 L0,1 C-6.76353751e-17,0.44771525 0.44771525,1.01453063e-16 1,0 L136.46255,0 C137.014834,-1.01453063e-16 137.46255,0.44771525 137.46255,1 L137.46255,47 C137.46255,47.5522847 137.014834,48 136.46255,48 L8,48 Z" id="path-6"/>
        <filter x="-36.4%" y="-71.2%" width="172.7%" height="277.8%" filterUnits="objectBoundingBox" id="filter-7">
            <feOffset dx="0" dy="10" in="SourceAlpha" result="shadowOffsetOuter1"/>
            <feGaussianBlur stdDeviation="15" in="shadowOffsetOuter1" result="shadowBlurOuter1"/>
            <feColorMatrix values="0 0 0 0 0   0 0 0 0 0   0 0 0 0 0  0 0 0 0.3 0" type="matrix" in="shadowBlurOuter1"/>
        </filter>
        <path d="M8,48 L0.873704659,56.0170823 C0.778820942,56.1238264 0.642818907,56.1849003 0.5,56.1849003 C0.223857625,56.1849003 -3.13031793e-15,55.9610427 -3.16413562e-15,55.6849003 L0,48 L0,1 C-6.76353751e-17,0.44771525 0.44771525,1.01453063e-16 1,0 L136.46255,0 C137.014834,-1.01453063e-16 137.46255,0.44771525 137.46255,1 L137.46255,47 C137.46255,47.5522847 137.014834,48 136.46255,48 L8,48 Z" id="path-8"/>
        <filter x="-36.4%" y="-71.2%" width="172.7%" height="277.8%" filterUnits="objectBoundingBox" id="filter-9">
            <feOffset dx="0" dy="10" in="SourceAlpha" result="shadowOffsetOuter1"/>
            <feGaussianBlur stdDeviation="15" in="shadowOffsetOuter1" result="shadowBlurOuter1"/>
            <feColorMatrix values="0 0 0 0 0   0 0 0 0 0   0 0 0 0 0  0 0 0 0.3 0" type="matrix" in="shadowBlurOuter1"/>
        </filter>
        <path d="M688,364 L680.873705,372.017082 C680.778821,372.123826 680.642819,372.1849 680.5,372.1849 C680.223858,372.1849 680,371.961043 680,371.6849 L680,364 L680,317 C680,316.447715 680.447715,316 681,316 L844.738756,316 C845.29104,316 845.738756,316.447715 845.738756,317 L845.738756,363 C845.738756,363.552285 845.29104,364 844.738756,364 L688,364 Z" id="path-10"/>
        <filter x="-30.2%" y="-71.2%" width="160.3%" height="277.8%" filterUnits="objectBoundingBox" id="filter-11">
            <feOffset dx="0" dy="10" in="SourceAlpha" result="shadowOffsetOuter1"/>
            <feGaussianBlur stdDeviation="15" in="shadowOffsetOuter1" result="shadowBlurOuter1"/>
            <feColorMatrix values="0 0 0 0 0   0 0 0 0 0   0 0 0 0 0  0 0 0 0.3 0" type="matrix" in="shadowBlurOuter1"/>
        </filter>
        <path d="M8,48 L0.873704659,56.0170823 C0.778820942,56.1238264 0.642818907,56.1849003 0.5,56.1849003 C0.223857625,56.1849003 -3.13031793e-15,55.9610427 -3.16413562e-15,55.6849003 L0,48 L0,1 C-6.76353751e-17,0.44771525 0.44771525,1.01453063e-16 1,0 L136.46255,0 C137.014834,-1.01453063e-16 137.46255,0.44771525 137.46255,1 L137.46255,47 C137.46255,47.5522847 137.014834,48 136.46255,48 L8,48 Z" id="path-12"/>
        <filter x="-36.4%" y="-71.2%" width="172.7%" height="277.8%" filterUnits="objectBoundingBox" id="filter-13">
            <feOffset dx="0" dy="10" in="SourceAlpha" result="shadowOffsetOuter1"/>
            <feGaussianBlur stdDeviation="15" in="shadowOffsetOuter1" result="shadowBlurOuter1"/>
            <feColorMatrix values="0 0 0 0 0   0 0 0 0 0   0 0 0 0 0  0 0 0 0.3 0" type="matrix" in="shadowBlurOuter1"/>
        </filter>
        <path d="M8,48 L0.873704659,56.0170823 C0.778820942,56.1238264 0.642818907,56.1849003 0.5,56.1849003 C0.223857625,56.1849003 -3.13031793e-15,55.9610427 -3.16413562e-15,55.6849003 L0,48 L0,1 C-6.76353751e-17,0.44771525 0.44771525,1.01453063e-16 1,0 L136.46255,0 C137.014834,-1.01453063e-16 137.46255,0.44771525 137.46255,1 L137.46255,47 C137.46255,47.5522847 137.014834,48 136.46255,48 L8,48 Z" id="path-14"/>
        <filter x="-36.4%" y="-71.2%" width="172.7%" height="277.8%" filterUnits="objectBoundingBox" id="filter-15">
            <feOffset dx="0" dy="10" in="SourceAlpha" result="shadowOffsetOuter1"/>
            <feGaussianBlur stdDeviation="15" in="shadowOffsetOuter1" result="shadowBlurOuter1"/>
            <feColorMatrix values="0 0 0 0 0   0 0 0 0 0   0 0 0 0 0  0 0 0 0.3 0" type="matrix" in="shadowBlurOuter1"/>
        </filter>
    </defs>
    <g id="Page-1" stroke="none" stroke-width="1" fill="none" fill-rule="evenodd">
        <g id="09-О-застройщике-Copy" transform="translate(0.000000, -1326.000000)">
            <g id="Group-12" transform="translate(0.000000, 1326.000000)">
                <g id="Group-11">
                    <g id="Group-69">
                        <mask id="mask-2" fill="white">
                            <use xlink:href="#path-1"/>
                        </mask>
                        <use id="Mask" fill="#FFFFFF" xlink:href="#path-1"/>
                        <g mask="url(#mask-2)" stroke-linejoin="round">
                            <g transform="translate(-153.000000, -179.000000)">
                                <polygon id="AF" stroke="#EFEFEF" fill="#FDFCF2" points="1174.66482 589.221465 1161.80055 589.221465 1152.74792 588.045997 1146.79224 594.863714 1141.78947 596.50937 1138.21607 599.565588 1132.02216 594.62862 1129.63989 581.93356 1125.82825 581.228279 1125.82825 576.526405 1118.20499 573 1114.15512 578.407155 1114.63158 584.519591 1113.20222 586.635434 1105.57895 586.400341 1103.4349 593.453152 1098.43213 590.396934 1090.57064 595.333901 1086.28255 593.453152 1076.03878 590.16184 1069.13019 590.16184 1065.31856 589.691652 1058.40997 585.69506 1057.69529 591.102215 1047.92798 593.923339 1048.1662 606.148211 1042.21053 610.850085 1032.68144 612.965928 1031.72853 620.018739 1022.43767 621.899489 1008.38227 616.25724 1007.19114 635.064736 1006 646.11414 1011.95568 648.229983 1008.14404 656.458262 1014.57618 668.448041 1017.19668 677.851789 1027.44044 680.437819 1030.06094 689.841567 1020.77008 703.477002 1043.63989 711 1056.26593 708.884157 1064.12742 710.764906 1066.27147 707.473595 1075.3241 708.649063 1091.04709 702.536627 1089.14127 689.841567 1094.6205 681.378194 1104.14958 681.378194 1104.62604 677.381601 1114.15512 675.265758 1119.15789 676.67632 1123.20776 672.444634 1120.58726 663.511073 1124.16066 654.577513 1131.30748 650.816014 1124.16066 640.942078 1136.31025 641.412266 1138.45429 636.005111 1136.54848 630.127768 1141.31302 623.780239 1137.97784 616.25724 1133.45152 609.674617 1139.16898 603.091993 1151.79501 600.035775 1165.61219 598.155026 1171.32964 595.333901 1178 593.688245 1174.66482 589.221465"/>
                                <polygon id="AL" stroke="#EFEFEF" fill="#FDFCF2" points="482.791667 510 478 517.303665 479.197917 521.780105 479.197917 521.780105 481.59375 524.136126 480.395833 528.612565 480.15625 538.743455 481.833333 545.811518 489.020833 550.759162 489.5 554.057592 491.895833 555 496.927083 547.931937 497.166667 542.984293 501 540.863874 501 537.094241 495.489583 533.324607 493.333333 527.198953 494.291667 522.251309 494.291667 522.251309 493.09375 516.832461 489.979167 515.418848 486.864583 511.649215 483.75 512.827225 482.791667 510"/>
                                <polygon id="AM" stroke="#EFEFEF" fill="#FDFCF2" points="816 568.522013 813.926966 558.006289 808.168539 555.377358 802.410112 551.314465 804.713483 546.534591 797.573034 541.27673 799.185393 537.691824 794.117978 535.062893 790.893258 531 775 533.389937 777.994382 538.647799 777.994382 546.056604 787.668539 549.641509 793.196629 554.18239 795.5 553.704403 799.646067 557.767296 804.94382 557.767296 805.404494 560.157233 811.853933 569 816 568.522013"/>
                                <polygon id="AT" stroke="#EFEFEF" fill="#FDFCF2" points="441.065217 423.567901 435.690217 420.753086 430.315217 421.45679 420.967391 417 416.994565 418.17284 410.918478 424.037037 402.038043 419.345679 398.532609 426.148148 394.559783 428.024691 396.896739 437.407407 395.961957 439.987654 391.98913 436.938272 386.380435 436.469136 378.434783 439.283951 368.152174 438.580247 366.75 442.333333 360.673913 438.345679 357.168478 439.049383 357.63587 441.62963 356 445.382716 361.375 447.962963 367.451087 448.432099 374.695652 450.54321 375.86413 447.728395 387.081522 445.148148 390.119565 450.308642 406.945652 454.061728 416.76087 455 422.369565 451.716049 432.418478 451.481481 434.521739 448.901235 437.559783 439.518519 434.98913 436.469136 441.532609 436.469136 442 430.37037 440.36413 425.444444 441.065217 423.567901"/>
                                <polygon id="BE" stroke="#EFEFEF" fill="#FDFCF2" points="300.333333 382 290.141243 385.141667 281.80226 383.933333 281.80226 383.933333 273 386.833333 274.621469 392.15 279.717514 392.391667 285.276836 398.191667 293.152542 405.2 298.943503 404.233333 309.135593 411 310.062147 402.541667 313.073446 402.058333 314 391.908333 307.514124 388.525 300.333333 382"/>
                                <polygon id="BG" stroke="#EFEFEF" fill="#FDFCF2" points="586 494.848649 578.929936 493.183784 569.503185 487.951351 555.834395 491.281081 550.414013 495.086486 532.738854 494.372973 523.312102 491.994595 518.834395 493.183784 514.592357 487 512 490.32973 513.649682 495.8 520.248408 501.983784 516.242038 506.502703 514.592357 511.259459 516.006369 512.924324 514.356688 515.064865 520.955414 519.821622 522.840764 529.572973 531.796178 530.048649 540.987261 526.005405 550.178344 531 561.019108 529.572973 560.312102 522.437838 572.095541 517.681081 582.700637 519.583784 577.751592 511.259459 580.815287 500.794595"/>
                                <polygon id="BA" stroke="#EFEFEF" fill="#FDFCF2" points="445.407035 473 439.974874 473.238994 437.613065 476.345912 433.125628 473 431 478.974843 437.376884 485.90566 440.447236 490.446541 446.351759 495.943396 451.075377 499.289308 456.271357 505.264151 467.371859 511 468.316583 502.874214 471.859296 499.528302 473.984925 498.09434 476.819095 497.377358 478 490.446541 471.623116 484.949686 473.984925 478.496855 469.733668 478.496855 469.733668 478.496855 464.065327 475.150943 455.798995 475.389937 445.407035 473"/>
                                <polygon id="BY" stroke="#EFEFEF" fill="#FDFCF2" points="565.121622 318.481229 552.824324 315 541.945946 320.337884 535.797297 322.658703 537.925676 328.692833 529.648649 333.334471 528.466216 341.225256 517.114865 346.331058 506.236486 346.331058 507.655405 352.59727 511.675676 357.935154 512.385135 363.505119 506 366.290102 510.493243 373.020478 511.675676 379.286689 516.878378 378.590444 522.554054 374.877133 531.304054 374.412969 543.128378 375.573379 556.371622 379.054608 565.358108 379.286689 570.087838 381.375427 573.871622 378.822526 577.418919 382.303754 587.587838 381.607509 592.317568 383 591.844595 375.805461 594.682432 372.556314 604.378378 371.860068 604.378378 371.860068 599.648649 362.808874 596.101351 358.167235 597.993243 356.774744 607.216216 357.238908 611 354.221843 606.97973 350.508532 598.939189 347.955631 599.175676 345.40273 593.972973 342.849829 585.222973 333.798635 586.641892 330.085324 584.277027 323.354949 572.925676 320.105802 567.486486 321.730375 565.121622 318.481229"/>
                                <polygon id="CH" stroke="#EFEFEF" fill="#FDFCF2" points="355.753425 439.453125 343.178082 435 340.849315 438.28125 331.068493 438.28125 328.041096 440.625 322.684932 439.21875 323.150685 442.96875 315 451.171875 315 457.734375 320.589041 455.625 324.780822 461.953125 329.90411 465 335.493151 464.296875 341.780822 459.375 343.876712 461.71875 349.465753 461.25 351.561644 455.390625 360.410959 457.265625 365.30137 454.6875 366 448.828125 359.945205 448.359375 354.589041 445.78125 356.219178 442.03125 355.753425 439.453125"/>
                                <path d="M1688.5961,870.678812 L1690.01671,862.176788 L1694.75209,855.564103 L1690.96379,849.659919 L1683.38719,849.423752 L1669.6546,853.674764 L1664.44568,860.287449 L1666.81337,873.276653 L1678.41504,878 L1688.5961,870.678812 Z M1719.84958,406.609987 L1705.40669,392.203779 L1694.98886,383.465587 L1685.99164,377.089069 L1667.76045,362.682861 L1653.79109,357.251012 L1633.66574,353 L1618.98607,353.472335 L1606.91086,356.070175 L1602.88579,363.155196 L1611.64624,366.697706 L1617.56546,374.491228 L1614.72423,379.214575 L1614.961,394.565452 L1619.45961,400.94197 L1609.04178,410.152497 L1591.75766,404.720648 L1593.17827,415.584345 L1593.88858,430.226721 L1600.28134,436.367072 L1605.96379,434.477733 L1618.7493,436.839406 L1624.66852,431.407557 L1636.74373,436.130904 L1653.79109,446.2861 L1655.44847,451.481781 L1645.26741,449.82861 L1629.16713,451.717949 L1623.48468,455.968961 L1620.16992,465.651822 L1605.25348,471.319838 L1597.91365,479.11336 L1583.94429,476.043185 L1576.36769,474.862348 L1575.42061,484.309042 L1582.28691,489.740891 L1586.78552,494.700405 L1580.8663,499.423752 L1576.36769,507.217274 L1564.76602,512.412955 L1547.00836,512.88529 L1529.961,518.080972 L1519.54318,525.874494 L1511.96657,521.151147 L1497.28691,521.387314 L1475.26741,512.412955 L1462.24513,510.287449 L1447.09192,512.176788 L1420.57382,509.106613 L1407.55153,509.34278 L1396.4234,500.840756 L1384.82173,487.379217 L1376.77159,485.726046 L1358.06685,476.751687 L1341.0195,474.626181 L1325.8663,472.264507 L1318.76323,465.887989 L1315.68524,448.647773 L1301.95265,436.839406 L1282.77437,431.407557 L1269.27855,423.614035 L1261.46518,413.222672 L1257.44011,414.403509 L1253.17827,424.322537 L1244.18106,425.739541 L1250.10028,440.381916 L1246.31198,446.994602 L1220.97772,442.271255 L1223.3454,468.48583 L1218.61003,471.792173 L1197.30084,477.460189 L1217.89972,502.730094 L1211.03343,506.508772 L1215.0585,514.774629 L1214.58496,518.080972 L1198.48468,526.110661 L1196.11699,531.778677 L1180.96379,533.668016 L1179.54318,543.11471 L1166.04735,540.989204 L1158.47075,543.823212 L1149,550.908232 L1151.60446,554.450742 L1149.23677,557.993252 L1156.33983,571.927126 L1160.12813,570.510121 L1168.41504,573.816464 L1169.83565,579.720648 L1174.09749,588.458839 L1177.41226,592.946019 L1188.54039,600.031039 L1195.40669,611.839406 L1217.66295,617.979757 L1235.65738,635.692308 L1237.55153,647.973009 L1244.6546,655.766532 L1246.07521,663.560054 L1236.36769,661.434548 L1243.94429,677.966262 L1258.62396,687.412955 L1278.7493,697.804318 L1283.24791,694.261808 L1294.37604,698.985155 L1309.52925,708.668016 L1317.10585,710.793522 L1323.02507,718.11471 L1333.67967,720.948718 L1345.51811,727.561404 L1360.67131,731.103914 L1376.06128,732.520918 L1383.16435,729.214575 L1386.71588,741.259109 L1392.87187,729.923077 L1399.02786,726.144399 L1408.97214,729.68691 L1415.83844,729.923077 L1422.2312,734.174089 L1432.17549,732.28475 L1441.40947,720.948718 L1453.95822,711.502024 L1465.55989,715.044534 L1473.13649,708.904184 L1481.4234,718.11471 L1478.58217,724.491228 L1493.02507,726.616734 L1500.12813,725.672065 L1506.52089,734.410256 L1512.91365,737.952767 L1515.99164,749.524966 L1517.88579,762.041835 L1508.17827,774.558704 L1509.83565,792.271255 L1523.09471,789.909582 L1528.54039,803.607287 L1537.30084,806.677463 L1535.40669,818.958165 L1546.06128,824.626181 L1551.9805,827.460189 L1560.97772,823.209177 L1562.39833,829.349528 L1564.05571,832.892038 L1570.92201,833.128205 L1566.4234,816.124157 L1572.81616,813.762483 L1579.20891,810.219973 L1589.38997,810.219973 L1601.93872,808.566802 L1611.64624,800.537112 L1618.7493,806.205128 L1631.06128,808.802969 L1630.58774,817.541161 L1637.69081,823.681511 L1651.66017,827.460189 L1657.34262,825.098516 L1675.57382,829.821862 L1673.4429,835.726046 L1678.65181,846.589744 L1685.75487,845.645074 L1687.64903,829.821862 L1700.90808,827.696356 L1717.95543,820.139001 L1723.87465,812.581646 L1729.32033,817.541161 L1735.94986,810.692308 L1750.39276,809.039136 L1766.0195,796.522267 L1780.93593,782.588394 L1788.7493,764.639676 L1794.19499,744.801619 L1799.16713,728.506073 L1805.79666,727.325236 L1805.55989,715.280702 L1803.66574,703.236167 L1794.66852,698.512821 L1788.7493,690.483131 L1795.37883,686.468286 L1791.59053,675.368421 L1778.80501,663.796221 L1766.0195,650.098516 L1755.12813,635.219973 L1738.31755,626.954116 L1740.44847,616.090418 L1749.44568,608.533063 L1751.81337,600.267206 L1767.67688,596.016194 L1761.99443,587.986505 L1753.94429,587.51417 L1740.2117,581.609987 L1730.97772,592.473684 L1719.37604,587.986505 L1715.82451,581.137652 L1704.69638,578.775978 L1693.56825,568.384615 L1696.40947,561.299595 L1708.24791,560.591093 L1711.08914,550.908232 L1719.61281,540.516869 L1727.66295,535.321188 L1738.08078,543.11471 L1733.58217,553.033738 L1739.02786,558.937922 L1735.71309,566.022942 L1747.07799,561.77193 L1752.76045,554.923077 L1767.67688,550.435897 L1772.64903,540.989204 L1781.64624,532.959514 L1784.01393,522.568151 L1792.5376,527.291498 L1803.42897,527.763833 L1797.03621,519.97031 L1811.95265,513.82996 L1811.71588,505.564103 L1824.73816,514.066127 L1820.23955,506.744939 L1826.15877,506.508772 L1817.16156,489.268556 L1806.03343,476.751687 L1812.89972,471.556005 L1829,474.153846 L1827.57939,459.983806 L1820.94986,443.924426 L1821.89694,438.492578 L1818.81894,425.267206 L1802.48189,429.518219 L1796.32591,435.422402 L1778.56825,435.422402 L1764.36212,421.724696 L1743.28969,411.097166 L1719.84958,406.609987 Z" id="CN" stroke="#EFEFEF" fill="#FDFCF2"/>
                                <polygon id="CZ" stroke="#EFEFEF" fill="#FDFCF2" points="416.247706 387.240506 411.238532 388.683544 407.899083 387 405.275229 389.886076 397.165138 392.772152 393.110092 396.379747 385 399.506329 387.385321 404.075949 389.055046 410.329114 395.256881 413.936709 402.174312 420.189873 411.238532 425 417.440367 418.987342 421.495413 417.78481 431.036697 422.35443 436.522936 421.632911 442.009174 424.518987 443.440367 421.151899 448.688073 421.392405 452.504587 419.949367 452.743119 418.506329 454.889908 417.78481 455.366972 414.417722 457.990826 413.696203 459.422018 411.050633 463 411.050633 456.798165 403.594937 448.211009 402.873418 446.541284 398.063291 438.431193 396.620253 437 400.227848 430.559633 397.341772 430.798165 393.253165 421.972477 391.810127 416.247706 387.240506"/>
                                <polygon id="DE" stroke="#EFEFEF" fill="#FDFCF2" points="401.3918 349.395745 395.76082 344.868085 382.856492 339.148936 376.990888 343.2 365.963554 345.821277 365.728929 340.817021 354.232346 337.480851 353.763098 332 346.724374 334.144681 338.277904 332.238298 339.216401 340.340426 342.031891 345.582979 334.993166 352.731915 332.646925 349.634043 323.496583 350.348936 321.384966 353.446809 323.731207 358.212766 321.384966 371.557447 318.8041 377.038298 312 377.038298 314.580866 392.289362 313.642369 402.297872 315.98861 405.634043 315.519362 412.068085 321.150342 415.880851 337.808656 418.740426 332.412301 428.748936 331.23918 439.47234 341.093394 439.47234 343.439636 436.13617 356.109339 440.66383 359.628702 439.948936 365.728929 444 367.136674 440.187234 377.460137 440.902128 385.437358 438.042553 391.068337 438.519149 395.056948 441.617021 395.995444 438.995745 393.649203 429.46383 397.637813 427.557447 401.157175 420.646809 394.353075 414.451064 388.252847 410.876596 386.610478 404.680851 384.264237 400.153191 392.241458 397.055319 396.230068 393.480851 404.207289 390.621277 406.788155 387.761702 410.072893 389.429787 415 388 409.603645 378.706383 409.838269 373.702128 406.553531 365.838298 401.861048 360.595745 404.676538 356.782979 401.3918 349.395745"/>
                                <path d="M385,322.52 L381.004608,315.491429 L365.258065,320.177143 L367.373272,326.034286 L379.359447,334 L385,322.52 Z M364.788018,310.571429 L358.677419,308.462857 L357.032258,304.714286 L360.087558,300.028571 L359.852535,293 L351.391705,296.748571 L347.866359,300.731429 L338.465438,301.668571 L335.645161,305.651429 L334,309.4 L334.940092,323.691429 L339.875576,331.657143 L348.336406,333.531429 L355.387097,331.422857 L351.861751,324.394286 L359.147465,314.32 L362.437788,315.96 L364.788018,310.571429 Z" id="DK" stroke="#EFEFEF" fill="#FDFCF2"/>
                                <polygon id="DZ" stroke="#EFEFEF" fill="#FDFCF2" points="349.199115 595.589922 340.69292 596.531712 335.49469 593 322.262832 593 310.684956 599.121633 304.30531 596.767159 283.748673 597.944396 262.719469 600.769765 250.90531 605.478714 242.871681 611.600348 229.40354 614.425717 217.353097 622.666377 222.078761 632.319722 222.787611 641.502172 227.040708 657.27715 230.348673 660.573414 227.985841 666.4596 211.446018 668.814075 205.538938 674.464813 198.214159 675.64205 197.50531 686.70808 182.619469 692.594266 177.657522 700.128584 167.261062 704.13119 154.50177 706.485665 133.472566 717.551694 133.236283 735.210252 133.236283 736.152042 133 738.977411 180.965487 775.471764 224.441593 808.198957 268.390265 840.690704 271.461947 847.754127 279.495575 851.992181 285.638938 854.582103 285.875221 864 300.288496 862.587315 318.718584 855.994787 356.051327 826.563858 400 797.83927 394.09292 788.421373 383.932743 781.593397 377.789381 784.418766 373.063717 775.942659 372.59115 769.585578 364.557522 758.519548 369.519469 752.397915 368.338053 742.980017 369.755752 734.739357 368.574336 727.911381 370.700885 715.668115 369.755752 708.604692 365.266372 695.419635 359.123009 668.814075 351.089381 662.692441 351.089381 659.16073 340.456637 650.213727 339.038938 638.91225 346.6 630.436142 349.199115 617.957428 346.836283 603.359687 349.199115 595.589922"/>
                                <polygon id="EE" stroke="#EFEFEF" fill="#FDFCF2" points="518.348837 267 505.55814 269.142857 493 272.952381 495.093023 281.047619 502.767442 286.047619 506.255814 284.142857 506.488372 292.47619 515.093023 290.095238 519.976744 291.761905 530.209302 297 539.046512 297 542.767442 292.47619 536.953488 279.380952 543 271.285714 540.906977 268.904762 540.906977 268.904762 530.209302 269.380952 518.348837 267"/>
                                <polygon id="FI" stroke="#EFEFEF" fill="#FDFCF2" points="519.12782 139.032986 521.007519 129.994792 507.614662 125 493.986842 129.28125 491.402256 138.557292 483.413534 144.265625 472.370301 141.173611 459.917293 141.887153 447.934211 134.989583 443 138.319444 456.862782 144.741319 473.780075 153.541667 477.774436 173.520833 482.238722 178.753472 497.276316 184.9375 499.390977 190.407986 493.281955 193.262153 472.840226 207.770833 465.086466 216.333333 461.56203 224.182292 468.37594 236.550347 468.140977 250.107639 479.184211 254.626736 486.468045 262 503.150376 259.145833 520.772556 254.151042 539.569549 252.961806 539.569549 252.961806 558.131579 235.361111 565.885338 227.512153 568 220.614583 550.847744 211.338542 552.962406 202.538194 541.449248 192.786458 545.443609 181.369792 530.406015 166.385417 536.984962 156.633681 520.067669 147.833333 519.12782 139.032986"/>
                                <path d="M180.399543,338.14914 L168.876712,329.447419 L159.705479,330.152964 L161.586758,337.678776 L159,345.204589 L165.819635,344.969407 L174.050228,348.026769 L180.399543,338.14914 Z M210.97032,281 L198.03653,282.175908 L189.570776,281.235182 L180.869863,292.523901 L176.401826,306.869981 L181.575342,313.92543 L181.810502,327.565966 L187.924658,320.98088 L191.216895,324.743786 L187.219178,331.09369 L189.570776,334.856597 L202.974886,337.443595 L203.210046,337.443595 L210.5,346.380497 L208.618721,354.611855 L191.922374,353.200765 L189.570776,362.608031 L195.684932,370.369025 L183.691781,374.837476 L186.748858,380.481836 L204.385845,382.833652 L194.273973,385.891013 L177.107306,401.17782 L182.986301,404 L191.216895,398.590822 L201.799087,400.237094 L209.559361,393.416826 L214.732877,396.239006 L234.251142,392.240918 L249.53653,392.476099 L259.648402,384.715105 L255.180365,377.424474 L260.824201,373.191205 L262,364.01912 L248.360731,361.196941 L245.303653,355.787763 L238.484018,339.560229 L230.958904,337.208413 L221.317352,320.510516 L220.376712,319.099426 L209.089041,318.1587 L218.965753,305.694073 L222.022831,294.170172 L210.26484,294.170172 L199.212329,296.051625 L210.97032,281 Z" id="GB" stroke="#EFEFEF" fill="#FDFCF2"/>
                                <path d="M540.962319,614.088435 L539.06087,620.628118 L554.747826,623.430839 L554.747826,626 L572.811594,624.598639 L574,620.160998 L567.344928,622.029478 L567.344928,619.460317 L558.075362,618.292517 L548.330435,619.226757 L540.962319,614.088435 Z M568.295652,526.736961 L561.878261,523 L562.591304,530.006803 L551.657971,531.408163 L542.388406,526.503401 L533.118841,530.473923 L524.086957,530.006803 L521.710145,530.473923 L520.046377,533.043084 L513.391304,532.809524 L508.875362,535.845805 L501.031884,537.247166 L501.031884,540.984127 L497.228986,543.086168 L496.991304,547.99093 L492,554.997732 L493.188406,559.435374 L500.081159,567.843537 L505.547826,574.85034 L508.637681,584.893424 L514.104348,596.804989 L525.037681,603.578231 L533.118841,603.344671 L527.414493,590.031746 L535.257971,588.396825 L530.742029,580.689342 L542.626087,584.659864 L541.675362,576.018141 L535.257971,571.814059 L527.652174,564.807256 L531.930435,561.537415 L525.275362,554.530612 L521.472464,545.655329 L523.611594,542.619048 L530.742029,550.092971 L537.634783,550.092971 L543.576812,547.75737 L534.307246,539.349206 L548.805797,535.612245 L555.223188,537.013605 L562.828986,537.480726 L565.443478,535.845805 L568.295652,526.736961 Z" id="GR" stroke="#EFEFEF" fill="#FDFCF2"/>
                                <polygon id="HR" stroke="#EFEFEF" fill="#FDFCF2" points="452.277778 460.951613 442.833333 454.870968 439.055556 453 429.847222 456.975806 429.138889 462.822581 425.125 464.225806 425.597222 468.201613 420.875 467.967742 416.625 465.629032 414.736111 467.967742 406.472222 467.5 406 467.733871 406 472.879032 410.013889 477.556452 413.083333 471.475806 420.875 473.814516 421.583333 478.491935 427.486111 484.572581 425.125 485.741935 435.986111 496.266129 447.319444 500.475806 454.638889 505.620968 466.444444 511 466.444444 511 467.625 508.66129 456.527778 503.048387 451.333333 497.201613 446.611111 493.927419 440.708333 488.548387 437.638889 484.104839 431.263889 477.322581 433.388889 471.475806 437.875 474.75 440.236111 471.709677 445.666667 471.475806 456.055556 473.814516 464.319444 473.580645 469.986111 476.854839 469.986111 476.854839 474 471.475806 469.986111 467.266129 466.444444 461.653226 466.444444 461.653226 462.194444 463.758065 452.277778 460.951613"/>
                                <polygon id="HU" stroke="#EFEFEF" fill="#FDFCF2" points="485.656151 423 481.921136 423.921348 479.586751 427.376404 474.451104 428.988764 473.050473 428.067416 467.681388 430.370787 463.246057 430.831461 462.545741 433.595506 452.974763 435.438202 448.539432 433.825843 442.470032 430.140449 442.003155 436.129213 435.466877 436.129213 438.0347 439.123596 435 448.337079 436.867508 448.567416 439.66877 453.404494 443.403785 455.247191 452.741325 461.235955 462.545741 464 466.747634 461.926966 466.747634 461.926966 475.384858 458.241573 482.85489 458.702247 491.725552 456.168539 497.794953 446.264045 502.230284 436.589888 509 433.595506 507.599369 429.910112 500.829653 425.994382 498.495268 427.376404 485.656151 423"/>
                                <polygon id="IN" stroke="#EFEFEF" fill="#FDFCF2" points="1279.58839 698.484018 1259.46258 688.136986 1244.78258 678.730594 1237.20581 662.269406 1246.91355 664.385845 1245.4929 656.625571 1238.38968 648.865297 1236.49548 636.636986 1218.50065 619 1209.74 631.69863 1196.24387 634.050228 1176.11806 630.287671 1171.61935 636.872146 1179.19613 650.041096 1186.06258 660.152968 1197.90129 667.442922 1189.14065 676.143836 1191.50839 686.726027 1182.27419 701.541096 1177.30194 716.826484 1166.6471 732.582192 1151.49355 731.406393 1139.89161 746.926941 1149.36258 753.746575 1152.44065 765.269406 1160.72774 772.794521 1164.98968 785.728311 1136.57677 785.728311 1129 795.605023 1145.81097 808.303653 1150.30968 814.182648 1144.6271 819.591324 1163.56903 837.69863 1173.04 839.579909 1191.03484 830.643836 1195.06 844.518265 1196.95419 862.860731 1202.87355 881.908676 1211.39742 910.833333 1225.13032 931.527397 1228.20839 940.69863 1232.94387 959.511416 1240.99419 973.856164 1246.20323 980.910959 1252.12258 995.961187 1259.46258 1016.89041 1272.48516 1031 1277.69419 1026.76712 1281.71935 1016.42009 1293.55806 1012.18721 1289.29613 1007.24886 1294.50516 995.961187 1301.37161 995.255708 1299.71419 969.858447 1304.2129 955.513699 1302.55548 943.050228 1298.05677 923.767123 1300.89806 912.244292 1306.81742 911.538813 1318.18258 906.130137 1324.33871 902.36758 1323.62839 895.547945 1335.4671 885.671233 1344.22774 876.26484 1356.77677 858.627854 1374.29806 848.751142 1379.98065 839.815068 1377.84968 828.527397 1393.47677 825.47032 1402.23742 825.705479 1403.42129 820.061644 1399.6329 807.833333 1393.47677 796.545662 1394.42387 787.609589 1385.66323 783.611872 1387.55742 778.203196 1394.89742 772.559361 1384.00581 764.563927 1386.8471 754.452055 1398.21226 760.80137 1404.60516 761.742009 1407.44645 772.089041 1420.23226 774.205479 1432.07097 773.97032 1440.12129 776.557078 1436.3329 789.020548 1430.65032 789.961187 1428.04581 798.426941 1436.3329 806.187215 1436.80645 796.780822 1440.35806 796.545662 1451.0129 820.296804 1456.69548 816.769406 1454.56452 810.420091 1456.69548 805.481735 1454.56452 789.961187 1465.45613 793.253425 1469.00774 781.025114 1468.29742 773.73516 1473.26968 761.03653 1471.13871 752.570776 1485.58194 742.223744 1495.28968 744.810502 1492.21161 735.639269 1496 732.817352 1493.86903 727.173516 1479.42581 725.057078 1482.2671 718.707763 1473.98 709.53653 1466.40323 715.650685 1454.80129 712.123288 1442.25226 721.52968 1433.01806 732.817352 1423.07355 734.69863 1429.46645 739.401826 1430.41355 748.573059 1419.99548 749.043379 1408.8671 748.10274 1401.29032 750.454338 1388.26774 744.575342 1387.55742 741.753425 1384.00581 729.760274 1376.90258 733.052511 1377.13935 739.401826 1380.69097 749.043379 1380.45419 754.922374 1369.56258 755.157534 1353.46194 751.630137 1343.28065 750.219178 1334.28323 742.694064 1316.28839 740.577626 1298.05677 732.347032 1284.32387 725.057078 1270.82774 719.178082 1272.95871 705.303653 1279.58839 698.484018"/>
                                <polygon id="IE" stroke="#EFEFEF" fill="#FDFCF2" points="174.367876 346.181818 166.207254 343.07177 159.445596 343.311005 162.010363 335.655502 160.145078 328 151.518135 334.698565 135.896373 345.942584 140.792746 360.535885 131 375.84689 146.621762 378 166.906736 369.38756 176 356.4689"/>
                                <polygon id="IR" stroke="#EFEFEF" fill="#FDFCF2" points="803.168539 567.470588 795.617978 560.647059 792.786517 555 785 559.235294 791.842697 576.411765 790.191011 581.117647 798.921348 593.352941 798.921348 593.352941 810.011236 611.705882 818.741573 616.176471 821.101124 625.117647 815.674157 630.294118 814.494382 642.058824 825.348315 656.411765 841.865169 664.411765 850.123596 675.941176 849.651685 686.764706 853.662921 686.764706 854.842697 694.529412 862.865169 702.529412 866.876404 696.647059 875.606742 701.588235 882.213483 699.235294 894.247191 719 904.393258 733.352941 917.370787 737.588235 931.764045 749.117647 948.044944 754.058824 960.078652 746.764706 969.516854 744.176471 976.123596 746.764706 983.674157 765.117647 998.539326 767 1012.93258 770.529412 1037.70787 775 1040.53933 757.588235 1058 749.823529 1055.8764 743 1049.50562 740.647059 1047.14607 727.235294 1033.93258 720.882353 1027.32584 711.705882 1019.77528 703.941176 1028.97753 690.294118 1026.38202 680.882353 1016.23596 678.294118 1013.64045 668.882353 1007.26966 656.882353 1011.04494 648.647059 1005.14607 646.529412 1006.32584 635.470588 1007.50562 616.647059 1003.73034 603.705882 994.52809 603.235294 977.303371 589.823529 967.157303 588.176471 951.820225 580.411765 942.853933 579 937.898876 581.823529 929.640449 581.352941 922.561798 590.058824 912.179775 592.882353 911.707865 596.647059 893.067416 600.647059 875.134831 598.058824 864.988764 590.294118 852.719101 587.235294 846.820225 575.941176 843.752809 576.647059 834.786517 568.647059 837.617978 561.352941 833.134831 556.882353 828.651685 558.058824 816.146067 569.117647 811.898876 569.588235 803.168539 567.470588"/>
                                <polygon id="IQ" stroke="#EFEFEF" fill="#FDFCF2" points="789.379747 590.122642 774.692586 588 769.717902 590.358491 764.743219 600.028302 758.347197 603.801887 761.189873 614.886792 759.057866 633.283019 733 649.084906 740.34358 667.245283 756.21519 671.254717 776.350814 681.867925 815.911392 711.820755 840.074141 713 847.654611 698.613208 856.41953 699.792453 864 700.735849 855.94575 692.716981 854.761302 684.933962 850.734177 684.933962 851.207957 674.084906 842.916817 662.528302 826.334539 654.509434 815.437613 640.122642 816.622061 628.330189 822.070524 623.141509 819.701627 614.179245 810.936709 609.698113 799.802893 591.301887 799.802893 591.301887 794.35443 593.896226 789.379747 590.122642"/>
                                <polygon id="IL" stroke="#EFEFEF" fill="#FDFCF2" points="696.30137 652 693.041096 652.233333 692.109589 654.8 687.917808 654.8 687.684932 655.033333 686.287671 658.766667 684.890411 669.966667 682.328767 676.733333 683.260274 677.666667 680 682.566667 680 682.566667 689.082192 704.033333 690.712329 708 694.671233 684.2 693.739726 678.6 688.150685 680.466667 688.383562 676.5 691.178082 674.633333 687.917808 673 689.547945 662.966667 694.205479 665.066667 695.835616 660.4 695.60274 660.4 697 658.066667 696.30137 652"/>
                                <path d="M435.633117,573.659574 L426.152597,574.829787 L413.827922,576.468085 L399.133117,575.06383 L397.711039,583.021277 L415.487013,590.744681 L421.886364,592.382979 L431.840909,598 L433.974026,590.276596 L431.840909,585.595745 L435.633117,573.659574 Z M355.75974,529.425532 L349.834416,533.87234 L343.198052,533.170213 L346.279221,541.595745 L347.227273,559.382979 L352.204545,563.361702 L356.944805,558.446809 L362.633117,559.382979 L363.581169,539.723404 L355.75974,529.425532 Z M389.652597,449.148936 L386.571429,444 L375.194805,446.574468 L374.00974,449.382979 L366.662338,447.276596 L365.951299,453.12766 L360.974026,455.702128 L351.967532,453.829787 L349.834416,459.680851 L344.146104,460.148936 L342.012987,457.808511 L335.613636,462.723404 L329.925325,463.425532 L324.711039,460.382979 L324.237013,464.361702 L328.029221,469.978723 L324,474.191489 L327.555195,485.425532 L333.954545,487.297872 L332.769481,493.617021 L337.746753,492.446809 L344.383117,485.893617 L349.834416,483.787234 L359.788961,488.702128 L365.951299,490.340426 L370.454545,504.382979 L378.987013,512.808511 L390.600649,522.170213 L400.555195,528.723404 L409.798701,529.659574 L415.25,535.510638 L423.308442,538.319149 L427.337662,544.638298 L432.551948,546.510638 L436.818182,554 L442.269481,562.659574 L439.662338,565.702128 L437.766234,573.893617 L438.003247,578.574468 L442.980519,577.404255 L448.905844,564.297872 L453.883117,563.361702 L454.831169,555.638298 L445.587662,550.255319 L450.090909,540.659574 L460.756494,543 L468.103896,550.021277 L470,544.638298 L468.577922,541.829787 L457.438312,534.340426 L448.194805,529.893617 L436.818182,524.510638 L440.136364,521.702128 L436.818182,518.425532 L427.337662,518.659574 L413.116883,506.957447 L406.243506,495.021277 L394.62987,487.765957 L390.126623,480.510638 L391.311688,476.297872 L390.363636,469.276596 L399.607143,464.12766 L409.324675,466.234043 L406.006494,459.914894 L406.717532,452.893617 L389.652597,449.148936 Z" id="IT" stroke="#EFEFEF" fill="#FDFCF2"/>
                                <polygon id="JO" stroke="#EFEFEF" fill="#FDFCF2" points="740 667.015094 732.688679 649 710.04717 664.675472 695.188679 658.826415 693.537736 663.50566 694.481132 672.630189 693.066038 677.075472 694.009434 682.690566 690 706.554717 690.707547 708.660377 705.09434 711 710.04717 706.320755 712.641509 700.939623 722.075472 699.067925 723.726415 693.920755 727.735849 691.581132 713.349057 676.607547 737.877358 669.354717 740 667.015094"/>
                                <polygon id="KG" stroke="#EFEFEF" fill="#FDFCF2" points="1214 513.456 1205.73611 511.368 1197.94444 506.264 1179.52778 504.872 1159.22222 504.408 1155.44444 506.032 1136.31944 500 1130.41667 503.016 1131.59722 511.368 1110.11111 506.496 1102.79167 508.352 1102.08333 514.616 1106.33333 516.008 1099.01389 525.52 1109.875 530.856 1117.43056 527.144 1134.19444 534.8 1121.91667 545.24 1112.23611 543.848 1108.93056 548.488 1095 545.936 1096.41667 554.52 1109.16667 553.36 1125.93056 558 1148.36111 555.912 1150.72222 552.432 1148.125 548.952 1157.56944 541.992 1165.125 539.208 1178.58333 541.296 1180 532.016 1195.11111 530.16 1197.47222 524.592 1213.52778 516.704 1214 513.456"/>
                                <polygon id="LB" stroke="#EFEFEF" fill="#FDFCF2" points="696.619718 651.212121 698.774648 643.080808 705 637.505051 702.126761 631.69697 696.380282 631 696.140845 631.464646 691.112676 641.919192 688 654 692.309859 654 693.267606 651.444444 696.619718 651.212121"/>
                                <polygon id="LY" stroke="#EFEFEF" fill="#FDFCF2" points="565.115826 677.549884 561.555046 672.604408 548.736239 670.720418 544.463303 668.12993 539.715596 668.12993 534.96789 661.535963 517.638761 658.474478 509.09289 660.358469 500.309633 667.423434 496.748853 674.723898 500.309633 686.027842 494.612385 693.092807 488.677752 696.860789 474.672018 689.560325 456.393349 683.201856 444.761468 680.37587 438.114679 666.952436 421.022936 660.358469 410.340596 657.767981 405.118119 659.180974 389.925459 654 389.688073 665.539443 383.516055 669.778422 379.955275 674.488399 371.172018 680.37587 372.833716 686.49884 371.884174 692.857309 365.712156 696.154292 370.222477 709.342227 371.172018 716.407193 369.03555 728.653132 370.222477 735.482599 368.798165 743.725058 369.985092 753.145012 365 759.267981 373.071101 770.336427 373.545872 776.694896 378.293578 785.172854 384.465596 782.346868 394.673165 789.176334 400.607798 798.596288 421.497706 805.190255 428.856651 813.432715 438.114679 807.780742 450.933486 799.538283 503.870413 828.269142 557.044725 857 557.044725 850.641531 572 850.641531 570.813073 820.733179 568.43922 765.62645 565.353211 712.168213 560.605505 700.157773 563.454128 690.973318 560.84289 684.614849 565.115826 677.549884"/>
                                <polygon id="LT" stroke="#EFEFEF" fill="#FDFCF2" points="535.902256 321.878378 524.24812 315.02027 518.421053 314.074324 516.323308 311 506.067669 312.418919 487.654135 311.472973 476 315.966216 479.962406 327.790541 491.616541 330.391892 496.744361 332.52027 496.278195 336.540541 497.676692 340.087838 503.503759 341.506757 506.766917 346 517.488722 346 528.676692 340.797297 529.842105 332.756757 538 328.027027 535.902256 321.878378"/>
                                <polygon id="LU" stroke="#EFEFEF" fill="#FDFCF2" points="314.555556 411.761905 315 405.333333 312.777778 402 309.888889 402.47619 309 410.809524 311.444444 412 314.555556 411.761905"/>
                                <polygon id="LV" stroke="#EFEFEF" fill="#FDFCF2" points="540.155689 295.835714 531.281437 295.835714 521.005988 290.65 516.101796 289 507.461078 291.357143 506.994012 302.2 498.586826 302.435714 488.311377 291.828571 478.97006 296.778571 475 305.5 476.167665 316.107143 487.844311 311.628571 506.293413 312.571429 516.568862 311.157143 518.670659 314.221429 524.508982 315.164286 536.185629 322 542.257485 319.642857 553 314.221429 548.095808 305.735714 545.760479 299.135714"/>
                                <polygon id="MA" stroke="#EFEFEF" fill="#FDFCF2" points="217.018244 622.031763 211.58951 621.794085 198.607754 618.466594 186.806157 619.417306 179.489168 613 170.283922 613 166.035348 622.269441 157.302166 638.193866 147.860889 644.373494 135.115165 651.266156 126.854048 661.486309 124.729761 669.56736 119.77309 682.401972 122.369441 701.178532 111.275941 713.775465 104.903079 717.815991 94.5176739 728.273823 82.4800456 729.937568 75.8711517 735.64184 75.6351197 735.879518 67.1379704 751.328587 58.4047891 756.795181 53.4481186 766.3023 52.9760547 774.145674 49.1995439 783.177437 44.7149373 785.554217 37.3979475 795.061336 32.677309 805.756846 33.3854048 810.985761 28.9007982 818.829135 23.7080958 822.86966 23 830 23.2360319 830 52.5039909 828.81161 54.1562144 823.345016 59.5849487 816.452355 64.3055872 795.536692 82.7160775 779.374589 89.3249715 760.122673 93.3375143 759.171961 97.8221209 747.288061 108.67959 745.624315 113.164196 747.763417 119.064994 747.763417 123.313569 744.198248 131.338655 743.722892 131.102623 735.64184 131.102623 735.64184 132.990878 735.64184 133.22691 717.815991 154.233751 706.645126 166.979475 704.268346 177.36488 700.22782 182.321551 692.622125 197.191562 686.680175 197.899658 675.50931 205.216648 674.32092 211.117446 668.616648 227.639681 666.239869 230 660.297919 226.695553 656.970427 222.446978 641.046002 221.738883 631.776561 217.018244 622.031763"/>
                                <polygon id="MD" stroke="#EFEFEF" fill="#FDFCF2" points="579.735135 468 582.589189 466.335135 583.778378 461.340541 586.394595 456.583784 585.205405 453.967568 587.583784 452.778378 589.010811 454.918919 596.145946 455.394595 599 454.205405 596.621622 452.778378 597.097297 450.4 592.340541 446.832432 589.724324 440.648649 585.205405 438.032432 585.205405 433.037838 579.259459 429.232432 574.502703 428.518919 565.227027 424 557.616216 425.427027 555 427.567568 558.805405 428.994595 563.086486 433.513514 567.605405 439.697297 575.691892 448.497297 577.118919 454.918919 576.643243 461.340541 579.735135 468"/>
                                <polygon id="MK" stroke="#EFEFEF" fill="#FDFCF2" points="522.077519 518.565217 515.348837 514 509.581395 514.228261 505.496124 515.141304 502.852713 515.597826 495.883721 517.880435 495.643411 520.619565 493.96124 520.619565 493.96124 520.619565 493 525.413043 495.162791 531.347826 500.689922 535 508.620155 533.630435 513.186047 530.663043 519.914729 530.891304 521.596899 528.380435 524 527.923913"/>
                                <polygon id="ME" stroke="#EFEFEF" fill="#FDFCF2" points="487.106383 508.019802 488 506.653465 483.531915 503.920792 479.510638 502.326733 477.723404 500.50495 474.37234 498 472.361702 499.366337 469.010638 502.554455 468.117021 510.29703 467 512.574257 467 512.574257 472.138298 515.306931 475.712766 520.089109 478.170213 521 478.170213 521 477.053191 516.673267 481.521277 509.613861 482.414894 512.346535 485.319149 511.207921 487.106383 508.019802"/>
                                <polygon id="MN" stroke="#EFEFEF" fill="#FDFCF2" points="1418.003 395.263158 1409.26442 384.368421 1393.67668 380.815789 1382.34014 378.921053 1366.04387 373 1362.97356 388.157895 1372.42067 396.684211 1366.7524 406.868421 1348.09435 403.078947 1336.28546 402.605263 1325.1851 395.736842 1313.14002 395.5 1300.6226 391 1286.6881 397.868421 1271.10036 410.657895 1260 413.026316 1267.79387 423.447368 1281.25601 431.263158 1300.38642 436.710526 1314.08474 448.552632 1317.15505 465.842105 1324.24038 472.236842 1339.35577 474.605263 1356.36058 476.736842 1375.01863 485.736842 1383.04868 487.394737 1394.62139 500.894737 1405.72175 509.421053 1418.71154 509.184211 1445.16346 512.263158 1460.27885 510.368421 1473.26863 512.5 1495.23317 521.5 1509.8762 521.263158 1517.43389 526 1527.82572 518.184211 1544.83053 512.973684 1562.54387 512.5 1574.11659 507.289474 1578.60397 499.473684 1584.50841 494.736842 1580.02103 489.763158 1573.17187 484.315789 1574.11659 474.842105 1581.67428 476.026316 1595.60877 479.105263 1602.93029 471.289474 1617.8095 465.605263 1621.11599 455.894737 1626.78425 451.631579 1642.84435 449.736842 1653 451.394737 1651.34675 446.184211 1634.34195 436 1622.29687 431.263158 1616.39243 436.710526 1603.63882 434.342105 1597.97055 436.236842 1591.59375 430.078947 1590.88522 415.394737 1589.46815 404.5 1576.47837 405.684211 1567.26743 400.710526 1559.47356 399.052632 1548.84555 409.473684 1535.14724 411.842105 1526.64483 415.631579 1510.82091 413.263158 1500.19291 413.263158 1488.62019 405.921053 1473.26863 398.815789 1460.51502 396.921053 1447.05288 398.815789 1437.84195 401.421053 1418.003 395.263158"/>
                                <polygon id="NL" stroke="#EFEFEF" fill="#FDFCF2" points="311.483146 375.260606 318.162921 375.260606 320.696629 369.963636 323 357.066667 320.696629 352.460606 311.713483 352 296.741573 357.987879 287.758427 378.484848 282 382.4 282 382.4 290.292135 383.551515 300.426966 380.557576 307.567416 386.775758 314.016854 390 311.483146 375.260606"/>
                                <path d="M508.372004,114.206549 L492.03164,116.811083 L474.744008,116.100756 L462.666347,126.518892 L446.799616,125.808564 L426.670182,131.254408 L402.751678,147.355164 L387.595398,156.826196 L366.755513,182.161209 L349.941515,200.629723 L330.759348,214.36272 L304.235858,225.72796 L295,234.251889 L299.499521,265.979849 L303.999041,280.896725 L319.155321,288 L333.364334,284.685139 L353.493768,268.584383 L361.308725,277.108312 L365.334612,269.29471 L373.386385,259.823678 L375.517737,243.486146 L368.176414,236.619647 L365.808245,218.624685 L371.255034,206.075567 L381.438159,206.312343 L384.516779,201.103275 L380.254075,196.604534 L393.752637,177.899244 L401.80441,163.455919 L407.014382,154.221662 L416.487057,154.458438 L417.907958,147.118388 L436.616491,149.24937 L436.616491,140.962217 L442.536913,140.251889 L447.510067,136.937028 L459.587728,143.803526 L472.139022,143.093199 L483.269415,146.171285 L491.321189,140.488665 L493.926174,131.254408 L507.661553,126.992443 L521.160115,131.964736 L519.26558,140.962217 L526.84372,139.778338 L542,134.56927 L529.211889,126.755668 L540.579099,123.440806 L508.372004,114.206549 Z M454.85139,35.3602015 L441.589645,32.9924433 L437.090125,28.9672544 L420.03931,31.0982368 L426.196548,34.6498741 L420.986577,37.4911839 L436.853308,40.0957179 L454.85139,35.3602015 Z M394.699904,15.7078086 L383.332694,11.9193955 L371.255034,12.3929471 L368.886865,15.9445844 L357.046021,15.9445844 L351.83605,12.3929471 L329.812081,16.1813602 L337.390221,24.4685139 L355.388303,33.465995 L368.886865,36.7808564 L361.782359,40.8060453 L381.674976,47.6725441 L392.094919,47.1989924 L394.22627,37.9647355 L401.330777,35.8337531 L404.172579,27.7833753 L424.302013,23.5214106 L394.699904,15.7078086 Z M452.009588,8.36775819 L430.459252,6 L422.881112,8.84130982 L410.329818,6.47355164 L385.700863,9.31486146 L395.883988,14.0503778 L407.961649,14.0503778 L410.093001,17.1284635 L435.19559,18.7858942 L459.114094,17.6020151 L469.29722,11.9193955 L452.009588,8.36775819 Z" id="NO" stroke="#EFEFEF" fill="#FDFCF2"/>
                                <polygon id="PK" stroke="#EFEFEF" fill="#FDFCF2" points="1214 617.861144 1192.02892 611.763127 1185.2506 600.036173 1174.26506 593 1167.72048 594.641774 1162.11084 597.456243 1148.55422 599.332555 1136.16627 602.381564 1130.55663 608.948658 1134.99759 615.515753 1138.26988 623.021004 1133.59518 629.353559 1135.46506 635.217036 1133.36145 640.611435 1121.44096 640.142357 1128.45301 649.992999 1121.44096 653.745624 1117.93494 662.65811 1120.50602 671.570595 1116.53253 675.792299 1111.6241 674.385064 1102.2747 676.495916 1101.80723 680.483081 1092.45783 680.483081 1087.08193 688.926488 1088.95181 701.591599 1073.5253 707.689615 1064.64337 706.516919 1062.53976 709.800467 1054.82651 707.924154 1042.43855 710.035006 1020 702.529755 1027.47952 710.269545 1034.0241 719.416569 1047.11325 725.749125 1049.4506 739.117853 1055.76145 741.463244 1057.86506 748.264877 1040.56867 756.004667 1037.76386 773.36056 1055.52771 771.249708 1076.33012 771.015169 1099.46988 768.2007 1110.92289 779.458576 1115.83133 790.247375 1125.64819 794 1133.12771 784.149358 1161.1759 784.149358 1156.96867 771.249708 1148.78795 763.744457 1145.7494 752.252042 1136.4 745.450408 1147.85301 729.970828 1162.81205 731.143524 1173.33012 715.429405 1178.23855 700.184364 1187.35422 685.408401 1185.01687 674.854142 1193.66506 666.176196 1181.97831 658.905484 1175.2 648.820303 1167.72048 635.686114 1172.16145 629.11902 1192.02892 632.871645 1205.35181 630.526254 1214 617.861144"/>
                                <polygon id="PT" stroke="#EFEFEF" fill="#FDFCF2" points="149.607143 591.971098 148.678571 586.99422 153.321429 581.069364 155.178571 577.040462 151 572.537572 154.714286 562.346821 150.071429 553.34104 155.178571 552.156069 155.875 545.046243 157.964286 542.913295 158.428571 531.300578 164 527.271676 160.982143 519.924855 154.017857 519.450867 151.928571 521.346821 144.964286 521.346821 142.178571 514 137.303571 516.132948 132.892857 519.924855 133.125 524.901734 135.214286 530.115607 135.446429 536.514451 132.428571 545.520231 131.5 551.445087 126.392857 556.895954 125 566.849711 127.785714 572.537572 133.125 573.959538 134.053571 583.439306 131.732143 595.526012 138.232143 593.867052 144.5 596 149.607143 591.971098"/>
                                <polygon id="RO" stroke="#EFEFEF" fill="#FDFCF2" points="553.725 428 548.7375 428 546.3625 431.576512 537.8125 433.007117 534.0125 435.153025 528.3125 431.576512 520.7125 431.576512 513.1125 429.907473 508.6 433.007117 501.7125 436.106762 497.2 446.120996 491.025 456.373665 482 458.996441 488.8875 464.957295 490.7875 469.487544 498.3875 473.064057 500.05 479.024911 507.4125 483.316726 510.7375 480.217082 514.0625 481.886121 511.45 484.508897 513.825 486.893238 518.1 493.092527 522.6125 491.900356 532.1125 494.284698 549.925 495 555.3875 491.185053 569.1625 487.846975 578.6625 493.092527 585.7875 494.761566 586.7375 477.117438 590.5375 478.309609 596 475.209964 595.05 471.395018 589.35 468.772242 584.125 471.156584 578.425 468.533808 575.3375 461.857651 575.8125 455.419929 574.3875 448.982206 566.3125 440.160142 561.8 433.960854 557.525 429.430605"/>
                                <polygon id="RS" stroke="#EFEFEF" fill="#FDFCF2" points="499.220264 473.115702 491.748899 469.644628 489.881057 465.247934 483.110132 459.46281 475.638767 459 467 462.702479 467 462.702479 470.502203 468.256198 474.471366 472.421488 470.502203 477.743802 470.502203 477.743802 474.704846 477.743802 472.370044 483.991736 478.674009 489.31405 477.506608 496.024793 474.704846 496.719008 478.207048 499.264463 480.07489 501.115702 484.277533 502.735537 488.947137 505.512397 488.013216 506.900826 490.814978 505.743802 491.982379 501.115702 494.0837 500.190083 495.951542 502.272727 498.286344 503.198347 500.154185 505.512397 502.022026 506.206612 504.590308 508.752066 506.45815 508.752066 505.290749 512.22314 504.123348 513.842975 504.590308 515 508.559471 514.07438 514.162996 513.842975 515.797357 511.760331 514.396476 510.140496 516.030837 505.512397 520 501.115702 513.462555 495.099174 511.828194 489.77686 514.396476 486.53719 512.061674 484.22314 514.629956 481.677686 511.361233 480.057851 508.092511 483.066116 500.854626 478.900826 499.220264 473.115702"/>
                                <polygon id="SK" stroke="#EFEFEF" fill="#FDFCF2" points="506 415.168142 494.418182 409.672566 486.381818 411.584071 480.709091 410.150442 474.090909 413.256637 467.709091 408 463.218182 410.150442 462.509091 409.19469 458.963636 409.19469 457.545455 411.823009 454.945455 412.539823 454.472727 415.884956 452.345455 416.60177 452.109091 418.035398 448.327273 419.469027 443.127273 419.230088 441.709091 422.575221 441 424.486726 442.654545 429.504425 448.8 433.327434 453.290909 435 462.981818 433.088496 463.690909 430.221239 468.181818 429.743363 473.618182 427.353982 475.036364 428.309735 480.236364 426.637168 482.6 423.053097 486.381818 422.097345 499.381818 426.637168 501.745455 425.20354 503.4 419.230088 506 415.168142"/>
                                <polygon id="SI" stroke="#EFEFEF" fill="#FDFCF2" points="439 456.057471 436.191489 451.229885 434.319149 451 432.212766 453.528736 422.148936 453.758621 416.531915 456.977011 406.702128 456.057471 406 462.954023 409.276596 469.16092 406.702128 470.310345 414.893617 470.770115 416.765957 468.471264 420.978723 470.770115 425.659574 471 425.191489 467.091954 429.170213 465.712644 429.87234 459.965517"/>
                                <polygon id="SE" stroke="#EFEFEF" fill="#FDFCF2" points="480 179.012723 475.566667 173.834606 471.6 154.063613 454.8 145.354962 441.033333 139 435.2 139.706107 435.2 147.94402 416.766667 145.8257 415.366667 153.122137 406.033333 152.886768 400.9 162.066158 392.966667 176.423664 379.666667 195.017812 383.866667 199.489822 380.833333 204.667939 370.8 204.43257 365.433333 216.907125 367.766667 234.795165 375 241.620865 372.9 257.861323 364.966667 267.276081 361 275.043257 370.8 294.814249 381.066667 310.583969 385.733333 324 398.1 323.293893 403.233333 312.231552 416.533333 313.408397 421.2 300.463104 422.6 276.926209 433.333333 273.866412 441.033333 258.332061 429.833333 250.564885 421.433333 241.150127 426.333333 222.085242 444.3 210.552163 458.533333 199.96056 455.733333 191.722646 463.666667 182.543257 480 179.012723"/>
                                <polygon id="SY" stroke="#EFEFEF" fill="#FDFCF2" points="733.685185 650.310127 760.166667 634.620253 762.333333 616.35443 759.444444 605.348101 765.944444 601.601266 771 592 756.796296 594.575949 750.055556 594.107595 736.333333 599.962025 725.981481 599.962025 718.759259 597.151899 705.518519 601.367089 700.944444 598.322785 701.185185 606.753165 698.296296 610.265823 695.407407 613.544304 693 619.632911 695.648148 631.341772 701.425926 632.044304 704.314815 637.898734 698.055556 643.518987 695.888889 651.71519 696.611111 657.803797 695.166667 660.14557 695.407407 660.14557 710.574074 666 733.685185 650.310127"/>
                                <polygon id="TJ" stroke="#EFEFEF" fill="#FDFCF2" points="1111.15094 545.666667 1106.19811 546.140741 1103.13208 541.874074 1103.60377 535 1088.50943 538.555556 1087.33019 548.037037 1083.79245 556.333333 1073.41509 555.622222 1072 562.259259 1081.90566 566.051852 1087.56604 577.192593 1084.5 592.837037 1088.74528 594.733333 1096.5283 589.755556 1101.48113 592.837037 1103.60377 585.725926 1111.15094 585.962963 1112.56604 583.82963 1112.09434 577.666667 1116.10377 572.214815 1123.65094 575.77037 1123.65094 580.511111 1127.42453 581.222222 1129.78302 594.022222 1135.91509 599 1139.45283 595.918519 1144.40566 594.259259 1150.30189 587.385185 1159.26415 588.57037 1172 588.57037 1167.75472 579.8 1166.33962 573.874074 1158.08491 570.555556 1154.31132 571.977778 1147.23585 557.992593 1124.83019 560.125926 1108.08491 555.385185 1095.34906 556.57037 1093.93396 547.8 1107.84906 550.407407 1111.15094 545.666667"/>
                                <polygon id="TM" stroke="#EFEFEF" fill="#FDFCF2" points="1069 588.235294 1067.10818 578.823529 1048.89937 572.470588 1034.23774 564.941176 1024.30566 557.882353 1007.7522 547.529412 997.583648 532.470588 992.854088 529.647059 979.847799 530.352941 974.408805 527.294118 969.915723 515.764706 951.47044 508 943.666667 516.470588 934.680503 521.647059 938.464151 528.941176 924.748428 529.176471 918.836478 529.882353 907.249057 518.352941 898.262893 514.352941 885.256604 517.411765 881 522.117647 886.91195 531.529412 885.72956 520.941176 894.479245 517.176471 900.154717 525.647059 911.032704 534.352941 901.573585 539.058824 889.040252 535.529412 889.27673 547.764706 897.553459 548.705882 896.607547 559.058824 907.249057 564 908.904403 580 913.161006 590.588235 923.566038 587.764706 930.660377 579.058824 938.937107 579.529412 943.903145 576.705882 952.889308 578.117647 968.260377 585.882353 978.428931 587.529412 995.691824 600.941176 1004.91447 601.411765 1008.69811 614.352941 1022.65031 620 1031.87296 618.117647 1032.81887 611.058824 1042.27799 608.941176 1048.18994 604.235294 1047.95346 592 1057.64906 589.176471 1058.35849 583.764706 1065.21635 587.764706 1069 588.235294"/>
                                <polygon id="TN" stroke="#EFEFEF" fill="#FDFCF2" points="390 653.835556 385.305164 651.48 381.784038 644.413333 375.211268 644.177778 372.629108 635.933333 380.610329 628.395556 381.784038 615.204444 377.323944 611.435556 377.089202 604.368889 382.957746 596.831111 382.018779 593.768889 371.690141 599.422222 371.924883 591.648889 363.239437 590 350.093897 596.124444 347.746479 603.897778 350.093897 618.502222 347.511737 630.986667 340 639.466667 341.408451 650.773333 351.971831 659.724444 351.971831 663.257778 359.953052 669.382222 366.056338 696 372.159624 692.702222 373.098592 686.342222 371.455399 680.217778 380.140845 674.328889 383.661972 669.617778 389.765258 665.377778 390 653.835556"/>
                                <path d="M692.724752,529.91067 L669.867327,519.42928 L649.837624,519.905707 L636.405941,523.955335 L623.209901,533.483871 L599.881188,531.578164 L596.110891,543.012407 L577.49505,543.488834 L565.477228,558.019851 L573.960396,565.166253 L569.247525,577.076923 L579.144554,585.652605 L587.863366,600.898263 L601.530693,600.66005 L614.255446,608.997519 L622.738614,607.091811 L624.859406,600.66005 L638.291089,601.136476 L649.130693,609.473945 L667.982178,607.806452 L675.287129,598.992556 L686.126733,602.565757 L693.667327,601.136476 L689.661386,606.853598 L695.081188,614 L697.908911,610.665012 L700.736634,607.091811 L700.50099,598.516129 L704.978218,601.612903 L717.938614,597.325062 L725.007921,600.183623 L735.140594,600.183623 L748.572277,594.228288 L755.170297,594.704715 L769.073267,592.084367 L774.021782,589.702233 L788.631683,591.846154 L793.580198,595.657568 L799,593.037221 L790.281188,580.650124 L791.930693,575.885856 L785.09703,558.496278 L792.873267,554.208437 L787.217822,549.682382 L777.320792,546.109181 L777.320792,538.724566 L774.257426,533.483871 L761.061386,526.337469 L748.336634,527.052109 L735.376238,534.674938 L724.772277,533.245658 L711.10495,535.627792 L692.724752,529.91067 Z M575.845545,539.439206 L580.558416,534.913151 L594.932673,533.960298 L596.582178,530.387097 L585.506931,525.622829 L583.386139,519.905707 L572.782178,518 L561,522.764268 L567.362376,526.575682 L564.534653,535.866005 L561.942574,537.533499 L562.178218,540.630273 L566.655446,547.538462 L575.845545,539.439206 Z" id="TR" stroke="#EFEFEF" fill="#FDFCF2"/>
                                <polygon id="UZ" stroke="#EFEFEF" fill="#FDFCF2" points="1102.78947 517.204159 1096.86842 520.039698 1084.07895 530.200378 1081.94737 540.833648 1077.44737 540.833648 1072 533.744802 1056.36842 533.272212 1050.21053 521.457467 1044.28947 521.221172 1040.73684 506.570888 1022.97368 495.937618 1002.60526 497.119093 989.105263 499.245747 973.710526 486.249527 962.342105 480.814745 940.789474 470.181474 938.184211 469 910 477.506616 924.684211 531.381853 938.421053 531.145558 934.631579 523.820416 943.631579 518.621928 951.447368 510.115312 969.921053 517.913043 974.421053 529.491493 979.868421 532.563327 992.894737 531.854442 997.631579 534.689981 1007.81579 549.812854 1024.39474 560.20983 1034.34211 567.298677 1049.02632 574.860113 1067.26316 581.240076 1069.15789 590.691871 1076.02632 590.691871 1086.21053 594 1089.28947 578.404537 1083.60526 567.298677 1073.65789 563.517958 1075.07895 556.901701 1085.5 557.610586 1089.05263 549.340265 1090.23684 539.888469 1105.39474 536.344045 1104.92105 543.196597 1108 547.449905 1112.97368 546.977316 1122.68421 548.395085 1135 537.761815 1118.18421 529.964083 1110.60526 533.744802 1099.71053 528.310019 1107.05263 518.621928 1102.78947 517.204159"/>
                                <path d="M361,518.635762 L358.388268,506.324503 L350.790503,511.769868 L348.416201,517.215232 L351.740223,527.15894 L357.438547,530 L361,518.635762 Z M286.209497,398.127483 L280.511173,392.445364 L275.287709,392.208609 L273.625698,387 L263.416201,389.84106 L260.092179,401.915563 L233.26257,413.279801 L222.340782,407.124172 L225.664804,423.69702 L206.195531,419.90894 L191,422.986755 L191.949721,433.877483 L209.756983,439.559603 L218.304469,446.899007 L230.413408,462.288079 L228.039106,491.40894 L221.628492,500.168874 L226.377095,505.850993 L248.695531,512.480132 L253.206704,509.402318 L266.740223,516.031457 L280.986034,514.137417 L282.173184,505.377483 L299.743017,500.642384 L323.486034,504.430464 L334.170391,496.380795 L335.357542,489.988411 L328.946927,488.094371 L325.385475,476.730132 L329.421788,472.468543 L325.622905,466.786424 L326.097765,462.761589 L321.824022,456.369205 L316.125698,458.5 L316.125698,451.870861 L324.435754,443.584437 L323.960894,439.796358 L329.421788,441.216887 L332.50838,438.849338 L333.695531,428.195364 L339.156425,418.251656 L322.298883,415.410596 L316.600559,411.622517 L313.276536,411.859272 L310.664804,410.675497 L300.217877,404.046358 L294.282123,404.993377 L286.209497,398.127483 Z" id="FR" stroke="#EFEFEF" fill="#FDFCF2"/>
                                <path d="M264.705548,569.078947 L264.705548,568.605263 L263.524893,568.605263 L262.816501,567.657895 L262.58037,568.131579 L262.344239,568.605263 L262.344239,569.078947 L263.524893,569.078947 L264.469417,569.315789 L264.705548,569.078947 Z M262.816501,565.289474 L263.524893,565.289474 L264.941679,563.631579 L264.941679,562.921053 L264.233286,562.447368 L261.635846,562.921053 L261.163585,563.631579 L261.163585,564.342105 L260.455192,564.578947 L260.219061,565.526316 L260.455192,566 L262.344239,566.236842 L262.816501,565.289474 Z M222.201991,498.736842 L202.83926,498.263158 L192.921764,498.973684 L180.170697,496.605263 L164.113798,496.605263 L149.473684,494 L132,504.657895 L136.722617,510.815789 L135.778094,521.236842 L140.26458,517.447368 L145.223329,515.315789 L148.056899,522.657895 L155.140825,522.657895 L157.266003,520.763158 L164.349929,521.236842 L167.41963,528.578947 L161.752489,532.605263 L161.280228,544.210526 L159.15505,546.342105 L158.446657,553.447368 L153.251778,554.631579 L157.974395,563.631579 L154.196302,573.815789 L158.446657,578.315789 L156.55761,582.342105 L151.834993,588.263158 L152.779516,593.236842 L164.113798,595.605263 L167.41963,604.368421 L172.142248,609.578947 L178.045519,611 L183.004267,605.078947 L190.796586,599.631579 L202.603129,599.868421 L218.423898,599.868421 L227.396871,588.026316 L236.605974,584.947368 L239.439545,575 L246.523471,568.131579 L241.800853,559.368421 L246.523471,547.289474 L253.843528,539 L255.024182,534.026316 L270.608819,530.947368 L281.943101,521 L281.234708,512.710526 L267.066856,514.605263 L253.607397,507.973684 L249.12091,511.052632 L226.924609,504.421053 L222.201991,498.736842 Z M283.596017,552.263158 L283.832148,551.552632 L284.068279,551.078947 L284.30441,550.842105 L283.832148,550.368421 L283.832148,550.131579 L284.30441,549.657895 L283.832148,549.421053 L280.762447,550.368421 L279.109531,551.315789 L274.150782,554.868421 L274.150782,555.578947 L274.386913,556.052632 L275.331437,556.052632 L275.803698,557 L276.748222,556.052632 L277.456615,555.815789 L278.165007,556.052632 L278.8734,556.526316 L279.109531,557.947368 L279.345661,558.421053 L280.762447,558.657895 L282.887624,559.605263 L283.832148,559.131579 L285.012802,558.421053 L285.485064,557 L286.193457,555.815789 L286.901849,554.631579 L287.610242,553.684211 L287.374111,552.736842 L286.665718,552.5 L285.957326,552.263158 L284.776671,552.736842 L283.596017,552.263158 Z M297.763869,551.552632 L298,550.605263 L298,550.368421 L296.819346,548.710526 L294.694168,548 L292.332859,548.236842 L292.096728,548.473684 L292.096728,549.421053 L292.332859,549.657895 L293.749644,549.894737 L297.527738,551.552632 L297.763869,551.552632 Z" id="ES" stroke="#EFEFEF" fill="#FDFCF2"/>
                                <polygon id="AD" stroke="#EFEFEF" fill="#FDFCF2" points="263.647059 512.076923 263.823529 511.615385 264 511.153846 264 510.923077 263.647059 510.692308 262.411765 510.230769 261.882353 510 261.529412 510.230769 261.176471 510.692308 261 511.384615 261.176471 511.615385 261.176471 512.076923 261.176471 512.538462 261.352941 513 261.705882 513 262.058824 513 262.588235 512.769231 263.470588 512.076923 263.647059 512.076923"/>
                                <path d="M173.733333,240.740741 L173.733333,239.962963 L173.466667,239.185185 L173.466667,238.666667 L173.2,238.666667 L171.866667,238.407407 L171.6,237.888889 L171.333333,237.888889 L171.333333,238.407407 L171.6,239.444444 L172.933333,240.481481 L173.733333,241 L174,241 L173.733333,240.740741 Z M175.066667,235.296296 L175.066667,235.037037 L174.533333,234.518519 L173.2,234 L172.666667,233.740741 L172.133333,234 L172.133333,234.518519 L172.4,234.777778 L173.466667,235.037037 L174.533333,235.814815 L174.8,235.814815 L175.066667,235.296296 Z M168.666667,230.37037 L168.133333,230.111111 L166.8,230.37037 L166,230.37037 L166.266667,231.148148 L167.866667,231.666667 L168.666667,231.666667 L169.466667,231.666667 L170,231.407407 L169.733333,230.888889 L168.666667,230.37037 Z M175.333333,229.074074 L173.2,228.555556 L171.6,227.777778 L168.933333,228.037037 L170.8,230.888889 L172.933333,232.703704 L174,233.222222 L174,232.962963 L174,232.444444 L172.933333,231.148148 L172.666667,230.888889 L172.666667,230.62963 L172.933333,230.37037 L173.466667,230.37037 L174.266667,230.888889 L174.8,230.888889 L175.333333,229.074074 Z M178,228.555556 L177.2,228.037037 L176.133333,227 L176.133333,228.296296 L176.133333,229.074074 L176.133333,229.333333 L176.4,229.333333 L177.2,229.592593 L178,228.555556 Z" id="FO" stroke="#EFEFEF" fill="#FDFCF2"/>
                                <polygon id="LI" stroke="#EFEFEF" fill="#FDFCF2" points="357.714286 446 357.714286 445.571429 358 445.142857 357.714286 444.928571 357.428571 444.5 357.142857 444.285714 357.142857 443.857143 356.857143 443.642857 356.857143 443.214286 356.571429 443 356 444.285714 356 445.357143 356.285714 445.785714 356.571429 445.785714 357.714286 446"/>
                                <path d="M426,611.647059 L425.619048,611.294118 L424.666667,610.411765 L423.714286,610.235294 L423.904762,611.294118 L424.666667,612 L425.619048,612 L426,611.647059 Z M423.333333,609.529412 L423.333333,609.176471 L422.761905,609 L422,609.176471 L422.190476,609.352941 L422.761905,609.705882 L423.333333,609.529412 Z" id="MT" stroke="#EFEFEF" fill="#FDFCF2"/>
                                <polygon id="CY" stroke="#EFEFEF" fill="#FDFCF2" points="652.930435 621.771429 652.226087 621.528571 651.052174 622.014286 650.113043 622.985714 649.173913 623.714286 648 622.985714 648.469565 625.171429 649.878261 627.842857 650.347826 628.571429 651.052174 629.057143 653.634783 629.785714 654.33913 629.785714 655.747826 629.785714 656.217391 630.028571 656.686957 631 657.626087 631 657.626087 630.757143 657.626087 630.028571 658.095652 629.542857 658.8 629.057143 659.504348 629.057143 660.913043 628.814286 662.321739 628.328571 663.495652 627.357143 665.608696 624.928571 666.313043 624.928571 667.017391 624.928571 668.426087 624.928571 669.834783 624.685714 669.365217 623.714286 669.130435 623.471429 668.191304 622.257143 667.721739 621.285714 667.956522 619.828571 673.826087 615.214286 675 614 673.121739 614.485714 671.713043 615.457143 670.773913 615.942857 669.130435 616.914286 663.730435 618.857143 661.852174 619.1 659.973913 619.1 657.626087 618.857143 655.513043 618.371429 655.513043 620.071429 655.043478 621.528571 653.634783 622.014286 652.930435 621.771429"/>
                                <g id="Group-8" stroke="none" fill="none" transform="translate(402.000000, 0.000000)">
                                    <path d="M394.641638,552.052863 L392.320819,552.519824 L395.105802,558.123348 L402.532423,564.894273 L411.119454,566.995595 L404.62116,558.356828 L404.156997,556.022026 L398.819113,556.022026 L394.641638,552.052863 Z M418.778157,530.339207 L408.798635,521.46696 L405.317406,521 L402.764505,523.101322 L410.191126,531.039648 L408.798635,532.674009 L402.300341,531.740088 L392.552901,527.537445 L390,529.872247 L393.249147,533.84141 L398.354949,536.409692 L396.730375,539.911894 L403.924915,545.048458 L401.604096,549.718062 L407.406143,553.687225 L413.208191,556.255507 L415.296928,566.528634 L427.59727,555.555066 L432.006826,554.387665 L436.416382,558.823789 L433.631399,566.061674 L442.450512,574 L445.467577,573.299559 L443.610922,565.828194 L447.556314,562.325991 L448.484642,557.189427 L448.25256,545.515419 L458,544.348018 L453.358362,540.378855 L447.556314,539.911894 L439.433447,529.405286 L431.542662,521.933921 L425.508532,527.770925 L424.348123,531.273128 L418.778157,530.339207 Z" id="AZ" stroke="#989898" fill="#FBF4E7"/>
                                    <polygon id="GE" stroke="#989898" fill="#FBF4E7" points="370.951351 507.012987 353.518919 500.045455 335.621622 497.642857 325.162162 495 324 496.681818 329.113514 501.246753 336.086486 502.928571 343.989189 508.454545 348.87027 518.545455 348.172973 525.032468 360.724324 524.311688 373.740541 531.519481 389.778378 529.116883 392.335135 526.714286 402.097297 531.038961 408.605405 532 410 530.318182 402.562162 522.149351 405.118919 519.987013 396.983784 516.623377 392.102703 510.616883 380.248649 507.493506 373.508108 509.896104"/>
                                    <polygon id="KZ" stroke="#989898" fill="#FBF4E7" points="626.900151 328.056291 605.675866 325 598.365278 330.877483 572.896136 336.049669 568.887105 339.576159 529.26844 344.513245 525.966884 349.450331 537.758154 359.089404 528.560963 362.850993 532.098344 366.847682 523.60863 373.665563 545.776217 383.539735 545.304566 390.592715 529.032614 389.887417 527.146011 394.119205 509.930758 386.596026 492.008028 387.066225 481.867536 392.943709 466.303061 387.301325 438.239839 377.192053 420.552935 377.662252 401.451079 393.178808 403.101856 403.993377 388.952333 395.529801 384 411.516556 388.009032 414.337748 384 425.387417 396.498746 435.496689 404.98846 435.02649 414.893126 444.665563 415.364777 452.188742 421.967888 454.539735 432.344205 451.483444 444.135474 445.135762 455.219267 448.662252 466.774711 447.956954 471.255394 457.125828 472.670346 471.231788 461.822378 469.115894 452.389363 471.466887 454.511791 482.046358 442.720522 480.635762 444.135474 485.337748 451.681887 489.099338 460.407426 502.029801 475.500251 506.966887 479.037632 511.903974 477.386854 518.016556 479.037632 521.543046 483.282489 516.84106 496.252885 513.784768 505.21425 517.781457 516.769694 529.301325 522.665329 528.596026 508.044155 474.993377 536.107376 466.529801 538.701455 467.705298 560.161565 478.284768 571.481184 483.692053 586.809834 496.622517 600.251882 494.506623 620.532865 493.331126 638.219769 503.910596 641.75715 518.486755 647.652785 518.721854 653.784245 530.476821 669.348721 530.94702 674.772704 538 679.253387 538 681.375815 527.42053 694.110386 517.311258 700.006021 514.490066 700.713497 508.142384 708.024084 506.261589 729.484195 511.198675 728.305068 502.735099 734.200702 499.678808 753.302559 505.791391 757.075765 504.145695 777.356749 504.615894 795.751129 506.02649 803.533367 511.198675 811.787255 513.31457 807.778224 505.086093 814.61716 501.324503 794.100351 476.168874 815.324636 470.52649 820.041144 467.235099 817.68289 441.139073 842.916207 445.84106 846.689413 439.258278 840.793778 424.682119 849.755143 423.271523 854 413.397351 843.859508 404.463576 829.709985 406.57947 821.927747 400.466887 812.730557 397.645695 803.061716 389.182119 795.515304 386.596026 780.894129 390.357616 761.320622 381.89404 758.726543 389.652318 716.042148 353.211921 696.46864 342.162252 698.355243 337.695364 676.895133 351.096026 666.518816 352.036424 663.688911 344.278146 647.181134 339.34106 637.040642 342.86755 626.900151 328.056291"/>
                                    <path d="M682.972907,24.0613061 L672.343854,14.6254998 L640.220493,4.95379831 L618.017582,0 L603.373109,2.12305642 L590.854446,8.96401599 L604.554114,10.8511773 L620.143392,18.3998223 L639.039487,22.41004 L666.202623,25.476677 L682.972907,24.0613061 Z M260.881395,6.84095957 L263.007206,5.42558863 L249.543738,3.30253221 L242.930105,4.95379831 L239.85949,7.31274989 L236.316472,4.482008 L224.034011,4.71790315 L209.389537,6.60506442 L227.577028,6.84095957 L224.978815,9.90759662 L235.371667,12.2665482 L243.87491,10.6152821 L244.111111,8.96401599 L250.960945,8.25633052 L260.881395,6.84095957 Z M734.464764,30.1945802 L730.921747,25.9484673 L701.396599,19.8151932 L694.310563,19.1075078 L689.114137,20.2869836 L691.948552,34.440693 L734.464764,30.1945802 Z M770.367344,45.0559751 L748.636835,43.404709 L756.667675,40.5739671 L737.299179,37.0355398 L722.890906,41.5175478 L720.528895,46.2354509 L724.071912,51.1892492 L707.774031,50.9533541 L695.255368,57.0866282 L685.098717,54.4917814 L663.132007,55.6712572 L663.840611,58.7378943 L642.110102,60.3891604 L630.536244,66.0506442 L620.615795,66.5224345 L617.781381,74.3069747 L630.772446,80.4402488 L612.584955,82.0915149 L590.145842,81.3838294 L576.446174,83.9786761 L587.783831,96.7170147 L604.081712,106.860506 L581.406399,99.7836517 L562.746505,100.491337 L550.700245,105.20924 L561.329298,114.173256 L549.75544,111.814305 L544.795215,100.019547 L534.874766,93.4144825 L530.623145,93.6503776 L539.126387,102.378498 L528.261133,110.634829 L547.393428,120.542426 L548.338233,133.280764 L555.188067,140.121724 L566.289523,141.301199 L567.234328,149.55753 L577.62718,156.87028 L573.139357,163.003554 L574.320363,169.372723 L565.580919,172.675255 L564.399914,177.393159 L551.881251,175.505997 L560.148292,157.106175 L558.967286,148.613949 L543.141807,140.829409 L534.166162,123.609063 L525.426719,114.880942 L516.923476,111.106619 L518.813085,101.199023 L511.963251,94.3580631 L485.272518,91.0555309 L480.312293,93.4144825 L481.493299,104.501555 L471.336648,115.588627 L474.171062,119.598845 L485.272518,129.270546 L485.508719,135.403821 L498.027381,136.583296 L499.916991,139.178143 L513.616659,146.019103 L511.254648,152.624167 L467.557429,138.234562 L451.968151,134.224345 L421.7344,130.450022 L418.899986,134.46024 L432.835855,141.77299 L426.458423,150.265215 L411.341548,142.71657 L399.531489,147.906264 L381.580199,148.142159 L376.619974,152.624167 L364.101311,151.208796 L370.006341,143.424256 L362.447903,142.952466 L333.395158,153.803643 L315.443868,159.936917 L316.388673,168.193247 L302.216602,171.023989 L292.768555,166.541981 L289.93414,159.465127 L301.744199,157.813861 L293.240957,150.737006 L264.424413,146.490893 L274.581064,154.511328 L272.691454,162.059973 L283.79291,169.844514 L281.194697,178.80853 L270.329442,174.326522 L260.881395,173.618836 L241.9853,186.357175 L251.90575,196.028876 L244.347312,199.331408 L217.420378,191.075078 L212.460153,196.028876 L220.254792,201.69036 L220.727194,208.059529 L211.751549,204.756997 L197.579478,200.746779 L193.091656,187.06486 L190.729644,180.931586 L171.83355,171.49578 L178.683384,169.844514 L226.159821,179.75211 L241.276697,176.213683 L250.016141,169.372723 L246.236922,160.880498 L236.788874,154.747223 L195.217466,140.357619 L167.818129,137.290982 L149.86684,129.742337 L141.363597,133.98845 L126.246721,139.178143 L118.688284,140.357619 L119.633088,149.08574 L136.639573,157.813861 L130.02594,167.485562 L145.142816,182.346957 L141.127396,193.669924 L152.701254,203.341626 L150.575443,212.069747 L167.818129,221.269658 L165.692319,228.110618 L157.89768,235.895158 L139.237786,253.351399 L151.756449,259.956464 L141.127396,267.505109 L143.253207,269.86406 L137.111976,277.884496 L143.017005,290.858729 L139.237786,295.340737 L144.906615,298.64327 L147.268627,305.248334 L152.228851,313.74056 L164.511313,317.278987 L166.873325,320.581519 L172.305952,318.930253 L183.643609,322.232785 L186.00562,329.073745 L184.588413,332.848068 L193.327857,342.047979 L198.524283,344.642825 L198.288082,347.237672 L206.318922,349.832519 L210.334342,353.606841 L206.555123,356.673478 L197.343277,356.201688 L195.453668,357.617059 L198.996685,362.334962 L203.720709,371.534873 L207.97233,372.006664 L210.334342,368.704131 L213.87736,369.411817 L225.215017,368.232341 L234.190661,376.252777 L232.064851,379.319414 L233.718259,383.801422 L243.166306,384.273212 L248.362732,390.642381 L248.835135,393.473123 L264.424413,398.662817 L272.691454,396.303865 L281.194697,403.144825 L288.044531,402.908929 L305.995821,407.626833 L306.940625,412.108841 L303.87001,419.657486 L308.121631,427.677921 L307.413028,432.631719 L296.311572,433.811195 L291.115146,437.821413 L292.059951,444.426477 L301.980401,442.067526 L302.925205,445.134163 L286.863525,451.267437 L294.421963,456.92892 L286.863525,469.195469 L278.832685,471.55442 L290.642744,480.046646 L305.287217,485.70813 L322.766105,497.738783 L323.947111,496.087517 L334.576164,498.682363 L352.763655,501.041315 L370.478743,507.882275 L373.076956,510.713016 L379.926791,508.354065 L391.973051,511.420702 L396.933276,517.318081 L405.200317,520.620613 L408.743335,521.092403 L418.899986,530.056419 L424.568814,531 L425.74982,527.461573 L431.891051,521.564194 L414.648364,504.343847 L413.70356,494.672146 L399.76769,480.754331 L408.034731,465.892936 L418.899986,463.29809 L422.206802,454.569969 L415.593169,452.211017 L415.120767,444.662372 L405.200317,434.990671 L396.697075,435.462461 L384.178412,425.318969 L388.193832,414.231897 L384.178412,411.401155 L389.138637,395.360284 L403.310708,403.85251 L401.657299,393.001333 L420.789595,377.432252 L438.504684,376.960462 L466.612624,387.103954 L482.201902,392.765438 L492.358553,386.868059 L510.309843,386.396268 L527.552529,393.944913 L529.442139,389.698801 L545.74002,390.406486 L546.212423,383.329631 L524.009511,373.422035 L532.512754,366.581075 L528.969736,362.570857 L538.181582,358.796535 L526.371523,349.124833 L529.67834,344.171035 L569.360138,339.217237 L573.375558,335.678809 L598.885286,330.489116 L606.207523,324.591737 L627.465629,327.658374 L637.62228,342.519769 L647.778931,338.981342 L664.313013,343.93514 L667.147428,351.71968 L677.54028,350.7761 L699.034587,337.330076 L697.144978,341.812084 L716.749676,352.899156 L759.50209,389.462905 L762.100303,381.678365 L781.705001,390.170591 L796.349474,386.396268 L803.907912,388.991115 L813.59216,397.483341 L822.804006,400.314083 L830.598645,406.447357 L844.770716,404.3243 L854.927367,413.288316 L858.942787,412.108841 L870.044243,409.749889 L885.633521,397.01155 L899.56939,390.170591 L912.088053,394.652599 L924.134313,394.888494 L935.235769,401.729454 L947.045828,402.201244 L965.705721,405.975566 L971.37455,395.832075 L961.926502,387.339849 L964.997118,372.242559 L981.294999,378.139938 L992.632656,380.027099 L1008.22193,383.565526 L1016.96138,394.416704 L1036.80228,400.549978 L1046.01412,397.955131 L1059.47759,396.06797 L1072.23245,397.955131 L1087.58553,405.031986 L1099.15939,412.344736 L1109.78844,412.344736 L1125.61392,414.703687 L1134.11716,410.929365 L1147.81683,408.570413 L1158.44589,398.191026 L1166.24052,399.842292 L1175.45237,404.796091 L1188.44344,403.616615 L1205.68612,409.042203 L1216.07897,399.842292 L1211.59115,393.473123 L1211.35495,378.139938 L1214.18936,373.422035 L1208.28433,365.637494 L1199.54489,362.099067 L1203.56031,355.022212 L1215.60657,352.427366 L1230.25104,351.955575 L1250.32815,356.201688 L1264.26401,361.627277 L1282.45151,376.016881 L1291.42715,382.386051 L1301.82,391.114171 L1316.22827,405.503776 L1339.61219,409.985784 L1360.6341,420.601066 L1374.80617,434.282985 L1392.52126,434.282985 L1398.66249,428.385606 L1414.96037,424.139494 L1418.03098,437.349622 L1417.08618,442.775211 L1423.69981,458.816082 L1425.11702,472.969791 L1409.05534,470.374944 L1402.20551,475.564638 L1413.30696,488.067081 L1422.28261,505.287428 L1416.37758,505.523323 L1420.8654,512.836073 L1424.17222,515.43092 L1423.22741,510.713016 L1432.67546,500.097734 L1444.72172,507.174589 L1452.28016,506.938694 L1462.67301,498.446468 L1465.03502,489.718347 L1469.99524,472.969791 L1474.48307,455.98534 L1471.41245,445.841848 L1473.77446,424.611284 L1461.492,401.257663 L1448.50094,384.037317 L1445.43032,369.411817 L1434.32887,357.381164 L1404.33132,341.576188 L1391.10405,340.632608 L1390.39545,347.709462 L1376.69578,344.642825 L1363.23231,335.678809 L1344.33622,334.027543 L1355.91007,300.766326 L1364.17711,273.638383 L1395.11947,269.39227 L1430.31345,271.751222 L1436.21848,265.146157 L1454.87837,267.033319 L1465.03502,277.17681 L1480.1519,275.761439 L1499.99279,271.987117 L1481.8053,263.730786 L1481.8053,240.613061 L1503.29961,236.131053 L1531.87995,252.879609 L1540.3832,237.782319 L1532.82476,226.695247 L1543.92621,225.515771 L1559.27929,244.623279 L1553.61046,255.474456 L1551.72085,269.628165 L1552.42946,287.320302 L1538.96599,290.386939 L1545.57962,296.756108 L1545.34342,305.248334 L1560.4603,324.827632 L1598.25249,356.437583 L1623.05361,377.196357 L1636.51708,387.339849 L1640.2963,373.893825 L1629.66724,359.268325 L1643.13071,355.729898 L1630.37585,339.453132 L1642.18591,332.140382 L1631.08445,326.007108 L1623.05361,314.21235 L1632.73786,313.74056 L1611.47975,293.453576 L1595.65427,290.151044 L1588.80444,284.48956 L1586.20623,271.279431 L1578.88399,262.07952 L1595.41807,263.966681 L1598.48869,258.069303 L1609.59014,263.258996 L1623.99841,252.407819 L1650.92535,261.843625 L1646.90993,255.710351 L1651.63395,247.218125 L1655.17697,237.782319 L1662.49921,236.131053 L1677.85228,225.987561 L1701,228.818303 L1698.87419,225.279876 L1689.89854,219.854287 L1680.2143,216.079964 L1658.71999,205.228787 L1639.58769,198.151932 L1653.99596,199.095513 L1658.71999,193.198134 L1581.0098,141.537095 L1558.80689,136.111506 L1521.7233,129.978232 L1503.06341,130.685917 L1467.16083,127.383385 L1471.41245,132.808974 L1491.48955,140.829409 L1485.58452,145.075522 L1452.04395,133.752554 L1435.98227,135.167925 L1414.25177,132.573079 L1397.71768,133.044869 L1388.50584,135.639716 L1371.49935,131.865393 L1359.45309,122.901377 L1344.10001,117.711684 L1322.36951,115.588627 L1287.64793,117.947579 L1249.61954,108.511773 L1231.19585,101.434918 L1136.47918,93.4144825 L1131.51895,98.6041759 L1153.48566,109.927143 L1135.77057,108.275877 L1133.40856,111.814305 L1110.49705,108.039982 L1098.68699,111.342514 L1076.72028,105.681031 L1083.80631,118.655264 L1062.78441,113.701466 L1039.16429,104.029765 L1038.21948,98.8400711 L1024.04741,91.0555309 L1000.8997,84.9222568 L986.491425,84.9222568 L964.524715,82.7992004 L975.626171,91.9991115 L934.999568,90.1119502 L925.787722,84.6863616 L894.372964,82.5633052 L881.854302,84.4504665 L881.618101,87.5171035 L867.918432,79.9684585 L862.485805,82.0915149 L845.47932,79.260773 L832.252054,77.6095069 L834.850267,74.0710795 L850.439545,67.4660151 L855.872172,63.9275877 L850.203343,58.0302088 L837.212278,53.5482008 L810.049143,48.1226122 L784.539415,47.886717 L780.051592,50.7174589 L770.367344,45.0559751 Z M387.249027,119.598845 L363.86511,109.455353 L356.542874,99.3118614 L364.337513,87.7529987 L370.951146,75.9582408 L391.264447,64.8711684 L414.412163,59.2096846 L441.102897,53.5482008 L444.173512,50.0097734 L434.253062,45.5277654 L418.663784,46.9431364 L407.089927,51.1892492 L379.454388,53.3123056 L355.598069,60.6250555 L339.536389,66.9942248 L345.441418,72.1839183 L329.85214,82.5633052 L339.063986,84.2145713 L326.309122,94.3580631 L330.088341,100.963127 L322.057501,103.557974 L326.545324,110.163039 L345.205217,113.465571 L350.401643,118.891159 L382.052601,120.542426 L387.249027,119.598845 Z M1128.92074,61.332741 L1086.64073,55.1994669 L1062.54821,54.7276766 L1054.51737,56.850733 L1062.54821,64.8711684 L1091.83715,72.4198134 L1102.46621,69.5890715 L1136.00677,70.0608618 L1128.92074,61.332741 Z M1188.44344,66.7583296 L1160.8079,63.6916926 L1141.4394,62.0404265 L1145.45482,65.814749 L1169.78354,70.5326522 L1185.84522,71.4762328 L1188.44344,66.7583296 Z M1158.91829,89.1683696 L1153.01326,85.8658374 L1133.40856,81.3838294 L1123.72431,82.5633052 L1121.8347,87.2812084 L1124.43292,87.7529987 L1145.21862,89.1683696 L1158.91829,89.1683696 Z M1542.98141,118.183474 L1528.80934,109.691248 L1525.50252,114.880942 L1533.76956,118.655264 L1542.98141,118.183474 Z M96.4853725,339.689027 L95.0681654,336.1506 L95.5405678,332.140382 L90.3441418,330.017326 L78.5340827,327.422479 L63.6534083,332.140382 L62,338.273656 L75.9358697,339.924922 L96.4853725,339.689027 Z M1489.36374,391.114171 L1472.35726,376.488672 L1460.311,362.334962 L1444.24932,348.653043 L1432.67546,339.217237 L1429.60484,341.104398 L1439.99769,347.709462 L1435.50987,354.314527 L1451.57155,373.893825 L1469.99524,388.047534 L1485.11212,407.626833 L1490.78095,418.47801 L1503.77201,434.51888 L1512.74766,448.67259 L1523.61291,460.939138 L1523.37671,449.616171 L1538.72979,458.580187 L1531.64375,448.2008 L1509.20464,433.339405 L1500.4652,412.108841 L1521.4871,416.826744 L1489.36374,391.114171 Z" id="RU" stroke="#989898" fill="#FBF4E7"/>
                                    <polygon id="UA" stroke="#989898" fill="#FBF4E7" points="225.435227 369 214.144318 370.186613 210.615909 369.474645 208.263636 372.79716 204.029545 372.322515 204.029545 372.322515 194.385227 373.034483 191.5625 376.356998 192.032955 383.713996 187.328409 382.290061 177.213636 383.002028 173.685227 379.442191 169.921591 382.052738 165.217045 379.916836 156.278409 379.679513 143.105682 376.119675 131.344318 374.933063 122.640909 375.407708 116.995455 379.204868 111.820455 379.916836 119.1125 392.494929 118.406818 396.766734 112.996591 398.427992 104.057955 410.53144 107.821591 417.176471 105.234091 416.227181 102.646591 420.261663 101 426.194726 107.821591 430.229209 109.232955 434.026369 113.702273 430.941176 121.229545 432.602434 128.756818 432.602434 134.402273 436.162272 138.165909 434.026369 146.634091 432.602434 148.986364 429.042596 153.926136 429.042596 156.513636 426.906694 164.040909 425.482759 173.214773 429.991886 177.919318 430.703854 183.8 434.501014 183.8 439.484787 188.269318 442.095335 190.856818 448.26572 195.561364 451.825558 195.090909 454.198783 197.443182 455.622718 194.620455 456.809331 187.563636 456.334686 186.152273 454.198783 183.8 455.385396 184.976136 457.995943 182.388636 462.742394 181.2125 467.726166 178.389773 469.387424 184.035227 471.997972 189.210227 469.624746 194.855682 472.235294 202.618182 461.318458 205.676136 453.249493 216.261364 451.350913 217.907955 457.046653 236.726136 460.606491 240.725 463.929006 230.139773 468.912779 228.493182 471.760649 242.136364 476.032454 240.725 482.914807 247.781818 486 262.601136 477.456389 275.068182 474.845842 276.479545 469.624746 264.482955 470.574037 258.131818 467.014199 255.779545 457.758621 264.953409 452.300203 275.773864 451.588235 282.830682 446.841785 292.004545 445.655172 291.063636 439.010142 296.238636 434.975659 307.294318 433.789047 308 428.805274 303.765909 420.736308 306.823864 413.141988 305.882955 408.63286 288.005682 403.88641 281.184091 404.123732 272.715909 397.241379 264.482955 399.614604 248.957955 394.393509 248.4875 391.545639 243.3125 385.137931 233.903409 384.663286 232.256818 380.154158 234.373864 377.068966 225.435227 369"/>
                                    <polygon id="PL" stroke="#989898" fill="#FBF4E7" points="61.7746479 338.207865 50.7605634 337.969101 49.5633803 334.626404 38.0704225 332 24.4225352 337.014045 7.42253521 343.699438 0 347.758427 3.35211268 355.160112 0.478873239 358.980337 5.26760563 364.233146 8.61971831 372.11236 8.38028169 377.126404 13.8873239 386.438202 19.6338028 390.974719 28.4929577 392.407303 28.2535211 396.466292 34.7183099 399.331461 36.1549296 395.75 44.2957746 397.182584 45.971831 401.957865 54.5915493 402.674157 60.8169014 410.075843 61.5352113 411.030899 66.084507 408.882022 72.5492958 414.134831 79.2535211 411.030899 85 412.463483 93.1408451 410.553371 104.873239 416.044944 107.507042 417 103.676056 410.314607 112.774648 398.13764 118.28169 396.466292 119 392.168539 111.577465 379.514045 110.380282 373.067416 105.830986 366.143258 112.295775 363.27809 111.577465 357.547753 107.507042 352.05618 106.070423 345.609551 102.71831 341.073034 96.7323944 339.640449 75.9014085 339.879213 61.7746479 338.207865"/>
                                </g>
                            </g>
                        </g>
                    </g>
                    <rect id="Rectangle" fill="url(#linearGradient-3)" x="0" y="0" width="1360" height="120"/>
                    <rect id="Rectangle-Copy-2" fill="url(#linearGradient-3)" transform="translate(680.000000, 420.000000) scale(1, -1) translate(-680.000000, -420.000000) " x="0" y="360" width="1360" height="120"/>
                </g>
                <g id="Group-5" transform="translate(333.000000, 198.000000)">
                    <g id="Combined-Shape" transform="translate(68.731275, 28.092450) scale(-1, 1) translate(-68.731275, -28.092450) ">
                        <use fill="black" fill-opacity="1" filter="url(#filter-5)" xlink:href="#path-4"/>
                        <use fill="#F9A01A" fill-rule="evenodd" xlink:href="#path-4"/>
                    </g>
                </g>
                <g id="Group-5-Copy-2" transform="translate(145.000000, 124.000000)">
                    <g id="Combined-Shape" transform="translate(68.731275, 28.092450) scale(-1, 1) translate(-68.731275, -28.092450) ">
                        <use fill="black" fill-opacity="1" filter="url(#filter-7)" xlink:href="#path-6"/>
                        <use fill="#F9A01A" fill-rule="evenodd" xlink:href="#path-6"/>
                    </g>
                    
                </g>
                <g id="Group-5-Copy" transform="translate(484.000000, 294.000000)">
                    <g id="Combined-Shape" transform="translate(68.731275, 28.092450) scale(-1, 1) translate(-68.731275, -28.092450) ">
                        <use fill="black" fill-opacity="1" filter="url(#filter-9)" xlink:href="#path-8"/>
                        <use fill="#F9A01A" fill-rule="evenodd" xlink:href="#path-8"/>
                    </g>
                    
                </g>
                <g id="Combined-Shape-Copy-3">
                    <use fill="black" fill-opacity="1" filter="url(#filter-11)" xlink:href="#path-10"/>
                    <use fill="#F9A01A" fill-rule="evenodd" xlink:href="#path-10"/>
                </g>
                
                <g id="Group-7" transform="translate(896.000000, 183.000000)">
                    <g id="Combined-Shape-Copy-2">
                        <use fill="black" fill-opacity="1" filter="url(#filter-13)" xlink:href="#path-12"/>
                        <use fill="#F9A01A" fill-rule="evenodd" xlink:href="#path-12"/>
                    </g>
                    
                </g>
                <g id="Group-6" transform="translate(582.000000, 57.000000)">
                    <g id="Combined-Shape-Copy" transform="translate(68.731275, 28.092450) scale(-1, 1) translate(-68.731275, -28.092450) ">
                        <use fill="black" fill-opacity="1" filter="url(#filter-15)" xlink:href="#path-14"/>
                        <use fill="#F9A01A" fill-rule="evenodd" xlink:href="#path-14"/>
                    </g>
                    
                </g>
            </g>
        </g>
    </g>
</svg>