<svg xmlns="http://www.w3.org/2000/svg" xmlns:xlink="http://www.w3.org/1999/xlink" width="320px" height="291px" viewBox="0 0 320 291" version="1.1">
    <!-- Generator: Sketch 52 (66869) - http://www.bohemiancoding.com/sketch -->
    <title>Group 25</title>
    <desc>Created with Sketch.</desc>
    <defs>
        <polygon id="path-1" points="0 0 320 0 320 291 0 291"/>
        <linearGradient x1="50%" y1="0%" x2="50%" y2="100%" id="linearGradient-3">
            <stop stop-color="#FFFFFF" offset="0%"/>
            <stop stop-color="#FFFFFF" stop-opacity="0" offset="100%"/>
        </linearGradient>
        <path d="M69.8304065,148.820085 L65.8727763,153.247478 C65.7779192,153.353595 65.6423326,153.414255 65.5,153.414255 C65.2238576,153.414255 65,153.190397 65,152.914255 L65,148.820085 L65,121 C65,120.447715 65.4477153,120 66,120 L147,120 C147.552285,120 148,120.447715 148,121 L148,147.820085 C148,148.37237 147.552285,148.820085 147,148.820085 L69.8304065,148.820085 Z" id="path-4"/>
        <filter x="-60.2%" y="-119.7%" width="220.5%" height="398.9%" filterUnits="objectBoundingBox" id="filter-5">
            <feOffset dx="0" dy="10" in="SourceAlpha" result="shadowOffsetOuter1"/>
            <feGaussianBlur stdDeviation="15" in="shadowOffsetOuter1" result="shadowBlurOuter1"/>
            <feColorMatrix values="0 0 0 0 0   0 0 0 0 0   0 0 0 0 0  0 0 0 0.3 0" type="matrix" in="shadowBlurOuter1"/>
        </filter>
        <path d="M161.830407,207.820085 L157.872776,212.247478 C157.777919,212.353595 157.642333,212.414255 157.5,212.414255 C157.223858,212.414255 157,212.190397 157,211.914255 L157,207.820085 L157,180 C157,179.447715 157.447715,179 158,179 L239,179 C239.552285,179 240,179.447715 240,180 L240,206.820085 C240,207.37237 239.552285,207.820085 239,207.820085 L161.830407,207.820085 Z" id="path-6"/>
        <filter x="-60.2%" y="-119.7%" width="220.5%" height="398.9%" filterUnits="objectBoundingBox" id="filter-7">
            <feOffset dx="0" dy="10" in="SourceAlpha" result="shadowOffsetOuter1"/>
            <feGaussianBlur stdDeviation="15" in="shadowOffsetOuter1" result="shadowBlurOuter1"/>
            <feColorMatrix values="0 0 0 0 0   0 0 0 0 0   0 0 0 0 0  0 0 0 0.3 0" type="matrix" in="shadowBlurOuter1"/>
        </filter>
        <path d="M220.830407,63.8200854 L216.872776,68.2474783 C216.777919,68.3535947 216.642333,68.4142549 216.5,68.4142549 C216.223858,68.4142549 216,68.1903973 216,67.9142549 L216,63.8200854 L216,36 C216,35.4477153 216.447715,35 217,35 L298,35 C298.552285,35 299,35.4477153 299,36 L299,62.8200854 C299,63.3723701 298.552285,63.8200854 298,63.8200854 L220.830407,63.8200854 Z" id="path-8"/>
        <filter x="-60.2%" y="-119.7%" width="220.5%" height="398.9%" filterUnits="objectBoundingBox" id="filter-9">
            <feOffset dx="0" dy="10" in="SourceAlpha" result="shadowOffsetOuter1"/>
            <feGaussianBlur stdDeviation="15" in="shadowOffsetOuter1" result="shadowBlurOuter1"/>
            <feColorMatrix values="0 0 0 0 0   0 0 0 0 0   0 0 0 0 0  0 0 0 0.3 0" type="matrix" in="shadowBlurOuter1"/>
        </filter>
        <path d="M32.8873514,30.2622647 L28.9549582,34.8205243 C28.8599779,34.9306213 28.7217756,34.9939183 28.5763707,34.9939183 C28.3002283,34.9939183 28.0763707,34.7700607 28.0763707,34.4939183 L28.0763707,30.2622647 L29.0763707,30.2622647 C28.5240859,30.2622647 28.0763707,29.8145494 28.0763707,29.2622647 L28.0763707,1.51997018 C28.0763707,0.967685433 28.5240859,0.519970183 29.0763707,0.519970183 L109.74258,0.519970183 C110.294864,0.519970183 110.74258,0.967685433 110.74258,1.51997018 L110.74258,30.2622647 L32.8873514,30.2622647 Z" id="path-10"/>
        <filter x="-60.5%" y="-116.0%" width="221.0%" height="389.7%" filterUnits="objectBoundingBox" id="filter-11">
            <feOffset dx="0" dy="10" in="SourceAlpha" result="shadowOffsetOuter1"/>
            <feGaussianBlur stdDeviation="15" in="shadowOffsetOuter1" result="shadowBlurOuter1"/>
            <feColorMatrix values="0 0 0 0 0   0 0 0 0 0   0 0 0 0 0  0 0 0 0.3 0" type="matrix" in="shadowBlurOuter1"/>
        </filter>
        <path d="M4.83759984,29.6755484 L0.874130498,34.1459879 C0.779235434,34.2530211 0.643042547,34.3142857 0.5,34.3142857 C0.223857625,34.3142857 1.92119683e-15,34.0904281 1.88737914e-15,33.8142857 L0,29.6755484 L0,1.57485162 C-6.76353751e-17,1.02256687 0.44771525,0.574851619 1,0.574851619 L99.2222222,0.574851619 C99.774507,0.574851619 100.222222,1.02256687 100.222222,1.57485162 L100.222222,28.6755484 C100.222222,29.2278332 99.774507,29.6755484 99.2222222,29.6755484 L4.83759984,29.6755484 Z" id="path-12"/>
        <filter x="-49.9%" y="-118.6%" width="199.8%" height="396.1%" filterUnits="objectBoundingBox" id="filter-13">
            <feOffset dx="0" dy="10" in="SourceAlpha" result="shadowOffsetOuter1"/>
            <feGaussianBlur stdDeviation="15" in="shadowOffsetOuter1" result="shadowBlurOuter1"/>
            <feColorMatrix values="0 0 0 0 0   0 0 0 0 0   0 0 0 0 0  0 0 0 0.3 0" type="matrix" in="shadowBlurOuter1"/>
        </filter>
        <path d="M5.05328785,29.3909018 L1.05790569,33.9091519 C0.962999707,34.016478 0.826613555,34.0779362 0.683344415,34.0779362 C0.40720204,34.0779362 0.183344415,33.8540785 0.183344415,33.5779362 L0.183344415,29.3909018 L0.183344415,1.01883013 C0.183344415,0.466545378 0.631059665,0.0188301282 1.18334441,0.0188301282 L82.8626995,0.0188301282 C83.4149842,0.0188301282 83.8626995,0.466545378 83.8626995,1.01883013 L83.8626995,28.3909018 C83.8626995,28.9431866 83.4149842,29.3909018 82.8626995,29.3909018 L5.05328785,29.3909018 Z" id="path-14"/>
        <filter x="-59.8%" y="-117.4%" width="219.5%" height="393.3%" filterUnits="objectBoundingBox" id="filter-15">
            <feOffset dx="0" dy="10" in="SourceAlpha" result="shadowOffsetOuter1"/>
            <feGaussianBlur stdDeviation="15" in="shadowOffsetOuter1" result="shadowBlurOuter1"/>
            <feColorMatrix values="0 0 0 0 0   0 0 0 0 0   0 0 0 0 0  0 0 0 0.3 0" type="matrix" in="shadowBlurOuter1"/>
        </filter>
    </defs>
    <g id="Mobile" stroke="none" stroke-width="1" fill="none" fill-rule="evenodd">
        <g id="05-О-застройщике-" transform="translate(0.000000, -1612.000000)">
            <g id="Group-25" transform="translate(0.000000, 1612.000000)">
                <mask id="mask-2" fill="white">
                    <use xlink:href="#path-1"/>
                </mask>
                <use id="Mask" fill="#FFFFFF" xlink:href="#path-1"/>
                <polygon id="AL" stroke="#EFEFEF" fill="#FDFCF2" stroke-linejoin="round" mask="url(#mask-2)" points="62.9166667 200 60 204.382199 60.7291667 207.068063 60.7291667 207.068063 62.1875 208.481675 61.4583333 211.167539 61.3125 217.246073 62.3333333 221.486911 66.7083333 224.455497 67 226.434555 68.4583333 227 71.5208333 222.759162 71.6666667 219.790576 74 218.518325 74 216.256545 70.6458333 213.994764 69.3333333 210.319372 69.9166667 207.350785 69.9166667 207.350785 69.1875 204.099476 67.2916667 203.251309 65.3958333 200.989529 63.5 201.696335 62.9166667 200"/>
                <polygon id="AM" stroke="#EFEFEF" fill="#FDFCF2" stroke-linejoin="round" mask="url(#mask-2)" points="266 236.710692 264.685393 230.345912 261.033708 228.754717 257.382022 226.295597 258.842697 223.402516 254.314607 220.220126 255.337079 218.050314 252.123596 216.459119 250.078652 214 240 215.446541 241.898876 218.628931 241.898876 223.113208 248.033708 225.283019 251.539326 228.031447 253 227.742138 255.629213 230.201258 258.988764 230.201258 259.280899 231.647799 263.370787 237 266 236.710692"/>
                <polygon id="AT" stroke="#EFEFEF" fill="#FDFCF2" stroke-linejoin="round" mask="url(#mask-2)" points="38.423913 147.975309 35.111413 146.271605 31.798913 146.697531 26.0380435 144 23.5896739 144.709877 19.8451087 148.259259 14.3722826 145.419753 12.2119565 149.537037 9.76358696 150.67284 11.2038043 156.351852 10.6277174 157.91358 8.17934783 156.067901 4.72282609 155.783951 -0.173913043 157.487654 -6.51086957 157.061728 -7.375 159.333333 -11.1195652 156.919753 -13.2798913 157.345679 -12.9918478 158.907407 -14 161.179012 -10.6875 162.740741 -6.94293478 163.024691 -2.47826087 164.302469 -1.75815217 162.598765 5.1548913 161.037037 7.02717391 164.160494 17.3967391 166.432099 23.4456522 167 26.9021739 165.012346 33.0951087 164.87037 34.3913043 163.308642 36.263587 157.62963 34.6793478 155.783951 38.7119565 155.783951 39 152.092593 37.9918478 149.111111 38.423913 147.975309"/>
                <polygon id="BG" stroke="#EFEFEF" fill="#FDFCF2" stroke-linejoin="round" mask="url(#mask-2)" points="125 190.816216 120.796178 189.794595 115.191083 186.583784 107.063694 188.627027 103.840764 190.962162 93.3312102 190.524324 87.7261146 189.064865 85.0636943 189.794595 82.5414013 186 81 188.043243 81.9808917 191.4 85.9044586 195.194595 83.522293 197.967568 82.5414013 200.886486 83.3821656 201.908108 82.4012739 203.221622 86.3248408 206.140541 87.4458599 212.124324 92.7707006 212.416216 98.2356688 209.935135 103.700637 213 110.146497 212.124324 109.726115 207.745946 116.732484 204.827027 123.038217 205.994595 120.095541 200.886486 121.917197 194.464865"/>
                <polygon id="BA" stroke="#EFEFEF" fill="#FDFCF2" stroke-linejoin="round" mask="url(#mask-2)" points="39.8894472 179 36.5376884 179.144654 35.080402 181.025157 32.3115578 179 31 182.616352 34.9346734 186.811321 36.8291457 189.559748 40.4723618 192.886792 43.3869347 194.91195 46.5929648 198.528302 53.4422111 202 54.0251256 197.081761 56.2110553 195.056604 57.5226131 194.188679 59.2713568 193.754717 60 189.559748 56.0653266 186.232704 57.5226131 182.327044 54.8994975 182.327044 54.8994975 182.327044 51.4020101 180.301887 46.3015075 180.446541 39.8894472 179"/>
                <polygon id="BY" stroke="#EFEFEF" fill="#FDFCF2" stroke-linejoin="round" mask="url(#mask-2)" points="114.036036 85.0989761 106.540541 83 99.9099099 86.21843 96.1621622 87.6177474 97.4594595 91.2559727 92.4144144 94.0546075 91.6936937 98.8122867 84.7747748 101.890785 78.1441441 101.890785 79.009009 105.668942 81.4594595 108.887372 81.8918919 112.245734 78 113.924915 80.7387387 117.982935 81.4594595 121.761092 84.6306306 121.341297 88.0900901 119.102389 93.4234234 118.822526 100.630631 119.522184 108.702703 121.62116 114.18018 121.761092 117.063063 123.020478 119.369369 121.481229 121.531532 123.580205 127.72973 123.16041 130.612613 124 130.324324 119.662116 132.054054 117.703072 137.963964 117.283276 137.963964 117.283276 135.081081 111.825939 132.918919 109.027304 134.072072 108.187713 139.693694 108.467577 142 106.648464 139.54955 104.409556 134.648649 102.870307 134.792793 101.331058 131.621622 99.7918089 126.288288 94.334471 127.153153 92.0955631 125.711712 88.0375427 118.792793 86.0784983 115.477477 87.0580205 114.036036 85.0989761"/>
                <polygon id="CZ" stroke="#EFEFEF" fill="#FDFCF2" stroke-linejoin="round" mask="url(#mask-2)" points="22.8287462 126.14557 19.8103976 127.018987 17.7981651 126 16.2171254 127.746835 11.3302752 129.493671 8.88685015 131.677215 4 133.56962 5.43730887 136.335443 6.44342508 140.120253 10.1804281 142.303797 14.3486239 146.088608 19.8103976 149 23.5474006 145.360759 25.9908257 144.632911 31.7400612 147.398734 35.0458716 146.962025 38.351682 148.708861 39.2140673 146.670886 42.3761468 146.816456 44.675841 145.943038 44.8195719 145.06962 46.1131498 144.632911 46.4006116 142.594937 47.9816514 142.158228 48.8440367 140.556962 51 140.556962 47.2629969 136.044304 42.088685 135.607595 41.0825688 132.696203 36.1957187 131.822785 35.3333333 134.006329 31.4525994 132.259494 31.5963303 129.78481 26.2782875 128.911392 22.8287462 126.14557"/>
                <polygon id="DE" stroke="#EFEFEF" fill="#FDFCF2" stroke-linejoin="round" mask="url(#mask-2)" points="13.808656 102.561702 10.4191344 99.812766 2.65148064 96.3404255 -0.879271071 98.8 -7.51708428 100.391489 -7.65831435 97.3531915 -14.5785877 95.3276596 -14.8610478 92 -19.0979499 93.3021277 -24.1822323 92.1446809 -23.6173121 97.0638298 -21.9225513 100.246809 -26.1594533 104.587234 -27.571754 102.706383 -33.0797267 103.140426 -34.3507973 105.021277 -32.9384966 107.914894 -34.3507973 116.017021 -35.904328 119.344681 -40 119.344681 -38.4464692 128.604255 -39.0113895 134.680851 -37.5990888 136.706383 -37.881549 140.612766 -34.4920273 142.92766 -24.4646925 144.66383 -27.7129841 150.740426 -28.4191344 157.251064 -22.4874715 157.251064 -21.0751708 155.225532 -13.4487472 157.974468 -11.3302961 157.540426 -7.65831435 160 -6.81093394 157.685106 -0.596810934 158.119149 4.20501139 156.382979 7.59453303 156.67234 9.99544419 158.553191 10.5603645 156.961702 9.14806378 151.174468 11.5489749 150.017021 13.667426 145.821277 9.57175399 142.059574 5.89977221 139.889362 4.91116173 136.12766 3.49886105 133.378723 8.30068337 131.497872 10.7015945 129.32766 15.5034169 127.591489 17.0569476 125.855319 19.0341686 126.868085 22 126 18.7517084 120.357447 18.8929385 117.319149 16.9157175 112.544681 14.0911162 109.361702 15.785877 107.046809 13.808656 102.561702"/>
                <path d="M2,86.72 L-0.350230415,82.2628571 L-9.61290323,85.2342857 L-8.36866359,88.9485714 L-1.31797235,94 L2,86.72 Z M-9.88940092,79.1428571 L-13.483871,77.8057143 L-14.4516129,75.4285714 L-12.6543779,72.4571429 L-12.7926267,68 L-17.7695853,70.3771429 L-19.843318,72.9028571 L-25.3732719,73.4971429 L-27.0322581,76.0228571 L-28,78.4 L-27.4470046,87.4628571 L-24.5437788,92.5142857 L-19.5668203,93.7028571 L-15.4193548,92.3657143 L-17.4930876,87.9085714 L-13.2073733,81.52 L-11.2718894,82.56 L-9.88940092,79.1428571 Z" id="DK" stroke="#EFEFEF" fill="#FDFCF2" stroke-linejoin="round" mask="url(#mask-2)"/>
                <polygon id="DZ" stroke="#EFEFEF" fill="#FDFCF2" stroke-linejoin="round" mask="url(#mask-2)" points="-17.8230088 253.567333 -22.9840708 254.137272 -26.1380531 252 -34.1663717 252 -41.1911504 255.704605 -45.0619469 254.279757 -57.5345133 254.992181 -70.2938053 256.701998 -77.4619469 259.551694 -82.3362832 263.256299 -90.5079646 264.966116 -97.819469 269.953084 -94.9522124 275.794961 -94.5221239 281.351868 -91.9415929 290.898349 -89.9345133 292.893136 -91.3681416 296.455256 -101.40354 297.880104 -104.987611 301.299739 -109.431858 302.012163 -109.861947 308.708949 -118.893805 312.271069 -121.904425 316.830582 -128.212389 319.252824 -135.953982 320.677672 -148.713274 327.374457 -148.856637 338.060817 -148.856637 338.630756 -149 340.340573 -119.897345 362.425717 -93.5185841 382.231103 -66.8530973 401.894005 -64.9893805 406.168549 -60.1150442 408.733275 -56.3876106 410.300608 -56.2442478 416 -47.499115 415.145091 -36.3168142 411.155517 -13.6654867 393.344917 13 375.961772 9.4159292 370.262381 3.25132743 366.130321 -0.476106195 367.840139 -3.34336283 362.710686 -3.6300885 358.863597 -8.50442478 352.166811 -5.49380531 348.462207 -6.21061947 342.762815 -5.35044248 337.775847 -6.06725664 333.643788 -4.77699115 326.234579 -5.35044248 321.960035 -8.07433628 313.980886 -11.8017699 297.880104 -16.6761062 294.1755 -16.6761062 292.038228 -23.1274336 286.623805 -23.9876106 279.784535 -19.4 274.655083 -17.8230088 267.103388 -19.2566372 258.269331 -17.8230088 253.567333"/>
                <polygon id="EE" stroke="#EFEFEF" fill="#FDFCF2" stroke-linejoin="round" mask="url(#mask-2)" points="84.2093023 55 76.5348837 56.2857143 69 58.5714286 70.255814 63.4285714 74.8604651 66.4285714 76.9534884 65.2857143 77.0930233 70.2857143 82.255814 68.8571429 85.1860465 69.8571429 91.3255814 73 96.627907 73 98.8604651 70.2857143 95.372093 62.4285714 99 57.5714286 97.744186 56.1428571 97.744186 56.1428571 91.3255814 56.4285714 84.2093023 55"/>
                <polygon id="FI" stroke="#EFEFEF" fill="#FDFCF2" stroke-linejoin="round" mask="url(#mask-2)" points="86.2857143 -24.4982639 87.4285714 -29.9739583 79.2857143 -33 71 -30.40625 69.4285714 -24.7864583 64.5714286 -21.328125 57.8571429 -23.2013889 50.2857143 -22.7690972 43 -26.9479167 40 -24.9305556 48.4285714 -21.0399306 58.7142857 -15.7083333 61.1428571 -3.60416667 63.8571429 -0.434027778 73 3.3125 74.2857143 6.62673611 70.5714286 8.35590278 58.1428571 17.1458333 53.4285714 22.3333333 51.2857143 27.0885417 55.4285714 34.5815972 55.2857143 42.7951389 62 45.5329861 66.4285714 50 76.5714286 48.2708333 87.2857143 45.2447917 98.7142857 44.5243056 98.7142857 44.5243056 110 33.8611111 114.714286 29.1059028 116 24.9270833 105.571429 19.3072917 106.857143 13.9756944 99.8571429 8.06770833 102.285714 1.15104167 93.1428571 -7.92708333 97.1428571 -13.8350694 86.8571429 -19.1666667 86.2857143 -24.4982639"/>
                <path d="M97.8550725,262.829932 L96.6956522,266.76644 L106.26087,268.453515 L106.26087,270 L117.275362,269.156463 L118,266.485261 L113.942029,267.609977 L113.942029,266.063492 L108.289855,265.360544 L102.347826,265.922902 L97.8550725,262.829932 Z M114.521739,210.249433 L110.608696,208 L111.043478,212.217687 L104.376812,213.061224 L98.7246377,210.108844 L93.0724638,212.498866 L87.5652174,212.217687 L86.115942,212.498866 L85.1014493,214.045351 L81.0434783,213.904762 L78.2898551,215.732426 L73.5072464,216.575964 L73.5072464,218.825397 L71.1884058,220.090703 L71.0434783,223.043084 L68,227.260771 L68.7246377,229.931973 L72.9275362,234.993197 L76.2608696,239.210884 L78.1449275,245.256236 L81.4782609,252.426304 L88.1449275,256.503401 L93.0724638,256.362812 L89.5942029,248.349206 L94.3768116,247.365079 L91.6231884,242.725624 L98.8695652,245.115646 L98.2898551,239.913832 L94.3768116,237.38322 L89.7391304,233.165533 L92.3478261,231.197279 L88.2898551,226.979592 L85.9710145,221.637188 L87.2753623,219.809524 L91.6231884,224.30839 L95.826087,224.30839 L99.4492754,222.902494 L93.7971014,217.84127 L102.637681,215.591837 L106.550725,216.435374 L111.188406,216.716553 L112.782609,215.732426 L114.521739,210.249433 Z" id="GR" stroke="#EFEFEF" fill="#FDFCF2" stroke-linejoin="round" mask="url(#mask-2)"/>
                <polygon id="HR" stroke="#EFEFEF" fill="#FDFCF2" stroke-linejoin="round" mask="url(#mask-2)" points="45.9027778 169.798387 40.2083333 166.129032 37.9305556 165 32.3784722 167.399194 31.9513889 170.927419 29.53125 171.774194 29.8159722 174.173387 26.96875 174.032258 24.40625 172.620968 23.2673611 174.032258 18.2847222 173.75 18 173.891129 18 176.995968 20.4201389 179.818548 22.2708333 176.149194 26.96875 177.560484 27.3958333 180.383065 30.9548611 184.052419 29.53125 184.758065 36.0798611 191.108871 42.9131944 193.649194 47.3263889 196.754032 54.4444444 200 54.4444444 200 55.15625 198.58871 48.4652778 195.201613 45.3333333 191.673387 42.4861111 189.697581 38.9270833 186.451613 37.0763889 183.770161 33.2326389 179.677419 34.5138889 176.149194 37.21875 178.125 38.6423611 176.290323 41.9166667 176.149194 48.1805556 177.560484 53.1631944 177.419355 56.5798611 179.395161 56.5798611 179.395161 59 176.149194 56.5798611 173.608871 54.4444444 170.221774 54.4444444 170.221774 51.8819444 171.491935 45.9027778 169.798387"/>
                <polygon id="HU" stroke="#EFEFEF" fill="#FDFCF2" stroke-linejoin="round" mask="url(#mask-2)" points="64.1198738 149 61.8990536 149.58427 60.511041 151.775281 57.4574132 152.797753 56.6246057 152.213483 53.4321767 153.674157 50.7949527 153.966292 50.3785489 155.719101 44.6876972 156.88764 42.0504732 155.865169 38.4416404 153.52809 38.1640379 157.325843 34.2776025 157.325843 35.8044164 159.224719 34 165.067416 35.1104101 165.213483 36.7760252 168.280899 38.9968454 169.449438 44.5488959 173.247191 50.3785489 175 52.8769716 173.685393 52.8769716 173.685393 58.0126183 171.348315 62.4542587 171.640449 67.7287066 170.033708 71.3375394 163.752809 73.9747634 157.617978 78 155.719101 77.1671924 153.382022 73.1419558 150.898876 71.7539432 151.775281 64.1198738 149"/>
                <polygon id="IR" stroke="#EFEFEF" fill="#FDFCF2" stroke-linejoin="round" mask="url(#mask-2)" points="256.980985 234.539037 252.417459 230.413904 250.706137 227 246 229.560428 250.135696 239.944385 249.137424 242.789305 254.414002 250.186096 254.414002 250.186096 261.116681 261.281283 266.393258 263.983957 267.81936 269.389305 264.539326 272.518717 263.826275 279.631016 270.386344 288.308021 280.369058 293.144385 285.360415 300.114439 285.075194 306.657754 287.499568 306.657754 288.212619 311.351872 293.061366 316.188235 295.485739 312.632086 300.762316 315.619251 304.755402 314.196791 312.028522 326.145455 318.160761 334.82246 326.004322 337.382888 334.703544 344.352941 344.543647 347.340107 351.816768 342.930481 357.521175 341.365775 361.514261 342.930481 366.077787 354.025668 375.06223 355.163636 383.761452 357.297326 398.735523 360 400.446845 349.473797 411 344.779679 409.716508 340.654545 405.866033 339.232086 404.439931 331.124064 396.45376 327.283422 392.460674 321.735829 387.897148 317.041711 393.458946 308.791444 391.890233 303.101604 385.757995 301.536898 384.189283 295.847059 380.338807 288.592513 382.62057 283.613904 379.055315 282.33369 379.768366 275.648128 380.481417 264.268449 378.199654 256.44492 372.637857 256.160428 362.227312 248.052406 356.095073 247.056684 346.825411 242.362567 341.406223 241.509091 338.411409 243.216043 333.420052 242.931551 329.141746 248.194652 322.866897 249.901604 322.581677 252.17754 311.315471 254.595722 300.477096 253.031016 294.344857 248.336898 286.929127 246.487701 283.363872 239.659893 281.509939 240.086631 276.090752 235.250267 277.802074 230.840642 275.092481 228.137968 272.382887 228.849198 264.824546 235.534759 262.257563 235.819251 256.980985 234.539037"/>
                <polygon id="IQ" stroke="#EFEFEF" fill="#FDFCF2" stroke-linejoin="round" mask="url(#mask-2)" points="249 250.290566 240.142857 249 237.142857 250.433962 234.142857 256.313208 230.285714 258.607547 232 265.34717 230.714286 276.532075 215 286.139623 219.428571 297.181132 229 299.618868 241.142857 306.071698 265 324.283019 279.571429 325 284.142857 316.25283 289.428571 316.969811 294 317.543396 289.142857 312.667925 288.428571 307.935849 286 307.935849 286.285714 301.339623 281.285714 294.313208 271.285714 289.437736 264.714286 280.690566 265.428571 273.520755 268.714286 270.366038 267.285714 264.916981 262 262.192453 255.285714 251.007547 255.285714 251.007547 252 252.584906 249 250.290566"/>
                <polygon id="IL" stroke="#EFEFEF" fill="#FDFCF2" stroke-linejoin="round" mask="url(#mask-2)" points="191.630137 286 189.90411 286.1375 189.410959 287.65 187.191781 287.65 187.068493 287.7875 186.328767 289.9875 185.589041 296.5875 184.232877 300.575 184.726027 301.125 183 304.0125 183 304.0125 187.808219 316.6625 188.671233 319 190.767123 304.975 190.273973 301.675 187.315068 302.775 187.438356 300.4375 188.917808 299.3375 187.191781 298.375 188.054795 292.4625 190.520548 293.7 191.383562 290.95 191.260274 290.95 192 289.575 191.630137 286"/>
                <path d="M34.0503247,240.142857 L28.2711039,240.857143 L20.7581169,241.857143 L11.8003247,241 L10.9334416,245.857143 L21.7694805,250.571429 L25.6704545,251.571429 L31.7386364,255 L33.038961,250.285714 L31.7386364,247.428571 L34.0503247,240.142857 Z M-14.6396104,213.142857 L-18.2516234,215.857143 L-22.2970779,215.428571 L-20.4188312,220.571429 L-19.8409091,231.428571 L-16.8068182,233.857143 L-13.9172078,230.857143 L-10.4496753,231.428571 L-9.87175325,219.428571 L-14.6396104,213.142857 Z M6.0211039,164.142857 L4.14285714,161 L-2.79220779,162.571429 L-3.51461039,164.285714 L-7.99350649,163 L-8.42694805,166.571429 L-11.461039,168.142857 L-16.9512987,167 L-18.2516234,170.571429 L-21.7191558,170.857143 L-23.0194805,169.428571 L-26.9204545,172.428571 L-30.387987,172.857143 L-33.5665584,171 L-33.8555195,173.428571 L-31.5438312,176.857143 L-34,179.428571 L-31.8327922,186.285714 L-27.9318182,187.428571 L-28.6542208,191.285714 L-25.6201299,190.571429 L-21.5746753,186.571429 L-18.2516234,185.285714 L-12.1834416,188.285714 L-8.42694805,189.285714 L-5.68181818,197.857143 L-0.480519481,203 L6.59902597,208.714286 L12.6672078,212.714286 L18.3019481,213.285714 L21.625,216.857143 L26.5373377,218.571429 L28.9935065,222.428571 L32.1720779,223.571429 L34.7727273,228.142857 L38.0957792,233.428571 L36.5064935,235.285714 L35.3506494,240.285714 L35.4951299,243.142857 L38.5292208,242.428571 L42.1412338,234.428571 L45.1753247,233.857143 L45.7532468,229.142857 L40.1185065,225.857143 L42.8636364,220 L49.3652597,221.428571 L53.8441558,225.714286 L55,222.428571 L54.1331169,220.714286 L47.3425325,216.142857 L41.7077922,213.428571 L34.7727273,210.142857 L36.7954545,208.428571 L34.7727273,206.428571 L28.9935065,206.571429 L20.3246753,199.428571 L16.1347403,192.142857 L9.05519481,187.714286 L6.31006494,183.285714 L7.03246753,180.714286 L6.45454545,176.428571 L12.0892857,173.285714 L18.012987,174.571429 L15.9902597,170.714286 L16.4237013,166.428571 L6.0211039,164.142857 Z" id="IT" stroke="#EFEFEF" fill="#FDFCF2" stroke-linejoin="round" mask="url(#mask-2)"/>
                <polygon id="JO" stroke="#EFEFEF" fill="#FDFCF2" stroke-linejoin="round" mask="url(#mask-2)" points="219 296.041509 214.613208 285 201.028302 294.607547 192.113208 291.022642 191.122642 293.890566 191.688679 299.483019 190.839623 302.207547 191.40566 305.649057 189 320.275472 189.424528 321.566038 198.056604 323 201.028302 320.132075 202.584906 316.833962 208.245283 315.686792 209.235849 312.532075 211.641509 311.098113 203.009434 301.920755 217.726415 297.475472 219 296.041509"/>
                <polygon id="LB" stroke="#EFEFEF" fill="#FDFCF2" stroke-linejoin="round" mask="url(#mask-2)" points="191.56338 285.30303 192.704225 280.353535 196 276.959596 194.478873 273.424242 191.43662 273 191.309859 273.282828 188.647887 279.646465 187 287 189.28169 287 189.788732 285.444444 191.56338 285.30303"/>
                <polygon id="LY" stroke="#EFEFEF" fill="#FDFCF2" stroke-linejoin="round" mask="url(#mask-2)" points="113.809633 302.269142 111.642202 299.272622 103.83945 298.13109 101.238532 296.561485 98.3486239 296.561485 95.4587156 292.566125 84.9105505 290.711137 79.7087156 291.852668 74.3623853 296.133411 72.1949541 300.556845 74.3623853 307.406032 70.8944954 311.686775 67.2821101 313.969838 58.7568807 309.546404 47.6307339 305.693735 40.5504587 303.981439 36.5045872 295.848028 26.1009174 291.852668 19.5986239 290.283063 16.4197248 291.139211 7.17201835 288 7.02752294 294.991879 3.2706422 297.560325 1.10321101 300.414153 -4.24311927 303.981439 -3.23165138 307.691415 -3.80963303 311.544084 -7.56651376 313.541763 -4.82110092 321.532483 -4.24311927 325.813225 -5.54357798 333.233179 -4.82110092 337.37123 -5.68807339 342.365429 -4.96559633 348.073086 -8 351.783063 -3.08715596 358.489559 -2.79816514 362.342227 0.0917431193 367.479118 3.84862385 365.766821 10.0619266 369.904872 13.6743119 375.612529 26.3899083 379.607889 30.8692661 384.602088 36.5045872 381.177494 44.3073394 376.183295 76.5298165 393.591647 108.896789 411 108.896789 407.147332 118 407.147332 117.277523 389.025522 115.832569 355.635731 113.954128 323.24478 111.06422 315.967517 112.798165 310.402552 111.208716 306.549884 113.809633 302.269142"/>
                <polygon id="LT" stroke="#EFEFEF" fill="#FDFCF2" stroke-linejoin="round" mask="url(#mask-2)" points="94.7142857 85.527027 87.5714286 81.4121622 84 80.8445946 82.7142857 79 76.4285714 79.8513514 65.1428571 79.2837838 58 81.9797297 60.4285714 89.0743243 67.5714286 90.6351351 70.7142857 91.9121622 70.4285714 94.3243243 71.2857143 96.4527027 74.8571429 97.3040541 76.8571429 100 83.4285714 100 90.2857143 96.8783784 91 92.0540541 96 89.2162162 94.7142857 85.527027"/>
                <polygon id="LV" stroke="#EFEFEF" fill="#FDFCF2" stroke-linejoin="round" mask="url(#mask-2)" points="97.260479 71.35 91.9131737 71.35 85.7215569 68.05 82.7664671 67 77.5598802 68.5 77.2784431 75.4 72.2125749 75.55 66.0209581 68.8 60.3922156 71.95 58 77.5 58.7035928 84.25 65.739521 81.4 76.8562874 82 83.0479042 81.1 84.3143713 83.05 87.8323353 83.65 94.8682635 88 98.5269461 86.5 105 83.05 102.04491 77.65 100.637725 73.45"/>
                <polygon id="MD" stroke="#EFEFEF" fill="#FDFCF2" stroke-linejoin="round" mask="url(#mask-2)" points="122.178378 176 123.92973 174.978378 124.659459 171.913514 126.264865 168.994595 125.535135 167.389189 126.994595 166.659459 127.87027 167.972973 132.248649 168.264865 134 167.535135 132.540541 166.659459 132.832432 165.2 129.913514 163.010811 128.308108 159.216216 125.535135 157.610811 125.535135 154.545946 121.886486 152.210811 118.967568 151.772973 113.275676 149 108.605405 149.875676 107 151.189189 109.335135 152.064865 111.962162 154.837838 114.735135 158.632432 119.697297 164.032432 120.572973 167.972973 120.281081 171.913514 122.178378 176"/>
                <polygon id="MK" stroke="#EFEFEF" fill="#FDFCF2" stroke-linejoin="round" mask="url(#mask-2)" points="87.7596899 205.608696 83.4186047 203 79.6976744 203.130435 77.0620155 203.652174 75.3565891 203.913043 70.8604651 205.217391 70.7054264 206.782609 69.620155 206.782609 69.620155 206.782609 69 209.521739 70.3953488 212.913043 73.9612403 215 79.0775194 214.217391 82.0232558 212.521739 86.3643411 212.652174 87.4496124 211.217391 89 210.956522"/>
                <polygon id="ME" stroke="#EFEFEF" fill="#FDFCF2" stroke-linejoin="round" mask="url(#mask-2)" points="65.4893617 200.09901 66 199.267327 63.4468085 197.60396 61.1489362 196.633663 60.1276596 195.524752 58.212766 194 57.0638298 194.831683 55.1489362 196.772277 54.6382979 201.485149 54 202.871287 54 202.871287 56.9361702 204.534653 58.9787234 207.445545 60.3829787 208 60.3829787 208 59.7446809 205.366337 62.2978723 201.069307 62.8085106 202.732673 64.4680851 202.039604 65.4893617 200.09901"/>
                <path d="M78.57814,-39.3853904 L68.6548418,-37.8060453 L58.15628,-38.2367758 L50.8216683,-31.9193955 L41.1860019,-32.3501259 L28.9616491,-29.0478589 L14.4362416,-19.2846348 L5.23202301,-13.5415617 L-7.42377756,1.82115869 L-17.6347076,13.0201511 L-29.2837967,21.3476071 L-45.3911793,28.2392947 L-51,33.4080605 L-48.2674976,52.6473552 L-45.5349952,61.6926952 L-36.3307766,66 L-27.7018217,63.9899244 L-15.4774688,54.2267003 L-10.7315436,59.395466 L-8.28667306,54.6574307 L-3.39693193,48.9143577 L-2.10258869,39.0075567 L-6.56088207,34.8438287 L-7.99904123,23.9319899 L-4.69127517,16.3224181 L1.4928092,16.465995 L3.36241611,13.3073048 L0.773729626,10.5793451 L8.97123682,-0.763224181 L13.8609779,-9.52141058 L17.0249281,-15.1209068 L22.7775647,-14.97733 L23.6404602,-19.4282116 L35.0019175,-18.1360202 L35.0019175,-23.1612091 L38.5973154,-23.5919395 L41.6174497,-25.6020151 L48.9520614,-21.4382872 L56.5743049,-21.8690176 L63.3336529,-20.0025189 L68.2233941,-23.4483627 L69.8053691,-29.0478589 L78.1466922,-31.6322418 L86.3441994,-28.6171285 L85.1936721,-23.1612091 L89.7957814,-23.8790932 L99,-27.0377834 L91.2339406,-31.7758186 L98.1371045,-33.7858942 L78.57814,-39.3853904 Z M46.075743,-87.1964736 L38.0220518,-88.6322418 L35.2895494,-91.0730479 L24.9348035,-89.7808564 L28.6740173,-87.627204 L25.5100671,-85.9042821 L35.1457335,-84.324937 L46.075743,-87.1964736 Z M9.54650048,-99.1133501 L2.64333653,-101.410579 L-4.69127517,-101.123426 L-6.12943432,-98.9697733 L-13.3202301,-98.9697733 L-16.4841802,-101.123426 L-29.8590604,-98.8261965 L-25.2569511,-93.8010076 L-14.3269415,-88.3450882 L-6.12943432,-86.3350126 L-10.4439118,-83.8942065 L1.63662512,-79.7304786 L7.96452541,-80.0176322 L9.25886865,-85.6171285 L13.5733461,-86.9093199 L15.2991371,-91.790932 L27.5234899,-94.3753149 L9.54650048,-99.1133501 Z M44.3499521,-103.564232 L31.2627037,-105 L26.6605944,-103.277078 L19.0383509,-104.712846 L4.08149569,-102.989924 L10.2655801,-100.118388 L17.6001918,-100.118388 L18.894535,-98.2518892 L34.1390221,-97.2468514 L48.6644295,-97.9647355 L54.8485139,-101.410579 L44.3499521,-103.564232 Z" id="NO" stroke="#EFEFEF" fill="#FDFCF2" stroke-linejoin="round" mask="url(#mask-2)"/>
                <polygon id="RO" stroke="#EFEFEF" fill="#FDFCF2" stroke-linejoin="round" mask="url(#mask-2)" points="105.783333 152 102.808333 152 101.391667 154.188612 96.2916667 155.064057 94.025 156.377224 90.625 154.188612 86.0916667 154.188612 81.5583333 153.16726 78.8666667 155.064057 74.7583333 156.960854 72.0666667 163.088968 68.3833333 169.362989 63 170.967972 67.1083333 174.615658 68.2416667 177.3879 72.775 179.576512 73.7666667 183.224199 78.1583333 185.850534 80.1416667 183.953737 82.125 184.975089 80.5666667 186.580071 81.9833333 188.039146 84.5333333 191.83274 87.225 191.103203 92.8916667 192.562278 103.516667 193 106.775 190.66548 114.991667 188.622776 120.658333 191.83274 124.908333 192.854093 125.475 182.05694 127.741667 182.786477 131 180.88968 130.433333 178.55516 127.033333 176.950178 123.916667 178.409253 120.516667 176.80427 118.675 172.718861 118.958333 168.779359 118.108333 164.839858 113.291667 159.441281 110.6 155.647687 108.05 152.875445"/>
                <polygon id="RS" stroke="#EFEFEF" fill="#FDFCF2" stroke-linejoin="round" mask="url(#mask-2)" points="73.4537445 178.318182 68.9427313 176.272727 67.814978 173.681818 63.7268722 170.272727 59.215859 170 54 172.181818 54 172.181818 56.1145374 175.454545 58.5110132 177.909091 56.1145374 181.045455 56.1145374 181.045455 58.6519824 181.045455 57.2422907 184.727273 61.0484581 187.863636 60.3436123 191.818182 58.6519824 192.227273 60.7665198 193.727273 61.8942731 194.818182 64.4317181 195.772727 67.2511013 197.409091 66.6872247 198.227273 68.3788546 197.545455 69.0837004 194.818182 70.3524229 194.272727 71.4801762 195.5 72.8898678 196.045455 74.0176211 197.409091 75.1453744 197.818182 76.6960352 199.318182 77.8237885 199.318182 77.1189427 201.363636 76.4140969 202.318182 76.6960352 203 79.092511 202.454545 82.4757709 202.318182 83.4625551 201.090909 82.6167401 200.136364 83.6035242 197.409091 86 194.818182 82.0528634 191.272727 81.0660793 188.136364 82.6167401 186.227273 81.2070485 184.863636 82.7577093 183.363636 80.784141 182.409091 78.8105727 184.181818 74.4405286 181.727273 73.4537445 178.318182"/>
                <polygon id="SK" stroke="#EFEFEF" fill="#FDFCF2" stroke-linejoin="round" mask="url(#mask-2)" points="76 141.982301 69.0509091 138.929204 64.2290909 139.99115 60.8254545 139.19469 56.8545455 140.920354 53.0254545 138 50.3309091 139.19469 49.9054545 138.663717 47.7781818 138.663717 46.9272727 140.123894 45.3672727 140.522124 45.0836364 142.380531 43.8072727 142.778761 43.6654545 143.575221 41.3963636 144.371681 38.2763636 144.238938 37.4254545 146.097345 37 147.159292 37.9927273 149.946903 41.68 152.070796 44.3745455 153 50.1890909 151.938053 50.6145455 150.345133 53.3090909 150.079646 56.5709091 148.752212 57.4218182 149.283186 60.5418182 148.353982 61.96 146.362832 64.2290909 145.831858 72.0290909 148.353982 73.4472727 147.557522 74.44 144.238938 76 141.982301"/>
                <polygon id="SI" stroke="#EFEFEF" fill="#FDFCF2" stroke-linejoin="round" mask="url(#mask-2)" points="39 168.034483 37.212766 165.137931 36.0212766 165 34.6808511 166.517241 28.2765957 166.655172 24.7021277 168.586207 18.4468085 168.034483 18 172.172414 20.0851064 175.896552 18.4468085 176.586207 23.6595745 176.862069 24.8510638 175.482759 27.5319149 176.862069 30.5106383 177 30.212766 174.655172 32.7446809 173.827586 33.1914894 170.37931"/>
                <polygon id="SE" stroke="#EFEFEF" fill="#FDFCF2" stroke-linejoin="round" mask="url(#mask-2)" points="60 0.223918575 57.354902 -2.91094148 54.9882353 -14.8804071 44.9647059 -20.1526718 36.7509804 -24 33.2705882 -23.5725191 33.2705882 -18.5852417 22.272549 -19.8676845 21.4372549 -15.4503817 15.8686275 -15.5928753 12.8058824 -10.0356234 8.07254902 -1.34351145 0.137254902 9.91348601 2.64313725 12.6208651 0.833333333 15.7557252 -5.15294118 15.6132316 -8.35490196 23.1653944 -6.9627451 33.9949109 -2.64705882 38.1272265 -3.9 47.9592875 -8.63333333 53.6590331 -11 58.3613232 -5.15294118 70.3307888 0.97254902 79.8778626 3.75686275 88 11.1352941 87.5725191 14.1980392 80.8753181 22.1333333 81.5877863 24.9176471 73.7506361 25.7529412 59.5012723 32.1568627 57.648855 36.7509804 48.2442748 30.0686275 43.5419847 25.0568627 37.8422392 27.9803922 26.3002545 38.7 19.3180662 47.1921569 12.9058524 45.5215686 7.91857506 50.254902 2.36132316 60 0.223918575"/>
                <polygon id="SY" stroke="#EFEFEF" fill="#FDFCF2" stroke-linejoin="round" mask="url(#mask-2)" points="214.515432 284.670886 230.472222 275.341772 231.777778 264.481013 230.037037 257.936709 233.953704 255.708861 237 250 228.441358 251.531646 224.37963 251.253165 216.111111 254.734177 209.873457 254.734177 205.521605 253.063291 197.54321 255.56962 194.787037 253.759494 194.932099 258.772152 193.191358 260.860759 191.450617 262.810127 190 266.43038 191.595679 273.392405 195.07716 273.810127 196.817901 277.291139 193.046296 280.632911 191.740741 285.506329 192.175926 289.126582 191.305556 290.518987 191.450617 290.518987 200.589506 294 214.515432 284.670886"/>
                <polygon id="TM" stroke="#EFEFEF" fill="#FDFCF2" stroke-linejoin="round" mask="url(#mask-2)" points="420 247.714286 418.842767 242 407.704403 238.142857 398.735849 233.571429 392.660377 229.285714 382.534591 223 376.314465 213.857143 373.421384 212.142857 365.465409 212.571429 362.138365 210.714286 359.389937 203.714286 348.106918 199 343.333333 204.142857 337.836478 207.285714 340.150943 211.714286 331.761006 211.857143 328.144654 212.285714 321.056604 205.285714 315.559748 202.857143 307.603774 204.714286 305 207.571429 308.616352 213.285714 307.893082 206.857143 313.245283 204.571429 316.716981 209.714286 323.371069 215 317.584906 217.857143 309.918239 215.714286 310.062893 223.142857 315.125786 223.714286 314.54717 230 321.056604 233 322.069182 242.714286 324.672956 249.142857 331.037736 247.428571 335.377358 242.142857 340.440252 242.428571 343.477987 240.714286 348.974843 241.571429 358.377358 246.285714 364.597484 247.285714 375.157233 255.428571 380.798742 255.714286 383.113208 263.571429 391.647799 267 397.289308 265.857143 397.867925 261.571429 403.654088 260.285714 407.27044 257.428571 407.125786 250 413.056604 248.285714 413.490566 245 417.685535 247.428571 420 247.714286"/>
                <polygon id="TN" stroke="#EFEFEF" fill="#FDFCF2" stroke-linejoin="round" mask="url(#mask-2)" points="7 288.542222 4.18309859 287.12 2.07042254 282.853333 -1.87323944 282.711111 -3.42253521 277.733333 1.36619718 273.182222 2.07042254 265.217778 -0.605633803 262.942222 -0.746478873 258.675556 2.77464789 254.124444 2.21126761 252.275556 -3.98591549 255.688889 -3.84507042 250.995556 -9.05633803 250 -16.943662 253.697778 -18.3521127 258.391111 -16.943662 267.208889 -18.4929577 274.746667 -23 279.866667 -22.1549296 286.693333 -15.8169014 292.097778 -15.8169014 294.231111 -11.028169 297.928889 -7.36619718 314 -3.70422535 312.008889 -3.14084507 308.168889 -4.12676056 304.471111 1.08450704 300.915556 3.1971831 298.071111 6.85915493 295.511111 7 288.542222"/>
                <path d="M191.252475,212.320099 L177.326733,205.878412 L165.123762,206.171216 L156.940594,208.66005 L148.90099,214.516129 L134.688119,213.344913 L132.391089,220.372208 L121.049505,220.665012 L113.727723,229.595533 L118.89604,233.987593 L116.024752,241.307692 L122.054455,246.578164 L127.366337,255.947891 L135.693069,255.801489 L143.445545,260.925558 L148.613861,259.754342 L149.905941,255.801489 L158.089109,256.094293 L164.693069,261.218362 L176.178218,260.193548 L180.628713,254.776675 L187.232673,256.972705 L191.826733,256.094293 L189.386139,259.60794 L192.688119,264 L194.410891,261.950372 L196.133663,259.754342 L195.990099,254.483871 L198.717822,256.387097 L206.613861,253.751861 L210.920792,255.508685 L217.094059,255.508685 L225.277228,251.848635 L229.29703,252.141439 L237.767327,250.531017 L240.782178,249.066998 L249.683168,250.384615 L252.69802,252.727047 L256,251.116625 L250.688119,243.503722 L251.693069,240.575682 L247.529703,229.888337 L252.267327,227.253102 L248.821782,224.471464 L242.792079,222.275434 L242.792079,217.736973 L240.925743,214.516129 L232.886139,210.124069 L225.133663,210.563275 L217.237624,215.248139 L210.777228,214.369727 L202.450495,215.833747 L191.252475,212.320099 Z M120.044554,218.176179 L122.915842,215.394541 L131.673267,214.808933 L132.678218,212.612903 L125.930693,209.684864 L124.638614,206.171216 L118.178218,205 L111,207.92804 L114.876238,210.270471 L113.153465,215.980149 L111.574257,217.004963 L111.717822,218.908189 L114.445545,223.153846 L120.044554,218.176179 Z" id="TR" stroke="#EFEFEF" fill="#FDFCF2" stroke-linejoin="round" mask="url(#mask-2)"/>
                <path d="M30,262.656584 L29.7142857,262.435706 L29,261.883511 L28.2857143,261.773072 L28.4285714,262.435706 L29,262.877462 L29.7142857,262.877462 L30,262.656584 Z M28,261.331317 L28,261.110439 L27.5714286,261 L27,261.110439 L27.1428571,261.220878 L27.5714286,261.441756 L28,261.331317 Z" id="MT" stroke="#EFEFEF" fill="#FDFCF2" stroke-linejoin="round" mask="url(#mask-2)"/>
                <polygon id="CY" stroke="#EFEFEF" fill="#FDFCF2" stroke-linejoin="round" mask="url(#mask-2)" points="165.73913 268.114286 165.347826 267.985714 164.695652 268.242857 164.173913 268.757143 163.652174 269.142857 163 268.757143 163.26087 269.914286 164.043478 271.328571 164.304348 271.714286 164.695652 271.971429 166.130435 272.357143 166.521739 272.357143 167.304348 272.357143 167.565217 272.485714 167.826087 273 168.347826 273 168.347826 272.871429 168.347826 272.485714 168.608696 272.228571 169 271.971429 169.391304 271.971429 170.173913 271.842857 170.956522 271.585714 171.608696 271.071429 172.782609 269.785714 173.173913 269.785714 173.565217 269.785714 174.347826 269.785714 175.130435 269.657143 174.869565 269.142857 174.73913 269.014286 174.217391 268.371429 173.956522 267.857143 174.086957 267.085714 177.347826 264.642857 178 264 176.956522 264.257143 176.173913 264.771429 175.652174 265.028571 174.73913 265.542857 171.73913 266.571429 170.695652 266.7 169.652174 266.7 168.347826 266.571429 167.173913 266.314286 167.173913 267.214286 166.913043 267.985714 166.130435 268.242857 165.73913 268.114286"/>
                <path d="M253.798635,224.748899 L252.399317,225.030837 L254.078498,228.414097 L258.556314,232.502203 L263.733788,233.770925 L259.8157,228.555066 L259.535836,227.145374 L256.317406,227.145374 L253.798635,224.748899 Z M268.351536,211.638767 L262.334471,206.281938 L260.235495,206 L258.696246,207.268722 L263.174061,212.061674 L262.334471,213.048458 L258.416382,212.484581 L252.539249,209.947137 L251,211.356828 L252.959044,213.753304 L256.037543,215.303965 L255.05802,217.418502 L259.395904,220.519824 L257.996587,223.339207 L261.494881,225.735683 L264.993174,227.286344 L266.25256,233.488987 L273.668942,226.863436 L276.327645,226.15859 L278.986348,228.837004 L277.307167,233.207048 L282.624573,238 L284.443686,237.577093 L283.324232,233.066079 L285.703072,230.951542 L286.262799,227.85022 L286.122867,220.801762 L292,220.096916 L289.201365,217.700441 L285.703072,217.418502 L280.805461,211.07489 L276.047782,206.563877 L272.409556,210.088106 L271.709898,212.202643 L268.351536,211.638767 Z" id="AZ" stroke="#989898" fill="#FBF4E7" stroke-linejoin="round" mask="url(#mask-2)"/>
                <polygon id="GE" stroke="#989898" fill="#FBF4E7" stroke-linejoin="round" mask="url(#mask-2)" points="239.935135 198.467532 229.191892 194.136364 218.162162 192.642857 211.716216 191 211 192.045455 214.151351 194.883117 218.448649 195.928571 223.318919 199.363636 226.327027 205.636364 225.897297 209.668831 233.632432 209.220779 241.654054 213.701299 251.537838 212.207792 253.113514 210.714286 259.12973 213.402597 263.140541 214 264 212.954545 259.416216 207.876623 260.991892 206.532468 255.978378 204.441558 252.97027 200.707792 245.664865 198.766234 241.510811 200.25974"/>
                <polygon id="KZ" stroke="#989898" fill="#FBF4E7" stroke-linejoin="round" mask="url(#mask-2)" points="393.290517 90.8509934 380.420472 89 375.987456 92.5596026 360.543402 95.692053 358.112393 97.8278146 334.088309 100.817881 332.086302 103.807947 339.236327 109.645695 333.659308 111.923841 335.804315 114.344371 330.656297 118.47351 344.098344 124.453642 343.812343 128.725166 333.945309 128.298013 332.801305 130.860927 322.362268 126.304636 311.49423 126.589404 305.345208 130.149007 295.907175 126.731788 278.890115 120.609272 268.165078 120.89404 256.582037 130.291391 257.583041 136.84106 249.003011 131.715232 246 141.397351 248.431009 143.10596 246 149.798013 253.579027 155.92053 258.727045 155.635762 264.733066 161.47351 265.019067 166.029801 269.023081 167.453642 275.315103 165.602649 282.465128 161.758278 289.186152 163.89404 296.193176 163.466887 298.910186 169.019868 299.768189 177.562914 293.190166 176.281457 287.470146 177.705298 288.75715 184.112583 281.607125 183.258278 282.465128 186.10596 287.041144 188.384106 292.332163 196.215232 301.484195 199.205298 303.629202 202.195364 302.628199 205.897351 303.629202 208.033113 306.203211 205.18543 314.068239 203.334437 319.502258 205.754967 326.509282 212.731788 330.084295 212.304636 321.218264 179.84106 338.235324 174.715232 339.808329 175.427152 352.821375 181.834437 359.685399 185.109272 368.980432 192.940397 377.13146 191.65894 389.429503 190.94702 400.154541 197.354305 402.299548 206.182119 405.874561 206.324503 409.592574 213.443709 419.030607 213.728477 422.319619 218 425.036628 218 426.323633 211.592715 434.04566 205.470199 437.620672 203.761589 438.049674 199.917219 442.482689 198.778146 455.495735 201.768212 454.780733 196.642384 458.355745 194.791391 469.938786 198.493377 472.226794 197.496689 484.524837 197.781457 495.678876 198.635762 500.397893 201.768212 505.40291 203.049669 502.971902 198.066225 507.118916 195.788079 494.677873 180.55298 507.547918 177.135762 510.407928 175.142384 508.977923 159.337748 524.278976 162.18543 526.566984 158.198675 522.991972 149.370861 528.425991 148.516556 531 142.536424 524.850978 137.125828 516.270948 138.407285 511.551932 134.705298 505.974912 132.996689 500.111892 127.870861 495.535876 126.304636 486.669844 128.582781 474.800803 123.456954 473.227797 128.155629 447.344706 106.086093 435.475665 99.3940397 436.619669 96.6887417 423.606623 104.804636 417.314601 105.374172 415.598595 100.675497 405.58856 97.6854305 399.439538 99.8211921 393.290517 90.8509934"/>
                <path d="M428.599798,-93.4544647 L422.153624,-99.1585962 L402.671855,-105.005331 L389.206514,-108 L380.325119,-106.71657 L372.732959,-102.581075 L381.04136,-101.440249 L390.495749,-96.8769436 L401.955613,-94.4526877 L418.429168,-92.598845 L428.599798,-93.4544647 Z M172.615074,-103.864505 L173.904309,-104.720124 L165.739155,-106.003554 L161.728203,-105.005331 L159.865975,-103.579298 L157.71725,-105.290538 L150.268338,-105.147934 L141.386943,-104.007108 L152.417063,-103.864505 L150.841332,-102.010662 L157.144257,-100.584629 L162.301196,-101.582852 L162.444444,-102.581075 L166.598645,-103.008885 L172.615074,-103.864505 Z M459.827929,-89.7467792 L457.679204,-92.3136384 L439.773166,-96.0213239 L435.475717,-96.4491337 L432.324254,-95.7361173 L434.043234,-87.17992 L459.827929,-89.7467792 Z M481.601672,-80.7627721 L468.422827,-81.7609951 L473.29327,-83.4722346 L461.546909,-85.6112839 L452.808762,-82.9018214 L451.376279,-80.0497557 L453.525004,-77.0550866 L443.64087,-77.1976899 L436.04871,-73.4900044 L429.889033,-75.0586406 L416.56694,-74.3456242 L416.996685,-72.4917814 L403.817841,-71.4935584 L396.798674,-68.0710795 L390.782245,-67.7858729 L389.063266,-63.0799645 L396.941922,-59.372279 L385.911803,-58.374056 L372.303214,-58.8018658 L363.994812,-57.2332297 L370.870731,-49.5326522 L380.754864,-43.4007108 L367.003026,-47.6788094 L355.68641,-47.2509996 L348.380747,-44.3989338 L354.82692,-38.9800089 L347.807753,-40.4060418 L344.799539,-47.5362061 L338.78311,-51.5290982 L336.20464,-51.3864949 L341.361579,-46.1101733 L334.772157,-41.1190582 L346.37527,-35.1297201 L346.948263,-27.4291426 L351.102464,-23.2936473 L357.835135,-22.5806308 L358.408128,-17.5895158 L364.711053,-13.1688139 L361.989336,-9.46112839 L362.705577,-5.61083963 L357.40539,-3.6143936 L356.689148,-0.762327854 L349.096988,-1.90315415 L354.110679,-13.0262106 L353.394437,-18.1599289 L343.796801,-22.8658374 L338.353365,-33.2758774 L333.053178,-38.552199 L327.896239,-40.8338516 L329.042225,-46.8231897 L324.888024,-50.958685 L308.700966,-52.9551311 L305.692751,-51.5290982 L306.408993,-44.8267437 L300.249315,-38.1243892 L301.968295,-35.7001333 L308.700966,-29.8533985 L308.844214,-26.145713 L316.436374,-25.4326966 L317.582361,-23.8640604 L325.890762,-19.7285651 L324.458279,-15.735673 L297.957343,-24.4344736 L288.502954,-26.8587295 L270.167171,-29.1403821 L268.448191,-26.7161262 L276.899841,-22.2954243 L273.032137,-17.1617059 L263.864246,-21.7250111 L256.70183,-18.5877388 L245.814959,-18.4451355 L242.806744,-15.735673 L235.214584,-16.5912928 L238.795792,-21.2972012 L234.211846,-21.5824078 L216.592304,-15.0226566 L205.705433,-11.3149711 L206.278426,-6.32385606 L197.683528,-4.61261661 L191.953596,-7.32207908 L190.234616,-11.6001777 L197.397031,-12.5984007 L192.240092,-16.8764993 L174.763799,-19.4433585 L180.923476,-14.5948467 L179.77749,-10.0315415 L186.51016,-5.32563305 L184.934429,0.0932918703 L178.345006,-2.61617059 L172.615074,-3.04398045 L161.15521,4.65659707 L167.171639,10.5033319 L162.587693,12.4997779 L146.257386,7.50866282 L143.249171,10.5033319 L147.976365,13.9258108 L148.262862,17.7760995 L142.819426,15.7796535 L134.224528,13.3553976 L131.50281,5.08440693 L130.070327,1.37672146 L118.610463,-4.32741004 L122.764663,-5.32563305 L151.557573,0.66370502 L160.725465,-1.47534429 L166.025652,-5.61083963 L163.733679,-10.744558 L158.003747,-14.4522434 L132.792045,-23.151044 L116.175241,-25.0048867 L105.28837,-29.5681919 L100.131431,-27.0013327 L90.9635394,-23.8640604 L86.3795936,-23.151044 L86.9525868,-17.8747223 L97.2664649,-12.5984007 L93.2555123,-6.75166593 L102.423404,2.23234118 L99.9881827,9.07729898 L107.00735,14.9240338 L105.718115,20.2003554 L116.175241,25.7618836 L114.886007,29.8973789 L110.158813,34.6032874 L98.8421963,45.1559307 L106.434357,49.1488227 L99.9881827,53.7121279 L101.277417,55.1381608 L97.5529615,59.9866726 L101.134169,67.8298534 L98.8421963,70.5393159 L102.280156,72.5357619 L103.712639,76.5286539 L106.720853,81.6623723 L114.169765,83.8014216 L115.602248,85.7978676 L118.896959,84.7996446 L125.772878,86.7960906 L127.205361,90.931586 L126.345871,93.2132386 L131.646059,98.7747668 L134.797521,100.343403 L134.654273,101.912039 L139.524715,103.480675 L141.959937,105.762328 L139.667964,107.616171 L134.08128,107.330964 L132.935293,108.186584 L135.084018,111.038649 L137.948984,116.600178 L140.527454,116.885384 L141.959937,114.888938 L144.108661,115.316748 L150.98458,114.603732 L156.428016,119.452243 L155.138781,121.306086 L156.141519,124.015549 L161.871451,124.300755 L165.022914,128.151044 L165.309411,129.862283 L174.763799,132.999556 L179.77749,131.573523 L184.934429,135.709018 L189.088629,135.566415 L199.975501,138.418481 L200.548494,141.127943 L198.686266,145.691248 L201.264736,150.53976 L200.834991,153.534429 L194.10232,154.247446 L190.950857,156.671701 L191.523851,160.664594 L197.54028,159.238561 L198.113273,161.092403 L188.372388,164.800089 L192.956334,168.222568 L188.372388,175.637939 L183.501946,177.063972 L190.664361,182.19769 L199.545756,185.620169 L210.146131,192.892936 L210.862372,191.894713 L217.308546,193.46335 L228.338666,194.889382 L239.082289,199.024878 L240.65802,200.736117 L244.812221,199.310084 L252.117884,201.163927 L255.126099,204.729009 L260.13979,206.725455 L262.288514,207.010662 L268.448191,212.429587 L271.886151,213 L272.602392,210.860951 L276.326848,207.295869 L265.869722,196.885829 L265.296729,191.039094 L256.845079,182.6255 L261.858769,173.641493 L268.448191,172.072857 L270.453668,166.796535 L266.442715,165.370502 L266.156218,160.807197 L260.13979,154.960462 L254.982851,155.245669 L247.39069,149.113727 L249.825912,142.411373 L247.39069,140.700133 L250.398905,131.00311 L258.993803,136.136828 L257.991065,129.577077 L269.594178,120.16526 L280.337801,119.880053 L297.384349,126.011995 L306.838738,129.434474 L312.998415,125.869391 L323.885286,125.584185 L334.342412,130.14749 L335.488399,127.580631 L345.372532,128.008441 L345.659029,123.730342 L332.193688,117.741004 L337.350627,113.605509 L335.201902,111.181253 L340.788586,108.8996 L333.626171,103.052865 L335.631647,100.058196 L359.697363,97.0635273 L362.132584,94.924478 L377.603401,91.7872057 L382.044099,88.2221235 L394.936446,90.0759662 L401.096123,99.0599733 L407.255801,96.920924 L417.283182,99.9155931 L419.002162,104.621502 L425.305087,104.051088 L438.340683,95.922701 L437.194697,98.6321635 L449.084306,105.334518 L475.01225,127.438028 L476.587981,122.732119 L488.47759,127.865837 L497.358985,125.584185 L501.942931,127.152821 L507.816112,132.286539 L513.402796,133.997779 L518.12999,137.705464 L526.724888,136.422035 L532.884565,141.84096 L535.319787,141.127943 L542.052457,139.70191 L551.506845,132.001333 L559.958495,127.865837 L567.550656,130.5753 L574.856319,130.717903 L581.58899,134.853398 L588.751405,135.138605 L600.068021,137.420258 L603.505981,131.288316 L597.776048,126.154598 L599.638276,117.027988 L609.52241,120.59307 L616.398328,121.733896 L625.852717,123.872945 L631.152904,130.432697 L643.185762,134.140382 L648.772446,132.571746 L656.937599,131.43092 L664.673008,132.571746 L673.984148,136.849845 L681.003315,141.270546 L687.449488,141.270546 L697.047125,142.696579 L702.204064,140.414927 L710.512466,138.988894 L716.95864,132.714349 L721.685834,133.712572 L727.272518,136.707241 L735.151175,135.994225 L745.608301,139.2741 L751.911226,133.712572 L749.189509,129.862283 L749.04626,120.59307 L750.76524,117.741004 L747.184032,113.035096 L741.883845,110.896046 L744.319066,106.617948 L751.62473,105.049311 L760.506125,104.764105 L772.682231,107.330964 L781.133881,110.61084 L792.164001,119.30964 L797.607436,123.159929 L803.910362,128.436251 L812.648508,137.135051 L826.830091,139.844514 L839.57919,146.261661 L848.174088,154.532652 L858.917711,154.532652 L862.642167,150.96757 L872.526301,148.400711 L874.388529,156.386495 L873.815535,159.666371 L877.826488,169.363394 L878.685978,177.919591 L868.945093,176.350955 L864.790892,179.488227 L871.523562,187.046202 L876.966998,197.456242 L873.38579,197.598845 L876.107508,202.019547 L878.112985,203.588183 L877.539991,200.736117 L883.269924,194.318969 L890.575587,198.597068 L895.159533,198.454465 L901.462459,193.320746 L902.894942,188.044425 L905.903156,177.919591 L908.624874,167.652155 L906.762646,161.520213 L908.195129,148.685917 L900.746217,134.568192 L892.86756,124.158152 L891.005332,115.316748 L884.272662,108.04398 L866.080127,98.4895602 L858.058222,97.919147 L857.628477,102.197246 L849.320075,100.343403 L841.154921,94.924478 L829.695057,93.926255 L836.714224,73.8191915 L841.727915,57.4198134 L860.493443,54.8529542 L881.837441,56.2789871 L885.418648,52.2860951 L896.735264,53.4269214 L902.894942,59.5588627 L912.062833,58.703243 L924.095691,56.4215904 L913.065571,51.4304753 L913.065571,37.4553532 L926.101167,34.7458907 L943.434212,44.8707241 L948.591151,35.7441137 L944.007206,29.0417592 L950.739876,28.3287428 L960.051016,39.8796091 L956.613057,46.4393603 L955.46707,54.9955575 L955.896815,65.6908041 L947.731662,67.5446468 L951.742614,71.3949356 L951.599366,76.5286539 L960.767258,88.3647268 L983.686987,107.473567 L998.728059,120.022657 L1006.89321,126.154598 L1009.18519,118.026211 L1002.73901,109.184807 L1010.90416,107.045757 L1003.16876,97.2061306 L1010.33117,92.7854287 L1003.5985,89.0777432 L998.728059,81.9475789 L1004.60124,81.6623723 L991.708892,69.3984896 L982.111255,67.4020435 L977.957054,63.9795646 L976.381323,55.9937805 L971.940625,50.4322523 L981.968007,51.5730786 L983.830235,48.0079964 L990.562905,51.1452688 L999.301052,44.5855175 L1015.63136,50.289649 L1013.19614,46.5819636 L1016.0611,41.4482452 L1018.20983,35.7441137 L1022.65053,34.7458907 L1031.96167,28.6139494 L1046,30.3251888 L1044.71077,28.1861395 L1039.26733,24.9062639 L1033.39415,22.6246113 L1020.35855,16.0648601 L1008.75544,11.7867614 L1017.49359,12.3571746 L1020.35855,8.7920924 L973.22986,-22.4380275 L959.764519,-25.7179032 L937.274535,-29.4255886 L925.957919,-28.9977788 L904.184176,-30.9942248 L906.762646,-27.7143492 L918.938752,-22.8658374 L915.357544,-20.2989782 L895.016285,-27.143936 L885.2754,-26.2883163 L872.096556,-27.8569525 L862.069174,-27.5717459 L856.48249,-26.0031097 L846.168612,-28.2847623 L838.862949,-33.7036873 L829.551809,-36.8409596 L816.372964,-38.1243892 L795.315463,-36.6983563 L772.252486,-42.4024878 L761.079118,-46.6805864 L703.636547,-51.5290982 L700.628333,-48.3918259 L713.950425,-41.5468681 L703.206802,-42.5450911 L701.774319,-40.4060418 L687.879233,-42.6876944 L680.716818,-40.6912483 L667.394725,-44.1137272 L671.692175,-36.2705464 L658.943075,-39.2652155 L644.618245,-45.1119502 L644.045251,-48.2492226 L635.450353,-52.9551311 L621.412019,-56.6628165 L612.673872,-56.6628165 L599.35178,-57.9462461 L606.08445,-52.3847179 L581.445741,-53.5255442 L575.859058,-56.8054198 L556.807033,-58.0888494 L549.214872,-56.9480231 L549.071624,-55.0941804 L540.763222,-59.6574856 L537.468511,-58.374056 L527.154633,-60.0852954 L519.132728,-61.0835184 L520.708459,-63.2225677 L530.162848,-67.2154598 L533.457559,-69.3545091 L530.019599,-72.9195913 L522.140942,-75.6290538 L505.667387,-78.9089294 L490.19657,-79.0515327 L487.474852,-77.3402932 L481.601672,-80.7627721 Z M249.252918,-35.7001333 L235.071336,-41.8320746 L230.630638,-47.964016 L235.357833,-54.9515771 L239.368785,-62.0817414 L251.68814,-68.784096 L265.726474,-72.2065749 L281.913532,-75.6290538 L283.77576,-77.7681031 L277.759331,-80.4775655 L268.304943,-79.6219458 L261.285776,-77.0550866 L244.525724,-75.771657 L230.057645,-71.3509551 L220.31676,-67.5006664 L223.897968,-64.363394 L214.44358,-58.0888494 L220.030264,-57.0906264 L212.294855,-50.958685 L214.586828,-46.965793 L209.716386,-45.3971568 L212.438103,-41.4042648 L223.75472,-39.4078187 L226.906182,-36.1279431 L246.101456,-35.1297201 L249.252918,-35.7001333 Z M699.052601,-70.9231453 L673.411154,-74.6308307 L658.799827,-74.9160373 L653.929385,-73.6326077 L658.799827,-68.784096 L676.562617,-64.2207908 L683.008791,-65.9320302 L703.35005,-65.6468236 L699.052601,-70.9231453 Z M735.151175,-67.6432697 L718.391123,-69.4971124 L706.644761,-70.4953354 L709.079983,-68.2136828 L723.834558,-65.3616171 L733.575443,-64.7912039 L735.151175,-67.6432697 Z M717.245136,-54.0959574 L713.663929,-56.0924034 L701.774319,-58.8018658 L695.901138,-58.0888494 L694.755152,-55.2367837 L696.330883,-54.9515771 L708.936734,-54.0959574 L717.245136,-54.0959574 Z M950.166883,-36.555753 L941.571984,-41.6894713 L939.566508,-38.552199 L944.580199,-36.2705464 L950.166883,-36.555753 Z M72.9142528,97.3487339 L72.0547629,95.2096846 L72.3412595,92.7854287 L69.1897968,91.5019991 L62.0273815,89.9333629 L53.0027381,92.7854287 L52,96.4931142 L60.4516501,97.4913372 L72.9142528,97.3487339 Z M917.649517,128.436251 L907.335639,119.594847 L900.029976,111.038649 L890.289091,102.767659 L883.269924,97.0635273 L881.407696,98.2043536 L887.710621,102.197246 L884.988903,106.190138 L894.729788,118.026211 L905.903156,126.582408 L915.071048,138.418481 L918.509007,144.978232 L926.387664,154.675255 L931.8311,163.231453 L938.420522,170.646824 L938.277273,163.801866 L947.588413,169.220791 L943.290964,162.946246 L929.682375,153.962239 L924.382188,141.127943 L937.131287,143.980009 L917.649517,128.436251 Z" id="RU" stroke="#989898" fill="#FBF4E7" stroke-linejoin="round" mask="url(#mask-2)"/>
                <polygon id="UA" stroke="#989898" fill="#FBF4E7" stroke-linejoin="round" mask="url(#mask-2)" points="152.743182 115 145.870455 115.720081 143.722727 115.288032 142.290909 117.30426 139.713636 117.016227 139.713636 117.016227 133.843182 117.448276 132.125 119.464503 132.411364 123.929006 129.547727 123.064909 123.390909 123.496957 121.243182 121.336714 118.952273 122.920892 116.088636 121.624746 110.647727 121.48073 102.629545 119.320487 95.4704545 118.600406 90.1727273 118.888438 86.7363636 121.192698 83.5863636 121.624746 88.025 129.257606 87.5954545 131.849899 84.3022727 132.858012 78.8613636 140.20284 81.1522727 144.235294 79.5772727 143.659229 78.0022727 146.107505 77 149.707911 81.1522727 152.156187 82.0113636 154.460446 84.7318182 152.588235 89.3136364 153.596349 93.8954545 153.596349 97.3318182 155.756592 99.6227273 154.460446 104.777273 153.596349 106.209091 151.436105 109.215909 151.436105 110.790909 150.139959 115.372727 149.275862 120.956818 152.01217 123.820455 152.444219 127.4 154.748479 127.4 157.772819 130.120455 159.356998 131.695455 163.10142 134.559091 165.261663 134.272727 166.701826 135.704545 167.565923 133.986364 168.286004 129.690909 167.997972 128.831818 166.701826 127.4 167.421907 128.115909 169.006085 126.540909 171.88641 125.825 174.910751 124.106818 175.918864 127.543182 177.503043 130.693182 176.06288 134.129545 177.647059 138.854545 171.022312 140.715909 166.125761 147.159091 164.973631 148.161364 168.43002 159.615909 170.590264 162.05 172.606491 155.606818 175.630832 154.604545 177.359026 162.909091 179.951318 162.05 184.127789 166.345455 186 175.365909 180.815416 182.954545 179.231237 183.813636 176.06288 176.511364 176.638945 172.645455 174.478702 171.213636 168.862069 176.797727 165.549696 183.384091 165.117647 187.679545 162.237323 193.263636 161.517241 192.690909 157.484787 195.840909 155.036511 202.570455 154.31643 203 151.292089 200.422727 146.395538 202.284091 141.787018 201.711364 139.05071 190.829545 136.170385 186.677273 136.314402 181.522727 132.137931 176.511364 133.578093 167.061364 130.409736 166.775 128.681542 163.625 124.793103 157.897727 124.505071 156.895455 121.768763 158.184091 119.896552 152.743182 115"/>
                <polygon id="PL" stroke="#989898" fill="#FBF4E7" stroke-linejoin="round" mask="url(#mask-2)" points="51.8571429 95.7977528 45.2857143 95.6516854 44.5714286 93.6067416 37.7142857 92 29.5714286 95.0674157 19.4285714 99.1573034 15 101.640449 17 106.168539 15.2857143 108.505618 18.1428571 111.719101 20.1428571 116.539326 20 119.606742 23.2857143 125.303371 26.7142857 128.078652 32 128.955056 31.8571429 131.438202 35.7142857 133.191011 36.5714286 131 41.4285714 131.876404 42.4285714 134.797753 47.5714286 135.235955 51.2857143 139.764045 51.7142857 140.348315 54.4285714 139.033708 58.2857143 142.247191 62.2857143 140.348315 65.7142857 141.224719 70.5714286 140.05618 77.5714286 143.41573 79.1428571 144 76.8571429 139.910112 82.2857143 132.460674 85.5714286 131.438202 86 128.808989 81.5714286 121.067416 80.8571429 117.123596 78.1428571 112.88764 82 111.134831 81.5714286 107.629213 79.1428571 104.269663 78.2857143 100.325843 76.2857143 97.5505618 72.7142857 96.6741573 60.2857143 96.8202247 51.8571429 95.7977528"/>
                <polygon id="Rectangle" fill="url(#linearGradient-3)" mask="url(#mask-2)" points="-137 0 695 0 695 73 -137 73"/>
                <polygon id="Rectangle-Copy-2" fill="url(#linearGradient-3)" mask="url(#mask-2)" transform="translate(279.000000, 254.500000) scale(1, -1) translate(-279.000000, -254.500000) " points="-137 218 695 218 695 291 -137 291"/>
                <g id="Combined-Shape" mask="url(#mask-2)" transform="translate(106.500000, 136.707127) scale(-1, 1) translate(-106.500000, -136.707127) ">
                    
                    <use fill="#F9A01A" fill-rule="evenodd" xlink:href="#path-4"/>
                </g>
                
                <g id="Combined-Shape" mask="url(#mask-2)" transform="translate(198.500000, 195.707127) scale(-1, 1) translate(-198.500000, -195.707127) ">
                    
                    <use fill="#F9A01A" fill-rule="evenodd" xlink:href="#path-6"/>
                </g>
                
                <g id="Combined-Shape-Copy" mask="url(#mask-2)" transform="translate(257.500000, 51.707127) scale(-1, 1) translate(-257.500000, -51.707127) ">
                    
                    <use fill="#F9A01A" fill-rule="evenodd" xlink:href="#path-8"/>
                </g>
                
                <g id="Group" mask="url(#mask-2)">
                    <g transform="translate(178.000000, 109.000000)">
                        <g id="Combined-Shape-Copy-2" fill="none" transform="translate(69.409475, 17.756944) scale(-1, 1) translate(-69.409475, -17.756944) ">
                            
                            <use fill="#F9A01A" fill-rule="evenodd" xlink:href="#path-10"/>
                        </g>
                        
                        <g id="Group-6" stroke-width="1" fill="none" fill-rule="evenodd" transform="translate(0.000000, 24.228571)">
                            
                        </g>
                    </g>
                </g>
                <g id="Group-5" mask="url(#mask-2)">
                    <g transform="translate(160.000000, 225.000000)">
                        <g id="Group-4" transform="translate(22.777778, 0.000000)">
                            <g id="Combined-Shape-Copy-3" transform="translate(50.111111, 17.444569) scale(-1, -1) translate(-50.111111, -17.444569) ">
                                
                                <use fill="#F9A01A" fill-rule="evenodd" xlink:href="#path-12"/>
                            </g>
                            
                        </g>
                        <g id="Group-3" transform="translate(0.000000, 28.257143)">
                            
                        </g>
                    </g>
                </g>
                
                
                
                <g id="Group-8" mask="url(#mask-2)">
                    <g transform="translate(36.000000, 62.000000)">
                        <g id="Combined-Shape" fill="none">
                            
                            <use fill="#F9A01A" fill-rule="evenodd" xlink:href="#path-14"/>
                        </g>
                        
                        <g id="Group-7" stroke-width="1" fill="none" fill-rule="evenodd" transform="translate(74.734043, 20.487179)">
                            
                        </g>
                    </g>
                </g>
            </g>
        </g>
    </g>
</svg>