<?xml version="1.0" encoding="UTF-8"?>
<svg width="24px" height="16px" viewBox="0 0 24 16" version="1.1" xmlns="http://www.w3.org/2000/svg" xmlns:xlink="http://www.w3.org/1999/xlink">
    <!-- Generator: Sketch 50.2 (55047) - http://www.bohemiancoding.com/sketch -->
    <title>Shape</title>
    <desc>Created with Sketch.</desc>
    <defs></defs>
    <g id="Page-1" stroke="none" stroke-width="1" fill="none" fill-rule="evenodd">
        <g id="01-Homepage-" transform="translate(-618.000000, -4635.000000)" fill="#414042" fill-rule="nonzero">
            <g id="Group-59" transform="translate(40.000000, 4633.000000)">
                <g id="Group-3-Copy-2" transform="translate(578.000000, 0.000000)">
                    <g id="Group-11" transform="translate(0.000000, 2.000000)">
                        <path d="M23.3513903,7.78357907 C23.3446011,7.51802232 23.2646054,7.35793583 23.1622011,7.24303853 L17.5405578,0.324115289 C17.2750443,-0.0502630896 16.6732714,-0.109506333 16.2970984,0.194497992 C15.9208822,0.498502316 15.9009038,1.06692178 16.2027416,1.40519637 L20.6757146,6.91871421 L0.864864865,6.91871421 C0.3872,6.91871421 0,7.30591421 0,7.78357907 C0,8.26124394 0.3872,8.64844394 0.864864865,8.64844394 L20.6757146,8.64844394 L16.2027416,14.1619575 C15.8603416,14.5036223 15.9576389,15.1028872 16.3190659,15.4243575 C16.5972497,15.6718385 17.3386984,15.5929629 17.5405578,15.2430385 L23.1622011,8.32411961 C23.3086011,8.14491961 23.3531719,8.01168718 23.3513903,7.78357907 Z" id="Shape" transform="translate(11.675721, 7.784139) scale(-1, 1) translate(-11.675721, -7.784139) "></path>
                    </g>
                </g>
            </g>
        </g>
    </g>
</svg>