<svg xmlns="http://www.w3.org/2000/svg" xmlns:xlink="http://www.w3.org/1999/xlink" width="339px" height="431px" viewBox="0 0 339 431" version="1.1">
    <g id="Page-1" stroke="none" stroke-width="1" fill="none" fill-rule="evenodd">
        <g id="01-Homepage-" transform="translate(-215.000000, -5975.000000)">
            <g id="Group-20" transform="translate(216.000000, 5976.000000)">
                
                <g id="Group-14" stroke="#000000" stroke-linecap="round" stroke-linejoin="round" stroke-width="0.8">
                    <path d="M130.619645,313.701765 C130.619645,313.701765 133,311.532253 133,309.254267 C133,306.97628 131.052437,306 129.537665,306 C127.292341,306 126.291727,309.579693 126.291727,312.183107 C126.291727,314.78652 124.885153,314.064507 124.452361,315.545849 C124.071504,316.846688 123.051847,327.664738 125.072119,332.70755 C125.306692,333.294186 125.371611,333.928551 125.30323,334.555973 C124.713767,340.016199 119.474389,359.330923 120.043078,359.240671 C123.099454,358.752097 129.213071,339.19352 129.213071,337.349436 C131.872144,343.080417 127.184143,355.280879 129.293571,358.264391 C130.430082,360 132.594041,360 132.594041,360 C132.594041,360 131.402133,358.505641 131.024738,357.938964 C130.267352,356.799537 132.265119,348.854787 132.431312,345.681226 C132.647707,341.559155 133.405093,325.070871 132.323114,320.840324" id="Stroke-1"/>
                    <path d="M143.131031,359.92761 C143.131031,359.92761 145.385511,356.815144 145.313067,353.774777 C145.240624,350.73441 144.588631,338.862213 145.314813,336.256185 C146.040122,333.650156 147.349343,327.280154 146.912936,322.574535 C146.476529,317.869785 142.694624,317.869785 142.694624,316.132433 C142.694624,314.39508 145.02242,314.75645 145.167307,311.137545 C145.313067,307.517771 140.585031,308.024209 140.585031,308.024209 C140.585031,308.024209 138.548755,308.820785 138.766959,310.703207 C138.985163,312.584759 140.148624,313.309235 139.494013,314.032842 C138.839403,314.75645 136.439163,315.842295 136.294276,317.796816 C136.148516,319.751337 135.712109,339.803858 136.294276,342.192718 C136.87557,344.581577 139.712217,355.077791 138.839403,359.92761 C139.712217,360.361948 140.803235,358.841765 141.094755,355.36706 C141.385402,351.892356 140.440144,340.961804 141.821809,336.329154 C141.821809,340.744634 142.62218,347.476875 142.694624,349.720665 C142.767067,351.965325 142.62218,359.276103 143.131031,359.92761 Z" id="Stroke-3"/>
                    <path d="M154.314176,316.037351 C154.314176,315.021351 155.051724,314.312393 155.051724,312.210533 C155.051724,310.10781 152.312259,310 151.996167,310 C151.680075,310 148.466894,310.701195 148.466894,314.582349 C148.466894,316.737683 151.100152,317.276732 151.100152,318.409167 C151.100152,319.999578 147.623982,323.584039 147.623982,328.489817 C147.623982,328.489817 146.464135,336.413409 147.307047,340.078943 C148.150802,343.744477 145.990418,345.038195 152.892183,359 C155.314712,352.045835 150.837163,345.361625 150.731799,342.558569 C150.679538,338.461796 153.365899,337.599317 153.629731,335.173165 C153.89272,332.747875 156,324.230898 156,319.433792 C156,316.845493 154.314176,316.989527 154.314176,316.037351 Z" id="Stroke-5"/>
                    <path d="M40.3576221,227 C40.2494285,234.654619 40.1412349,242.307516 40.0330413,249.962135 C39.9581381,255.314342 39.8832348,260.68549 40.5049319,265.99895 C40.9451966,269.76857 41.7358421,273.497721 41.9405777,277.288867 C42.1494745,281.160951 41.7458292,285.038201 41.677584,288.916311 C41.5860356,294.182414 42.1145197,299.470042 41.5710549,304.70773 C41.0908418,309.342693 39.7825316,313.835584 38.6931053,318.359472 C36.2038203,328.704832 34.8464068,339.341223 34.6558196,350 L34,348.14016" id="Stroke-7"/>
                    <path d="M81.4982786,241 C81.6655191,241.373497 81.8327595,241.746127 82,242.119623 C80.3735216,243.06593 78.3397738,243.283442 76.5512541,242.7011 C77.5261013,244.017437 76.8172791,246.209888 75.2557905,246.706439 C74.5573667,246.928284 73.8034849,246.845092 73.075599,246.759301 L64.5541348,245.755799 C65.3452774,246.739369 64.4215555,248.322614 63.1997471,248.638049 C61.9779386,248.954352 60.711937,248.437003 59.5559849,247.930919 C59.9450573,248.961284 58.966744,250.093906 57.8844469,250.294953 C56.8021499,250.495134 54.5881637,252.067113 53.5743226,251.639021 C54.9313099,252.155504 55.1843369,253.938062 55.1808707,255.389586 C55.1791377,255.968463 55.1661397,256.570737 54.9061805,257.087219 C54.6462212,257.604568 54.063046,258.006662 53.5006675,257.868009 C54.0015223,257.601969 54.6531535,257.840279 55.0222956,258.270103 C55.3914377,258.699061 55.538748,259.272738 55.6470643,259.829083 C55.891426,261.08736 55.9096232,262.587412 54.9373756,263.423663 C54.2658142,264.000807 53.2771025,264.083998 52.42097,263.856087 C51.5648376,263.62731 50.8092227,263.131625 50.0700719,262.64374 C50.6601794,263.996474 49.5900138,265.776432 48.1186445,265.890821 C48.1186445,265.890821 45,266.704541 45,263.889018" id="Stroke-9"/>
                    <path d="M26,226.372645 C26.3069886,228.124812 28.423048,229.01827 30.0038231,228.400988 C31.5845982,227.782792 32.601552,226.106528 33.0572787,224.390027 C32.8782741,226.057146 33.1956398,227.780963 33.9548961,229.254209 C34.1460073,229.627322 34.3803564,229.998605 34.7349066,230.195221 C35.5624787,230.654296 36.5344651,229.960197 37.1769793,229.243235 C38.748242,227.48924 39.9087454,225.325552 40.5261816,223 C40.1275288,225.490161 40.7319937,228.302223 42.5903557,229.889781 C44.4487177,231.477338 47.6388048,231.26792 48.871083,229.103318 C49.2455226,229.553248 49.9667296,229.613604 50.4042965,229.232261 C50.8409986,228.850918 50.9214209,228.090061 50.5746535,227.61544 C51.7749357,230.046159 54.591448,231.445331 57.1260497,230.871945 C57.6699816,230.748488 58.2242906,230.525352 58.5762465,230.07085 C59.7038891,228.618637 57.9977243,226.603097 57.8559042,224.729304 C58.9593337,227.176484 61.4377261,228.857319 64,228.895728" id="Stroke-11"/>
                    <path d="M91.5040274,199 C92.4018629,199.281886 93.3651035,199.298366 94.2535954,199.609741 C95.1412378,199.921117 95.9991506,200.668766 96,201.627179 C96,202.387838 94.7810843,204.033185 94.3181512,204.120787 C94.9552151,204.402673 95.7052518,205.037567 95.5328198,206.196336 C95.5328198,206.196336 95.2788436,207.787041 92.8979233,207.907602 C93.7923611,209.532133 93.9214727,211.573856 93.2385402,213.302469 C93.0457222,213.790782 92.7747576,214.273024 92.3407047,214.55838 C91.8667292,214.870623 91.2712867,214.90098 90.7072728,214.899245 C88.3985531,214.891439 86.0915322,214.491594 83.9093758,213.722262 C85.0730793,214.325932 86.2223426,215.048428 87.0021089,216.116993 C87.7827246,217.186426 88.1292874,218.671315 87.580563,219.881257 C87.0318386,221.091199 85.4315339,221.783338 84.3187956,221.08426 C85.3457427,221.246453 85.5445066,222.857975 84.8123078,223.60996 C84.080109,224.361946 82.9181043,224.429598 81.8835125,224.335058 C79.6877654,224.135569 77.5395858,223.415675 75.654726,222.248233 C76.59843,222.519711 76.9755719,223.831132 76.5168859,224.714954 C76.0590492,225.60051 75.0219091,226.042854 74.0416801,226.049793 C73.061451,226.055864 72.117747,225.701989 71.2029232,225.342909 C71.5928063,226.457444 71.1791395,227.810497 70.2388331,228.501769 C69.2985267,229.19304 67.9105767,229.160948 67,228.430647" id="Stroke-13"/>
                    <path d="M79,205 C81.4079393,204.805882 83.7754016,204.146765 85.9278852,203.071176 C86.3101692,202.880588 86.7068451,202.656471 86.9128287,202.286765 C87.4003532,201.406176 86.5620269,200.403824 85.7965595,199.741176 C85.5339079,199.513529 85.2712563,199.285882 85.0086047,199.059118 C85.7066103,199.585 86.7949953,199.253235 87.3310923,198.569412 C87.8671894,197.885588 87.9787264,196.973235 87.9976157,196.110294 C88.0066106,195.687647 87.9967162,195.256176 87.8500991,194.858235 C87.4507247,193.777353 86.1977328,193.276176 85.0589762,193" id="Stroke-15"/>
                    <path d="M83.0699196,183.27641 C82.8424326,182.498714 83.1881157,181.568687 83.8446707,181.188302 C84.5012258,180.807917 85.3933634,181.021716 85.8467183,181.66846 C86.2749767,182.277788 86.2927871,183.111606 86.2798341,183.882175 C86.2612142,184.95919 86.2992636,186.404118 86.2336891,187.479351 C86.8327652,187.031263 87.6148023,186.747088 88.2810721,187.060661 C88.9465323,187.373342 89.2711668,188.482427 88.7206644,189" id="Stroke-17"/>
                    <path d="M40.9982173,262.692262 C41.0204234,263.403365 40.8347802,263.846638 40.4634939,264.200918 C40.2263326,264.427217 40.0584543,264.396705 39.7360215,264.308559 C39.342529,264.201766 39.3123287,263.687297 39.3647351,263.299962 C39.4082591,263.911053 39.3638469,264.673857 38.7802701,264.928125 C38.1691577,265.194258 37.5162978,264.671314 37.0881638,264.178034 C36.0426997,262.977042 35.0940543,261.300569 35.8837039,259.933455 C35.3409864,260.267394 34.5877548,260.164839 34.0699081,259.797846 C33.5511732,259.430005 33.242064,258.847731 33.0804034,258.251897 C32.8832131,257.52469 32.9942437,256.575423 33.7181632,256.282168 C32.3742489,256.499991 30.8162675,256.02451 30.2024904,254.8642 C29.587825,253.703043 30.444093,251.974022 31.8066604,252.000296" id="Stroke-19"/>
                    <path d="M31,248.566459 C27.614362,248.984751 25.5073651,250.999134 22.0970888,251 C21.1056109,251 20.0002871,250.350478 19.918726,249.251488 C19.8813438,248.75612 19.8516079,248.304053 20.1251777,247.891823 C20.7989069,246.875971 21.4726361,245.859254 22.147215,244.842536 C19.4633428,246.524364 16.2391279,247.290799 13.1032709,246.996349 C12.907864,246.977297 12.6988635,246.948718 12.5561314,246.812751 C12.414249,246.676785 12.3709196,246.468938 12.3377854,246.274081 C12.036179,244.48833 12.0735612,242.401201 13.3878854,241.180967 C12.0514717,241.427785 10.6080089,240.963594 9.65136442,239.980651 C9.38544103,239.707852 9.15095268,239.387421 9.0523996,239.016761 C8.81451286,238.126484 9.42112404,237.206761 10.1747152,236.697536 C10.9283065,236.187445 11.8263289,235.951886 12.6257982,235.521469 C13.424418,235.091053 14.1754604,234.354929 14.2060459,233.433474 C14.2366313,232.512886 13.1533971,231.636465 12.4049034,232.15435" id="Stroke-21"/>
                    <path d="M5.29398786,303 C4.92626205,301.40739 4.67466018,299.463712 5.99776931,298.408855 C6.46050561,298.04044 7.05256175,297.849625 7.64021926,297.706719 C10.352417,297.046711 13.2959829,297.263134 15.8656649,298.310556 C14.7097039,297.61255 13.8185407,296.537043 13.3821962,295.312848 C13.141151,294.637971 13.0874877,293.782191 13.6681074,293.324563 C14.081579,292.998276 14.6745148,292.992494 15.2146671,293.002407 C16.4638792,293.027188 17.7271669,293.053621 18.9341521,293.355953 C20.1411372,293.658285 21.3058955,294.271208 22,295.245938" id="Stroke-23"/>
                    <path d="M20.1472773,291.892928 C19.673258,290.44693 20.3916799,288.774301 21.6119533,287.896216 C22.831357,287.01813 24.4360644,286.843935 25.9033497,287.121225 C26.058167,287.149665 26.2269004,287.193214 26.3217043,287.321194 C26.4165081,287.450063 26.40955,287.626035 26.3991129,287.78601 C26.3417088,288.656986 26.2843046,289.528851 26.2260307,290.399826 C27.7220181,289.927011 29.3058512,289.746595 30.8670706,289.871908 C31.2123654,289.89946 31.5811437,289.952785 31.8359834,290.193636 C32.0508141,290.39716 32.1438784,290.700224 32.214329,290.991734 C32.5283124,292.300864 32.5474471,293.682871 32.2691239,295 C32.0525536,293.688204 32.9040488,292.371964 34.038216,291.717844 C35.1723831,291.061946 36.5274694,290.949074 37.8295003,290.978403 C39.4272496,291.014842 41.2650527,291.410336 42,292.860777" id="Stroke-25"/>
                    <path d="M45,301.087045 C45.1166406,298.672157 47.503827,296.984445 49.8287466,296.294851 C51.0530347,295.931263 52.5079731,295.778312 53.492841,296.589393 C54.3628222,297.30608 54.5759325,298.596118 54.2838925,299.682512 C53.9909754,300.768905 53.2814846,301.690111 52.547438,302.544892 C51.6906117,303.542137 50.7776576,304.490437 49.8129607,305.383675 C51.2065092,304.559484 52.8017672,304.077031 54.420704,303.98963 C55.2442044,303.945929 56.1931154,304.065669 56.6596779,304.7439 C57.4156495,305.839034 56.322911,307.240071 55.3161182,308.112332 C58.1479422,306.76024 61.6076961,306.79083 64.4149642,308.195363 C64.8552168,308.415613 65.2910844,308.676942 65.5910175,309.065002 C66.6004413,310.369898 65.5875095,312.322435 64.2237788,313.254129 C62.8609252,314.184949 61.1604276,314.627198 59.9896363,315.78963 C59.771264,316.005511 59.4309891,316.258099 59.2012158,316.053581 C60.2360725,315.627939 61.345474,315.19443 62.4434745,315.409436 C63.541475,315.625317 64.5193269,316.791245 64.1018762,317.825198 C63.4002784,317.883757 62.6995577,317.941441 61.9979599,318" id="Stroke-27"/>
                    <path d="M46,231 C42.7420205,237.77693 43.9388821,245.714541 44.5584238,253.202302 C45.2839511,261.968357 45.1142018,270.781628 44.9444526,279.575155 C44.7169713,291.372542 44.4894901,303.16993 44.2611472,314.967317 C44.1525766,320.578416 44.041421,326.218704 43.0306805,331.739661 C42.5550379,334.331447 41.8803492,336.927524 42.0182166,339.5588 C42.2224327,343.438322 44.1835967,347.115241 44.0577927,350.997338 C44.4334814,351.047131 44.6040924,350.383517 44.2508071,350.247017" id="Stroke-29"/>
                    <path d="M59,319.315347 C57.2467074,320.598785 54.8963429,320.469779 53.2400635,319 C52.8290804,320.142304 51.6869708,320.49514 50.6939087,320.655018 C48.4758349,321.008956 46.230421,321.090549 44,320.899798" id="Stroke-31"/>
                    <path d="M37,321 C32.0074963,321.401 27.0046131,321.62 22,321.657" id="Stroke-33"/>
                    <path d="M86.3338281,177.835999 C87.0099158,176.007576 87.5409425,173.606001 86.0005333,172.40221 C84.9566125,171.585383 83.4559223,171.787015 82.1719602,172.128504 C79.5608629,172.823494 76.8176566,174.167998 75.851447,176.676825 C75.4758427,175.430134 75.8074106,174.094209 75.7763261,172.792605 C75.7461051,171.491859 75.1071461,169.985191 73.8145494,169.774978 C71.9313473,169.468668 70.6663812,172.083888 68.7581388,172.101048 C68.9351477,170.964182 68.3583577,169.746663 67.363654,169.157209 C66.3680868,168.567755 65.0167749,168.642402 64.0937382,169.337392 C63.8856448,168.425325 63.5091771,167.485802 62.739836,166.947829 C61.9696313,166.409855 60.7262517,166.47249 60.2496228,167.279021 C58.5563815,165.165738 56.4564515,163.374209 54.0983474,162.030563 C53.3013756,161.575817 52.0821728,161.274655 51.6331746,162.071748 C51.4622099,162.374626 51.481206,162.744429 51.5097001,163.091066 C51.6823917,165.172602 52.0381364,167.238695 52.5734805,169.258455 C52.1167111,169.20011 49.3501914,170.493992 49.8993508,171.769855 C48.1197637,170.301797 46.2728268,166.632938 43.9786187,166.928953 C43.6047413,166.977859 43.2205025,167.049932 42.8552597,166.954693 C42.3889923,166.831997 42.0392918,166.457046 41.7172219,166.099255 C41.0437246,165.352785 36.9224392,159.031812 34.2301769,161.617859 C33.4591088,162.358323 32.8762746,163.520072 33.5445912,164.354059 C32.0015916,163.798925 30.3886519,163.23607 28.7593065,163.423974 C27.1290976,163.611879 25.4902542,164.801941 25.380595,166.428732 C25.3339682,167.114283 24.7407725,169.569055 24.0508695,169.606807 C21.2359962,169.756959 20.4942857,173.346023 20.6160333,174.047019 C21.2308154,177.570015 23.0699811,179.026061 24.2520553,182.403196 C22.5251391,182.38003 17.0240476,178.019613 15.6632377,181.428494 C14.1849974,185.129957 19.8302864,188.907784 20.0513317,192.585222 C18.1715834,190.343237 15.6597838,190.778249 14.7600605,192.417052 C14.0407999,193.888542 15.3808869,195.184998 17.458367,196.954218 C14.975925,197.168721 9.43684143,194.353585 8.09675448,198.820394 C7.66847927,200.249842 8.95848565,201.604643 10.0162218,202.663429 C9.49382966,202.31336 8.16928496,205.515461 8.08898335,206.757862 C8.01040867,208.001121 8.64936765,209.264972 9.7010596,209.941944 C9.08196015,209.186035 7.73669246,209.482049 7.20134844,210.298018 C6.66514097,211.113988 6.75235024,212.189935 7.0312472,213.124309 C5.69375063,213.265881 3.30110827,211.442606 2.23991828,213.032502 C0.923144704,215.008503 5.34664048,219.283118 7.72719442,221" id="Stroke-35"/>
                    <path d="M159,180 C160.333847,184.652184 161.666847,189.304368 163.001542,193.956552 C164.995533,200.915462 166.992067,207.878676 168.578447,214.945176 C171.391052,227.472075 172.907095,240.432775 171.416474,253.192068 C170.881749,257.779698 169.95975,262.32085 169.626712,266.928277 C169.327571,271.081244 169.50892,275.253147 169.614001,279.415582 C170.206351,302.704907 168.40642,326.056203 164.253189,348.967672 C163.669313,349.130347 162.999,348.656952 162.943917,348.04412" id="Stroke-37"/>
                    <path d="M177.251748,202 C179.062128,205.142732 177.148192,208.906262 176.119104,212.342603 C175.151965,215.569716 175.001254,218.951813 174.857016,222.299468 C173.075298,263.514036 171.294505,304.762184 172.28291,346" id="Stroke-39"/>
                    <path d="M170.855296,107.720804 C171.59573,105.107209 169.388299,102.099807 166.658057,102.002432 C163.928681,101.905058 161.510565,104.748733 162.060255,107.408 C160.536902,105.216647 157.294251,104.418694 154.916885,105.64923 C152.539519,106.879766 151.339565,109.976787 152.27161,112.474912 C151.071656,111.151311 148.62146,111.513233 147.650399,113.01004 C146.679338,114.506847 147.164868,116.667179 148.52262,117.829639 C145.909425,115.69085 141.234458,117.292787 140.505295,120.578525 C140.094328,119.048972 139.646079,117.44962 138.546699,116.30181 C137.448186,115.154861 135.479186,114.665404 134.252354,115.674478 C133.194591,116.543953 133.085347,118.114006 133.275224,119.464321 C133.465101,120.815497 133.866531,122.196834 133.522324,123.516989 C132.8894,125.946177 124.351864,124.537265 123.60276,126.934569 C123.223872,128.147871 124.437699,129.542995 123.815179,130.65289 C123.127633,131.879117 121.201984,131.232827 120.18237,130.260807 C119.161888,129.288788 117.948062,128.013442 116.605916,128.452058 C116.647533,131.001025 116.957059,133.544821 117.530159,136.029159 C116.352747,137.099415 114.530273,136.027436 112.944495,135.85423 C111.877195,135.73876 110.719724,136.127395 110.093737,136.995147 C109.467749,137.862037 109.527573,139.208905 110.349507,139.894834 C109.090596,139.513092 107.761456,140.647115 107.513488,141.931939 C107.266388,143.216764 107.811743,144.521407 108.488884,145.642505 C108.951873,146.407712 109.505031,147.229792 109.367175,148.112193 C109.232787,148.970466 108.446401,149.612447 107.605392,149.848559 C106.764384,150.085532 105.86962,149.995913 105,149.90457" id="Stroke-41"/>
                    <path d="M101.90567,163 C101.073319,164.133541 100.213565,165.331099 100.027742,166.724125 C99.8427746,168.117151 100.592919,169.741495 101.974177,170.024026 C102.959811,170.226322 103.949727,169.712473 104.752964,169.107292 C104.425846,170.800775 104.281126,172.5284 104.320517,174.251758 C104.336788,174.938882 104.402725,175.678927 104.852298,176.200458 C105.30187,176.721989 106.269522,176.828685 106.624042,176.238868 C105.455153,178.269511 107.001683,180.989838 109.153637,181.924497 C111.307304,182.86001 113.774387,182.528825 116.09675,182.181422 C118.260693,184.60556 121.895808,185.60509 125,184.630314" id="Stroke-43"/>
                    <path d="M187,147.228251 C189.117883,148.206985 193.033197,149.29563 195.298522,148.592547 C196.862432,148.107541 198.220945,147.092171 199.423493,145.959038 C199.844513,145.562136 200.285987,145.130342 200.849336,145.02392 C202.230008,144.763971 203.143638,146.678695 202.728584,148.051713 C202.314382,149.424732 201.177458,150.421784 200.42235,151.633425 C201.454445,150.98617 202.70813,150.591013 203.883406,150.887598 C205.058682,151.183312 206.072027,152.321679 205.958675,153.555127 C205.900721,154.191043 205.570042,154.762407 205.235953,155.300623 C204.431413,156.59775 203.554431,157.847773 202.610119,159.041968 C205.391066,158.215888 208.416613,158.271716 211.166026,159.201601 C212.416301,159.623799 213.760326,160.417603 213.971688,161.747878 C214.108903,162.602744 213.725383,163.451503 213.294988,164.198201 C212.369426,165.798893 211.166026,167.230357 209.759785,168.407977 C209.371152,168.039862 208.982518,167.671746 208.593884,167.302759 C209.287629,167.949141 210.583927,168.626928 211.466023,168.953172 C212.34812,169.279417 213.237886,170.14475 212.959195,171.060677 C212.85948,171.387794 212.625106,171.652104 212.392437,171.897224 C210.863471,173.498788 209.037063,174.802894 207.040202,175.717949 C207.621448,175.225965 208.611782,175.628973 208.87428,176.352992 C209.13763,177.077883 208.80269,177.919663 208.244455,178.438689 C207.685368,178.958586 206.944748,179.217663 206.21606,179.420912 C203.925167,180.060316 201.454445,180.269671 199.191677,179.53344" id="Stroke-45"/>
                    <path d="M155.77797,158.018083 C158.004559,157.795139 160.225044,159.664709 160.399473,161.909948 C160.444825,162.490129 160.356738,163.110686 159.998286,163.567984 C159.639834,164.024405 158.957815,164.252616 158.453715,163.964719 C160.271268,165.049596 161.575126,166.965686 161.923985,169.063466 C162.042597,169.776185 162.048702,170.535423 161.749556,171.192844 C161.449537,171.849388 160.784962,172.374272 160.068057,172.333896 C160.361971,173.527612 159.844788,174.881075 158.831354,175.570095 C157.81792,176.259115 156.377134,176.235416 155.386376,175.515676 C156.00996,176.882305 156.614358,178.557018 155.773609,179.800765 C155.024435,180.90934 153.475503,181.092787 152.149841,180.964638 C151.199201,180.872476 150.034886,180.430099 150,179.46986" id="Stroke-47"/>
                    <path d="M164,184 C166.092991,192.919827 169.067563,201.640599 172.868888,210 C174.092483,209.774463 174.413612,208.226457 174.463217,207.006506 C174.572,204.364132 174.681654,201.720904 174.790437,199.078531 C176.177642,200.272853 178.803237,199.068279 178.757983,197.257147 C179.817098,197.846619 180.751764,198.641125 181.839598,199.179339 C182.927431,199.716698 184.267642,199.970428 185.348513,199.418545 C186.428514,198.867517 186.959377,197.290465 186.128272,196.416508 C187.468483,196.992311 189.038444,195.585266 188.999282,194.149175 C188.96012,192.713938 187.802665,191.517908 186.505097,190.852402 C187.511126,189.77512 188.572851,188.569692 188.638991,187.110534 C188.706002,185.650522 187.129949,184.119603 185.807143,184.787672" id="Stroke-49"/>
                    <path d="M144.355546,177 C145.082006,177.783739 145.069782,179.072807 144.501362,179.977859 C143.933815,180.88204 142.918343,181.433624 141.87493,181.666651 C140.644663,181.941571 139.05204,181.611667 138.676586,180.40813 C138.740326,181.322784 138.744691,182.240928 138.690556,183.155581 C138.673966,183.433119 138.63904,183.738585 138.432977,183.926229 C138.226914,184.113 137.918692,184.119109 137.640158,184.113872 C136.426481,184.092053 135.213677,184.070234 134,184.048415 C136.777487,186.257373 137.473386,190.665687 135.511421,193.621727 C136.158424,192.293385 137.777242,191.815985 139.216192,191.474736 C140.520676,191.166651 141.824288,190.858567 143.128772,190.550482 C143.97398,190.35062 144.882928,190.154249 145.689718,190.473679 C146.497381,190.792237 147.058815,191.858751 146.546277,192.559577 C146.162965,191.746164 146.686854,190.738126 147.457844,190.27469 C148.228835,189.812127 149.169216,189.753652 150.066813,189.708268 C150.405595,189.690813 150.768825,189.679467 151.055218,189.861001 C151.439403,190.104502 151.553786,190.603721 151.634116,191.05232 C151.931859,192.701837 152.22873,194.350482 152.525601,196 C152.850412,193.115526 156.314194,191.066284 159,192.171199" id="Stroke-51"/>
                    <path d="M111.864813,186 C111.739974,186.819359 111.329298,187.567804 111.117503,188.370075 C110.904847,189.171492 110.941007,190.135242 111.560895,190.691449 C112.13257,191.203228 112.988361,191.198102 113.757195,191.163926 C114.622456,191.125479 115.487718,191.086177 116.352979,191.047729 C115.649577,192.547182 116.031842,194.478101 117.256122,195.600768 C118.480402,196.724289 120.449409,196.952411 121.900982,196.139033 C121.666801,197.165154 122.100724,198.255354 122.803264,199.043101 C123.505804,199.830847 124.447691,200.36484 125.393021,200.841589 C127.481701,201.892487 130.210933,202.662292 132,201.161985" id="Stroke-53"/>
                    <path d="M138,201.1457 C136.813716,200.573442 135.397943,201.783028 135.228474,203.10047 C135.059005,204.416128 135.709519,205.682762 136.339733,206.848671 C135.604484,206.460926 134.833929,206.079421 134.004237,206.042875 C133.175427,206.006329 132.270709,206.406553 131.965312,207.184717 C131.742884,207.754301 131.872633,208.393411 132.005031,208.990628 C132.207158,209.896257 132.408403,210.801887 132.609647,211.708408 C131.029701,210.440883 128.928991,209.857929 126.929785,210.131579 C126.330465,210.212693 125.699369,210.393641 125.31365,210.863391 C124.927049,211.333142 124.935875,212.163006 125.462818,212.462505 C123.103491,211.348296 120.179267,211.55955 118,213" id="Stroke-55"/>
                    <path d="M127,219 C128.032695,221.713253 130.267889,224.093161 133.090472,224.633531 C135.912189,225.174778 139.162751,223.420331 139.756204,220.575494 C139.812517,222.61153 141.83892,224.135268 143.841065,224.337907 C145.84321,224.540546 147.802038,223.768589 149.669032,223.010667 C150.280678,224.467736 152.199653,224.615987 153.721838,224.97828 C155.24489,225.341451 156.886631,227.061687 155.871264,228.266115 C155.466676,228.745956 154.710349,228.983684 154.614183,229.606513 C154.342148,231.376751 158.904371,230.186358 158.578622,231.947823 C158.478991,232.48907 157.873409,232.731184 157.384785,232.974175 C155.600095,233.858417 154.529281,236.253238 155.483137,238.018212 C156.436993,239.783186 159.524681,239.868277 160.241156,237.991018 C160.377174,239.329662 160.559974,240.775326 161.486107,241.74115 C162.411374,242.705219 164.345944,242.715746 164.820706,241.459561 C164.812909,242.842943 164.858825,244.373699 165.794488,245.381629 C166.729285,246.389559 168.856185,246.150077 169,244.77459" id="Stroke-57"/>
                    <path d="M208.648599,184.102272 C209.194217,183.972578 209.881135,183.889812 210.2114,184.344596 C210.405473,184.612517 210.393557,184.971736 210.458248,185.295972 C210.665089,186.334381 211.717171,187.030635 212.765848,187.166302 C213.812822,187.301969 214.863202,186.999917 215.87698,186.701279 C216.316198,187.976038 215.507559,189.336976 214.585711,190.318216 C213.663011,191.299457 212.545387,192.206464 212.163199,193.498288 C211.781862,194.790966 212.698603,196.542693 214.024771,196.3217 C213.81112,198.114384 212.718181,199.77396 211.174957,200.703152 C210.330568,201.210837 209.326153,201.541899 208.737124,202.333717 C208.148094,203.125536 208.404305,204.599956 209.386588,204.668216 C209.831765,204.698933 210.269281,204.424186 210.707649,204.510364 C211.855916,204.735623 211.29072,206.542812 210.373979,207.271489 C208.678391,208.621335 206.579334,209.456669 204.422396,209.640118 C204.069149,209.669982 203.674193,209.702405 203.441815,209.969473 C202.558271,210.989963 205.480437,211.824444 205.239547,213.153812 C205.119528,213.815935 204.288758,214.027542 203.618865,214.078737 C201.38617,214.247681 199.136451,214.193073 196.915674,213.915766 C197.599186,215.722955 198.286955,217.545502 198.585726,219.455934 C198.813847,220.919262 198.776394,222.528496 197.920088,223.736702 C197.063782,224.944054 195.164757,225.471364 194.064157,224.482444 C192.572857,223.141132 193.509176,220.294681 192,218.97214" id="Stroke-59"/>
                    <path d="M184.691221,218 C187.146546,218.741158 188.978005,221.17726 188.999818,223.729657 C189.008544,224.807547 188.703155,225.919285 187.981565,226.723797 C187.259103,227.52831 186.082048,227.963111 185.046344,227.645472 C185.994794,227.278364 187.13433,228.00043 187.397837,228.978515 C187.661344,229.956601 187.187555,231.026681 186.419721,231.690599 C185.651886,232.354517 184.637123,232.671289 183.632831,232.832712 C185.815924,233.320453 186.718129,236.430888 185.318576,238.167489 C183.919024,239.904091 180.964607,239.901487 179.35739,238.353213 C179.437663,239.29832 179.517937,240.243427 179.599083,241.188534 C179.698552,242.354947 179.729091,243.708819 178.846082,244.48556 C178.160266,245.089595 177.107111,245.118235 176.250278,244.796256 C175.393445,244.47341 174.686688,243.857224 174,243.254057" id="Stroke-61"/>
                    <path d="M225,297 C224.358677,295.752486 223.716502,294.503341 223.074327,293.255011 C222.974547,293.060954 222.867944,292.858742 222.684587,292.730729 C222.243678,292.421705 221.628793,292.685884 221.157182,292.95251 C219.663037,293.798047 218.169744,294.642769 216.675599,295.488306 C216.665366,293.780109 216.308886,292.074357 215.632598,290.492542 C214.244202,290.435466 212.628957,289.4717 211.641388,290.405298 C210.733132,291.263066 211.45462,292.865265 210.7536,293.883661 C209.101683,292.183617 206.109128,291.874592 204.116935,293.198751 C203.716109,291.073085 201.163611,289.575252 199,290.195748" id="Stroke-63"/>
                    <path d="M194.544452,293 C193.870079,295.320408 194.352761,297.947953 195.810304,299.87384 C193.837268,299.771749 192.336551,302.180405 193.015241,304.039672 C193.692204,305.89894 195.99336,306.841984 197.903363,306.33672 C196.349111,306.560801 194.754276,306.807377 193.389988,307.586037 C192.025701,308.365563 190.923045,309.807815 191.004212,311.378978 C191.085378,312.951007 192.716479,314.392393 194.208561,313.903568 C193.510875,316.22138 194.796586,318.963129 197.02262,319.904443 C199.247791,320.844891 202.105888,319.854262 203.27503,317.736306 C204.451081,319.757362 206.825633,321.013601 209.15442,320.845757 C211.484071,320.677912 213.654843,319.094636 214.530405,316.925635 C214.443194,318.503719 216.16755,319.50127 217.660495,320.013455 C222.885372,321.805239 228.516945,322.398751 234,321.737755" id="Stroke-65"/>
                    <path d="M233,29 C249.357216,31.8609215 265.272275,37.2791248 280,45" id="Stroke-67"/>
                    <path d="M232,32 C248.466219,36.9002749 264.806774,42.2368334 281,48" id="Stroke-69"/>
                    <path d="M254,15.2640007 C257.7252,16.4379822 261.426177,17.6833154 265.099469,19 C276.076957,14.781963 287.447209,11.4218037 299,9" id="Stroke-71"/>
                    <path d="M254,19 C256.226795,21.0483312 259.243771,21.8931033 262.131633,22.7176992 C277.844871,27.2056059 293.201753,32.9918125 308,40" id="Stroke-73"/>
                    <path d="M232,32 C231.203557,41.0831363 230.658622,50.1852335 230.429025,59.2933637 L230.429025,71 L229,70.9284657" id="Stroke-75"/>
                    <path d="M183,81 L183,58.0726407 L183,55.2079026 C187.362857,53.7132192 191.812286,51.8137079 196.336286,50.9198202 C198.282857,50.5356204 200.256,50.2631566 202.167429,49.7294025 C203.956286,49.2291692 205.674857,48.5046045 207.440571,47.9270155 C210.222,47.0176567 213.108,46.4753076 215.994857,46 L216,74.9774318" id="Stroke-77"/>
                    <path d="M158,86 L158,60.8476753 C165.632528,60.8476753 173.484642,58.4289531 180.704906,56 C180.704906,56.6624417 181,57.2004092 181,57.8637035 L181,80.6058315" id="Stroke-79"/>
                    <path d="M171,59 L171,82" id="Stroke-81"/>
                    <path d="M158,71 C165.116239,68.345554 172.493162,66.3329685 180,65" id="Stroke-83"/>
                    <path d="M54,81 C57.460087,79.785003 60.920174,78.5708788 64.3802611,77.3558818 C65.5018662,76.9622297 66.6234714,76.5685777 67.7442105,76.1749256 C68.6648795,75.8519738 69.5846823,75.529022 70.5105479,75.2217814 C75.9366919,73.4211069 81.5421195,72.172069 87.2159693,71.4982345 C90.4430743,71.1150565 93.5679789,69.4103948 96.7422515,68.7051379 C97.9149568,68.4450307 99.1041181,68.2390399 100.241313,67.849752 C101.166313,67.5329101 102.046275,67.0982345 102.963479,66.7613172 C104.072093,66.3528268 105.227476,66.090974 106.379395,65.829994 C109.33974,65.1579052 112.300951,64.4866891 115.261295,63.8154731 C117.371126,63.3371553 119.478358,62.651101 121.537954,61.9859948 C123.306539,61.4160286 125.080321,60.8443166 126.900006,60.4689942 C128.278844,60.1844475 129.677603,60.0142432 131.075495,59.843166 C133.383664,59.5621107 135.691832,59.2810553 138,59" id="Stroke-85"/>
                    <path d="M82,52 C80.5089575,53.6748851 78.9852581,55.3781864 77.0395981,56.5307146 C76.0066107,57.142499 74.8627619,57.5938153 73.9483705,58.3627246 C73.2548423,58.9460928 72.7108482,59.6974509 71.9451312,60.1863769 C70.9611291,60.8157125 69.6127454,61.0213122 69,62" id="Stroke-87"/>
                    <path d="M42.707317,78 C40.4768106,78.5475254 38.2436831,79.0950507 36.0655974,79.8065852 C34.8275921,80.2099814 33.6088077,80.6672189 32.3515814,81.0134603 C30.4286105,81.5427625 28.4217663,81.8119694 26.5564583,82.5019673 C25.4145578,82.9235867 24.2700363,83.5125285 23.0486309,83.4222406 C23.0809571,84.3093808 22.9350524,85.1178298 23.0363993,86 C25.173422,85.8566991 27.1243507,85.1178298 29.1425527,84.4377718 C31.7775733,83.5498033 34.548888,83.0693725 37.1900243,82.2004556 C39.1060058,81.569269 40.9809242,80.7276869 43,80.5462829" id="Stroke-89"/>
                    <path d="M27,85 L27,94 C36.2861823,94 44.7996724,88.7173913 54,87.4884246" id="Stroke-91"/>
                    <path d="M3.78469345,132 C3.43949755,128.790204 3.17735629,125.571914 3,122.349377 C9.39174777,119.790204 16.2273189,118.13222 23.0992264,117.494337 C28.0807753,117.031427 33.1661426,117.079841 37.9712004,115.706399 C40.2119458,115.065968 42.3540637,114.124858 44.5809666,113.436863 C46.1979369,112.937429 47.8547043,112.572197 49.5097413,112.208664 C51.3395391,111.806059 53.1702021,111.402605 55,111" id="Stroke-93"/>
                    <polyline id="Stroke-95" points="36 92 36 92.1064736 36 115"/>
                    <path d="M48.0188601,89 C47.9308601,96.3370174 48.1508601,103.676585 48.6778601,111" id="Stroke-97"/>
                    <path d="M37,101 C42.5406597,98.6464327 48.2210777,96.641542 54,95" id="Stroke-99"/>
                    <path d="M72,160.094132 C77.7389135,159.577588 83.4315662,158.541079 88.9828664,157 C88.9828664,157.52253 89,158.104925 89,158.62831 L89,186" id="Stroke-101"/>
                    <path d="M72,169 C77.3556912,168.54833 82.6944017,167.881371 88,167" id="Stroke-103"/>
                    <path d="M80,159 C80.068,163.666375 80.137,168.333625 80.206,173" id="Stroke-105"/>
                    <path d="M113,191.742759 C112.120808,192.02727 111.188539,192.082084 110.267399,192.134287 C105.843187,192.386606 100.430204,193 96,193 L96,159.205014 C96.0539329,158.093944 96.0847517,156.981133 96.1386847,155.870063 C99.3558264,155.455913 102.858042,155.308872 106.088025,155.013921 C105.958757,155.008701 105.830345,155.00435 105.701934,155" id="Stroke-107"/>
                    <path d="M97,185 C102.298656,184.109369 107.6384,183.441601 113,183" id="Stroke-109"/>
                    <path d="M106,192 C105.193527,187.045872 104.8734,182.014714 105.044896,177" id="Stroke-111"/>
                    <path d="M96,197.768297 C102.5415,197.879256 109.093471,197.285714 115.510196,196 C115.480529,201.910763 116.292873,208.103327 115.885392,214" id="Stroke-113"/>
                    <path d="M115.301399,213.662076 C115.638338,220.890585 116.257505,227.264055 115.884094,234.489999 C109.126224,235.453629 101.822132,235.721257 95,236 C95.4524352,226.673222 95.6938497,217.337039 95.725112,208" id="Stroke-115"/>
                    <path d="M97,208 C102.923059,206.819983 108.955141,206.150289 115,206" id="Stroke-117"/>
                    <polyline id="Stroke-119" points="106.125 197 106.125 198.277311 106.125 235 106 235"/>
                    <path d="M95,227 C101.304025,226.37248 107.607176,225.744961 113.910326,225.118317 C114.56488,225.052585 115.343695,225.038563 116,225" id="Stroke-121"/>
                    <path d="M89.8028309,218 C90.0971841,223.623798 90.0618264,229.263838 89.6976416,234.884217 C87.4895502,234.991068 85.2107432,235.023551 83,234.983375" id="Stroke-123"/>
                    <path d="M90,228 C87.3741774,228.605 84.6793737,228.842 82,228.701" id="Stroke-125"/>
                    <path d="M45,323.55969 C70.9951252,322.87869 97.0031543,322.81969 123,323.37969" id="Stroke-127"/>
                    <path d="M134,323 L136,323" id="Stroke-129"/>
                    <path d="M156,323 C159.333611,323.149 162.666389,323.299 166,323.447" id="Stroke-131"/>
                    <path d="M173,324.163681 C209.282368,323.783753 245.569922,324.064861 281.844512,325.010844 L280.342362,325.092394 C284.895484,325.394609 289.446878,325.697784 294,326" id="Stroke-133"/>
                    <path d="M234,319 C254.247133,319.57447 274.493399,320.148941 294.739665,320.722505 C294.391684,322.914373 294.707557,324.799071 295,327" id="Stroke-135"/>
                    <path d="M254,280 C254.333061,292.000286 254.666122,303.999714 255,316" id="Stroke-137"/>
                    <path d="M231,280 C231.350532,289.264935 231.397833,317.967537 231.397833,317.967537 C233.439368,318.040578 232.620896,317.967537 233.871832,317.967537 C234.693682,305.42792 235.06702,292.856129 234.990157,280.287817" id="Stroke-139"/>
                    <path d="M170,102 C171.666667,102.12148 173.333333,102.242105 175,102.362729 C174.688856,106.257789 174.500334,110.105796 174.188355,114 C172.983817,114 171.481481,113.998289 170.276944,113.998289" id="Stroke-141"/>
                    <path d="M164,244 C164.069433,254.333333 164.139712,264.665798 164.209145,275 C165.431837,275 166.776461,274.999131 168,274.999131" id="Stroke-143"/>
                    <path d="M175.92731,245 C176.134721,254.672696 175.898097,264.358314 175.219632,274 L174,274" id="Stroke-145"/>
                    <path d="M165,267.229444 C166.32139,266.984444 167.669226,266.935444 169,267.083444" id="Stroke-147"/>
                    <path d="M173,266.322 C173.673416,266.409 174.36108,266.298 175,266" id="Stroke-149"/>
                    <path d="M164,247.62 C165.66693,247.413 167.333859,247.206 169,247" id="Stroke-151"/>
                    <path d="M174,246 L176,246" id="Stroke-153"/>
                    <path d="M133,68 C130.75075,86.5918481 130.46766,105.337362 131.80483,124" id="Stroke-155"/>
                    <path d="M132,66 C132.378,64.0177474 132.504,62.0035495 132.375,60" id="Stroke-157"/>
                    <path d="M131,68 C135.351175,68.4832029 139.67949,69.1790152 143.968009,70.0856796 C144.147509,76.3321759 143.518413,82.7517466 143.399876,89" id="Stroke-159"/>
                    <path d="M54,122 C37.0868087,126.294482 19.8848935,129.458612 2.54852765,131.464021 C1.87799856,131.464021 1.24452957,132.351972 0.574000479,132.351972 C0.490399808,144.673251 0.0836006703,156.993671 0,169.31409 L0,323" id="Stroke-161"/>
                    <path d="M11,197 L11,138.05604 C20.6248571,138.05604 30.7648571,135.108669 39.8805714,132 C40.1762857,141.490757 40.7042857,150.991865 41,160.482623 L41,165.97541" id="Stroke-163"/>
                    <path d="M91,283 L91,283.215686 L91,316 L105.694986,316 C106.32813,316 107.373574,315.908549 108,316 L108,283.427922" id="Stroke-165"/>
                    <path d="M43,329 L123,329" id="Stroke-167"/>
                    <path d="M133,329 L135,329" id="Stroke-169"/>
                    <path d="M155,330 L167,330" id="Stroke-171"/>
                    <path d="M173,330.002774 L247.202837,330.002774 C259.143534,330.002774 271.086803,329.876651 282.940867,331.325336 C283.301979,331.370256 283.711124,331.444548 283.904117,331.755536 C284.236065,332.290262 283.642504,332.922604 283.095262,333.229273 C280.124026,334.900832 276.583246,335.096063 273.183137,335.252421 C260.522791,335.834659 247.861587,336.417762 235.201241,337" id="Stroke-173"/>
                    <path d="M274.28645,325 C281.179456,326.195589 288.296445,327.47905 294.138786,331.459908 C295.049248,332.081224 296.011858,332.939527 295.99989,334.072097 C295.987066,335.246384 294.931273,336.094036 293.931902,336.647007 C290.225939,338.700899 285.948907,339.293812 281.766768,339.720744 C265.245097,341.412498 248.598612,341.060124 232,340.705974" id="Stroke-175"/>
                    <path d="M254,65 C259.843768,66.0330031 265.694368,67.0685589 271.428811,68.5908345 C282.451,71.5162584 292.942792,76.2158269 304,79" id="Stroke-177"/>
                    <path d="M255,68 C262.332589,69.3998219 269.683207,70.8032057 276.823489,73.0267142 C286.331559,75.9866429 295.400069,80.3775601 305,83" id="Stroke-179"/>
                    <path d="M255,74 C270.86097,78.0130999 286.546468,82.685602 302,88" id="Stroke-181"/>
                    <path d="M259.253152,65.1353265 L259.253152,56.7257081 C259.259306,55.1466365 259.174921,53.56845 259,52 C265.387706,53.1276554 271.516985,57.4568253 277.856345,58.8323171 C278.341554,62.7419355 277.472221,66.0779898 277.103041,70" id="Stroke-183"/>
                    <path d="M269.213642,60 C269.016642,62.328566 268.955642,64.6660707 269.031642,67" id="Stroke-185"/>
                    <path d="M260,58 C262.901164,58.6203636 265.802327,59.2407271 268.703491,59.8619923 C271.331881,60.4246477 274.334136,59.1063751 277,58.7790612" id="Stroke-187"/>
                    <path d="M242.176567,68.2133082 C242.503885,60.8858413 242.963447,54.4784261 242.80774,47.1447994 C245.330854,47.8241323 247.283509,48.6692932 249.80746,49.349506 C249.881964,49.9355626 249.925495,50.5946562 250,51.1807128 L250,66.1805928 L242.176567,68.2133082 Z" id="Stroke-189"/>
                    <path d="M254,64.2999096 L254,52.9402705 C254.071861,52.6600661 254.144589,52.3790202 254.21645,52.0988158 C254.81039,52.1501445 255.406926,51.9574514 256,52.0087801 C255.872727,56.3405892 255.703896,60.6715568 255.495238,65" id="Stroke-191"/>
                    <path d="M240,69.0455137 L240,45.8396737 C238.733176,45.6237576 237.491765,45.4249777 236.290824,45 C236.128941,45.4558229 236.013176,45.9313524 236,46.4103091 L236,70" id="Stroke-193"/>
                    <path d="M259,86 L259,128" id="Stroke-195"/>
                    <path d="M259,134 L259,175" id="Stroke-197"/>
                    <path d="M259,182 L259,225" id="Stroke-199"/>
                    <path d="M260,230 L260,272" id="Stroke-201"/>
                    <path d="M266,87 L266,129" id="Stroke-203"/>
                    <path d="M266,136 L266,177" id="Stroke-205"/>
                    <path d="M265,183 L265,225" id="Stroke-207"/>
                    <path d="M265,230 L265,273" id="Stroke-209"/>
                    <path d="M270,90 L270,130" id="Stroke-211"/>
                    <path d="M277,91 L277,134" id="Stroke-213"/>
                    <path d="M270,136 L270,179" id="Stroke-215"/>
                    <path d="M276,138 L276,179" id="Stroke-217"/>
                    <path d="M270,184 L270,226" id="Stroke-219"/>
                    <path d="M277,185 L277,227" id="Stroke-221"/>
                    <path d="M270,230 L270,272" id="Stroke-223"/>
                    <path d="M277,231 L277,273" id="Stroke-225"/>
                    <path d="M283,94 L283,134" id="Stroke-227"/>
                    <path d="M288,95 L288,135" id="Stroke-229"/>
                    <path d="M293,97 L293,136" id="Stroke-231"/>
                    <path d="M300,98 L300,138" id="Stroke-233"/>
                    <path d="M283,140 L283,181" id="Stroke-235"/>
                    <path d="M289,141 L289,182" id="Stroke-237"/>
                    <path d="M294,142 L294,183" id="Stroke-239"/>
                    <path d="M300,144 L300,184" id="Stroke-241"/>
                    <path d="M282,186 L282,227" id="Stroke-243"/>
                    <path d="M289,187 L289,229" id="Stroke-245"/>
                    <polyline id="Stroke-247" points="294 188 294 229 295 228.990507"/>
                    <path d="M299,229 L299,189" id="Stroke-249"/>
                    <path d="M283,232 L283,273" id="Stroke-251"/>
                    <path d="M289,233 L289,274" id="Stroke-253"/>
                    <path d="M293,233 L293,274" id="Stroke-255"/>
                    <path d="M299,234 L299,274" id="Stroke-257"/>
                    <path d="M256,278 C271.637218,279.251462 287.316877,279.918129 303,280" id="Stroke-259"/>
                    <path d="M315.776825,305.084868 C305.373237,303.798833 294.889202,303.212393 284.412088,303.33004 C281.749558,303.360575 279.062808,303.439605 276.47813,304.105972 C274.591523,302.983386 272.24905,302.72115 270.174734,303.40009 C270.142728,302.933094 270.110722,302.466996 270.079581,302 C268.393659,302.146385 266.707736,302.292771 265.022678,302.438258 C263.830682,302.541536 262.234721,303.173776 262.502877,304.383476 C261.258979,303.770992 259.577381,304.500225 259.121516,305.849124 C258.666516,307.198922 259.54105,308.857656 260.88183,309.185451 C261.794426,309.408172 263.150776,310 264.087592,310 L316,310" id="Stroke-261"/>
                    <path d="M261,309 L261,313 L294.431897,313 C301.632481,313 308.800279,311.729401 316,311.595096" id="Stroke-263"/>
                    <path d="M255,314 L262,314" id="Stroke-265"/>
                    <path d="M294,314 L294,320" id="Stroke-267"/>
                    <path d="M255,316 L255,318" id="Stroke-269"/>
                    <path d="M134,225 L134,283" id="Stroke-271"/>
                    <path d="M144,89 L144,116" id="Stroke-273"/>
                    <path d="M147,225 L147,280" id="Stroke-275"/>
                    <path d="M134,236.510017 C135.811475,236.351017 137.623803,236.192017 139.435279,236.031017 C141.929574,235.813017 144.498885,236.818017 147,236.749017" id="Stroke-277"/>
                    <path d="M134,232.538697 C135.674425,232.269697 137.360024,232.096697 139.049061,232.017697 C141.664705,231.893697 144.381777,232.458697 147,232.551697" id="Stroke-279"/>
                    <path d="M140,232 L140,237" id="Stroke-281"/>
                    <path d="M70,246.562846 L70,271 L88.350069,269.884008 L89,241.427911 C87.0344828,241.427911 84.8505747,241 82.8850575,241" id="Stroke-283"/>
                    <path d="M71,253 C76.6032255,251.78472 82.307901,250.563213 88,251.153059" id="Stroke-285"/>
                    <path d="M70,264 C74.0281298,263.216461 78.0562595,262.432922 82.0835276,261.649383 C83.707704,261.333333 85.3430816,261.015638 87,261" id="Stroke-287"/>
                    <path d="M80,271 L80,244" id="Stroke-289"/>
                    <path d="M114.630803,238.105027 C110.458117,237.734005 106.272758,238.413498 102.137245,239.089563 C99.8316648,239.467439 97.3359946,240.134079 95,240.134079 L95,271 C96.6896887,271 99.0797533,269.905786 100.764373,269.777256 C106.165463,269.365105 109.598065,269.103762 115,268.691611 L114.630803,238.105027 Z" id="Stroke-291"/>
                    <path d="M105,270 L105,239" id="Stroke-293"/>
                    <path d="M96,261 C102.686591,260.660319 109.360875,259.99228 116,259" id="Stroke-295"/>
                    <path d="M95,250 C101.332751,249.334017 107.666376,248.667009 114,248" id="Stroke-297"/>
                    <path d="M144,89.3586883 C148.70743,89.1084631 153.375121,88.1367984 157.788823,86.4884079 C160.385728,85.5176031 162.901426,84.3129108 165.571764,83.5665348 C169.578565,82.4469707 173.795296,82.3936581 177.916998,81.8252772 C183.82094,81.0109706 189.529639,79.1372915 195.40248,78.1277921 C199.6123,77.4046328 203.886913,77.1286112 208.108828,76.4862806 C212.068978,75.8843644 215.972975,74.9617129 219.870925,74.0407811 C230.890061,71.4362038 243.224065,67.6037175 254.244065,65 C255.245334,90.1067841 256.065182,115.257422 254.785735,140.352168 C253.84494,158.798319 253.827662,177.841228 254.289853,196.305437 C254.835842,218.139517 255.381831,239.972736 255.927821,261.806816 C256.04704,266.560234 256.159348,271.379863 255.031949,276" id="Stroke-299"/>
                    <path d="M83,43 C85.9725056,40.9576242 88.9562511,38.9074331 91.6313332,36.4855853 C94.487982,33.8978812 96.9598824,30.9176797 99.5614733,28.0720736 C106.212865,20.7978465 113.734048,14.388503 121.233616,8 C135.260937,11.754776 148.971814,15.3072247 163,19.0620007" id="Stroke-301"/>
                    <path d="M87,43 C87.7631938,50.2910815 88.0907877,57.6508222 87.9784902,65" id="Stroke-303"/>
                    <path d="M83,42 C83.207,49.6666667 83.415,57.3333333 83.622,65" id="Stroke-305"/>
                    <path d="M88,42.7972245 C100.232232,33.0250846 111.778473,22.3919596 122.525675,11 C134.535238,14.0679575 146.478857,17.1582336 158.489277,20.2270495 C158.911491,28.9038581 159.577785,38.3231914 160,47" id="Stroke-307"/>
                    <path d="M163.781923,46 C163.199923,36.6758055 162.941923,27.337046 163.010923,18" id="Stroke-309"/>
                    <path d="M81.9119686,57.3269724 C77.7920599,60.7240476 73.5370861,63.9509682 69.1597892,67 C69.400188,65.6215764 68.668798,64.0919043 69.1954667,62.7616052 C69.6762643,61.5473205 70.9589576,61.2259175 71.630885,60.1981154 C72.9356643,58.2035261 73.389279,55.1682441 74.0663032,52.8935014 C76.1135156,46.0116957 77.4539725,38.9133296 78.0587921,31.7530892 C83.4724372,30.5602887 88.4630483,29.7602187 93.8775428,28.5682775 C95.2358385,28.269218 96.6102741,27.9675804 98,28.0028145" id="Stroke-311"/>
                    <path d="M105,61 L105,36.6337518 L105,35.7743025 C107.654355,34.5573222 110.646199,33.7545965 113.460861,33 C113.460861,33.7640505 114,34.4378587 114,35.2010498 L114,58.4087602" id="Stroke-313"/>
                    <path d="M119,57 L119,31.8517522 C122.112364,31.8517522 124.980091,28.8957362 127.974636,28 L128,53.8185325" id="Stroke-315"/>
                    <path d="M134,52 L134,28.5748217 C136.74048,26.0328732 140.258059,24.0857029 144,24 C143.847847,29.3341496 143.608871,34.6674421 143.455858,40.0015916 L143.455858,50.0005509" id="Stroke-317"/>
                    <path d="M105,44 C107.646729,43.2199571 110.315448,42.5536481 113,42" id="Stroke-319"/>
                    <path d="M119,40 L127,37" id="Stroke-321"/>
                    <path d="M134,36 C137.020157,35.4818763 140.023037,34.8144989 143,34" id="Stroke-323"/>
                    <path d="M54,80.4969107 L54,81.3414678 L54,87 C60.4555142,87 66.2026432,82.8996755 72.5126931,81.5618971 C89.9219237,77.8694937 107.331154,74.1770903 124.740385,70.4855314 C127.563596,69.8867405 130.421237,69.2752811 133,68" id="Stroke-325"/>
                    <path d="M70,87 L70,173" id="Stroke-327"/>
                    <path d="M116,73 L116,137" id="Stroke-329"/>
                    <polyline id="Stroke-331" points="72 86 72 86.8745627 72 114"/>
                    <path d="M72,155 L72,118" id="Stroke-333"/>
                    <path d="M72,160 L72,171" id="Stroke-335"/>
                    <path d="M73,282 L131.435732,282 C136.849806,282 143.296613,279.94108 148.672693,279.337152 L170,279" id="Stroke-337"/>
                    <polyline id="Stroke-339" points="173 280 254 280 253.967269 278"/>
                    <path d="M96,114 L96,151" id="Stroke-341"/>
                    <path d="M97,80 L97,108" id="Stroke-343"/>
                    <path d="M72,118.638575 C77.2911647,116.655388 83.4016064,117.583145 88.8890562,116 L89,151.918666 C87.2675703,152.974096 85.2535141,152.974096 83.2394578,153.237953 C82.0958835,153.382649 80.9864458,153.731622 79.8684739,154.021014 C77.2996988,154.676402 74.6455823,155.008352 72,155" id="Stroke-345"/>
                    <path d="M89,110 C86.3839424,111.104762 83.6541431,111.819048 80.8980957,112.390476 C79.3232115,112.714286 77.7308286,113 76.1471951,113.27619 C74.7647967,113.514286 73.3823984,113.752381 72,114" id="Stroke-347"/>
                    <path d="M89.753771,109 C90.1034268,106.269663 90.0160129,103.495987 89.884892,100.739647 C89.596426,94.5335474 89.4128567,88.1714286 88.7834763,82 C87.2974394,82.5113965 85.8201438,83.0227929 84.3428482,83.5255217 C83.3812949,83.8548957 82.4284829,84.1929374 81.4494468,84.4269663 C81.2658776,84.470305 81.0735669,84.5136437 80.8899976,84.5483146 C77.9528893,85.1550562 74.8496944,85.0423756 72,85.917817" id="Stroke-349"/>
                    <path d="M97,81 C100.059129,79.7339137 103.274756,78.9665026 106.50612,78.3911809 C109.721747,77.818698 113.016059,77.4174868 116,76" id="Stroke-351"/>
                    <path d="M97,109 C99.5848512,108.384607 103.013826,108.237712 105.405658,107.147736 C107.342073,106.264629 106.972046,105.816991 106.971157,103.674415 C106.970267,101.055517 106.971157,98.4374877 106.971157,95.8185897 C106.867087,89.8793495 106.82617,83.9392402 106.7221,78" id="Stroke-353"/>
                    <path d="M97,101 C103.244411,98.0116906 110.618407,98.6600719 117,96" id="Stroke-355"/>
                    <path d="M105,107 C108.358209,106.498628 111.695688,105.831656 115,105" id="Stroke-357"/>
                    <path d="M81,85 L81,112" id="Stroke-359"/>
                    <path d="M90,102 C87.179236,103.364807 84.0940255,103.914163 80.9647405,104.360515 C77.950049,104.798283 74.8912831,105.133047 72,106" id="Stroke-361"/>
                    <path d="M88,125 C85.4505029,126.027708 82.7400741,126.541562 79.9788248,126.926952 C77.3276866,127.297229 74.6257279,127.539043 72,128" id="Stroke-363"/>
                    <polyline id="Stroke-365" points="80 117 80 119.61158 80 154"/>
                    <path d="M89,144 C86.0472321,144.34629 83.0944642,144.69258 80.1330625,145.045936 C77.4220416,145.35689 74.7110208,145.674912 72,146" id="Stroke-367"/>
                    <path d="M97,123 L104.207575,121.861716 C108.138669,121.241406 112.068907,120.621097 116,120" id="Stroke-369"/>
                    <path d="M106,112 L106,149" id="Stroke-371"/>
                    <path d="M96,152 C100.08625,151.601813 104.129512,150.590806 108,149" id="Stroke-373"/>
                    <path d="M97,114 C102.915529,112.188358 109.405114,112.779934 115,110" id="Stroke-375"/>
                    <path d="M55,88 L55,163" id="Stroke-377"/>
                    <path d="M131,9.49946331 C134.448816,6.69368962 137.570157,3.49980227 140.283019,0 C152.122918,0.120332185 163.884396,2.37783176 175.618298,3.93960793 C179.372181,4.44042709 183.126926,4.94039885 186.881671,5.4403706 C191.233625,6.01999887 195.585578,6.59962714 199.938394,7.17925541 C217.989091,9.58335687 236.044098,11.9883057 254,15" id="Stroke-379"/>
                    <path d="M134,10.7950847 C136.90229,8.93386629 139.540814,6.63783334 141.808175,4.00331669 C155.188954,3.89372928 168.591212,6.52294331 181.838819,8.45928211 C185.808204,9.03991862 189.779307,9.62055513 193.710888,10.4265528 C197.645906,11.2343181 201.540542,12.2665608 205.508209,12.8860831 C208.951779,13.4242987 212.433153,13.6487762 215.906794,13.9183258 C228.681855,14.9072638 241.420831,16.5015838 254,19" id="Stroke-381"/>
                    <path d="M164,20 C172.391718,23.182534 181.033133,25.7309413 189.821939,27.6154707 C189.726568,31.4397817 190.079439,35.1748389 189.983201,39" id="Stroke-383"/>
                    <path d="M148.4271,51.5426175 C148.333038,53.1156171 148.484055,55.9593805 148.38913,57.53238 C144.199482,57.0790265 141.137717,55.5489581 136.999847,56.284799 C132.657456,57.0567022 126.716009,58.4785839 122.42367,59.4857501 C113.952038,61.4734652 106.868902,63.1546514 97.5636553,65.5442026 C85.6453806,68.605198 74.1119838,72.0611605 62.0219809,75.1728146 C58.9265605,75.9687593 56.1676926,76.9398633 53.0498353,77.6422179 C49.8655305,78.3591691 45.0631846,78.5205905 42.1567513,80 C41.9876121,78.859747 41.9548198,77.6997457 42.0609633,76.5526238 C51.8054539,74.3365146 61.5206039,72.9429675 71.1477326,70.2683531 C91.0405767,64.7405304 111.401143,60.6620653 131.300027,55.1548496 C143.167388,51.8706119 155.558562,50.6015653 167.268002,46.8004359 C174.743783,44.3731052 181.974485,40.5427826 189.835144,40.359037 C193.486308,40.2731746 196.375482,37.4946666 199.862684,36.4145174 C204.48985,34.9806149 209.125646,33.5449952 213.866722,32.5429807 C219.981622,31.2507513 226.34678,30.6540075 232,28" id="Stroke-385"/>
                    <path d="M259,86 C261.357225,86.1209677 263.703699,86.4560932 266,87" id="Stroke-387"/>
                    <path d="M269,89.0007286 C271.37422,88.9820855 273.7518,89.3213903 276,90" id="Stroke-389"/>
                    <path d="M283,94 C285.014899,94.066 287.02454,94.329 289,94.786" id="Stroke-391"/>
                    <path d="M293,97 C295.039328,97.0125786 297.076198,97.3522013 299,98" id="Stroke-393"/>
                    <path d="M259,128 C261.023726,128.219097 263.029877,128.553664 265,129" id="Stroke-395"/>
                    <path d="M269,130 C271.398867,130.74876 273.743528,131.753388 276,133" id="Stroke-397"/>
                    <path d="M283,134 C284.68259,134.063 286.360757,134.313 288,134.747" id="Stroke-399"/>
                    <path d="M293,136 C294.966492,136.477403 296.975168,136.812654 299,137" id="Stroke-401"/>
                    <path d="M260,134 C261.66693,134.301 263.333861,134.603 265,134.905" id="Stroke-403"/>
                    <path d="M269,136 C271.389709,136.125074 273.751992,136.463127 276,137" id="Stroke-405"/>
                    <path d="M282,139 C284.332739,139.333651 286.665478,139.666349 289,140" id="Stroke-407"/>
                    <path d="M293,142 L299,143" id="Stroke-409"/>
                    <path d="M259,175 C261.000307,175.666667 262.999693,176.333333 265,177" id="Stroke-411"/>
                    <path d="M269,177 C271.301145,177.478397 273.642374,177.81304 276,178" id="Stroke-413"/>
                    <path d="M283,181 C285,181.279 286.9991,181.558 289,181.837" id="Stroke-415"/>
                    <path d="M294,182 C295.65,182.366 297.323333,182.586 299,182.66" id="Stroke-417"/>
                    <path d="M259,182 C260.566142,182.681864 262.285039,183.025493 264,182.998527" id="Stroke-419"/>
                    <path d="M270,184 C272.669682,184.193 275.33665,184.44 278,184.741" id="Stroke-421"/>
                    <path d="M282,186 C283.991217,186.364 285.992973,186.652 288,186.864" id="Stroke-423"/>
                    <path d="M294,188 L299,188.968" id="Stroke-425"/>
                    <path d="M259,225 C260.983659,225.381 262.989203,225.613 265,225.694" id="Stroke-427"/>
                    <path d="M269,226 C271.653919,226.412201 274.322957,226.74526 277,227" id="Stroke-429"/>
                    <path d="M282,227 C284.337287,227.053 286.671836,227.188 289,227.407" id="Stroke-431"/>
                    <path d="M294,228 L298,228.636" id="Stroke-433"/>
                    <path d="M260,230 C261.666953,230.194 263.333906,230.39 265,230.585" id="Stroke-435"/>
                    <path d="M270,231 C271.999181,231.333016 274,231.666032 276,232" id="Stroke-437"/>
                    <path d="M282,232 C284.333333,232.182 286.667561,232.363 289,232.545" id="Stroke-439"/>
                    <path d="M292,233 C294.005326,233.182 296.006658,233.435 298,233.758" id="Stroke-441"/>
                    <path d="M260,271 C261.311611,271.393 262.652093,271.642 264,271.741" id="Stroke-443"/>
                    <path d="M271,272 C273.000285,272.117 274.999715,272.234 277,272.352" id="Stroke-445"/>
                    <path d="M283,273 C284.634039,273.52 286.314651,273.805 288,273.846" id="Stroke-447"/>
                    <path d="M293,273 C295.0003,273.158 296.9997,273.315 299,273.473" id="Stroke-449"/>
                    <path d="M172,345 C172.261,347 172.522,349.00092 172.783,351" id="Stroke-451"/>
                    <path d="M147,281 L147,309" id="Stroke-453"/>
                    <polyline id="Stroke-455" points="134 282 134 307.571342 134.167 322"/>
                    <path d="M147,309 L147,319" id="Stroke-457"/>
                    <path d="M73,284 L72.1652336,284 L59.2196756,284 C58.8164834,283.538764 59.0602352,282.417122 59.2263538,281.816117 L59.2263538,252" id="Stroke-459"/>
                    <path d="M62,284 L62,308" id="Stroke-461"/>
                    <path d="M64,316.441 C66.0035239,316.27 68.0113418,316.17 70.0148657,316 L122,316" id="Stroke-463"/>
                    <path d="M70,67 L70,71" id="Stroke-465"/>
                    <path d="M74,65 L74,69" id="Stroke-467"/>
                    <polyline id="Stroke-469" points="137 53 137 56.0733024 137 59"/>
                    <path d="M149,58 L149,89" id="Stroke-471"/>
                    <path d="M10,240 L10,298" id="Stroke-473"/>
                    <path d="M36,264 L36,292" id="Stroke-475"/>
                </g>
            </g>
        </g>
    </g>
</svg>