<svg xmlns:dc="http://purl.org/dc/elements/1.1/" xmlns:cc="http://creativecommons.org/ns#" xmlns:rdf="http://www.w3.org/1999/02/22-rdf-syntax-ns#" xmlns:svg="http://www.w3.org/2000/svg" xmlns="http://www.w3.org/2000/svg" viewBox="0 0 813.54669 227.77333" height="227.77333" width="813.54669" xml:space="preserve" id="svg2" version="1.1"><metadata id="metadata8"><rdf:RDF><cc:Work rdf:about=""><dc:format>image/svg+xml</dc:format><dc:type rdf:resource="http://purl.org/dc/dcmitype/StillImage"/></cc:Work></rdf:RDF></metadata><defs id="defs6"/><g transform="matrix(1.3333333,0,0,-1.3333333,0,227.77333)" id="g10"><g transform="scale(0.1)" id="g12"><path id="path14" style="fill:#fff;fill-opacity:1;fill-rule:nonzero;stroke:none" d="m 2536.91,1386.64 c -26.28,-35.04 -67.05,-55.15 -111.84,-55.15 -76.73,0 -139.16,58.74 -139.16,130.95 0,78.25 58.31,135.05 138.65,135.05 39.49,0 77.06,-15.47 103.07,-42.44 l 9.43,-9.78 52.16,61.1 -8.06,8.05 c -41.4,41.4 -96.83,64.21 -156.09,64.21 -120.62,0 -218.75,-93.99 -218.75,-209.52 0,-122.37 95.86,-218.23 218.24,-218.23 63.7,0 124.14,26.76 165.81,73.43 l 6.66,7.47 -50.17,68.13 -9.95,-13.27"/><path id="path16" style="fill:#fff;fill-opacity:1;fill-rule:nonzero;stroke:none" d="m 2902.51,1396.71 h -50.61 c -28.47,0 -52.97,-2.88 -72.17,-8.33 l 59.96,129.73 z M 2770.78,1674 2797.23,1614.65 2625.3,1259.6 h 87.58 l 13.23,24.37 c 4.5,8.2 33.49,31.61 105.25,31.61 h 108.6 l 25.15,-55.98 h 90.09 L 2859.19,1674 h -88.41"/><path id="path18" style="fill:#fff;fill-opacity:1;fill-rule:nonzero;stroke:none" d="m 3259.52,1514.82 c -69.32,0 -69.32,23.96 -69.32,31.83 0,27.08 31.19,50.84 66.76,50.84 44.77,0 71.83,-10.31 111.36,-42.43 l 9.35,-7.6 50.22,59.08 -8.32,8.03 c -45.22,43.7 -96.9,64.06 -162.61,64.06 -84.67,0 -153.54,-59.44 -153.54,-132.49 0,-41.62 19.94,-111.43 153.54,-111.43 62.94,0 101.16,-3.11 101.16,-46.21 0,-39.17 -52.44,-57.01 -101.16,-57.01 -41.69,0 -77.05,18.2 -108.11,55.63 l -8.36,10.06 -57.79,-54.08 6.86,-8.87 c 39.75,-51.42 103.89,-83.35 167.4,-83.35 107.93,0 183.32,56.59 183.32,137.62 0,89.72 -52.37,126.32 -180.76,126.32"/><path id="path20" style="fill:#fff;fill-opacity:1;fill-rule:nonzero;stroke:none" d="m 3777.96,1545.63 c 0,-29.13 -13.62,-42.11 -44.16,-42.11 h -67.79 c -19.69,0 -40.35,-1.21 -60.59,-8.49 v 91.68 h 128.38 c 32.19,0 44.16,-11.14 44.16,-41.08 z m -44.16,121.7 h -209 V 1259.6 h 80.62 v 152.01 c 16.49,7.34 35.98,10.78 60.59,10.78 h 67.79 c 74.32,0 124.26,49.52 124.26,123.24 0,73.93 -48.78,121.7 -124.26,121.7"/><path id="path22" style="fill:#fff;fill-opacity:1;fill-rule:nonzero;stroke:none" d="m 4011.14,1667.33 h -79.59 V 1259.6 h 79.59 v 407.73"/><path id="path24" style="fill:#fff;fill-opacity:1;fill-rule:nonzero;stroke:none" d="m 4346.44,1396.71 h -50.61 c -28.48,0 -52.98,-2.88 -72.18,-8.33 l 59.96,129.73 z m 62.6,-137.11 h 90.08 l -196,414.4 h -88.41 l 26.45,-59.35 -171.94,-355.05 h 87.59 l 13.23,24.37 c 4.49,8.2 33.48,31.61 105.25,31.61 h 108.59 l 25.16,-55.98"/><path id="path26" style="fill:#fff;fill-opacity:1;fill-rule:nonzero;stroke:none" d="m 4920.82,1259.6 v 407.73 h -81.14 v -271.2 l -227.9,271.2 h -104.36 l 58.56,-70.69 V 1259.6 h 79.6 v 241.75 l 201.68,-241.75 h 73.56"/><path id="path28" style="fill:#fff;fill-opacity:1;fill-rule:nonzero;stroke:none" d="m 3617.44,898.602 c -69.33,0 -69.33,23.961 -69.33,31.836 0,27.082 31.2,50.835 66.76,50.835 44.77,0 71.83,-10.308 111.36,-42.429 l 9.36,-7.598 50.21,59.074 -8.32,8.035 c -45.23,43.705 -96.9,64.055 -162.61,64.055 -84.66,0 -153.54,-59.43 -153.54,-132.484 0,-41.617 19.95,-111.434 153.54,-111.434 62.94,0 101.16,-3.109 101.16,-46.215 0,-39.164 -52.44,-57 -101.16,-57 -41.68,0 -77.04,18.196 -108.11,55.629 l -8.36,10.067 -57.79,-54.09 6.86,-8.871 c 39.76,-51.41 103.9,-83.352 167.4,-83.352 107.94,0 183.32,56.59 183.32,137.617 0,89.727 -52.37,126.325 -180.75,126.325"/><path id="path30" style="fill:#fff;fill-opacity:1;fill-rule:nonzero;stroke:none" d="m 3963.33,801.547 c 20.31,8.973 41.6,10.273 60.08,10.273 h 96.03 v 81.645 h -96.03 c -19.39,0 -39.73,-0.75 -60.08,-8 v 84.515 h 213.62 v 81.14 H 3882.71 V 643.391 h 316.84 v 80.621 h -236.22 v 77.535"/><path id="path32" style="fill:#fff;fill-opacity:1;fill-rule:nonzero;stroke:none" d="m 4542.72,928.898 c 0,-11.429 0,-46.21 -52.89,-46.21 h -72.92 c -19.39,0 -39.73,-0.754 -60.08,-8.008 v 95.812 h 133 c 47.41,0 52.89,-23.738 52.89,-41.594 z m 66.75,-204.375 c -17.94,0 -23.59,2.981 -46.82,37.012 l -23.01,47.215 c 53.79,18.445 83.19,59.535 83.19,117.066 0,76.114 -52.21,125.304 -133,125.304 H 4276.21 V 643.391 h 80.62 v 148.402 c 20.3,8.973 41.6,10.27 60.08,10.27 h 36.89 l 43.42,-91.118 c 32.63,-67.554 84.48,-67.554 130.23,-67.554 h 12.32 v 82.168 l -24.9,-1.036 h -5.4"/><path id="path34" style="fill:#fff;fill-opacity:1;fill-rule:nonzero;stroke:none" d="m 4876.49,750.832 -122.71,300.288 h -87.29 l 168.34,-407.729 h 82.68 l 171.07,407.729 h -88.41 L 4876.49,750.832"/><path id="path36" style="fill:#fff;fill-opacity:1;fill-rule:nonzero;stroke:none" d="m 5151.23,643.391 h 79.59 v 407.729 h -79.59 V 643.391"/><path id="path38" style="fill:#fff;fill-opacity:1;fill-rule:nonzero;stroke:none" d="m 5649.39,770.43 c -26.29,-35.051 -67.06,-55.153 -111.85,-55.153 -76.73,0 -139.16,58.746 -139.16,130.95 0,78.253 58.31,135.046 138.65,135.046 39.5,0 77.07,-15.468 103.08,-42.441 l 9.42,-9.777 52.16,61.097 -8.05,8.055 c -41.41,41.403 -96.84,64.203 -156.1,64.203 -120.62,0 -218.75,-93.984 -218.75,-209.508 0,-122.382 95.86,-218.242 218.24,-218.242 63.7,0 124.14,26.762 165.81,73.442 l 6.67,7.457 -50.17,68.14 -9.95,-13.269"/><path id="path40" style="fill:#fff;fill-opacity:1;fill-rule:nonzero;stroke:none" d="m 5860.08,724.012 v 77.535 c 20.31,8.973 41.6,10.273 60.08,10.273 h 96.03 v 81.645 h -96.03 c -19.39,0 -39.73,-0.75 -60.08,-8 v 84.515 h 213.62 v 81.14 H 5779.46 V 643.391 h 316.83 v 80.621 h -236.21"/><path id="path42" style="fill:#fff;fill-opacity:1;fill-rule:nonzero;stroke:none" d="M 44.9688,4.85156 C 44.0586,4.03906 42.0938,3.64063 39.0625,3.64063 H 6.96484 C 4.54297,3.64063 2.77344,4.08984 1.66406,5 0.554688,5.91016 0,7.57813 0,10 v 199.25 c 0,2.422 0.554688,4.09 1.66406,5 1.10938,0.91 2.87891,1.359 5.30078,1.359 H 39.0625 c 3.0313,0 4.9961,-0.41 5.9063,-1.211 0.9062,-0.808 1.3593,-2.527 1.3593,-5.148 V 10 c 0,-2.62891 -0.4531,-4.35156 -1.3593,-5.14844"/><path id="path44" style="fill:#fff;fill-opacity:1;fill-rule:nonzero;stroke:none" d="M 132.934,135.359 V 10 c 0,-2.62891 -0.454,-4.35156 -1.364,-5.14844 -0.906,-0.8125 -2.777,-1.21093 -5.601,-1.21093 H 94.1719 c -2.418,0 -4.1914,0.44921 -5.2969,1.35937 -1.1094,0.91016 -1.6641,2.57813 -1.6641,5 v 184.711 c 0,7.879 1.4102,13.379 4.2383,16.508 2.8242,3.133 7.9727,4.691 15.4458,4.691 h 12.718 c 3.024,0 5.602,-0.148 7.719,-0.449 2.121,-0.301 3.984,-0.961 5.602,-1.973 1.617,-1.008 3.129,-2.418 4.543,-4.238 1.41,-1.82 3.027,-4.141 4.843,-6.961 l 51.481,-78.43 26.043,-40.8785 h 1.511 V 209.559 c 0,2.421 0.458,4.082 1.364,4.992 0.91,0.91 2.773,1.359 5.605,1.359 h 31.793 c 4.645,0 6.969,-2.121 6.969,-6.351 V 24.5313 c 0,-6.461 -1.32,-11.5625 -3.938,-15.29302 C 260.52,5.5 255.273,3.64063 247.402,3.64063 h -12.718 c -3.032,0 -5.602,0.14843 -7.723,0.44921 -2.121,0.30079 -3.992,0.96094 -5.606,1.96875 -1.613,1.01172 -3.128,2.3711 -4.539,4.08981 -1.414,1.711 -3.027,3.9805 -4.847,6.8125 L 163.52,90.2383 134.449,135.359 h -1.515"/><path id="path46" style="fill:#fff;fill-opacity:1;fill-rule:nonzero;stroke:none" d="M 448.648,176.238 H 393.84 V 10 c 0,-2.62891 -0.453,-4.35156 -1.363,-5.14844 -0.907,-0.8125 -2.879,-1.21093 -5.903,-1.21093 h -32.402 c -2.426,0 -4.192,0.44921 -5.301,1.35937 -1.113,0.91016 -1.668,2.57813 -1.668,5 v 166.238 h -53.598 c -3.835,0 -5.753,2.024 -5.753,6.063 v 26.949 c 0,2.621 0.406,4.34 1.211,5.148 0.804,0.801 2.32,1.211 4.542,1.211 h 155.043 c 2.422,0 4.036,-0.41 4.848,-1.211 0.805,-0.808 1.207,-2.527 1.207,-5.148 v -26.949 c 0,-4.039 -2.019,-6.063 -6.055,-6.063"/><path id="path48" style="fill:#fff;fill-opacity:1;fill-rule:nonzero;stroke:none" d="m 625.16,5.30078 c -0.808,-1.10937 -2.422,-1.66015 -4.844,-1.66015 h -89.632 c -11.313,0 -20.547,1.60937 -27.711,4.83984 -7.168,3.23043 -12.871,7.46873 -17.11,12.71873 -4.242,5.25 -7.168,11.211 -8.785,17.8711 -1.613,6.6602 -2.418,13.418 -2.418,20.2891 V 159.891 c 0,7.269 1.008,14.23 3.028,20.898 2.015,6.66 5.195,12.609 9.535,17.859 4.34,5.25 10.043,9.442 17.113,12.571 7.062,3.133 15.742,4.691 26.043,4.691 h 86.906 c 2.422,0 3.988,-0.5 4.695,-1.512 0.704,-1.007 1.059,-2.929 1.059,-5.757 V 182.91 c 0,-2.629 -0.406,-4.39 -1.211,-5.301 -0.808,-0.91 -2.324,-1.371 -4.543,-1.371 h -76.914 c -7.875,0 -13.125,-1.808 -15.75,-5.449 -2.621,-3.629 -3.933,-8.07 -3.933,-13.32 v -23.321 h 86.91 c 2.418,0 3.98,-0.5 4.691,-1.507 0.707,-1.012 1.059,-2.93 1.059,-5.762 v -23.617 c 0,-2.422 -0.352,-4.1917 -1.059,-5.2932 -0.711,-1.1094 -2.273,-1.668 -4.691,-1.668 h -86.91 V 61.7813 c 0,-7.0704 1.664,-11.8594 4.996,-14.3907 3.332,-2.5195 8.222,-3.7812 14.687,-3.7812 h 79.945 c 2.622,0 4.286,-0.461 4.997,-1.3594 0.703,-0.9102 1.058,-2.8789 1.058,-5.9102 V 10.6016 c 0,-2.42191 -0.406,-4.19144 -1.211,-5.30082"/><path id="path50" style="fill:#fff;fill-opacity:1;fill-rule:nonzero;stroke:none" d="m 769.66,151.41 c 0,2.629 -0.402,5.352 -1.207,8.18 -0.812,2.82 -2.176,5.398 -4.09,7.719 -1.922,2.32 -4.593,4.242 -8.027,5.761 -3.434,1.508 -7.773,2.258 -13.02,2.258 h -41.183 v -48.449 h 40.273 c 8.883,0 15.645,2.281 20.289,6.82 4.641,4.539 6.965,10.449 6.965,17.711 z m 19.383,-48.449 c 6.859,-3.0313 11.703,-7.3204 14.535,-12.8712 2.824,-5.5507 5.149,-11.8593 6.965,-18.9179 l 15.441,-60.5703 c 0.407,-1.21097 0.352,-2.67191 -0.148,-4.39066 -0.508,-1.72266 -1.973,-2.57031 -4.391,-2.57031 h -31.797 c -2.226,0 -4.543,0.25 -6.964,0.75 -2.422,0.50781 -4.141,2.28125 -5.149,5.30078 L 764.211,63.2891 c -2.625,9.8906 -6.512,16.7617 -11.66,20.5898 -5.149,3.8399 -12.262,5.7617 -21.348,5.7617 H 701.832 V 10 c 0,-2.82812 -0.41,-4.60156 -1.215,-5.30078 -0.808,-0.71094 -2.722,-1.05859 -5.754,-1.05859 h -32.398 c -2.422,0 -4.195,0.44921 -5.301,1.35937 -1.109,0.91016 -1.664,2.57813 -1.664,5 v 187.441 c 0,6.059 1.211,10.649 3.637,13.778 2.418,3.133 7.261,4.691 14.535,4.691 h 74.187 c 22,0 39.008,-5.551 51.024,-16.648 12.008,-11.114 18.019,-26.043 18.019,-44.821 0,-10.293 -2.425,-19.98 -7.269,-29.07 -4.848,-9.082 -11.809,-16.051 -20.895,-20.891 l 0.305,-1.519"/><path id="path52" style="fill:#fff;fill-opacity:1;fill-rule:nonzero;stroke:none" d="M 897.629,135.359 V 10 c 0,-2.62891 -0.457,-4.35156 -1.363,-5.14844 -0.911,-0.8125 -2.778,-1.21093 -5.602,-1.21093 h -31.797 c -2.422,0 -4.191,0.44921 -5.301,1.35937 -1.109,0.91016 -1.664,2.57813 -1.664,5 v 184.711 c 0,7.879 1.411,13.379 4.243,16.508 2.82,3.133 7.968,4.691 15.441,4.691 h 12.719 c 3.027,0 5.601,-0.148 7.718,-0.449 2.125,-0.301 3.989,-0.961 5.606,-1.973 1.613,-1.008 3.129,-2.418 4.539,-4.238 1.41,-1.82 3.031,-4.141 4.848,-6.961 l 51.476,-78.43 26.047,-40.8785 h 1.512 V 209.559 c 0,2.421 0.453,4.082 1.359,4.992 0.914,0.91 2.778,1.359 5.606,1.359 h 31.794 c 4.64,0 6.97,-2.121 6.97,-6.351 V 24.5313 c 0,-6.461 -1.32,-11.5625 -3.94,-15.29302 -2.63,-3.73828 -7.87,-5.59765 -15.75,-5.59765 h -12.715 c -3.027,0 -5.602,0.14843 -7.723,0.44921 -2.117,0.30079 -3.988,0.96094 -5.601,1.96875 -1.617,1.01172 -3.133,2.3711 -4.543,4.08981 -1.414,1.711 -3.028,3.9805 -4.844,6.8125 l -48.449,73.2774 -29.07,45.1207 h -1.516"/><path id="path54" style="fill:#fff;fill-opacity:1;fill-rule:nonzero;stroke:none" d="m 1123.2,85.1016 h 47.54 l -11.51,38.5974 -11.2,43.461 h -1.82 l -11.51,-43.461 z m 58.44,-37.25 H 1112.3 L 1100.48,9.39063 C 1099.88,7.37109 1099.02,5.91016 1097.91,5 1096.8,4.08984 1094.83,3.64063 1092,3.64063 h -35.42 c -2.23,0 -3.59,0.59765 -4.09,1.80859 -0.51,1.22266 -0.56,2.62891 -0.15,4.24219 l 62.98,189.86759 c 1.01,3.429 2.17,6.211 3.49,8.332 1.31,2.121 2.82,3.781 4.54,4.988 1.71,1.211 3.73,2.07 6.05,2.582 2.32,0.5 5,0.758 8.03,0.758 h 18.17 c 3.43,0 6.36,-0.149 8.78,-0.457 2.42,-0.301 4.54,-1.063 6.36,-2.274 1.81,-1.207 3.38,-2.929 4.69,-5.148 1.31,-2.219 2.57,-5.149 3.79,-8.781 L 1242.2,9.69141 c 0.41,-1.21094 0.41,-2.51953 0,-3.92969 -0.4,-1.42188 -1.71,-2.12109 -3.93,-2.12109 h -36.04 c -2.22,0 -4.09,0.25 -5.6,0.75 -1.51,0.50781 -2.57,1.87109 -3.18,4.08984 l -11.81,39.37113"/><path id="path56" style="fill:#fff;fill-opacity:1;fill-rule:nonzero;stroke:none" d="m 1385.47,176.238 h -54.81 V 10 c 0,-2.62891 -0.46,-4.35156 -1.37,-5.14844 -0.9,-0.8125 -2.87,-1.21093 -5.9,-1.21093 h -32.4 c -2.43,0 -4.19,0.44921 -5.3,1.35937 -1.12,0.91016 -1.67,2.57813 -1.67,5 v 166.238 h -53.6 c -3.83,0 -5.75,2.024 -5.75,6.063 v 26.949 c 0,2.621 0.4,4.34 1.21,5.148 0.81,0.801 2.32,1.211 4.54,1.211 h 155.05 c 2.42,0 4.03,-0.41 4.84,-1.211 0.81,-0.808 1.21,-2.527 1.21,-5.148 v -26.949 c 0,-4.039 -2.02,-6.063 -6.05,-6.063"/><path id="path58" style="fill:#fff;fill-opacity:1;fill-rule:nonzero;stroke:none" d="m 1458.89,4.85156 c -0.9,-0.8125 -2.87,-1.21093 -5.9,-1.21093 h -32.1 c -2.42,0 -4.19,0.44921 -5.3,1.35937 -1.11,0.91016 -1.66,2.57813 -1.66,5 v 199.25 c 0,2.422 0.55,4.09 1.66,5 1.11,0.91 2.88,1.359 5.3,1.359 h 32.1 c 3.03,0 5,-0.41 5.9,-1.211 0.91,-0.808 1.37,-2.527 1.37,-5.148 V 10 c 0,-2.62891 -0.46,-4.35156 -1.37,-5.14844"/><path id="path60" style="fill:#fff;fill-opacity:1;fill-rule:nonzero;stroke:none" d="m 1633.2,109.32 c 0,9.09 -0.66,17.758 -1.97,26.039 -1.32,8.282 -3.68,15.551 -7.12,21.813 -3.43,6.25 -8.07,11.25 -13.93,14.988 -5.85,3.731 -13.42,5.602 -22.71,5.602 -7.67,0 -14.38,-1.774 -20.14,-5.301 -5.75,-3.531 -10.54,-8.332 -14.38,-14.383 -3.84,-6.058 -6.66,-13.129 -8.48,-21.199 -1.81,-8.078 -2.72,-16.66 -2.72,-25.738 0,-10.711 0.75,-20.2894 2.27,-28.7699 1.51,-8.4805 4.03,-15.75 7.57,-21.8008 3.53,-6.0586 8.22,-10.6992 14.08,-13.9297 5.85,-3.2304 13.22,-4.8515 22.1,-4.8515 8.68,0 15.95,1.8711 21.81,5.6015 5.85,3.7383 10.49,8.6797 13.93,14.8399 3.43,6.1601 5.9,13.3281 7.42,21.5 1.51,8.1797 2.27,16.6995 2.27,25.5895 z m 48.15,0.91 c 0,-17.3589 -1.87,-32.8081 -5.61,-46.3316 -3.73,-13.5273 -9.53,-25.039 -17.41,-34.5195 -7.87,-9.4883 -17.77,-16.707 -29.67,-21.64843 -11.92,-4.94922 -26.04,-7.421876 -42.4,-7.421876 -31.29,0 -54.56,9.480466 -69.8,28.460906 -15.24,18.9688 -22.86,45.8321 -22.86,80.5505 0,16.961 2.17,32.25 6.51,45.879 4.34,13.629 10.55,25.129 18.62,34.52 8.07,9.39 17.87,16.601 29.38,21.652 11.5,5.051 24.52,7.57 39.06,7.57 15.75,0 29.53,-2.519 41.33,-7.57 11.82,-5.051 21.6,-12.262 29.38,-21.652 7.77,-9.391 13.62,-20.789 17.56,-34.219 3.94,-13.43 5.91,-28.52 5.91,-45.27"/><path id="path62" style="fill:#fff;fill-opacity:1;fill-rule:nonzero;stroke:none" d="M 1758.47,135.359 V 10 c 0,-2.62891 -0.45,-4.35156 -1.36,-5.14844 -0.91,-0.8125 -2.78,-1.21093 -5.6,-1.21093 h -31.8 c -2.42,0 -4.19,0.44921 -5.3,1.35937 -1.11,0.91016 -1.66,2.57813 -1.66,5 v 184.711 c 0,7.879 1.41,13.379 4.24,16.508 2.82,3.133 7.97,4.691 15.44,4.691 h 12.72 c 3.03,0 5.6,-0.148 7.72,-0.449 2.12,-0.301 3.98,-0.961 5.6,-1.973 1.62,-1.008 3.13,-2.418 4.54,-4.238 1.41,-1.82 3.03,-4.141 4.85,-6.961 l 51.48,-78.43 26.04,-40.8785 h 1.51 V 209.559 c 0,2.421 0.46,4.082 1.37,4.992 0.91,0.91 2.77,1.359 5.6,1.359 h 31.79 c 4.65,0 6.97,-2.121 6.97,-6.351 V 24.5313 c 0,-6.461 -1.32,-11.5625 -3.94,-15.29302 -2.62,-3.73828 -7.87,-5.59765 -15.74,-5.59765 h -12.72 c -3.03,0 -5.6,0.14843 -7.72,0.44921 -2.12,0.30079 -3.99,0.96094 -5.61,1.96875 -1.61,1.01172 -3.13,2.3711 -4.54,4.08981 -1.41,1.711 -3.02,3.9805 -4.84,6.8125 l -48.45,73.2774 -29.07,45.1207 h -1.52"/><path id="path64" style="fill:#fff;fill-opacity:1;fill-rule:nonzero;stroke:none" d="m 1984.04,85.1016 h 47.54 l -11.51,38.5974 -11.2,43.461 h -1.82 l -11.51,-43.461 z m 58.44,-37.25 h -69.34 L 1961.32,9.39063 c -0.6,-2.01954 -1.46,-3.48047 -2.57,-4.39063 -1.11,-0.91016 -3.08,-1.35937 -5.9,-1.35937 h -35.43 c -2.23,0 -3.59,0.59765 -4.09,1.80859 -0.51,1.22266 -0.56,2.62891 -0.15,4.24219 l 62.98,189.86759 c 1.01,3.429 2.17,6.211 3.49,8.332 1.31,2.121 2.82,3.781 4.54,4.988 1.71,1.211 3.73,2.07 6.05,2.582 2.32,0.5 5,0.758 8.03,0.758 h 18.17 c 3.43,0 6.36,-0.149 8.78,-0.457 2.42,-0.301 4.54,-1.063 6.36,-2.274 1.81,-1.207 3.38,-2.929 4.69,-5.148 1.31,-2.219 2.57,-5.149 3.79,-8.781 L 2103.04,9.69141 c 0.41,-1.21094 0.41,-2.51953 0,-3.92969 -0.4,-1.42188 -1.71,-2.12109 -3.93,-2.12109 h -36.04 c -2.22,0 -4.09,0.25 -5.6,0.75 -1.51,0.50781 -2.57,1.87109 -3.18,4.08984 l -11.81,39.37113"/><path id="path66" style="fill:#fff;fill-opacity:1;fill-rule:nonzero;stroke:none" d="m 2147.08,8.48047 c -7.17,3.23043 -12.88,7.46873 -17.12,12.71873 -4.24,5.25 -7.16,11.211 -8.78,17.8711 -1.61,6.6602 -2.42,13.418 -2.42,20.2891 V 209.559 c 0,2.421 0.56,4.082 1.67,4.992 1.1,0.91 2.87,1.359 5.29,1.359 h 32.1 c 3.03,0 5,-0.398 5.91,-1.211 0.91,-0.808 1.36,-2.519 1.36,-5.14 V 62.6914 c 0,-7.6797 1.87,-12.8203 5.61,-15.4531 3.73,-2.6172 8.63,-3.9297 14.68,-3.9297 h 76.92 c 2.21,0 3.73,-0.3594 4.54,-1.0586 0.8,-0.7109 1.21,-2.4805 1.21,-5.3008 V 10 c 0,-4.23828 -1.92,-6.35937 -5.75,-6.35937 h -87.52 c -11.31,0 -20.54,1.60937 -27.7,4.83984"/><path id="path68" style="fill:#fff;fill-opacity:1;fill-rule:nonzero;stroke:none" d="m 2469.42,42.1016 c 9.69,0 18.27,1.1484 25.74,3.4765 7.46,2.3203 14.43,4.6914 20.89,7.1133 2.83,1.2188 4.85,1.4688 6.06,0.7578 1.21,-0.7109 2.32,-2.1679 3.33,-4.3906 l 10.3,-21.7969 c 1.4,-2.832 1.91,-4.9531 1.51,-6.3633 -0.41,-1.4179 -1.51,-2.6289 -3.33,-3.6289 -10.9,-6.6679 -22.37,-11.16012 -34.37,-13.48044 -12.01,-2.32031 -23.88,-3.480466 -35.58,-3.480466 -16.56,0 -30.84,2.472656 -42.85,7.421876 -12.02,4.94143 -21.91,12.05863 -29.68,21.33983 -7.77,9.2891 -13.53,20.6406 -17.26,34.0703 -3.74,13.418 -5.6,28.5078 -5.6,45.2694 0,16.551 2.37,31.602 7.12,45.121 4.74,13.52 11.35,25.141 19.83,34.828 8.48,9.692 18.72,17.153 30.74,22.411 12,5.242 25.28,7.871 39.82,7.871 10.29,0 20.38,-0.86 30.28,-2.571 9.89,-1.718 19.58,-5.199 29.07,-10.449 2.22,-1.223 3.53,-2.43 3.94,-3.641 0.4,-1.21 -0.11,-3.531 -1.52,-6.96 l -9.39,-20.899 c -1.01,-2.832 -2.07,-4.543 -3.17,-5.141 -1.12,-0.609 -3.09,-0.41 -5.91,0.598 -7.27,2.621 -14.03,4.594 -20.29,5.91 -6.26,1.313 -13.22,1.973 -20.89,1.973 -8.28,0 -15.6,-1.77 -21.96,-5.301 -6.36,-3.539 -11.71,-8.379 -16.05,-14.539 -4.34,-6.16 -7.62,-13.43 -9.84,-21.801 -2.22,-8.379 -3.33,-17.519 -3.33,-27.41 0,-9.8905 0.86,-18.8787 2.57,-26.9491 1.72,-8.0703 4.64,-15.039 8.79,-20.8906 4.13,-5.8594 9.53,-10.3984 16.2,-13.6289 6.66,-3.2305 14.94,-4.8398 24.83,-4.8398"/><path id="path70" style="fill:#fff;fill-opacity:1;fill-rule:nonzero;stroke:none" d="m 2686.99,109.32 c 0,9.09 -0.66,17.758 -1.97,26.039 -1.31,8.282 -3.68,15.551 -7.12,21.813 -3.43,6.25 -8.07,11.25 -13.93,14.988 -5.85,3.731 -13.42,5.602 -22.71,5.602 -7.67,0 -14.38,-1.774 -20.13,-5.301 -5.76,-3.531 -10.55,-8.332 -14.39,-14.383 -3.84,-6.058 -6.66,-13.129 -8.48,-21.199 -1.81,-8.078 -2.72,-16.66 -2.72,-25.738 0,-10.711 0.76,-20.2894 2.27,-28.7699 1.51,-8.4805 4.04,-15.75 7.57,-21.8008 3.53,-6.0586 8.22,-10.6992 14.08,-13.9297 5.85,-3.2304 13.22,-4.8515 22.11,-4.8515 8.67,0 15.94,1.8711 21.8,5.6015 5.85,3.7383 10.49,8.6797 13.93,14.8399 3.43,6.1601 5.9,13.3281 7.42,21.5 1.51,8.1797 2.27,16.6995 2.27,25.5895 z m 48.15,0.91 c 0,-17.3589 -1.87,-32.8081 -5.6,-46.3316 -3.74,-13.5273 -9.54,-25.039 -17.42,-34.5195 -7.87,-9.4883 -17.76,-16.707 -29.67,-21.64843 -11.92,-4.94922 -26.04,-7.421876 -42.4,-7.421876 -31.29,0 -54.56,9.480466 -69.8,28.460906 -15.24,18.9688 -22.86,45.8321 -22.86,80.5505 0,16.961 2.17,32.25 6.51,45.879 4.34,13.629 10.55,25.129 18.63,34.52 8.07,9.39 17.86,16.601 29.37,21.652 11.5,5.051 24.53,7.57 39.06,7.57 15.75,0 29.53,-2.519 41.34,-7.57 11.81,-5.051 21.59,-12.262 29.37,-21.652 7.77,-9.391 13.63,-20.789 17.56,-34.219 3.94,-13.43 5.91,-28.52 5.91,-45.27"/><path id="path72" style="fill:#fff;fill-opacity:1;fill-rule:nonzero;stroke:none" d="M 2812.26,135.359 V 10 c 0,-2.62891 -0.45,-4.35156 -1.36,-5.14844 -0.91,-0.8125 -2.78,-1.21093 -5.6,-1.21093 h -31.8 c -2.42,0 -4.19,0.44921 -5.3,1.35937 -1.11,0.91016 -1.66,2.57813 -1.66,5 v 184.711 c 0,7.879 1.41,13.379 4.24,16.508 2.82,3.133 7.97,4.691 15.44,4.691 h 12.72 c 3.03,0 5.6,-0.148 7.72,-0.449 2.12,-0.301 3.99,-0.961 5.6,-1.973 1.62,-1.008 3.13,-2.418 4.54,-4.238 1.41,-1.82 3.03,-4.141 4.85,-6.961 l 51.48,-78.43 26.04,-40.8785 h 1.52 V 209.559 c 0,2.421 0.45,4.082 1.36,4.992 0.91,0.91 2.77,1.359 5.6,1.359 h 31.8 c 4.64,0 6.96,-2.121 6.96,-6.351 V 24.5313 c 0,-6.461 -1.31,-11.5625 -3.93,-15.29302 C 2939.85,5.5 2934.6,3.64063 2926.73,3.64063 h -12.72 c -3.03,0 -5.6,0.14843 -7.72,0.44921 -2.12,0.30079 -3.99,0.96094 -5.6,1.96875 -1.62,1.01172 -3.14,2.3711 -4.55,4.08981 -1.41,1.711 -3.02,3.9805 -4.84,6.8125 l -48.45,73.2774 -29.07,45.1207 h -1.52"/><path id="path74" style="fill:#fff;fill-opacity:1;fill-rule:nonzero;stroke:none" d="m 2979.6,157.77 c 0,8.48 1.46,16.449 4.39,23.929 2.92,7.461 7.31,13.969 13.17,19.531 5.85,5.551 13.32,9.942 22.41,13.168 9.08,3.231 19.78,4.852 32.1,4.852 5.64,0 11.55,-0.309 17.71,-0.922 6.16,-0.598 12.21,-1.508 18.17,-2.719 5.95,-1.211 11.66,-2.679 17.11,-4.39 5.45,-1.719 10.39,-3.688 14.84,-5.899 2.42,-1.218 3.78,-2.379 4.08,-3.492 0.31,-1.109 -0.05,-3.18 -1.06,-6.199 l -7.87,-22.719 c -1.01,-2.832 -2.02,-4.441 -3.03,-4.84 -1.01,-0.41 -2.72,-0.3 -5.14,0.301 -9.49,2.82 -18.93,5.149 -28.32,6.957 -9.38,1.82 -18.22,2.731 -26.49,2.731 -8.89,0 -15.15,-1.618 -18.78,-4.84 -3.63,-3.239 -5.45,-7.168 -5.45,-11.809 0,-2.629 0.61,-5.051 1.82,-7.269 1.21,-2.231 3.18,-4.391 5.9,-6.512 2.73,-2.117 6.36,-4.289 10.9,-6.508 4.55,-2.23 10.15,-4.652 16.81,-7.269 10.3,-4.043 19.78,-8.133 28.47,-12.262 8.67,-4.141 16.09,-8.84 22.25,-14.09 6.16,-5.25 11,-11.3984 14.54,-18.4687 3.53,-7.0704 5.29,-15.543 5.29,-25.4297 0,-10.711 -1.91,-19.9922 -5.75,-27.8633 -3.84,-7.8789 -9.19,-14.4375 -16.05,-19.6875 -6.86,-5.25 -15.19,-9.19142 -24.98,-11.81252 -9.79,-2.61719 -20.54,-3.929686 -32.25,-3.929686 -6.46,0 -13.22,0.351562 -20.29,1.062496 -7.07,0.70704 -14.08,1.8086 -21.04,3.32813 -6.97,1.51172 -13.78,3.48047 -20.44,5.90238 -6.67,2.4297 -12.83,5.3476 -18.48,8.7773 -1.61,1.0117 -2.57,2.1211 -2.87,3.3399 -0.31,1.2109 0.05,3.121 1.06,5.75 l 10.29,24.2226 c 1.01,2.4297 2.12,3.8399 3.33,4.2383 1.22,0.4101 2.93,0.1016 5.15,-0.8984 4.04,-1.6211 8.48,-3.293 13.33,-5 4.84,-1.7227 9.84,-3.2305 14.98,-4.543 5.15,-1.3164 10.4,-2.418 15.75,-3.3399 5.35,-0.8984 10.65,-1.3593 15.9,-1.3593 6.25,0 11.51,0.6093 15.75,1.8203 4.24,1.2109 7.67,2.7695 10.29,4.6914 2.62,1.918 4.44,4.1406 5.45,6.668 1.01,2.5195 1.52,5.1914 1.52,8.0195 0,3.0312 -0.56,5.75 -1.67,8.1836 -1.11,2.4179 -2.93,4.789 -5.45,7.1094 -2.52,2.3203 -5.96,4.5468 -10.3,6.6601 -4.34,2.1289 -9.74,4.3984 -16.2,6.8203 -10.7,4.0274 -20.39,8.168 -29.07,12.4103 -8.68,4.238 -16.15,8.937 -22.4,14.078 -6.26,5.148 -11.06,10.91 -14.39,17.27 -3.33,6.351 -4.99,13.769 -4.99,22.25"/><path id="path76" style="fill:#fff;fill-opacity:1;fill-rule:nonzero;stroke:none" d="m 3303.55,176.238 h -54.81 V 10 c 0,-2.62891 -0.45,-4.35156 -1.36,-5.14844 -0.91,-0.8125 -2.88,-1.21093 -5.91,-1.21093 h -32.4 c -2.42,0 -4.19,0.44921 -5.3,1.35937 -1.11,0.91016 -1.67,2.57813 -1.67,5 v 166.238 h -53.59 c -3.84,0 -5.76,2.024 -5.76,6.063 v 26.949 c 0,2.621 0.41,4.34 1.21,5.148 0.81,0.801 2.32,1.211 4.55,1.211 h 155.04 c 2.42,0 4.03,-0.41 4.85,-1.211 0.8,-0.808 1.21,-2.527 1.21,-5.148 v -26.949 c 0,-4.039 -2.03,-6.063 -6.06,-6.063"/><path id="path78" style="fill:#fff;fill-opacity:1;fill-rule:nonzero;stroke:none" d="m 3444.39,151.41 c 0,2.629 -0.41,5.352 -1.21,8.18 -0.82,2.82 -2.18,5.398 -4.09,7.719 -1.93,2.32 -4.6,4.242 -8.03,5.761 -3.43,1.508 -7.77,2.258 -13.02,2.258 h -41.18 v -48.449 h 40.27 c 8.88,0 15.64,2.281 20.29,6.82 4.64,4.539 6.97,10.449 6.97,17.711 z m 19.38,-48.449 c 6.86,-3.0313 11.7,-7.3204 14.53,-12.8712 2.83,-5.5507 5.15,-11.8593 6.97,-18.9179 l 15.44,-60.5703 c 0.4,-1.21097 0.35,-2.67191 -0.15,-4.39066 -0.51,-1.72266 -1.97,-2.57031 -4.39,-2.57031 h -31.8 c -2.22,0 -4.54,0.25 -6.96,0.75 -2.43,0.50781 -4.14,2.28125 -5.15,5.30078 l -13.32,53.59769 c -2.63,9.8906 -6.52,16.7617 -11.66,20.5898 -5.15,3.8399 -12.27,5.7617 -21.35,5.7617 h -29.37 V 10 c 0,-2.82812 -0.41,-4.60156 -1.22,-5.30078 -0.81,-0.71094 -2.72,-1.05859 -5.75,-1.05859 h -32.4 c -2.42,0 -4.19,0.44921 -5.3,1.35937 -1.11,0.91016 -1.67,2.57813 -1.67,5 v 187.441 c 0,6.059 1.21,10.649 3.64,13.778 2.42,3.133 7.26,4.691 14.53,4.691 h 74.19 c 22.01,0 39.01,-5.551 51.03,-16.648 12,-11.114 18.02,-26.043 18.02,-44.821 0,-10.293 -2.43,-19.98 -7.27,-29.07 -4.85,-9.082 -11.81,-16.051 -20.9,-20.891 l 0.31,-1.519"/><path id="path80" style="fill:#fff;fill-opacity:1;fill-rule:nonzero;stroke:none" d="m 3696.27,33.0117 c 0,-7.0703 -1.57,-13.1211 -4.7,-18.1719 -3.13,-5.05074 -8.93,-8.67964 -17.41,-10.89839 -4.04,-1.01172 -8.47,-1.76172 -13.32,-2.26953 -4.85,-0.5 -9.69,-0.863286 -14.54,-1.062505 -4.84,-0.199219 -9.38,-0.347656 -13.62,-0.460937 C 3628.44,0.0507813 3625,0 3622.38,0 c -17.36,0 -32.25,1.46875 -44.67,4.39063 -12.41,2.92968 -22.56,7.92967 -30.43,14.98827 -7.87,7.0703 -13.62,16.4609 -17.26,28.1719 -3.63,11.6992 -5.45,26.4375 -5.45,44.2109 l -0.3,117.4883 c 0,2.422 0.6,4.09 1.81,5 1.21,0.91 2.93,1.359 5.15,1.359 h 32.4 c 3.03,0 5,-0.41 5.91,-1.211 0.91,-0.808 1.36,-2.527 1.36,-5.148 V 89.0313 c 0,-8.2813 0.71,-15.4922 2.12,-21.6524 1.41,-6.1601 3.94,-11.2578 7.57,-15.2891 3.63,-4.039 8.53,-7.0195 14.69,-8.9414 6.15,-1.9101 14.08,-2.8671 23.77,-2.8671 1.41,0 3.33,0.0468 5.75,0.1484 2.42,0.1016 5.1,0.1992 8.03,0.3008 2.92,0.0976 5.95,0.3086 9.08,0.6093 3.13,0.3008 6.01,0.7618 8.63,1.3594 V 209.25 c 0,2.422 0.55,4.09 1.67,5 1.11,0.91 2.87,1.359 5.3,1.359 h 32.1 c 3.02,0 4.89,-0.41 5.6,-1.211 0.7,-0.808 1.06,-2.527 1.06,-5.148 V 33.0117"/><path id="path82" style="fill:#fff;fill-opacity:1;fill-rule:nonzero;stroke:none" d="m 3827.93,42.1016 c 9.69,0 18.27,1.1484 25.74,3.4765 7.47,2.3203 14.43,4.6914 20.9,7.1133 2.82,1.2188 4.84,1.4688 6.05,0.7578 1.21,-0.7109 2.32,-2.1679 3.33,-4.3906 l 10.3,-21.7969 c 1.41,-2.832 1.92,-4.9531 1.51,-6.3633 -0.4,-1.4179 -1.51,-2.6289 -3.33,-3.6289 -10.9,-6.6679 -22.36,-11.16012 -34.37,-13.48044 -12.01,-2.32031 -23.87,-3.480466 -35.58,-3.480466 -16.55,0 -30.84,2.472656 -42.85,7.421876 -12.01,4.94143 -21.9,12.05863 -29.67,21.33983 -7.78,9.2891 -13.53,20.6406 -17.26,34.0703 -3.74,13.418 -5.6,28.5078 -5.6,45.2694 0,16.551 2.36,31.602 7.11,45.121 4.74,13.52 11.35,25.141 19.83,34.828 8.48,9.692 18.73,17.153 30.74,22.411 12.01,5.242 25.29,7.871 39.82,7.871 10.3,0 20.39,-0.86 30.28,-2.571 9.89,-1.718 19.58,-5.199 29.07,-10.449 2.22,-1.223 3.53,-2.43 3.94,-3.641 0.4,-1.21 -0.1,-3.531 -1.51,-6.96 l -9.39,-20.899 c -1.01,-2.832 -2.07,-4.543 -3.18,-5.141 -1.11,-0.609 -3.08,-0.41 -5.91,0.598 -7.26,2.621 -14.03,4.594 -20.28,5.91 -6.26,1.313 -13.23,1.973 -20.9,1.973 -8.28,0 -15.6,-1.77 -21.95,-5.301 -6.36,-3.539 -11.72,-8.379 -16.05,-14.539 -4.35,-6.16 -7.62,-13.43 -9.85,-21.801 -2.22,-8.379 -3.32,-17.519 -3.32,-27.41 0,-9.8905 0.85,-18.8787 2.57,-26.9491 1.71,-8.0703 4.64,-15.039 8.78,-20.8906 4.14,-5.8594 9.54,-10.3984 16.2,-13.6289 6.66,-3.2305 14.94,-4.8398 24.83,-4.8398"/><path id="path84" style="fill:#fff;fill-opacity:1;fill-rule:nonzero;stroke:none" d="m 4067.19,176.238 h -54.81 V 10 c 0,-2.62891 -0.46,-4.35156 -1.36,-5.14844 -0.91,-0.8125 -2.88,-1.21093 -5.91,-1.21093 h -32.4 c -2.43,0 -4.19,0.44921 -5.3,1.35937 -1.11,0.91016 -1.67,2.57813 -1.67,5 v 166.238 h -53.6 c -3.83,0 -5.75,2.024 -5.75,6.063 v 26.949 c 0,2.621 0.4,4.34 1.21,5.148 0.81,0.801 2.32,1.211 4.54,1.211 h 155.05 c 2.42,0 4.03,-0.41 4.84,-1.211 0.81,-0.808 1.21,-2.527 1.21,-5.148 v -26.949 c 0,-4.039 -2.02,-6.063 -6.05,-6.063"/><path id="path86" style="fill:#fff;fill-opacity:1;fill-rule:nonzero;stroke:none" d="m 4140.62,4.85156 c -0.91,-0.8125 -2.88,-1.21093 -5.91,-1.21093 h -32.1 c -2.42,0 -4.19,0.44921 -5.3,1.35937 -1.11,0.91016 -1.66,2.57813 -1.66,5 v 199.25 c 0,2.422 0.55,4.09 1.66,5 1.11,0.91 2.88,1.359 5.3,1.359 h 32.1 c 3.03,0 5,-0.41 5.91,-1.211 0.9,-0.808 1.36,-2.527 1.36,-5.148 V 10 c 0,-2.62891 -0.46,-4.35156 -1.36,-5.14844"/><path id="path88" style="fill:#fff;fill-opacity:1;fill-rule:nonzero;stroke:none" d="m 4314.92,109.32 c 0,9.09 -0.66,17.758 -1.97,26.039 -1.32,8.282 -3.69,15.551 -7.12,21.813 -3.43,6.25 -8.08,11.25 -13.93,14.988 -5.85,3.731 -13.43,5.602 -22.71,5.602 -7.68,0 -14.38,-1.774 -20.14,-5.301 -5.75,-3.531 -10.55,-8.332 -14.38,-14.383 -3.84,-6.058 -6.66,-13.129 -8.48,-21.199 -1.82,-8.078 -2.72,-16.66 -2.72,-25.738 0,-10.711 0.75,-20.2894 2.27,-28.7699 1.51,-8.4805 4.03,-15.75 7.57,-21.8008 3.53,-6.0586 8.22,-10.6992 14.08,-13.9297 5.85,-3.2304 13.22,-4.8515 22.1,-4.8515 8.68,0 15.95,1.8711 21.81,5.6015 5.85,3.7383 10.49,8.6797 13.93,14.8399 3.43,6.1601 5.9,13.3281 7.42,21.5 1.51,8.1797 2.27,16.6995 2.27,25.5895 z m 48.14,0.91 c 0,-17.3589 -1.86,-32.8081 -5.6,-46.3316 -3.74,-13.5273 -9.54,-25.039 -17.41,-34.5195 -7.87,-9.4883 -17.77,-16.707 -29.68,-21.64843 -11.91,-4.94922 -26.04,-7.421876 -42.39,-7.421876 -31.3,0 -54.56,9.480466 -69.8,28.460906 -15.24,18.9688 -22.86,45.8321 -22.86,80.5505 0,16.961 2.17,32.25 6.51,45.879 4.34,13.629 10.54,25.129 18.62,34.52 8.07,9.39 17.87,16.601 29.37,21.652 11.51,5.051 24.53,7.57 39.07,7.57 15.75,0 29.52,-2.519 41.33,-7.57 11.81,-5.051 21.6,-12.262 29.38,-21.652 7.77,-9.391 13.62,-20.789 17.56,-34.219 3.94,-13.43 5.9,-28.52 5.9,-45.27"/><path id="path90" style="fill:#fff;fill-opacity:1;fill-rule:nonzero;stroke:none" d="M 4440.19,135.359 V 10 c 0,-2.62891 -0.46,-4.35156 -1.36,-5.14844 -0.91,-0.8125 -2.78,-1.21093 -5.6,-1.21093 h -31.8 c -2.42,0 -4.19,0.44921 -5.3,1.35937 -1.11,0.91016 -1.66,2.57813 -1.66,5 v 184.711 c 0,7.879 1.41,13.379 4.24,16.508 2.82,3.133 7.97,4.691 15.44,4.691 h 12.72 c 3.02,0 5.6,-0.148 7.72,-0.449 2.12,-0.301 3.98,-0.961 5.6,-1.973 1.61,-1.008 3.13,-2.418 4.54,-4.238 1.41,-1.82 3.03,-4.141 4.85,-6.961 l 51.48,-78.43 26.04,-40.8785 h 1.51 V 209.559 c 0,2.421 0.46,4.082 1.36,4.992 0.92,0.91 2.78,1.359 5.61,1.359 h 31.79 c 4.64,0 6.97,-2.121 6.97,-6.351 V 24.5313 c 0,-6.461 -1.32,-11.5625 -3.94,-15.29302 -2.63,-3.73828 -7.87,-5.59765 -15.74,-5.59765 h -12.72 c -3.03,0 -5.6,0.14843 -7.73,0.44921 -2.11,0.30079 -3.98,0.96094 -5.6,1.96875 -1.61,1.01172 -3.13,2.3711 -4.54,4.08981 -1.41,1.711 -3.03,3.9805 -4.84,6.8125 l -48.45,73.2774 -29.07,45.1207 h -1.52"/><path id="path92" style="fill:#fff;fill-opacity:1;fill-rule:nonzero;stroke:none" d="m 4795.39,42.1016 c 9.69,0 18.27,1.1484 25.74,3.4765 7.47,2.3203 14.43,4.6914 20.9,7.1133 2.82,1.2188 4.84,1.4688 6.05,0.7578 1.21,-0.7109 2.32,-2.1679 3.33,-4.3906 l 10.3,-21.7969 c 1.41,-2.832 1.91,-4.9531 1.51,-6.3633 -0.4,-1.4179 -1.51,-2.6289 -3.33,-3.6289 -10.9,-6.6679 -22.36,-11.16012 -34.37,-13.48044 -12.01,-2.32031 -23.87,-3.480466 -35.58,-3.480466 -16.56,0 -30.84,2.472656 -42.85,7.421876 -12.01,4.94143 -21.91,12.05863 -29.68,21.33983 -7.77,9.2891 -13.52,20.6406 -17.26,34.0703 -3.73,13.418 -5.6,28.5078 -5.6,45.2694 0,16.551 2.37,31.602 7.12,45.121 4.74,13.52 11.35,25.141 19.83,34.828 8.48,9.692 18.72,17.153 30.74,22.411 12.01,5.242 25.28,7.871 39.82,7.871 10.29,0 20.39,-0.86 30.28,-2.571 9.89,-1.718 19.58,-5.199 29.07,-10.449 2.22,-1.223 3.53,-2.43 3.94,-3.641 0.4,-1.21 -0.11,-3.531 -1.52,-6.96 l -9.38,-20.899 c -1.01,-2.832 -2.07,-4.543 -3.18,-5.141 -1.12,-0.609 -3.08,-0.41 -5.91,0.598 -7.26,2.621 -14.03,4.594 -20.29,5.91 -6.25,1.313 -13.22,1.973 -20.89,1.973 -8.28,0 -15.6,-1.77 -21.96,-5.301 -6.35,-3.539 -11.71,-8.379 -16.04,-14.539 -4.35,-6.16 -7.63,-13.43 -9.85,-21.801 -2.22,-8.379 -3.33,-17.519 -3.33,-27.41 0,-9.8905 0.86,-18.8787 2.58,-26.9491 1.71,-8.0703 4.64,-15.039 8.78,-20.8906 4.13,-5.8594 9.54,-10.3984 16.2,-13.6289 6.66,-3.2305 14.94,-4.8398 24.83,-4.8398"/><path id="path94" style="fill:#fff;fill-opacity:1;fill-rule:nonzero;stroke:none" d="m 5012.96,109.32 c 0,9.09 -0.65,17.758 -1.96,26.039 -1.32,8.282 -3.69,15.551 -7.12,21.813 -3.44,6.25 -8.08,11.25 -13.93,14.988 -5.86,3.731 -13.43,5.602 -22.71,5.602 -7.68,0 -14.39,-1.774 -20.14,-5.301 -5.75,-3.531 -10.55,-8.332 -14.38,-14.383 -3.84,-6.058 -6.67,-13.129 -8.48,-21.199 -1.82,-8.078 -2.73,-16.66 -2.73,-25.738 0,-10.711 0.76,-20.2894 2.27,-28.7699 1.51,-8.4805 4.04,-15.75 7.57,-21.8008 3.53,-6.0586 8.23,-10.6992 14.08,-13.9297 5.86,-3.2304 13.22,-4.8515 22.11,-4.8515 8.68,0 15.95,1.8711 21.8,5.6015 5.86,3.7383 10.5,8.6797 13.93,14.8399 3.43,6.1601 5.91,13.3281 7.42,21.5 1.52,8.1797 2.27,16.6995 2.27,25.5895 z m 48.15,0.91 c 0,-17.3589 -1.87,-32.8081 -5.6,-46.3316 -3.74,-13.5273 -9.54,-25.039 -17.41,-34.5195 -7.88,-9.4883 -17.77,-16.707 -29.68,-21.64843 -11.91,-4.94922 -26.04,-7.421876 -42.39,-7.421876 -31.3,0 -54.57,9.480466 -69.81,28.460906 -15.24,18.9688 -22.86,45.8321 -22.86,80.5505 0,16.961 2.17,32.25 6.51,45.879 4.34,13.629 10.55,25.129 18.63,34.52 8.07,9.39 17.86,16.601 29.37,21.652 11.51,5.051 24.53,7.57 39.06,7.57 15.75,0 29.53,-2.519 41.34,-7.57 11.81,-5.051 21.6,-12.262 29.37,-21.652 7.77,-9.391 13.63,-20.789 17.57,-34.219 3.93,-13.43 5.9,-28.52 5.9,-45.27"/><path id="path96" style="fill:#fff;fill-opacity:1;fill-rule:nonzero;stroke:none" d="m 5266.93,125.668 h -1.81 L 5252.7,97.5117 5227.57,41.7891 c -2.23,-5.25 -4.5,-8.7774 -6.82,-10.5977 -2.32,-1.8125 -5.8,-2.7226 -10.44,-2.7226 h -16.66 c -5.05,0 -8.53,0.9101 -10.45,2.7226 -1.92,1.8203 -4.08,5.3477 -6.5,10.5977 l -18.78,39.3711 -18.77,40.8788 h -1.82 V 9.69141 c 0,-2.83203 -0.51,-4.54297 -1.52,-5.14063 -1.01,-0.60937 -2.83,-0.91015 -5.45,-0.91015 h -30.89 c -2.22,0 -3.93,0.30078 -5.14,0.91015 -1.21,0.59766 -1.82,2.3086 -1.82,5.14063 V 194.711 c 0,7.68 1.46,13.129 4.4,16.359 2.93,3.219 7.93,4.84 15.01,4.84 h 17.59 c 5.65,0 9.85,-1.058 12.58,-3.18 2.73,-2.121 5.31,-5.8 7.73,-11.05 l 33.05,-73.891 18.81,-42.9999 h 1.21 l 20.62,47.2419 30.93,69.047 c 2.42,5.453 5.1,9.281 8.03,11.5 2.93,2.223 7.64,3.332 14.11,3.332 h 14.85 c 6.47,0 11.32,-1.359 14.56,-4.082 3.23,-2.726 4.85,-7.93 4.85,-15.598 V 9.69141 c 0,-2.83203 -0.51,-4.54297 -1.52,-5.14063 -1.02,-0.60937 -2.85,-0.91015 -5.49,-0.91015 h -30.19 c -2.23,0 -3.91,0.30078 -5.03,0.91015 -1.12,0.59766 -1.68,2.3086 -1.68,5.14063 V 125.668"/><path id="path98" style="fill:#fff;fill-opacity:1;fill-rule:nonzero;stroke:none" d="m 5465.46,146.57 c 0,2.821 -0.41,5.899 -1.21,9.231 -0.81,3.34 -2.38,6.461 -4.69,9.39 -2.33,2.93 -5.45,5.348 -9.39,7.27 -3.94,1.918 -8.94,2.867 -14.99,2.867 h -39.37 v -57.527 h 39.67 c 10.3,0 17.87,2.769 22.71,8.328 4.85,5.551 7.27,12.359 7.27,20.441 z M 5395.81,10 c 0,-2.82812 -0.45,-4.60156 -1.36,-5.30078 -0.91,-0.71094 -2.88,-1.05859 -5.91,-1.05859 h -31.79 c -2.42,0 -4.19,0.44921 -5.3,1.35937 -1.11,0.91016 -1.66,2.57813 -1.66,5 v 187.441 c 0,5.649 1.21,10.149 3.63,13.481 2.42,3.328 7.27,4.988 14.53,4.988 h 74.19 c 10.91,0 20.75,-1.66 29.53,-4.988 8.78,-3.332 16.25,-7.934 22.41,-13.781 6.15,-5.86 10.84,-12.821 14.08,-20.903 3.23,-8.07 4.84,-16.949 4.84,-26.636 0,-5.262 -0.81,-11.774 -2.42,-19.532 -1.62,-7.781 -5.1,-15.351 -10.45,-22.718 -5.35,-7.3715 -13.12,-13.6801 -23.31,-18.9223 -10.2,-5.25 -23.77,-7.8789 -40.73,-7.8789 h -40.28 V 10"/><path id="path100" style="fill:#fff;fill-opacity:1;fill-rule:nonzero;stroke:none" d="m 5576.96,85.1016 h 47.54 l -11.51,38.5974 -11.2,43.461 h -1.82 l -11.51,-43.461 z m 58.44,-37.25 h -69.34 L 5554.24,9.39063 c -0.6,-2.01954 -1.46,-3.48047 -2.57,-4.39063 -1.11,-0.91016 -3.08,-1.35937 -5.9,-1.35937 h -35.43 c -2.23,0 -3.59,0.59765 -4.09,1.80859 -0.51,1.22266 -0.56,2.62891 -0.15,4.24219 l 62.98,189.86759 c 1.01,3.429 2.17,6.211 3.49,8.332 1.31,2.121 2.82,3.781 4.54,4.988 1.71,1.211 3.73,2.07 6.05,2.582 2.32,0.5 5,0.758 8.03,0.758 h 18.17 c 3.43,0 6.36,-0.149 8.78,-0.457 2.42,-0.301 4.54,-1.063 6.36,-2.274 1.82,-1.207 3.38,-2.929 4.69,-5.148 1.31,-2.219 2.58,-5.149 3.79,-8.781 L 5695.96,9.69141 c 0.41,-1.21094 0.41,-2.51953 0,-3.92969 -0.4,-1.42188 -1.71,-2.12109 -3.93,-2.12109 h -36.04 c -2.22,0 -4.08,0.25 -5.6,0.75 -1.51,0.50781 -2.57,1.87109 -3.18,4.08984 L 5635.4,47.8516"/><path id="path102" style="fill:#fff;fill-opacity:1;fill-rule:nonzero;stroke:none" d="M 5762.92,135.359 V 10 c 0,-2.62891 -0.46,-4.35156 -1.36,-5.14844 -0.91,-0.8125 -2.78,-1.21093 -5.61,-1.21093 h -31.79 c -2.42,0 -4.19,0.44921 -5.3,1.35937 -1.11,0.91016 -1.67,2.57813 -1.67,5 v 184.711 c 0,7.879 1.41,13.379 4.24,16.508 2.83,3.133 7.97,4.691 15.45,4.691 h 12.72 c 3.02,0 5.6,-0.148 7.72,-0.449 2.12,-0.301 3.98,-0.961 5.6,-1.973 1.61,-1.008 3.13,-2.418 4.54,-4.238 1.41,-1.82 3.03,-4.141 4.84,-6.961 l 51.48,-78.43 26.05,-40.8785 h 1.51 V 209.559 c 0,2.421 0.46,4.082 1.36,4.992 0.91,0.91 2.78,1.359 5.61,1.359 h 31.79 c 4.64,0 6.97,-2.121 6.97,-6.351 V 24.5313 c 0,-6.461 -1.32,-11.5625 -3.94,-15.29302 C 5890.5,5.5 5885.26,3.64063 5877.39,3.64063 h -12.72 c -3.03,0 -5.61,0.14843 -7.73,0.44921 -2.12,0.30079 -3.99,0.96094 -5.6,1.96875 -1.61,1.01172 -3.13,2.3711 -4.54,4.08981 -1.41,1.711 -3.03,3.9805 -4.85,6.8125 l -48.45,73.2774 -29.07,45.1207 h -1.51"/><path id="path104" style="fill:#fff;fill-opacity:1;fill-rule:nonzero;stroke:none" d="m 6010.56,123.859 19.99,44.813 19.98,41.488 c 1.01,2.02 2.07,3.481 3.18,4.391 1.11,0.91 2.78,1.359 5,1.359 h 38.46 c 2.82,0 4.28,-0.601 4.39,-1.82 0.1,-1.211 -0.16,-2.418 -0.76,-3.629 L 6033.27,81.7695 V 9.69141 c 0,-2.22266 -0.4,-3.78125 -1.21,-4.69141 -0.81,-0.91016 -2.63,-1.35937 -5.45,-1.35937 h -33.01 c -4.24,0 -6.36,2.00781 -6.36,6.05078 V 81.1602 L 5917.9,210.16 c -0.61,1.012 -0.66,2.219 -0.15,3.629 0.5,1.41 1.86,2.121 4.08,2.121 h 38.16 c 2.82,0 4.79,-0.5 5.91,-1.512 1.1,-1.007 2.16,-2.726 3.17,-5.148 l 20.29,-42.09 19.38,-43.301 h 1.82"/><path id="path106" style="fill:#fff;fill-opacity:1;fill-rule:nonzero;stroke:none" d="M 1324.48,1708.31 807.328,1191.16 H 1841.63 Z"/><path id="path108" style="fill:#fff;fill-opacity:1;fill-rule:nonzero;stroke:none" d="m 2116.23,916.512 h -522.92 l -49.76,42.008 c -7.04,5.597 -7.5,13.554 -5.53,19.152 1.94,5.601 7.22,11.551 16.24,11.551 h 119.05 c 5.84,0 10.56,4.718 10.56,10.562 v 71.655 c 0,5.85 -4.72,10.56 -10.56,10.56 h -205.57 c -10.56,0 -21.34,-1.68 -32.08,-5.07 -21.16,-6.69 -38.45,-21.37 -48.62,-41.37 -10.07,-19.79 -11.8,-42.076 -4.86,-62.783 3.62,-10.914 8.77,-19.363 15.38,-25.105 l 36.2,-31.16 h -329.79 c 4.61,62.113 32.47,72.711 106.45,72.711 h 65 c 5.84,0 10.56,4.754 10.56,10.562 v 71.655 c 0,5.85 -4.72,10.56 -10.56,10.56 h -125.5 c -71.93,0 -118.84,-14.4 -147.64,-45.31 -24.014,-25.85 -36.163,-63.42 -38.452,-120.178 H 532.668 L 765.063,1148.91 H 1883.87 l 232.36,-232.398"/><path id="path110" style="fill:#fff;fill-opacity:1;fill-rule:nonzero;stroke:none" d="M 2390.88,641.859 H 258.016 l 232.398,232.399 h 473.414 c 2.289,-56.762 14.438,-94.332 38.492,-120.18 28.73,-30.914 75.63,-45.312 147.6,-45.312 h 131.8 c 5.84,0 10.56,4.75 10.56,10.562 v 71.652 c 0,5.848 -4.72,10.567 -10.56,10.567 h -71.3 c -73.98,0 -101.84,10.633 -106.45,72.711 h 379.41 c 6.05,-4.895 13.06,-10.668 19.85,-16.27 15.85,-13.097 30.81,-25.562 31.03,-25.738 7.04,-5.598 7.5,-13.594 5.52,-19.156 -1.93,-5.598 -7.21,-11.547 -16.26,-11.547 h -139.19 c -5.81,0 -10.57,-4.719 -10.57,-10.567 v -71.652 c 0,-5.848 4.76,-10.562 10.57,-10.562 h 225.7 c 10.6,0 21.37,1.687 32.08,5.066 h 0.03 c 21.17,6.691 38.42,21.375 48.59,41.375 10.11,19.754 11.84,42.078 4.93,62.816 -3.59,10.672 -14.11,22.676 -22.32,30.848 -0.21,0.211 -0.42,0.422 -0.63,0.598 l -29.37,24.789 h 515.14 l 232.4,-232.399"/><path id="path112" style="fill:#fff;fill-opacity:1;fill-rule:nonzero;stroke:none" d="M 2433.14,599.609 H 215.777 L 0,383.828 h 2648.92 l -215.78,215.781"/></g></g></svg>