<?xml version="1.0" encoding="UTF-8" standalone="no"?>
<svg width="22px" height="22px" viewBox="0 0 22 22" version="1.1" xmlns="http://www.w3.org/2000/svg" xmlns:xlink="http://www.w3.org/1999/xlink">
    <!-- Generator: Sketch 40.2 (33826) - http://www.bohemiancoding.com/sketch -->
    <title>Shape</title>
    <desc>Created with Sketch.</desc>
    <defs></defs>
    <g id="Page-1" stroke="none" stroke-width="1" fill="none" fill-rule="evenodd">
        <g id="Забронировать-студию" transform="translate(-964.000000, -194.000000)" stroke="#000000" fill="#000000">
            <path d="M965.106738,195.485554 L974.595554,205.002134 L965.106738,214.498541 C964.975308,214.599759 964.965254,214.812279 965.076574,214.923582 C965.187895,215.034884 965.399763,215.024439 965.501028,214.893324 L974.999899,205.386471 L984.49877,214.893324 C984.600035,215.024439 984.802208,215.034884 984.923583,214.923582 C985.034904,214.812279 985.02449,214.600119 984.89306,214.498541 L975.394189,205.002134 L984.89306,195.485554 C985.065068,195.313377 984.87295,194.959657 984.640614,195.010086 C984.579926,195.020171 984.529293,195.050429 984.49877,195.091132 L974.999899,204.587539 L965.501028,195.091132 C965.450395,195.030257 965.369598,195 965.298856,195 C965.046051,195.050429 964.955199,195.343994 965.106738,195.485554 Z" id="Shape"></path>
        </g>
    </g>
</svg>