<?xml version="1.0" encoding="UTF-8"?>
<svg width="17px" height="17px" viewBox="0 0 17 17" version="1.1" xmlns="http://www.w3.org/2000/svg" xmlns:xlink="http://www.w3.org/1999/xlink">
    <!-- Generator: Sketch 50.2 (55047) - http://www.bohemiancoding.com/sketch -->
    <title>Combined Shape</title>
    <desc>Created with Sketch.</desc>
    <defs></defs>
    <g id="Page-1" stroke="none" stroke-width="1" fill="none" fill-rule="evenodd">
        <g id="Заглушка-(Форма-обратной-связи)" transform="translate(-749.000000, -37.000000)" fill="#000" stroke="#FFFFFF">
            <g id="Group-6" transform="translate(732.000000, 20.000000)">
                <path d="M26.0059223,25.4166667 L32.7823623,32.1931067 C32.9450808,32.3558251 32.9450808,32.6196438 32.7823623,32.7823623 C32.6196438,32.9450808 32.3558251,32.9450808 32.1931067,32.7823623 L25.4166667,26.0059223 L18.6402267,32.7823623 C18.4775082,32.9450808 18.2136895,32.9450808 18.050971,32.7823623 C17.8882526,32.6196438 17.8882526,32.3558251 18.050971,32.1931067 L24.827411,25.4166667 L18.050971,18.6402267 C17.8882526,18.4775082 17.8882526,18.2136895 18.050971,18.050971 C18.2136895,17.8882526 18.4775082,17.8882526 18.6402267,18.050971 L25.4166667,24.827411 L32.1931067,18.050971 C32.3558251,17.8882526 32.6196438,17.8882526 32.7823623,18.050971 C32.9450808,18.2136895 32.9450808,18.4775082 32.7823623,18.6402267 L26.0059223,25.4166667 Z" id="Combined-Shape"></path>
            </g>
        </g>
    </g>
</svg>