<svg xmlns="http://www.w3.org/2000/svg" width="395" height="587" viewBox="0 0 395 587">
    <g fill="none" fill-rule="evenodd">
        <path fill="#EEE5D5" d="M334.466 587c61.024 0 67.06-118.662 56.086-214.866C379.578 275.929 278.892 206 187.072 206S43 282.728 43 372.134C43 461.539 273.441 587 334.466 587z"/>
        <g stroke="#2B2523" stroke-linecap="round" stroke-linejoin="round" stroke-width="2">
            <path d="M214.693 406.625c-1.107-1.66.277-3.23.646-4.891.553-2.676-1.292-4.245-3.875-4.338-3.968 0-6.552 4.523-4.89 8.122.83 1.846 3.782 2.215 3.321 4.153-.277 1.015-1.569 2.677-2.03 3.692-.738 1.292-1.2 2.4-1.66 3.876-2.215 7.014-2.677 13.936-1.846 21.227.738 6.922 1.384 14.49 4.244 20.859 1.015 2.307 2.4 5.168 4.43 6.737.091-3.692.368-7.66-.185-11.352-.462-3.138-1.754-5.907-2.769-8.86-1.014-2.861-.922-5.353.462-8.122 1.2-2.307 2.491-4.245 3.137-6.83.923-3.599 1.569-7.106 2.122-10.798.185-1.384 2.584-13.013-.738-13.013M195.593 394.812c5.536 2.215 4.798 6 3.599 7.568-.83 1.108-2.215 2.769-1.661 4.06.646 1.662 2.953 2.4 3.69 4.246.739 1.939 1.2 4.338 1.385 6.369.646 6.83-1.661 13.474-2.215 20.212-.461 5.353.37 10.706.093 16.058-.093 2.677-.185 5.446-.923 8.03-.37 1.384-1.015 4.522-2.122 5.26-.37-4.245.277-8.675-.277-12.92-.461-3.692-1.476-7.476-1.66-11.168-.093-1.569 0-3.23.091-4.799.093-1.2.739-2.861.462-3.969-1.292 1.385-1.384 4.246-1.569 6-.461 3.23-.092 6.46.277 9.69.37 3.876.185 7.937-.461 11.721-.277 1.846-.83 4.892-2.307 6.276-1.015-1.292.092-4.245.184-5.814.093-2.4-.369-4.615-.738-6.922-.553-3.138-1.66-6-2.768-9.045-1.015-2.953-.83-6.183-.83-9.229 0-6.83-1.015-13.844-.461-20.581.276-3.415.092-8.768 3.413-10.798 2.492-1.57 1.661-1.754 1.015-4.8-.645-2.584.646-5.814 3.783-5.445M179.631 392.32c2.768-.277 4.798 2.215 3.875 5.076-.461 1.385-2.675 5.076-3.506 6.184M184.06 407.548c1.476 2.03 3.045 5.538 3.137 10.706M182.491 413.086c-.738 1.569 0 5.076.185 6.737.184 1.938.461 3.877.553 5.815.185 3.322.554 6.737.185 9.967-.923 7.291-1.66 14.583-2.399 21.874-.184 1.753-.461 3.507-.461 5.353 0 2.307.738 2.676 2.03 4.43-2.492 1.015-4.89-1.754-5.26-3.969-.646-3.138 0-6.091.37-9.137.368-2.953 1.476-6.091 1.383-9.045-.092-2.215-.738-4.43-.738-6.645"/>
            <path d="M179.262 436.713c-3.69 3.507-3.23 7.845-4.798 13.936-1.476 5.722-4.798 11.998-9.135 15.967.83-2.585 1.661-5.076 2.676-7.66 1.477-3.785 3.968-24.92 4.614-28.888M174.187 402.288c-1.2 1.661-2.768 1.846-3.045 4.337-.461 3.97.277 8.122.277 12.183 0 3.692-.83 7.937 1.107 11.26M179.262 392.043c-2.768.739-3.414-.184-4.521 2.584-.277.739-.37 4.061-.462 4.8-.092.738.554 2.4.277 2.584"/>
            <g>
                <path d="M246.987 247.144c.369 3.23-1.384 6.091-2.215 9.137-1.384 5.26-1.753 10.89-2.03 16.336-.46 9.967-.46 20.12-.922 30.087-1.477 29.626-.646 59.252-1.846 88.97-.738 18.274.277 36.733.923 54.914M221.152 214.38c7.658 26.027 16.7 51.592 17.992 79.003.83 16.15-1.476 32.394-2.307 48.453-.738 14.582-.553 29.257-1.384 43.747-.646 10.798-.922 21.596-.922 32.394 0 11.537-2.676 21.505-5.075 32.672M227.61 222.225c4.798 11.906 5.167 27.042 11.995 38.117 4.337-4.246 1.477-12.367 4.152-17.351"/>
                <path d="M217.46 186.692c.831-1.66 10.15 4.8 2.769 7.292.923 3.23 5.167 2.584 6.182 6.09.923 2.862-1.384 6.554-4.337 5.446-.092 4.338-3.045 10.06-6.735 3.507 7.104 4.43 1.107 14.952-5.813 5.722M200.391 212.534c4.89 3.969-4.429 10.06-8.027 4.246 4.429 4.614-3.23 6.368-6.643 5.445 5.167 5.815 9.503 4.984 3.598 12.367 4.706-3.6 12.272-9.875 14.302-.092-.646-3.692 1.845-6.276 5.259-4.707 3.414 1.57 4.337 7.014 4.337 10.245 1.2-5.353.645-9.322 7.842-7.753M209.618 248.067c7.474 2.4 14.025 9.414 19.376 14.767M190.242 244.837c-6.643-3.323-4.337 5.906-1.753 8.583-7.197-4.338-10.15.092-5.629 6.368-2.214-2.492-12.64-4.43-9.226 1.015-2.307-1.753-6.182-2.03-7.382 1.016M178.247 270.217c2.953 5.445 14.763 11.352 18.085 2.769 1.568 3.969 3.598 4.245 7.289 3.23 3.045-.83.922-1.938 4.152-1.384 1.2.184 3.137 1.476 4.429 2.03 2.86 1.385 6.366 2.4 5.813 5.815-.277 1.846-3.968.461-2.4 3.691.646 1.292 3.968 1.57 5.075 1.754-2.768 1.846-6.55 4.153-4.798 8.122 1.661 3.691 5.629 2.86 8.489.923-.83 3.876 3.045 8.675 4.152 3.23.554 2.953.461 6.183 3.137 7.937 1.846-.738 2.215-2.769 3.322-3.6M240.067 301.597c1.291 2.676 4.705 6.552 8.211 5.999 4.983-.831 3.783-7.015.646-9.599.739 2.584 8.212 3.415 10.058.83 2.122-3.045-2.584-7.383-4.337-9.598 2.768-.738 12.087-4.337 6.09-7.66 1.753.462 4.52-1.384 4.705-4.153.185-3.784-5.259-7.476-8.304-8.583M266.824 270.679c.277 3.322 4.06 11.444 8.12 9.044 3.875-2.307.369-12.275-.554-15.505 4.337 2.861 15.317-.461 8.766-4.707 5.167-.092 13.102-4.337 14.117-9.69-1.753.276-3.875.184-4.798-1.385 2.122-1.938 5.167-3.6 6.274-6.368 2.215-5.538-.923-2.4-3.23-4.615-4.059-3.784 4.706-7.752 6.829-12.09-2.492-.185-6.275-.185-8.674-1.661.277-.554.37-1.477.739-2.03-.83-.37-1.661-.554-2.584-.37M266.363 171.926c3.69 3.507 7.935-3.877 11.164-4.707 7.474-2.03 5.537 6.276 1.846 9.783 2.491-1.2 7.289-2.03 8.304 1.846.83 3.138-3.414 6.183-4.613 8.306 4.152-.185 8.765-1.384 12.087 2.123 4.798 5.076-.738 6.276-3.322 9.506 10.61 1.015 1.476 7.845-3.322 10.429 2.215 0 5.536 1.661 4.706 4.245-1.384 4.153-10.703 2.585-13.194 1.385M258.52 222.225c8.489 2.307 4.152 5.26.185 8.768 1.015 1.015 4.798 4.707 4.244 6.46-.83 2.954-3.137.093-4.429 1.662-1.476 1.753 1.846 4.153-1.2 5.537-1.752.739-7.657-4.153-8.857-5.168.738 3.6-2.583 7.199-5.536 3.507M141.801 190.846c-1.2 1.938-2.952 4.43-2.583 6.737.738 3.784 4.428 4.615 7.381 2.584-.923 2.308-3.875 16.244 2.86 10.706-2.03 2.492-1.845 5.538.185 7.845 3.783 4.245 6.274.83 10.057-.277 4.983-1.477 2.4.37 6.274 3.138 2.676 1.846 6.09.738 8.95.738M155.641 222.687c-5.074 5.63 1.384 9.875 6.367 9.598-2.03 4.153.277 4.984 3.875 6.091 1.292.37 2.676-.461 3.875.37 2.03 1.476.646 2.307 1.477 3.691.738 1.292 1.937 4.892 4.705 5.26 3.137.37 4.521-3.045 7.29-2.953M146.876 176.079c3.783-2.677 6.92-.738 3.967-6.46-2.768-5.354-5.628-6.461 2.03-8.4-8.58-10.89 7.29-4.706 12.364-5.075-1.66-4.338-3.598-8.676-3.967-13.66 3.23 2.492 6.366 5.353 9.78 7.568 0-1.569.461-3.23 1.2-4.245-2.492-2.4-.83-3.323 1.107-4.43 2.676-1.661 4.52.092 7.289-3.23M186.09 136.855c-.37-2.215-2.03-11.998 2.122-12.275 3.783-.277 5.352 8.767 6.828 11.26 1.292-4.154 6.182-10.614 10.887-6-5.351-4.614-.83-10.429 5.167-8.214"/>
                <path d="M210.54 122.088c-3.505-7.291 10.058-15.136 14.671-7.107-3.506-4.338 10.519-13.198 12.088-.277M250.677 131.317c2.03-1.108 6.92-.83 8.581 1.108 2.584 3.23-1.291 5.26-1.015 8.49 4.153-.461 11.534-4.891 15.501-3.507 6.46 2.4.185 8.676-1.753 11.814 3.414-1.662 6.182 1.015 4.337 4.153-2.122 3.507-10.795 3.415-11.441 7.476 2.86-.277 9.78 1.384 6.182 5.906-1.569 1.938-7.474-.646-4.43 4.615-2.03.83-3.874-.185-6.181-.83"/>
            </g>
            <g>
                <path d="M314.158 380.322c.092-2.86-.185-5.537-3.414-6.183-3.875-.739-5.444 3.137-8.581 4.337-.184-3.415.092-7.29-3.69-9.044-4.799-2.308-4.89 3.23-4.43 6.46-2.583-2.03-8.673-7.199-9.134-.461.461-3.877-3.506-7.753-7.382-7.2M271.069 372.939c-2.676 2.769-.83 8.03 2.122 9.875-2.491 1.015-6.459 3.323-5.813 6.645.738 3.6 5.905 2.861 8.858 3.692-3.506 0-10.242.738-11.626 4.799-1.107 3.138 3.875 6.368 6.736 4.984-3.414 1.846-2.307 6.091 1.014 7.475 3.876 1.57 9.78.093 12.364-3.045-.553 4.245 2.307 4.891 5.998 4.245 4.06-.738 5.905-3.138 8.765-4.614M5.337 387.982c-3.599-8.952 9.503-11.444 14.393-5.814-3.044-1.754-7.012-6.184-2.583-8.399 3.875-1.938 7.843 1.108 10.703 3.507M25.359 372.939c1.384-3.046 3.137-5.63 6.735-6.368 5.721-1.108 2.123 2.307 2.584 5.076 1.845-1.477 5.444-2.954 7.474-.739 1.384 1.57.922 5.261.645 7.2-.46-7.292 9.689-9.784 13.287-3.97M60.42 386.137c1.57-4.892 5.075-10.799 11.073-6.922 4.429 2.86.923 9.506-2.03 12.367 1.753-1.661 5.628-2.492 7.843-1.385 3.967 1.939.922 3.784-1.292 5.723 2.953-.554 11.164-2.954 13.102.83 1.569 3.046-3.968 8.399-6.459 9.322M81.366 405.887c3.69-2.86 9.226 2.03 3.413 3.415M87.824 405.887c11.995 0 27.035.646 40.137 0 7.658-.369 15.316-.461 22.975-.461 4.152 0 17.162-1.292 19.007 0M79.981 411.425c-.738 2.215-5.628 0-7.842-.277-1.108 2.584-8.95 1.477-11.995 1.661M49.533 413.732c-6.92-.185-13.84 1.108-20.76.923M220.229 403.58c3.69-.37 10.98 0 14.302 0M238.221 404.041c9.043 2.492 20.3-1.938 29.526.923M299.118 407.733c1.846 3.23 4.152 4.43 7.658 4.06 5.075-.46 9.043-1.014 14.487.093"/>
            </g>
            <g>
                <path d="M141.34 265.141c-1.015 2.584-.093 5.26 0 7.937.277 6.184-.738 12.367-.462 18.643.462 10.799 1.384 21.412 1.846 32.21.922 20.305-2.307 40.61-1.384 60.821.277 6.368 0 12.46 0 18.92M173.172 272.986c-.184-.554.093-.83-.461-1.2.369 24.365 4.152 48.915 3.23 73.28-.37 10.43-.923 20.859-.923 31.38 0 4.43 1.753 12.552 0 16.612M205.927 278.985c-.092 26.119-.46 52.238-.46 78.449 0 13.659 1.752 27.134 1.844 40.608M110.43 329.746c.83 25.103-2.03 50.576-1.845 75.772.092.554-.277-.37-.462-.554M116.427 126.24c.277.278 1.384.647.646.647-5.444-2.307-12.548-2.584-18.546-3.692M97.328 122.826c0 14.86.83 29.718-.092 44.67-.739 11.536-3.045 23.534-2.676 35.07M96.405 130.486c-1.384 0-6.55-2.307-7.935-3.691.185 12.828-.092 26.58-1.292 39.409-.553 5.814-.645 11.72-.645 17.627 0 4.338.553 10.153-.646 14.398M86.902 133.255c-2.676-.83-6.92-2.4-9.78-2.4.737 19.105-2.492 38.21-2.492 57.222M76.383 139.716c-1.845.923-4.244-.646-6.09-1.2-1.845-.554-4.06-.37-5.628-.923 1.384 2.676.092 10.706.277 14.12.369 6.83.092 13.66-.185 20.49-.369 8.398-1.384 16.705-1.384 25.103M63.835 145.9c-2.584-.74-5.352-.924-7.935-1.477-.277 15.874-1.846 33.133-1.846 48.269M54.608 151.714c-1.477-.462-6.09-2.492-8.489-2.77 1.476 7.292.277 16.244.185 23.72-.093 6.091-1.108 12.09-.923 18.09"/>
                <path d="M46.304 158.174c-2.03-.37-4.152-.646-6.182-1.107-1.846 6.83.092 15.228 0 22.334-.093 4.43-.277 8.768-.277 13.198M38.553 163.435c-1.66.092-5.075-.646-7.29-.923-1.844 6.645-.368 15.413-.091 22.242.184 4.061.276 8.122.276 12.183M29.326 168.695c-.184.462-3.69-.922-5.167-1.2-.277 4.892.37 9.876.646 14.767.277 5.353-.369 10.522-.369 15.875v17.35M111.168 132.978c-.277 0-.369.37-.646-.184.738 8.675.185 18.827-.646 27.503-.83 8.306-.184 16.151-.184 24.457 0 8.86.277 17.536.277 26.396M248.002 33.302c0 27.688-1.569 55.284-1.569 82.879 0 3.784.277 8.49.277 11.537M247.448 33.58c2.953 1.66 10.888 3.137 13.84 2.768M267.747 21.027v62.944c0 9.598-.461 19.381.277 28.98.553 7.475 1.937 17.074.092 24.365"/>
                <path d="M266.455 21.581c.185-.369-.277-.461.277-.646 3.23.923 6.551 4.338 9.873 4.338M108.677 124.949c.184.369.369.738.553.923.277-2.492-.83-5.169 2.4-5.538-.554-.738-.831-1.753-1.385-2.492.554-.184 1.292-1.015 2.03-1.107-.553-2.03-1.937-4.338.554-5.63-2.399-2.677 4.429-3.876 6.274-1.2 3.414-1.569 3.414-.923 6.736-.184 1.015.184 2.03-.277 3.045-.093 1.2.185 2.122 1.015 3.044 1.292 3.045.646 9.504-.369 11.718 1.477M109.6 173.864c2.399-.554 6.735-3.784 9.78-4.984 4.798-1.938 9.227-4.245 13.932-6.276 5.352-2.307 10.796-4.707 15.963-7.383 3.967-2.03 8.396-4.984 12.64-6.276M119.749 207.735c-.369-.277-.923 0-.554-.83 2.768-.923 18.546-7.66 19.654-6.184"/>
                <path d="M116.704 127.164c.37.092 4.521-1.938 5.905-2.4 4.89-1.938 9.78-4.06 14.394-6.46 16.147-8.399 31.648-17.905 47.887-26.211 13.564-7.015 26.666-14.583 39.491-22.889 7.381-4.8 16.332-10.89 23.713-14.213M132.667 241.237c8.211 0 18.73-3.507 26.111-6.46M112.09 286.83c2.861-2.03 8.12-2.492 11.627-3.323 6.643-1.569 13.378-2.676 19.93-4.337 9.688-2.4 19.099-5.723 28.787-8.03M114.859 320.609c2.03.738 5.351-.554 7.381-1.108 5.813-1.476 11.718-2.676 17.531-3.784 8.95-1.66 17.992-3.23 26.758-5.906 10.334-3.23 21.498-3.877 32.11-6.184 8.119-1.753 17.807-1.661 25.465-4.891M248.924 308.61c-2.583 7.753-.922 18.275-1.2 26.489a98.506 98.506 0 0 0 0 7.383c0 .923.093 1.846.185 2.769 0 .461.277 3.692.185 2.492M253.538 303.073c-1.107 2.77-.554 7.107-.646 10.152-.092 6.092-.37 12.183-.646 18.274-.277 5.446.646 10.799.646 16.244M267.101 276.678v-1.292c0 24.457 2.03 50.484 2.122 74.203M273.283 280.923c.461 16.336.277 30.18.277 46.516 0 7.29-.646 15.136.277 22.427M292.014 256.004c-.923 1.846 0 5.815 0 8.03 0 4.983.184 10.06.276 15.043.37 10.983.83 21.874.277 32.764-.369 7.568-.646 15.228-.923 22.796-.184 3.415 2.03 12.275 0 14.952M301.517 238.838c.738 10.244 0 21.042.277 31.38.277 9.32 0 18.642 0 27.964 0 11.352 1.2 22.704.646 34.148-.185 4.153-.646 8.399-.646 12.644"/>
                <path d="M247.079 351.065c4.89 0 9.873.093 14.763-.276 3.875-.277 8.12-1.293 11.995-.923M291.737 350.142c8.95-2.86 20.668-1.476 30.171-1.568M299.672 346.174c5.997-2.584 14.21-1.108 20.576-2.769M248.924 356.05c-1.384 3.599.277 10.52.646 14.397.462 5.537 1.015 11.167 1.2 16.612.277 5.723.83 11.906 0 17.536M253.907 40.686c-.923 2.215-.277 5.537-.277 7.937 0 4.43-.277 9.045 0 13.475.37 7.383.738 14.859.646 22.334-.092 10.983.738 22.058.277 33.041-.185 3.969-.646 7.845-.646 11.906M275.128 31.18c-1.014 2.492-.276 6.46-.276 9.229 0 4.984-.554 10.06-.37 15.136.37 7.66.646 15.32.646 23.165 0 13.198 1.108 26.396 1.2 39.501 0 3.969-1.384 11.722.277 15.229M299.118 9.952c-2.768.277-5.997-.83-8.304-1.845M289.891 8.107c.739 1.753.277 4.983.277 7.014 0 4.153.462 8.398.277 12.552-.185 5.999-.277 11.905 0 17.904.554 11.537 2.122 22.797 2.122 34.425 0 10.799 1.753 97 .738 107.706M296.904 15.49c0 20.581 2.86 42.824 3.967 63.959.554 9.69-.461 145.914-.461 155.605M254.83 87.755c3.598.37 9.78-3.415 13.194-4.615"/>
                <path d="M274.76 78.803c2.49-1.385 5.443-2.492 8.119-3.692 1.845-.83 6.643-2.03 7.197-3.415M301.24 65.882c1.753-1.939 5.352-3.23 7.659-4.43 2.86-1.477 5.813-3.969 8.95-4.8M259.997 37.64c.276-.277 1.753-1.569 2.86-1.753-2.122 1.292-4.798 2.215-6.459 4.06 3.137-2.307 7.197-4.06 9.78-7.014M275.128 27.488c4.245-2.584 9.043-6.83 13.564-8.306M296.35 14.198c2.86-1.385 5.629-3.323 8.212-5.26 3.045-2.308 8.027-4.985 10.242-7.938M276.051 131.778c3.506-3.968 11.072-5.814 15.686-8.306M259.72 136.67c2.306-1.569 6.366-2.861 9.227-3.692M300.964 120.334c4.613-1.476 9.595-2.215 14.117-3.968M105.632 280c.185 2.4.37 7.014 1.2 8.953M106.832 303.996c0 5.353 1.753 15.505-.277 20.305M84.687 311.749c0 5.907 1.384 13.936.277 19.381M89.67 309.534c.092-.092.369-.739.276-.37.37 6.369-.092 13.383-.645 19.751M100.742 311.38v-.831c-.462 4.984 0 9.968 0 14.951M37.077 314.518c-2.122 5.722-.277 15.136-.277 21.504 0 4.614.646 9.414.277 13.936M28.127 315.071c.092 12.275 1.476 24.458 1.568 36.64M45.658 334.176l-.277-.83c-1.107 3.876-.646 8.767-.646 12.828M21.945 308.334c0 10.614.553 21.32 1.2 31.84.276 4.985-.462 11.353.922 16.152"/>
            </g>
            <g>
                <path d="M67.987 205.151c.276.185.276 1.015.461.554-2.03-5.353.738-7.107 5.444-3.507-.83-2.123-7.29-13.937-1.569-14.121 2.676-.092 8.673 9.414 10.519 11.444 1.384-5.907 5.167.462 6.459 2.861 5.536-5.26 6.458-.923 7.75 3.692 2.86-3.6 6.643-7.845 8.766-2.677 1.107 2.585-.093 6.645.922 9.137 2.215-2.953 5.167-8.675 10.242-6.46 2.583 1.107 3.414 4.891 2.307 7.383M127.96 242.068c6.09-.646 9.32 4.8 2.953 7.476.923.646 1.477 2.4 1.938 2.953-8.673 0-1.384 2.769-1.015 7.107.554 8.121-10.703 5.168-14.025 1.938 1.108 2.122 6.644 5.168 5.906 8.214-.739 2.953-4.43 2.86-6.736 2.215 4.706 1.015 3.783 5.26-.554 5.999-3.044.554-7.566-1.662-10.057-3.23 6.459 3.507-3.414 6.275-7.474 3.968.37 3.692-3.229 6-6.55 4.338M96.128 288.676c2.86-2.308 9.78-1.846 9.227 3.138 1.938-3.415 3.599.461 3.783 2.4 4.983-2.123 8.028-.74 12.918.46M113.198 301.135c1.845 4.246-5.905 1.754-7.935 1.477.369 3.138-.37 7.66-4.429 8.03-2.399.276-4.429-2.308-6.459-2.954-1.66-.554-3.045-.185-5.074-.37 5.812 4.246-4.89 4.523-7.751 2.77.554 3.968-3.598 3.691-6.182 3.045M73.061 316.363c3.783 2.492 5.906 8.676-2.214 7.845 6.828-.092 6.459 10.152-2.307 6.553.923 5.722-4.982 5.814-7.381 1.846-.092 1.292-1.2 1.938-1.476 2.676M52.762 333.899a6.77 6.77 0 0 0 1.2.923c-5.075 4.153-11.626-5.722-6.367-5.907-3.321.554-6.735-4.799-1.937-5.999-5.075 1.661-9.135-3.876-2.584-6.553M43.074 311.749c-2.03-.83-10.334 4.984-14.301 2.676-4.337-2.584.553-5.168 1.66-8.214-3.413.923-8.58 5.076-12.271 3.23-4.244-2.122-1.569-5.722.184-8.767-2.952-.093-7.935.277-6.827-4.246.645-2.676 6.458-4.06 8.304-5.999-.738-1.2-2.03-1.846-3.506-1.846M8.935 274.832C7.366 276.493 1.092 265.51 1 262.834c2.584-.277 5.905 1.846 8.304.184-1.015-.923-1.66-2.4-2.583-3.414 1.66-1.293 3.967-1.477 6.09-1.385-4.43-3.415-5.814-5.814.092-7.845-5.444-5.537-4.152-7.199 1.476-10.982"/>
                <path d="M12.164 239.3c5.444-1.385 12.364 1.845 17.9 2.214-3.967-3.045-15.87-4.891-14.486-11.998 3.691 0 7.197 4.153 10.888 5.353-.461-2.4-7.012-15.413-3.69-17.35 2.49-1.477 6.181 4.522 9.318 2.86M87.824 283.6c-.738-1.662-6.09-4.8-8.396-6.738 1.107 3.046 2.768 10.983-2.676 10.43-2.307-.185-6.09-4.246-7.935-5.538.185 4.43-2.122 1.569-3.69 2.307-.831.37-4.89 3.969-6.183 3.6-3.506-.923-.922-10.337-3.875-12.83-1.384 3.785-3.23 7.569-5.628 10.614M48.61 286.368c-.461.093-.83.277-1.291.462-.923-3.323-2.307-6.553-2.86-9.968-.923 1.938-.831 4.984-2.769 6.368-2.583 1.754-5.813-.276-6.459-3.23"/>
                <path d="M62.912 286.83c-4.429 9.414-3.322 24.642-2.768 35.532.553 11.352.83 22.428.461 33.687-.646 19.935.277 39.132-1.845 58.975-1.2 11.814-4.245 30.641 3.69 40.701M55.53 280.37c-1.66 4.43-1.015 11.813-1.291 16.704-.277 6-.554 11.906-.554 17.905 0 7.753.646 15.505 1.476 23.258 1.938 19.935 2.307 40.24.093 60.267-2.123 19.197-5.629 37.932-7.013 57.221M31.08 218.995c-2.307-3.415-7.29-23.812 2.675-16.244.37-6.09.554-9.875 7.382-9.506 2.49.185 1.476 2.03 3.967.646 1.661-.923 1.938-5.076 3.875-5.353 4.152-.738 6.275 9.137 9.043 10.337 2.122.923 3.414-1.384 5.813-1.107 1.753.184 5.72 3.045 4.613 3.691M117.627 232.654c7.566 2.307 7.474 8.86-.461 9.968 2.03.923 2.768 2.4 3.506 4.245-3.137 1.754-7.474 3.23-11.072 3.692M113.936 220.38c1.938-6.923 9.227-1.2 5.628 5.445 2.953-.923 4.245.092 3.045 3.137"/>
            </g>
        </g>
    </g>
</svg>
