<?xml version="1.0" encoding="UTF-8"?><svg width="399" height="454" xmlns="http://www.w3.org/2000/svg"><!--Generator: Sketch 50.2 (55047) - http://www.bohemiancoding.com/sketch--><g id="Mobile" fill="none" fill-rule="evenodd" opacity=".6" stroke-linecap="round" stroke-linejoin="round"><g id="Homepage_New-Copy" transform="translate(-242 -5746)" stroke="#000" stroke-width=".8"><g id="Group-14" transform="translate(242.9421 5747)"><path d="M164.5655 393.835s2.9933-2.7256 2.9933-5.5875c0-2.8619-2.449-4.0884-4.3538-4.0884-2.8235 0-4.0817 4.4972-4.0817 7.768 0 3.2706-1.7688 2.3636-2.313 4.2246-.479 1.6343-1.7611 15.2251.7793 21.5605.295.737.3766 1.534.2907 2.3222-.7413 6.8597-7.3297 31.125-6.6146 31.0116 3.8434-.6138 11.5311-25.1854 11.5311-27.5022 3.3437 7.2-2.5513 22.5275.1012 26.2757C164.3272 452 167.0483 452 167.0483 452s-1.4988-1.8774-1.9734-2.5893c-.9524-1.4315 1.5598-11.4126 1.7688-15.3996.272-5.1786 1.2245-25.893-.1361-31.2079" id="Stroke-1"/><path d="M179.836 451.909s2.848-3.9139 2.7564-7.737c-.0915-3.8233-.9151-18.7523.0022-22.0293.9162-3.277 2.57-11.2871 2.0187-17.2043-.5512-5.9162-5.3285-5.9162-5.3285-8.1008 0-2.1847 2.9405-1.7303 3.1235-6.281.1841-4.5518-5.7883-3.915-5.7883-3.915s-2.5722 1.0017-2.2966 3.3688c.2756 2.366 1.7453 3.277.9184 4.187-.8269.9099-3.8588 2.2753-4.0419 4.733-.184 2.4578-.7354 27.6734 0 30.6774.7343 3.0039 4.3176 16.2026 3.215 22.3012 1.1026.5461 2.4807-1.3655 2.849-5.7348.3671-4.3694-.827-18.1143.9184-23.9397 0 5.5523 1.011 14.018 1.1025 16.8395.0915 2.8226-.0915 12.0157.5513 12.835z" id="Stroke-3"/><path d="M194.8403 396.717c0-1.288.9377-2.1867.9377-4.8513 0-2.6657-3.483-2.8024-3.885-2.8024-.4018 0-4.4872.889-4.4872 5.8092 0 2.7324 3.348 3.4158 3.348 4.8514 0 2.0163-4.4198 6.5604-4.4198 12.7797 0 0-1.4746 10.045-.403 14.692 1.0729 4.647-1.674 6.287 7.1013 23.987 3.0801-8.816-2.6129-17.2899-2.7468-20.8434-.0665-5.1937 3.3491-6.2871 3.6845-9.3628.3344-3.0747 3.0137-13.872 3.0137-19.9535 0-3.2813-2.1434-3.0987-2.1434-4.3058z" id="Stroke-5"/><path d="M50.947 284.4412l-.4311 28.8392c-.0995 6.722-.199 13.4679.6267 20.1413.5848 4.7344 1.635 9.418 1.9069 14.1795.2774 4.8631-.2587 9.7327-.3493 14.6034-.1216 6.614.5803 13.2549-.1415 19.8331-.6379 5.8213-2.3756 11.464-3.8226 17.1458-3.3063 12.9932-5.1092 26.352-5.3623 39.7387l-.871-2.3358" id="Stroke-7"/><path d="M103.173 303.2405c.2105.464.4211.927.6317 1.391-2.048 1.1757-4.6089 1.446-6.861.7224 1.2276 1.6354.335 4.3593-1.6311 4.9762-.8795.2756-1.8288.1723-2.7453.0657l-10.73-1.2468c.9962 1.222-.167 3.189-1.7054 3.581-1.5385.3929-3.1326-.2499-4.5882-.8786.49 1.2801-.742 2.6873-2.1047 2.937-1.3628.2487-4.1506 2.2017-5.4272 1.6699 1.7087.6417 2.0273 2.8563 2.0229 4.6596-.0022.7192-.0186 1.4675-.3459 2.1092-.3273.6427-1.0616 1.1423-1.7698.97.6307-.3305 1.4512-.0345 1.916.4996.4648.5329.6503 1.2456.7867 1.9368.3077 1.5633.3306 3.427-.8936 4.4659-.8456.717-2.0906.8204-3.1686.5372-1.078-.2842-2.0295-.9-2.9602-1.5062.743 1.6806-.6045 3.892-2.4572 4.0341 0 0-3.927 1.011-3.927-2.487" id="Stroke-9"/><path d="M31.877 284.0167c.383 2.3272 3.023 3.5139 4.995 2.694 1.9721-.821 3.2408-3.0475 3.8093-5.3274-.2233 2.2143.1726 4.5039 1.1199 6.4607.2384.4955.5307.9887.973 1.2498 1.0325.6098 2.2451-.3121 3.0467-1.2644 1.9602-2.3297 3.408-5.2035 4.1783-8.2923-.4974 3.3074.2567 7.0424 2.5751 9.151 2.3184 2.1087 6.2982 1.8305 7.8355-1.0445.4672.5976 1.367.6777 1.9128.1712.5448-.5065.6451-1.517.2125-2.1475 1.4974 3.2285 5.0112 5.087 8.1732 4.3254.6786-.164 1.3701-.4604 1.8092-1.064 1.4068-1.9289-.7217-4.606-.8987-7.0948 1.3766 3.2504 4.4685 5.483 7.6651 5.534" id="Stroke-11"/><path d="M115.3937 250.1121c1.1134.3533 2.308.374 3.4098.7642 1.1008.3902 2.1647 1.3273 2.1658 2.5284 0 .9533-1.5117 3.0154-2.0858 3.1252.79.3533 1.7202 1.149 1.5064 2.6013 0 0-.315 1.9936-3.2676 2.1447 1.1092 2.036 1.2693 4.5948.4224 6.7613-.2391.612-.5752 1.2164-1.1135 1.574-.5877.3913-1.3262.4294-2.0256.4272-2.8631-.0098-5.7242-.5109-8.4303-1.475 1.4431.7565 2.8684 1.662 3.8354 3.0012.968 1.3403 1.3978 3.2013.7173 4.7177-.6804 1.5164-2.665 2.3838-4.045 1.5077 1.2736.2033 1.52 2.223.612 3.1654-.908.9425-2.349 1.0273-3.632.9088-2.723-.25-5.3871-1.1523-7.7246-2.6154 1.1703.3402 1.638 1.9838 1.0692 3.0915-.5678 1.1098-1.854 1.6642-3.0696 1.673-1.2156.0075-2.3859-.436-3.5204-.886.4835 1.3968-.0295 3.0926-1.1956 3.959-1.1661.8663-2.8873.826-4.0166-.0892" id="Stroke-13"/><path d="M99.7179 258.2857c3.0616-.2512 6.0717-1.1042 8.8085-2.4962.486-.2466.9904-.5367 1.2523-1.0151.6198-1.1396-.446-2.4368-1.4193-3.2944-.334-.2946-.668-.5892-1.0019-.8827.8875.6806 2.2713.2512 2.953-.6338.6816-.885.8234-2.0656.8474-3.1824.0114-.547-.0011-1.1054-.1876-1.6204-.5077-1.3988-2.1008-2.0474-3.5487-2.4048" id="Stroke-15"/><path d="M104.7173 230.2496c-.3099-1.033.161-2.2682 1.0554-2.7735.8944-.5052 2.1098-.2212 2.7274.6378.5834.8093.6076 1.9168.59 2.9403-.0254 1.4305.0264 3.3496-.0629 4.7778.8161-.5952 1.8815-.9726 2.789-.5561.9066.4153 1.3489 1.8884.599 2.5758" id="Stroke-17"/><path d="M51.4914 329.7635c.028.8942-.2064 1.4516-.6754 1.8971-.2996.2846-.5117.2462-.919.1354-.497-.1343-.5352-.7812-.469-1.2683.055.7684-.0011 1.7276-.7383 2.0474-.772.3346-1.5966-.323-2.1374-.9432-1.3207-1.5103-2.519-3.6184-1.5215-5.3375-.6856.42-1.637.291-2.2912-.1705-.6552-.4626-1.0457-1.1948-1.2499-1.944-.249-.9145-.1088-2.1081.8056-2.477-1.6976.274-3.6656-.324-4.441-1.783-.7764-1.4601.3052-3.6343 2.0264-3.6013" id="Stroke-19"/><path d="M39.2333 311.6476c-4.2767.5218-6.9383 3.0349-11.2461 3.036-1.2524 0-2.6487-.8104-2.7517-2.1814-.0472-.618-.0848-1.182.2608-1.6963.851-1.2673 1.702-2.5357 2.5542-3.8041-3.3902 2.0982-7.463 3.0543-11.4242 2.687-.2469-.0238-.5109-.0594-.6912-.229-.1792-.1697-.234-.429-.2758-.672-.381-2.2279-.3338-4.8317 1.3265-6.354-1.6882.308-3.5115-.2712-4.72-1.4974-.3359-.3404-.632-.7401-.7566-1.2025-.3005-1.1107.4658-2.2581 1.4177-2.8934.952-.6363 2.0863-.9302 3.0962-1.4672 1.0088-.537 1.9575-1.4553 1.9962-2.6049.0386-1.1484-1.3297-2.2418-2.2752-1.5957" id="Stroke-21"/><path d="M6.9205 379.255c-.4773-1.9526-.804-4.3357.9136-5.629.6007-.4516 1.3693-.6856 2.1322-.8608 3.5209-.8092 7.342-.5439 10.678.7403-1.5007-.8558-2.6575-2.1744-3.224-3.6753-.313-.8274-.3826-1.8766.3712-2.4377.5367-.4 1.3064-.4071 2.0076-.395 1.6217.0304 3.2617.0628 4.8285.4335 1.5669.3707 3.079 1.1221 3.98 2.3172" id="Stroke-23"/><path d="M25.5242 366.1372c-.5988-1.9206.3087-4.1422 1.8502-5.3085 1.5403-1.1663 3.5674-1.3977 5.4208-1.0294.1956.0378.4087.0957.5285.2656.1197.1712.111.405.0978.6174-.0725 1.1569-.145 2.3149-.2187 3.4717 1.8898-.628 3.8904-.8676 5.8626-.7012.4361.0366.902.1075 1.2239.4274.2714.2703.389.6728.4779 1.06.3966 1.7388.4208 3.5744.0692 5.3238-.2735-1.7423.802-3.4906 2.2347-4.3594 1.4327-.8711 3.1444-1.021 4.7891-.9821 2.0183.0484 4.3398.5737 5.2682 2.5002" id="Stroke-25"/><path d="M57.2152 378.3247c.1453-3.0505 3.1185-5.1824 6.0142-6.0535 1.5248-.4593 3.337-.6525 4.5636.372 1.0836.9054 1.349 2.535.9853 3.9073-.3648 1.3723-1.2485 2.536-2.1628 3.6157a43.4255 43.4255 0 0 1-3.4058 3.586c1.7357-1.0412 3.7226-1.6506 5.739-1.761 1.0257-.0552 2.2075.096 2.7886.9528.9416 1.3833-.4194 3.1531-1.6734 4.255 3.527-1.708 7.8362-1.6694 11.3326.1048.5484.2782 1.0913.6084 1.4648 1.0985 1.2573 1.6484-.0044 4.1148-1.7029 5.2917-1.6974 1.1758-3.8154 1.7345-5.2736 3.2028-.272.2727-.6958.5918-.982.3335 1.289-.5377 2.6707-1.0853 4.0383-.8137 1.3675.2727 2.5854 1.7455 2.0655 3.0516-.8738.074-1.7466.1468-2.6204.2208" id="Stroke-27"/><path d="M56.3978 289.3454c-3.3286 8.5396-2.1058 18.5417-1.4728 27.977.7412 11.0461.5678 22.1517.3944 33.2324a753321.038 753321.038 0 0 1-.6982 44.5975c-.1109 7.0705-.2244 14.1778-1.2571 21.1348-.486 3.2659-1.1753 6.5372-1.0345 9.8528.2087 4.8886 2.2124 9.5219 2.0839 14.4137.3838.0628.5581-.7735.1972-.9455" id="Stroke-29"/><path d="M73.5624 401.0218c-2.1974 2.098-5.143 1.8872-7.2189-.5155-.515 1.8674-1.9464 2.4442-3.191 2.7055-2.7799.5786-5.594.712-8.3894.4002" id="Stroke-31"/><path d="M46.5895 402.141c-6.257.3396-12.527.5251-18.7993.5564" id="Stroke-33"/><path d="M109.5044 222.7588c.8517-2.2666 1.5206-5.2437-.4198-6.736-1.315-1.0126-3.2055-.7627-4.8229-.3393-3.2892.8615-6.7448 2.5283-7.9619 5.6384-.4732-1.5455-.0555-3.2016-.0946-4.8152-.0381-1.6125-.843-3.4802-2.4713-3.7408-2.3722-.3797-3.9657 2.8623-6.3695 2.8835.223-1.4093-.5036-2.9186-1.7566-3.6493-1.2542-.7308-2.9564-.6382-4.1191.2233-.2622-1.1306-.7364-2.2953-1.7055-2.9622-.9703-.667-2.5365-.5893-3.137.4106-2.133-2.6198-4.7782-4.8407-7.7487-6.5064-1.004-.5637-2.5398-.937-3.1054.051-.2153.3756-.1914.834-.1555 1.2637a43.4446 43.4446 0 0 0 1.34 7.6455c-.5754-.0723-4.0603 1.5316-3.3686 3.1133-2.2417-1.82-4.5683-6.368-7.4583-6.0011-.471.0606-.955.15-1.415.0319-.5874-.1521-1.028-.617-1.4336-1.0605-.8484-.9253-6.04-8.7612-9.4314-5.5554-.9714.918-1.7055 2.3581-.8637 3.392-1.9437-.6882-3.9755-1.386-6.028-1.153-2.0535.233-4.118 1.7082-4.2561 3.7249-.0588.8498-.806 3.893-1.675 3.9397-3.546.1862-4.4803 4.6354-4.327 5.5044.7745 4.3673 3.0913 6.1723 4.5804 10.3588-2.1754-.0287-9.1051-5.4341-10.8193-1.2083-1.8622 4.5886 5.2492 9.2718 5.5276 13.8306-2.3679-2.7793-5.532-2.24-6.6654-.2085-.906 1.8242.782 3.4313 3.399 5.6246-3.127.2659-10.1046-3.224-11.7927 2.3134-.5395 1.772 1.0855 3.4515 2.418 4.764-.6581-.4339-2.3266 3.5356-2.4278 5.0758-.099 1.5412.706 3.108 2.0307 3.9472-.7798-.9371-2.4745-.5701-3.1488.4414-.6755 1.0115-.5656 2.3453-.2143 3.5036-1.6849.1755-4.6989-2.0847-6.0356-.1138-1.6588 2.4496 3.9135 7.7487 6.9123 9.877" id="Stroke-35"/><path d="M201.0705 226.4087c1.6773 5.8275 3.3535 11.655 5.0319 17.4825 2.5074 8.717 5.018 17.4394 7.0128 26.2912 3.5368 15.6917 5.4432 31.9268 3.5688 47.9096-.6725 5.7467-1.8318 11.435-2.2506 17.2065-.3762 5.2022-.1482 10.4281-.016 15.6421.7449 29.1732-1.5185 58.424-6.7411 87.1238-.7342.2038-1.5771-.3892-1.6464-1.1569" id="Stroke-37"/><path d="M223.7546 253.3816c2.4663 3.9423-.141 8.6633-1.543 12.974-1.3174 4.048-1.5227 8.2907-1.7192 12.49-2.4272 51.7004-4.8531 103.443-3.5066 155.1725" id="Stroke-39"/><path d="M216.4158 135.4368c.9445-3.2488-1.8713-6.9872-5.354-7.1083-3.4814-.121-6.566 3.4139-5.8648 6.7195-1.9431-2.724-6.0794-3.7159-9.1119-2.1863-3.0325 1.5297-4.5631 5.3795-3.3742 8.4848-1.5307-1.6453-4.656-1.1954-5.8947.6652-1.2387 1.8607-.6194 4.5461 1.1125 5.9911-3.3333-2.6586-9.2966-.6673-10.2267 3.417-.5242-1.9013-1.096-3.8894-2.4983-5.3162-1.4013-1.4257-3.9129-2.0341-5.4778-.7798-1.3492 1.0808-1.4886 3.0325-1.2464 4.711.2422 1.6796.7543 3.3967.3152 5.0378-.8073 3.0196-11.6976 1.2683-12.6532 4.2483-.4833 1.5082 1.065 3.2424.271 4.622-.877 1.5244-3.3333.721-4.634-.4873-1.3016-1.2083-2.85-2.7936-4.562-2.2484a44.1238 44.1238 0 0 0 1.179 9.4189c-1.5019 1.3304-3.8266-.0022-5.8494-.2175-1.3614-.1435-2.8379.3396-3.6364 1.4182-.7984 1.0777-.7221 2.7519.3263 3.6046-1.6058-.4746-3.3013.935-3.6176 2.5322-.3152 1.5971.3805 3.2189 1.2442 4.6125.5906.9512 1.2962 1.9731 1.1204 3.07-.1715 1.0669-1.1746 1.865-2.2473 2.1584-1.0728.2946-2.2141.1832-3.3234.0696" id="Stroke-41"/><path d="M129.0584 205.1573c-1.0341 1.4319-2.1023 2.9447-2.3332 4.7043-.2298 1.7597.7022 3.8115 2.4183 4.1684 1.2245.2556 2.4544-.3935 3.4523-1.158a31.1047 31.1047 0 0 0-.5373 6.4985c.0202.868.1022 1.8027.6607 2.4615.5586.6588 1.7608.7936 2.2012.0486-1.4522 2.565.4692 6.0014 3.1427 7.182 2.6757 1.1817 5.7408.7634 8.626.3246 2.6885 3.0621 7.2047 4.3247 11.0614 3.0934" id="Stroke-43"/><path d="M235.3996 185.0812c2.6928 1.2343 7.671 2.6071 10.5512 1.7205 1.9884-.6116 3.7157-1.892 5.2447-3.321.5353-.5006 1.0966-1.045 1.8129-1.1793 1.7554-.3278 2.917 2.0868 2.3893 3.8183-.5266 1.7314-1.9722 2.9888-2.9322 4.5168 1.3122-.8163 2.9062-1.3146 4.4005-.9406 1.4943.373 2.7827 1.8085 2.6386 3.364-.0737.8019-.4941 1.5224-.9189 2.2011a50.647 50.647 0 0 1-3.3386 4.7181c3.5358-1.0417 7.3827-.9713 10.8784.2014 1.5897.5324 3.2985 1.5334 3.5673 3.211.1744 1.078-.3132 2.1484-.8604 3.09-1.1768 2.0186-2.7069 3.8238-4.4949 5.3088-.494-.4642-.9882-.9284-1.4823-1.3937.882.8151 2.5302 1.6698 3.6517 2.0813 1.1216.4114 2.2529 1.5026 1.8985 2.6577-.1268.4125-.4248.7458-.7206 1.055-1.944 2.0196-4.2662 3.6642-6.805 4.8181.739-.6204 1.9981-.1122 2.3319.8008.3348.9142-.091 1.9757-.8008 2.6303-.7109.6556-1.6525.9823-2.579 1.2386-2.9128.8063-6.0542 1.0704-8.9312.142" id="Stroke-45"/><path d="M196.2877 198.641c2.8816-.2774 5.7552 2.048 5.981 4.8407.0586.7216-.0554 1.4935-.5193 2.0623-.4639.5677-1.3465.8515-1.9989.4934 2.3522 1.3494 4.0396 3.7326 4.491 6.3419.1536.8865.1615 1.8308-.2257 2.6485-.3882.8166-1.2483 1.4695-2.176 1.4193.3803 1.4847-.289 3.1682-1.6005 4.0252-1.3116.857-3.1762.8275-4.4584-.0677.807 1.6998 1.5892 3.7828.5012 5.3298-.9696 1.3789-2.9741 1.607-4.6898 1.4477-1.2302-.1147-2.737-.665-2.7822-1.8593" id="Stroke-47"/><path d="M206.792 230.4955c2.6003 10.936 6.296 21.628 11.0186 31.877 1.5202-.2765 1.9192-2.1744 1.9808-3.6701.1352-3.2397.2714-6.4804.4065-9.72 1.7235 1.4642 4.9855-.0126 4.9293-2.2331 1.3158.7227 2.477 1.6968 3.8285 2.3567 1.3515.6588 3.0166.9699 4.3595.2932 1.3417-.6756 2.0013-2.609.9687-3.6806 1.665.706 3.6156-1.0191 3.567-2.7798-.0487-1.7597-1.4867-3.226-3.0988-4.042 1.2499-1.3208 2.569-2.7987 2.6511-4.5877.0833-1.79-1.8748-3.667-3.5182-2.8479" id="Stroke-49"/><path d="M181.2417 222.3219c.9026.9777.8874 2.586.1812 3.715-.7051 1.128-1.9667 1.8161-3.263 2.1069-1.5285.343-3.5072-.0686-3.9736-1.5701a26.7692 26.7692 0 0 1 .0173 3.4276c-.0206.3462-.064.7273-.32.9614-.256.233-.639.2406-.985.234-1.5078-.0271-3.0146-.0544-4.5225-.0816 3.4507 2.7558 4.3153 8.2554 1.8778 11.9432.8038-1.6572 2.815-2.2527 4.6028-2.6785 1.6206-.3843 3.2402-.7687 4.8609-1.153 1.05-.2494 2.1793-.4943 3.1817-.0958 1.0034.3974 1.701 1.7279 1.0642 2.6022-.4763-1.0148.1746-2.2723 1.1325-2.8505.9578-.577 2.1262-.65 3.2413-.7066.421-.0218.8722-.036 1.228.1905.4773.3038.6194.9266.7192 1.4862.37 2.0579.7388 4.1147 1.1076 6.1725.4035-3.5985 4.7069-6.155 8.0437-4.7766" id="Stroke-51"/><path d="M140.8457 233.765c-.1555 1.0045-.667 1.9221-.9308 2.9057-.2649.9826-.2198 2.1642.5522 2.8461.712.6275 1.778.6212 2.7355.5793 1.0777-.0471 2.1554-.0953 3.233-.1425-.876 1.8384-.3999 4.2058 1.125 5.5822 1.5248 1.3775 3.9772 1.6572 5.7851.66-.2917 1.258.2488 2.5947 1.1238 3.5605.875.9658 2.0481 1.6205 3.2256 2.205 2.6014 1.2884 6.0007 2.2323 8.229.3928" id="Stroke-53"/><path d="M173.2803 252.7528c-1.503-.7406-3.2966.8248-3.5113 2.5297-.2147 1.7027.6095 3.342 1.4079 4.8508-.9315-.5018-1.9077-.9956-2.9589-1.0429-1.05-.0472-2.1962.4707-2.5831 1.4778-.2818.7371-.1174 1.5642.0503 2.337.256 1.1721.511 2.3441.766 3.5173-2.0016-1.6404-4.663-2.3948-7.1959-2.0406-.7592.105-1.5588.3391-2.0474.947-.4898.608-.4787 1.682.189 2.0695-2.9891-1.442-6.6938-1.1685-9.4548.6956" id="Stroke-55"/><path d="M159.3852 275.4503c1.2862 3.4497 4.0701 6.4757 7.5857 7.1627 3.5144.6882 7.563-1.5425 8.3021-5.1596.0702 2.5887 2.594 4.5261 5.0877 4.7837 2.4937.2577 4.9334-.7238 7.2588-1.6875.7618 1.8526 3.1519 2.0411 5.0477 2.5017 1.897.4618 3.9418 2.649 2.6772 4.1804-.504.61-1.446.9123-1.5657 1.7042-.3389 2.2508 5.3434.7373 4.9377 2.9769-.1241.6881-.8784.996-1.487 1.305-2.2228 1.1242-3.5565 4.169-2.3685 6.4132 1.188 2.244 5.0338 2.3522 5.9262-.0346.1694 1.702.397 3.54 1.5505 4.768 1.1525 1.2258 3.562 1.2392 4.1533-.358-.0097 1.759.0475 3.7052 1.2128 4.9868 1.1643 1.2815 3.8134.977 3.9925-.7719" id="Stroke-57"/><path d="M264.3017 230.624c.7061-.163 1.5951-.267 2.0225.3043.2512.3365.2358.7876.3195 1.1948.2677 1.3042 1.6292 2.1787 2.9864 2.349 1.355.1705 2.7143-.2089 4.0262-.584.5685 1.601-.478 3.3103-1.671 4.5427-1.1942 1.2324-2.6405 2.3715-3.1352 3.994-.4935 1.6235.693 3.8236 2.4092 3.546-.2765 2.2515-1.691 4.3359-3.688 5.5029-1.0929.6376-2.3927 1.0534-3.155 2.0479-.7623.9945-.4307 2.8463.8405 2.932.5761.0386 1.1423-.3065 1.7096-.1983 1.486.283.7546 2.5527-.4318 3.4678-2.1943 1.6954-4.9108 2.7445-7.7022 2.975-.4572.0374-.9683.0781-1.269.4136-1.1435 1.2816 2.6382 2.3297 2.3265 3.9993-.1553.8316-1.2305 1.0974-2.0974 1.1617a44.8708 44.8708 0 0 1-8.675-.2047c.8846 2.2697 1.7747 4.5587 2.1613 6.9581.2952 1.8379.2468 3.859-.8614 5.3764-1.1082 1.5164-3.5658 2.1787-4.9902.9366-1.93-1.6846-.7182-5.2596-2.6713-6.9206" id="Stroke-59"/><path d="M232.4516 272.9982c3.0772.9423 5.3726 4.0397 5.3999 7.285.011 1.3704-.3718 2.784-1.2762 3.8069-.9054 1.0228-2.3806 1.5757-3.6786 1.1718 1.1886-.4667 2.6168.4513 2.947 1.695.3303 1.2435-.2635 2.604-1.2258 3.4482-.9623.8441-2.2341 1.2469-3.4928 1.4521 2.736.6202 3.8668 4.575 2.1127 6.783-1.754 2.208-5.4567 2.2046-7.471.236.1006 1.2017.2012 2.4034.3029 3.605.1247 1.483.163 3.2044-.9437 4.192-.8596.768-2.1795.8044-3.2533.395-1.0739-.4104-1.9596-1.1939-2.8203-1.9608" id="Stroke-61"/><path d="M282.8065 371.8987c-.7863-1.4566-1.5736-2.9152-2.361-4.3728-.1223-.2266-.253-.4627-.4778-.6122-.5406-.3608-1.2944-.0524-1.8726.259-1.832.9873-3.6628 1.9736-5.4946 2.9609-.0126-1.9946-.4496-3.9863-1.2788-5.8333-1.7022-.0667-3.6826-1.192-4.8934-.102-1.1135 1.0017-.229 2.8725-1.0884 4.0616-2.0254-1.985-5.6943-2.3459-8.1369-.7997-.4914-2.482-3.6209-4.231-6.2735-3.5065" id="Stroke-63"/><path d="M244.7505 366.9946c-.846 2.8776-.2405 6.136 1.588 8.5244-2.4752-.1266-4.358 2.8605-3.5065 5.1662.8493 2.3058 3.7362 3.4753 6.1324 2.8487-1.9499.2779-3.9507.5836-5.6622 1.5493-1.7116.9667-3.095 2.7553-2.9931 4.7037.1018 1.9496 2.1481 3.737 4.02 3.1309-.8753 2.8744.7377 6.2745 3.5304 7.4418 2.7916 1.1663 6.3772-.0622 7.844-2.6887 1.4754 2.5063 4.4544 4.0642 7.376 3.856 2.9226-.208 5.646-2.1715 6.7444-4.8614-.1094 1.957 2.054 3.1942 3.9269 3.8293 6.5549 2.222 13.62 2.9581 20.4987 2.1384" id="Stroke-65"/><path d="M293.4322 35.9638c20.1968 3.5076 39.8477 10.1506 58.0325 19.6167" id="Stroke-67"/><path d="M292.6148 40.0506a1271.0793 1271.0793 0 0 1 62.1194 19.6167" id="Stroke-69"/><path d="M319.5877 19.123a392.8878 392.8878 0 0 1 14.1124 4.5804c13.9573-5.1714 28.414-9.2911 43.1028-12.2604" id="Stroke-71"/><path d="M319.5877 23.7034c2.8313 2.5512 6.6672 3.6034 10.339 4.6304a385.4213 385.4213 0 0 1 58.3192 21.5252" id="Stroke-73"/><path d="M292.6148 40.0506c-.868 11.6122-1.4618 23.2487-1.712 34.8928v14.9662l-1.5574-.0915" id="Stroke-75"/><path d="M230.4955 102.17V69.6444c5.5111-1.885 11.1316-4.2804 16.8463-5.4076 2.4589-.4845 4.9513-.8281 7.3658-1.5012 2.2597-.6308 4.4306-1.5446 6.661-2.273 3.5135-1.1467 7.159-1.8307 10.8057-2.43l.0065 36.5425" id="Stroke-77"/><path d="M198.6184 107.8915v-31.523c9.4934 0 19.26-3.0314 28.2406-6.0756 0 .8303.367 1.5045.367 2.3358v28.5024" id="Stroke-79"/><path d="M215.783 74.3797v28.6076" id="Stroke-81"/><path d="M198.6184 89.9096c8.9892-3.616 18.3077-6.3578 27.7903-8.1736" id="Stroke-83"/><path d="M68.6582 102.17c4.3432-1.5348 8.6864-3.0685 13.0297-4.6032 1.4078-.4973 2.8157-.9946 4.2225-1.4918 1.1556-.408 2.3102-.816 3.4724-1.204a105.934 105.934 0 0 1 20.9691-4.7036c4.0508-.484 7.9733-2.6373 11.9577-3.5282 1.472-.3286 2.9647-.5888 4.3922-1.0805 1.161-.4002 2.2656-.9493 3.417-1.375 1.3915-.516 2.8418-.8467 4.2877-1.1764 3.7159-.849 7.4329-1.6968 11.1488-2.5447 2.6483-.6042 5.2934-1.4708 7.8787-2.311 2.22-.72 4.4465-1.4421 6.7306-1.9162 1.7308-.3595 3.4865-.5745 5.2412-.7906l8.6918-1.065" id="Stroke-85"/><path d="M102.17 65.3888c-1.875 2.0535-3.791 4.1418-6.2376 5.5548-1.299.7501-2.7373 1.3034-3.8872 2.2461-.872.7153-1.5561 1.6365-2.519 2.236-1.2373.7715-2.9329 1.0236-3.7034 2.2235" id="Stroke-87"/><path d="M53.575 98.0832c-2.8259.7272-5.655 1.4544-8.4145 2.3995-1.5684.5358-3.1125 1.1431-4.7053 1.603-2.4362.703-4.9787 1.0606-7.3419 1.977-1.4467.56-2.8967 1.3423-4.444 1.2224.0409 1.1783-.144 2.252-.0156 3.4238 2.7074-.1904 5.179-1.1717 7.736-2.075 3.3383-1.1794 6.8493-1.8175 10.1953-2.9716 2.4274-.8384 4.8028-1.9562 7.3608-2.1971" id="Stroke-89"/><path d="M34.3291 106.2568v11.443c11.807 0 22.6314-6.7165 34.3291-8.2791" id="Stroke-91"/><path d="M4.2562 165.924a229.1191 229.1191 0 0 1-.9868-12.0198c8.0375-3.1875 16.633-5.2525 25.2743-6.047 6.2642-.5765 12.659-.5162 18.7012-2.2268 2.8177-.7977 5.5114-1.9699 8.3116-2.8268 2.0333-.622 4.1167-1.0769 6.1979-1.5297 2.3009-.5014 4.6029-1.004 6.9038-1.5054" id="Stroke-93"/><path id="Stroke-95" d="M45.7722 116.0651v28.6076"/><path d="M60.5006 112.7957c-.0746 9.268.112 18.5393.5591 27.7902" id="Stroke-97"/><path d="M46.5895 128.3255c7.1927-3.2062 14.5668-5.9374 22.0687-8.1736" id="Stroke-99"/><path d="M90.727 200.8209c7.45-.6406 14.84-1.926 22.0464-3.8372 0 .648.0223 1.3703.0223 2.0193v33.9446" id="Stroke-101"/><path d="M90.727 212.5136c6.5662-.7384 13.1117-1.8287 19.6166-3.2695" id="Stroke-103"/><path d="M100.5353 199.4358c.0577 5.9936.1162 11.9883.1747 17.982" id="Stroke-105"/><path d="M142.2206 241.1874c-1.1413.355-2.3516.4233-3.5473.4885-5.7434.3147-12.7703 1.08-18.5214 1.08v-42.161c.07-1.386.11-2.7743.18-4.1604 4.1764-.5167 8.7228-.7002 12.9159-1.0681-.1678-.0065-.3345-.012-.5012-.0174" id="Stroke-107"/><path d="M122.604 232.9476c6.4963-1.456 13.043-2.5476 19.6166-3.2695" id="Stroke-109"/><path d="M133.2297 241.1212c-.6592-6.209-.9209-12.5145-.7807-18.7993" id="Stroke-111"/><path d="M120.1519 247.4563a115.5107 115.5107 0 0 0 24.7176-2.2483c-.0376 7.5152.9916 15.3887.4754 22.886" id="Stroke-113"/><path d="M145.4373 268.6624c.4197 9.0734 1.1908 17.0736.7258 26.1438-8.417 1.2096-17.5142 1.5455-26.0112 1.8954a785.3233 785.3233 0 0 0 .9031-35.1464" id="Stroke-115"/><path d="M122.604 261.5552c7.5308-1.929 15.2003-3.0238 22.886-3.2695" id="Stroke-117"/><path id="Stroke-119" d="M134.153 246.8427v47.4068h-.106"/><path d="M120.1519 285.2586c7.8517-1.0258 15.7022-2.0516 23.5528-3.076.8153-.1075 1.7853-.1304 2.6027-.1934" id="Stroke-121"/><path d="M112.5654 272.9982a178.6954 178.6954 0 0 1-.1228 20.2948c-2.5783.1285-5.2391.1675-7.8205.1192" id="Stroke-123"/><path d="M114.4304 285.2586c-3.4877.5123-7.067.713-10.6257.5936" id="Stroke-125"/><path d="M57.2152 405.8845a3051.4407 3051.4407 0 0 1 98.0832-.1525" id="Stroke-127"/><path d="M168.3761 405.4105h3.2695" id="Stroke-129"/><path d="M196.1664 405.4105c4.0871.1262 8.1732.2532 12.2604.3785" id="Stroke-131"/><path d="M217.4177 406.4954c45.5865-.621 91.1796-.1615 136.7563 1.3849l-1.8873.1333c5.7207.494 11.4392.9896 17.16 1.4837" id="Stroke-133"/><path d="M294.2495 400.5063c25.502.763 51.003 1.526 76.504 2.2879-.4383 2.9112-.0405 5.4145.3279 8.3378" id="Stroke-135"/><path d="M319.5877 351.4647c.2722 15.2578.5445 30.5144.8174 45.7722" id="Stroke-137"/><path d="M290.9801 351.4647c.3581 11.5585.4065 47.3664.4065 47.3664 2.0858.0911 1.2496 0 2.5277 0a802.2898 802.2898 0 0 0 1.1426-47.0073" id="Stroke-139"/><path d="M213.331 128.3255c2.1795.1572 4.3592.3133 6.5388.4694-.407 5.0408-.6534 10.0207-1.0614 15.0604-1.5753 0-3.54-.0022-5.1153-.0022" id="Stroke-141"/><path d="M206.792 306.51c.071 12.8053.1428 25.6095.2137 38.4159 1.2493 0 2.623-.0011 3.8731-.0011" id="Stroke-143"/><path d="M222.203 307.3273a298.1898 298.1898 0 0 1-1.1568 35.9638h-1.9938" id="Stroke-145"/><path d="M207.6094 335.3119a16.7985 16.7985 0 0 1 4.0868-.1237" id="Stroke-147"/><path d="M217.4177 333.7555c1.1009.0737 2.225-.0203 3.2695-.2727" id="Stroke-149"/><path d="M206.792 311.9392c2.18-.1753 4.36-.3506 6.539-.5251" id="Stroke-151"/><path d="M219.0524 308.962h3.2695" id="Stroke-153"/><path d="M168.3761 85.8228c-3.6769 23.337-4.1396 46.867-1.9537 70.293" id="Stroke-155"/><path d="M166.7414 82.5533a51.8348 51.8348 0 0 0 .3182-8.1736" id="Stroke-157"/><path d="M165.1067 85.8228a170.5428 170.5428 0 0 1 16.307 2.5977c.2257 7.78-.5654 15.7756-.7145 23.5578" id="Stroke-159"/><path d="M68.6582 152.8463a504.1573 504.1573 0 0 1-65.4179 11.8919c-.8525 0-1.658 1.1157-2.5105 1.1157C.6235 181.3361.1063 196.8172 0 212.2983v193.1122" id="Stroke-161"/><path d="M13.8951 248.4774v-74.1207c12.0627 0 24.771-3.7062 36.1956-7.6153.3706 11.9344 1.0324 23.8818 1.403 35.8162v6.9071" id="Stroke-163"/><path d="M114.4304 355.5515v41.6854h19.0764c.822 0 2.179-.1155 2.9923 0V356.092" id="Stroke-165"/><path d="M53.9458 413.584H154.481" id="Stroke-167"/><path d="M167.5588 413.584h3.2694" id="Stroke-169"/><path d="M195.349 414.4014h15.5298" id="Stroke-171"/><path d="M217.4177 414.4047h93.4345c15.0354 0 30.074-.1473 45.0004 1.5443.4547.0524.97.1392 1.213.5023.4179.6244-.3295 1.3627-1.0186 1.7208-3.7413 1.9518-8.1997 2.1798-12.481 2.3624-15.9417.6798-31.8844 1.3607-47.826 2.0405" id="Stroke-173"/><path d="M345.5398 407.8626c8.6272 1.4658 17.5347 3.0394 24.8468 7.92 1.1395.7618 2.3443 1.8141 2.3294 3.2027-.016 1.4397-1.3375 2.479-2.5883 3.157-4.6383 2.5181-9.9914 3.245-15.2257 3.7685-20.6782 2.0741-41.5126 1.6421-62.2872 1.208" id="Stroke-175"/><path d="M319.5877 81.736c7.3558 1.3268 14.7201 2.6569 21.9382 4.6121 13.874 3.7575 27.0804 9.7937 40.9985 13.3698" id="Stroke-177"/><path d="M321.2224 85.8228c9.2298 1.7544 18.4823 3.5132 27.47 6.2999 11.9681 3.7096 23.383 9.2127 35.4667 12.4994" id="Stroke-179"/><path d="M321.2224 92.3617a705.2404 705.2404 0 0 1 58.0326 17.9819" id="Stroke-181"/><path d="M326.4424 82.0897V71.3973a53.3672 53.3672 0 0 0-.3158-6.0085c7.969 1.4337 15.6155 6.938 23.5242 8.687.6053 4.9708-.4792 9.2124-.9398 14.199" id="Stroke-183"/><path d="M340.203 74.3797a96.1943 96.1943 0 0 0-.1545 8.1736" id="Stroke-185"/><path d="M327.7613 72.745c3.7662 1.0141 7.5324 2.0283 11.2985 3.0439 3.412.9197 7.3095-1.2353 10.7702-1.7703" id="Stroke-187"/><path d="M305.6926 84.188c.4103-9.0966.9865-17.0511.7913-26.1555 3.1632.8434 5.6113 1.8926 8.7756 2.737.0934.7276.148 1.5459.2414 2.2734v18.6216l-9.8083 2.5236z" id="Stroke-189"/><path d="M319.5877 80.8556V66.5712c.1175-.3524.2364-.7058.3538-1.0582.971.0646 1.9461-.1777 2.9156-.1132a670.1446 670.1446 0 0 1-.8251 16.3362" id="Stroke-191"/><path d="M301.6058 87.089V58.2584c-1.2943-.2683-2.5627-.5152-3.7897-1.0432-.1654.5663-.2837 1.157-.2971 1.7521V88.275" id="Stroke-193"/><path d="M326.1266 107.8915v52.311" id="Stroke-195"/><path d="M326.1266 167.5588v51.4936" id="Stroke-197"/><path d="M326.1266 228.8608v53.9457" id="Stroke-199"/><path d="M327.7613 289.3454v52.311" id="Stroke-201"/><path d="M335.1175 108.7089v52.311" id="Stroke-203"/><path d="M335.1175 170.8282v51.4937" id="Stroke-205"/><path d="M333.4828 229.6781v52.311" id="Stroke-207"/><path d="M333.4828 289.3454v53.9457" id="Stroke-209"/><path d="M340.0217 112.7957v50.6763" id="Stroke-211"/><path d="M348.1953 113.613v53.9458" id="Stroke-213"/><path d="M340.0217 170.8282v53.9458" id="Stroke-215"/><path d="M347.378 173.2803v51.4937" id="Stroke-217"/><path d="M340.0217 230.4955v52.311" id="Stroke-219"/><path d="M348.1953 232.9476v52.311" id="Stroke-221"/><path d="M340.0217 289.3454v52.311" id="Stroke-223"/><path d="M348.1953 289.3454v52.311" id="Stroke-225"/><path d="M356.3689 118.5172v50.6763" id="Stroke-227"/><path d="M362.9078 120.1519v50.6763" id="Stroke-229"/><path d="M369.4467 121.7866v49.859" id="Stroke-231"/><path d="M378.4376 123.4213v50.6763" id="Stroke-233"/><path d="M356.3689 174.915v51.4937" id="Stroke-235"/><path d="M363.7251 176.5497v51.4937" id="Stroke-237"/><path d="M370.264 179.0018v51.4937" id="Stroke-239"/><path d="M378.4376 180.6365v50.6763" id="Stroke-241"/><path d="M355.5515 233.765v51.4936" id="Stroke-243"/><path d="M363.7251 234.5823v52.311" id="Stroke-245"/><path id="Stroke-247" d="M370.264 236.217v51.4937l.8174-.012"/><path d="M375.9855 287.7107v-50.6763" id="Stroke-249"/><path d="M356.3689 290.9801v51.4937" id="Stroke-251"/><path d="M363.7251 292.6148v51.4937" id="Stroke-253"/><path d="M369.4467 292.6148v51.4937" id="Stroke-255"/><path d="M375.9855 293.4322v50.6763" id="Stroke-257"/><path d="M322.0398 349.83c19.3078 2.0458 38.668 3.1356 58.0325 3.2695" id="Stroke-259"/><path d="M397.7726 383.3523a281.057 281.057 0 0 0-39.5788-2.3308c-3.3598.0406-6.7502.1456-10.0118 1.0306-2.3806-1.491-5.3366-1.8393-7.9541-.9375-.0404-.6203-.0808-1.2394-.1201-1.8596-2.1275.1944-4.255.3888-6.3813.582-1.5041.1372-3.518.977-3.1797 2.5837-1.5696-.8135-3.6916.1551-4.2669 1.9467-.5741 1.7928.5294 3.996 2.2213 4.4314 1.1516.2958 2.8632 1.0819 4.0454 1.0819h65.5077" id="Stroke-261"/><path d="M328.5787 388.246v4.0867h42.2309c9.0957 0 18.15-1.2981 27.2447-1.4354" id="Stroke-263"/><path d="M321.2224 393.9674h8.1736" id="Stroke-265"/><path d="M370.264 393.9674v8.1736" id="Stroke-267"/><path d="M321.2224 397.2369v3.2694" id="Stroke-269"/><path d="M168.3761 281.9891v72.745" id="Stroke-271"/><path d="M181.4539 112.7957v34.329" id="Stroke-273"/><path d="M185.5407 281.9891v69.4756" id="Stroke-275"/><path d="M168.3761 296.3162c2.278-.1347 4.5569-.2693 6.8348-.4057 3.1365-.1846 6.3673.6665 9.5124.608" id="Stroke-277"/><path d="M168.3761 291.4363a83.4816 83.4816 0 0 1 6.3491-.4412c3.2891-.105 6.7058.3735 9.9981.4522" id="Stroke-279"/><path d="M176.5497 290.9801v6.5389" id="Stroke-281"/><path d="M88.2749 310.2123v30.6268l22.8926-1.3987.8108-35.6636c-2.452 0-5.1766-.5363-7.6287-.5363" id="Stroke-283"/><path d="M89.0922 318.7703c7.274-1.9866 14.6795-3.9834 22.0687-3.0192" id="Stroke-285"/><path d="M88.2749 331.0307c5.2291-.8539 10.4583-1.7078 15.6863-2.5617 2.1085-.3444 4.2314-.6907 6.3824-.7077" id="Stroke-287"/><path d="M100.5353 340.839V306.51" id="Stroke-289"/><path d="M145.0223 299.2864c-5.2864-.4687-10.5889.3896-15.8282 1.2436-2.921.4774-6.0827 1.3195-9.0422 1.3195v38.9896c2.1407 0 5.1687-1.3822 7.303-1.5446 6.8426-.5206 11.1914-.8508 18.0352-1.3714l-.4678-38.6367z" id="Stroke-291"/><path d="M132.4123 338.387v-38.416" id="Stroke-293"/><path d="M120.1519 328.5787c8.4713-.5553 16.927-1.6474 25.3382-3.2695" id="Stroke-295"/><path d="M120.1519 314.6835c7.9004-1.0887 15.802-2.179 23.7034-3.2694" id="Stroke-297"/><path d="M181.4539 112.3084c5.9089-.314 11.768-1.5336 17.3081-3.6025 3.2598-1.2184 6.4175-2.7304 9.7694-3.6672 5.0295-1.4051 10.3225-1.472 15.4962-2.1854 7.4108-1.022 14.5765-3.3737 21.9483-4.6407 5.2843-.9076 10.65-1.254 15.9494-2.0603 4.9709-.7554 9.8713-1.9134 14.7641-3.0693 13.8316-3.269 29.3136-8.0791 43.1463-11.347 1.2568 31.5113 2.2859 63.0777.6799 94.574-1.181 23.1516-1.2026 47.0522-.6224 70.2265l2.056 82.2103c.1496 5.966.2906 12.015-1.1245 17.8138" id="Stroke-299"/><path d="M104.622 54.7631c3.7356-2.5756 7.4852-5.161 10.847-8.2151 3.5899-3.2633 6.6963-7.0215 9.9657-10.61 8.3588-9.1733 17.8106-17.256 27.2352-25.3123 17.628 4.735 34.8583 9.2149 52.4874 13.95" id="Stroke-301"/><path d="M108.7089 53.9458c.6238 9.21.8915 18.5068.7997 27.7902" id="Stroke-303"/><path d="M104.622 52.311c.1757 9.5359.3521 19.0718.5278 28.6076" id="Stroke-305"/><path d="M111.161 54.3237c15.4137-12.4248 29.9631-25.9443 43.5056-40.4286 15.1332 3.9008 30.1833 7.8299 45.3176 11.7317.532 11.0322 1.3717 23.0084 1.9037 34.0405" id="Stroke-307"/><path d="M205.8207 58.0325a745.6085 745.6085 0 0 1-.6541-35.1464" id="Stroke-309"/><path d="M101.8353 72.639A245.6377 245.6377 0 0 1 86.021 85.0055c.2982-1.7622-.6088-3.7178.0443-5.4185.5962-1.5524 2.187-1.9633 3.0202-3.2772 1.6181-2.55 2.1807-6.4304 3.0203-9.3385 2.5388-8.798 4.2011-17.8727 4.9512-27.0266 6.7136-1.525 12.9026-2.5478 19.6173-4.0716 1.6845-.3823 3.389-.768 5.1124-.723" id="Stroke-311"/><path d="M132.4123 76.8318V45.1677c3.3749-1.5275 7.1788-2.5352 10.7575-3.4823 0 .959.6855 1.8048.6855 2.7628v29.131" id="Stroke-313"/><path d="M150.3942 71.1103V39.9232c3.9572 0 7.6034-3.6659 11.4108-4.7767l.0323 32.0184" id="Stroke-315"/><path d="M168.3761 66.2061v-29.404c3.36-3.1907 7.6727-5.6348 12.2604-5.7424-.1865 6.6956-.4795 13.39-.6671 20.0857v12.551" id="Stroke-317"/><path d="M132.4123 55.5805a111.8666 111.8666 0 0 1 10.6257-3.2695" id="Stroke-319"/><path d="M150.3942 49.859l10.6257-3.2695" id="Stroke-321"/><path d="M168.3761 45.7722c3.84-.847 7.658-1.938 11.443-3.2695" id="Stroke-323"/><path d="M68.6582 101.4133v8.1129c8.1485 0 15.4028-5.1153 23.3677-6.7843 21.9748-4.6064 43.9497-9.2129 65.9245-13.8183 3.5636-.747 7.1707-1.5098 10.4257-3.1008" id="Stroke-325"/><path d="M88.2749 108.7089v107.8915" id="Stroke-327"/><path d="M147.1248 92.3617v80.1012" id="Stroke-329"/><path id="Stroke-331" d="M90.727 107.8915V143.038"/><path d="M90.727 194.5316v-46.5895" id="Stroke-333"/><path d="M90.727 201.8879v13.8951" id="Stroke-335"/><path d="M92.3617 353.0995h73.8603c6.8432 0 14.9917-2.2439 21.7868-2.902l26.9568-.3675" id="Stroke-337"/><path id="Stroke-339" d="M217.4177 353.0995h102.17l-.0413-3.2695"/><path d="M120.1519 143.038v46.5895" id="Stroke-341"/><path d="M122.604 100.5353v35.1464" id="Stroke-343"/><path d="M90.727 148.8633c6.8687-2.5354 14.801-1.3493 21.9246-3.3732l.144 45.9194c-2.249 1.3493-4.8635 1.3493-7.478 1.6867-1.4846.185-2.9248.631-4.3761 1.001-3.3347.838-6.7802 1.2623-10.2146 1.2516" id="Stroke-345"/><path d="M112.7957 138.1338c-3.3961 1.1288-6.9398 1.8585-10.5176 2.4424-2.0445.3308-4.1116.6227-6.1674.9049-1.7946.2433-3.5892.4865-5.3838.7395" id="Stroke-347"/><path d="M113.3 136.4991c.4445-3.4715.3334-6.998.1667-10.5026-.3668-7.8908-.6002-15.9799-1.4004-23.8265-1.8894.6502-3.7678 1.3004-5.646 1.9396-1.2226.4188-2.434.8486-3.6789 1.1461-.2334.0551-.4779.1103-.7113.1543-3.7344.7715-7.68.6282-11.3032 1.7413" id="Stroke-349"/><path d="M122.604 101.3526c3.8164-1.6557 7.828-2.6593 11.8593-3.4117 4.0117-.7487 8.1215-1.2734 11.8441-3.1272" id="Stroke-351"/><path d="M122.604 136.4991c3.1691-.7626 7.3732-.9446 10.3056-2.2954 2.3742-1.0943 1.9205-1.649 1.9194-4.3042-.001-3.2454 0-6.4897 0-9.7351-.1276-7.36-.1777-14.7212-.3053-22.0812" id="Stroke-353"/><path d="M122.604 126.6908c7.911-3.908 17.2532-3.0601 25.3381-6.5389" id="Stroke-355"/><path d="M132.4123 135.6817c4.1173-.8196 8.2092-1.9099 12.2604-3.2694" id="Stroke-357"/><path d="M102.17 106.2568v34.329" id="Stroke-359"/><path d="M113.613 128.3255c-3.5864 1.3944-7.5091 1.9557-11.4878 2.4117-3.833.4473-7.7221.7893-11.3983 1.6751" id="Stroke-361"/><path d="M110.3436 156.933c-3.1258 1.1201-6.4489 1.6801-9.8343 2.1001-3.2504.4035-6.5631.667-9.7824 1.1694" id="Stroke-363"/><path id="Stroke-365" d="M100.5353 147.1248V193.7142"/><path d="M112.7957 180.6365c-3.8332.5661-7.6664 1.1322-11.5107 1.7098a1661.1239 1661.1239 0 0 0-10.558 1.5597" id="Stroke-367"/><path d="M122.604 154.481l8.9918-1.2405c4.9042-.676 9.8074-1.352 14.7116-2.029" id="Stroke-369"/><path d="M134.047 140.5859v46.5895" id="Stroke-371"/><path d="M120.1519 190.4448a63.403 63.403 0 0 0 15.5298-3.2694" id="Stroke-373"/><path d="M122.604 142.2206c7.5213-1.851 15.7724-1.2465 22.886-4.0868" id="Stroke-375"/><path d="M69.4756 110.3436V204.34" id="Stroke-377"/><path d="M165.1067 11.9055c4.3315-3.5164 8.2517-7.5192 11.659-11.9055 14.8702.1508 29.642 2.9801 44.379 4.9375 4.7147.6276 9.4304 1.2542 14.1462 1.8808 5.4658.7265 10.9316 1.453 16.3985 2.1794 22.6706 3.013 45.3467 6.027 67.8983 9.8016" id="Stroke-379"/><path d="M168.3761 12.603c3.6572-2.3327 6.982-5.2102 9.839-8.512 16.8612-.1374 33.7493 3.1578 50.4426 5.5846 5.0018.7277 10.0057 1.4554 14.96 2.4655 4.9584 1.0124 9.866 2.306 14.8657 3.0825 4.3392.6745 8.726.9559 13.1032 1.2937 16.0978 1.2394 32.1501 3.2375 48.0011 6.3688" id="Stroke-381"/><path d="M206.792 24.5208a215.6897 215.6897 0 0 0 31.6588 9.5007c-.117 4.771.3157 9.4307.1977 14.2027" id="Stroke-383"/><path d="M186.4576 64.7508c-.1186 1.978.0718 5.554-.0479 7.532-5.2808-.5701-9.14-2.4942-14.3556-1.5689-5.4734.9707-12.9624 2.7587-18.3727 4.0252-10.678 2.4995-19.606 4.6135-31.3349 7.6183-15.0224 3.8492-29.5598 8.195-44.7987 12.1078-3.9016 1.0009-7.379 2.222-11.309 3.1052-4.0136.9016-10.0668 1.1045-13.7302 2.9649a18.1266 18.1266 0 0 1-.1207-4.335c12.2825-2.7867 24.528-4.539 36.6625-7.9024 25.074-6.951 50.7376-12.0796 75.8193-19.0048 14.9583-4.1299 30.5768-5.7257 45.336-10.5055 9.4229-3.0523 18.5369-7.8689 28.4449-8.1 4.602-.1079 8.2438-3.6018 12.6392-4.96 5.8324-1.8032 11.6756-3.6084 17.6515-4.8684 7.7075-1.625 15.7305-2.3754 22.8562-5.7127" id="Stroke-385"/><path d="M326.1266 107.8915c2.7524.0989 5.4923.3728 8.1736.8174" id="Stroke-387"/><path d="M340.0217 112.7963c2.7723-.0153 5.5485.262 8.1736.8167" id="Stroke-389"/><path d="M356.3689 118.5172c2.7448.0559 5.4825.2786 8.1736.6656" id="Stroke-391"/><path d="M369.4467 121.7866c2.778.0103 5.5528.2879 8.1736.8174" id="Stroke-393"/><path d="M326.1266 161.0199c2.7568.179 5.4897.4525 8.1736.8174" id="Stroke-395"/><path d="M340.0217 162.6546c2.801.816 5.5388 1.9109 8.1736 3.2695" id="Stroke-397"/><path d="M356.3689 167.5588c2.2004.0533 4.3951.265 6.5389.6326" id="Stroke-399"/><path d="M369.4467 170.8282c2.6788.3902 5.4152.6642 8.1736.8174" id="Stroke-401"/><path d="M327.7613 167.5588c2.18.2549 4.36.5106 6.5389.7664" id="Stroke-403"/><path d="M340.0217 170.8282c2.7904.1022 5.5487.3786 8.1736.8174" id="Stroke-405"/><path d="M355.5515 174.915c2.7239.2727 5.4477.5447 8.1736.8174" id="Stroke-407"/><path d="M369.4467 179.0018l8.1736.8174" id="Stroke-409"/><path d="M326.1266 219.0524c2.725 1.0899 5.4486 2.1797 8.1736 3.2695" id="Stroke-411"/><path d="M340.0217 222.3219c2.687.391 5.4207.6645 8.1736.8173" id="Stroke-413"/><path d="M356.3689 227.226c2.7245.2363 5.4478.4726 8.1736.7089" id="Stroke-415"/><path d="M370.264 228.8608c2.1578.31 4.3462.4962 6.5389.5589" id="Stroke-417"/><path d="M326.1266 228.8608c2.0481.5573 4.296.8382 6.5389.8161" id="Stroke-419"/><path d="M340.0217 230.4955c3.5459.1634 7.0882.3726 10.6257.6275" id="Stroke-421"/><path d="M355.5515 233.765c2.7126.3082 5.4395.552 8.1736.7316" id="Stroke-423"/><path d="M370.264 236.217l6.5389.7912" id="Stroke-425"/><path d="M326.1266 281.9891a87.4662 87.4662 0 0 0 8.1736.5878" id="Stroke-427"/><path d="M340.0217 284.4412c3.525.337 7.07.6092 10.6257.8174" id="Stroke-429"/><path d="M355.5515 284.4412c2.7292.045 5.4551.1592 8.1736.3447" id="Stroke-431"/><path d="M370.264 285.2586l4.0868.5198" id="Stroke-433"/><path d="M327.7613 289.3454c2.18.1643 4.36.3303 6.5389.4954" id="Stroke-435"/><path d="M340.0217 289.3454c2.7234.2722 5.449.5444 8.1736.8173" id="Stroke-437"/><path d="M355.5515 290.9801c2.7246.1541 5.4501.3074 8.1736.4616" id="Stroke-439"/><path d="M366.9946 292.6148c2.7318.1542 5.4581.3684 8.1736.642" id="Stroke-441"/><path d="M327.7613 339.2043c1.34.3329 2.7096.5437 4.0868.6276" id="Stroke-443"/><path d="M340.839 341.6564c2.725.0991 5.4487.1982 8.1737.2981" id="Stroke-445"/><path d="M356.3689 343.2911c2.137.4404 4.3348.6818 6.5389.7165" id="Stroke-447"/><path d="M369.4467 343.2911c2.7249.1338 5.4486.2668 8.1736.4006" id="Stroke-449"/><path d="M216.6004 433.2007c.2214 2.7246.4428 5.4503.6643 8.1736" id="Stroke-451"/><path d="M185.5407 353.0995v35.1464" id="Stroke-453"/><path id="Stroke-455" d="M168.3761 353.9168v32.3965l.1417 18.2798"/><path d="M185.5407 388.246v12.2603" id="Stroke-457"/><path d="M92.3617 356.3689H74.6619c-.5179-.5773-.2048-1.9811.0086-2.7333v-37.3173" id="Stroke-459"/><path d="M78.4665 357.1863v31.0596" id="Stroke-461"/><path d="M80.1013 397.6104c2.5128-.1449 5.031-.2295 7.544-.3735h65.201" id="Stroke-463"/><path d="M88.2749 85.0054v4.0868" id="Stroke-465"/><path d="M92.3617 81.736v4.0868" id="Stroke-467"/><path id="Stroke-469" d="M173.2803 66.2061v8.1737"/><path d="M188.8101 72.745v38.416" id="Stroke-471"/><path d="M12.2604 300.7884v72.745" id="Stroke-473"/><path d="M45.7722 331.8481v35.1465" id="Stroke-475"/></g></g></g></svg>