<?xml version="1.0" encoding="UTF-8"?>
<svg width="28px" height="28px" viewBox="0 0 28 28" version="1.1" xmlns="http://www.w3.org/2000/svg" xmlns:xlink="http://www.w3.org/1999/xlink">
    <!-- Generator: Sketch 50.2 (55047) - http://www.bohemiancoding.com/sketch -->
    <title>Group 5</title>
    <desc>Created with Sketch.</desc>
    <defs></defs>
    <g id="Page-1" stroke="none" stroke-width="1" fill="none" fill-rule="evenodd">
        <g id="Homepage-Copy-5" transform="translate(-1293.000000, -36.000000)">
            <g id="Group-5" transform="translate(1294.000000, 37.000000)">
                <circle id="Oval" stroke="#FFFFFF" cx="13" cy="13" r="13"></circle>
                <path d="M10.7,11.4425069 L11.685354,11.4425069 L11.685354,10.5181257 C11.685354,10.1108354 11.6960034,9.48178023 12.0031558,9.09288024 C12.3260022,8.68072197 12.7699159,8.4 13.5327525,8.4 C14.7759352,8.4 15.3,8.57146217 15.3,8.57146217 L15.0533813,9.98048092 C15.0533813,9.98048092 14.6425369,9.86581222 14.2597173,9.86581222 C13.8763373,9.86581222 13.5327525,9.9983303 13.5327525,10.3682991 L13.5327525,11.4425069 L15.1043865,11.4425069 L14.9950896,12.8185314 L13.5327525,12.8185314 L13.5327525,17.6 L11.685354,17.6 L11.685354,12.8185314 L10.7,12.8185314 L10.7,11.4425069 Z" id="Fill-1" fill="#FFFFFF"></path>
            </g>
        </g>
    </g>
</svg>