<?xml version="1.0" encoding="UTF-8"?>
<svg width="13px" height="20px" viewBox="0 0 13 20" version="1.1" xmlns="http://www.w3.org/2000/svg" xmlns:xlink="http://www.w3.org/1999/xlink">
    <!-- Generator: Sketch 50.2 (55047) - http://www.bohemiancoding.com/sketch -->
    <title>Shape</title>
    <desc>Created with Sketch.</desc>
    <defs></defs>
    <g id="Mobile" stroke="none" stroke-width="1" fill="none" fill-rule="evenodd">
        <g id="12-Меню" transform="translate(-1304.000000, -40.000000)" fill="#FFFFFF" fill-rule="nonzero">
            <g id="Group-5" transform="translate(1290.000000, 30.000000)">
                <g id="Group-48" transform="translate(9.333333, 9.333333)">
                    <path d="M18.5949276,15.4231342 L18.5110102,15.1806463 C18.3243295,14.6176266 17.7123724,14.0359402 17.1418407,13.8778964 L15.037327,13.30581 C14.4682176,13.1500774 13.6544676,13.3594987 13.2395031,13.7788746 L12.4725121,14.5374491 C9.71212694,13.7925635 7.54556417,11.6208396 6.79973036,8.85907385 L7.55765397,8.09818828 C7.97172952,7.68112343 8.18027852,6.8688603 8.02915606,6.29606279 L7.45346836,4.19704971 C7.30003462,3.6258522 6.7127905,3.01003266 6.15754878,2.81714461 L5.91717517,2.74087827 C5.35944438,2.54905689 4.55102809,2.74318938 4.14139732,3.16096533 L2.99500008,4.29980482 C2.79782971,4.50229283 2.6676866,5.07722366 2.6676866,5.08042364 C2.62306102,8.69374124 4.04450115,12.1755039 6.60255999,14.7301594 C9.15297382,17.2803705 12.6184786,18.6979643 16.2160822,18.6661423 C16.2388395,18.6661423 16.8319507,18.5354762 17.0390774,18.3344104 L18.174096,17.1964598 C18.5949276,16.780106 18.780186,15.9806428 18.5949276,15.4231342 Z" id="Shape" transform="translate(10.666667, 10.666667) scale(-1, 1) rotate(20.000000) translate(-10.666667, -10.666667) "></path>
                </g>
            </g>
        </g>
    </g>
</svg>