<?xml version="1.0" encoding="UTF-8"?>
<svg width="52px" height="52px" viewBox="0 0 52 52" version="1.1" xmlns="http://www.w3.org/2000/svg" xmlns:xlink="http://www.w3.org/1999/xlink">
    <!-- Generator: Sketch 50.2 (55047) - http://www.bohemiancoding.com/sketch -->
    <title>Group 14</title>
    <desc>Created with Sketch.</desc>
    <defs>
        <circle id="path-1" cx="16" cy="16" r="16"></circle>
        <filter x="-54.7%" y="-39.1%" width="209.4%" height="209.4%" filterUnits="objectBoundingBox" id="filter-2">
            <feOffset dx="0" dy="5" in="SourceAlpha" result="shadowOffsetOuter1"></feOffset>
            <feGaussianBlur stdDeviation="5" in="shadowOffsetOuter1" result="shadowBlurOuter1"></feGaussianBlur>
            <feColorMatrix values="0 0 0 0 0   0 0 0 0 0   0 0 0 0 0  0 0 0 0.2 0" type="matrix" in="shadowBlurOuter1"></feColorMatrix>
        </filter>
    </defs>
    <g id="Page-1" stroke="none" stroke-width="1" fill="none" fill-rule="evenodd">
        <g id="Homepage" transform="translate(-855.000000, -3379.000000)">
            <g id="Group-22" transform="translate(679.000000, 2799.000000)">
                <g id="Group-14" transform="translate(186.000000, 585.000000)">
                    <g id="Oval-5">
                        <use fill="black" fill-opacity="1" filter="url(#filter-2)" xlink:href="#path-1"></use>
                        <use fill="#A49382" fill-rule="evenodd" xlink:href="#path-1"></use>
                    </g>
                    <g id="Group-21" transform="translate(4.000000, 3.000000)" fill="#F8E4D2">
                        <path d="M11.6535582,0.109990563 C11.432792,0.109990563 11.6295017,0.0997190703 11.5441331,0.165199833 C11.477073,0.127109716 11.4855886,0.109990563 11.3799955,0.109990563 L11.1609325,0.109990563 C10.7394117,0.109990563 10.5544109,0.222976977 10.1763196,0.277116301 L9.68369387,0.330185677 L9.57299145,0.327189825 L9.35563151,0.440176239 C9.35456707,0.438892303 9.25365756,0.384966969 9.24641932,0.384966969 C8.92602098,0.384966969 8.61605422,0.659729386 8.31609325,0.659729386 L8.20241038,0.652453745 L7.87839292,0.8799245 C7.58907642,0.886558172 7.17266502,1.0376347 7.1115658,1.2601837 L6.73411314,1.3228826 L6.67088503,1.4401488 L6.51057941,1.37488203 C6.4137148,1.45962184 6.04137148,1.62246779 5.87404052,1.72475474 C5.81954087,1.75813708 5.32287022,2.17777034 5.30669064,2.20002524 L5.08805336,2.20002524 C4.95372024,2.45510063 4.78894395,2.49426069 4.55263687,2.65111494 C4.22521318,2.86788622 4.25906258,2.95027215 4.03723197,3.17817088 C3.80624712,3.41462919 3.71832385,3.14329061 3.42666556,3.55436429 C3.26444395,3.78311898 3.07199205,3.86850076 3.06390226,4.23463666 L3.15012241,4.23634857 L3.17311445,4.45461778 C2.89210063,4.44841209 3.01600218,4.50447732 2.9025322,4.35939249 L2.62598905,4.3996225 C2.46547054,4.6403606 2.16210335,4.66133156 2.13357618,5.00435661 C1.8893922,5.06983737 1.79848849,5.40237693 1.69630164,5.60973268 C1.57559343,5.85368062 1.40017268,5.96944889 1.22986127,6.18557821 C1.0627432,6.39785572 0.612908186,7.30410092 0.557982756,7.58592498 L0.711475914,8.13930163 C0.59140637,8.20307047 0.579271682,8.21184404 0.494754645,8.30300353 L0.57714279,8.57091829 L0.547338293,8.68904045 C0.424501189,8.71771503 0.42130785,8.74424972 0.273349813,8.74424972 L0.0459840806,8.74489169 L0.10963797,9.45897439 L0.11261842,9.57046288 L0,9.78916006 L0,9.89893664 L0,10.0089272 C0,10.1356089 0.0381071779,10.173913 0.164137621,10.173913 C0.374259323,10.173913 0.487303521,9.85399886 0.492412863,9.62396023 C0.778323142,9.41339464 0.686142092,9.03313544 1.14896335,8.90923556 C1.03230003,8.74938547 1.15662736,8.80523671 0.863053069,8.79582117 L0.905418032,8.58739547 L0.804295632,8.28374449 L1.31310097,7.9193205 C1.32757744,7.74470513 1.53131246,7.56046024 1.64137621,7.47935825 C1.64669844,7.23027456 1.95751677,6.68460154 2.0241511,6.43444791 C2.19914608,6.51576389 2.26876087,6.51940171 2.18850161,6.32424336 C2.59831344,6.10640212 2.3256023,6.0967726 2.55403248,5.86694796 C2.57553429,5.84554902 3.05027735,5.55923117 3.06092181,5.55495139 L3.00897683,5.22433773 L3.12670459,5.19994294 L2.98172701,5.1419518 L3.17311445,5.00435661 C3.13798772,4.85691789 3.11818902,4.90078573 3.11818902,4.78437548 C3.11818902,4.74778329 3.29084221,4.5795876 3.33746496,4.50961306 L3.44667715,4.50961306 L3.50138969,4.50961306 C3.65616019,4.50961306 4.00529858,4.2297149 4.09173162,4.11266269 C4.26693948,3.87427847 4.37082944,3.80301999 4.7680808,3.76985163 L4.63992147,3.72919364 L4.92647041,3.42190484 L5.20194912,3.35193029 L5.14468191,3.24942936 L4.7680808,3.40671159 L4.70527847,3.29950289 L4.70527847,3.46448873 L4.54114085,3.46448873 C4.31994891,3.46448873 4.51708436,3.47476022 4.43128999,3.40992143 C4.43043843,3.41034941 4.32931603,3.46448873 4.3220778,3.46448873 C4.19860203,3.46448873 4.34741162,3.48588767 4.22116829,3.43431622 L3.93121311,3.51306433 L4.0485151,3.35471216 C4.33442538,3.34829247 4.42873532,3.2445076 4.70527847,3.2445076 C4.84535961,3.2445076 4.83726981,3.23124026 4.9266833,3.18480456 L5.02290925,3.20791541 L5.35395205,3.12809736 L5.47125404,2.96995918 L5.68542063,2.96653535 L5.74439096,2.85954064 C6.00028385,2.85397691 6.16825348,2.77587077 6.24106161,2.57450673 L6.40115433,2.63955951 C6.69153529,2.38619604 6.98383224,2.41444264 7.23610602,2.21414854 C7.42238412,2.06649584 7.88797294,1.9357483 8.15195562,1.86941158 C8.53771097,1.77247438 9.87486842,1.33828984 10.2325224,1.35990277 L10.9422952,1.42987731 C11.1241026,1.44849439 11.0091424,1.40698044 11.0517203,1.37488203 C11.1234639,1.41532603 11.1087746,1.41725194 11.2171352,1.41896385 L11.8726213,1.48508658 C12.128727,1.51483111 11.8336625,1.42709545 11.9848139,1.54478963 L12.0912585,1.48508658 C12.1791818,1.52874043 12.1698147,1.53473213 12.3105345,1.53002436 L14.6080354,1.59486316 L14.662535,1.59486316 C15.0031579,1.59486316 15.7073955,1.86983956 16.0850611,1.86983956 C16.2253551,1.86983956 16.2174782,1.88310691 16.3068917,1.92954261 L16.4103559,1.88160898 L17.8299015,2.22484801 L18,2.20002524 C17.9878653,2.0510886 17.7081288,1.51975287 17.63085,1.415968 C17.5256827,1.27666089 17.0835117,1.07979062 16.906175,0.989701073 C16.5981242,0.833060817 15.5283557,0.440176239 15.1006611,0.440176239 L15.0457357,0.440176239 C14.9848494,0.440176239 14.6829724,0.259783157 14.6080354,0.219981125 L14.4962685,0.233676448 L14.0606971,0.165199833 C13.9393502,0.145298817 13.9101844,0.187240744 13.8437629,0.214845379 L13.5116557,0.10335689 L13.2908895,0.175471325 L13.126539,0.0997190703 L12.9666592,0.165199833 C12.9102435,0.0973651867 13.0558598,0.109990563 12.8572341,0.109990563 L12.7475961,0.109990563 C12.4887228,0.109990563 12.3978191,0 12.2553962,0 C12.042294,0 11.9130702,0.109990563 11.6535582,0.109990563 Z M11.7591513,0.395238461 C11.7063547,0.556800474 11.6361013,0.513146632 11.5532874,0.394382503 L11.6079999,0.339173233 L11.7591513,0.395238461 Z M12.0259015,0.408719795 C12.2905229,0.406151922 12.1321333,0.325905889 12.2490095,0.508866844 L12.0259015,0.408719795 Z M11.2158579,0.549952813 L11.1094133,0.444670017 L11.2128774,0.380259202 L11.2158579,0.549952813 Z M14.1156225,0.494743542 L14.2248347,0.494743542 L14.2248347,0.384966969 L14.1156225,0.384966969 L14.1156225,0.494743542 Z M8.96157349,1.0558238 L9.08185592,1.04512433 L9.07121146,1.16602836 L8.96157349,1.0558238 Z M8.57858571,1.11103308 L8.69908103,1.09990563 L8.68843656,1.22080965 L8.57858571,1.11103308 Z M7.10134712,1.85871211 L7.11241736,1.97961614 L6.99213492,1.96870268 L7.10134712,1.85871211 Z" id="Fill-2819"></path>
                        <path d="M19.6875,2.44995949 L19.575,2.26086957 L19.125,2.26086957 C19.2458171,2.51397047 19.155642,2.44309241 19.6875,2.44995949" id="Fill-2820"></path>
                        <path d="M22.5803795,4.89867295 C22.7423895,4.94927301 22.7472373,5.08695652 22.901741,5.08695652 C22.9794621,5.08695652 23.0625,5.00280641 23.0625,4.94560634 C23.0625,4.73147273 22.9766472,4.69993936 22.901741,4.56867252 L22.8212052,4.56977253 L22.5,4.52173913 C22.5060988,4.84623955 22.5603628,4.61688925 22.5803795,4.89867295" id="Fill-2821"></path>
                        <polygon id="Fill-2822" points="2.25 6.90866864 2.38787996 6.92117654 2.37543416 6.7826087"></polygon>
                        <path d="M23.625,7.04124514 C23.625,7.9750006 24.0249365,8.97486043 24.6523477,9.04347826 C24.7075508,8.76925828 24.75,8.93062329 24.75,8.72049689 L24.75,8.65590062 C24.75,7.81087077 24.3199873,7.0681393 23.8696066,6.7826087 C23.8159264,6.829862 23.625,6.96005994 23.625,7.04124514" id="Fill-2823"></path>
                        <path d="M2.25,8.10237865 L2.50111235,8.03910343 C2.46963179,7.98318578 2.46011441,7.91304348 2.37543416,7.91304348 C2.28465302,7.91304348 2.25268439,8.00010823 2.25,8.10237865" id="Fill-2824"></path>
                        <path d="M24.7781709,9.25490771 L24.846761,9.35349448 L24.75,9.46011275 L24.9193318,9.60869565 C25.0050694,9.57074678 25.3125,9.46693953 25.3125,9.4020851 C25.3125,9.19206116 25.1881805,9.12439571 25.0032322,9.04347826 L24.7781709,9.25490771 Z" id="Fill-2825"></path>
                        <path d="M24.75,9.32597695 L24.75,9.3827407 C24.75,9.49186792 24.8778918,9.60869565 24.9652052,9.60869565 C25.1983209,9.60869565 25.229944,9.41090257 25.3125,9.2722934 L25.2531716,9.04347826 C25.0063433,9.05931931 24.75,9.12532368 24.75,9.32597695" id="Fill-2826"></path>
                        <path d="M0,10.4094967 L0,10.5037301 L0,10.5981469 C0,10.675147 0.048125,10.7391304 0.160625,10.7391304 C0.3225,10.7391304 0.495,10.5308635 0.5625,10.4567967 L0.5625,10.36238 L0.5625,10.3154466 C0.5625,10.2382631 0.514375,10.173913 0.4015625,10.173913 C0.1396875,10.173913 0.0915625,10.3077465 0,10.4094967" id="Fill-2827"></path>
                        <path d="M25.875,10.5129775 L25.9259374,10.6827296 C25.8909179,10.751554 25.875,10.7429784 25.875,10.8522619 C25.875,10.9617652 26.0634285,11.3043478 26.1306818,11.3043478 C26.2021135,11.3043478 26.2327556,11.2271678 26.2327556,11.1348156 L26.2327556,10.8522619 L26.2327556,10.7392404 C26.2592191,10.6842688 26.4375,10.4025947 26.4375,10.4001759 C26.4375,10.2601084 26.3037894,10.3579578 26.1818182,10.173913 C25.8461487,10.351801 26.0359701,10.1424693 25.875,10.5129775" id="Fill-2828"></path>
                        <path d="M25.875,13.888064 C26.0386193,14.1338927 25.9760498,14.1219471 26.357411,14.1304348 C26.4090309,13.9141558 26.4375,13.9782851 26.4375,13.8072738 C26.4375,13.7387435 26.265121,13.5652174 26.1962945,13.5652174 C25.9507091,13.5652174 25.963223,13.7091938 25.875,13.888064" id="Fill-2829"></path>
                        <path d="M0,15.0039526 C0,15.1429077 0.0298995246,15.1457068 0.0627160761,15.2608696 L0.250135048,15.2608696 C0.395743302,15.2608696 0.5625,15.1237139 0.5625,15.0039526 L0.5625,14.8498024 L0.312364952,14.8498024 C0.381887424,14.7114471 0.430018366,14.7490349 0.187418971,14.6956522 C0.158005618,14.9873579 0,14.8901893 0,15.0039526" id="Fill-2830"></path>
                        <path d="M24.75,18.329058 C24.75,18.5450966 24.8411368,18.5680193 24.9391333,18.6521739 C25.1939242,18.4794686 25.2902058,18.5721014 25.3125,18.1830435 L25.1277766,18.0869565 L25.002096,18.0869565 L24.9391333,18.0869565 C24.7938534,18.0869565 24.75,18.1431643 24.75,18.329058" id="Fill-2831"></path>
                        <path d="M1.26888195,18.4824144 C1.27441412,18.754924 1.38895055,19.0071989 1.49877439,19.19679 C1.56229191,19.3063217 1.61413041,19.4246511 1.69035143,19.4994318 C1.81492773,19.6208405 1.83603194,19.5601361 1.90876975,19.7739209 C2.02576492,20.1179121 2.39949382,20.7478295 2.6920842,20.916086 L2.90107734,20.800176 C2.93631932,20.8714376 3.00659838,20.9866878 3.00659838,21.082583 C3.00659838,21.1683609 2.90312629,21.1465865 2.8598934,21.3456351 L3.05905156,21.4782609 C3.15002504,21.431413 3.375,21.3825856 3.375,21.2523792 C3.375,21.1036976 3.2891489,21.1056771 3.26947896,20.8564814 C2.96582423,20.7693839 2.78736049,20.192033 2.55091139,20.021357 L2.42735957,20.1781766 C2.30032453,19.8944498 2.58348973,19.8493615 2.16980627,19.835725 L1.84812076,19.2172447 L1.84812076,19.1044138 L1.84812076,18.991363 C1.84812076,18.8255258 1.45595129,18.309539 1.37522257,18.1463412 L1.21601898,18.2000073 L1.21601898,18.0869565 C1.05845455,18.2110045 1.12463571,18.3689237 1.26888195,18.4824144" id="Fill-2832"></path>
                        <path d="M3.85114247,22.6086957 L3.84240591,22.4533331 L3.9375,22.3257432 C3.86323925,22.0964115 3.859375,21.9960445 3.73387097,21.8112593 C3.68985215,21.7460895 3.43094758,21.501909 3.375,21.4782609 L3.41935484,22.0433408 C3.62197581,22.1635062 3.39734543,22.2168519 3.66666667,22.2638732 L3.76444892,22.6086957 L3.85114247,22.6086957 Z" id="Fill-2833"></path>
                        <path d="M3.375,21.5786904 C3.64466003,21.8932357 3.75,21.7050307 3.97433036,21.9446556 L4.10310783,21.8884151 C4.23780907,22.0454869 4.18655563,22.0378542 4.5,22.0434783 C4.34031593,21.8572819 4.01914492,21.7383734 3.83473558,21.5397237 L3.45097871,21.4782609 L3.375,21.5786904 Z" id="Fill-2834"></path>
                        <path d="M20.3023468,22.7671111 L20.25,22.9611286 C20.2786357,23.026261 20.3262403,23.173913 20.3904426,23.173913 C20.542376,23.173913 20.7107247,23.0425442 20.8125,22.9611286 C20.6757053,22.5706097 20.7752918,22.7839462 20.5317972,22.6086957 L20.3023468,22.7671111 Z" id="Fill-2835"></path>
                        <path d="M5.625,22.7583893 L5.74553571,22.7583893 C5.75866801,23.0516487 5.7213035,22.9862854 5.86607143,23.0580683 C5.86560242,23.0598191 5.82589286,23.1984243 5.82589286,23.2086373 C5.82589286,23.3775897 5.81041551,23.1736212 5.86607143,23.3583309 L5.76554683,23.396265 L5.90828238,23.6647213 L5.98676348,23.5836008 L5.98832685,23.7391304 L6.10917524,23.5771812 L6.1875,23.6585935 C6.11808644,23.1030055 5.87123054,23.0008754 5.82370414,22.698862 L5.625,22.6086957 L5.625,22.7583893 Z" id="Fill-2836"></path>
                        <path d="M8.0056631,25.2029775 L7.875,25.4347826 L8.17478377,25.3894772 L8.4375,25.3982744 L8.23247014,24.9852478 L8.23247014,25.2117747 L8.05385091,25.2117747 C8.16366351,24.6527153 7.93222302,25.3059042 8.17316207,24.8722044 L7.93847817,24.8695652 L8.0056631,25.2029775 Z" id="Fill-2837"></path>
                        <path d="M6.86048064,24.124519 L7.01902537,24.0803539 L7.10430574,24.2746804 L7.23531375,24.2272509 L7.31975968,24.4745755 L7.01952603,24.4745755 L7.01952603,24.5241173 C7.11064753,24.5241173 7.60380507,24.8194474 7.79155541,24.8695652 C7.79222296,24.8686051 7.83427904,24.7773946 7.83427904,24.7706738 C7.83427904,24.6742786 7.7546729,24.781619 7.74883178,24.4745755 L7.875,24.4757277 L7.82393191,24.3522574 L7.57393191,24.1694522 L7.44843124,24.227827 C7.39485981,24.0576953 7.40654206,24.1602352 7.2746996,24.0265877 L7.19108812,24.0797778 C7.16471963,24.0384931 6.82943925,23.7863679 6.75,23.7391304 L6.86048064,24.124519 Z M7.57326435,24.4772638 L7.70577437,24.4745755 L7.62366489,24.5707787 L7.57326435,24.4772638 Z" id="Fill-2838"></path>
                        <path d="M19.6226734,24.2104351 C19.5889437,24.1052528 19.6091371,24.0691536 19.4515843,24.0691536 L19.3375249,24.0691536 L19.2698437,24.2071367 L19.1094061,24.2104351 L19.1094061,24.1162474 L18.6354161,24.3251461 L18.5422158,24.3005913 C18.351821,24.4389408 18.0788773,24.5336782 17.7406934,24.5399085 C17.6082159,24.6888862 15.4495199,25.246499 15.00349,25.246499 L14.8892087,25.246499 L14.6628651,25.3430688 L14.4351902,25.287729 L14.0362042,25.3525975 C13.9103838,25.3571786 13.9516582,25.3346395 13.8628961,25.2934095 L13.6334459,25.3850318 C13.5442399,25.3518645 13.5526723,25.3406866 13.4064366,25.3406866 L13.2355694,25.3406866 C13.1022043,25.3406866 13.0880023,25.3546132 13.0074506,25.3875972 L12.8363616,25.3720214 C12.746046,25.3518645 12.7544785,25.3406866 12.6084647,25.3406866 L12.1517833,25.3406866 L11.5249005,25.2926766 C11.4201611,25.2833311 11.415723,25.3115507 11.3535895,25.3406866 C11.2641616,25.2849803 11.4698679,25.2934095 11.2393082,25.2934095 C10.9976532,25.2934095 10.6088749,25.2100333 10.3632256,25.1695363 C10.1262306,25.1305053 9.63670719,25.0108467 9.52841734,25.0108467 L9.47160955,25.0108467 C9.07040454,25.0108467 8.88533541,24.8767117 8.50232664,24.8697485 C8.59264215,25.1488297 8.57067352,24.8712144 8.67319382,25.1052175 L8.32901851,25.0150613 L8.21984104,25.0617886 L8.04808623,24.960088 L8.04608908,25.0579405 L7.875,25.0579405 L7.875,25.1992219 C8.49278471,25.2417346 9.51909732,25.7172539 10.2129956,25.7172539 C10.4244715,25.7172539 10.2580424,25.7894522 10.4981441,25.8114415 L11.751244,25.9179065 C11.9738152,25.925786 11.8582024,25.8814409 12.0379458,25.9527229 C12.2349978,25.918273 12.3432877,25.8907863 12.5512131,26 C12.7014431,25.9382466 12.5041691,25.9527229 12.7223022,25.9527229 L14.3191336,25.9527229 C14.6673032,25.9527229 14.754734,25.8587186 15.0602978,25.8587186 L15.1175494,25.8587186 C16.1349857,25.8587186 19.8694322,24.5454059 20.25,24.1162474 C19.9093752,24.1393362 20.1521397,24.1908279 19.8505702,24.2573456 C19.9000551,24.1052528 20.0187745,23.9328198 20.1929703,23.8805951 C20.1705579,23.8109622 20.1827627,23.7391304 20.0789109,23.7391304 C20.0545013,23.7391304 19.7387299,23.9020347 19.679925,23.9276889 L19.7986444,24.2560629 L19.6226734,24.2104351 Z M19.6226734,24.2104351 L19.5585427,24.3967946 L19.3202163,24.2754868 L19.5097235,24.2130005 L19.6226734,24.2104351 Z M18.7101982,24.4457209 L18.8242576,24.4457209 L18.8242576,24.5399085 L18.8899416,24.4482863 L19.0066639,24.5303798 L18.5451006,24.6936506 L18.5391092,24.5399085 L18.7101982,24.5399085 L18.7101982,24.4457209 Z M17.9117825,24.8226546 C18.0744392,24.6419757 17.8536433,24.7499066 18.0828716,24.68119 C17.9530569,24.883675 18.0981831,24.7669483 17.9117825,24.8226546 Z M18.2295511,24.7880215 L18.1197079,24.6445411 L18.2539607,24.6340961 L18.2295511,24.7880215 Z M16.885248,25.0108467 L16.885248,24.916659 L17.0106246,25.001318 L16.885248,25.0108467 Z M17.4972632,24.984093 L17.6710151,25.0744325 L17.4972632,24.984093 Z M9.01537199,25.1052175 L9.01537199,25.0108467 L9.14074856,25.0956888 L9.01537199,25.1052175 Z M17.0849629,25.2228604 L16.9136519,25.0813958 L16.9547044,25.047862 L17.0849629,25.2228604 Z M8.78725321,25.1992219 L8.9013126,25.1992219 L8.9013126,25.0579405 L8.78725321,25.0579405 L8.78725321,25.1992219 Z M15.8587135,25.3406866 L15.9732167,25.3406866 L15.9732167,25.246499 L15.8587135,25.246499 L15.8587135,25.3406866 Z M10.7717535,25.3969426 L10.8973519,25.3875972 L10.8855909,25.4913135 L10.7717535,25.3969426 Z M13.8628961,25.434691 L13.8628961,25.481968 L13.6347773,25.5288786 L13.6347773,25.434691 L13.8628961,25.434691 Z M14.5472524,25.434691 L14.6613118,25.434691 L14.5472524,25.5288786 L14.5472524,25.434691 Z M11.9238864,25.5759724 L11.8129337,25.4858162 L11.9207798,25.4304764 L11.9238864,25.5759724 Z M14.1449379,25.5768887 L13.9654164,25.5193499 L14.0792539,25.4253455 L14.1449379,25.5768887 Z M12.6084647,25.5759724 L12.4826443,25.566627 L12.5967037,25.4724393 L12.6084647,25.5759724 Z M13.1785397,25.5759724 L13.1785397,25.481968 L13.3039163,25.566627 L13.1785397,25.5759724 Z M12.8931693,25.7643477 L12.8931693,25.6701601 L13.0187678,25.7551855 L12.8931693,25.7643477 Z" id="Fill-2839"></path>
                        <path d="M11.5923735,12.107961 C11.037014,12.3040848 10.9502647,12.2684834 10.672585,12.5358101 C10.5856307,12.5893175 10.4816546,12.5537161 10.3949053,12.6249189 C10.3253828,12.6605204 9.40559436,13.1953844 9.40559436,13.2132904 L8.9195523,13.605538 C8.85023491,13.6767409 8.71118997,13.8907707 8.45094213,14.1580974 C8.10394501,14.8534838 8.53769141,14.0154811 7.89558268,15.4239492 C7.82606021,15.744994 7.68742543,16.0123207 7.61790295,16.3689669 C7.61790295,16.5471847 7.54838048,17.3316799 7.44440439,17.4384842 C7.4962899,17.4563902 7.44440439,17.5454991 7.4962899,17.5990066 C7.34022323,17.9735588 7.35765512,18.4367987 7.35765512,18.8113509 C7.35765512,19.0251701 7.35765512,19.7384625 7.23604206,19.9522817 C7.23604206,20.0057892 7.25326887,20.2198191 7.28813264,20.2554205 C7.28813264,20.5227472 7.34022323,20.9505962 7.35765512,21.271641 L7.4616312,21.5747798 C7.54838048,21.6103812 7.89558268,21.7353022 8.03442254,21.8956139 C8.06908124,21.8956139 8.13860371,21.8598018 8.1732624,21.8598018 C8.72862186,21.8598018 9.09325594,21.0399158 9.96095381,19.5779402 C10.1172256,19.2215046 10.2558603,19.0609822 10.5856307,18.2408855 C10.7767662,17.7416229 10.8807423,16.8680188 10.9676966,16.7610039 C11.0716727,16.4936772 11.0891046,16.4936772 11.0891046,16.4936772 L11.401443,14.7287735 C11.4709655,14.6038525 11.4881923,13.8372633 11.5402829,13.712553 C11.5923735,13.587632 11.5402829,13.4271096 11.5402829,13.2667979 C11.5402829,13.177689 11.5577148,13.070674 11.6098054,12.9636591 C11.7312133,12.7142385 11.6098054,12.4110997 11.5923735,12.107961 M15.8272969,19.0788882 C15.5496172,19.1144897 15.1503244,19.3283089 14.8033273,19.3462149 L14.5603063,19.4888313 C14.4388983,19.5602448 14.2826265,19.7561579 13.9179924,19.9166803 C13.605654,19.9166803 13.3279743,20.0592967 12.9809772,20.0772027 C12.7379561,20.0772027 12.4602764,19.9166803 12.269346,19.8275714 C12.0609836,19.7026505 11.8007358,19.5244327 11.8007358,19.257106 C11.8007358,18.9539673 12.2172554,18.9539673 12.3214366,18.9004598 C12.4081858,18.8827644 13.1372489,18.5617196 13.6230859,18.5617196 C14.2651946,18.5617196 14.3868077,18.4367987 14.5777381,18.2585809 C14.9768258,17.8663333 14.9942577,17.6348187 15.0461432,17.6348187 C15.2372788,17.206759 15.3065962,16.8859248 15.3759135,16.707707 C15.445436,16.2263505 15.4975266,15.7805954 15.4975266,15.192224 C15.4975266,14.9425927 15.4628679,14.5859465 15.3586867,14.2830184 C15.2719375,14.0512931 15.1503244,13.6767409 14.9768258,13.3380007 C14.959394,13.3023993 14.6644874,12.6249189 14.1263548,12.1970699 L14.1263548,12.1791638 C14.0223787,12.090055 14.0916961,12.0723596 13.9528562,11.9653446 C13.5882221,11.7336194 13.2239982,11.7513148 12.755388,11.7513148 C12.6512069,11.7513148 12.6163431,11.8939311 12.6163431,12.0188521 C12.6163431,12.2684834 12.6163431,12.3575923 12.6512069,12.5893175 C12.6684337,12.8566442 12.5816844,13.177689 12.6163431,13.4450156 L12.5295938,13.9977857 C12.4775032,14.5682511 12.2346873,15.3348403 12.0784155,15.8876103 L11.5577148,17.6348187 C11.5577148,17.6525141 11.3667843,18.187378 11.3321256,18.2408855 C11.2972619,18.829257 10.7593343,19.5065266 10.5337452,20.0057892 C10.3774734,20.2377251 10.308156,20.3801308 10.1691111,20.5050518 C9.96095381,20.8081905 9.73536467,21.4498588 9.40559436,21.6994901 C9.11048275,22.3234629 8.58978199,22.3769704 8.22535299,22.6086957 L8.05164935,22.6086957 C7.94767326,22.5910003 7.72208412,22.5910003 7.63512976,22.5551882 C6.90627175,22.2699555 6.75,21.253735 6.75,19.9343757 C6.75,19.774064 6.76743189,19.6493537 6.76743189,19.4174178 C6.78486378,19.2035986 6.87161306,18.9539673 6.87161306,18.6687346 C6.87161306,18.5796257 6.85418117,18.4905168 6.83674928,18.4014079 C6.83674928,17.8130364 6.90627175,17.224665 6.99302103,16.6183875 C6.99302103,16.4759818 7.0972022,16.1193356 7.18395148,15.727088 C7.18395148,15.5309641 7.35765512,15.1743179 7.47906309,14.8355778 C7.99976385,13.8728647 8.1732624,13.6767409 8.5204646,13.2667979 C9.02373347,12.6963325 9.31884508,12.5714115 9.83934076,12.2149759 C10.1691111,12.0367582 10.8286517,11.7157134 10.9849234,11.6086984 C11.1411952,11.5907924 11.3321256,11.4839881 11.6098054,11.3590671 L11.5056242,10.07552 C11.4188749,9.98641108 11.5056242,9.89730219 11.5402829,9.80819331 C11.5751467,9.77238122 11.3667843,9.55856202 11.4363068,9.39803963 C11.3321256,8.73846533 11.401443,8.50674008 11.2105126,7.84716578 C10.4644278,8.11449245 10.6551531,7.98957148 9.71793278,8.47113866 L9.6658422,8.72055928 C10.1346575,8.6314504 10.3253828,8.54234151 10.8114249,8.54234151 C10.8635155,8.54234151 10.9328329,8.59584897 10.9502647,8.64935644 C10.915606,8.77406675 10.6551531,8.80966817 10.5337452,8.80966817 C10.2214067,8.88108168 10.0823618,9.02369803 9.80488714,9.14840834 C9.61375162,9.25542327 9.11048275,9.32662612 8.93698419,9.43364105 C8.71118997,9.5762574 8.5551233,10.0220125 7.47906309,10.1290274 C7.20138336,10.1646289 7.11463409,10.0578246 6.97579422,9.91499758 C6.97579422,9.48714852 7.65256165,8.98809661 8.29467038,8.66705182 C8.58978199,8.32831165 9.30141319,8.00747752 9.37073059,7.98957148 C9.64861539,7.88276721 9.80488714,7.75784624 10.0302712,7.65083131 C10.1172256,7.5975345 11.0891046,7.29439575 11.158422,7.00916305 L11.1411952,6.65251683 C11.2105126,6.36728413 11.2626032,6.2602692 11.6793278,6.20697239 C11.9221438,6.24257381 11.8353945,6.36728413 12.0090981,6.50990048 L12.1477329,6.81303923 C12.4775032,6.7774378 13.1717025,6.42079159 13.9702881,6.27817524 C14.2479678,6.22466777 15.4628679,5.72561587 16.8338346,5.72561587 C16.8338346,5.74331125 18.3091876,5.63629632 18.3091876,5.65420236 C18.51755,5.72561587 19.125,5.86823222 19.125,6.09995746 C19.125,6.17116031 19.0729094,6.36728413 18.7952297,6.43869763 C18.5868674,6.36728413 18.4133688,6.42079159 18.1703478,6.42079159 C17.3719673,6.31377666 17.1984687,6.56340794 16.5214962,6.47429906 C16.4000882,6.50990048 16.2265897,6.58131399 15.4975266,6.68832892 C14.2826265,6.68832892 13.1891344,7.16947478 12.2346873,7.40120002 C12.2865728,7.61544054 12.2346873,7.77575228 12.3560953,7.93627467 C12.3560953,7.93627467 12.3560953,8.45323262 12.512367,9.11280692 C12.4775032,9.16631439 12.4775032,9.23751723 12.4775032,9.34453216 C12.4949351,9.41594567 12.4775032,9.86170077 12.6163431,10.3963541 C12.5816844,10.5391811 12.5816844,10.6638914 12.5816844,10.7709064 C12.5991163,11.0026316 12.5991163,11.020327 12.6163431,11.038233 C12.755388,11.020327 12.9809772,11.020327 13.0156359,10.9847256 C13.1544757,11.0917405 13.3800649,11.1096465 13.5363366,11.1096465 C13.9179924,11.1096465 14.9942577,11.7157134 14.9942577,12.0188521 C15.4800947,12.3040848 15.9835687,13.4985231 16.1049766,13.6767409 L16.1049766,13.6946469 C16.2612484,14.1580974 16.4696107,14.6396646 16.4696107,15.0675137 C16.4696107,15.3527464 16.4173151,15.5844716 16.4696107,15.8697043 C16.3826564,16.0835235 16.4347469,16.3866623 16.313339,16.5827861 C16.1570672,17.224665 15.9835687,17.4384842 15.8272969,17.8663333 C15.7405476,17.9377468 15.6537983,18.0447617 15.6017078,18.2585809 C15.6017078,18.3476898 15.6363665,18.4191033 15.7231157,18.4367987 C15.7231157,18.4014079 16.3305658,18.294393 16.4173151,18.1517766 C16.5040643,18.1338706 16.5735868,18.169472 16.6949948,18.1517766 C16.9554477,18.0447617 16.9901064,18.0089496 17.042197,18.0089496" id="Fill-2840"></path>
                        <path d="M18,23.7477143 L18.0124458,23.7391304 C18.0004881,23.7423187 18,23.7477143 18,23.7477143" id="Fill-2841"></path>
                        <path d="M16.9138016,23.7391304 L16.875,23.7420735 C16.8930586,23.740602 16.9020879,23.7401114 16.9138016,23.7391304" id="Fill-2842"></path>
                        <path d="M9,23.7452618 C9.01122562,23.7432997 9.02147511,23.741583 9.03489705,23.7391304 C9.01976686,23.740602 9.0082972,23.742564 9,23.7452618" id="Fill-2843"></path>
                        <path d="M22.5,16.9565217 C22.5,16.9565217 22.5041486,16.9636341 22.5073211,16.9690296 C22.5043926,16.9641246 22.5,16.9565217 22.5,16.9565217" id="Fill-2844"></path>
                        <path d="M22.5,16.9565217 L22.500244,16.9636341 L22.5,16.9565217 Z" id="Fill-2845"></path>
                        <polygon id="Fill-2846" points="22.5078091 16.9589743 22.5056128 16.9565217 22.5 16.9584838"></polygon>
                        <path d="M22.5004881,16.9565217 L22.5,16.9565217 L22.5004881,16.9565217 Z" id="Fill-2847"></path>
                        <path d="M22.5,16.9653553 C22.5026844,16.9597145 22.5061009,16.9565262 22.5061009,16.9565262 C22.5061009,16.9565262 22.5034165,16.9560357 22.5,16.9653553" id="Fill-2848"></path>
                        <path d="M22.5,16.9565217 L22.5197669,16.9655961 C22.5124458,16.9602005 22.5,16.9565217 22.5,16.9565217" id="Fill-2849"></path>
                        <path d="M22.5,16.9565217 L22.5046367,16.957748 L22.5,16.9565217 Z" id="Fill-2850"></path>
                        <path d="M22.5070953,16.9636341 L22.5000183,16.9565217 C22.5000183,16.9565217 22.4992861,16.95971 22.5070953,16.9636341" id="Fill-2851"></path>
                        <path d="M22.5,16.9565217 L22.5041486,16.9604458 L22.5,16.9565217 Z" id="Fill-2852"></path>
                        <path d="M22.5148862,16.9565217 C22.5148862,16.9565217 22.5058568,16.9700106 22.5,16.9825185 L22.5148862,16.9565217 Z" id="Fill-2853"></path>
                        <path d="M22.506833,16.9575028 L22.5,16.9565217 L22.506833,16.9575028 Z" id="Fill-2854"></path>
                        <path d="M22.5012202,16.9614268 L22.5,16.9565217 L22.5012202,16.9614268 Z" id="Fill-2855"></path>
                        <path d="M22.5087858,16.979085 C22.4975602,16.960691 22.5222078,16.9707464 22.5080537,16.9565217 C22.5065895,16.9626531 22.4902392,16.9572575 22.5087858,16.979085" id="Fill-2856"></path>
                        <path d="M23.6254881,18.0869565 L23.625,18.0916163 L23.6254881,18.0869565 Z" id="Fill-2857"></path>
                        <polygon id="Fill-2858" points="22.5 16.9614268 22.5014642 16.9668224 22.5029284 16.9565217"></polygon>
                        <polygon id="Fill-2859" points="22.5 16.9599553 22.500244 16.9599553 22.5017082 16.9565217"></polygon>
                        <path d="M22.5,16.9621626 L22.5056128,16.9565217 L22.5,16.9621626 Z" id="Fill-2860"></path>
                        <path d="M22.5085412,16.9565217 L22.5,16.9712369 C22.5,16.9712369 22.5053688,16.9633888 22.5085412,16.9565217" id="Fill-2861"></path>
                        <path d="M22.5,16.958729 L22.5024404,16.9565217 L22.5,16.958729 Z" id="Fill-2862"></path>
                        <path d="M22.5,16.960691 L22.5017082,16.9565217 L22.5,16.960691 Z" id="Fill-2863"></path>
                        <polygon id="Fill-2864" points="22.5 16.956767 22.500244 16.956767 22.500244 16.9565217"></polygon>
                        <path d="M22.5,16.969338 C22.5004881,16.9754693 22.513666,16.9668855 22.5256237,16.9565849 C22.5256237,16.9565849 22.5168384,16.9548681 22.5,16.969338" id="Fill-2865"></path>
                        <path d="M22.5,16.9594648 L22.5004881,16.9565217 L22.5,16.9594648 Z" id="Fill-2866"></path>
                        <polygon id="Fill-2867" points="22.5007321 16.9565217 22.5 16.958729 22.5009761 16.956767"></polygon>
                        <path d="M22.5009761,16.9565217 L22.5,16.9660866 L22.5009761,16.9565217 Z" id="Fill-2868"></path>
                        <polygon id="Fill-2869" points="22.5007321 16.9565217 22.5 16.9570122 22.5004881 16.9570122"></polygon>
                        <path d="M23.6244025,17.5530826 C23.6138459,17.5011071 23.5749531,17.4448344 23.5734715,17.3981793 C23.5395792,17.3969515 23.5353196,17.38406 23.5247629,17.3728054 L23.565693,17.3574584 L23.549395,17.3502964 C23.5605072,17.3408835 23.5595812,17.3566399 23.5727307,17.3425205 L23.5460614,17.347227 C23.5606925,17.3410881 23.545691,17.3134634 23.5816205,17.3220578 L23.5655077,17.2749934 C23.5629149,17.2641481 23.5305043,17.2848155 23.53569,17.2692638 C23.5462466,17.2612833 23.5453205,17.2692638 23.5590256,17.2614879 C23.5727307,17.2115587 23.4677202,17.2643527 23.4716095,17.2275197 L23.4779064,17.2267012 C23.4653126,17.2283382 23.4617937,17.2189253 23.4564228,17.2221994 C23.4208637,17.2502334 23.479388,17.2138096 23.4617937,17.2363187 C23.4295683,17.2557583 23.4391989,17.2373418 23.4154928,17.2537121 C23.4236417,17.2402066 23.4040102,17.248801 23.3993801,17.2453223 C23.413826,17.2232225 23.3934536,17.2209716 23.4128999,17.1966209 C23.4004913,17.1996903 23.3682659,17.2185161 23.3615985,17.2115587 C23.3801189,17.1863895 23.3843786,17.1947793 23.3869714,17.1790229 L23.3693771,17.1923237 C23.3671546,17.1835247 23.3725255,17.1802507 23.3804893,17.173498 C23.3758592,17.1655175 23.3536348,17.1882312 23.3577092,17.16961 L23.3771556,17.1597879 C23.3660434,17.1587648 23.3664138,17.1536491 23.3601169,17.143213 C23.3691919,17.1342094 23.3717847,17.1385066 23.3715995,17.1438269 C23.3906755,17.1153837 23.3540052,17.1454639 23.3545608,17.1403483 C23.3484491,17.1481241 23.3504863,17.1573324 23.3325216,17.1700193 C23.3317807,17.1628573 23.3041854,17.1833201 23.3195573,17.1610157 L23.3384481,17.1499658 C23.3186313,17.1538537 23.3154828,17.1659267 23.3125196,17.1495565 C23.3125196,17.1495565 23.3175201,17.1444408 23.3206685,17.1411668 C23.296592,17.1563092 23.3060374,17.1290937 23.2977033,17.1186577 L23.3032594,17.1153837 C23.29474,17.1178392 23.2795533,17.1290937 23.2795533,17.1290937 C23.2767753,17.1440316 23.2712191,17.1481241 23.2584401,17.1657221 C23.2745528,17.1299122 23.2232514,17.1917098 23.2267703,17.1653128 C23.2341784,17.1546722 23.245661,17.1440316 23.2404753,17.1577416 C23.2662186,17.1297076 23.2858502,17.1037199 23.3040002,17.095944 C23.2939992,17.0988088 23.2858502,17.0986042 23.2962216,17.0865311 L23.2741824,17.1141559 L23.2682559,17.1071985 C23.2543656,17.1250012 23.251958,17.1421899 23.2380677,17.1493519 C23.2254738,17.1536491 23.2552916,17.1159975 23.2452906,17.1284798 C23.2280667,17.1331863 23.2204733,17.1579462 23.2182509,17.1413714 L23.2245478,17.1389159 C23.2258442,17.1217271 23.2058423,17.1331863 23.2254738,17.0941024 C23.2312152,17.0863265 23.2378825,17.0752766 23.2386233,17.0803923 L23.2352896,17.0859173 C23.2589957,17.0644313 23.2245478,17.088782 23.2464019,17.0564508 C23.2352896,17.0771183 23.2278815,17.0654545 23.2251034,17.0584971 L23.2141764,17.0830525 C23.1626898,17.1442362 23.2395493,17.0363973 23.2184361,17.0359881 C23.1999157,17.0462195 23.2191769,17.0447871 23.2045458,17.0580879 C23.1997305,17.0501074 23.2067683,17.0267798 23.1913964,17.0318955 C23.1926928,17.0204364 23.191952,17.0038615 23.2025086,16.9756229 C23.1897295,16.976646 23.2084351,16.9801247 23.1721352,16.9635498 C23.1721352,16.9635498 23.1673199,16.9612989 23.161949,16.975009 C23.1562077,16.9995643 23.2073239,16.9592526 23.1943596,16.9977227 L23.1799137,17.0230965 C23.17195,17.0167531 23.1360205,17.0187993 23.1467623,17.0116374 L23.1415766,17.0306677 C23.1312052,17.0386482 23.1204634,17.0660684 23.1160185,17.0548138 C23.1230562,17.0286215 23.1293531,17.0335325 23.1293531,17.0335325 C23.1312052,17.0112281 23.1250935,17.0302585 23.1206486,17.019004 C23.1273159,16.9962903 23.1250935,17.022278 23.1326868,17.0003828 L23.120093,17.0038615 L23.1213894,16.9993597 C23.1078695,17.036602 23.1089807,16.9919931 23.0949053,17.0005875 C23.0689768,16.9938347 23.0554569,17.0458102 23.0408258,17.0754812 C23.0395294,17.064636 23.0398998,17.0544046 23.0423074,17.0445824 C23.0447151,17.0627943 23.0454559,17.048675 23.0486044,17.0388529 C23.0417518,17.0419223 23.0386034,16.9981319 23.0441595,16.9825802 C23.0317508,16.9928116 23.0458263,17.0038615 23.0378625,17.0155253 L23.0234167,17.0112281 C23.0236019,17.0318955 23.0278615,17.0368066 23.0197126,17.0515398 C23.0134157,17.0566555 23.011008,17.0523583 23.0032295,17.050312 C23.0047111,17.0404899 23.0017478,17.0192086 23.0080448,17.0208456 C23.0043407,17.0128651 22.9978585,17.0112281 22.9952657,17.031077 C23.0030443,17.0496981 22.981005,17.048675 22.9869315,17.0803923 L22.9789678,17.0619758 C22.9789678,17.0619758 22.981005,17.0488796 22.9839683,17.0527675 C22.9815606,17.0218687 22.9743377,17.064636 22.9743377,17.064636 C22.9715596,17.0587018 22.9637811,17.0562462 22.9626699,17.0443778 C22.9604474,17.0529722 22.9537801,17.0464241 22.9515576,17.0306677 C22.9478536,17.0370112 22.9524837,17.0509259 22.951928,17.0609527 L22.9387786,17.0595203 C22.9365561,17.0425362 22.9311852,16.9952671 22.9328521,16.9885144 C22.9285924,17.0050893 22.9354449,17.0390575 22.9276664,17.0386482 C22.9287776,17.0050893 22.9141465,17.0147068 22.9165541,16.9743951 C22.9089608,16.9508629 22.8941445,16.9541369 22.8876624,16.9639591 C22.8869216,16.9907653 22.8984042,16.9772599 22.9017379,17.0042708 C22.8819211,17.0169577 22.8952557,17.0912376 22.880069,17.0814154 L22.8848843,17.0879635 C22.880069,17.104743 22.8802542,17.1012643 22.8808098,17.1245919 C22.8761797,17.0916468 22.8511773,17.0392621 22.8385834,17.0511305 C22.8421023,17.0677054 22.8545109,17.0793692 22.859141,17.1055615 L22.8522885,17.1133374 L22.8502512,17.1008551 C22.846362,17.1147698 22.8235819,17.064636 22.8330273,17.1026967 L22.8098768,17.0595203 L22.8196926,17.0779368 C22.8235819,17.0941024 22.8167294,17.1018782 22.817285,17.1086309 C22.8148773,17.1290937 22.8074692,17.1174299 22.7950605,17.1000366 C22.8015427,17.1121096 22.8159886,17.1393251 22.8119141,17.147101 C22.7920973,17.0971718 22.7911713,17.1352326 22.7806147,17.1096541 C22.7806147,17.1096541 22.7665392,17.0990134 22.7752438,17.1192716 L22.7620943,17.088782 C22.7804295,17.1313446 22.7700581,17.1342094 22.7669096,17.1460778 C22.7406107,17.0889867 22.7617239,17.1550815 22.7322765,17.1065847 C22.7506117,17.1450547 22.7270908,17.1297076 22.7435739,17.1618342 C22.7394995,17.1669499 22.7202383,17.1325724 22.7119041,17.1217271 L22.7174602,17.1372788 C22.7046812,17.122341 22.6926429,17.1276613 22.6789379,17.1213179 L22.6937542,17.1567185 L22.6822715,17.1444408 C22.6867164,17.1528305 22.6852348,17.1610157 22.6959766,17.1702239 L22.6917169,17.1706332 C22.7148674,17.2041921 22.6941246,17.1827062 22.6989399,17.2019412 C22.6939394,17.1978487 22.6885684,17.1896636 22.686346,17.1843432 C22.686346,17.1843432 22.6724557,17.1687915 22.6626399,17.1593786 C22.6704185,17.1661314 22.6969026,17.2260873 22.7148674,17.2340678 C22.7250536,17.2467547 22.7287576,17.2598509 22.7222755,17.2561676 L22.6983842,17.2291567 L22.7194975,17.2614879 C22.7193123,17.2690591 22.7031995,17.2524843 22.6976434,17.2522797 C22.6976434,17.2522797 22.6602323,17.1919145 22.6518981,17.2013273 C22.653565,17.1931422 22.6430083,17.1753396 22.6409711,17.1669499 C22.6409711,17.1669499 22.6348594,17.1661314 22.6283773,17.1511935 C22.6276364,17.1673591 22.6398599,17.1708378 22.635415,17.1814784 C22.6150426,17.1567185 22.6059676,17.150375 22.5920773,17.1495565 L22.6124497,17.1620388 L22.6174502,17.16961 C22.6215247,17.1702239 22.6252288,17.1737026 22.6337482,17.1827062 C22.6337482,17.1827062 22.6522685,17.2211762 22.6381931,17.2078754 C22.6780118,17.2379557 22.653565,17.248801 22.6783822,17.2661944 C22.6841236,17.2737656 22.6817159,17.2794952 22.6698629,17.2684453 C22.6580098,17.2453223 22.6406007,17.2469593 22.6255992,17.2303845 C22.6300441,17.2391835 22.646342,17.2422529 22.6522685,17.2539167 C22.6509721,17.2590324 22.6346742,17.2477779 22.6255992,17.2428668 L22.6226359,17.2371372 L22.607264,17.2332493 C22.6180059,17.2449131 22.6315257,17.2461408 22.6331926,17.2571907 C22.627266,17.2539167 22.6293033,17.2649666 22.6200431,17.2563722 C22.6057824,17.2389789 22.582632,17.2211762 22.5828172,17.2123772 C22.5809651,17.2183114 22.5737422,17.2350909 22.6002263,17.2490056 L22.5957814,17.2533028 C22.6083753,17.2586231 22.6322665,17.2666036 22.6289329,17.2788813 L22.6241176,17.2745841 L22.6381931,17.2966839 L22.6233768,17.288908 C22.6296737,17.2940237 22.6328221,17.301595 22.6328221,17.301595 C22.6246732,17.2966839 22.6215247,17.2946376 22.6105977,17.2880895 C22.6068936,17.2964793 22.6202283,17.3054829 22.6268956,17.312031 C22.6261548,17.3171467 22.6198579,17.3146911 22.6061528,17.3017996 C22.5993003,17.3050736 22.5970778,17.3177606 22.5807799,17.3128495 C22.5881881,17.3288105 22.5872621,17.3148958 22.6024487,17.331266 C22.552629,17.3083477 22.5696677,17.3476362 22.5709641,17.3646203 C22.6148574,17.3822183 22.5741126,17.3709638 22.6120793,17.3922451 C22.5998559,17.3826276 22.5737422,17.3893803 22.5665192,17.3715777 L22.5680009,17.3811952 C22.5420724,17.3758749 22.555407,17.3599139 22.5198479,17.3529566 C22.5174403,17.3638018 22.5622596,17.3897896 22.5429984,17.3936775 C22.5129954,17.3777165 22.5507769,17.4061598 22.5172551,17.3904034 C22.5066985,17.3836507 22.5096617,17.3773073 22.5096617,17.3773073 L22.5029944,17.376898 C22.4872521,17.3959284 22.5378127,17.3975654 22.556333,17.4157773 C22.5570739,17.4290781 22.5287377,17.4172097 22.5137362,17.4131171 C22.5068837,17.4133218 22.5100321,17.4217115 22.5174403,17.4274411 C22.5002163,17.4135264 22.5413315,17.4190513 22.5604075,17.4290781 C22.522626,17.4231439 22.552629,17.4464715 22.566334,17.4528149 C22.6091161,17.4476992 22.5713345,17.4415604 22.6161538,17.4405373 C22.6052268,17.4350123 22.5730014,17.4239624 22.5887437,17.4198698 C22.6031896,17.4311244 22.6067084,17.4260087 22.6122645,17.4266226 C22.5933738,17.4213022 22.606338,17.4178236 22.5994855,17.4122986 C22.6150426,17.4161865 22.6400451,17.4337845 22.6500461,17.4294874 L22.6080049,17.4100477 C22.6155982,17.4096385 22.6385635,17.4245763 22.6309701,17.4139356 C22.6518981,17.4268272 22.6657884,17.4282596 22.6694925,17.4386956 C22.7093113,17.4458576 22.6552318,17.4170051 22.643564,17.4008395 L22.6537502,17.4080014 C22.643564,17.4008395 22.6439344,17.3947006 22.6439344,17.3947006 C22.655417,17.3947006 22.6609731,17.4084107 22.6728261,17.4129125 L22.6748634,17.404932 L22.6778266,17.4061598 C22.6730113,17.4012487 22.6702333,17.3971562 22.6807899,17.4022719 C22.6931985,17.4110709 22.7059776,17.4202791 22.7161638,17.4274411 L22.6913465,17.4045228 C22.7041256,17.4129125 22.7170898,17.4127079 22.7243128,17.4231439 L22.7237571,17.410457 L22.7507969,17.4270318 C22.7470928,17.4219161 22.7419071,17.4182328 22.7374622,17.4186421 C22.7446852,17.4204837 22.6994955,17.3726008 22.7493152,17.4110709 C22.7326469,17.388971 22.7428331,17.392859 22.7359806,17.3742378 C22.7545009,17.3992024 22.769132,17.3918358 22.7752438,17.4067737 C22.788208,17.4127079 22.7624647,17.3891757 22.7606127,17.382423 C22.7726509,17.388971 22.7948753,17.4118894 22.8020983,17.4221208 L22.7932085,17.4094338 L22.7978386,17.413731 L22.7867264,17.3989978 C22.8013575,17.4084107 22.8104325,17.4206884 22.8156182,17.4215069 L22.7958014,17.4008395 L22.809136,17.4110709 C22.7993202,17.4022719 22.7967274,17.3930636 22.7967274,17.3930636 L22.8011723,17.39777 L22.7993202,17.3914266 C22.8093212,17.4063644 22.805432,17.3938821 22.8185814,17.4100477 C22.8185814,17.4100477 22.8206187,17.4090246 22.820063,17.401658 L22.8065432,17.3875387 C22.7996906,17.3703499 22.8259896,17.4094338 22.8304344,17.4075922 L22.8156182,17.3904034 C22.8446951,17.4155727 22.8106177,17.3654388 22.8296936,17.3811952 C22.8308049,17.3875387 22.847288,17.4080014 22.8433987,17.4028857 C22.8411763,17.3930636 22.8496956,17.3942914 22.8380278,17.3685083 C22.8576594,17.3953145 22.8634007,17.4034996 22.8743277,17.413731 C22.8743277,17.413731 22.8741425,17.4073875 22.8648823,17.3901988 C22.8735869,17.3994071 22.8687716,17.3801721 22.8808098,17.4012487 C22.8719201,17.38406 22.8846991,17.403295 22.878217,17.3881525 L22.8832175,17.3967469 L22.8721053,17.3764887 C22.900071,17.4200745 22.8667344,17.3451807 22.8911812,17.3832415 L22.8928481,17.3893803 L22.890996,17.3801721 C22.8950705,17.3895849 22.8974782,17.3953145 22.9026639,17.4075922 L22.9122945,17.4077968 L22.9039603,17.3924497 C22.9039603,17.3924497 22.8976634,17.3676898 22.9050715,17.3799674 C22.9145169,17.4143449 22.9084052,17.3797628 22.9184062,17.404932 L22.920073,17.4143449 C22.920073,17.4143449 22.9213694,17.4110709 22.9130353,17.3891757 C22.9135909,17.3799674 22.9302592,17.4305105 22.9245179,17.4057505 L22.9222955,17.4053413 C22.9171098,17.3926543 22.9139613,17.3740332 22.9139613,17.3740332 L22.9197026,17.3899942 C22.9195174,17.3805813 22.9269256,17.3908127 22.9254439,17.3813998 C22.9287776,17.3879479 22.9330373,17.4041135 22.9341485,17.4102523 C22.9332225,17.3887664 22.937297,17.413731 22.9371118,17.3922451 L22.9402602,17.4053413 L22.938223,17.3893803 L22.9471127,17.4165958 L22.9422975,17.3998163 C22.9422975,17.3998163 22.9424827,17.3875387 22.9461867,17.3947006 L22.9493352,17.4143449 C22.9517428,17.4024765 22.9602622,17.445653 22.959151,17.4174143 L22.9606326,17.4305105 C22.9593362,17.3992024 22.9680408,17.4655018 22.9660035,17.4274411 L22.9685964,17.4479039 L22.9684112,17.4350123 L22.9713744,17.4618185 L22.9680408,17.4221208 L22.9717448,17.4495409 L22.971004,17.4366493 C22.979153,17.4878063 22.9730413,17.4493363 22.9789678,17.4876017 L22.9769305,17.4536334 C22.9802642,17.3832415 22.9867463,17.4927173 22.9895244,17.4612047 L22.9871167,17.4880109 L22.9915616,17.4564982 C22.989154,17.4777795 22.9889688,17.4794165 22.9874871,17.4931266 C22.9895244,17.478598 22.9932285,17.4538381 22.9941545,17.4460622 C22.9921172,17.4640695 22.9921172,17.4657065 22.9908208,17.4751194 C22.99008,17.4622278 22.9921172,17.44729 22.9874871,17.461 L22.9898948,17.4513825 C22.99008,17.4378771 22.9913764,17.4509733 22.9985994,17.452201 C22.9948953,17.4638648 22.9908208,17.4671389 22.9908208,17.4671389 C22.9908208,17.4671389 22.9924876,17.4783934 22.9978585,17.4671389 L22.9889688,17.4884202 C22.9917468,17.494559 23.0058223,17.4773703 22.9987846,17.5035626 C23.0013774,17.4935359 23.0106376,17.476961 23.0106376,17.476961 C23.0050815,17.5185005 22.9960065,17.4528149 23.0011922,17.4788027 C22.9971177,17.4876017 22.9961917,17.4898526 22.9961917,17.4898526 C22.9923024,17.5000839 22.9997106,17.482486 23.0050815,17.4712314 L22.9985994,17.4861693 L23.0097116,17.466525 C22.991932,17.5021302 23.0143417,17.4630463 23.0004514,17.4886248 C23.0004514,17.4886248 23.0093412,17.4734823 23.0115636,17.4693898 C23.0035999,17.4843276 23.0167493,17.4630463 23.0034147,17.4855554 L23.0017478,17.4882155 L23.0032295,17.4869878 L22.9898948,17.5086783 C22.9930433,17.5039719 23.0067483,17.482486 23.0171197,17.4659111 C23.0102672,17.4783934 23.0176753,17.4687759 23.0047111,17.4886248 L23.0011922,17.4935359 C23.0086004,17.4876017 22.9606326,17.5516502 22.9871167,17.5172727 L22.981005,17.5248439 L22.9804494,17.5260717 C22.9804494,17.5260717 22.9669295,17.5424419 22.9706336,17.5379401 L22.9873019,17.5191143 L22.9789678,17.5287318 C22.9754489,17.5332337 22.9841535,17.5264809 22.9841535,17.5264809 L22.9797086,17.5305735 C22.9945249,17.5185005 22.971004,17.5397817 22.9817458,17.5311874 L22.9776714,17.5346661 L22.9785974,17.5348707 L22.9689668,17.5426465 C22.9904504,17.5258671 22.941927,17.5651556 22.9597066,17.5508316 C22.9693372,17.5438743 22.981005,17.5352799 22.9935989,17.5262763 C22.9935989,17.5262763 22.9806346,17.5363031 22.9721152,17.5430558 C22.9721152,17.5430558 22.9893392,17.5322105 22.9806346,17.5393725 L22.9698928,17.5461252 L22.9817458,17.540191 L22.9767453,17.5430558 C22.9995254,17.5311874 22.9448903,17.5629047 22.9928581,17.536917 C22.9841535,17.5420327 22.9908208,17.5381447 22.9693372,17.5510363 C22.9847091,17.5444882 22.9913764,17.5430558 23.0013774,17.5412141 C22.9637811,17.5573797 23.0039703,17.5408049 22.9826719,17.550627 L23.0030443,17.5424419 C23.0076743,17.5451021 22.9556321,17.5647463 22.9652627,17.5627001 L22.9441495,17.568225 L22.9672999,17.5627001 C22.9574842,17.5659741 22.9485944,17.5690435 22.9485944,17.5690435 C22.9598918,17.5678158 22.9860055,17.5669972 22.9784122,17.568225 L22.9754489,17.568225 C22.9878576,17.5686343 22.9961917,17.5708852 22.9845239,17.5712944 C22.9754489,17.5706805 22.969152,17.5700667 22.9634107,17.5696574 C22.9889688,17.5719083 22.9602622,17.5692482 22.9674852,17.569862 C22.9624847,17.5692482 22.9798938,17.5710898 22.9798938,17.5710898 C23.0026738,17.5739546 22.9708188,17.5702713 22.9708188,17.5702713 L22.9876723,17.5729315 L22.9787826,17.5714991 L22.9898948,17.5733407 C22.9839683,17.5723176 22.968226,17.5696574 22.9754489,17.5708852 C22.9754489,17.5708852 22.9839683,17.5729315 23.0017478,17.5766148 C22.9930433,17.5747731 22.9860055,17.5733407 22.9811902,17.5721129 L22.9893392,17.5741592 L22.9880428,17.57375 C22.9958213,17.5757962 23.0184162,17.5833675 23.0060075,17.5796842 C22.9826719,17.5719083 22.9924876,17.575387 22.9924876,17.575387 L22.9921172,17.5751824 C23.0043407,17.5792749 23.011934,17.582549 23.0024886,17.5788657 L22.9956361,17.5764101 L22.999155,17.5776379 C22.999155,17.5776379 22.9993402,17.5776379 23.0041555,17.5798888 L23.0026738,17.5792749 L23.0054519,17.5807073 L23.0086004,17.5823443 L23.0095264,17.5829582 L23.0097116,17.5831628 L23.010082,17.5833675 L23.0102672,17.5835721 L23.0104524,17.5837767 L23.0106376,17.5837767 L23.2902951,17.4507686 L23.2899247,17.4509733 C23.2895543,17.4358308 23.2951104,17.4131171 23.2969624,17.3994071 L23.2843686,17.4476992 C23.2751084,17.3899942 23.2412162,17.4180282 23.2282519,17.3691221 C23.2160285,17.376898 23.1989897,17.3963376 23.1888035,17.3865155 L23.1915816,17.3805813 L23.182877,17.3642111 L23.1863959,17.3887664 C23.1826918,17.3938821 23.1765801,17.4014533 23.1765801,17.4014533 C23.1682459,17.3777165 23.1567633,17.3486594 23.1360205,17.3695314 C23.1141664,17.4231439 23.1399098,17.3179652 23.1215746,17.3564352 L23.1275011,17.3382233 C23.1132404,17.3541843 23.1056471,17.3623694 23.0882379,17.392859 C23.1012022,17.3374048 23.0812002,17.3922451 23.0882379,17.3631879 L23.0826818,17.385697 C23.0832374,17.3711684 23.0789777,17.364825 23.0832374,17.348864 L23.0726808,17.3758749 L23.0771257,17.3525473 C23.0713844,17.3492733 23.0543457,17.3650296 23.0611982,17.3171467 C23.0387886,17.3482501 23.0173049,17.3316753 23.0004514,17.3177606 C22.9937841,17.3359724 22.9878576,17.3361771 22.9832275,17.3369956 L22.9845239,17.3081431 C22.978227,17.3155097 22.9663739,17.3492733 22.9660035,17.3304475 L22.9680408,17.3234901 C22.9624847,17.327992 22.9611882,17.3122356 22.9517428,17.3365863 C22.9471127,17.3339262 22.9454459,17.3179652 22.9524837,17.2925913 C22.9422975,17.338428 22.9435939,17.2833831 22.9435939,17.2833831 C22.9435939,17.2833831 22.7174602,17.1069939 22.6039304,17.3410881 C22.597263,17.3631879 22.5885585,17.3764887 22.5848544,17.4039089 C22.5787427,17.4114801 22.5852248,17.3707592 22.5796687,17.3932682 C22.5822616,17.4098431 22.565408,17.4515872 22.5652228,17.4812582 L22.5602223,17.4859646 C22.5561478,17.5019256 22.5692973,17.4687759 22.5620744,17.4980377 L22.5722606,17.4558843 C22.5737422,17.4630463 22.573557,17.4722546 22.5717049,17.4869878 C22.5780019,17.4710268 22.5918921,17.4139356 22.5933738,17.4409465 L22.5909661,17.4429928 C22.5968926,17.4427882 22.5885585,17.4712314 22.5881881,17.478598 L22.5870768,17.4777795 L22.5872621,17.5002886 C22.5867064,17.4851461 22.5772611,17.5164542 22.5772611,17.5164542 C22.5813355,17.5299596 22.5778167,17.5058135 22.5837432,17.5019256 C22.5837432,17.5019256 22.5817059,17.5227976 22.5787427,17.5358938 L22.584484,17.5358938 C22.5802243,17.5555381 22.5811503,17.5338475 22.5791131,17.5547196 L22.5904105,17.5356892 C22.5813355,17.585823 22.6030044,17.5135894 22.596337,17.5614723 C22.5887437,17.5719083 22.5931886,17.5782518 22.5889289,17.5942127 L22.6018931,17.594622 C22.6015227,17.601784 22.5978187,17.6071043 22.5978187,17.6071043 C22.5970778,17.6214282 22.6052268,17.5966683 22.6052268,17.5966683 C22.6033748,17.610583 22.614487,17.5983053 22.607264,17.631455 C22.6107829,17.6556011 22.6194875,17.5903248 22.6233768,17.6111969 C22.6200431,17.631455 22.6161538,17.6142663 22.6152278,17.6359568 L22.6248584,17.6306365 C22.6220803,17.640254 22.616339,17.6627631 22.6143018,17.6576474 C22.6304145,17.6897739 22.6196727,17.7986359 22.6452308,17.7767408 C22.6430083,17.8015007 22.6398599,17.7922925 22.6346742,17.8076396 C22.6556022,17.7794009 22.6437492,17.86514 22.6565282,17.8655492 L22.6609731,17.845905 C22.6650476,17.9113859 22.6931985,17.8800778 22.7070888,17.9105673 L22.7078296,17.8962434 C22.7143118,17.8778269 22.7191271,17.8770084 22.7241276,17.8690279 C22.7224607,17.8790547 22.7130153,17.9105673 22.7202383,17.9038146 C22.7206087,17.896448 22.7196827,17.8884675 22.7224607,17.8790547 C22.728202,17.9347134 22.7657984,17.9310301 22.7878376,17.9629521 C22.8276564,17.9572225 22.8593262,18.0061285 22.8980338,18.0032637 C22.8922925,18.0034684 22.9048863,17.9553808 22.9065531,17.9676585 C22.9006266,18.0531929 22.929148,17.9588595 22.9289628,18.0182016 C22.9554469,17.9971249 22.959151,18.0734511 22.9921172,18.0151322 L22.9876723,18.0386644 C22.988228,18.0501235 22.9960065,18.0325255 22.9960065,18.0325255 L22.9945249,18.0390736 C22.9998958,18.0497143 23.0137861,18.0282283 23.0156381,18.040506 L23.0213794,18.0143136 C23.0260095,18.0132905 23.0193422,18.0351857 23.0267503,18.0214756 L23.0239723,18.0345718 L23.0343437,18.010835 C23.0241575,18.0568762 23.0456411,18.0177923 23.0447151,18.0394829 C23.0521232,18.0327302 23.0669395,18.0155414 23.0734216,18.0270006 C23.0699028,18.050942 23.0804594,18.0533976 23.0843487,18.0671076 C23.0986093,18.0644475 23.1186113,18.0615827 23.1330572,18.0742696 L23.1391689,18.0441893 L23.143799,18.0433708 C23.1423174,18.0499189 23.1408358,18.056467 23.1408358,18.056467 C23.1371317,18.0912537 23.152874,18.0486911 23.151948,18.0705863 C23.1554669,18.0429615 23.1475031,18.0642428 23.1475031,18.0642428 C23.1471327,18.0491004 23.1563929,18.021271 23.1580597,18.037232 L23.1565781,18.0437801 L23.1632454,18.0288422 C23.1597265,18.052579 23.1582449,18.063629 23.154726,18.0869565 L23.1562077,18.0867519 L23.5121691,17.9218219 L23.5121691,17.9214126 L23.5123543,17.9205941 L23.5129099,17.9189571 L23.5140211,17.9122044 C23.5140211,17.9122044 23.5143915,17.9038146 23.5147619,17.8986989 L23.5129099,17.8716881 C23.5110579,17.8540901 23.5116135,17.8383337 23.5219849,17.8246237 C23.5429129,17.8383337 23.5245777,17.7988406 23.5610629,17.8223728 C23.5534695,17.7957711 23.528467,17.8119367 23.5040201,17.7912693 C23.5064278,17.7863583 23.4973528,17.7765361 23.5121691,17.7814472 C23.5208737,17.7877907 23.5377272,17.7865629 23.5399496,17.7924971 L23.5410609,17.7779685 L23.5512471,17.7853351 C23.5369864,17.750753 23.5905102,17.7448188 23.5725455,17.7128969 C23.5580996,17.7075766 23.5662486,17.7216959 23.5518027,17.7161709 C23.5268002,17.6852721 23.5832873,17.7004146 23.5649521,17.6734037 L23.5849541,17.6817934 C23.5718047,17.6715621 23.5543955,17.6658325 23.5725455,17.656215 C23.5973628,17.6576474 23.5912511,17.6697204 23.6018077,17.6777009 C23.6040301,17.6691065 23.600326,17.6461882 23.5771756,17.6500761 C23.570323,17.6390262 23.5925475,17.6380031 23.5997704,17.6328874 C23.5938439,17.6322735 23.5825465,17.6406633 23.5716195,17.6335013 C23.5873618,17.6212236 23.5869914,17.6003516 23.5897694,17.5837767 C23.5958811,17.584186 23.6079194,17.5845952 23.6079194,17.5845952 C23.5762496,17.5706805 23.631255,17.5727268 23.6244025,17.5530826" id="Fill-2870"></path>
                        <path d="M22.5,16.9705011 L22.5073211,16.9776135 C22.5092733,16.9707464 22.5124458,16.9628983 22.5190348,16.9565217 L22.5,16.9705011 Z" id="Fill-2871"></path>
                        <path d="M22.5,16.9611815 L22.5078091,16.9565217 L22.5,16.9611815 Z" id="Fill-2872"></path>
                        <path d="M22.5173265,16.9565262 C22.5082972,16.956281 22.5048807,16.9660911 22.5,16.9734487 L22.5173265,16.9565262 Z" id="Fill-2873"></path>
                        <path d="M22.5,16.9707464 C22.5,16.9707464 22.5004881,16.9633888 22.5009761,16.9565217 C22.5004881,16.9624078 22.5,16.9707464 22.5,16.9707464" id="Fill-2874"></path>
                        <path d="M22.5,16.9565217 L22.5046367,16.9589743 L22.5,16.9565217 Z" id="Fill-2875"></path>
                        <path d="M22.5,16.9631436 L22.5007321,16.9565217 L22.5,16.9631436 Z" id="Fill-2876"></path>
                        <path d="M22.5,16.9655961 C22.5,16.9655961 22.5048807,16.9628983 22.5075651,16.9565217 L22.5,16.9655961 Z" id="Fill-2877"></path>
                        <polygon id="Fill-2878" points="22.5 16.9624078 22.506833 16.961672 22.5031725 16.9565217"></polygon>
                        <path d="M22.5,16.9604544 L22.5087853,16.9580019 C22.5004881,16.9535873 22.5,16.9604544 22.5,16.9604544" id="Fill-2879"></path>
                        <path d="M22.5001367,16.9661523 L22.5006247,16.9651713 C22.5006247,16.9504561 22.4996486,16.9570779 22.5001367,16.9661523" id="Fill-2880"></path>
                        <polygon id="Fill-2881" points="22.5021963 16.9643698 22.5036605 16.9648603 22.5 16.9565217"></polygon>
                        <polygon id="Fill-2882" points="22.507077 16.9631436 22.5053688 16.9565217 22.5 16.9565217"></polygon>
                        <path d="M22.5,16.9565217 C22.5041486,16.9680486 22.506833,16.9756515 22.5090293,16.9815375 C22.5090293,16.9815375 22.5095174,16.9749157 22.5,16.9565217" id="Fill-2883"></path>
                    </g>
                </g>
            </g>
        </g>
    </g>
</svg>