<?xml version="1.0" encoding="UTF-8"?>
<svg width="28px" height="28px" viewBox="0 0 28 28" version="1.1" xmlns="http://www.w3.org/2000/svg" xmlns:xlink="http://www.w3.org/1999/xlink">
    <!-- Generator: Sketch 50.2 (55047) - http://www.bohemiancoding.com/sketch -->
    <title>Group 4</title>
    <desc>Created with Sketch.</desc>
    <defs></defs>
    <g id="Page-1" stroke="none" stroke-width="1" fill="none" fill-rule="evenodd">
        <g id="Homepage-Copy-5" transform="translate(-1247.000000, -36.000000)">
            <g id="Group-4" transform="translate(1248.000000, 37.000000)">
                <circle id="Oval-Copy" stroke="#FFFFFF" cx="13" cy="13" r="13"></circle>
                <path d="M14.6403633,13.0928571 C14.6403633,12.6656087 14.4892578,12.3008788 14.1870466,11.9986677 C13.8848354,11.6964565 13.5201056,11.5453509 13.0928571,11.5453509 C12.6656087,11.5453509 12.3008788,11.6964565 11.9986677,11.9986677 C11.6964565,12.3008788 11.5453509,12.6656087 11.5453509,13.0928571 C11.5453509,13.5201056 11.6964565,13.8848354 11.9986677,14.1870466 C12.3008788,14.4892578 12.6656087,14.6403633 13.0928571,14.6403633 C13.5201056,14.6403633 13.8848354,14.4892578 14.1870466,14.1870466 C14.4892578,13.8848354 14.6403633,13.5201056 14.6403633,13.0928571 Z M15.4745474,13.0928571 C15.4745474,13.7539299 15.2427544,14.3161465 14.7791683,14.7795069 C14.3155823,15.2428672 13.7533657,15.4746602 13.0925186,15.4748859 C12.4316715,15.4751116 11.8694549,15.2433186 11.4058689,14.7795069 C10.9422828,14.3156951 10.7104898,13.7534785 10.7104898,13.0928571 C10.7104898,12.4322357 10.9422828,11.8700192 11.4058689,11.4062074 C11.8694549,10.9423957 12.4316715,10.7106027 13.0925186,10.7108284 C13.7533657,10.711054 14.3155823,10.9428471 14.7791683,11.4062074 C15.2427544,11.8695678 15.4745474,12.4317843 15.4745474,13.0928571 Z M16.1276079,10.614342 C16.1276079,10.7675917 16.0732144,10.89861 15.9644274,11.007397 C15.8556404,11.116184 15.724622,11.1705775 15.5713723,11.1705775 C15.4181226,11.1705775 15.2871042,11.116184 15.1783173,11.007397 C15.0695303,10.89861 15.0151368,10.7675917 15.0151368,10.614342 C15.0151368,10.4610922 15.0695303,10.3300739 15.1783173,10.2212869 C15.2871042,10.1124999 15.4181226,10.0581064 15.5713723,10.0581064 C15.724622,10.0581064 15.8556404,10.1124999 15.9644274,10.2212869 C16.0732144,10.3300739 16.1276079,10.4610922 16.1276079,10.614342 Z M13.0925186,9.28418405 L12.630061,9.28113711 C12.3499684,9.27910581 12.1373598,9.27910581 11.9922353,9.28113711 C11.8471107,9.2831684 11.6526709,9.28926228 11.4089158,9.29941874 C11.1651607,9.3095752 10.9576304,9.32977527 10.7863247,9.36001896 C10.6150191,9.39026264 10.4709102,9.427503 10.353998,9.47174004 C10.1524487,9.55231463 9.97516198,9.66922679 9.82213796,9.82247651 C9.66911394,9.97572623 9.55220178,10.1530129 9.47140149,10.3543365 C9.42716445,10.4712487 9.3899241,10.6153576 9.35968041,10.7866633 C9.32943672,10.9579689 9.30923665,11.1654993 9.29908019,11.4092544 C9.28892373,11.6530094 9.28282985,11.8474493 9.28079856,11.9925738 C9.27876727,12.1376984 9.27876727,12.350307 9.28079856,12.6303996 C9.28282985,12.9104922 9.2838455,13.0646447 9.2838455,13.0928571 C9.2838455,13.1210695 9.28282985,13.2752221 9.28079856,13.5553147 C9.27876727,13.8354073 9.27876727,14.0480159 9.28079856,14.1931405 C9.28282985,14.338265 9.28892373,14.5327048 9.29908019,14.7764599 C9.30923665,15.020215 9.32943672,15.2277454 9.35968041,15.399051 C9.3899241,15.5703567 9.42716445,15.7144656 9.47140149,15.8313777 C9.55197608,16.0329271 9.66888824,16.2102138 9.82213796,16.3632378 C9.97538768,16.5162618 10.1526744,16.633174 10.353998,16.7139742 C10.4709102,16.7582113 10.6150191,16.7954516 10.7863247,16.8256953 C10.9576304,16.855939 11.1651607,16.8761391 11.4089158,16.8862955 C11.6526709,16.896452 11.8471107,16.9025459 11.9922353,16.9045772 C12.1373598,16.9066085 12.3499684,16.9066085 12.630061,16.9045772 C12.9101537,16.9025459 13.0643062,16.9015302 13.0925186,16.9015302 C13.120731,16.9015302 13.2748835,16.9025459 13.5549761,16.9045772 C13.8350688,16.9066085 14.0476774,16.9066085 14.1928019,16.9045772 C14.3379265,16.9025459 14.5323663,16.896452 14.7761214,16.8862955 C15.0198765,16.8761391 15.2274068,16.855939 15.3987125,16.8256953 C15.5700181,16.7954516 15.714127,16.7582113 15.8310392,16.7139742 C16.0325885,16.6333997 16.2098752,16.5164875 16.3628992,16.3632378 C16.5159232,16.2099881 16.6328354,16.0327014 16.7136357,15.8313777 C16.7578727,15.7144656 16.7951131,15.5703567 16.8253568,15.399051 C16.8556005,15.2277454 16.8758005,15.020215 16.885957,14.7764599 C16.8961135,14.5327048 16.9022073,14.338265 16.9042386,14.1931405 C16.9062699,14.0480159 16.9062699,13.8354073 16.9042386,13.5553147 C16.9022073,13.2752221 16.9011917,13.1210695 16.9011917,13.0928571 C16.9011917,13.0646447 16.9022073,12.9104922 16.9042386,12.6303996 C16.9062699,12.350307 16.9062699,12.1376984 16.9042386,11.9925738 C16.9022073,11.8474493 16.8961135,11.6530094 16.885957,11.4092544 C16.8758005,11.1654993 16.8556005,10.9579689 16.8253568,10.7866633 C16.7951131,10.6153576 16.7578727,10.4712487 16.7136357,10.3543365 C16.6330611,10.1527872 16.5161489,9.97550053 16.3628992,9.82247651 C16.2096495,9.66945249 16.0323628,9.55254033 15.8310392,9.47174004 C15.714127,9.427503 15.5700181,9.39026264 15.3987125,9.36001896 C15.2274068,9.32977527 15.0198765,9.3095752 14.7761214,9.29941874 C14.5323663,9.28926228 14.3379265,9.2831684 14.1928019,9.28113711 C14.0476774,9.27910581 13.8350688,9.27910581 13.5549761,9.28113711 C13.2748835,9.2831684 13.120731,9.28418405 13.0925186,9.28418405 L13.0925186,9.28418405 Z M17.7357143,13.0928571 C17.7357143,14.015741 17.7256707,14.6545824 17.7055834,15.0093814 C17.6651833,15.8476281 17.4153343,16.4965131 16.9560366,16.9560366 C16.4967388,17.41556 15.8478538,17.665409 15.0093814,17.7055834 C14.6548081,17.7256707 14.0159667,17.7357143 13.0928571,17.7357143 C12.1697476,17.7357143 11.5309062,17.7256707 11.1763328,17.7055834 C10.3380862,17.6651833 9.68920116,17.4153343 9.2296777,16.9560366 C8.77015424,16.4967388 8.52030528,15.8478538 8.48013084,15.0093814 C8.46004361,14.6548081 8.45,14.0159667 8.45,13.0928571 C8.45,12.1697476 8.46004361,11.5309062 8.48013084,11.1763328 C8.52053098,10.3380862 8.77037994,9.68920116 9.2296777,9.2296777 C9.68897546,8.77015424 10.3378605,8.52030528 11.1763328,8.48013084 C11.5309062,8.46004361 12.1697476,8.45 13.0928571,8.45 C14.0159667,8.45 14.6548081,8.46004361 15.0093814,8.48013084 C15.8476281,8.52053098 16.4965131,8.77037994 16.9560366,9.2296777 C17.41556,9.68897546 17.665409,10.3378605 17.7055834,11.1763328 C17.7256707,11.5309062 17.7357143,12.1697476 17.7357143,13.0928571 L17.7357143,13.0928571 Z" id="Shape" fill="#FFFFFF" fill-rule="nonzero"></path>
            </g>
        </g>
    </g>
</svg>