<?xml version="1.0" encoding="UTF-8"?>
<svg width="7px" height="160px" viewBox="0 0 7 160" version="1.1" xmlns="http://www.w3.org/2000/svg" xmlns:xlink="http://www.w3.org/1999/xlink">
    <!-- Generator: Sketch 50.2 (55047) - http://www.bohemiancoding.com/sketch -->
    <title>Group 4</title>
    <desc>Created with Sketch.</desc>
    <defs></defs>
    <g id="Page-1" stroke="none" stroke-width="1" fill="none" fill-rule="evenodd">
        <g id="Заглушка" transform="translate(-40.000000, -250.000000)" fill="#FFFFFF">
            <g id="Group-4" transform="translate(40.000000, 250.000000)">
                <path d="M2.56714424,79.2084473 C4.5675254,79.1392068 7.15887994,79.0156065 9.1458989,78.9949559 C9.57379279,78.9099237 10.2039417,78.8944357 10.8359127,78.8643708 L10.9078864,78.9639799 L11.4341746,78.9208564 C11.6503992,78.9469734 11.0293609,78.9478845 11.4110944,78.9785568 L11.6072757,78.9114422 C11.6503992,78.9469734 12.9644495,78.9074942 12.0819373,78.9982964 L14.1336414,78.9612467 C14.5873487,78.9566914 14.3951153,78.8725703 14.897716,78.8892731 C15.0009693,78.9172122 14.7182374,78.9126569 14.7610572,78.9481882 C16.270074,78.9986001 16.4929797,78.7243714 17.8996543,78.7474516 L17.780913,78.7626359 C18.0186993,78.7319636 18.4739249,78.7283194 18.4790876,78.7134387 C18.2947501,78.6147407 18.2291538,78.7729612 17.7982231,78.7198161 C17.8322359,78.6332656 18.330585,78.6648489 18.3002164,78.6001638 C18.6300197,78.6256734 18.8216457,78.5740468 19.1083255,78.5643288 C19.598475,78.6101854 20.2990791,78.5603809 20.6695763,78.6217255 C20.90797,78.5907495 21.1727844,78.5023768 21.6872289,78.490533 C22.0580297,78.551574 21.6025004,78.5558256 22.1054048,78.572832 L22.1843632,78.5218127 C22.5961617,78.5227238 22.5320839,78.5379081 22.5178107,78.5615956 C22.9581557,78.5567366 22.8819305,78.4865851 23.4349431,78.5114874 L23.1285237,78.5640251 C23.5363743,78.5397302 23.7027943,78.5458039 24.2719023,78.5427671 C24.2600586,78.5716173 24.0319902,78.5725283 23.8646591,78.5664546 C24.1753301,78.6363024 24.3921621,78.5278865 24.5594932,78.5336565 C24.5115107,78.5127021 24.1170223,78.5078432 24.3083447,78.4562165 C24.5904692,78.4616829 24.9075176,78.381206 25.1106837,78.437388 L24.8036569,78.4890146 C25.3918971,78.4428543 25.1167574,78.422811 25.7927629,78.43344 C25.7563206,78.4376916 25.7745417,78.4498391 25.7599648,78.4601644 C26.1857329,78.390924 26.7463377,78.4416396 27.378005,78.4379953 L27.2586563,78.452876 C27.5131454,78.4328327 27.6522337,78.3866724 27.7898035,78.3881908 C27.4287206,78.3645033 27.5265076,78.3484079 27.4927984,78.3010328 C27.9711042,78.3769544 28.2176974,78.1965648 28.9966526,78.2348292 C28.9848088,78.2633758 28.7983455,78.3004255 28.5836393,78.2730937 C28.319736,78.360859 28.28876,78.4328327 27.8159205,78.4783856 C28.1098888,78.4550018 28.4566985,78.4389064 28.3844212,78.4750451 L28.474616,78.3957829 C28.6562203,78.3942645 28.7950049,78.3933535 28.9289306,78.3924424 C29.0042447,78.3420305 28.5657218,78.3159135 28.9790388,78.2782564 C29.4448934,78.246673 29.2286689,78.3553927 29.3006425,78.3189503 C29.9417241,78.2794711 29.5645458,78.2314887 30.1831547,78.2494062 C30.1215063,78.2566947 30.0015503,78.2715753 29.9481015,78.2648942 C30.3914834,78.2910112 31.0362093,78.2366514 31.1683128,78.3295794 C31.1030202,78.3514448 31.0911765,78.3799913 30.9229343,78.3742212 L30.9296154,78.3596443 C30.4440211,78.4343511 31.3356439,78.3359568 31.1853192,78.422811 C31.1503953,78.3723991 31.7735594,78.3760433 32.0538618,78.3815097 L31.963667,78.3250241 C32.8944653,78.1400791 31.9156846,78.4401211 32.8388907,78.4058046 C33.4243977,78.3593406 32.616896,78.3924424 32.9758532,78.3471932 C33.3724674,78.3529632 33.5212736,78.4027677 34.1004032,78.3714881 C34.262268,78.3924424 34.5923749,78.4197742 34.6215288,78.4841556 C34.9731975,78.4540907 35.6920227,78.5014658 35.8909372,78.4361732 C35.2881201,78.3884945 35.292068,78.5105763 34.5866049,78.4340474 L34.7827862,78.3687549 C35.2702026,78.3669328 35.8936704,78.3283646 36.2304584,78.3474968 C36.162129,78.3359568 36.1314567,78.3198614 36.1742765,78.3058918 C36.8681995,78.2746121 37.067114,78.2093196 37.7428158,78.2211634 C37.8327069,78.2779527 37.4373075,78.2721827 37.1494129,78.2803822 C37.58581,78.3219872 37.6049423,78.2788638 38.2809478,78.2904038 C38.3176938,78.3405121 37.8257221,78.2922259 37.7485858,78.3426379 L38.4968687,78.3186466 L38.4971724,78.3286683 C38.6040699,78.2430288 39.0677988,78.329883 39.5251503,78.2998181 C40.6090064,78.2885817 40.7729969,78.1731809 41.3721699,78.0987778 C41.5340346,78.1200359 41.582017,78.1409902 41.514295,78.1628556 C41.2476585,78.1282354 41.2953373,78.1573893 41.202713,78.1804694 C41.5686549,78.1677146 42.005052,78.2545689 41.8012785,78.2907075 C42.3825339,78.2600352 41.5911276,78.2484951 41.9461368,78.2184302 L42.7424021,78.2153933 C42.647652,78.1728773 42.3670459,78.1664998 42.7791481,78.1291464 C43.1265652,78.1133548 43.2942,78.1203395 43.7488183,78.1188211 C43.683222,78.1406865 43.8930692,78.1828989 43.5520296,78.18381 C43.7715947,78.1977795 44.1147601,78.1962611 44.24656,78.1531377 C43.7488183,78.1188211 45.0616538,78.1075847 44.6899419,78.0441143 L45.1873799,78.0784308 C45.0741049,78.0787345 45.0616538,78.1075847 44.8943227,78.1009036 C45.0364478,78.1649814 45.3006549,78.0781272 45.4743634,78.0702313 C45.6495903,78.081164 46.1042086,78.0823788 46.1421694,78.107281 C46.2991752,78.0875414 46.6836419,78.0978668 46.7559192,78.1306649 C46.9897576,78.1154806 46.7741404,78.0875414 46.8418624,78.065676 L47.636913,78.0632465 C47.6797327,78.0993852 47.7477584,78.199298 47.6278024,78.2141786 C47.9287554,78.1774326 47.7340926,78.1060663 48.1884071,78.1048515 C47.9287554,78.1774326 48.7903132,78.152834 48.4134386,78.2405993 C48.6743051,78.2894928 49.4171216,78.2800785 49.8258833,78.257302 C50.0785502,78.1989943 49.3828051,78.230274 49.4083147,78.1725736 C50.5571597,78.1403828 50.6254891,77.9821623 51.4694331,78.0009909 L51.2501717,77.987325 C51.7761562,77.9496679 51.7169374,77.95726 52.0230531,77.9059371 C51.8781948,77.9779107 52.6234408,78.090882 53.4880354,78.0665871 C53.5603128,78.029841 53.0030485,78.003724 53.1433516,77.94572 L53.7176222,77.9290172 C53.7592272,77.9344836 53.6963642,77.9469347 53.6222647,77.9566527 C54.1367092,77.926284 54.5816095,78.0389516 54.7288973,77.9545269 L55.2533635,78.0529212 L55.0459458,78.0104051 C55.1167046,77.9748738 55.6937085,77.9581711 55.8130572,77.9432905 C56.4019047,77.8980412 56.6163072,77.926284 56.939733,77.9678891 C56.8367834,77.9396462 56.5801686,77.8758721 57.0435937,77.8600805 C57.0402532,77.9751775 58.0163007,77.8925749 58.0035459,77.9524011 C58.1909203,77.9487568 58.5237604,77.9812513 58.5447147,77.9332688 L58.5146498,78.0052425 C58.5565585,77.905026 59.2392451,77.9022928 59.7612818,77.8792127 C59.6452736,78.0158715 60.3352487,77.8625099 60.5693908,77.9836807 C60.665963,77.8904491 61.4965448,77.9375204 61.587347,77.8582583 C61.9900349,77.8497551 61.9511631,77.9356983 62.0541127,77.9642448 L62.2408798,77.9278025 C62.4443495,77.9691038 63.2002245,77.9672817 63.6499838,77.9912729 L64.0666413,77.905026 L64.2224324,77.9402536 C64.2889397,77.9186919 64.636053,77.9022928 64.4201321,77.8746574 L64.645771,77.8767832 C64.6627774,77.7878031 64.9625157,77.8485404 65.4153119,77.8051132 C65.5200836,77.8181718 65.4927518,77.8397335 65.3946612,77.852792 C65.6203001,77.8509699 65.5243352,77.8977375 65.6482392,77.9259804 C65.4878929,77.9053297 66.4572593,77.7568271 65.8480647,77.7243327 C65.8055487,77.6884977 66.1602542,77.6578254 66.3819451,77.6711876 L66.5186039,77.749235 L66.7828109,77.6617733 C67.1299243,77.6459817 67.2793379,77.6951788 67.5605513,77.7009489 C67.2735679,77.7094521 66.924025,77.8622063 67.6671452,77.8512735 C67.2769084,77.8664579 67.0858898,77.9132255 66.8839384,77.9320541 C67.0379073,77.9335725 67.11474,77.9402536 66.8760426,77.9769996 C67.456387,77.9454163 67.069187,77.9256767 67.643154,77.9086702 C67.6130891,77.9803402 67.7743464,78.0012945 68.2769471,78.0201231 L67.9000725,77.9721407 L67.9717425,77.9517937 C67.8293136,77.94572 67.7886197,77.9350909 67.7576437,77.9080629 C67.8712223,77.9074555 68.4221092,77.8114907 68.5186814,77.853703 C67.938337,77.7495387 69.5257049,77.7556124 69.1546003,77.6927493 C69.2198929,77.6711876 69.6213661,77.662077 69.6635784,77.6976083 C69.1843616,77.7574345 70.0273945,77.7744409 69.9505619,77.8254602 C70.128522,77.8026838 69.5712578,77.7768704 69.8123847,77.7471092 C70.0987608,77.738606 70.3098227,77.780211 70.470169,77.8008616 L70.3508204,77.8157423 L70.7938986,77.8424666 C70.8658722,77.8060243 70.3638789,77.7871958 70.7711221,77.7638119 C70.8789307,77.7771741 71.2864776,77.7537903 71.2746339,77.7826405 C71.0817931,77.8339634 71.2245256,77.8974339 70.8774123,77.9138329 C71.1656105,77.9053297 72.0824392,77.8858938 71.7101199,77.8236381 L72.0541964,77.821816 C71.8373644,77.7941805 71.2321178,77.7471092 71.9217892,77.7291917 L71.9160192,77.7434649 L72.394325,77.6836388 L72.6041721,77.7179553 C72.597491,77.7000378 72.6728052,77.682424 72.8504617,77.681513 C72.897533,77.7024673 73.0651678,77.708541 73.052413,77.7373912 C73.5683759,77.7261548 73.5255561,77.6903199 73.5920634,77.6687581 C73.8802616,77.6593439 73.9889813,77.6727061 73.8553594,77.7167406 C74.2504552,77.7203848 74.9398229,77.7009489 75.2104073,77.7349617 C75.738214,77.6948751 75.101384,77.7215995 75.4087144,77.6684544 C75.8694064,77.7868921 77.157036,77.6909272 78.0188975,77.6626844 C77.7811112,77.5570016 78.2542543,77.646589 78.4091343,77.5451578 C78.2241894,77.5822076 79.2306055,77.6174352 78.4765526,77.6593439 L78.936941,77.6411227 C79.2536857,77.6963936 78.1765106,77.6973046 78.6551201,77.7723151 C79.1719941,77.7613824 79.5063526,77.6368711 80.1158509,77.6681508 C79.9148106,77.7483239 80.5835277,77.6356563 80.4350251,77.7228143 C80.3096027,77.7525755 80.1404495,77.7465018 79.9679557,77.755005 L80.0754606,77.7686709 C81.2088176,77.7744409 80.3997975,77.6727061 80.9910746,77.6110577 C81.6804423,77.5910145 81.5374061,77.6638991 81.5790111,77.6994304 C81.6868197,77.7130963 82.0336294,77.6957862 82.2146264,77.6730097 C81.7952357,77.7264585 81.4344565,77.63596 81.6260825,77.5843334 C81.9331092,77.6681508 82.6501124,77.5764375 82.8368794,77.5390841 C81.8483808,77.4604294 82.1541928,77.5445505 81.2246093,77.4583036 C81.0985795,77.4880648 81.1228744,77.5667196 80.5662175,77.5424247 C80.9136346,77.4980865 80.5410116,77.4986938 80.4420099,77.4874575 C80.5504259,77.5311883 80.0572394,77.512056 79.8889973,77.5333141 C79.7332062,77.4986938 80.2178894,77.4233797 79.6545515,77.413358 L79.5525129,77.521774 C79.331733,77.5090192 79.6433151,77.4422082 79.1756383,77.4743989 C79.4264831,77.4148764 79.0963762,77.3890631 79.7301694,77.3626424 C78.9709538,77.2824693 78.5706954,77.428846 77.9839736,77.4765247 C78.0441035,77.4689326 78.0501772,77.4546593 78.1090923,77.4467635 C77.9839736,77.4765247 77.7559052,77.4783469 77.5825004,77.4871538 C77.1934783,77.4686289 77.8880087,77.4343124 77.7862739,77.4063732 L77.1579471,77.4185207 L77.1418517,77.4109285 C76.9772538,77.427935 76.8199443,77.4400824 76.7616365,77.4142691 C76.9468851,77.3772194 77.0197698,77.3404733 77.1448885,77.3107121 L76.4868005,77.3948332 C76.5578631,77.3586945 75.940469,77.3419918 76.4090568,77.3094973 L75.4330093,77.3386512 L75.3485845,77.2675886 C75.1150498,77.2839877 75.1089761,77.2982609 75.3889748,77.3028162 C75.0546163,77.2912762 73.9121487,77.4507114 74.0843388,77.3061568 C73.3193532,77.3763083 73.0420877,77.3580871 72.1152373,77.4051585 C72.8270778,77.330148 71.2946771,77.3307554 72.0502485,77.2909725 C71.6065629,77.2645518 71.5163681,77.3438139 71.1683437,77.3599092 C70.8400589,77.3331849 70.9843098,77.2606038 71.3374969,77.2299315 L70.9226615,77.2678923 L70.92995,77.2536191 L70.5697781,77.2985646 C70.1865261,77.2645518 70.4874792,77.2271984 70.091776,77.2220357 L70.0073512,77.2867209 L69.7388926,77.252708 C69.8400201,77.2806471 69.6064854,77.2964388 69.3198056,77.304942 L69.325272,77.2906688 L68.9769439,77.3067642 C69.3210204,77.2639444 68.6580733,77.2967425 68.8156865,77.2493675 C68.5174666,77.2496711 68.5107855,77.2505822 67.9726535,77.2688034 L68.0683147,77.3113194 C67.3664958,77.3574798 68.0376424,77.2466343 67.4685344,77.2496711 L67.5049768,77.2994757 C66.6847203,77.2247689 66.1162197,77.3638572 65.5106693,77.3167858 C65.857479,77.3009941 65.7684989,77.2439011 65.7618178,77.2581744 C65.2406923,77.2827729 64.3906745,77.2794324 63.8522389,77.346547 C63.6542354,77.2760918 63.6071641,77.2548338 63.051722,77.2287168 C62.6487304,77.2378274 62.5895115,77.2451158 62.4583191,77.2888467 C62.0677786,77.2645518 61.3358948,77.3143563 61.3155478,77.2615149 C61.2256567,77.3043347 60.9644866,77.2569596 60.7500841,77.2946167 L60.7042275,77.2733587 L60.7388477,77.3234669 C60.044621,77.2180878 59.5705668,77.3990848 58.8699627,77.3082826 L58.9902224,77.2937056 L58.6965579,77.3164821 C58.6497902,77.2949204 58.7688352,77.2800398 58.7821974,77.2511896 L57.415913,77.2563522 L57.6852827,77.2912762 C57.3979956,77.2994757 57.2048511,77.3501913 56.8756553,77.3225558 C57.4210757,77.2417753 56.4216444,77.324378 56.3326643,77.2672849 L56.6254178,77.2445085 C56.2251594,77.2533154 56.2251594,77.2533154 56.2585648,77.3034236 C55.7392614,77.3265038 55.9011262,77.2114067 55.422213,77.2703218 L55.7635563,77.2691071 C55.8646838,77.2973499 55.6199127,77.3413844 55.3918444,77.3422954 C55.3377882,77.335007 55.1759235,77.3143563 55.3499357,77.3064605 C54.941174,77.3298443 54.3265131,77.3104084 54.1464272,77.3322738 C53.9244325,77.3189116 53.9970135,77.2824693 54.1166659,77.2678923 C53.2423533,77.3210374 53.7212665,77.2621223 52.844828,77.3152674 L52.8591013,77.2864172 L52.5587556,77.3234669 L52.1281285,77.2675886 L52.2830085,77.3028162 C51.9954176,77.3107121 51.8159391,77.3328812 51.4803658,77.319519 L51.6148988,77.2760918 C50.8040566,77.3076752 50.6755973,77.2144435 49.9057527,77.2818619 C49.8529113,77.2745734 49.9725637,77.2596928 50.0339083,77.2524043 C49.319942,77.3262001 49.4933469,77.1825565 48.7748252,77.2709292 C48.8188597,77.2560486 48.740205,77.2393458 48.7681442,77.2268947 L48.4410741,77.257567 L48.4656727,77.2001703 L48.1999472,77.2870245 L47.9976922,77.2302352 L47.8707514,77.2590854 C47.5202975,77.1527952 47.0265037,77.2405606 46.5481979,77.1631206 L46.6311042,77.2344868 C45.4260773,77.3966553 43.8712038,77.1783049 42.4156357,77.2627296 L42.4408417,77.205333 L41.8401503,77.2794324 C41.5170282,77.2375237 42.0332948,77.2284131 41.9321673,77.2001703 C41.2889598,77.2384348 41.6652271,77.2873282 40.9172479,77.3119268 C40.5336922,77.2776103 41.0499588,77.2684997 41.2300447,77.2460269 C40.5297443,77.2818619 39.4947816,77.324378 38.9973436,77.2979573 C38.9973436,77.2979573 38.9557386,77.3161784 38.9815519,77.3192153 C38.5138751,77.3498876 37.8970884,77.331059 37.3817329,77.3401696 C37.394184,77.3137489 37.5214286,77.3082826 37.6498878,77.3012978 C37.4643355,77.3000831 37.2110612,77.2845951 37.0528407,77.3131416 L37.2462888,77.2615149 C36.8505857,77.2560486 36.0892443,77.3091936 35.9999606,77.2524043 C36.0482467,77.273966 36.0288108,77.3167858 35.6874675,77.3180005 C35.4967525,77.2326647 34.7575802,77.3650719 34.2088192,77.3240743 C34.2738081,77.3025125 34.6758886,77.2937056 34.56231,77.2937056 C34.2871703,77.2736624 34.0411844,77.3173932 33.8000576,77.3471544 L33.8735496,77.3110158 L32.5962454,77.3741825 C32.4052267,77.289454 31.3909148,77.402729 31.476858,77.3380438 C31.0204176,77.340777 31.8607174,77.3714493 31.2837135,77.3890631 C31.1291372,77.3544429 30.762588,77.4136617 30.7853644,77.356265 L30.8470127,77.3486728 L30.4440211,77.3583908 L30.6969917,77.2994757 C30.3495747,77.3158747 30.0966041,77.3750936 30.0795977,77.4179133 C29.7504018,77.3908852 29.2836361,77.4224686 29.1324003,77.3735751 L29.2541785,77.3583908 C28.330365,77.3927074 27.7199557,77.2238578 26.9953604,77.3289332 C26.9410005,77.3216448 26.9470743,77.3073715 27.0606529,77.3067642 L26.4894191,77.3104084 L26.6245595,77.2663739 L25.6816138,77.3435102 L25.6931538,77.3149637 C25.0693823,77.3113194 24.0936385,77.3389549 23.2909958,77.3577834 L23.4106482,77.3429028 C22.5363355,77.3984774 22.5642747,77.3283259 21.9238004,77.3696272 C21.9462732,77.3617314 21.9678349,77.3583908 21.9912188,77.3565687 L21.4145186,77.366894 L21.5408521,77.3371328 C21.1156914,77.4054622 20.3173003,77.2766992 20.5824184,77.324378 C20.3412915,77.3553539 19.9264561,77.3951368 19.8563046,77.4312755 C19.2270668,77.444334 19.701121,77.396959 19.3105805,77.3790415 C18.8556585,77.3832931 18.7770038,77.4340087 18.1596097,77.418217 L18.1714535,77.3893668 C17.9190902,77.4021216 17.6424321,77.4160912 17.3032145,77.4330976 L17.4219559,77.4176096 C16.7693342,77.4883685 16.601092,77.346547 16.0921139,77.4798653 C15.8163668,77.4613404 15.2952412,77.4874575 15.3180177,77.4297571 C14.4099959,77.4756137 13.8293478,77.5047676 13.0601106,77.5436394 C12.9258813,77.4519262 12.8860984,77.5530537 12.3926083,77.5093229 L12.4311765,77.5588237 C11.2850647,77.5888887 9.96342221,77.4917091 8.70008753,77.5378694 L8.66212675,77.4880648 L8.4118893,77.5484984 C7.00157048,77.5627716 5.26539634,77.5800818 4.20219087,77.5907108 C3.84839642,77.625331 3.31299761,77.6945715 2.74723017,77.6912309 L2.80584162,77.6827277 C1.82493511,77.7373912 0.788150348,77.7856773 -0.28629151,77.7847663 C-0.220998972,77.7616861 -0.328503895,77.7495387 -0.209458896,77.7328359 C-0.46000003,77.7950916 -0.837785692,77.7519682 -1.06797985,77.7565234 L-0.796180679,77.7871958 C-1.09743741,77.843074 -1.53808612,77.8081501 -1.69600296,77.7756557 L-2.17430876,77.842163 C-2.2064995,77.8379114 -2.26328882,77.8233344 -2.26328882,77.8233344 L-2.34649885,77.8524883 L-2.60797269,77.7926621 C-2.72641032,77.8093649 -3.36263295,77.8427703 -3.55699214,77.9114034 C-3.60527825,77.8907528 -4.05655597,77.8849827 -3.70944262,77.8640284 L-5.47173377,77.8901454 L-5.19507562,77.9065444 C-5.15681116,77.9560453 -5.68309939,78.0015982 -5.95854279,77.9858065 C-5.60322991,77.9356983 -5.93485526,77.9135292 -6.09155736,77.8804274 C-6.32843261,77.9138329 -5.87958437,77.9196029 -6.00348835,77.9505789 C-6.30170822,77.9924876 -6.93641243,78.0243747 -7.0979735,78.008583 L-6.92001337,77.982466 C-7.32634554,78.0143531 -7.52283053,77.9332688 -7.92491109,77.9505789 C-8.28295714,78.0031167 -8.55323788,77.9742665 -8.47063523,78.0583876 C-8.99176079,78.0930078 -8.67744555,78.0061535 -8.84750983,78.0034203 C-9.08924407,78.0526175 -9.82234261,78.050188 -9.91982589,78.0091904 C-10.1934472,78.1452418 -11.3316631,78.0097978 -11.4279317,78.1197322 L-11.8628103,78.0735719 C-11.8734394,78.1027257 -11.9520941,78.1695367 -12.2989038,78.1926169 C-12.6299217,78.1722699 -12.5570371,78.1200359 -12.659683,78.0939188 L-12.8686191,78.2071938 C-14.7693912,78.1552635 -17.2529371,78.3083213 -19.3322767,78.3064992 C-20.2530533,78.3666291 -21.4097941,78.4628976 -22.4897024,78.4920515 L-22.3718721,78.4735266 L-23.447225,78.4881036 L-22.6624998,78.50511 C-22.8948198,78.5269754 -23.0739947,78.5549145 -23.3008483,78.5625067 C-24.481884,78.5688841 -26.0601413,78.5700988 -27.4999177,78.6955213 C-28.4176574,78.8640671 -28.1388735,78.6186886 -29.0222967,78.7523106 C-28.9472862,78.7371263 -28.9214729,78.7182977 -28.8543582,78.7031134 C-29.8146141,78.7917898 -30.3357396,78.8388611 -31.2917439,78.9585135 C-31.200638,78.8324837 -31.920678,78.9925264 -31.8444528,78.9248043 L-31.9170338,78.9779494 C-32.1369026,78.9588172 -32.645577,78.9733941 -32.5784624,78.9345223 L-32.9948162,79.017125 L-33.0403691,78.9685352 C-33.6064403,78.9928301 -34.8151114,79.0948686 -35.1306414,79.0077107 C-36.5206133,79.1446732 -38.7320563,79.2637182 -40.4922217,79.3484466 C-40.7309191,79.4043249 -41.2432377,79.4386414 -41.6431925,79.4668843 L-42.0832338,79.4328714 C-42.4868328,79.4759948 -42.903794,79.577426 -43.2912976,79.561938 C-43.2912976,79.561938 -43.2761133,79.5488795 -43.2499963,79.5437169 C-43.6611874,79.5810703 -44.0623569,79.5731744 -44.4371057,79.6515255 C-44.8911166,79.6758204 -45.3393575,79.6706577 -45.2127203,79.6065799 C-45.2348894,79.7086185 -46.1775315,79.6503107 -46.1775315,79.6503107 C-46.1775315,79.6503107 -52.0116475,79.980114 -58.5220728,80.5048838 C-65.0346238,81.026313 -72.1885602,81.8250078 -74.8953155,82.3752872 C-75.0659872,82.4417945 -75.5764837,82.5253082 -75.3544891,82.5629653 C-75.7504959,82.6209694 -75.9688463,82.5538547 -76.0283688,82.6100367 C-75.4674603,82.5878676 -76.1495396,82.7518581 -75.5904533,82.7588429 L-75.9296708,82.8046995 C-75.9867638,82.8463046 -75.4771783,82.7193637 -75.5376119,82.7901226 L-75.4753562,82.6902098 C-75.1914096,82.6762403 -75.0316706,82.6801882 -74.9217362,82.7011425 C-74.6736246,82.6397979 -74.5530611,82.5007096 -73.9074242,82.4922064 L-74.0780959,82.5146792 C-73.5700288,82.4609267 -73.744041,82.542011 -73.6322845,82.5465662 L-73.7452558,82.5568916 L-73.2994444,82.5599284 C-73.635625,82.5617506 -74.1442995,82.6883877 -73.8652118,82.6552859 C-73.2493362,82.620362 -74.0310245,82.6486048 -73.5800505,82.5924229 C-73.2994444,82.5599284 -73.3604853,82.6161104 -73.3626111,82.6452643 L-72.8569736,82.5918155 C-72.858492,82.6355463 -73.1934579,82.6227915 -72.971767,82.6458716 L-72.3492102,82.5377593 C-72.1912934,82.6325095 -71.6722936,82.4178033 -71.3440088,82.4891696 C-71.7943755,82.5596248 -71.289649,82.5207529 -71.3503862,82.5623579 L-70.2270509,82.4448314 C-70.1152943,82.449083 -70.5113012,82.507087 -70.3424516,82.4846143 C-70.1201533,82.4931175 -70.0038415,82.4241807 -69.8893518,82.4138554 C-69.7812395,82.4332913 -69.0496594,82.3291269 -69.0560368,82.4029227 C-68.2767779,82.3746798 -68.7660164,82.2814482 -68.0408137,82.2513832 C-67.9327015,82.2850924 -68.6023296,82.3175868 -68.2713116,82.3306453 L-67.5388204,82.2416653 C-67.5986466,82.268997 -67.6587765,82.3254827 -67.9384715,82.3437039 C-65.927765,82.1942902 -64.7710242,82.340667 -62.9625727,82.1262645 C-62.6883441,82.1554184 -63.1368886,82.1760691 -63.3096861,82.2255699 C-62.0065685,82.0448766 -61.4125582,82.1797133 -60.2877045,82.0779784 L-60.2801123,82.0339439 C-58.6687532,82.0384992 -56.807764,81.7791512 -55.0090305,81.7114291 L-55.2298104,81.6968522 C-54.995972,81.6385444 -54.6011799,81.6057463 -54.3135891,81.5656597 C-54.2628735,81.5838809 -54.5009635,81.6713426 -53.9886448,81.616679 C-54.0994903,81.6093906 -54.3220923,81.6090869 -54.2628735,81.5838809 C-52.7028373,81.5838809 -49.4810302,81.3245329 -46.9540571,81.1972884 C-43.5555046,80.9437104 -39.8365631,80.8149474 -36.4947999,80.5835385 C-37.0046891,80.617855 -36.807293,80.49881 -36.4176636,80.5009358 C-35.3304669,80.6266619 -34.5940279,80.379765 -33.4946837,80.4477908 C-31.5489661,80.2926071 -29.7790828,80.3606328 -27.981564,80.1328681 L-27.9387443,80.1814579 C-27.6636045,80.1911759 -27.5955788,80.1523041 -27.3110248,80.1331718 L-27.3158838,80.1474451 C-26.6398783,80.1298313 -25.8299471,80.0481397 -25.439103,80.0563392 L-25.4227039,79.9983351 C-25.0221418,79.9773808 -25.2079977,80.0338664 -24.8016656,79.9846693 L-24.8095614,80.0138231 L-24.3379367,79.9403311 C-24.3701275,80.0417623 -23.2048834,79.9020666 -22.8778134,79.9342574 C-22.3612431,79.8953855 -21.3821587,79.8118718 -20.5922708,79.800028 C-20.439213,79.8452773 -19.4740982,79.8054944 -18.855793,79.8064055 C-17.6601803,79.7411129 -15.9495159,79.659725 -14.4195447,79.6323932 L-14.4544686,79.5683155 L-14.0560323,79.5510053 C-14.0602839,79.5655823 -14.005924,79.5713523 -14.0654465,79.5801592 C-13.7487018,79.6436296 -13.1480104,79.5273178 -12.8224588,79.5625454 C-13.0301802,79.5103114 -13.1027612,79.5625454 -13.3302222,79.5683155 C-13.6606328,79.5482722 -13.3548208,79.4753875 -12.9099204,79.4930013 L-12.9172089,79.5075782 L-12.6192927,79.4635437 C-12.5804209,79.5130446 -12.3040664,79.5276215 -12.2639798,79.576515 C-10.9529664,79.5215478 -10.0680248,79.4055396 -8.71145841,79.384889 C-8.84538403,79.4456262 -7.7393588,79.3387287 -8.00265476,79.4456262 C-7.19241992,79.3818521 -8.14386885,79.3706157 -7.77853433,79.2892278 C-7.55137703,79.2834578 -7.31510915,79.2485339 -7.27077096,79.2834578 C-7.37554271,79.3104859 -7.08096707,79.3372102 -7.26469724,79.3520909 L-6.72200996,79.3271886 C-6.66947224,79.333566 -6.78790987,79.3496614 -6.84743237,79.3584683 C-5.74474769,79.2722214 -4.87772352,79.3712231 -3.88922486,79.2880131 C-3.81816229,79.2506597 -4.28462433,79.2883168 -4.21508018,79.2506597 C-3.2205078,79.1528727 -3.32619061,79.2916573 -2.39751814,79.2163431 L-2.58671465,79.2700956 C-2.28819109,79.2287943 -2.15942814,79.1832413 -1.66168642,79.209662 C-1.57058055,79.2655403 -2.07834391,79.2679698 -2.31521917,79.3010716 C-1.97478691,79.2943905 -1.11565859,79.2570371 -1.38138403,79.2114841 C-0.975051865,79.1820266 -0.823512439,79.2297053 -0.602125183,79.239727 C-0.595747772,79.22515 -0.985680883,79.2108768 -0.748805629,79.1780787 C-0.191845095,79.1962998 0.665157427,79.1726123 1.34328876,79.1598575 C1.33842978,79.1744344 1.38732327,79.1947814 1.32871183,79.2032846 C1.86866593,79.1140009 1.81977245,79.2439786 2.56714424,79.2084473" id="Fill-1169" transform="translate(3.404255, 79.988202) rotate(-90.000000) translate(-3.404255, -79.988202) "></path>
            </g>
        </g>
    </g>
</svg>