<svg xmlns="http://www.w3.org/2000/svg" xmlns:xlink="http://www.w3.org/1999/xlink" width="419px" height="230px" viewBox="0 0 419 230" version="1.1">
    <!-- Generator: Sketch 50.2 (55047) - http://www.bohemiancoding.com/sketch -->
    <title>Group</title>
    <desc>Created with Sketch.</desc>
    <defs/>
    <g id="Page-1" stroke="none" stroke-width="1" fill="none" fill-rule="evenodd">
        <g id="preloader" transform="translate(-471.000000, -215.000000)" fill="#a49382" style="     fill: №a49382">
            <g id="Group" transform="translate(471.000000, 215.000000)">
                <path d="M114.773546,72.8254894 C108.237711,75.0377888 107.215616,74.6370497 103.948628,77.6526572 C102.926532,78.2565107 101.701876,77.8539417 100.679781,78.6572498 C99.863963,79.0598188 89.0390444,85.0928636 89.0390444,85.2941481 L83.3190274,89.7205769 C82.5032095,90.5238849 80.867857,92.9374689 77.8052877,95.9549062 C73.7206232,103.797682 78.827383,94.3446304 71.2694528,110.233295 C70.4517765,113.852756 68.8182824,116.870194 68.0006061,120.892224 C68.0006061,122.903239 67.1847882,131.752436 65.9582738,132.958313 C66.571531,133.159598 65.9582738,134.16602 66.571531,134.769874 C64.7336178,138.993188 64.9380369,144.221095 64.9380369,148.44441 C64.9380369,150.857993 64.9380369,158.902053 63.5089618,161.315637 C63.5089618,161.919491 63.7115225,164.333075 64.1203606,164.735644 C64.1203606,167.751251 64.7336178,172.578419 64.9380369,176.19971 L66.1645513,179.617886 C67.1847882,180.020455 71.2694528,181.427617 72.9029469,183.237347 C73.311785,183.237347 74.1276029,182.834778 74.5364411,182.834778 C81.072276,182.834778 85.363218,173.584841 95.5748794,157.092323 C97.4127926,153.070293 99.0462868,151.260562 102.926532,142.008796 C105.175142,136.37832 106.399798,126.5227 107.420035,125.316823 C108.646549,122.301215 108.850968,122.301215 108.850968,122.301215 L112.526795,102.39052 C113.342613,100.981529 113.547032,92.3336154 114.160289,90.9264539 C114.773546,89.5174625 114.160289,87.707732 114.160289,85.8980016 C114.160289,84.893409 114.364708,83.687532 114.977965,82.4779952 C116.40704,79.6636722 114.977965,76.2454957 114.773546,72.8254894 Z M159.297876,124.714799 C160.117411,119.283778 160.72881,114.255325 160.72881,107.618427 C160.72881,104.802274 160.32183,100.780244 159.095316,97.3620677 C158.07322,94.7471993 156.644145,90.5238849 154.601813,86.7031395 C154.397394,86.3005705 150.925987,78.6572498 144.594571,73.8319118 L144.594571,73.6306273 C143.368056,72.6242049 144.185733,72.4229204 142.55038,71.2170434 C138.261297,68.602175 133.972213,68.8034595 128.458473,68.8034595 C127.231959,68.8034595 126.823121,70.4137353 126.823121,71.8208968 C126.823121,74.6370497 126.823121,75.6416423 127.231959,78.2565107 C127.436378,81.2721182 126.414283,84.893409 126.823121,87.9090165 L125.802884,94.1433459 C125.189627,100.57896 122.331476,109.228703 120.491705,115.463032 L114.364708,135.172443 C114.364708,135.371897 112.117957,141.406772 111.710977,142.008796 C111.30028,148.645694 104.970723,156.287185 102.315133,161.919491 C100.475362,164.534359 99.659544,166.142805 98.0260498,167.549967 C95.5748794,170.969973 92.9192899,178.208895 89.0390444,181.025048 C85.5676371,188.062685 79.4387819,188.668368 75.1496983,191.281407 L73.107366,191.281407 C71.8808516,191.080123 69.2271205,191.080123 68.2050252,190.677554 C59.6287163,187.460662 57.7889447,175.998425 57.7889447,161.114353 C57.7889447,159.304622 57.9933638,157.897461 57.9933638,155.282592 C58.1977829,152.869008 59.2180198,150.054685 59.2180198,146.835964 C59.2180198,145.829541 59.0136007,144.824949 58.8091817,143.818526 C58.8091817,137.181628 59.6287163,130.54473 60.6489533,123.706547 C60.6489533,122.099931 61.8736093,118.076071 62.8957046,113.651472 C62.8957046,111.439172 64.9380369,107.417143 66.367112,103.596397 C72.4941088,92.7361844 74.5364411,90.5238849 78.622964,85.8980016 C84.5455418,79.4623877 88.0169491,78.0552262 94.143946,74.0331963 C98.0260498,72.0221813 105.786541,68.4008905 107.624454,67.1950135 C109.462367,66.993729 111.710977,65.7860221 114.977965,64.3788606 L113.751451,49.8991869 C112.731214,48.8945943 113.751451,47.8881719 114.160289,46.8817495 C114.569127,46.4791806 112.117957,44.0655966 112.935633,42.257696 C111.710977,34.8156598 112.526795,32.2026212 110.280043,24.760585 C101.497457,27.7761925 103.744209,26.369031 92.7148709,31.7982224 L92.103472,34.6143753 C97.6172117,33.6079529 99.863963,32.6033603 105.582122,32.6033603 C106.195379,32.6033603 107.011197,33.2072138 107.215616,33.8092374 C106.808636,35.2182287 103.744209,35.6207977 102.315133,35.6207977 C98.639307,36.4241058 97.0039545,38.0325518 93.7369662,39.4415431 C91.4902148,40.6474202 85.5676371,41.4525581 83.5234464,42.6584351 C80.867857,44.2668811 79.0299438,49.2953335 66.367112,50.5012105 C63.1001237,50.9056093 62.0780283,49.6979024 60.4445342,48.0894564 C60.4445342,43.2622886 68.4094442,37.6299828 75.9673745,34.0105218 C79.4387819,30.1897764 87.8125301,26.5703154 88.6302063,26.369031 C91.899053,25.1613241 93.7369662,23.7541626 96.3906973,22.5482855 C97.4127926,21.9444321 108.850968,18.5244257 109.666786,15.3075337 L109.462367,11.2855038 C110.280043,8.06861183 110.893301,6.86090494 115.795641,6.25705149 C118.653792,6.65962046 117.633555,8.06861183 119.675887,9.67705783 L121.309381,13.0970642 C125.189627,12.6926653 133.358956,8.67246527 142.754799,7.06218942 C146.023646,6.45833597 160.32183,0.827860055 176.456069,0.827860055 C176.456069,1.02914454 193.816823,-0.178562355 193.816823,0.0227221269 C196.267993,0.827860055 203.417085,2.43630605 203.417085,5.05117446 C203.417085,5.85631239 202.803828,8.06861183 199.53684,8.8719199 C197.083811,8.06861183 195.041479,8.67246527 192.18147,8.67246527 C182.787485,7.46475838 180.745153,10.2809113 172.778385,9.27448886 C171.349309,9.67705783 169.306977,10.4821958 160.72881,11.6880728 C146.430626,11.6880728 133.563375,17.1172642 122.331476,19.7321326 C122.942875,22.1457166 122.331476,23.955447 123.760552,25.7670074 C123.760552,25.7670074 123.760552,31.5969379 125.598465,39.0389742 C125.189627,39.6428276 125.189627,40.4461357 125.189627,41.6538426 C125.394046,42.4589805 125.189627,47.485603 126.823121,53.5186479 C126.414283,55.1289237 126.414283,56.5360852 126.414283,57.7437921 C126.618702,60.3568307 126.618702,60.5581151 126.823121,60.7593996 C128.458473,60.5581151 131.114063,60.5581151 131.522901,60.1555462 C133.154537,61.3632531 135.810126,61.5645376 137.649898,61.5645376 C142.141542,61.5645376 154.806232,68.4008905 154.806232,71.8208968 C160.524391,75.0377888 166.448827,88.51287 167.877902,90.5238849 L167.877902,90.7251694 C169.715815,95.9549062 172.166986,101.384098 172.166986,106.211266 C172.166986,109.429987 171.553729,112.043026 172.166986,115.261748 C171.14489,117.673502 171.758148,121.093508 170.329072,123.305808 C168.489301,130.54473 166.448827,132.958313 164.609055,137.785481 C163.588818,138.590619 162.566723,139.796496 161.953466,142.21008 C161.953466,143.214673 162.362304,144.021641 163.384399,144.221095 C163.384399,143.818526 170.533492,142.612649 171.553729,141.004203 C172.573965,140.802919 173.3935,141.205488 174.820717,141.004203 C177.885144,139.796496 178.293983,139.393927 178.905381,139.393927 C180.336315,139.393927 182.583066,139.997781 182.583066,141.807511 C182.583066,145.227518 173.596061,145.428802 164.609055,151.461847 C161.342067,151.864416 156.644145,154.278 152.557622,154.477454 L149.699472,156.0859 C148.270397,156.892868 146.430626,159.103338 142.141542,160.914898 C138.465716,160.914898 135.198727,162.521514 131.114063,162.724629 C128.254054,162.724629 124.987066,160.914898 122.738456,159.908476 C120.287286,158.499484 117.224717,156.488469 117.224717,153.472862 C117.224717,150.054685 122.127057,150.054685 123.351713,149.449002 C124.373809,149.249547 132.951976,145.628257 138.670135,145.628257 C146.226207,145.628257 147.65714,144.221095 149.903891,142.21008 C154.601813,137.785481 154.806232,135.172443 155.417631,135.172443 C157.666241,130.343445 158.482059,126.723984 159.297876,124.714799 Z" id="Fill-1"/>
                <path d="M221.051374,174.369683 C219.40202,172.925223 217.957193,171.894002 216.307839,170.241043 L215.896908,169.416442 C213.626466,169.416442 207.027173,154.139721 204.552203,154.344463 C203.934868,154.344463 199.810545,158.061742 197.95291,158.886343 L196.303556,159.712822 C194.85873,160.539302 193.828587,159.919442 192.798444,161.363903 L190.94081,161.363903 C190.323475,161.157283 189.085052,161.983762 188.672244,162.190382 L183.930586,161.983762 C179.187051,159.092963 178.774243,151.455542 178.567839,146.913661 C178.567839,145.675821 179.393454,145.260703 179.393454,144.229482 C179.187051,143.404881 178.567839,143.404881 178.567839,142.991641 C178.774243,138.243141 185.786344,128.539521 190.94081,127.095061 C193.417656,127.30168 194.241394,124.824121 196.922768,124.824121 C198.984929,124.824121 202.283638,125.03074 202.490042,127.919662 C202.490042,128.539521 201.664426,129.77924 199.397737,132.048302 C200.634284,133.081401 193.004848,133.081401 192.179233,135.352341 C188.878648,137.210042 188.259437,143.404881 188.259437,146.500422 C186.199151,148.564742 189.704263,156.822023 192.385637,156.822023 C194.654202,156.822023 197.335575,154.344463 198.365718,152.488641 C204.965011,144.642721 199.810545,126.27046 211.977112,126.061961 C211.770708,126.061961 216.92705,125.648722 216.92705,131.223701 C217.133454,132.048302 216.514243,132.668162 216.514243,133.701261 C216.514243,142.785021 220.225759,153.313242 225.382101,161.777142 C226.825052,164.048082 226.41412,167.763483 228.88909,169.623062 C229.300021,171.687382 230.949375,173.131843 231.155779,174.989543 C230.949375,175.402783 230.949375,176.435882 230.125636,176.229262 L226.825052,175.816022 C225.175697,175.196163 223.732747,174.576303 221.462305,173.958322 L221.051374,174.369683" id="Fill-4"/>
                <path d="M234.968562,155.537235 C233.547549,153.084486 231.718156,152.063592 230.095725,148.589949 C229.892459,148.180848 229.079395,145.318997 228.876129,145.114447 C228.672863,144.091693 228.266332,143.684451 228.266332,142.457147 C228.266332,140.822601 228.266332,140.61805 229.079395,138.983504 C229.079395,138.371711 229.079395,137.96075 229.079395,137.551649 C229.079395,135.509861 230.500408,133.668904 231.110206,132.034358 C231.51489,131.216155 232.533067,130.807054 232.937751,129.377058 C233.344283,128.765266 233.547549,126.721618 233.750815,126.107966 C234.358764,124.880662 235.984891,123.655217 237.202639,122.634323 C237.609171,122.429772 239.436716,120.588816 239.639982,120.181574 C240.046513,119.977023 242.687122,118.95427 243.093654,118.751579 C244.108135,118.136067 244.514667,117.115173 245.124465,116.706072 C246.95201,114.866975 249.186086,113.844221 251.420163,113.844221 C255.075253,113.844221 254.668722,114.457873 257.715862,116.29697 C258.528925,116.910622 259.543407,119.158821 259.543407,119.158821 C259.543407,119.363371 259.543407,119.977023 259.340141,120.181574 C259.340141,120.588816 259.340141,123.041565 259.136875,123.450666 C259.136875,124.880662 255.888317,127.333411 254.465456,127.333411 C252.434645,127.333411 252.231379,124.064319 249.997302,124.064319 C249.186086,124.064319 248.373023,124.676111 247.356693,125.085213 C246.138946,126.107966 244.514667,126.924309 243.295072,128.356164 C242.28059,129.377058 242.483856,131.216155 242.077324,132.852561 C241.874058,133.261663 241.060995,134.078006 240.857729,134.691658 C240.046513,136.326204 240.857729,136.939856 240.857729,138.574402 C240.857729,140.822601 242.890388,143.684451 244.311401,145.318997 C245.32773,145.932649 246.342212,147.976297 247.559959,148.180848 C248.982821,148.180848 250.200568,150.019945 251.826695,150.019945 C254.058924,150.019945 256.496267,148.7945 258.933609,148.385398 C265.02789,147.771746 270.713791,144.091693 275.789894,140.822601 L277.619287,140.61805 C277.619287,140.61805 278.430503,141.436253 278.430503,141.640804 C279.446832,142.457147 279.0403,143.887142 279.0403,145.318997 C278.430503,146.341751 276.196426,145.932649 275.181944,147.158094 C272.947868,148.7945 270.917057,150.019945 268.886246,151.4518 C268.073182,152.063592 267.666651,152.677244 267.260119,153.289037 C267.260119,153.289037 266.042371,153.493588 265.63584,153.493588 C263.605029,154.10724 261.167686,155.537235 259.136875,156.150887 C256.293001,156.76454 253.855658,159.62453 250.403834,159.62453 C248.779555,159.62453 246.748744,160.238183 244.921199,160.033632 C242.483856,159.62453 241.060995,159.421839 238.828766,158.603636 C237.812437,157.991844 235.375094,156.150887 234.968562,155.537235" id="Fill-5"/>
                <path d="M319.868593,174.369683 C318.219239,172.925223 316.776288,171.894002 315.125058,170.241043 L314.714127,169.416442 C312.443685,169.416442 305.844392,154.139721 303.371299,154.344463 C302.752087,154.344463 298.627764,158.061742 296.772006,158.886343 L295.120775,159.712822 C293.677825,160.539302 292.645806,159.919442 291.615663,161.363903 L289.758029,161.363903 C289.140694,161.157283 287.904147,161.983762 287.49134,162.190382 L282.747805,161.983762 C278.00427,159.092963 277.593338,151.455542 277.386935,146.913661 C277.386935,145.675821 278.210674,145.260703 278.210674,144.229482 C278.00427,143.404881 277.386935,143.404881 277.386935,142.991641 C277.593338,138.243141 284.603563,128.539521 289.758029,127.095061 C292.234875,127.30168 293.058614,124.824121 295.739987,124.824121 C297.802149,124.824121 301.102733,125.03074 301.309137,127.919662 C301.309137,128.539521 300.483522,129.77924 298.214956,132.048302 C299.451503,133.081401 291.822067,133.081401 290.996452,135.352341 C287.697744,137.210042 287.078532,143.404881 287.078532,146.500422 C285.01637,148.564742 288.521482,156.822023 291.202856,156.822023 C293.471421,156.822023 296.152794,154.344463 297.184813,152.488641 C303.784106,144.642721 298.627764,126.27046 310.796207,126.061961 C310.589803,126.061961 315.744269,125.648722 315.744269,131.223701 C315.950673,132.048302 315.331462,132.668162 315.331462,133.701261 C315.331462,142.785021 319.042978,153.313242 324.19932,161.777142 C325.642271,164.048082 325.231339,167.763483 327.706309,169.623062 C328.11724,171.687382 329.768471,173.131843 329.974874,174.989543 C329.768471,175.402783 329.768471,176.435882 328.942855,176.229262 L325.642271,175.816022 C323.994793,175.196163 322.549966,174.576303 320.281401,173.958322 L319.868593,174.369683" id="Fill-6"/>
                <path d="M362.336683,209.406186 C362.336683,209.406186 362.43589,209.286485 362.456315,209.19598 C362.348355,209.280646 362.336683,209.406186 362.336683,209.406186" id="Fill-7"/>
                <path d="M328.819095,209.301083 L329.396985,209.19598 C329.019134,209.213497 328.819095,209.301083 328.819095,209.301083" id="Fill-8"/>
                <path d="M381.46467,210.929648 L381.407035,210.9822 C381.789733,210.988039 382.306145,210.993878 383.140704,211.002636 L381.46467,210.929648" id="Fill-9"/>
                <path d="M258.316583,207.479829 L259.472362,207.462312 C258.98674,207.47107 258.870191,207.47107 258.316583,207.479829" id="Fill-10"/>
                <path d="M303.39196,207.462312 C303.124948,207.552817 302.674843,207.584931 302.236181,207.617046 C302.793091,207.628724 303.235567,207.608288 303.39196,207.462312" id="Fill-11"/>
                <path d="M394.120603,211.233279 L392.964824,210.929648 C392.987486,211.063946 393.399185,211.198244 394.120603,211.233279" id="Fill-12"/>
                <path d="M412.119793,210.996797 L412.035176,210.929648 C412.035176,210.929648 412.041012,210.97928 412.119793,210.996797" id="Fill-13"/>
                <path d="M405.100503,210.929648 C404.826765,210.964683 404.389546,211.020153 403.944724,211.075624 C404.435169,211.061027 405.058682,211.055188 405.100503,210.929648" id="Fill-14"/>
                <path d="M403.944724,211.011395 L404.36781,210.929648 C404.131465,210.941326 403.944724,211.011395 403.944724,211.011395" id="Fill-15"/>
                <path d="M195.326633,209.327358 L195.522128,209.19598 C195.335387,209.242692 195.326633,209.327358 195.326633,209.327358" id="Fill-17"/>
                <path d="M384.874372,212.663317 C383.733212,212.972786 381.388911,212.625363 381.407141,212.917315 C382.617573,212.864764 384.334782,213.080808 384.874372,212.663317" id="Fill-19"/>
                <path d="M180.879397,215.552764 L180.301508,215.596557 C180.569514,215.57612 180.706309,215.567361 180.879397,215.552764" id="Fill-20"/>
                <path d="M127.713568,212.739224 L127.748582,212.736305 C127.748582,212.736305 127.871131,212.692512 127.955749,212.663317 L127.713568,212.739224" id="Fill-22"/>
                <path d="M124.824121,211.125256 C125.19982,211.061027 125.566916,210.999717 125.979899,210.929648 C125.360425,210.950085 125.042084,211.028912 124.824121,211.125256" id="Fill-23"/>
                <path d="M86.1055276,215.646189 C86.2776802,215.616993 86.4410793,215.590718 86.648246,215.552764 C86.4119009,215.57612 86.2339126,215.605315 86.1055276,215.646189" id="Fill-25"/>
                <path d="M304.547739,209.219812 L305.0321,209.284041 C305.084621,209.213973 305.052525,209.164341 304.547739,209.219812" id="Fill-26"/>
                <polyline id="Fill-27" points="277.404442 212.663317 277.386935 212.663317 277.386935 212.669156 277.404442 212.663317"/>
                <path d="M279.120603,212.673545 C278.577969,212.612235 277.800808,212.837038 277.386935,213.067681 C277.934167,213.061842 278.44691,212.991773 279.120603,212.673545" id="Fill-28"/>
                <path d="M274.497487,212.663317 L274.757175,212.698351 C274.625872,212.680834 274.497487,212.663317 274.497487,212.663317" id="Fill-29"/>
                <polyline id="Fill-30" points="303.99611 212.695431 303.99611 212.663317 303.969849 212.692512 303.99611 212.695431"/>
                <path d="M296.457286,212.794695 C296.307257,212.736305 296.101662,212.692512 295.879397,212.663317 C296.021091,212.721707 296.212795,212.768419 296.457286,212.794695" id="Fill-31"/>
                <polyline id="Fill-32" points="260.085265 212.677914 260.096937 212.663317 260.050251 212.669156 260.085265 212.677914"/>
                <path d="M207.012333,215.865299 C212.279375,215.61468 219.105239,215.125541 224.337105,215.108257 C225.466418,214.715908 227.125213,214.667513 228.789561,214.549981 L228.978397,215.033935 L230.365045,214.847267 C230.933404,214.982083 229.298677,214.961342 230.3021,215.123812 L230.820473,214.809242 C230.933404,214.982083 234.393545,214.845539 232.068271,215.248258 L237.47046,215.154924 C238.66457,215.151467 238.161007,214.738378 239.48471,214.840354 C239.755005,214.978626 239.010769,214.944058 239.121849,215.116899 C243.094809,215.424555 243.689087,214.109238 247.391753,214.278621 L247.077026,214.347758 C247.704628,214.209485 248.90244,214.209485 248.917251,214.140349 C248.434053,213.654667 248.258177,214.415166 247.125161,214.140349 C247.215876,213.725531 248.52662,213.898372 248.448864,213.583802 C249.317139,213.722074 249.822553,213.480097 250.577897,213.445529 C251.868276,213.687506 253.712203,213.476641 254.687856,213.787754 C255.315457,213.647753 256.01341,213.231207 257.370437,213.196639 C258.344238,213.507752 257.144574,213.50948 258.468277,213.611456 L258.677478,213.367751 C259.760507,213.39022 259.592036,213.459357 259.555009,213.573431 C260.713944,213.569975 260.514,213.22775 261.970999,213.371208 L261.161966,213.611456 C262.237591,213.511209 262.674505,213.547505 264.172234,213.557876 C264.140761,213.696148 263.540929,213.690963 263.100312,213.654667 C263.91675,214.003805 264.490663,213.48874 264.93128,213.525036 C264.805389,213.421332 263.766792,213.381578 264.272206,213.14133 C265.01459,213.179355 265.849541,212.802562 266.384576,213.082564 L265.575544,213.319356 C267.123258,213.120589 266.401238,213.013428 268.180369,213.091206 C268.0841,213.110218 268.132234,213.170713 268.093356,213.220836 C269.215264,212.904538 270.690776,213.172441 272.353273,213.181083 L272.038547,213.248491 C272.71058,213.160342 273.077144,212.944291 273.438154,212.958119 C272.488421,212.82676 272.747607,212.754167 272.658743,212.524288 C273.917649,212.911452 274.569319,212.048977 276.620595,212.266756 C276.589123,212.405028 276.096668,212.576141 275.532012,212.434411 C274.835911,212.847501 274.750749,213.193182 273.506654,213.393677 C274.280511,213.29343 275.193218,213.229478 275.002531,213.402319 L275.241352,213.02207 C275.720848,213.023798 276.08556,213.023798 276.437313,213.025526 C276.637257,212.78355 275.483877,212.640092 276.572461,212.474165 C277.799894,212.342806 277.227833,212.857871 277.41852,212.686759 C279.106935,212.52256 278.114621,212.27367 279.743794,212.386016 C279.580877,212.418856 279.264299,212.486264 279.125449,212.451695 C280.291788,212.595153 281.989461,212.361818 282.33566,212.814661 C282.163486,212.918365 282.132013,213.054909 281.687693,213.020341 L281.706207,212.949477 C280.426936,213.291701 282.776277,212.852686 282.37824,213.265775 C282.287525,213.02207 283.927806,213.06528 284.666488,213.103305 L284.429517,212.825031 C286.884385,211.971198 284.301775,213.37985 286.732575,213.251948 C288.274735,213.053181 286.147554,213.179355 287.093585,212.975403 C288.137737,213.018613 288.528368,213.267503 290.055718,213.139601 C290.479673,213.248491 291.349799,213.393677 291.423853,213.706519 C292.35137,213.57516 294.243432,213.834421 294.76736,213.526764 C293.180767,213.27096 293.188173,213.860347 291.333137,213.462813 L291.85151,213.155157 C293.134484,213.167256 294.776616,213.006514 295.663405,213.113675 C295.483825,213.053181 295.404218,212.975403 295.517149,212.909723 C297.344415,212.787006 297.870193,212.47935 299.649324,212.56577 C299.884444,212.844044 298.842143,212.799105 298.084948,212.82676 C299.232774,213.046267 299.284612,212.838859 301.063743,212.92355 C301.158161,213.167256 299.86593,212.91318 299.660432,213.153429 L301.632102,213.067008 L301.632102,213.117132 C301.915356,212.7075 303.133533,213.146515 304.33875,213.020341 C307.193506,213.009971 307.626717,212.460337 309.207756,212.126755 C309.633562,212.235645 309.757601,212.339349 309.579874,212.441325 C308.878218,212.263299 309.004109,212.405028 308.759733,212.513918 C309.722426,212.467251 310.870252,212.904538 310.331515,213.072193 C311.862567,212.947748 309.779817,212.859599 310.714741,212.72824 L312.812301,212.745525 C312.562371,212.538116 311.82554,212.494906 312.910421,212.330707 C313.82498,212.270213 314.267448,212.311694 315.463409,212.322065 C315.291235,212.424041 315.842932,212.638363 314.945036,212.627993 C315.522652,212.704043 316.426102,212.712685 316.774153,212.508733 C315.463409,212.322065 318.919848,212.323793 317.942344,212.000581 L319.253087,212.187249 C318.953172,212.183792 318.919848,212.323793 318.481082,212.28404 C318.8532,212.59861 319.551152,212.190706 320.008431,212.159595 C320.469413,212.220089 321.665374,212.244287 321.765346,212.367003 C322.180045,212.277126 323.190872,212.344534 323.38156,212.505276 C323.996202,212.441325 323.429694,212.297867 323.609274,212.195891 L325.70128,212.216632 C325.814211,212.39293 325.990088,212.878612 325.675361,212.944291 C326.467731,212.780093 325.956764,212.427498 327.152725,212.439597 C326.467731,212.780093 328.735614,212.697129 327.7433,213.105033 C328.428293,213.352195 330.385152,213.338368 331.460776,213.245034 C332.127256,212.973674 330.294436,213.094663 330.362936,212.818118 C333.389865,212.710956 333.573147,211.948729 335.792895,212.076631 L335.21713,212.000581 C336.601927,211.839839 336.446415,211.874408 337.253596,211.639344 C336.870371,211.981569 338.830932,212.557128 341.10622,212.475893 C341.298759,212.303052 339.832503,212.152681 340.20277,211.879593 L341.715309,211.822555 C341.824537,211.85021 341.657917,211.907247 341.463527,211.952186 C342.818703,211.826012 343.986894,212.389473 344.377525,211.986754 L345.754917,212.484535 L345.210625,212.270213 C345.39761,212.100829 346.917554,212.04552 347.23228,211.978112 C348.783697,211.78453 349.346502,211.929717 350.198116,212.144039 C349.927821,212.004038 349.253936,211.686011 350.473964,211.627245 C350.462856,212.183792 353.034357,211.826012 352.999182,212.112928 C353.493488,212.104286 354.367317,212.275398 354.424708,212.04552 L354.34325,212.391201 C354.456181,211.907247 356.253825,211.924531 357.629365,211.832926 C357.320193,212.48972 359.140053,211.777617 359.752844,212.372189 C360.010179,211.92626 362.196603,212.188978 362.437277,211.808728 C363.49809,211.78453 363.392564,212.199348 363.662859,212.339349 L364.155314,212.171693 C364.690349,212.380831 366.680532,212.4033 367.865385,212.538116 L368.963225,212.138854 L369.372369,212.315151 C369.548246,212.213175 370.462805,212.149224 369.894445,212.007495 L370.488723,212.026507 C370.536858,211.596134 371.323674,211.90379 372.515933,211.711937 C372.791781,211.779345 372.719579,211.88305 372.460393,211.941815 C373.05467,211.941815 372.801038,212.163051 373.126872,212.304781 C372.704769,212.19762 375.261459,211.523541 373.658205,211.338601 C373.547125,211.164032 374.480197,211.030945 375.065218,211.105266 L375.422525,211.487244 L376.120478,211.077612 C377.035036,211.013661 377.427519,211.259095 378.1662,211.298848 C377.410857,211.326503 376.487042,212.050705 378.445752,212.028236 C377.416411,212.085273 376.912848,212.303052 376.379664,212.387744 C376.785106,212.399843 376.988753,212.43614 376.3593,212.603795 C377.886649,212.474165 376.868416,212.363547 378.380955,212.304781 C378.299496,212.650462 378.723452,212.757623 380.045303,212.86997 L379.05484,212.621079 L379.243676,212.527745 C378.869707,212.493177 378.76233,212.439597 378.680871,212.306509 C378.980787,212.308238 380.432232,211.869222 380.685864,212.076631 C379.160366,211.547739 383.338824,211.644529 382.365023,211.326503 C382.537197,211.224527 383.594308,211.196872 383.705388,211.369713 C382.440928,211.639344 384.660676,211.756876 384.457029,211.998853 C384.927268,211.896877 383.459161,211.748234 384.096019,211.615146 C384.849512,211.585764 385.40306,211.796629 385.825164,211.902062 L385.510438,211.96947 L386.676777,212.116384 C386.867465,211.943544 385.545613,211.831197 386.619386,211.736135 C386.90264,211.805271 387.976413,211.710209 387.94494,211.846753 C387.435824,212.087002 387.809793,212.399843 386.895235,212.465523 C387.654281,212.43614 390.068419,212.380831 389.089064,212.062804 L389.996217,212.069717 C389.426007,211.927988 387.83386,211.673912 389.650018,211.616875 L389.633356,211.686011 L390.894113,211.41638 L391.445811,211.590949 C391.429149,211.504528 391.627241,211.423293 392.095628,211.425022 C392.217816,211.528726 392.660285,211.563294 392.626961,211.703295 C393.983988,211.670456 393.872908,211.495886 394.048785,211.39391 C394.807831,211.361071 395.092936,211.430207 394.741183,211.637616 C395.781632,211.672184 397.595938,211.606504 398.308701,211.781074 C399.699052,211.609961 398.019893,211.711937 398.832629,211.46996 C400.041549,212.059347 403.435042,211.649715 405.704776,211.549467 C405.080877,211.029217 406.323121,211.482059 406.734117,210.998105 C406.247217,211.169218 408.894622,211.381812 406.908142,211.552924 L408.120765,211.483788 C408.953865,211.763789 406.117623,211.724036 407.37653,212.106014 C408.737259,212.074903 409.620345,211.487244 411.22545,211.663542 C410.694118,212.042063 412.456587,211.526998 412.064104,211.941815 C411.732716,212.080088 411.288396,212.043791 410.834819,212.07836 L411.116222,212.147496 C414.10057,212.221817 411.971538,211.69811 413.53036,211.425022 C415.346517,211.355885 414.966994,211.703295 415.076223,211.877864 C415.359477,211.947001 416.274035,211.877864 416.749828,211.775888 C415.646433,212.016137 414.696699,211.565023 415.203965,211.323046 C416.009294,211.739592 417.899505,211.328231 418.39196,211.153662 C415.790837,210.733659 416.594316,211.151933 414.148705,210.697362 C413.815465,210.835635 413.87841,211.215885 412.414006,211.075884 C413.328565,210.877117 412.347358,210.86329 412.088172,210.804524 C412.373277,211.020575 411.073641,210.9065 410.631173,211.00329 C410.222028,210.83045 411.499448,210.486497 410.01653,210.413904 L409.744384,210.934154 C409.163066,210.86329 409.985057,210.552176 408.753921,210.690449 C409.414847,210.412175 408.548423,210.273903 410.216474,210.171927 C408.218886,209.753652 407.161775,210.445015 405.615912,210.648967 C405.775127,210.616127 405.789937,210.546991 405.945449,210.510695 C405.615912,210.648967 405.01608,210.648967 404.558801,210.683535 C403.535014,210.578102 405.364131,210.441558 405.097539,210.301557 L403.442447,210.334397 L403.399867,210.2981 C402.966655,210.37415 402.551956,210.424274 402.398296,210.2981 C402.888899,210.126988 403.081437,209.952419 403.410975,209.814147 L401.676276,210.192668 C401.86326,210.019827 400.239642,209.914394 401.474481,209.776122 L398.902979,209.876369 L398.682671,209.530688 C398.068028,209.599824 398.051366,209.667232 398.788197,209.7018 C397.908814,209.632664 394.896695,210.355138 395.352123,209.663775 C393.336021,209.971432 392.606596,209.871184 390.16654,210.05958 C392.04194,209.727726 388.007886,209.665504 389.998068,209.504762 C388.829877,209.359576 388.591055,209.738097 387.672794,209.802048 C386.810073,209.65859 387.191448,209.314637 388.122668,209.18155 L387.028531,209.347477 L387.048895,209.27834 L386.099161,209.480564 C385.092036,209.30081 385.884407,209.131426 384.842107,209.089944 L384.618095,209.399329 L383.912737,209.22476 C384.179329,209.364761 383.562836,209.43044 382.807492,209.458095 L382.822302,209.390687 L381.905893,209.45291 C382.813046,209.261056 381.065388,209.392415 381.481937,209.169451 C380.696972,209.15908 380.68031,209.162537 379.262189,209.228217 L379.512119,209.437354 C377.664489,209.630935 379.434363,209.124512 377.934784,209.11587 L378.031053,209.357847 C375.872399,208.962042 374.372819,209.610195 372.778822,209.357847 C373.691529,209.295625 373.460112,209.015623 373.441599,209.084759 C372.06791,209.18155 369.8315,209.129697 368.411528,209.432169 C367.891303,209.08303 367.769115,208.979326 366.306562,208.828955 C365.245749,208.856609 365.090237,208.889449 364.742186,209.095129 C363.714696,208.962042 361.787459,209.171179 361.735622,208.915375 C361.4968,209.119327 360.809955,208.87735 360.245299,209.051919 L360.124962,208.946486 L360.215677,209.190192 C358.390263,208.652657 357.136911,209.50649 355.294835,209.03982 L355.611413,208.972412 L354.837556,209.070932 C354.715368,208.965499 355.030094,208.898091 355.065269,208.759818 L351.46813,208.726979 L352.175339,208.906733 C351.419995,208.934388 350.910879,209.171179 350.042604,209.024265 C351.481089,208.656114 348.848494,209.013894 348.615226,208.735621 L349.387232,208.637102 C348.331972,208.663028 348.331972,208.663028 348.418985,208.906733 C347.05085,208.99661 347.480359,208.446977 346.21775,208.711423 L347.117498,208.720065 C347.382238,208.861794 346.737974,209.06229 346.136291,209.058833 C345.993739,209.020808 345.567932,208.913647 346.027063,208.882535 C344.949587,208.979326 343.331522,208.858338 342.857581,208.956857 C342.274411,208.884264 342.465098,208.709695 342.779825,208.644015 C340.476767,208.865251 341.739376,208.600805 339.430764,208.820313 L339.469642,208.68204 L338.677271,208.849696 L337.546107,208.559323 L337.951549,208.737349 C337.194354,208.765004 336.722264,208.863523 335.839178,208.784016 L336.192783,208.580064 C334.058196,208.699324 333.721253,208.244753 331.694044,208.536854 C331.555194,208.498829 331.869921,208.43315 332.030987,208.40031 C330.150032,208.726979 330.609163,208.039073 328.717101,208.436606 C328.831883,208.36747 328.626386,208.282778 328.698588,208.224012 L327.837718,208.358828 L327.904366,208.082283 L327.200859,208.491915 L326.671378,208.208457 L326.336287,208.341544 C325.416174,207.81438 324.114687,208.217099 322.855781,207.823022 L323.072387,208.17216 C319.8955,208.903276 315.807757,207.784997 311.973647,208.132407 L312.040295,207.855862 L310.457405,208.187716 C309.607644,207.973393 310.968373,207.949196 310.701781,207.809195 C309.007812,207.968208 309.996423,208.218827 308.026605,208.306976 C307.017629,208.123765 308.376507,208.101295 308.8523,208.001048 C307.006521,208.144506 304.281359,208.308704 302.972467,208.160061 C302.972467,208.160061 302.863238,208.246482 302.929886,208.262037 C301.69875,208.389939 300.075131,208.272408 298.718104,208.296605 C298.751428,208.168703 299.086519,208.146234 299.423462,208.120308 C298.936561,208.104752 298.270081,208.02006 297.85168,208.151419 L298.362648,207.911171 C297.320348,207.866232 295.315354,208.092653 295.082086,207.812651 C295.207977,207.919813 295.15614,208.127222 294.256392,208.118579 C293.756532,207.696848 291.807078,208.305247 290.36489,208.084011 C290.535213,207.983764 291.594175,207.957838 291.296111,207.954381 C290.570388,207.845491 289.922422,208.045986 289.287415,208.179074 L289.481804,208.007961 L286.116081,208.260309 C285.616222,207.842034 282.942897,208.348458 283.170611,208.037344 C281.969096,208.032159 284.179587,208.217099 282.661494,208.277593 C282.254201,208.103024 281.287805,208.374384 281.348899,208.097839 L281.511817,208.06327 L280.451003,208.094382 L281.117483,207.819565 C280.202924,207.885245 279.536445,208.160061 279.490161,208.365742 C278.623738,208.222284 277.394453,208.355371 276.996416,208.111666 L277.318548,208.044258 C274.885897,208.170432 273.280791,207.330426 271.372067,207.807466 C271.227663,207.769441 271.246176,207.702033 271.544241,207.702033 L270.040959,207.696848 L270.396414,207.489439 L267.911926,207.823022 L267.943398,207.686478 C266.301266,207.643268 263.731616,207.734873 261.617394,207.793639 L261.933972,207.724503 C259.629063,207.957838 259.704967,207.61907 258.018403,207.791911 C258.077646,207.755614 258.133186,207.740058 258.196131,207.731416 L256.676187,207.757342 L257.009427,207.61907 C255.889371,207.931912 253.789959,207.275117 254.48606,207.517094 C253.851053,207.657095 252.758767,207.831664 252.571782,208.002776 C250.916691,208.040801 252.164489,207.831664 251.136999,207.72796 C249.939187,207.729688 249.731838,207.971665 248.106367,207.869689 L248.13784,207.731416 C247.473212,207.78154 246.743786,207.838578 245.849593,207.905985 L246.164319,207.836849 C244.44258,208.149691 244.003814,207.458328 242.661598,208.082283 C241.935875,207.980307 240.562186,208.084011 240.625131,207.807466 C238.231358,207.990677 236.702157,208.106481 234.676799,208.262037 C234.325046,207.81438 234.217669,208.300062 232.919884,208.070184 L233.019856,208.310433 C230.002184,208.407223 226.523529,207.881788 223.196684,208.0529 L223.098564,207.810923 L222.437638,208.092653 C218.723864,208.101295 214.152924,208.113394 211.353708,208.120308 C210.420637,208.272408 209.009921,208.583521 207.519598,208.545496 L207.67511,208.505743 C205.090649,208.728707 202.359933,208.918832 199.531097,208.868708 C199.703271,208.761547 199.421868,208.697596 199.734744,208.621546 C199.073818,208.911918 198.079652,208.688954 197.474266,208.701053 L198.188881,208.860066 C197.394659,209.117599 196.233873,208.930931 195.819175,208.766732 L194.558417,209.067475 C194.475107,209.046734 194.325149,208.974141 194.325149,208.974141 L194.10484,209.110685 L193.417996,208.811671 C193.105121,208.885992 191.429665,209.022536 190.916845,209.345748 C190.790955,209.243772 189.602399,209.197105 190.516957,209.108957 L185.875666,209.162537 L186.60324,209.254143 C186.703212,209.494391 185.316564,209.69143 184.592692,209.603281 C185.529467,209.37686 184.655638,209.255871 184.244642,209.089944 C183.618891,209.240316 184.801893,209.286983 184.474207,209.432169 C183.689242,209.622293 182.015637,209.750196 181.591682,209.667232 L182.060069,209.547972 C180.989999,209.686244 180.473477,209.285254 179.416366,209.352662 C178.472186,209.589454 177.761274,209.440811 177.976029,209.848715 C176.604191,209.995629 177.433588,209.589454 176.985566,209.568713 C176.346856,209.796863 174.417767,209.753652 174.162283,209.551429 C173.438412,210.197853 170.444807,209.49612 170.189323,210.023284 L169.045199,209.781307 C169.015578,209.921308 168.808229,210.241063 167.89367,210.337854 C167.023544,210.227236 167.216083,209.976617 166.945788,209.846986 L166.394091,210.384521 C161.389938,210.054395 154.847328,210.690449 149.372937,210.595386 C146.947691,210.846005 143.898546,211.26428 141.054899,211.359342 L141.365923,211.27465 L138.533383,211.300576 L140.599471,211.414651 C139.988531,211.511442 139.51459,211.637616 138.918461,211.66527 C135.808221,211.647986 131.653831,211.587492 127.858598,212.133669 C125.438906,212.909723 126.179439,211.736135 123.850463,212.342806 C124.046704,212.27367 124.115203,212.183792 124.292931,212.112928 C121.762159,212.501819 120.390322,212.7075 117.870658,213.245034 C118.113182,212.640092 116.213715,213.383307 116.41551,213.058366 L116.222972,213.312442 C115.645356,213.210466 114.304991,213.26059 114.482719,213.07565 L113.384878,213.4559 L113.266393,213.220836 C111.774219,213.31417 108.589926,213.756643 107.762381,213.322812 C104.098593,213.926026 98.2742999,214.408252 93.6367112,214.743563 C93.007258,215.002824 91.6576364,215.14801 90.604228,215.268999 L89.4452937,215.085787 C88.3826286,215.275912 87.282937,215.749496 86.2628526,215.65789 C86.2628526,215.65789 86.3035819,215.595667 86.3720812,215.57147 C85.2890515,215.73394 84.2319405,215.680359 83.2433287,216.043325 C82.0473677,216.141844 80.8680687,216.098634 81.20316,215.794434 C81.142066,216.285302 78.66128,215.965546 78.66128,215.965546 C78.66128,215.965546 63.2933663,217.313704 46.1407678,219.576188 C28.9807639,221.823117 10.1267905,225.381907 2.98805117,227.926122 C2.53817729,228.24242 1.19225833,228.62267 1.77542817,228.814523 C0.731276462,229.077241 0.157363289,228.745387 0,229.01329 C1.47736359,228.930326 -0.32213191,229.694282 1.14967768,229.751319 L0.255483929,229.958728 C0.103674638,230.155767 1.44774226,229.564651 1.28852764,229.905148 L1.45329626,229.42465 C2.20123472,229.369341 2.6233386,229.393539 2.91029519,229.498972 C3.565667,229.213785 3.88594758,228.54662 5.58732244,228.532793 L5.13744856,228.634769 C6.47596219,228.396248 6.01498032,228.781683 6.30934224,228.807609 L6.01312899,228.852548 L7.18687399,228.885388 C6.30008557,228.880202 4.95786928,229.471317 5.69284841,229.322674 C7.31646729,229.179217 5.2577852,229.28465 6.44634087,229.032302 C7.18687399,228.885388 7.0239567,229.155019 7.01840271,229.29502 L8.35136233,229.058228 C8.34580834,229.269094 7.46272258,229.193044 8.04774375,229.314032 L9.68802463,228.81798 C10.1027232,229.282921 11.4727095,228.266618 12.3354306,228.624398 C11.1487262,228.94761 12.4779832,228.779955 12.3169172,228.978721 L15.2771984,228.458471 C15.5715603,228.482669 14.5274086,228.747115 14.9735798,228.645139 C15.558601,228.695263 15.8659222,228.368594 16.1676895,228.321927 C16.4527947,228.420446 18.3800322,227.948591 18.3615189,228.304643 C20.414647,228.200938 19.1279707,227.730812 21.0385461,227.615009 C21.3218,227.782664 19.5593312,227.910566 20.4294576,227.988344 L22.3603978,227.589082 C22.2030345,227.718713 22.0419685,227.988344 21.305138,228.064394 C26.6036526,227.428341 29.6453924,228.183654 34.4125744,227.22266 C35.1327429,227.37476 33.9515925,227.455995 33.4961646,227.687602 C36.930387,226.870065 38.4910606,227.545872 41.4550444,227.101672 L41.4772604,226.889078 C45.7186639,226.978955 50.6246959,225.803638 55.3622565,225.551291 L54.780938,225.471784 C55.3974319,225.198696 56.4378809,225.056966 57.1969274,224.875484 C57.3302233,224.965361 56.7007702,225.37845 58.0503918,225.136473 C57.7597325,225.094991 57.17286,225.086349 57.3302233,224.965361 C61.4364795,225.03104 69.9266918,223.912761 76.5822333,223.402881 C85.5352788,222.320898 95.3306807,221.854229 104.133768,220.87595 C102.791552,221.021136 103.313628,220.454219 104.339266,220.480145 C107.199575,221.133483 109.143475,219.971994 112.037108,220.345329 C117.161597,219.678164 121.821402,220.080883 126.558963,219.054209 L126.670043,219.29273 C127.393914,219.349767 127.575344,219.164828 128.325134,219.083592 L128.312175,219.154457 C130.091306,219.09742 132.225892,218.736183 133.255233,218.791492 L133.299665,218.513218 C134.354925,218.426798 133.864322,218.692972 134.934392,218.471736 L134.914028,218.611737 L136.156272,218.276426 C136.069259,218.765566 139.14062,218.139882 140.00149,218.309266 C141.36222,218.141611 143.941126,217.780374 146.022025,217.756176 C146.423764,217.980869 148.965644,217.828769 150.592965,217.858152 C153.743934,217.593706 158.250078,217.272222 162.276727,217.203086 L162.187863,216.893701 L163.235717,216.826293 C163.224609,216.895429 163.369013,216.926541 163.21165,216.966294 C164.042898,217.286049 165.627639,216.750243 166.484806,216.933454 C165.938663,216.672465 165.746124,216.921355 165.146293,216.940368 C164.278017,216.82975 165.085199,216.490982 166.255241,216.594687 L166.236728,216.663823 L167.021693,216.465056 C167.123516,216.705305 167.849238,216.78654 167.954764,217.02506 C171.4075,216.814194 173.740179,216.290487 177.3114,216.247277 C176.957796,216.535921 179.873645,216.064066 179.177544,216.56876 C181.312131,216.295672 178.807277,216.202338 179.76997,215.823817 C180.369802,215.804805 180.99185,215.64752 181.106633,215.816903 C180.830784,215.943077 181.606493,216.084807 181.121443,216.148758 L182.550672,216.051967 C182.689522,216.083078 182.376647,216.1574 182.221135,216.197153 C185.125876,215.827274 187.406718,216.340611 190.011544,215.979374 C190.198528,215.803076 188.969243,215.965546 189.154376,215.787521 C191.774012,215.355419 191.49261,216.020856 193.940072,215.695915 L193.440212,215.948262 C194.227028,215.761594 194.567674,215.547272 195.876566,215.694187 C196.115388,215.967275 194.778726,215.958633 194.154826,216.109004 C195.050872,216.09172 197.315052,215.946534 196.615248,215.716656 C197.685318,215.590482 198.083355,215.825546 198.666525,215.884311 C198.683187,215.815175 197.657548,215.730483 198.281447,215.580112 C199.747703,215.69073 202.004478,215.612951 203.791014,215.580112 C203.776203,215.649248 203.905796,215.749496 203.750284,215.789249 C205.173959,215.381345 205.044366,216.007028 207.012333,215.865299" id="Fill-34"/>
                <path d="M305.703518,212.730466 L304.552644,212.663317 C304.552644,212.768419 304.499663,212.88812 303.969849,213.004901 L305.703518,212.730466" id="Fill-36"/>
                <path d="M269.124173,212.663317 C269.001623,212.70419 268.890746,212.739224 268.718593,212.794695 C268.99287,212.771339 269.124173,212.663317 269.124173,212.663317" id="Fill-37"/>
                <path d="M260.585157,213.004901 C261.953583,212.88812 260.730099,212.777178 260.056544,212.663317 C260.030966,212.756741 260.060807,212.870603 260.585157,213.004901" id="Fill-38"/>
                <path d="M321.597663,212.663317 C321.39925,212.707109 321.279618,212.771339 321.311715,212.867683 C321.577238,212.783017 321.597663,212.663317 321.597663,212.663317" id="Fill-39"/>
                <path d="M377.122389,212.730466 C377.014429,212.710029 376.941483,212.695431 376.78392,212.663317 C376.78392,212.663317 376.967744,212.718788 377.122389,212.730466" id="Fill-40"/>
                <path d="M373.316583,210.929648 C373.090375,210.944246 372.835892,210.958843 372.160804,211.002636 C372.666236,211.025992 373.030289,210.985119 373.316583,210.929648" id="Fill-41"/>
                <path d="M309.170854,212.663317 C308.761595,212.677914 308.363704,212.715868 308.015075,212.815132 C308.644122,212.803454 308.958646,212.733385 309.170854,212.663317" id="Fill-42"/>
                <polyline id="Fill-43" points="373.316583 210.970522 372.180441 210.929648 372.160804 211.020153 373.316583 210.970522"/>
                <path d="M377.939698,212.712948 C377.587742,212.698351 377.208538,212.680834 376.78392,212.663317 C377.242598,212.788856 377.603637,212.785937 377.939698,212.712948" id="Fill-44"/>
                <path d="M342.688442,210.929648 L342.5706,210.941326 C341.704601,211.145693 342.247221,211.058107 342.688442,210.929648" id="Fill-45"/>
                <polyline id="Fill-46" points="369.195336 212.680834 369.037773 212.663317 368.693467 212.794695 369.195336 212.680834"/>
                <path d="M382.422111,212.663317 C382.040201,212.677914 381.688442,212.698351 381.407035,212.753822 C381.753769,212.768419 382.115578,212.783017 382.562814,212.803454 C382.452261,212.742144 382.422111,212.663317 382.422111,212.663317" id="Fill-47"/>
                <path d="M353.145655,213.048694 C353.478288,212.873522 353.603756,212.753822 353.615427,212.663317 C353.224436,212.672075 352.973502,212.750902 353.145655,213.048694" id="Fill-48"/>
                <path d="M362.336683,169.321608 C362.336683,169.321608 362.39504,169.423791 362.441726,169.502618 C362.397958,169.42963 362.336683,169.321608 362.336683,169.321608" id="Fill-49"/>
                <polyline id="Fill-50" points="364.070352 169.321608 364.070352 169.423791 364.070352 169.321608"/>
                <polyline id="Fill-51" points="360.713893 169.356642 360.681797 169.321608 360.603015 169.350803 360.713893 169.356642"/>
                <polyline id="Fill-52" points="364.079105 169.321608 364.070352 169.324528 364.079105 169.321608"/>
                <path d="M364.070352,169.447264 C364.108284,169.368437 364.160805,169.321725 364.160805,169.321725 C364.160805,169.321725 364.122873,169.312966 364.070352,169.447264" id="Fill-53"/>
                <path d="M359.447236,169.321608 L359.730267,169.452987 C359.625224,169.377079 359.447236,169.321608 359.447236,169.321608" id="Fill-54"/>
                <polyline id="Fill-55" points="359.447236 169.321608 359.514347 169.339125 359.447236 169.321608"/>
                <path d="M359.549523,169.423791 L359.447399,169.321608 C359.447399,169.321608 359.438645,169.36832 359.549523,169.423791" id="Fill-56"/>
                <polyline id="Fill-57" points="359.447236 169.321608 359.505593 169.374159 359.447236 169.321608"/>
                <path d="M359.663156,169.321608 C359.663156,169.321608 359.531854,169.517216 359.447236,169.695307 L359.663156,169.321608" id="Fill-58"/>
                <polyline id="Fill-59" points="364.169558 171.069874 364.070352 171.055276 364.169558 171.069874"/>
                <polyline id="Fill-60" points="359.464743 169.388757 359.447236 169.321608 359.464743 169.388757"/>
                <path d="M359.575817,166.759147 C359.412418,166.49639 359.768395,166.639447 359.564146,166.432161 C359.543721,166.522666 359.304458,166.446758 359.575817,166.759147" id="Fill-61"/>
                <polyline id="Fill-62" points="371.013779 172.211055 371.005025 172.275285 371.013779 172.211055"/>
                <polyline id="Fill-63" points="359.447236 169.391677 359.467661 169.470504 359.491004 169.321608 359.447236 169.391677"/>
                <polyline id="Fill-64" points="365.80402 169.37124 365.80402 169.37124 365.827363 169.321608 365.80402 169.37124"/>
                <polyline id="Fill-65" points="365.80402 169.403355 365.88572 169.321608 365.80402 169.403355"/>
                <path d="M359.572703,169.321608 L359.447236,169.534733 C359.447236,169.534733 359.526018,169.420872 359.572703,169.321608" id="Fill-66"/>
                <polyline id="Fill-67" points="364.070352 169.350803 364.105366 169.321608 364.070352 169.350803"/>
                <polyline id="Fill-68" points="364.070352 169.382918 364.093694 169.321608 364.070352 169.382918"/>
                <polyline id="Fill-69" points="367.537688 166.43508 367.540606 166.43508 367.540606 166.432161 367.537688 166.43508"/>
                <path d="M367.537688,166.619782 C367.546442,166.704448 367.736102,166.584748 367.908254,166.432933 C367.908254,166.432933 367.779869,166.409577 367.537688,166.619782" id="Fill-70"/>
                <polyline id="Fill-71" points="367.537688 166.473034 367.543524 166.432161 367.537688 166.473034"/>
                <polyline id="Fill-72" points="365.815691 166.432161 365.80402 166.464276 365.818609 166.438 365.815691 166.432161"/>
                <polyline id="Fill-73" points="365.821527 166.432161 365.80402 166.569378 365.821527 166.432161"/>
                <polyline id="Fill-74" points="368.702221 166.432161 368.693467 166.440919 368.699303 166.440919 368.702221 166.432161"/>
                <path d="M371.57642,170.491696 C371.464223,169.986158 371.043486,169.441226 371.028636,168.988211 C370.662347,168.976722 370.616149,168.850337 370.502302,168.742007 L370.944489,168.592644 L370.767944,168.522065 C370.888391,168.43179 370.878491,168.584437 371.020387,168.446563 L370.731645,168.492521 C370.888391,168.433432 370.728345,168.16589 371.116084,168.249599 L370.942839,167.79166 C370.91314,167.686613 370.565,167.886859 370.619449,167.735854 C370.734945,167.65871 370.723395,167.735854 370.871891,167.660351 C371.020387,167.17615 369.88687,167.686613 369.928119,167.330438 L369.995767,167.322231 C369.860471,167.338645 369.824172,167.246729 369.764774,167.279556 C369.381985,167.55038 370.012267,167.197488 369.822522,167.415789 C369.474383,167.604545 369.57998,167.425637 369.324237,167.583208 C369.411685,167.455181 369.198841,167.537249 369.149342,167.502781 C369.306088,167.287763 369.084994,167.268067 369.294538,167.028428 C369.160892,167.059614 368.814402,167.243446 368.741805,167.17615 C368.943099,166.931588 368.987647,167.012014 369.015696,166.859368 L368.825952,166.989035 C368.802853,166.902043 368.858951,166.870858 368.946398,166.806845 C368.89525,166.728059 368.656007,166.948001 368.700556,166.767452 L368.9101,166.672253 C368.789653,166.662405 368.792953,166.613164 368.725305,166.5114 C368.824302,166.424408 368.852351,166.465442 368.849051,166.517965 C369.055295,166.242217 368.660957,166.532738 368.665907,166.483497 C368.599909,166.558999 368.621358,166.649274 368.428314,166.772376 C368.420064,166.701798 368.123073,166.900402 368.289718,166.685384 L368.492662,166.577054 C368.279818,166.613164 368.243519,166.731342 368.21217,166.573771 C368.21217,166.573771 368.266619,166.522889 368.301268,166.490062 C368.040575,166.639426 368.142872,166.373526 368.053775,166.271761 L368.111523,166.242217 C368.020776,166.265196 367.857431,166.373526 367.857431,166.373526 C367.826082,166.519607 367.766684,166.557358 367.629738,166.729701 C367.802983,166.381732 367.248599,166.98247 367.286548,166.724777 C367.367396,166.623012 367.492792,166.519607 367.436694,166.652557 C367.713885,166.380091 367.925079,166.127322 368.119773,166.051819 C368.012526,166.081364 367.923429,166.078081 368.037276,165.959903 L367.798033,166.229086 L367.735335,166.16179 C367.585189,166.334133 367.56044,166.49991 367.410294,166.570489 C367.273348,166.611523 367.595089,166.247141 367.487842,166.368602 C367.301398,166.41456 367.22055,166.654198 367.194151,166.493345 L367.263449,166.468724 C367.276648,166.302947 367.060505,166.41456 367.273348,166.033764 C367.334397,165.959903 367.406994,165.851573 367.416894,165.900814 L367.378945,165.95662 C367.636338,165.746526 367.263449,165.982882 367.499392,165.669382 C367.378945,165.869628 367.299748,165.756375 367.270048,165.687437 L367.151252,165.927076 C366.596869,166.521248 367.426794,165.474061 367.197451,165.469137 C366.999457,165.56926 367.20405,165.556129 367.047305,165.684155 C366.996157,165.607011 367.072054,165.380503 366.907059,165.429744 C366.920259,165.319773 366.912009,165.15892 367.025856,164.884813 C366.88726,164.893019 367.088554,164.927488 366.697516,164.764993 C366.697516,164.764993 366.646367,164.745297 366.588619,164.878247 C366.525921,165.116244 367.078654,164.725601 366.938408,165.099831 L366.781663,165.344393 C366.697516,165.283663 366.308127,165.303359 366.423624,165.234422 L366.369175,165.418254 C366.256979,165.495398 366.139832,165.76294 366.091984,165.652969 C366.167881,165.398558 366.237179,165.446158 366.237179,165.446158 C366.256979,165.227857 366.190981,165.41333 366.143132,165.305001 C366.21573,165.085059 366.190981,165.336187 366.271828,165.124451 L366.136532,165.15892 L366.149732,165.114603 C366.006186,165.475702 366.017736,165.042383 365.86429,165.126093 C365.585449,165.060438 365.438603,165.565977 365.281858,165.854856 C365.268658,165.748168 365.271958,165.648045 365.298357,165.552846 C365.324756,165.730113 365.331356,165.59388 365.366005,165.49704 C365.291757,165.526584 365.258758,165.103113 365.318157,164.950467 C365.184511,165.05059 365.336306,165.15892 365.250509,165.270532 L365.093763,165.23114 C365.095413,165.431385 365.143262,165.477343 365.054165,165.621783 C364.986517,165.671024 364.958467,165.628348 364.87597,165.608652 C364.892469,165.513453 364.86112,165.306642 364.928768,165.323056 C364.889169,165.245912 364.818222,165.23114 364.790172,165.423179 C364.87432,165.603728 364.636727,165.59388 364.701075,165.902456 L364.615278,165.723547 C364.615278,165.723547 364.636727,165.59388 364.668076,165.633273 C364.641677,165.332904 364.565779,165.748168 364.565779,165.748168 C364.53443,165.69072 364.451933,165.6661 364.438733,165.551205 C364.413984,165.634914 364.343036,165.570901 364.318287,165.418254 C364.278688,165.478985 364.328186,165.615218 364.321586,165.712058 L364.181341,165.698927 C364.158241,165.53315 364.098843,165.073569 364.116993,165.009556 C364.072444,165.170409 364.145042,165.500322 364.060894,165.495398 C364.072444,165.170409 363.915699,165.262325 363.942098,164.873323 C363.8596,164.643533 363.699555,164.674719 363.630257,164.771559 C363.622007,165.030894 363.744104,164.901226 363.782052,165.160561 C363.567559,165.283663 363.712755,166.005861 363.547759,165.910662 L363.600558,165.974675 C363.549409,166.13717 363.549409,166.104343 363.556009,166.33085 C363.504861,166.010785 363.237569,165.501964 363.100623,165.616859 C363.138572,165.777712 363.272218,165.890966 363.321716,166.145377 L363.247468,166.220879 L363.226019,166.099419 C363.18477,166.235651 362.938928,165.749809 363.039575,166.117474 L362.792082,165.698927 L362.896029,165.877835 C362.938928,166.033764 362.86468,166.110908 362.86963,166.174921 C362.84323,166.375167 362.764033,166.261913 362.630387,166.092853 C362.701335,166.20939 362.85643,166.473649 362.811881,166.549151 C362.599038,166.06495 362.587488,166.434256 362.473642,166.186411 C362.473642,166.186411 362.323496,166.081364 362.417543,166.278327 L362.275647,165.982882 C362.471992,166.396505 362.361445,166.424408 362.326796,166.539303 C362.043004,165.984523 362.270698,166.626295 361.953907,166.155225 C362.151901,166.529455 361.897809,166.380091 362.076003,166.693591 C362.031455,166.742832 361.823561,166.407994 361.734464,166.302947 L361.792212,166.453952 C361.655266,166.307871 361.52657,166.360395 361.378074,166.298023 L361.538119,166.642709 L361.414373,166.522889 C361.460572,166.606599 361.447372,166.685384 361.561219,166.774017 L361.51667,166.778941 C361.765813,167.103931 361.541419,166.895478 361.594218,167.080952 C361.539769,167.041559 361.480371,166.962774 361.458922,166.91025 C361.458922,166.91025 361.307126,166.759245 361.203179,166.66897 C361.285677,166.734625 361.572768,167.315666 361.765813,167.394451 C361.876359,167.517553 361.915958,167.643938 361.84501,167.607828 L361.587618,167.34521 L361.815311,167.660351 C361.813661,167.732571 361.638766,167.573359 361.579368,167.571718 C361.579368,167.571718 361.17678,166.984111 361.087683,167.076027 C361.104182,166.997242 360.991986,166.823258 360.968886,166.742832 C360.968886,166.742832 360.902888,166.734625 360.83194,166.588544 C360.825341,166.746114 360.955687,166.778941 360.909488,166.882347 C360.688395,166.642709 360.591048,166.581978 360.440902,166.573771 L360.661996,166.693591 L360.714794,166.767452 C360.759343,166.774017 360.800591,166.806845 360.891339,166.893837 C360.891339,166.893837 361.090983,167.268067 360.939187,167.138399 C361.368174,167.430561 361.104182,167.537249 361.371474,167.706309 C361.432523,167.778529 361.407773,167.835977 361.280727,167.729288 C361.152031,167.504422 360.963937,167.519194 360.802241,167.3567 C360.85174,167.442051 361.026635,167.473236 361.090983,167.588132 C361.076133,167.635731 360.899588,167.52576 360.803891,167.479802 L360.770892,167.423996 L360.604247,167.386244 C360.721394,167.499498 360.868239,167.510988 360.884739,167.617676 C360.820391,167.58649 360.84184,167.69482 360.741193,167.611111 C360.589398,167.440409 360.340255,167.268067 360.340255,167.182716 C360.320456,167.240163 360.242908,167.404299 360.529999,167.538891 L360.482151,167.581566 C360.617447,167.632448 360.874839,167.709592 360.83854,167.82777 L360.787392,167.786736 L360.937537,168.001754 L360.779142,167.926252 C360.84844,167.975492 360.881439,168.049354 360.881439,168.049354 C360.792342,168.001754 360.759343,167.983699 360.642196,167.919686 C360.600947,167.998471 360.744493,168.087105 360.817091,168.151118 C360.808841,168.200359 360.741193,168.17738 360.592698,168.050995 C360.51845,168.083822 360.495351,168.206924 360.320456,168.159325 C360.399653,168.313612 360.389754,168.17738 360.553099,168.336591 C360.015215,168.113367 360.200009,168.497445 360.213209,168.661581 C360.686745,168.833923 360.247858,168.723952 360.655396,168.930764 C360.52505,168.837206 360.242908,168.90286 360.16536,168.728876 L360.18021,168.822434 C359.901368,168.771552 360.046564,168.615623 359.662125,168.548327 C359.635726,168.653374 360.119162,168.906143 359.911268,168.943894 C359.587878,168.789607 359.995415,169.066996 359.634076,168.911067 C359.52023,168.847054 359.551579,168.784683 359.551579,168.784683 L359.478981,168.7814 C359.310686,168.966873 359.85682,168.981646 360.056464,169.158913 C360.063063,169.28858 359.757823,169.173685 359.594477,169.134292 C359.52188,169.134292 359.556529,169.21636 359.635726,169.272166 C359.449282,169.135933 359.893118,169.19174 360.099362,169.28858 C359.691824,169.231132 360.015215,169.455999 360.16371,169.51837 C360.625697,169.469129 360.218159,169.408399 360.701594,169.400192 C360.584448,169.344386 360.234658,169.239339 360.406253,169.198305 C360.559699,169.308276 360.599297,169.257394 360.658696,169.26396 C360.455752,169.211436 360.594348,169.178609 360.52175,169.124444 C360.688395,169.162195 360.958987,169.332897 361.066233,169.291863 L360.612497,169.103106 C360.694995,169.098182 360.944137,169.244263 360.86164,169.140858 C361.086033,169.267242 361.236178,169.280373 361.275777,169.380496 C361.706414,169.451074 361.122332,169.170402 360.996936,169.014473 L361.107482,169.08341 C360.996936,169.014473 361.000235,168.953743 361.000235,168.953743 C361.123982,168.953743 361.18338,169.086693 361.313726,169.131009 L361.333526,169.052224 L361.366525,169.066996 C361.313726,169.017756 361.284027,168.978363 361.397874,169.027604 C361.53152,169.114596 361.670115,169.203229 361.779012,169.272166 L361.51172,169.048941 C361.650316,169.131009 361.788912,169.129368 361.86811,169.229491 L361.86151,169.106389 L362.151901,169.267242 C362.113952,169.218001 362.057854,169.183533 362.008355,169.186816 C362.087553,169.204871 361.599168,168.740366 362.138702,169.112954 C361.957207,168.897936 362.066104,168.935688 361.993506,168.755138 C362.19315,168.998059 362.351545,168.925839 362.417543,169.07192 C362.556139,169.129368 362.278947,168.899578 362.259148,168.835565 C362.387844,168.897936 362.627087,169.121161 362.706285,169.219643 L362.610587,169.096541 L362.660086,169.139216 L362.53964,168.994777 C362.698035,169.086693 362.797032,169.206512 362.85313,169.214719 L362.638637,169.014473 L362.782182,169.112954 C362.676585,169.027604 362.648536,168.93897 362.648536,168.93897 L362.696385,168.983287 L362.676585,168.922557 C362.785482,169.068638 362.742583,168.947177 362.884479,169.103106 C362.884479,169.103106 362.907579,169.093258 362.900979,169.02268 L362.754133,168.884805 C362.681535,168.717387 362.963677,169.096541 363.011525,169.078486 L362.85148,168.912709 C363.164971,169.15563 362.798682,168.669787 363.004926,168.822434 C363.014825,168.883164 363.19302,169.08341 363.151771,169.032528 C363.127022,168.937329 363.219419,168.95046 363.094023,168.699332 C363.305217,168.960308 363.367915,169.039093 363.486711,169.139216 C363.486711,169.139216 363.483411,169.076845 363.384414,168.911067 C363.476812,168.998059 363.425663,168.812586 363.556009,169.017756 C363.460312,168.850337 363.597258,169.039093 363.52796,168.88973 L363.580758,168.97508 L363.461962,168.776476 C363.763903,169.199946 363.404214,168.472824 363.666556,168.843772 L363.686355,168.90286 L363.664906,168.812586 C363.709455,168.904502 363.735854,168.960308 363.791952,169.078486 L363.895899,169.081769 L363.805152,168.930764 C363.805152,168.930764 363.737504,168.691125 363.816701,168.810944 C363.918998,169.14414 363.853,168.809303 363.961897,169.052224 L363.980047,169.14414 C363.980047,169.14414 363.993246,169.114596 363.904149,168.899578 C363.909099,168.810944 364.088943,169.301711 364.027895,169.060431 L364.003146,169.057148 C363.947048,168.934046 363.914049,168.751855 363.914049,168.751855 L363.975097,168.907785 C363.973447,168.81751 364.054294,168.915991 364.036145,168.824075 C364.072444,168.888088 364.118642,169.045659 364.130192,169.106389 C364.121942,168.894654 364.164841,169.137575 364.161541,168.930764 L364.19784,169.057148 L364.174741,168.90286 L364.270438,169.165478 L364.219289,169.002983 C364.219289,169.002983 364.220939,168.884805 364.260538,168.953743 L364.295187,169.14414 C364.321586,169.029245 364.412334,169.449433 364.400784,169.175326 L364.417284,169.301711 C364.402434,168.998059 364.496481,169.643114 364.473382,169.272166 L364.503081,169.470771 L364.499781,169.344386 L364.53113,169.605362 L364.496481,169.219643 L364.53608,169.487184 L364.52783,169.3608 C364.616928,169.858132 364.55093,169.483902 364.615278,169.85649 L364.592178,169.524936 C364.628477,168.84213 364.697775,169.905731 364.729124,169.600438 L364.702725,169.861414 L364.750574,169.55448 C364.725824,169.761291 364.722524,169.777705 364.706025,169.910655 C364.729124,169.767857 364.767073,169.528218 364.778623,169.454357 C364.757173,169.628341 364.755523,169.643114 364.743974,169.73503 C364.734074,169.610286 364.755523,169.464205 364.706025,169.597155 L364.732424,169.503598 C364.734074,169.373931 364.748924,169.500315 364.826471,169.511805 C364.786873,169.625059 364.743974,169.657886 364.743974,169.657886 C364.743974,169.657886 364.760473,169.767857 364.818222,169.657886 L364.722524,169.864697 C364.753874,169.923786 364.904019,169.756367 364.829771,170.012419 C364.85617,169.913938 364.955168,169.753085 364.955168,169.753085 C364.897419,170.155218 364.798422,169.51837 364.852871,169.77114 C364.811622,169.85649 364.800072,169.877828 364.800072,169.877828 C364.757173,169.976309 364.838021,169.807249 364.897419,169.697278 L364.824821,169.843359 L364.946918,169.652962 C364.753874,169.997647 364.996416,169.618493 364.846271,169.866338 C364.846271,169.866338 364.941968,169.718616 364.966717,169.679223 C364.88092,169.823663 365.021166,169.618493 364.87762,169.836794 L364.86112,169.863056 L364.87762,169.849925 L364.732424,170.06166 C364.765423,170.015702 364.913919,169.805608 365.026115,169.644755 C364.951868,169.766215 365.031065,169.674299 364.892469,169.866338 L364.852871,169.913938 C364.935368,169.85649 364.415634,170.478565 364.702725,170.145369 L364.636727,170.219231 L364.630127,170.23072 C364.630127,170.23072 364.483282,170.388291 364.52453,170.343974 L364.706025,170.161783 L364.613628,170.255341 C364.577329,170.299657 364.669726,170.234003 364.669726,170.234003 L364.621877,170.273396 C364.781923,170.156859 364.52783,170.36367 364.644977,170.279961 L364.600428,170.312788 L364.610328,170.316071 L364.506381,170.391573 C364.739024,170.229079 364.21434,170.609874 364.407384,170.468717 C364.511331,170.403063 364.636727,170.319354 364.772023,170.232362 C364.772023,170.232362 364.631777,170.329202 364.54103,170.394856 C364.54103,170.394856 364.725824,170.289809 364.631777,170.358746 L364.517931,170.426042 L364.644977,170.368594 L364.588878,170.396497 C364.836371,170.279961 364.247339,170.586895 364.763773,170.334126 C364.671376,170.385008 364.742324,170.345615 364.511331,170.472 C364.676326,170.407987 364.748924,170.394856 364.85617,170.376801 C364.451933,170.53273 364.88422,170.371877 364.654876,170.467076 L364.87432,170.388291 C364.925468,170.414552 364.362835,170.60495 364.466782,170.586895 L364.239089,170.639419 L364.488231,170.585254 C364.384285,170.618081 364.288587,170.647625 364.288587,170.647625 C364.409034,170.636136 364.689525,170.627929 364.608678,170.639419 L364.575679,170.639419 C364.709325,170.642701 364.801722,170.66568 364.674676,170.668963 C364.577329,170.662398 364.508031,170.657474 364.445333,170.65255 C364.722524,170.675529 364.413984,170.649267 364.491531,170.655832 C364.435433,170.649267 364.623527,170.667322 364.623527,170.667322 C364.87102,170.695225 364.52618,170.659115 364.52618,170.659115 L364.707675,170.683735 L364.611978,170.670604 L364.732424,170.688659 C364.668076,170.680453 364.499781,170.654191 364.577329,170.66568 C364.577329,170.66568 364.668076,170.683735 364.85947,170.721487 C364.765423,170.703432 364.691175,170.688659 364.638377,170.678811 L364.725824,170.696866 L364.712625,170.693584 C364.796772,170.71328 365.039315,170.7855 364.907319,170.751031 C364.654876,170.675529 364.760473,170.708356 364.760473,170.708356 L364.755523,170.706714 C364.889169,170.747748 364.970017,170.777293 364.86772,170.742824 L364.795122,170.718204 L364.833071,170.731335 C364.833071,170.731335 364.833071,170.731335 364.88752,170.752672 L364.86937,170.746107 L364.900719,170.760879 L364.933718,170.777293 L364.945268,170.782217 L364.946918,170.783858 L364.950218,170.787141 L364.951868,170.788782 L364.955168,170.790424 L367.971278,169.498674 L367.969628,169.500315 C367.964678,169.354234 368.025726,169.132651 368.043875,168.999701 L367.908579,169.467488 C367.809582,168.909426 367.443293,169.18025 367.303047,168.705897 C367.172701,168.7814 366.987907,168.970156 366.87901,168.873316 L366.907059,168.815868 L366.814662,168.658298 L366.852611,168.896295 C366.813012,168.945536 366.745364,169.019397 366.745364,169.019397 C366.657917,168.789607 366.53252,168.507293 366.308127,168.70918 C366.072184,169.231132 366.349376,168.208565 366.153032,168.582795 L366.21573,168.405529 C366.062284,168.561458 365.979787,168.640243 365.793343,168.935688 C365.931938,168.397322 365.717445,168.930764 365.794992,168.64845 L365.732294,168.866751 C365.738894,168.725594 365.692696,168.664863 365.738894,168.508934 L365.625048,168.771552 L365.672896,168.545044 C365.611848,168.512217 365.428703,168.664863 365.501301,168.200359 C365.260408,168.502369 365.027765,168.341516 364.846271,168.206924 C364.773673,168.384191 364.710975,168.385832 364.661476,168.394039 L364.674676,168.113367 C364.607028,168.185586 364.478332,168.512217 364.475032,168.330026 L364.496481,168.261089 C364.435433,168.305406 364.423883,168.152759 364.319936,168.390756 C364.270438,168.364495 364.253938,168.208565 364.328186,167.962362 C364.219289,168.408811 364.232489,167.872087 364.232489,167.872087 C364.232489,167.872087 361.793862,166.160149 360.569598,168.433432 C360.497,168.646808 360.402953,168.776476 360.363354,169.044017 C360.297356,169.116237 360.366654,168.72067 360.307256,168.940612 C360.335305,169.101465 360.152161,169.506881 360.150511,169.79576 L360.097712,169.840077 C360.053164,169.994364 360.195059,169.674299 360.119162,169.956613 L360.226409,169.547915 C360.244558,169.616852 360.241258,169.707127 360.221459,169.849925 C360.289107,169.695637 360.439252,169.142499 360.454102,169.403475 L360.429352,169.423171 C360.492051,169.42153 360.402953,169.697278 360.399653,169.767857 L360.388104,169.761291 L360.389754,169.981234 C360.383154,169.833511 360.280857,170.137163 360.280857,170.137163 C360.325406,170.268471 360.285807,170.032116 360.351805,169.994364 C360.351805,169.994364 360.328705,170.199534 360.297356,170.325919 L360.360055,170.324278 C360.313856,170.516317 360.323756,170.304581 360.300656,170.50811 L360.422753,170.322636 C360.323756,170.811761 360.559699,170.10926 360.487101,170.573764 C360.406253,170.675529 360.454102,170.7379 360.407903,170.892188 L360.546499,170.895471 C360.543199,170.966049 360.50195,171.016931 360.50195,171.016931 C360.495351,171.156447 360.584448,170.915167 360.584448,170.915167 C360.562998,171.049759 360.683445,170.931581 360.604247,171.253287 C360.643846,171.488001 360.737893,170.852795 360.779142,171.056324 C360.742843,171.254928 360.699944,171.08751 360.690045,171.297604 L360.793992,171.24508 C360.764292,171.338638 360.703244,171.556939 360.680145,171.507698 C360.85504,171.819556 360.739543,172.876592 361.015085,172.664856 C360.991986,172.904495 360.957337,172.815861 360.899588,172.963584 C361.127282,172.691118 360.998586,173.523287 361.137181,173.52657 L361.18338,173.334531 C361.227929,173.97302 361.53317,173.669368 361.683315,173.964813 L361.689915,173.825297 C361.760863,173.646389 361.812011,173.638182 361.86481,173.559397 C361.84831,173.657879 361.744363,173.963171 361.823561,173.899158 C361.826861,173.826939 361.818611,173.749795 361.84831,173.657879 C361.909358,174.197886 362.315246,174.163417 362.552839,174.471993 C362.983476,174.417828 363.325016,174.892181 363.742454,174.864278 C363.678106,174.865919 363.815052,174.398132 363.833201,174.517951 C363.768853,175.348479 364.077394,174.4326 364.075744,175.008717 C364.361185,174.803547 364.400784,175.547083 364.757173,174.980814 L364.707675,175.208963 C364.714275,175.318934 364.798422,175.148233 364.798422,175.148233 L364.783573,175.212246 C364.841321,175.315652 364.989816,175.107199 365.009616,175.227018 L365.072314,174.972607 C365.123462,174.961118 365.049215,175.174495 365.130062,175.039903 L365.098713,175.167929 L365.21256,174.93978 C365.102013,175.384589 365.334656,175.005435 365.324756,175.215529 C365.403954,175.149874 365.562349,174.984097 365.633297,175.095709 C365.595348,175.328782 365.709195,175.351761 365.752094,175.484712 C365.903889,175.460091 366.120033,175.432188 366.276778,175.553649 L366.342776,175.263128 L366.393925,175.254921 C366.377425,175.317293 366.360926,175.381306 366.360926,175.381306 C366.319677,175.719426 366.491272,175.305803 366.481372,175.517539 C366.519321,175.249997 366.433523,175.456808 366.433523,175.456808 C366.426924,175.309086 366.529221,175.038262 366.54737,175.194191 L366.530871,175.256563 L366.601818,175.113764 C366.56387,175.343555 366.54737,175.450243 366.511071,175.678392 L366.527571,175.675109 L370.365356,174.073142 L370.367006,174.068218 L370.368656,174.061653 L370.373606,174.045239 L370.385156,173.981226 C370.385156,173.981226 370.391755,173.899158 370.393405,173.848276 L370.373606,173.5873 C370.353807,173.416599 370.360406,173.262311 370.470953,173.129361 C370.698646,173.262311 370.500652,172.878233 370.89499,173.108023 C370.812493,172.85033 370.541901,173.0079 370.277909,172.806013 C370.304308,172.756772 370.206961,172.663215 370.367006,172.709173 C370.461053,172.771545 370.642548,172.760055 370.665647,172.817503 L370.678847,172.677987 L370.789394,172.748565 C370.634298,172.412087 371.211781,172.354639 371.018737,172.044422 C370.861991,171.991899 370.949439,172.129773 370.794343,172.075608 C370.525401,171.776881 371.134233,171.922962 370.936239,171.660344 L371.152383,171.742412 C371.008837,171.642289 370.822393,171.588124 371.017087,171.494567 C371.286029,171.507698 371.220031,171.624234 371.333877,171.70302 C371.356977,171.61931 371.315728,171.396085 371.068235,171.433837 C370.993987,171.327148 371.23488,171.315659 371.312428,171.268059 C371.24808,171.259853 371.124334,171.343562 371.008837,171.274625 C371.177132,171.154806 371.172182,170.951277 371.203531,170.790424 C371.267879,170.793706 371.399875,170.798631 371.399875,170.798631 C371.056686,170.662398 371.650668,170.682094 371.57642,170.491696" id="Fill-75"/>
                <path d="M365.80402,166.633608 L365.909062,166.735791 C365.941159,166.636527 365.982008,166.522666 366.081215,166.432161 L365.80402,166.633608" id="Fill-76"/>
                <polyline id="Fill-77" points="367.537688 166.49639 367.651484 166.432161 367.537688 166.49639"/>
                <path d="M368.944402,166.432206 C368.813099,166.429286 368.763496,166.569423 368.693467,166.677446 L368.944402,166.432206" id="Fill-78"/>
                <path d="M364.070352,166.639447 C364.070352,166.639447 364.079105,166.531425 364.084941,166.432161 C364.079105,166.516827 364.070352,166.639447 364.070352,166.639447" id="Fill-79"/>
                <polyline id="Fill-80" points="359.447236 166.432161 359.514347 166.470115 359.447236 166.432161"/>
                <polyline id="Fill-81" points="359.447236 168.262173 359.458908 168.165829 359.447236 168.262173"/>
                <path d="M365.80402,166.563539 C365.80402,166.563539 365.874048,166.525586 365.914898,166.432161 L365.80402,166.563539" id="Fill-82"/>
                <polyline id="Fill-83" points="359.447236 166.516827 359.546443 166.505149 359.491004 166.432161 359.447236 166.516827"/>
                <path d="M359.447236,166.488827 L359.572703,166.453793 C359.453072,166.389563 359.447236,166.488827 359.447236,166.488827" id="Fill-84"/>
                <path d="M362.338075,166.570085 L362.343911,166.558407 C362.346829,166.345282 362.332239,166.438707 362.338075,166.570085" id="Fill-85"/>
                <polyline id="Fill-86" points="359.479332 166.546022 359.499757 166.551861 359.447236 166.432161 359.479332 166.546022"/>
                <polyline id="Fill-87" points="359.549361 166.525586 359.526018 166.432161 359.447236 166.432161 359.549361 166.525586"/>
                <path d="M360.603015,166.432161 C360.66429,166.598574 360.705139,166.709515 360.734318,166.794182 C360.734318,166.794182 360.740154,166.697837 360.603015,166.432161" id="Fill-88"/>
            </g>
        </g>
    </g>
</svg>