<?xml version="1.0" encoding="UTF-8"?>
<svg width="273px" height="120px" viewBox="0 0 273 120" version="1.1" xmlns="http://www.w3.org/2000/svg" xmlns:xlink="http://www.w3.org/1999/xlink">
    <!-- Generator: Sketch 50.2 (55047) - http://www.bohemiancoding.com/sketch -->
    <title>Group Copy</title>
    <desc>Created with Sketch.</desc>
    <defs></defs>
    <g id="Page-1" stroke="none" stroke-width="1" fill="none" fill-rule="evenodd">
        <g id="Homepage_New-Copy" transform="translate(-80.000000, -60.000000)">
            <g id="Group-Copy" transform="translate(80.000000, 60.000000)">
                <polygon id="Fill-22" fill="#121821" points="0 100.5 258 100.5 258 0 0 0"></polygon>
                <path d="M57.0602881,59.2261784 C58.2988359,58.4154433 58.9191793,57.1636684 58.9191793,55.4643677 C58.9191793,52.1090055 56.4591967,50.4313244 51.5349534,50.4313244 L40.7153085,50.4313244 L40.7153085,60.4412 L51.5349534,60.4412 C53.9778231,60.4412 55.8196013,60.0369135 57.0602881,59.2261784 Z M40.7153085,34.0588 L40.7153085,43.6038542 L49.9327561,43.6038542 C52.2216094,43.6038542 53.958571,43.1995676 55.1436409,42.3888325 C56.3244325,41.5802594 56.9169674,40.3846955 56.9169674,38.8043026 C56.9169674,37.2217477 56.3244325,36.0348316 55.1436409,35.2457161 C53.958571,34.4544387 52.2216094,34.0588 49.9327561,34.0588 L40.7153085,34.0588 Z M66.3034051,50.1135163 C67.6018481,51.8301126 68.25,53.9423477 68.25,56.4480596 C68.25,59.9979982 66.8873836,62.7263919 64.1578725,64.6354028 C61.4283615,66.5444136 57.4517462,67.5 52.2216094,67.5 L31.5,67.5 L31.5,27 L51.0771828,27 C55.9607829,27 59.7106519,27.9469386 62.3267899,29.8364918 C64.9407887,31.7260449 66.2477881,34.2901297 66.2477881,37.530908 C66.2477881,39.4982918 65.7793219,41.2538034 64.8445285,42.7952811 C63.9097352,44.3389206 62.6027357,45.5539422 60.9235303,46.4403459 C63.2123836,47.1732504 65.0071013,48.3990818 66.3034051,50.1135163 Z" id="Fill-23" fill="#FFFFFF"></path>
                <path d="M109.300031,51.7047189 L103.041796,36.1991406 L96.7856667,51.7047189 L109.300031,51.7047189 Z M112.173216,58.8218918 L93.8535012,58.8218918 L90.3589161,67.5 L81,67.5 L98.5887799,27 L107.606453,27 L125.25,67.5 L115.667801,67.5 L112.173216,58.8218918 Z" id="Fill-24" fill="#FFFFFF"></path>
                <path d="M145.809775,66.2182564 C142.879502,65.3623413 140.527657,64.2530582 138.75,62.8840198 L141.868844,55.9323707 C143.568106,57.1864354 145.591541,58.1935197 147.93703,58.9536234 C150.278283,59.7137272 152.623772,60.0927145 154.965024,60.0927145 C157.575361,60.0927145 159.503451,59.7030814 160.751413,58.9238154 C161.997255,58.1466785 162.622295,57.1119155 162.622295,55.8195262 C162.622295,54.8699288 162.253628,54.0821462 161.514173,53.4540492 C160.776838,52.8280814 159.831862,52.3256039 158.679246,51.9444875 C157.526629,51.5655002 155.967207,51.1481883 154.003098,50.6925519 C150.97748,49.9707727 148.502745,49.2489935 146.574655,48.5250852 C144.646565,47.8054351 142.993917,46.6471818 141.614591,45.0503252 C140.233146,43.4555977 139.544543,41.3285847 139.544543,38.6692862 C139.544543,36.3527795 140.167464,34.2534453 141.415425,32.3734128 C142.663387,30.4933803 144.542745,29.0029808 147.057737,27.9000852 C149.568491,26.7993187 152.642841,26.25 156.270193,26.25 C158.802135,26.25 161.278989,26.5523382 163.696517,27.1612728 C166.116164,27.7680784 168.234944,28.6410266 170.04862,29.7822468 L167.213692,36.7892536 C163.546083,34.7005652 159.880594,33.6551564 156.212986,33.6551564 C153.642905,33.6551564 151.744478,34.0745974 150.515586,34.9092211 C149.286693,35.7438448 148.674366,36.8467405 148.674366,38.2136497 C148.674366,39.580559 149.382039,40.5982889 150.797384,41.2625813 C152.214848,41.9268736 154.380241,42.5826494 157.291445,43.2277795 C160.314944,43.9495587 162.791798,44.6713379 164.719888,45.3931171 C166.645859,46.1148963 168.298507,47.2539873 169.679952,48.8125194 C171.059278,50.3689223 171.75,52.476773 171.75,55.1360715 C171.75,57.4142536 171.114366,59.4944255 169.851573,61.374458 C168.582424,63.2544906 166.683997,64.7470192 164.152055,65.8477857 C161.620112,66.9485522 158.539406,67.5 154.909936,67.5 C151.769904,67.5 148.737929,67.0720424 145.809775,66.2182564" id="Fill-25" fill="#FFFFFF"></path>
                <path d="M212.050031,51.7047189 L205.791796,36.1991406 L199.535667,51.7047189 L212.050031,51.7047189 Z M214.923216,58.8218918 L196.603501,58.8218918 L193.108916,67.5 L183.75,67.5 L201.33878,27 L210.356453,27 L228,67.5 L218.417801,67.5 L214.923216,58.8218918 Z" id="Fill-26" fill="#FFFFFF"></path>
                <polygon id="Fill-27" fill="#FFA40A" points="144.75 120 273 120 273 81 144.75 81"></polygon>
                <path d="M172.94209,108.990426 C171.402257,108.15 170.193617,106.988298 169.31617,105.498936 C168.438723,104.011702 168,102.343617 168,100.501064 C168,98.656383 168.438723,96.9904255 169.31617,95.5010638 C170.193617,94.0138298 171.406558,92.85 172.957144,92.0095745 C174.50773,91.1712766 176.241117,90.75 178.161607,90.75 C179.602512,90.75 180.929435,90.9882979 182.146677,91.462766 C183.36607,91.937234 184.398361,92.6308511 185.25,93.543617 L183.946734,94.8308511 C182.432708,93.3159574 180.522971,92.556383 178.215372,92.556383 C176.684142,92.556383 175.2927,92.9053191 174.036747,93.5989362 C172.780794,94.2925532 171.797968,95.2414894 171.088268,96.4457447 C170.378569,97.6521277 170.023719,99.0031915 170.023719,100.501064 C170.023719,101.996809 170.378569,103.35 171.088268,104.554255 C171.797968,105.758511 172.780794,106.709574 174.036747,107.401064 C175.2927,108.096809 176.684142,108.443617 178.215372,108.443617 C180.542326,108.443617 182.452063,107.675532 183.946734,106.143617 L185.25,107.430851 C184.398361,108.343617 183.361769,109.041489 182.133774,109.524468 C180.905779,110.009574 179.572404,110.25 178.133649,110.25 C176.213159,110.25 174.484073,109.830851 172.94209,108.990426" id="Fill-28" fill="#FFFFFF"></path>
                <polygon id="Fill-29" fill="#FFFFFF" points="195 111 197.25 111 197.25 91.5 195 91.5"></polygon>
                <polygon id="Fill-30" fill="#FFFFFF" points="212.76798 93.2831539 206.25 93.2831539 206.25 91.5 221.25 91.5 221.25 93.2831539 214.729962 93.2831539 214.729962 111 212.76798 111"></polygon>
                <polygon id="Fill-31" fill="#FFFFFF" points="236.870029 104.259072 236.870029 111 234.882088 111 234.882088 104.259072 227.25 91.5 229.405191 91.5 235.944864 102.447786 242.484536 91.5 244.5 91.5"></polygon>
            </g>
        </g>
    </g>
</svg>