<?xml version="1.0" encoding="UTF-8"?>
<svg width="86px" height="106px" viewBox="0 0 86 106" version="1.1" xmlns="http://www.w3.org/2000/svg" xmlns:xlink="http://www.w3.org/1999/xlink">
    <!-- Generator: Sketch 50.2 (55047) - http://www.bohemiancoding.com/sketch -->
    <title>Group 12 Copy 2</title>
    <desc>Created with Sketch.</desc>
    <defs></defs>
    <g id="Page-1" stroke="none" stroke-width="1" fill="none" fill-rule="evenodd">
        <g id="Homepage-Copy-5" transform="translate(-1271.000000, -741.000000)" fill="#F8E4D2">
            <g id="Group-12-Copy-2" transform="translate(1271.342466, 740.820225)">
                <path d="M49.9155276,0.867817667 C49.0157423,0.867817667 49.8174797,0.826162419 49.4695395,1.09171463 C49.19622,0.93724308 49.2309272,0.867817667 48.8005574,0.867817667 L47.9077135,0.867817667 C46.1897048,0.867817667 45.4356898,1.3260254 43.8946881,1.54558326 L41.8868739,1.76080205 L41.4356797,1.7486526 L40.5497773,2.20686033 C40.5454389,2.20165342 40.134158,1.98296337 40.1046568,1.98296337 C38.7987967,1.98296337 37.5354529,3.09724125 36.3128902,3.09724125 L35.8495484,3.06773545 L34.5289377,3.99022563 C33.349759,4.01712798 31.6525747,4.62980725 31.4035502,5.53233763 L29.8651515,5.7866082 L29.6074502,6.26217228 L28.9540863,5.9974879 C28.5592914,6.34114369 27.041717,7.00155294 26.3597196,7.41636978 C26.1375933,7.55174934 24.1132931,9.25353978 24.0473494,9.34379282 L23.1562408,9.34379282 C22.608734,10.3782315 21.9371488,10.5370421 20.9740227,11.1731525 C19.6395291,12.0522518 19.7774904,12.3863616 18.8733666,13.3105874 C17.9319326,14.2695259 17.5735803,13.1691331 16.3848571,14.8362108 C15.7236841,15.7639079 14.9393003,16.1101672 14.9063284,17.5950032 L15.2577393,17.6019457 L15.3514488,18.4871198 C14.2061097,18.461953 14.7111001,18.6893213 14.2486261,18.1009409 L13.1215083,18.2640906 C12.4672767,19.2403855 11.230831,19.3254316 11.1145618,20.7165433 C10.1193315,20.9820956 9.74883162,22.3306842 9.33234466,23.1715995 C8.84036945,24.1609117 8.12540018,24.630401 7.43125525,25.5068969 C6.75012555,26.367772 4.91671526,30.0429798 4.69285353,31.1858957 L5.31845164,33.4300722 C4.82907947,33.6886818 4.77962164,33.7242624 4.43515222,34.0939527 L4.77094483,35.1804604 L4.64946947,35.6594958 C4.14881744,35.7757833 4.13580223,35.8833927 3.53276382,35.8833927 L2.60608035,35.8859962 L2.86551701,38.7819037 L2.87766455,39.2340367 L2.41866122,40.1209464 L2.41866122,40.5661368 L2.41866122,41.0121951 C2.41866122,41.5259432 2.57397615,41.6812825 3.08764339,41.6812825 C3.94404469,41.6812825 4.40478338,40.3838951 4.42560773,39.4509911 C5.59090352,38.5970586 5.21519758,37.0549466 7.10153641,36.5524801 C6.62604714,35.9042203 7.13277293,36.1307207 5.93624062,36.0925368 L6.10890917,35.2472824 L5.69676062,34.0158491 L7.77051858,32.5379556 C7.8295209,31.8298164 8.65989177,31.0826254 9.10848292,30.7537225 C9.13017495,29.7435827 10.3969894,27.5306477 10.6685736,26.5161688 C11.3818076,26.8459395 11.6655393,26.8606924 11.3384235,26.0692427 C13.0087097,25.1858043 11.8972102,25.1467525 12.828232,24.2147164 C12.9158678,24.1279346 14.8507968,22.9667946 14.8941809,22.9494382 L14.6824667,21.6086599 L15.1622943,21.5097287 L14.5714035,21.2745501 L15.3514488,20.7165433 C15.2082814,20.118617 15.1275871,20.2965196 15.1275871,19.8244268 C15.1275871,19.67603 15.8312765,18.9939253 16.0212987,18.7101489 L16.4664191,18.7101489 L16.6894132,18.7101489 C17.3202174,18.7101489 18.7432145,17.5750434 19.095493,17.1003471 C19.8095946,16.1335982 20.233023,15.844615 21.852116,15.7101032 L21.329772,15.5452179 L22.4976708,14.2990317 L23.6204502,14.0152553 L23.387044,13.5995707 L21.852116,14.2374166 L21.5961501,13.80264 L21.5961501,14.4717274 L20.9271679,14.4717274 C20.0256472,14.4717274 20.82912,14.5133827 20.4794445,14.2504339 C20.4759737,14.2521695 20.0638252,14.4717274 20.034324,14.4717274 C19.531069,14.4717274 20.1375781,14.5585092 19.6230432,14.3493651 L18.4412614,14.668722 L18.9193537,14.026537 C20.0846495,14.0005024 20.4690323,13.5796109 21.5961501,13.5796109 C22.1670843,13.5796109 22.1341124,13.5258062 22.4985385,13.3374897 L22.8907304,13.431214 L24.2399746,13.107518 L24.7180669,12.4662008 L25.5909541,12.4523157 L25.8313018,12.0184069 C26.8742546,11.9958436 27.558855,11.6790902 27.855602,10.8624737 L28.5080982,11.1262903 C29.6916153,10.0987942 30.8829415,10.2133461 31.9111437,9.40106879 C32.6703647,8.8022746 34.5679834,8.272038 35.643908,8.00301452 C37.2161463,7.60989312 42.6660516,5.84909108 44.1237559,5.93674066 L47.0166049,6.22051704 C47.7576046,6.29601717 47.2890568,6.12766055 47.462593,5.9974879 C47.7550016,6.16150544 47.6951316,6.16931579 48.1367813,6.17625834 L50.8083716,6.44441399 C51.852192,6.56504065 50.6495859,6.20923541 51.2656395,6.68653512 L51.6994801,6.44441399 C52.0578324,6.6214488 52.0196544,6.64574769 52.5931917,6.6266557 L61.9572067,6.88960446 L62.1793331,6.88960446 C63.5676229,6.88960446 66.4379122,8.00475016 67.9771786,8.00475016 C68.5489804,8.00475016 68.5168762,8.05855486 68.8813023,8.24687129 L69.3029954,8.05248013 L75.0886933,9.44445967 L75.7819706,9.34379282 C75.7325127,8.73979172 74.5923797,6.58500046 74.2774114,6.16410889 C73.8487769,5.59915959 72.0466032,4.80076733 71.3238248,4.4354161 C70.0682902,3.80017356 65.7081923,2.20686033 63.9650209,2.20686033 L63.7411592,2.20686033 C63.4930024,2.20686033 62.2626305,1.47529003 61.9572067,1.31387595 L61.5016741,1.36941628 L59.7263985,1.09171463 C59.2318202,1.01100758 59.1129479,1.18109984 58.8422314,1.29304832 L57.4886488,0.840915319 L56.5888634,1.13336987 L55.9190136,0.826162419 L55.267385,1.09171463 C55.0374495,0.816616425 55.6309434,0.867817667 54.8213969,0.867817667 L54.3745411,0.867817667 C53.3194408,0.867817667 52.948941,0.421759386 52.3684623,0.421759386 C51.4999134,0.421759386 50.973231,0.867817667 49.9155276,0.867817667 Z M50.3458975,2.02461862 C50.1307126,2.67982096 49.8443778,2.50278615 49.5068498,2.02114735 L49.7298439,1.79725039 L50.3458975,2.02461862 Z M51.433102,2.07929113 C52.5116297,2.06887732 51.8660749,1.74344569 52.3424318,2.4854298 L51.433102,2.07929113 Z M48.1315752,2.65205079 L47.6977346,2.2250845 L48.1194277,1.96387138 L48.1315752,2.65205079 Z M59.9502602,2.42815383 L60.3953806,2.42815383 L60.3953806,1.98296337 L59.9502602,1.98296337 L59.9502602,2.42815383 Z M38.9436994,4.70357175 L39.4339393,4.66018087 L39.3905552,5.15049785 L38.9436994,4.70357175 Z M37.382741,4.92746871 L37.8738486,4.88234219 L37.8304645,5.37265918 L37.382741,4.92746871 Z M31.3619015,7.95962364 L31.4070209,8.44994062 L30.9167811,8.40568192 L31.3619015,7.95962364 Z" id="Fill-2819"></path>
                <path d="M78.2350787,9.56630127 L78.0120847,8.89721385 L77.1201084,8.89721385 C77.3595884,9.79280168 77.1808461,9.54200238 78.2350787,9.56630127" id="Fill-2820"></path>
                <polygon id="Fill-2822" points="11.2933908 27.8097378 11.7836307 27.8539965 11.739379 27.3636795"></polygon>
                <path d="M8.21581255,35.8834795 L9.10865646,35.6595825 C8.99672559,35.4617201 8.96288603,35.2135243 8.66180067,35.2135243 C8.33902328,35.2135243 8.22535705,35.5215995 8.21581255,35.8834795" id="Fill-2824"></path>
                <path d="M1.3037777,43.4655157 L1.3037777,43.9115739 L1.3037777,44.3585 C1.3037777,44.7229835 1.4374006,45.0258518 1.74976582,45.0258518 C2.19922466,45.0258518 2.67818465,44.040011 2.86560378,43.6894126 L2.86560378,43.2424865 L2.86560378,43.0203252 C2.86560378,42.654974 2.73198088,42.35037 2.41874799,42.35037 C1.69163118,42.35037 1.55800828,42.9838769 1.3037777,43.4655157" id="Fill-2827"></path>
                <path d="M0.411107331,62.4230794 C0.411107331,63.0262127 0.517832113,63.0383621 0.634969069,63.5382251 L1.30395124,63.5382251 C1.82369225,63.5382251 2.41892152,62.9429022 2.41892152,62.4230794 L2.41892152,61.753992 L1.52607762,61.753992 C1.77423443,61.1534621 1.94603529,61.3166119 1.0800895,61.0849045 C0.975100082,62.3510505 0.411107331,61.9292911 0.411107331,62.4230794" id="Fill-2830"></path>
                <path d="M4.20278721,75.3578149 C4.2262146,76.433041 4.71124837,77.4284279 5.17632547,78.1764867 C5.44530662,78.6086599 5.66482996,79.0755458 5.98760735,79.3706038 C6.51515749,79.8496392 6.60452865,79.6101215 6.91255546,80.4536403 C7.4080014,81.8109071 8.99065182,84.2963369 10.2297005,84.9602174 L11.1147353,84.5028775 C11.2639765,84.7840504 11.5615911,85.2387869 11.5615911,85.6171554 C11.5615911,85.9556043 11.1234121,85.8696903 10.9403314,86.6550653 L11.7837175,87.1783594 C12.1689679,86.9935142 13.1216818,86.8008587 13.1216818,86.2871106 C13.1216818,85.7004659 12.7581234,85.7082762 12.674826,84.7250388 C11.3889225,84.381383 10.6331723,82.1033617 9.6318682,81.4299351 L9.10865646,82.0486891 C8.57069414,80.9292043 9.7698295,80.7513017 8.01798125,80.697497 L6.65572184,78.2571938 L6.65572184,77.8120033 L6.65572184,77.365945 C6.65572184,76.7116105 4.99498011,74.6757102 4.65311373,74.0317895 L3.97892547,74.243537 L3.97892547,73.7974788 C3.31167866,74.2869279 3.59193968,74.910021 4.20278721,75.3578149" id="Fill-2832"></path>
                <path d="M15.5754841,90.3006806 L15.5303647,89.8103636 L16.0214722,89.4076962 C15.6379572,88.6839362 15.6180005,88.3671828 14.9698427,87.7840093 C14.7425102,87.5783365 13.4054135,86.8077144 13.1164757,86.7330821 L13.3455435,88.5164474 C14.391967,88.8956837 13.2318773,89.0640404 14.6227702,89.2124372 L15.1277606,90.3006806 L15.5754841,90.3006806 Z" id="Fill-2833"></path>
                <path d="M15.5754841,90.3006806 C16.4839463,91.659683 16.8388279,90.8465379 17.5945782,91.8818443 L18.0284187,91.6388554 C18.482216,92.3174888 18.3095474,92.2845117 19.3655154,92.3088106 C18.8275531,91.5043437 17.7455547,90.9905956 17.124295,90.1323239 L15.8314501,89.8667717 L15.5754841,90.3006806 Z" id="Fill-2834"></path>
                <path d="M82.7212506,93.4827944 L82.4722261,94.0928702 C82.608452,94.2976752 82.8349168,94.7619576 83.1403406,94.7619576 C83.863119,94.7619576 84.6639887,94.3488764 85.1481548,94.0928702 C84.4973939,92.8649082 84.9711478,93.5357313 83.8127935,92.984667 L82.7212506,93.4827944 Z" id="Fill-2835"></path>
                <path d="M22.487519,94.5380607 L23.1565011,94.5380607 C23.2293863,95.4102174 23.0220105,95.2158263 23.8254833,95.4293094 C23.8228803,95.4345163 23.6024892,95.8467297 23.6024892,95.8771033 C23.6024892,96.3795697 23.5165888,95.7729652 23.8254833,96.3222938 L23.2675643,96.4351101 L24.0597572,97.2335023 L24.4953332,96.992249 L24.50401,97.4547958 L25.1747275,96.973157 L25.6094358,97.2152782 C25.2241853,95.5629533 23.8541168,95.2592171 23.5903417,94.3610259 L22.487519,94.0928702 L22.487519,94.5380607 Z" id="Fill-2836"></path>
                <path d="M33.0102354,100.543793 L32.5208632,101.001133 L33.6436426,100.911748 L34.6275931,100.929104 L33.8596952,100.114223 L33.8596952,100.561149 L33.1907131,100.561149 C33.6019939,99.4581529 32.7351805,100.746862 33.6375689,99.8911939 L32.7586079,99.885987 L33.0102354,100.543793 Z" id="Fill-2837"></path>
                <path d="M26.5664881,98.3083813 L27.3907852,98.1087832 L27.8341702,98.9870147 L28.5152999,98.7726637 L28.9543466,99.8904129 L27.3933882,99.8904129 L27.3933882,100.11431 C27.8671421,100.11431 30.4311399,101.449013 31.4072812,101.675514 C31.410752,101.671175 31.6294076,101.258961 31.6294076,101.228588 C31.6294076,100.792943 31.2155237,101.278053 31.1851549,99.8904129 L31.8411218,99.8956198 L31.5756114,99.337613 L30.275825,98.5114506 L29.6233288,98.7752672 C29.3448031,98.0063807 29.4055408,98.4697954 28.7200727,97.8657943 L28.2853644,98.1061798 C28.1482708,97.919599 26.4050994,96.7801544 25.9920831,96.5666712 L26.5664881,98.3083813 Z M30.2723543,99.9025623 L30.9612931,99.8904129 L30.534394,100.32519 L30.2723543,99.9025623 Z" id="Fill-2838"></path>
                <path d="M78.2350787,97.66151 C78.1031912,97.1633827 78.1821502,96.9924226 77.5660965,96.9924226 L77.1201084,96.9924226 L76.8554657,97.6458893 L76.2281322,97.66151 L76.2281322,97.2154517 L74.3747653,98.2047639 L74.0103392,98.0884763 C73.2658687,98.7436786 72.1986209,99.1923404 70.8762748,99.2218462 C70.3582692,99.9273819 61.9174669,102.568151 60.1734278,102.568151 L59.726572,102.568151 L58.8415372,103.025491 L57.9512964,102.76341 L56.3912056,103.070618 C55.8992304,103.092313 56.0606191,102.985571 55.7135467,102.790312 L54.8163643,103.224221 C54.4675565,103.067146 54.5005284,103.014209 53.9287265,103.014209 L53.260612,103.014209 C52.7391357,103.014209 52.6836041,103.080164 52.3686358,103.236371 L51.6996536,103.162606 C51.3465074,103.067146 51.3794793,103.014209 50.8085451,103.014209 L49.0228573,103.014209 L46.571658,102.786841 C46.1621125,102.742582 46.1447589,102.876226 45.9018082,103.014209 C45.5521327,102.750393 46.3564731,102.790312 45.4549524,102.790312 C44.5100476,102.790312 42.9898702,102.395455 42.0293472,102.203668 C41.1026637,102.018823 39.1885591,101.452138 38.7651307,101.452138 L38.5430043,101.452138 C36.9742368,101.452138 36.2505907,100.816895 34.752973,100.783918 C35.1061192,102.105604 35.0202188,100.790861 35.4210875,101.899064 L34.075314,101.472097 L33.6484149,101.693391 L32.9768297,101.211752 L32.9690205,101.675167 L32.3000384,101.675167 L32.3000384,102.344254 C34.7156627,102.545588 38.728688,104.797575 41.441927,104.797575 C42.2688272,104.797575 41.6180663,105.139495 42.5568973,105.243633 L47.4566928,105.747835 C48.326977,105.785151 47.8749151,105.575139 48.5777368,105.91272 C49.3482377,105.749571 49.7716661,105.619398 50.5846834,106.136617 C51.1721035,105.844163 50.4007349,105.91272 51.2536655,105.91272 L57.4974991,105.91272 C58.8588908,105.91272 59.2007572,105.46753 60.3955542,105.46753 L60.6194159,105.46753 C64.597734,105.46753 79.1999402,99.2478807 80.6880133,97.2154517 C79.3561228,97.3247967 80.305366,97.5686535 79.1261873,97.8836713 C79.3196802,97.1633827 79.7838896,96.3467662 80.4650193,96.0994382 C80.3773835,95.7696675 80.425106,95.429483 80.0190312,95.429483 C79.9235862,95.429483 78.688876,96.2009729 78.4589405,96.3224673 L78.9231499,97.8775966 L78.2350787,97.66151 Z M78.2350787,97.66151 L77.9843189,98.5440806 L77.0524293,97.9695853 L77.793429,97.6736595 L78.2350787,97.66151 Z M74.6671738,98.7757879 L75.1131619,98.7757879 L75.1131619,99.2218462 L75.3699955,98.7879373 L75.8263958,99.1767196 L74.021619,99.9499452 L73.9981916,99.2218462 L74.6671738,99.2218462 L74.6671738,98.7757879 Z M71.545257,100.560889 C72.1812673,99.7052206 71.3179246,100.216365 72.2142392,99.8909336 C71.7066457,100.849872 72.2741092,100.297072 71.545257,100.560889 Z M72.7877764,100.396871 L72.3582743,99.7173701 L72.8832214,99.6679044 L72.7877764,100.396871 Z M67.531364,101.452138 L67.531364,101.006079 L68.0216038,101.407011 L67.531364,101.452138 Z M69.9244286,101.325436 L70.603823,101.75327 L69.9244286,101.325436 Z M36.7590518,101.899064 L36.7590518,101.452138 L37.2492917,101.853937 L36.7590518,101.899064 Z M68.312277,102.456203 L67.6424272,101.786247 L67.8029482,101.627437 L68.312277,102.456203 Z M35.8670756,102.344254 L36.3130637,102.344254 L36.3130637,101.675167 L35.8670756,101.675167 L35.8670756,102.344254 Z M63.517471,103.014209 L63.9651944,103.014209 L63.9651944,102.568151 L63.517471,102.568151 L63.517471,103.014209 Z M43.6267482,103.280629 L44.1178557,103.236371 L44.0718686,103.727555 L43.6267482,103.280629 Z M55.7135467,103.4594 L55.7135467,103.683297 L54.8215704,103.905458 L54.8215704,103.4594 L55.7135467,103.4594 Z M58.3894753,103.4594 L58.8354635,103.4594 L58.3894753,103.905458 L58.3894753,103.4594 Z M48.1317487,104.128487 L47.6979081,103.701521 L48.1196012,103.43944 L48.1317487,104.128487 Z M56.8163694,104.132826 L56.1144154,103.860332 L56.5595358,103.415141 L56.8163694,104.132826 Z M50.8085451,104.128487 L50.3165699,104.084229 L50.762558,103.63817 L50.8085451,104.128487 Z M53.037618,104.128487 L53.037618,103.683297 L53.5278578,104.084229 L53.037618,104.128487 Z M51.92178,105.020604 L51.92178,104.574546 L52.4128875,104.977213 L51.92178,105.020604 Z" id="Fill-2839"></path>
                <path d="M46.7716585,47.527423 C44.4219779,48.3353613 44.0549488,48.1887001 42.8801085,49.2899607 C42.5122117,49.5103864 42.0722974,49.3637252 41.7052683,49.6570476 C41.4111243,49.8037088 37.5195744,52.0070978 37.5195744,52.0808623 L35.46317,53.6967388 C35.1698938,53.9900612 34.581606,54.871764 33.4805186,55.9730246 C32.0124021,58.8376907 33.8475477,55.385512 31.130838,61.1877409 C30.8366941,62.5102951 30.2501416,63.6115557 29.9559977,65.080771 C29.9559977,65.8149447 29.6618538,69.0466977 29.2219395,69.4866813 C29.4414628,69.5604458 29.2219395,69.9275327 29.4414628,70.1479583 C28.7811574,71.6909382 28.8549103,73.5992692 28.8549103,75.142249 C28.8549103,76.0230839 28.8549103,78.9615146 28.3403754,79.8423495 C28.3403754,80.0627752 28.4132606,80.9444779 28.5607664,81.0911391 C28.5607664,82.1923997 28.7811574,83.9549374 28.8549103,85.2774916 L29.2948247,86.5262812 C29.6618538,86.6729424 31.130838,87.1875582 31.7182582,87.8479675 C31.8648963,87.8479675 32.1590402,87.7004385 32.3056783,87.7004385 C34.6553589,87.7004385 36.198096,84.3228921 39.8692549,78.3002375 C40.530428,76.83189 41.1169804,76.170613 42.5122117,72.7921988 C43.3208906,70.7354709 43.7608049,67.136631 44.1287017,66.6957797 C44.5686161,65.594519 44.642369,65.594519 44.642369,65.594519 L45.9638474,58.3239426 C46.2579913,57.8093268 46.3308765,54.6513383 46.5512675,54.1375902 C46.7716585,53.6229743 46.5512675,52.9616973 46.5512675,52.301288 C46.5512675,51.9342012 46.6250204,51.4933498 46.8454114,51.0524984 C47.3590787,50.0250023 46.8454114,48.7762127 46.7716585,47.527423 M64.6892744,76.2443775 C63.5144341,76.3910386 61.8250589,77.2718736 60.3569424,77.3456381 L59.3287402,77.9331506 C58.8150729,78.2273408 58.1538999,79.0344113 56.6111628,79.6956883 C55.2896844,79.6956883 54.1148441,80.2832009 52.6467276,80.3569654 C51.6185254,80.3569654 50.4436852,79.6956883 49.635874,79.3286014 C48.75431,78.8139856 47.6532226,78.0798118 47.6532226,76.9785512 C47.6532226,75.7297616 49.415483,75.7297616 49.856265,75.5093359 C50.2232942,75.4364392 53.3079007,74.1138851 55.3634373,74.1138851 C58.080147,74.1138851 58.5946819,73.5992692 59.4024931,72.8650955 C61.0910006,71.249219 61.1647535,70.2954873 61.3842768,70.2954873 C62.1929557,68.5320818 62.4862319,67.2103955 62.7795081,66.4762218 C63.0736521,64.4932584 63.2940431,62.6569562 63.2940431,60.2331415 C63.2940431,59.2047776 63.147405,57.7355623 62.7066229,56.4876404 C62.3395938,55.533041 61.8250589,53.9900612 61.0910006,52.5946104 C61.0172477,52.4479492 59.7695222,49.6570476 57.4927269,47.8945099 L57.4927269,47.8207454 C57.0528125,47.4536585 57.3460888,47.3807619 56.7586686,46.9399105 C55.2159315,45.985311 53.6749298,46.0582077 51.6922783,46.0582077 C51.2514963,46.0582077 51.1039905,46.6457203 51.1039905,47.1603362 C51.1039905,48.1887001 51.1039905,48.555787 51.2514963,49.5103864 C51.3243815,50.611647 50.9573524,51.9342012 51.1039905,53.0354618 L50.7369614,55.3126153 C50.5165704,57.6626656 49.4892359,60.8206541 48.8280629,63.0978076 L46.6250204,70.2954873 C46.6250204,70.368384 45.8172092,72.5717731 45.6705711,72.7921988 C45.5230653,75.2160135 43.2471377,78.0060473 42.2926884,80.0627752 C41.6315154,81.0182424 41.3382391,81.6048872 40.7499513,82.1195031 C39.8692549,83.3682927 38.9148057,86.0116653 37.5195744,87.0400292 C36.2709812,89.6105052 34.0679387,89.8309308 32.5260693,90.7855303 L31.7911434,90.7855303 C31.351229,90.7126336 30.3967798,90.7126336 30.0288829,90.5651046 C26.9451441,89.3900795 26.2839711,85.203727 26.2839711,79.768585 C26.2839711,79.1081758 26.357724,78.5944277 26.357724,77.6389604 C26.4314769,76.7581255 26.798506,75.7297616 26.798506,74.5547365 C26.798506,74.1876496 26.7247531,73.8205627 26.6510002,73.4534758 C26.6510002,71.0296611 26.9451441,68.6058464 27.3121733,66.1082671 C27.3121733,65.5216224 27.7529553,64.0524071 28.1199844,62.4365306 C28.1199844,61.6285923 28.8549103,60.159377 29.3685776,58.7639262 C31.57162,54.7979995 32.3056783,53.9900612 33.7746625,52.301288 C35.903952,49.9512378 37.1525452,49.4366219 39.35472,47.9682744 C40.7499513,47.2341007 43.5404139,45.9115465 44.2015869,45.4706952 C44.86276,45.3969307 45.6705711,44.9569471 46.8454114,44.4423312 L46.4046294,39.1547182 C46.0376003,38.7876313 46.4046294,38.4205444 46.5512675,38.0534576 C46.6987733,37.9059286 45.8172092,37.0250936 46.1113532,36.3638166 C45.6705711,33.6466795 45.9638474,32.69208 45.1560362,29.9749429 C41.9994122,31.0762035 42.8063556,30.5615876 38.8410528,32.5454188 L38.6206617,33.572915 C40.6041809,33.2058281 41.4111243,32.8387412 43.4675287,32.8387412 C43.6879197,32.8387412 43.9811959,33.0591669 44.0549488,33.2795926 C43.9083107,33.7933406 42.8063556,33.9400018 42.2926884,33.9400018 C40.97121,34.234192 40.3829222,34.8217046 39.2089496,35.3354526 C38.4002707,35.776304 36.2709812,36.0696264 35.5369229,36.5104778 C34.581606,37.0979903 33.9213006,38.9342925 29.3685776,39.3751439 C28.1937373,39.5218051 27.8267082,39.0818215 27.239288,38.4934411 C27.239288,36.7309034 30.1026358,34.6750434 32.8193455,33.3524893 C34.0679387,31.9570385 37.0787923,30.6353522 37.3720686,30.5615876 C38.5477765,30.1216041 39.2089496,29.6069882 40.1625312,29.1661368 C40.530428,28.946579 44.642369,27.6977893 44.9356452,26.5227642 L44.86276,25.0535489 C45.1560362,23.8785238 45.3764272,23.4376724 47.1395553,23.2181146 C48.1668898,23.3647757 47.7998607,23.8785238 48.5347866,24.4660364 L49.1213391,25.714826 C50.5165704,25.5681648 53.4536711,24.0989495 56.8324215,23.5114369 C58.0072618,23.2910112 63.147405,21.2351512 68.9478535,21.2351512 C68.9478535,21.3080479 75.1899517,20.8671965 75.1899517,20.940961 C76.0715158,21.2351512 78.6415873,21.8226637 78.6415873,22.7772632 C78.6415873,23.0705855 78.4211963,23.8785238 77.246356,24.172714 C76.364792,23.8785238 75.6307337,24.0989495 74.6025316,24.0989495 C71.2246488,23.6580981 70.4905906,24.686462 67.6263751,24.3193752 C67.1127078,24.4660364 66.3786496,24.7602265 63.2940431,25.2010779 C58.1538999,25.2010779 53.527424,27.1831735 49.4892359,28.1377729 C49.7087592,29.0203435 49.4892359,29.6807527 50.0029031,30.3420298 C50.0029031,30.3420298 50.0029031,32.4716543 50.6640762,35.1887914 C50.5165704,35.4092171 50.5165704,35.7025395 50.5165704,36.1433909 C50.5903233,36.4375811 50.5165704,38.2738833 51.1039905,40.4764045 C50.9573524,41.0647849 50.9573524,41.5785329 50.9573524,42.0193843 C51.0311053,42.9739837 51.0311053,43.0468804 51.1039905,43.1206449 C51.6922783,43.0468804 52.6467276,43.0468804 52.7933657,42.9002192 C53.3807859,43.3410706 54.3352351,43.4148351 54.9964082,43.4148351 C56.6111628,43.4148351 61.1647535,45.9115465 61.1647535,47.1603362 C63.2202902,48.3353613 65.3504474,53.2558875 65.8641147,53.9900612 L65.8641147,54.0638257 C66.5252877,55.9730246 67.4068517,57.9568558 67.4068517,59.7193934 C67.4068517,60.8944186 67.1855931,61.849018 67.4068517,63.0240431 C67.0389549,63.904878 67.2593459,65.1536677 66.7456787,65.9616059 C66.0845057,68.6058464 65.3504474,69.4866813 64.6892744,71.249219 C64.3222452,71.5434092 63.9552161,71.9842605 63.7348251,72.8650955 C63.7348251,73.2321823 63.8814632,73.5263725 64.2484923,73.5992692 C64.2484923,73.4534758 66.8185639,73.0126245 67.1855931,72.4251119 C67.5526222,72.3513474 67.8467661,72.4980086 68.3604333,72.4251119 C69.4623884,71.9842605 69.6090265,71.8367315 69.8294175,71.8367315" id="Fill-2840"></path>
                <path d="M76.0152033,96.21642 L76.059455,96.1860464 C76.0169386,96.197328 76.0152033,96.21642 76.0152033,96.21642" id="Fill-2841"></path>
                <path d="M71.2503322,98.9902256 L71.1123709,99.0006394 C71.1765793,98.9954325 71.2086835,98.9936969 71.2503322,98.9902256" id="Fill-2842"></path>
                <path d="M37.0558856,98.7671965 C37.0957989,98.760254 37.1322415,98.7541792 37.179964,98.7455011 C37.1261677,98.750708 37.0853867,98.7576505 37.0558856,98.7671965" id="Fill-2843"></path>
            </g>
        </g>
    </g>
</svg>