<?xml version="1.0" encoding="UTF-8"?>
<svg width="20px" height="20px" viewBox="0 0 20 20" version="1.1" xmlns="http://www.w3.org/2000/svg" xmlns:xlink="http://www.w3.org/1999/xlink">
    <!-- Generator: Sketch 50.2 (55047) - http://www.bohemiancoding.com/sketch -->
    <title>button_beach copy</title>
    <desc>Created with Sketch.</desc>
    <defs></defs>
    <g id="Page-1" stroke="none" stroke-width="1" fill="none" fill-rule="evenodd">
        <g id="01-Homepage-" transform="translate(-603.000000, -4513.000000)">
            <g id="Group-59" transform="translate(40.000000, 4446.000000)">
                <g id="Group-39">
                    <g id="Group-32" transform="translate(563.000000, 67.000000)">
                        <g id="button_beach-copy">
                            <circle id="Oval-3-Copy-5" fill="#414042" cx="10" cy="10" r="10"></circle>
                            <g id="Group-6-Copy-2" transform="translate(6.000000, 6.000000)" fill="#FAFAFA" fill-rule="nonzero" stroke="#FAFAFA" stroke-width="0.400000006">
                                <path d="M6.57471264,1.85440613 L4.42911877,4 L6.57471264,6.14559387 C6.69731801,6.26819923 6.69731801,6.45210728 6.57471264,6.57471264 C6.51340996,6.63601533 6.42145594,6.66666667 6.36015326,6.66666667 C6.29885057,6.66666667 6.20689655,6.63601533 6.14559387,6.57471264 L4,4.42911877 L1.85440613,6.57471264 C1.79310345,6.63601533 1.70114943,6.66666667 1.63984674,6.66666667 C1.57854406,6.66666667 1.48659004,6.63601533 1.42528736,6.57471264 C1.30268199,6.45210728 1.30268199,6.26819923 1.42528736,6.14559387 L3.57088123,4 L1.42528736,1.85440613 C1.30268199,1.73180077 1.30268199,1.54789272 1.42528736,1.42528736 C1.54789272,1.30268199 1.73180077,1.30268199 1.85440613,1.42528736 L4,3.57088123 L6.14559387,1.42528736 C6.26819923,1.30268199 6.45210728,1.30268199 6.57471264,1.42528736 C6.69731801,1.54789272 6.69731801,1.73180077 6.57471264,1.85440613 Z" id="Shape" transform="translate(4.000000, 4.000000) rotate(45.000000) translate(-4.000000, -4.000000) "></path>
                            </g>
                        </g>
                    </g>
                </g>
            </g>
        </g>
    </g>
</svg>