<?xml version="1.0" encoding="UTF-8"?>
<svg width="395px" height="586px" viewBox="0 0 395 586" version="1.1" xmlns="http://www.w3.org/2000/svg" xmlns:xlink="http://www.w3.org/1999/xlink">
    <!-- Generator: Sketch 50.2 (55047) - http://www.bohemiancoding.com/sketch -->
    <title>Group 20</title>
    <desc>Created with Sketch.</desc>
    <defs></defs>
    <g id="Page-1" stroke="none" stroke-width="1" fill="none" fill-rule="evenodd">
        <g id="Homepage" transform="translate(-159.000000, -6499.000000)">
            <g id="Group-20" transform="translate(160.000000, 6499.000000)">
                <path d="M333.465768,586 C394.490335,586 400.526046,467.337565 389.551905,371.133512 C378.577764,274.929459 277.891514,205 186.071605,205 C94.2516965,205 42,281.728098 42,371.133512 C42,460.538926 272.441201,586 333.465768,586 Z" id="Oval-4" fill="#EEE5D5"></path>
                <path d="M213.692899,405.625494 C212.585682,403.964229 213.969704,402.395257 214.338776,400.733992 C214.892385,398.05751 213.047023,396.488538 210.463516,396.396245 C206.495988,396.396245 203.912482,400.918577 205.573307,404.517984 C206.40372,406.363834 209.356299,406.733004 208.894959,408.671146 C208.618154,409.686364 207.326401,411.347628 206.865061,412.362846 C206.126916,413.654941 205.665576,414.762451 205.204235,416.23913 C202.989801,423.25336 202.52846,430.175296 203.358873,437.466403 C204.097018,444.38834 204.742895,451.956324 207.603205,458.324506 C208.618154,460.631818 210.002176,463.492885 212.032074,465.061858 C212.124342,461.370158 212.401146,457.401581 211.847538,453.709881 C211.386197,450.571937 210.094444,447.803162 209.079495,444.849802 C208.064546,441.988735 208.156814,439.496838 209.540835,436.728063 C210.740321,434.420751 212.032074,432.482609 212.67795,429.898419 C213.600631,426.299012 214.246508,422.791897 214.800117,419.100198 C214.984653,417.71581 217.383623,406.086957 214.061972,406.086957" id="Shape" stroke="#2B2523" stroke-linecap="round" stroke-linejoin="round"></path>
                <path d="M194.593405,393.812055 C200.12949,396.027075 199.391345,399.811067 198.19186,401.38004 C197.361447,402.487549 195.977426,404.148814 196.531034,405.440909 C197.176911,407.102174 199.483613,407.840514 200.221758,409.686364 C200.959903,411.624506 201.421243,414.024111 201.60578,416.054545 C202.251656,422.88419 199.944954,429.529249 199.391345,436.266601 C198.930005,441.619565 199.760418,446.97253 199.483613,452.325494 C199.391345,455.001976 199.299077,457.770751 198.560932,460.354941 C198.19186,461.739328 197.545983,464.877273 196.438766,465.615613 C196.069694,461.370158 196.715571,456.940119 196.161962,452.694664 C195.700622,449.002964 194.685673,445.218972 194.501136,441.527273 C194.408868,439.9583 194.501136,438.297036 194.593405,436.728063 C194.685673,435.528261 195.331549,433.866996 195.054745,432.759486 C193.762992,434.143874 193.670724,437.004941 193.486187,438.758498 C193.024847,441.988735 193.393919,445.218972 193.762992,448.449209 C194.132064,452.325494 193.947528,456.386364 193.301651,460.170356 C193.024847,462.016206 192.471238,465.061858 190.994949,466.446245 C189.98,465.15415 191.087217,462.200791 191.179485,460.631818 C191.271753,458.232213 190.810413,456.017194 190.44134,453.709881 C189.887732,450.571937 188.780515,447.71087 187.673298,444.665217 C186.658349,441.711858 186.842885,438.481621 186.842885,435.435968 C186.842885,428.606324 185.827936,421.592095 186.381544,414.854743 C186.658349,411.439921 186.473813,406.086957 189.795464,404.056522 C192.286702,402.487549 191.456289,402.302964 190.810413,399.257312 C190.164536,396.673123 191.456289,393.442885 194.593405,393.812055" id="Shape" stroke="#2B2523" stroke-linecap="round" stroke-linejoin="round"></path>
                <path d="M178.631025,391.320158 C181.399068,391.043281 183.428966,393.535178 182.506285,396.396245 C182.044944,397.780632 179.83051,401.472332 179.000097,402.579842" id="Shape" stroke="#2B2523" stroke-linecap="round" stroke-linejoin="round"></path>
                <path d="M183.059893,406.548419 C184.536183,408.578854 186.10474,412.085968 186.197008,417.254348" id="Shape" stroke="#2B2523" stroke-linecap="round" stroke-linejoin="round"></path>
                <path d="M181.491336,412.085968 C180.753191,413.654941 181.491336,417.162055 181.675872,418.82332 C181.860408,420.761462 182.137212,422.699605 182.22948,424.637747 C182.414017,427.960277 182.783089,431.375099 182.414017,434.605336 C181.491336,441.896443 180.753191,449.187549 180.015046,456.478656 C179.83051,458.232213 179.553706,459.985771 179.553706,461.831621 C179.553706,464.138933 180.29185,464.508103 181.583604,466.26166 C179.092365,467.276877 176.693395,464.508103 176.324322,462.293083 C175.678446,459.155138 176.324322,456.201779 176.693395,453.156126 C177.062467,450.202767 178.169684,447.064822 178.077416,444.111462 C177.985148,441.896443 177.339271,439.681423 177.339271,437.466403" id="Shape" stroke="#2B2523" stroke-linecap="round" stroke-linejoin="round"></path>
                <path d="M178.261952,435.712846 C174.571229,439.21996 175.032569,443.557708 173.464012,449.649012 C171.987722,455.371146 168.666071,461.647036 164.329471,465.615613 C165.159883,463.031423 165.990296,460.539526 167.005245,457.955336 C168.481535,454.171344 170.972773,433.036364 171.61865,429.067787" id="Shape" stroke="#2B2523" stroke-linecap="round" stroke-linejoin="round"></path>
                <path d="M173.187207,401.287747 C171.987722,402.949012 170.419165,403.133597 170.14236,405.625494 C169.68102,409.594071 170.419165,413.747233 170.419165,417.808103 C170.419165,421.499802 169.588752,425.745257 171.526382,429.067787" id="Shape" stroke="#2B2523" stroke-linecap="round" stroke-linejoin="round"></path>
                <path d="M178.261952,391.043281 C175.49391,391.781621 174.848033,390.858696 173.740816,393.62747 C173.464012,394.36581 173.371744,397.68834 173.279475,398.42668 C173.187207,399.16502 173.833084,400.826285 173.55628,401.01087" id="Shape" stroke="#2B2523" stroke-linecap="round" stroke-linejoin="round"></path>
                <path d="M245.986731,246.144071 C246.355804,249.374308 244.60271,252.235375 243.772297,255.281028 C242.388276,260.5417 242.019203,266.171542 241.742399,271.616798 C241.281059,281.584387 241.281059,291.736561 240.819718,301.70415 C239.343429,331.33004 240.173842,360.955929 238.974356,390.674111 C238.236212,408.948024 239.251161,427.406522 239.897037,445.588142" id="Shape" stroke="#2B2523" stroke-linecap="round" stroke-linejoin="round"></path>
                <path d="M220.151666,213.380237 C227.809917,239.406719 236.85219,264.971739 238.143944,292.382609 C238.974356,308.533794 236.667654,324.777273 235.837241,340.836166 C235.099097,355.418379 235.283633,370.092885 234.45322,384.582806 C233.807343,395.381028 233.530539,406.179249 233.530539,416.97747 C233.530539,428.514032 230.854764,438.481621 228.455794,449.649012" id="Shape" stroke="#2B2523" stroke-linecap="round" stroke-linejoin="round"></path>
                <path d="M226.610432,221.225099 C231.408373,233.13083 231.777445,248.266798 238.605284,259.341897 C242.941884,255.096443 240.081574,246.974704 242.757348,241.990909" id="Shape" stroke="#2B2523" stroke-linecap="round" stroke-linejoin="round"></path>
                <path d="M216.460942,185.69249 C217.291355,184.031225 226.610432,190.4917 219.228985,192.983597 C220.151666,196.213834 224.395998,195.567787 225.410947,199.074901 C226.333628,201.935968 224.026926,205.627668 221.074347,204.520158 C220.982079,208.857905 218.0295,214.58004 214.338776,208.027273 C221.443419,212.457312 215.445993,222.978656 208.525886,213.749407" id="Shape" stroke="#2B2523" stroke-linecap="round" stroke-linejoin="round"></path>
                <path d="M199.391345,211.534387 C204.281554,215.502964 194.962477,221.594269 191.364021,215.779842 C195.79289,220.394466 188.134638,222.148024 184.720719,221.225099 C189.887732,227.039526 194.224332,226.208893 188.319174,233.592292 C193.024847,229.992885 200.590831,223.716996 202.620729,233.5 C201.974852,229.8083 204.46609,227.224111 207.88001,228.793083 C211.293929,230.362055 212.21661,235.807312 212.21661,239.037549 C213.416095,233.684585 212.862487,229.716008 220.059398,231.28498" id="Shape" stroke="#2B2523" stroke-linecap="round" stroke-linejoin="round"></path>
                <path d="M208.618154,247.066996 C216.09187,249.466601 222.642904,256.48083 227.994454,261.833794" id="Shape" stroke="#2B2523" stroke-linecap="round" stroke-linejoin="round"></path>
                <path d="M189.241855,243.836759 C182.598553,240.514229 184.905255,249.743478 187.488762,252.41996 C180.29185,248.082213 177.339271,252.512253 181.860408,258.788142 C179.645974,256.296245 169.219679,254.358103 172.633599,259.80336 C170.326897,258.049802 166.451637,257.772925 165.252152,260.818577" id="Shape" stroke="#2B2523" stroke-linecap="round" stroke-linejoin="round"></path>
                <path d="M177.247003,269.217194 C180.199582,274.662451 192.009898,280.56917 195.331549,271.985968 C196.900107,275.954545 198.930005,276.231423 202.620729,275.216206 C205.665576,274.385573 203.543409,273.278063 206.772793,273.831818 C207.972278,274.016403 209.909908,275.308498 211.201661,275.862253 C214.061972,277.24664 217.568159,278.261858 217.014551,281.67668 C216.737746,283.52253 213.047023,282.138142 214.61558,285.368379 C215.261457,286.660474 218.583108,286.937352 219.690325,287.121937 C216.922283,288.967787 213.139291,291.275099 214.892385,295.243676 C216.55321,298.935375 220.520738,298.104743 223.381049,296.166601 C222.550636,300.042885 226.425896,304.842095 227.533113,299.396838 C228.086722,302.350198 227.994454,305.580435 230.670228,307.333992 C232.51559,306.595652 232.884662,304.565217 233.99188,303.734585" id="Shape" stroke="#2B2523" stroke-linecap="round" stroke-linejoin="round"></path>
                <path d="M239.066625,300.59664 C240.358378,303.273123 243.772297,307.149407 247.278485,306.595652 C252.260962,305.76502 251.061476,299.581423 247.924361,296.997233 C248.662506,299.581423 256.136221,300.412055 257.981583,297.827866 C260.103749,294.782213 255.398077,290.444466 253.644983,288.229447 C256.413026,287.491107 265.732103,283.8917 259.734677,280.56917 C261.487771,281.030632 264.255814,279.184783 264.44035,276.416008 C264.624886,272.632016 259.181068,268.940316 256.136221,267.832806" id="Shape" stroke="#2B2523" stroke-linecap="round" stroke-linejoin="round"></path>
                <path d="M265.824371,269.678656 C266.101175,273.001186 269.884167,281.122925 273.943963,278.72332 C277.819223,276.416008 274.313035,266.448419 273.390355,263.218182 C277.726955,266.079249 288.706858,262.756719 282.155823,258.511265 C287.322836,258.418972 295.257892,254.173518 296.272841,248.820553 C294.519747,249.097431 292.397581,249.005138 291.4749,247.436166 C293.597067,245.498024 296.641914,243.836759 297.749131,241.067984 C299.963565,235.530435 296.82645,238.668379 294.519747,236.45336 C290.459951,232.669368 299.22542,228.700791 301.347586,224.363043 C298.856348,224.178458 295.073356,224.178458 292.674386,222.701779 C292.95119,222.148024 293.043458,221.225099 293.41253,220.671344 C292.582118,220.302174 291.751705,220.117589 290.829024,220.302174" id="Shape" stroke="#2B2523" stroke-linecap="round" stroke-linejoin="round"></path>
                <path d="M265.363031,170.925692 C269.053754,174.432806 273.298086,167.049407 276.52747,166.218775 C284.001185,164.18834 282.063555,172.494664 278.372831,176.001779 C280.86407,174.801976 285.662011,173.971344 286.67696,177.847628 C287.507373,180.985573 283.26304,184.031225 282.063555,186.153953 C286.215619,185.969368 290.829024,184.769565 294.150675,188.27668 C298.948616,193.352767 293.41253,194.552569 290.829024,197.782806 C301.439854,198.798024 292.305313,205.627668 287.507373,208.211858 C289.721807,208.211858 293.043458,209.873123 292.213045,212.457312 C290.829024,216.610474 281.509947,215.041502 279.018708,213.8417" id="Shape" stroke="#2B2523" stroke-linecap="round" stroke-linejoin="round"></path>
                <path d="M257.520243,221.225099 C266.008907,223.532411 261.672307,226.485771 257.704779,229.992885 C258.719728,231.008103 262.50272,234.699802 261.949111,236.45336 C261.118698,239.406719 258.811996,236.545652 257.520243,238.114625 C256.043953,239.868182 259.365605,242.267787 256.320758,243.652174 C254.567664,244.390514 248.662506,239.499012 247.463021,238.483794 C248.201166,242.083202 244.879514,245.682609 241.926935,241.990909" id="Shape" stroke="#2B2523" stroke-linecap="round" stroke-linejoin="round"></path>
                <path d="M140.801107,189.845652 C139.601622,191.783794 137.848528,194.275692 138.217601,196.583004 C138.955746,200.366996 142.646469,201.197628 145.599048,199.167194 C144.676367,201.474506 141.723788,215.410672 148.459359,209.873123 C146.429461,212.36502 146.613997,215.410672 148.643895,217.717984 C152.426887,221.963439 154.918125,218.548617 158.701117,217.441107 C163.683594,215.964427 161.100087,217.810277 164.975347,220.579051 C167.651122,222.424901 171.065041,221.317391 173.925352,221.317391" id="Shape" stroke="#2B2523" stroke-linecap="round" stroke-linejoin="round"></path>
                <path d="M154.641321,221.686561 C149.566576,227.316403 156.025342,231.561858 161.007819,231.28498 C158.977921,235.438142 161.284624,236.268775 164.883079,237.376285 C166.174832,237.745455 167.558854,236.914822 168.758339,237.745455 C170.788237,239.222134 169.404216,240.052767 170.234628,241.437154 C170.972773,242.729249 172.172258,246.328656 174.940301,246.697826 C178.077416,247.066996 179.461438,243.652174 182.22948,243.744466" id="Shape" stroke="#2B2523" stroke-linecap="round" stroke-linejoin="round"></path>
                <path d="M145.875852,175.078854 C149.658844,172.402372 152.795959,174.340514 149.84338,168.618379 C147.075338,163.265415 144.215027,162.157905 151.873278,160.219763 C143.292346,149.329249 159.162458,155.512846 164.237203,155.143676 C162.576377,150.805929 160.638747,146.468182 160.269675,141.484387 C163.499058,143.976285 166.636173,146.837352 170.050092,149.052372 C170.050092,147.483399 170.511433,145.822134 171.249577,144.806917 C168.758339,142.407312 170.419165,141.484387 172.356795,140.376877 C175.032569,138.715613 176.877931,140.46917 179.645974,137.14664" id="Shape" stroke="#2B2523" stroke-linecap="round" stroke-linejoin="round"></path>
                <path d="M185.089791,135.854545 C184.720719,133.639526 183.059893,123.856522 187.211957,123.579644 C190.994949,123.302767 192.563507,132.347431 194.039796,134.839328 C195.331549,130.686166 200.221758,124.225692 204.927431,128.840316 C199.575881,124.225692 204.097018,118.411265 210.094444,120.626285" id="Shape" stroke="#2B2523" stroke-linecap="round" stroke-linejoin="round"></path>
                <path d="M209.540835,121.087747 C206.034648,113.79664 219.598057,105.951779 224.211462,113.981225 C220.705274,109.643478 234.730024,100.783399 236.298582,113.704348" id="Shape" stroke="#2B2523" stroke-linecap="round" stroke-linejoin="round"></path>
                <path d="M249.677455,130.316996 C251.707353,129.209486 256.597562,129.486364 258.258388,131.424506 C260.841894,134.654743 256.966634,136.685178 257.243439,139.915415 C261.395503,139.453953 268.77695,135.023913 272.744478,136.4083 C279.203244,138.807905 272.929014,145.083794 270.991384,148.221739 C274.405304,146.560474 277.173346,149.236957 275.327984,152.374901 C273.205818,155.882016 264.532618,155.789723 263.886741,159.850593 C266.747052,159.573715 273.667159,161.23498 270.068703,165.757312 C268.500146,167.695455 262.594988,165.111265 265.639835,170.371937 C263.609937,171.202569 261.764575,170.187352 259.457873,169.541304" id="Shape" stroke="#2B2523" stroke-linecap="round" stroke-linejoin="round"></path>
                <path d="M313.157902,379.322134 C313.25017,376.461067 312.973366,373.784585 309.743983,373.138538 C305.868723,372.400198 304.300165,376.276482 301.16305,377.476285 C300.978514,374.061462 301.255318,370.185178 297.472326,368.431621 C292.674386,366.124308 292.582118,371.661858 293.043458,374.892095 C290.459951,372.86166 284.370257,367.693281 283.908917,374.430632 C284.370257,370.554348 280.402729,366.678063 276.52747,367.231818" id="Shape" stroke="#2B2523" stroke-linecap="round" stroke-linejoin="round"></path>
                <path d="M270.068703,371.938735 C267.392929,374.70751 269.23829,379.968182 272.190869,381.814032 C269.699631,382.829249 265.732103,385.136561 266.37798,388.459091 C267.116124,392.058498 272.283137,391.320158 275.235716,392.150791 C271.729529,392.150791 264.993958,392.88913 263.609937,396.95 C262.50272,400.087945 267.485197,403.318182 270.345508,401.933794 C266.931588,403.779644 268.038805,408.025099 271.360457,409.409486 C275.235716,410.978458 281.140874,409.501779 283.724381,406.363834 C283.170772,410.609289 286.031083,411.255336 289.721807,410.609289 C293.781603,409.870949 295.626965,407.471344 298.487275,405.994664" id="Shape" stroke="#2B2523" stroke-linecap="round" stroke-linejoin="round"></path>
                <path d="M4.33660029,386.982411 C0.73814473,378.03004 13.8402137,375.538142 18.7304225,381.167984 C15.6855755,379.414427 11.7180476,374.984387 16.146916,372.769368 C20.0221758,370.831225 23.9897037,373.876877 26.8500146,376.276482" id="Shape" stroke="#2B2523" stroke-linecap="round" stroke-linejoin="round"></path>
                <path d="M24.3587761,371.938735 C25.7427975,368.893083 27.4958912,366.308893 31.0943468,365.570553 C36.8149684,364.463043 33.2165129,367.877866 33.6778533,370.64664 C35.5232152,369.16996 39.1216707,367.693281 41.1515687,369.9083 C42.5355901,371.477273 42.0742496,375.168972 41.7974454,377.107115 C41.3361049,369.816008 51.4855949,367.324111 55.0840505,373.138538" id="Shape" stroke="#2B2523" stroke-linecap="round" stroke-linejoin="round"></path>
                <path d="M59.4206508,385.136561 C60.9892084,380.245059 64.4953958,374.33834 70.4928218,378.214625 C74.9216901,381.075692 71.4155027,387.720751 68.4629237,390.581818 C70.2160175,388.920553 74.0912773,388.089921 76.3057115,389.197431 C80.2732394,391.135573 77.2283924,392.981423 75.0139582,394.919565 C77.9665372,394.36581 86.1783973,391.966206 88.1160272,395.750198 C89.6845847,398.79585 84.1484993,404.148814 81.6572608,405.071739" id="Shape" stroke="#2B2523" stroke-linecap="round" stroke-linejoin="round"></path>
                <path d="M80.3655075,404.887154 C84.0562312,402.026087 89.5923167,406.917589 83.7794269,408.301976" id="Shape" stroke="#2B2523" stroke-linecap="round" stroke-linejoin="round"></path>
                <path d="M86.8242739,404.887154 C98.8191258,404.887154 113.858825,405.533202 126.960894,404.887154 C134.619145,404.517984 142.277397,404.425692 149.935648,404.425692 C154.087712,404.425692 167.097513,403.133597 168.942875,404.425692" id="Shape" stroke="#2B2523" stroke-linecap="round" stroke-linejoin="round"></path>
                <path d="M78.9814862,410.424704 C78.2433414,412.639723 73.3531326,410.424704 71.1386984,410.147826 C70.0314813,412.732016 62.1886935,411.624506 59.1438465,411.809091" id="Shape" stroke="#2B2523" stroke-linecap="round" stroke-linejoin="round"></path>
                <path d="M48.533016,412.732016 C41.6129092,412.547431 34.6928023,413.839526 27.7726955,413.654941" id="Shape" stroke="#2B2523" stroke-linecap="round" stroke-linejoin="round"></path>
                <path d="M219.228985,402.579842 C222.919709,402.210672 230.208888,402.579842 233.530539,402.579842" id="Shape" stroke="#2B2523" stroke-linecap="round" stroke-linejoin="round"></path>
                <path d="M237.221263,403.041304 C246.263536,405.533202 257.520243,401.103162 266.747052,403.964229" id="Shape" stroke="#2B2523" stroke-linecap="round" stroke-linejoin="round"></path>
                <path d="M298.118203,406.733004 C299.963565,409.963241 302.270267,411.163043 305.776455,410.793874 C310.8512,410.332411 314.818728,409.778656 320.262545,410.886166" id="Shape" stroke="#2B2523" stroke-linecap="round" stroke-linejoin="round"></path>
                <path d="M140.339767,264.141107 C139.324818,266.725296 140.247499,269.401779 140.339767,272.078261 C140.616571,278.261858 139.601622,284.445455 139.878426,290.721344 C140.339767,301.519565 141.262448,312.133202 141.723788,322.931423 C142.646469,343.235771 139.417086,363.540119 140.339767,383.752174 C140.616571,390.120356 140.339767,396.21166 140.339767,402.672134" id="Shape" stroke="#2B2523" stroke-linecap="round" stroke-linejoin="round"></path>
                <path d="M172.172258,271.985968 C171.987722,271.432213 172.264526,271.155336 171.710918,270.786166 C172.07999,295.151383 175.862982,319.701186 174.940301,344.066403 C174.571229,354.495455 174.01762,364.924506 174.01762,375.44585 C174.01762,379.875889 175.770714,387.997628 174.01762,392.058498" id="Shape" stroke="#2B2523" stroke-linecap="round" stroke-linejoin="round"></path>
                <path d="M204.927431,277.98498 C204.835163,304.103755 204.46609,330.22253 204.46609,356.433597 C204.46609,370.092885 206.219184,383.567589 206.311452,397.042292" id="Shape" stroke="#2B2523" stroke-linecap="round" stroke-linejoin="round"></path>
                <path d="M109.429956,328.74585 C110.260369,353.849407 107.400058,379.322134 107.584594,404.517984 C107.676863,405.071739 107.30779,404.148814 107.123254,403.964229" id="Shape" stroke="#2B2523" stroke-linecap="round" stroke-linejoin="round"></path>
                <path d="M115.427382,125.240909 C115.704186,125.517787 116.811404,125.886957 116.073259,125.886957 C110.629441,123.579644 103.524798,123.302767 97.5273725,122.195257" id="Shape" stroke="#2B2523" stroke-linecap="round" stroke-linejoin="round"></path>
                <path d="M96.3278873,121.826087 C96.3278873,136.685178 97.1583001,151.544269 96.2356192,166.495652 C95.4974745,178.032213 93.1907722,190.030237 93.5598446,201.566798" id="Shape" stroke="#2B2523" stroke-linecap="round" stroke-linejoin="round"></path>
                <path d="M95.4052064,129.486364 C94.021185,129.486364 88.8541719,127.179051 87.4701506,125.794664 C87.6546867,138.62332 87.3778825,152.374901 86.1783973,165.203557 C85.6247887,171.017984 85.5325206,176.924704 85.5325206,182.831423 C85.5325206,187.16917 86.0861292,192.983597 84.886644,197.229051" id="Shape" stroke="#2B2523" stroke-linecap="round" stroke-linejoin="round"></path>
                <path d="M85.901593,132.255138 C83.2258184,131.424506 78.9814862,129.855534 76.1211753,129.855534 C76.8593201,148.960079 73.6299369,168.064625 73.6299369,187.076877" id="Shape" stroke="#2B2523" stroke-linecap="round" stroke-linejoin="round"></path>
                <path d="M75.3830306,138.715613 C73.5376688,139.638538 71.1386984,138.069565 69.2933366,137.51581 C67.4479747,136.962055 65.2335406,137.14664 63.664983,136.592885 C65.0490044,139.269368 63.7572511,147.298814 63.9417873,150.713636 C64.3108596,157.543281 64.0340554,164.372925 63.7572511,171.202569 C63.3881787,179.601186 62.3732297,187.90751 62.3732297,196.306126" id="Shape" stroke="#2B2523" stroke-linecap="round" stroke-linejoin="round"></path>
                <path d="M62.8345702,144.899209 C60.2510636,144.16087 57.4830209,143.976285 54.8995143,143.42253 C54.6227101,159.296838 53.0541525,176.555534 53.0541525,191.691502" id="Shape" stroke="#2B2523" stroke-linecap="round" stroke-linejoin="round"></path>
                <path d="M53.607761,150.713636 C52.1314716,150.252174 47.518067,148.221739 45.1190966,147.944862 C46.5953861,155.235968 45.3959009,164.18834 45.3036328,171.664032 C45.2113647,177.755336 44.1964157,183.754348 44.3809519,189.75336" id="Shape" stroke="#2B2523" stroke-linecap="round" stroke-linejoin="round"></path>
                <path d="M45.3036328,157.174111 C43.2737348,156.804941 41.1515687,156.528063 39.1216707,156.066601 C37.2763089,162.896245 39.2139388,171.294862 39.1216707,178.401383 C39.0294026,182.831423 38.8448664,187.16917 38.8448664,191.599209" id="Shape" stroke="#2B2523" stroke-linecap="round" stroke-linejoin="round"></path>
                <path d="M37.5531132,162.434783 C35.8922875,162.527075 32.4783681,161.788735 30.2639339,161.511858 C28.4185721,168.156917 29.8948616,176.924704 30.1716659,183.754348 C30.356202,187.815217 30.4484701,191.876087 30.4484701,195.936957" id="Shape" stroke="#2B2523" stroke-linecap="round" stroke-linejoin="round"></path>
                <path d="M28.326304,167.695455 C28.1417678,168.156917 24.6355804,166.77253 23.1592909,166.495652 C22.8824866,171.387154 23.5283633,176.370949 23.8051676,181.262451 C24.0819718,186.615415 23.4360952,191.783794 23.4360952,197.136759 C23.4360952,202.951186 23.4360952,208.67332 23.4360952,214.487747" id="Shape" stroke="#2B2523" stroke-linecap="round" stroke-linejoin="round"></path>
                <path d="M110.168101,131.978261 C109.891297,131.978261 109.799029,132.347431 109.522224,131.793676 C110.260369,140.46917 109.706761,150.621344 108.876348,159.296838 C108.045935,167.603162 108.691812,175.448024 108.691812,183.754348 C108.691812,192.614427 108.968616,201.289921 108.968616,210.15" id="Shape" stroke="#2B2523" stroke-linecap="round" stroke-linejoin="round"></path>
                <path d="M247.00168,32.3023715 C247.00168,59.9901186 245.433123,87.5855731 245.433123,115.181028 C245.433123,118.96502 245.709927,123.671937 245.709927,126.717589" id="Shape" stroke="#2B2523" stroke-linecap="round" stroke-linejoin="round"></path>
                <path d="M246.448072,32.579249 C249.400651,34.2405138 257.335707,35.7171937 260.288286,35.3480237" id="Shape" stroke="#2B2523" stroke-linecap="round" stroke-linejoin="round"></path>
                <path d="M266.747052,20.0274704 C266.747052,40.9778656 266.747052,62.0205534 266.747052,82.9709486 C266.747052,92.5693676 266.285712,102.352372 267.023856,111.950791 C267.577465,119.426482 268.961486,129.024901 267.116124,136.316008" id="Shape" stroke="#2B2523" stroke-linecap="round" stroke-linejoin="round"></path>
                <path d="M265.455299,20.5812253 C265.639835,20.2120553 265.178494,20.1197628 265.732103,19.9351779 C268.961486,20.8581028 272.283137,24.2729249 275.604789,24.2729249" id="Shape" stroke="#2B2523" stroke-linecap="round" stroke-linejoin="round"></path>
                <path d="M107.676863,123.948814 C107.861399,124.317984 108.045935,124.687154 108.230471,124.871739 C108.507275,122.379842 107.400058,119.70336 110.629441,119.33419 C110.075833,118.59585 109.799029,117.580632 109.24542,116.842292 C109.799029,116.657708 110.537173,115.827075 111.275318,115.734783 C110.72171,113.704348 109.337688,111.397036 111.828927,110.104941 C109.429956,107.428458 116.257795,106.228656 118.103157,108.905138 C121.517076,107.336166 121.517076,107.982213 124.838728,108.720553 C125.853677,108.905138 126.868626,108.443676 127.883575,108.628261 C129.08306,108.812846 130.005741,109.643478 130.928422,109.920356 C133.973269,110.566403 140.432035,109.551186 142.646469,111.397036" id="Shape" stroke="#2B2523" stroke-linecap="round" stroke-linejoin="round"></path>
                <path d="M108.599543,172.863834 C110.998514,172.310079 115.335114,169.079842 118.379961,167.88004 C123.177902,165.941897 127.60677,163.634585 132.312443,161.60415 C137.663992,159.296838 143.10781,156.897233 148.274823,154.220751 C152.242351,152.190316 156.671219,149.236957 160.915551,147.944862" id="Shape" stroke="#2B2523" stroke-linecap="round" stroke-linejoin="round"></path>
                <path d="M118.749034,206.735178 C118.379961,206.4583 117.826353,206.735178 118.195425,205.904545 C120.963468,204.981621 136.741311,198.244269 137.848528,199.720949" id="Shape" stroke="#2B2523" stroke-linecap="round" stroke-linejoin="round"></path>
                <path d="M115.704186,126.163834 C116.073259,126.256126 120.225323,124.225692 121.609344,123.764229 C126.499553,121.826087 131.389762,119.70336 136.003167,117.303755 C152.150083,108.905138 167.651122,99.3990119 183.890306,91.0926877 C197.453715,84.0784585 210.555784,76.5104743 223.381049,68.2041502 C230.762496,63.4049407 239.712501,57.3136364 247.093949,53.9911067" id="Shape" stroke="#2B2523" stroke-linecap="round" stroke-linejoin="round"></path>
                <path d="M131.666566,240.237352 C139.878426,240.237352 150.396989,236.730237 157.778436,233.776877" id="Shape" stroke="#2B2523" stroke-linecap="round" stroke-linejoin="round"></path>
                <path d="M111.090782,285.829842 C113.951093,283.799407 119.210374,283.337945 122.716561,282.507312 C129.359864,280.93834 136.095435,279.83083 142.646469,278.169565 C152.334619,275.76996 161.745964,272.447431 171.434114,270.140119" id="Shape" stroke="#2B2523" stroke-linecap="round" stroke-linejoin="round"></path>
                <path d="M113.858825,319.608893 C115.888723,320.347233 119.210374,319.055138 121.240272,318.501383 C127.053162,317.024704 132.95832,315.824901 138.771209,314.717391 C147.721214,313.056126 156.763487,311.487154 165.528956,308.810672 C175.862982,305.580435 187.027421,304.934387 197.638252,302.627075 C205.757844,300.873518 215.445993,300.96581 223.104245,297.735573" id="Shape" stroke="#2B2523" stroke-linecap="round" stroke-linejoin="round"></path>
                <path d="M247.924361,307.61087 C245.340855,315.363439 247.00168,325.884783 246.724876,334.098814 C246.632608,336.498419 246.632608,339.082609 246.724876,341.482213 C246.724876,342.405138 246.817144,343.328063 246.909412,344.250988 C246.909412,344.712451 247.186217,347.942688 247.093949,346.742885" id="Shape" stroke="#2B2523" stroke-linecap="round" stroke-linejoin="round"></path>
                <path d="M252.537766,302.07332 C251.430549,304.842095 251.984157,309.179842 251.891889,312.225494 C251.799621,318.316798 251.522817,324.408103 251.246013,330.499407 C250.969208,335.944664 251.891889,341.297628 251.891889,346.742885" id="Shape" stroke="#2B2523" stroke-linecap="round" stroke-linejoin="round"></path>
                <path d="M266.101175,275.677668 C266.101175,275.308498 266.101175,274.200988 266.101175,274.385573 C266.101175,298.843083 268.131073,324.869565 268.223341,348.588735" id="Shape" stroke="#2B2523" stroke-linecap="round" stroke-linejoin="round"></path>
                <path d="M272.283137,279.923123 C272.744478,296.258893 272.559942,310.102767 272.559942,326.438538 C272.559942,333.729644 271.914065,341.574506 272.836746,348.865613" id="Shape" stroke="#2B2523" stroke-linecap="round" stroke-linejoin="round"></path>
                <path d="M291.01356,255.00415 C290.090879,256.85 291.01356,260.818577 291.01356,263.033597 C291.01356,268.017391 291.198096,273.093478 291.290364,278.077273 C291.659437,289.060079 292.120777,299.950593 291.567169,310.841107 C291.198096,318.409091 290.921292,326.069368 290.644488,333.637352 C290.459951,337.052174 292.674386,345.912253 290.644488,348.588735" id="Shape" stroke="#2B2523" stroke-linecap="round" stroke-linejoin="round"></path>
                <path d="M300.517173,237.837747 C301.255318,248.082213 300.517173,258.880435 300.793978,269.217194 C301.070782,278.538735 300.793978,287.860277 300.793978,297.181818 C300.793978,308.533794 301.993463,319.885771 301.439854,331.33004 C301.255318,335.483202 300.793978,339.728656 300.793978,343.974111" id="Shape" stroke="#2B2523" stroke-linecap="round" stroke-linejoin="round"></path>
                <path d="M246.079,350.065415 C250.969208,350.065415 255.951685,350.157708 260.841894,349.788538 C264.717154,349.51166 268.961486,348.496443 272.836746,348.865613" id="Shape" stroke="#2B2523" stroke-linecap="round" stroke-linejoin="round"></path>
                <path d="M290.736756,349.14249 C299.686761,346.281423 311.404808,347.66581 320.908422,347.573518" id="Shape" stroke="#2B2523" stroke-linecap="round" stroke-linejoin="round"></path>
                <path d="M298.671812,345.173913 C304.669237,342.589723 312.881098,344.066403 319.247596,342.405138" id="Shape" stroke="#2B2523" stroke-linecap="round" stroke-linejoin="round"></path>
                <path d="M247.924361,355.049209 C246.54034,358.648617 248.201166,365.570553 248.570238,369.446838 C249.031578,374.984387 249.585187,380.614229 249.769723,386.059486 C250.046527,391.781621 250.600136,397.965217 249.769723,403.595059" id="Shape" stroke="#2B2523" stroke-linecap="round" stroke-linejoin="round"></path>
                <path d="M252.906838,39.6857708 C251.984157,41.9007905 252.630034,45.2233202 252.630034,47.6229249 C252.630034,52.0529644 252.35323,56.6675889 252.630034,61.0976285 C252.999106,68.4810277 253.368179,75.9567194 253.275911,83.4324111 C253.183643,94.4152174 254.014055,105.490316 253.552715,116.473123 C253.368179,120.4417 252.906838,124.317984 252.906838,128.378854" id="Shape" stroke="#2B2523" stroke-linecap="round" stroke-linejoin="round"></path>
                <path d="M274.128499,30.1796443 C273.11355,32.6715415 273.851695,36.6401186 273.851695,39.4088933 C273.851695,44.3926877 273.298086,49.4687747 273.482623,54.5448617 C273.851695,62.2051383 274.128499,69.865415 274.128499,77.7102767 C274.128499,90.9081028 275.235716,104.105929 275.327984,117.211462 C275.327984,121.18004 273.943963,128.932609 275.604789,132.439723" id="Shape" stroke="#2B2523" stroke-linecap="round" stroke-linejoin="round"></path>
                <path d="M298.118203,8.95237154 C295.35016,9.22924901 292.120777,8.12173913 289.814075,7.10652174" id="Shape" stroke="#2B2523" stroke-linecap="round" stroke-linejoin="round"></path>
                <path d="M288.891394,7.10652174 C289.629539,8.86007905 289.168198,12.0903162 289.168198,14.120751 C289.168198,18.273913 289.629539,22.5193676 289.445002,26.6725296 C289.260466,32.6715415 289.168198,38.5782609 289.445002,44.5772727 C289.998611,56.113834 291.567169,67.3735178 291.567169,79.0023715 C291.567169,89.8005929 293.320262,176.001779 292.305313,186.707708" id="Shape" stroke="#2B2523" stroke-linecap="round" stroke-linejoin="round"></path>
                <path d="M295.903769,14.4899209 C295.903769,35.0711462 298.76408,57.3136364 299.871297,78.4486166 C300.424905,88.1393281 299.409956,224.363043 299.409956,234.053755" id="Shape" stroke="#2B2523" stroke-linecap="round" stroke-linejoin="round"></path>
                <path d="M253.829519,86.7549407 C257.427975,87.1241107 263.609937,83.3401186 267.023856,82.1403162" id="Shape" stroke="#2B2523" stroke-linecap="round" stroke-linejoin="round"></path>
                <path d="M273.759427,77.8025692 C276.250665,76.4181818 279.203244,75.3106719 281.879019,74.1108696 C283.724381,73.2802372 288.522322,72.0804348 289.07593,70.6960474" id="Shape" stroke="#2B2523" stroke-linecap="round" stroke-linejoin="round"></path>
                <path d="M300.240369,64.8816206 C301.993463,62.9434783 305.591918,61.6513834 307.898621,60.451581 C310.758932,58.9749012 313.71151,56.483004 316.848626,55.6523715" id="Shape" stroke="#2B2523" stroke-linecap="round" stroke-linejoin="round"></path>
                <path d="M258.996532,36.6401186 C259.273337,36.3632411 260.749626,35.0711462 261.856843,34.8865613 C259.734677,36.1786561 257.058902,37.101581 255.398077,38.9474308 C258.535192,36.6401186 262.594988,34.8865613 265.178494,31.9332016" id="Shape" stroke="#2B2523" stroke-linecap="round" stroke-linejoin="round"></path>
                <path d="M274.128499,26.4879447 C278.372831,23.9037549 283.170772,19.6583004 287.691909,18.1816206" id="Shape" stroke="#2B2523" stroke-linecap="round" stroke-linejoin="round"></path>
                <path d="M295.35016,13.1978261 C298.210471,11.8134387 300.978514,9.87529644 303.56202,7.93715415 C306.606867,5.6298419 311.589344,2.95335968 313.803779,0" id="Shape" stroke="#2B2523" stroke-linecap="round" stroke-linejoin="round"></path>
                <path d="M275.05118,130.778458 C278.557368,126.809881 286.123351,124.964032 290.736756,122.472134" id="Shape" stroke="#2B2523" stroke-linecap="round" stroke-linejoin="round"></path>
                <path d="M258.719728,135.66996 C261.02643,134.100988 265.086226,132.808893 267.946537,131.978261" id="Shape" stroke="#2B2523" stroke-linecap="round" stroke-linejoin="round"></path>
                <path d="M299.963565,119.33419 C304.576969,117.85751 309.559446,117.11917 314.080583,115.365613" id="Shape" stroke="#2B2523" stroke-linecap="round" stroke-linejoin="round"></path>
                <path d="M104.632016,279.000198 C104.816552,281.399802 105.001088,286.014427 105.831501,287.952569" id="Shape" stroke="#2B2523" stroke-linecap="round" stroke-linejoin="round"></path>
                <path d="M105.831501,302.996245 C105.831501,308.349209 107.584594,318.501383 105.554696,323.300593" id="Shape" stroke="#2B2523" stroke-linecap="round" stroke-linejoin="round"></path>
                <path d="M83.6871588,310.748814 C83.6871588,316.655534 85.0711802,324.68498 83.9639631,330.130237" id="Shape" stroke="#2B2523" stroke-linecap="round" stroke-linejoin="round"></path>
                <path d="M88.6696357,308.533794 C88.7619038,308.441502 89.0387081,307.795455 88.94644,308.164625 C89.3155124,314.532806 88.8541719,321.547036 88.3005634,327.915217" id="Shape" stroke="#2B2523" stroke-linecap="round" stroke-linejoin="round"></path>
                <path d="M99.7418067,310.379644 C99.7418067,310.102767 99.7418067,309.825889 99.7418067,309.549012 C99.2804662,314.532806 99.7418067,319.516601 99.7418067,324.500395" id="Shape" stroke="#2B2523" stroke-linecap="round" stroke-linejoin="round"></path>
                <path d="M36.0768237,313.517589 C33.9546576,319.239723 35.8000194,328.653557 35.8000194,335.021739 C35.8000194,339.636364 36.4458961,344.435573 36.0768237,348.957905" id="Shape" stroke="#2B2523" stroke-linecap="round" stroke-linejoin="round"></path>
                <path d="M27.1268188,314.071344 C27.2190869,326.346245 28.6031083,338.528854 28.6953764,350.711462" id="Shape" stroke="#2B2523" stroke-linecap="round" stroke-linejoin="round"></path>
                <path d="M44.6577562,333.175889 C44.5654881,332.899012 44.47322,332.622134 44.3809519,332.345257 C43.2737348,336.221542 43.7350753,341.113043 43.7350753,345.173913" id="Shape" stroke="#2B2523" stroke-linecap="round" stroke-linejoin="round"></path>
                <path d="M20.9448567,307.333992 C20.9448567,317.947628 21.4984653,328.653557 22.1443419,339.174901 C22.4211462,344.158696 21.6830015,350.526877 23.0670228,355.326087" id="Shape" stroke="#2B2523" stroke-linecap="round" stroke-linejoin="round"></path>
                <path d="M66.9866343,204.150988 C67.2634386,204.335573 67.2634386,205.166206 67.4479747,204.704743 C65.4180767,199.351779 68.1861195,197.598221 72.8917921,201.197628 C72.0613793,199.074901 65.6026129,187.261462 71.3232346,187.076877 C73.9990092,186.984585 79.9964352,196.490711 81.841797,198.521146 C83.2258184,192.614427 87.0088101,198.982609 88.3005634,201.382213 C93.8366489,196.121542 94.7593298,200.459289 96.0510831,205.073913 C98.9113939,201.474506 102.694386,197.229051 104.816552,202.397431 C105.923769,204.981621 104.724284,209.04249 105.739233,211.534387 C107.953667,208.581028 110.906246,202.858893 115.980991,205.073913 C118.564497,206.181423 119.39491,209.965415 118.287693,212.457312" id="Shape" stroke="#2B2523" stroke-linecap="round" stroke-linejoin="round"></path>
                <path d="M126.960894,241.067984 C133.050588,240.421937 136.279971,245.867194 129.913473,248.543676 C130.836153,249.189723 131.389762,250.943281 131.851102,251.497036 C123.177902,251.497036 130.467081,254.26581 130.836153,258.603557 C131.389762,266.725296 120.133055,263.771937 116.811404,260.5417 C117.918621,262.664427 123.454706,265.710079 122.716561,268.755731 C121.978417,271.709091 118.287693,271.616798 115.980991,270.970751 C120.686663,271.985968 119.763983,276.231423 115.427382,276.969763 C112.382535,277.523518 107.861399,275.308498 105.37016,273.739526 C111.828927,277.24664 101.956241,280.015415 97.8964449,277.708103 C98.2655172,281.399802 94.6670617,283.707115 91.3454104,282.04585" id="Shape" stroke="#2B2523" stroke-linecap="round" stroke-linejoin="round"></path>
                <path d="M95.1284021,287.675692 C97.988713,285.368379 104.90882,285.829842 104.355211,290.813636 C106.292841,287.398814 107.953667,291.275099 108.138203,293.213241 C113.12068,291.090514 116.165527,292.474901 121.055736,293.674704" id="Shape" stroke="#2B2523" stroke-linecap="round" stroke-linejoin="round"></path>
                <path d="M112.197999,300.135178 C114.043361,304.380632 106.292841,301.888735 104.262943,301.611858 C104.632016,304.749802 103.893871,309.272134 99.8340748,309.641304 C97.4351044,309.918182 95.4052064,307.333992 93.3753084,306.687945 C91.7144828,306.13419 90.3304614,306.50336 88.3005634,306.318775 C94.1134531,310.564229 83.4103545,310.841107 80.5500437,309.087549 C81.1036523,313.056126 76.9515881,312.779249 74.3680816,312.133202" id="Shape" stroke="#2B2523" stroke-linecap="round" stroke-linejoin="round"></path>
                <path d="M72.0613793,315.363439 C75.8443711,317.855336 77.9665372,324.038933 69.8469451,323.2083 C76.6747839,323.116008 76.3057115,333.360474 67.5402428,329.761067 C68.4629237,335.483202 62.5577659,335.575494 60.1587955,331.606917 C60.0665274,332.899012 58.9593103,333.545059 58.6825061,334.283399" id="Shape" stroke="#2B2523" stroke-linecap="round" stroke-linejoin="round"></path>
                <path d="M51.7623992,332.899012 C52.0392035,333.175889 52.500544,333.545059 52.9618844,333.821937 C47.8871394,337.975099 41.3361049,328.099802 46.5953861,327.915217 C43.2737348,328.468972 39.8598154,323.116008 44.6577562,321.916206 C39.5830112,323.57747 35.5232152,318.039921 42.0742496,315.363439" id="Shape" stroke="#2B2523" stroke-linecap="round" stroke-linejoin="round"></path>
                <path d="M42.0742496,310.748814 C40.0443516,309.918182 31.7402234,315.732609 27.7726955,313.425296 C23.4360952,310.841107 28.326304,308.256917 29.4335211,305.211265 C26.0196017,306.13419 20.8525886,310.287352 17.161865,308.441502 C12.9175328,306.318775 15.5933074,302.719368 17.3464012,299.673715 C14.3938222,299.581423 9.41134531,299.950593 10.5185624,295.428261 C11.164439,292.751779 16.9773288,291.367391 18.8226906,289.429249 C18.0845459,288.229447 16.7927926,287.583399 15.3165032,287.583399" id="Shape" stroke="#2B2523" stroke-linecap="round" stroke-linejoin="round"></path>
                <path d="M7.93505585,273.831818 C6.3664983,275.493083 0.0922680913,264.510277 0,261.833794 C2.58350656,261.556917 5.90515784,263.679644 8.30412822,262.018379 C7.28917921,261.095455 6.64330257,259.618775 5.72062166,258.603557 C7.3814473,257.311462 9.68814959,257.126877 11.8103157,257.21917 C7.3814473,253.804348 5.99742593,251.404743 11.9025838,249.374308 C6.45876639,243.836759 7.75051967,242.175494 13.3788732,238.391502" id="Shape" stroke="#2B2523" stroke-linecap="round" stroke-linejoin="round"></path>
                <path d="M11.164439,238.299209 C16.6082564,236.914822 23.5283633,240.145059 29.0644488,240.514229 C25.0969208,237.468577 13.1943371,235.622727 14.5783584,228.516206 C18.2690821,228.516206 21.7752695,232.669368 25.4659932,233.86917 C25.0046527,231.469565 18.4536183,218.456324 21.7752695,216.518182 C24.266508,215.041502 27.9572317,221.040514 31.0943468,219.379249" id="Shape" stroke="#2B2523" stroke-linecap="round" stroke-linejoin="round"></path>
                <path d="M86.8242739,282.599605 C86.0861292,280.93834 80.7345799,277.800395 78.4278776,275.862253 C79.5350947,278.907905 81.1959203,286.845059 75.752103,286.291304 C73.4454007,286.106719 69.6624089,282.04585 67.8170471,280.753755 C68.0015833,285.183794 65.694881,282.322727 64.1263235,283.061067 C63.2959106,283.430237 59.2361146,287.029644 57.9443613,286.660474 C54.4381739,285.737549 57.0216804,276.323715 54.0691015,273.831818 C52.6850801,277.61581 50.8397183,281.399802 48.4407479,284.445455" id="Shape" stroke="#2B2523" stroke-linecap="round" stroke-linejoin="round"></path>
                <path d="M47.6103351,285.368379 C47.1489947,285.460672 46.7799223,285.645257 46.3185818,285.829842 C45.3959009,282.507312 44.0118796,279.277075 43.458271,275.862253 C42.5355901,277.800395 42.6278582,280.846047 40.6902283,282.230435 C38.1067217,283.983992 34.8773385,281.953557 34.2314619,279.000198" id="Shape" stroke="#2B2523" stroke-linecap="round" stroke-linejoin="round"></path>
                <path d="M61.9118893,285.829842 C57.4830209,295.243676 58.590238,310.471937 59.1438465,321.362451 C59.6974551,332.714427 59.9742593,343.789526 59.605187,355.049209 C58.9593103,374.984387 59.8819913,394.181225 57.7598252,414.024111 C56.56034,425.837549 53.515493,444.665217 61.4505488,454.725099" id="Shape" stroke="#2B2523" stroke-linecap="round" stroke-linejoin="round"></path>
                <path d="M54.530442,279.369368 C52.8696163,283.799407 53.515493,291.182806 53.2386887,296.074308 C52.9618844,302.07332 52.6850801,307.98004 52.6850801,313.979051 C52.6850801,321.731621 53.3309568,329.48419 54.1613696,337.236759 C56.0989995,357.171937 56.4680719,377.476285 54.2536377,397.503755 C52.1314716,416.700593 48.6252841,435.435968 47.2412627,454.725099" id="Shape" stroke="#2B2523" stroke-linecap="round" stroke-linejoin="round"></path>
                <path d="M30.0793978,217.994862 C27.7726955,214.58004 22.7902186,194.183399 32.7551724,201.751383 C33.1242448,195.660079 33.308781,191.876087 40.1366197,192.245257 C42.6278582,192.429842 41.6129092,194.275692 44.1041476,192.891304 C45.7649733,191.968379 46.0417776,187.815217 47.9794075,187.53834 C52.1314716,186.8 54.2536377,196.675296 57.0216804,197.875099 C59.1438465,198.798024 60.4355998,196.490711 62.8345702,196.767589 C64.5876639,196.952174 68.5551918,199.813241 67.4479747,200.459289" id="Shape" stroke="#2B2523" stroke-linecap="round" stroke-linejoin="round"></path>
                <path d="M116.626867,231.65415 C124.192851,233.961462 124.100583,240.514229 116.165527,241.621739 C118.195425,242.544664 118.93357,244.021344 119.671714,245.867194 C116.534599,247.620751 112.197999,249.097431 108.599543,249.558893" id="Shape" stroke="#2B2523" stroke-linecap="round" stroke-linejoin="round"></path>
                <path d="M112.936144,219.379249 C114.873774,212.457312 122.162953,218.179447 118.564497,224.824506 C121.517076,223.901581 122.80883,224.916798 121.609344,227.962451" id="Shape" stroke="#2B2523" stroke-linecap="round" stroke-linejoin="round"></path>
            </g>
        </g>
    </g>
</svg>