<svg xmlns="http://www.w3.org/2000/svg" xmlns:xlink="http://www.w3.org/1999/xlink" width="20px" height="20px" viewBox="0 0 15 15" version="1.1">
    <!-- Generator: Sketch 40.2 (33826) - http://www.bohemiancoding.com/sketch -->
    <title>Shape Copy</title>
    <desc>Created with Sketch.</desc>
    <defs/>
    <g id="Page-1" stroke="none" stroke-width="1" fill="none" fill-rule="evenodd" fill-opacity="1">
        <g id="Техрайдер---Открытая-позиция" transform="translate(-1105.000000, -1021.000000)" fill="#414042">
            <g id="Group-12" transform="translate(490.000000, 745.000000)">
                <path d="M627.8,288.808333 C629.266667,287.341667 630,285.575 630,283.508333 C630,281.447222 629.266667,279.675 627.8,278.191667 C626.338889,276.730556 624.572222,276 622.5,276 C620.427778,276 618.661111,276.730556 617.2,278.191667 C615.733333,279.652778 615,281.425 615,283.508333 C615,285.575 615.733333,287.341667 617.2,288.808333 C618.661111,290.269444 620.427778,291 622.5,291 C624.572222,291 626.338889,290.269444 627.8,288.808333 L627.8,288.808333 Z M622.966667,283.016667 L625.316667,283.016667 C625.433333,283.016667 625.538889,283.063889 625.633333,283.158333 C625.711111,283.258333 625.75,283.375 625.75,283.508333 C625.75,283.630556 625.711111,283.738889 625.633333,283.833333 C625.538889,283.933333 625.433333,283.983333 625.316667,283.983333 L622.966667,283.983333 L622.966667,286.316667 C622.966667,286.433333 622.919444,286.541667 622.825,286.641667 C622.725,286.719444 622.616667,286.758333 622.5,286.758333 C622.188889,286.758333 622.033333,286.611111 622.033333,286.316667 L622.033333,283.983333 L619.691667,283.983333 C619.552778,283.983333 619.433333,283.933333 619.333333,283.833333 C619.238889,283.738889 619.191667,283.630556 619.191667,283.508333 C619.191667,283.375 619.238889,283.258333 619.333333,283.158333 C619.433333,283.063889 619.552778,283.016667 619.691667,283.016667 L622.033333,283.016667 L622.033333,280.675 C622.033333,280.558333 622.080556,280.452778 622.175,280.358333 C622.258333,280.258333 622.366667,280.208333 622.5,280.208333 C622.616667,280.208333 622.725,280.258333 622.825,280.358333 C622.919444,280.452778 622.966667,280.558333 622.966667,280.675 L622.966667,283.016667 L622.966667,283.016667 Z" id="Shape-Copy"/>
            </g>
        </g>
    </g>
</svg>