<?xml version="1.0" encoding="UTF-8"?>
<svg width="97px" height="101px" viewBox="0 0 97 101" version="1.1" xmlns="http://www.w3.org/2000/svg" xmlns:xlink="http://www.w3.org/1999/xlink">
    <!-- Generator: Sketch 50.2 (55047) - http://www.bohemiancoding.com/sketch -->
    <title>Group 13</title>
    <desc>Created with Sketch.</desc>
    <defs></defs>
    <g id="Page-1" stroke="none" stroke-width="1" fill="none" fill-rule="evenodd">
        <g id="Заглушка" fill="#F8E4D2">
            <g id="Group-13" transform="translate(-20.000000, -16.000000)">
                <g id="Group-5">
                    <path d="M55.2174398,0.494957531 C54.2129538,0.494957531 55.1079828,0.448735816 54.7195557,0.743399249 C54.4144322,0.571993723 54.453178,0.494957531 53.9727296,0.494957531 L52.9759927,0.494957531 C51.0580733,0.494957531 50.2163198,1.0033964 48.4960043,1.24702335 L46.2545571,1.48583555 L45.7508611,1.47235421 L44.7618734,1.98079308 C44.7570302,1.97501536 44.2978919,1.73235136 44.2649579,1.73235136 C42.8071455,1.73235136 41.3967967,2.96878224 40.0319743,2.96878224 L39.5147172,2.93604185 L38.0404378,3.95966025 C36.7240477,3.98951177 34.8293758,4.66935617 34.5513744,5.67082666 L32.8339648,5.95297171 L32.5462769,6.48066962 L31.8168863,6.18696914 C31.3761523,6.56926124 29.6819902,7.30110506 28.9206344,7.76139631 C28.672661,7.91161688 26.4128095,9.79996653 26.3391924,9.90011358 L25.3443928,9.90011358 C24.7331771,11.0479528 23.983445,11.2241731 22.9082478,11.9300172 C21.41847,12.905488 21.5724847,13.2762247 20.5631554,14.301769 C19.5121744,15.3658314 19.1121235,14.1448077 17.7850783,15.9946393 C17.04697,17.0240354 16.1713138,17.4082534 16.1345053,19.055865 L16.526807,19.0635686 L16.6314208,20.046743 C15.3528078,20.0178544 15.9165599,20.2701479 15.4002715,19.6172662 L14.1420002,19.7983013 C13.411641,20.8816227 12.0313202,20.975992 11.9015216,22.5196047 C10.7904845,22.8142682 10.3768726,24.3116591 9.91192246,25.2437971 C9.3627001,26.3415628 8.56453568,26.86252 7.78961877,27.8351019 C7.02923154,28.7903507 4.98248224,32.8684541 4.73257154,34.1366624 L5.42999676,36.6268573 C4.88464898,36.9138171 4.82943615,36.9532982 4.44488364,37.3644789 L4.81974969,38.5691323 L4.68413923,39.100682 C4.12523041,39.2297176 4.11070072,39.3491237 3.43749165,39.3491237 L2.40297757,39.3520126 L2.69260276,42.5653847 L2.70616381,43.0670829 L2.19375,44.0512203 L2.19375,44.5452149 L2.19375,45.0401724 C2.19375,45.6102402 2.36713766,45.7826087 2.94057618,45.7826087 C3.89566127,45.7826087 4.41098102,44.3429949 4.43422853,43.307821 C5.7351203,42.3602759 5.31569652,40.6491095 7.42153323,40.09156 C6.89071515,39.3722346 7.45640449,39.6235652 6.12064146,39.5811953 L6.31340204,38.6432796 L5.85329513,37.2768502 L8.16835941,35.6369423 C8.23422735,34.8511731 9.1612217,34.0220711 9.66201176,33.6571121 C9.68622791,32.5362355 11.1004513,30.0807069 11.4036375,28.9550156 C12.1998647,29.3209375 12.5166119,29.3373077 12.1514323,28.4590951 C14.0160762,27.4788096 12.7752405,27.4354767 13.8145978,26.4012658 C13.912431,26.3049706 16.0715433,25.0165403 16.1209442,24.9972812 L15.8845946,23.5095198 L16.4202559,23.3997432 L15.7606079,23.1387831 L16.6314208,22.5196047 C16.4715941,21.8561305 16.3815101,22.0535358 16.3815101,21.5296897 C16.3815101,21.3650248 17.1670821,20.6081442 17.3792156,20.2932588 L17.876131,20.2932588 L18.1250731,20.2932588 C18.8292789,20.2932588 20.4178585,19.0337171 20.8111289,18.5069821 C21.6083246,17.4342531 22.081024,17.11359 23.887549,16.9643324 L23.3053927,16.7813714 L24.6091904,15.3985718 L25.8626185,15.0836863 L25.6020527,14.6224321 L23.887549,15.3311651 L23.602767,14.847763 L23.602767,15.5901993 L22.8559409,15.5901993 C21.8495175,15.5901993 22.7464839,15.636421 22.3561195,15.3446464 C22.3522449,15.3465723 21.892138,15.5901993 21.859204,15.5901993 C21.2973892,15.5901993 21.9744729,15.6864945 21.4000657,15.454423 L20.0807697,15.8087895 L20.6144937,15.0962047 C21.9153855,15.0673161 22.3444957,14.6002842 23.602767,14.6002842 C24.2401362,14.6002842 24.2033277,14.5405812 24.610159,14.3316205 L25.0479871,14.4356194 L26.5542318,14.0774011 L27.0879559,13.3648163 L28.0624139,13.3494091 L28.3307289,12.8679329 C29.4950415,12.8438591 30.2593033,12.4914185 30.5905803,11.5852803 L31.3190022,11.8789808 C32.6402356,10.7378822 33.9701867,10.8649919 35.1180324,9.96366844 C35.9655978,9.29923128 38.0840269,8.71183032 39.2851481,8.41331508 C41.0403349,7.97613469 47.1244013,6.02230428 48.7517268,6.11956247 L51.9811931,6.43444791 C52.8084169,6.51822477 52.285348,6.331412 52.4790772,6.18696914 C52.8055109,6.36896714 52.7386744,6.37763372 53.2317153,6.38533734 L56.2141767,6.68288963 C57.379458,6.81674001 56.0369145,6.42192953 56.7246532,6.95155334 L57.2089763,6.68288963 C57.6090272,6.87933191 57.5664067,6.90629458 58.2066818,6.88510963 L68.660311,7.1768842 L68.9082844,7.1768842 C70.4581183,7.1768842 73.6623997,8.41427803 75.3807779,8.41427803 C76.0181471,8.41427803 75.9832758,8.47398108 76.3901072,8.68294175 L76.8608693,8.46724041 L83.3198017,10.0118161 L84.09375,9.90011358 C84.0385372,9.22989871 82.7657361,6.83888791 82.4141176,6.371856 C81.9356064,5.74497399 79.9237284,4.85905779 79.1168461,4.45365483 C77.7152152,3.74877368 72.8477683,1.98079308 70.9017582,1.98079308 L70.6518475,1.98079308 C70.3748147,1.98079308 69.0012745,1.16902421 68.660311,0.989915063 L68.1517718,1.05154402 L66.1699218,0.743399249 C65.6177935,0.653844677 65.485089,0.842583346 65.1828714,0.966804205 L63.6717834,0.465106007 L62.6672973,0.789620964 L61.9195025,0.448735816 L61.1920493,0.743399249 C60.935358,0.43814334 61.597912,0.494957531 60.6941651,0.494957531 L60.1953124,0.494957531 C59.0174387,0.494957531 58.6038268,0 57.9558025,0 C56.9861877,0 56.3982195,0.494957531 55.2174398,0.494957531 Z M55.6978883,1.77857307 C55.4576641,2.50560213 55.1380109,2.30915984 54.7612075,1.77472127 L55.0101496,1.52627955 L55.6978883,1.77857307 Z M56.9116019,1.83923908 C58.1156291,1.82768365 57.3949564,1.4665765 57.9267431,2.2899008 L56.9116019,1.83923908 Z M53.2259034,2.47478766 L52.7415803,2.00101508 L53.2123423,1.71116641 L53.2259034,2.47478766 Z M66.4198325,2.22634594 L66.916748,2.22634594 L66.916748,1.73235136 L66.4198325,1.73235136 L66.4198325,2.22634594 Z M42.9689094,4.75217007 L43.5161944,4.7030595 L43.4677621,5.2471276 L42.9689094,4.75217007 Z M41.226315,4.99964884 L41.7745687,4.94957531 L41.7261364,5.49364342 L41.226315,4.99964884 Z M34.5048794,8.36420451 L34.555249,8.90827261 L34.0079639,8.85916204 L34.5048794,8.36420451 Z" id="Fill-3320"></path>
                    <path d="M100.703717,23.0130509 C101.756782,23.2732798 101.788292,23.9813665 102.792567,23.9813665 C103.297753,23.9813665 103.8375,23.5485945 103.8375,23.2544227 C103.8375,22.1531641 103.279457,21.9909925 102.792567,21.3159059 L102.269084,21.321563 L100.18125,21.0745342 C100.220892,22.7433934 100.573608,21.5629348 100.703717,23.0130509" id="Fill-3324"></path>
                    <path d="M106.03125,30.0659207 C106.03125,33.6675489 108.11092,37.5241511 111.373458,37.7888199 C111.660514,36.7311142 111.88125,37.3535221 111.88125,36.5430346 L111.88125,36.2938776 C111.88125,33.0344767 109.645184,30.1696553 107.303204,29.068323 C107.024067,29.2505857 106.03125,29.7527778 106.03125,30.0659207" id="Fill-3328"></path>
                    <path d="M111.954494,39.6028794 L112.132829,40.1088644 L111.88125,40.6582196 L112.321513,41.4223602 C112.54443,41.2271946 113.34375,40.6933288 113.34375,40.3597917 C113.34375,39.2796686 113.020519,38.9316748 112.54045,38.515528 L111.954494,39.6028794 Z" id="Fill-3332"></path>
                    <path d="M112.6125,43.2387061 L112.6125,43.457652 C112.6125,43.8785713 113.111278,44.3291925 113.4518,44.3291925 C114.360951,44.3291925 114.484282,43.5662764 114.80625,43.031641 L114.574869,42.1490683 C113.612239,42.2101695 112.6125,42.4647578 112.6125,43.2387061" id="Fill-3334"></path>
                    <path d="M114.075,49.488523 L114.339874,50.2524076 C114.157773,50.5621172 114.075,50.5235272 114.075,51.0153026 C114.075,51.5080675 115.054828,53.0496894 115.404545,53.0496894 C115.77599,53.0496894 115.935329,52.7023792 115.935329,52.2867944 L115.935329,51.0153026 L115.935329,50.5067059 C116.07294,50.259334 117,48.9918002 117,48.9809158 C117,48.3506121 116.304705,48.7909342 115.670455,47.9627329 C113.924973,48.7632285 114.912045,47.8212362 114.075,49.488523" id="Fill-3338"></path>
                    <path d="M114.80625,64.7804876 C115.23166,65.4126186 115.068979,65.3819012 116.060519,65.4037267 C116.19473,64.8475808 116.26875,65.0124845 116.26875,64.5727413 C116.26875,64.3965206 115.820565,63.9503106 115.641616,63.9503106 C115.003094,63.9503106 115.03563,64.3205356 114.80625,64.7804876" id="Fill-3340"></path>
                    <path d="M110.41875,80.5604348 C110.41875,81.1159627 110.774183,81.1749068 111.15637,81.3913043 C112.150054,80.947205 112.525553,81.1854037 112.6125,80.1849689 L111.892079,79.9378882 L111.401925,79.9378882 L111.15637,79.9378882 C110.589778,79.9378882 110.41875,80.0824224 110.41875,80.5604348" id="Fill-3344"></path>
                    <path d="M16.81875,99.3487929 C17.8704241,100.966454 18.28125,99.9985432 19.1561384,101.2309 L19.6583705,100.941663 C20.1827009,101.74946 19.983817,101.710207 21.20625,101.73913 C20.5834821,100.781549 19.3309152,100.170019 18.6117187,99.1483929 L17.1140625,98.8322981 L16.81875,99.3487929 Z" id="Fill-3350"></path>
                    <path d="M91.6784533,103.076869 L91.40625,103.825223 C91.5551556,104.076448 91.8026994,104.645963 92.1365516,104.645963 C92.9266051,104.645963 93.8020185,104.139254 94.33125,103.825223 C93.6199173,102.318936 94.1377675,103.141805 92.8715953,102.465839 L91.6784533,103.076869 Z" id="Fill-3352"></path>
                    <path d="M24.8625,103.673705 L25.6459821,103.673705 C25.7313421,104.616324 25.4884728,104.406228 26.4294643,104.636959 C26.4264157,104.642586 26.1683036,105.088103 26.1683036,105.12093 C26.1683036,105.663992 26.0677008,105.008379 26.4294643,105.602088 L25.7760544,105.724019 L26.7038355,106.586915 L27.2139626,106.32617 L27.2241245,106.826087 L28.009639,106.305536 L28.51875,106.567218 C28.0675618,104.7814 26.4640147,104.453124 26.1540769,103.482367 L24.8625,103.192547 L24.8625,103.673705 Z" id="Fill-3354"></path>
                    <path d="M36.3408361,110.590265 L35.83125,111.186335 L37.0004067,111.069836 L38.025,111.092457 L37.2253835,110.030389 L37.2253835,110.612886 L36.5296721,110.612886 C36.9570377,109.175305 36.0544198,110.854934 36.9940821,109.739706 L36.0788149,109.732919 L36.3408361,110.590265 Z" id="Fill-3356"></path>
                    <path d="M29.1650617,108.081377 L30.0925484,107.854242 L30.5914386,108.853636 L31.3578354,108.6107 L31.8518441,109.882655 L30.0954773,109.882655 L30.0954773,110.136454 C30.6285381,110.136454 33.5135097,111.655295 34.6118491,111.913043 C34.6157543,111.908106 34.8617824,111.439023 34.8617824,111.404459 C34.8617824,110.908712 34.3960864,111.460749 34.3619159,109.882655 L35.1,109.887593 L34.8012517,109.252603 L33.3387517,108.312462 L32.6045728,108.612675 C32.2911799,107.737712 32.359521,108.26506 31.5882427,107.57773 L31.0991155,107.85128 C30.9448598,107.638958 28.9834696,106.342314 28.51875,106.099379 L29.1650617,108.081377 Z M33.3348465,109.896481 L34.11003,109.882655 L33.6296896,110.376427 L33.3348465,109.896481 Z" id="Fill-3358"></path>
                    <path d="M87.2006217,107.796523 C87.0531312,107.255586 87.1414314,107.069933 86.4524958,107.069933 L85.9537452,107.069933 L85.6577939,107.77956 L84.9562439,107.796523 L84.9562439,107.31213 L82.883615,108.386465 L82.4760756,108.260184 C81.6435308,108.971696 80.4500225,109.458917 78.9712367,109.490958 C78.3919485,110.257129 68.9525596,113.124852 67.0012222,113.124852 L66.5024716,113.124852 L65.512733,113.621497 L64.5171725,113.336892 L62.7725157,113.670501 C62.2223375,113.694061 62.4028192,113.579089 62.0146864,113.366106 L61.0113632,113.837306 C60.6212898,113.666732 60.6581624,113.609245 60.0187137,113.609245 L59.2715581,113.609245 C58.6883886,113.609245 58.6262874,113.680868 58.2740569,113.8505 L57.525931,113.770396 C57.1310059,113.666732 57.1678785,113.609245 56.5294001,113.609245 L54.532457,113.609245 L51.7912694,113.362337 C51.3332727,113.314274 51.3138661,113.459404 51.0421731,113.609245 C50.6511294,113.322756 51.5506271,113.366106 50.5424522,113.366106 C49.4857607,113.366106 47.7857392,112.937314 46.7115818,112.729044 C45.674297,112.528313 43.5347151,111.912926 43.0611931,111.912926 L42.8127881,111.912926 C41.058428,111.912926 40.2491712,111.223089 38.5743783,111.187278 C38.9693034,112.622553 38.8732406,111.194817 39.3215339,112.398262 L37.8165491,111.934601 L37.3391458,112.174913 L36.5881089,111.651881 L36.5793759,112.155122 L35.83125,112.155122 L35.83125,112.881713 C38.5326541,113.100349 43.0204392,115.545877 46.0546671,115.545877 C46.9793934,115.545877 46.2516445,115.917183 47.3015436,116.030271 L52.7810079,116.576862 C53.7542508,116.618328 53.2487079,116.390267 54.0346768,116.756861 C54.8963315,116.57969 55.3698535,116.43833 56.2790545,117 C56.9359692,116.682411 56.0733441,116.756861 57.0271804,116.756861 L64.0096889,116.756861 C65.5321396,116.756861 65.9144504,116.27341 67.2505975,116.27341 L67.5009431,116.27341 C71.9499149,116.27341 88.2796308,109.51923 89.94375,107.31213 C88.4542905,107.430872 89.5158336,107.695686 88.1971525,108.037778 C88.4135366,107.255586 88.9326641,106.368787 89.6943747,106.100203 C89.5963712,105.742092 89.6497394,105.372671 89.1956241,105.372671 C89.0888876,105.372671 87.7081053,106.210464 87.4509673,106.3424 L87.9700949,108.031181 L87.2006217,107.796523 Z M87.2006217,107.796523 L86.9201957,108.754944 L85.8780593,108.131075 L86.7067227,107.809717 L87.2006217,107.796523 Z M83.2106168,109.006565 L83.7093674,109.006565 L83.7093674,109.490958 L83.9965857,109.019758 L84.5069803,109.441953 L82.4886899,110.281632 L82.4624909,109.490958 L83.2106168,109.490958 L83.2106168,109.006565 Z M79.7193626,110.945081 C80.4306159,110.015875 79.4651356,110.570948 80.4674885,110.217548 C79.8998443,111.2589 80.5344414,110.658591 79.7193626,110.945081 Z M81.1088779,110.766967 L80.6285636,110.029068 L81.2156144,109.975352 L81.1088779,110.766967 Z M75.2306071,111.912926 L75.2306071,111.428532 L75.7788447,111.863921 L75.2306071,111.912926 Z M77.9067826,111.775335 L78.6665525,112.239938 L77.9067826,111.775335 Z M40.8177857,112.398262 L40.8177857,111.912926 L41.3660233,112.349257 L40.8177857,112.398262 Z M76.1039059,113.003282 L75.3548096,112.27575 L75.534321,112.10329 L76.1039059,113.003282 Z M39.8202845,112.881713 L40.3190351,112.881713 L40.3190351,112.155122 L39.8202845,112.155122 L39.8202845,112.881713 Z M70.7418517,113.609245 L71.242543,113.609245 L71.242543,113.124852 L70.7418517,113.124852 L70.7418517,113.609245 Z M48.4979628,113.898562 L49.0471707,113.8505 L48.9957431,114.383898 L48.4979628,113.898562 Z M62.0146864,114.092697 L62.0146864,114.335836 L61.0171852,114.57709 L61.0171852,114.092697 L62.0146864,114.092697 Z M65.0071901,114.092697 L65.5059407,114.092697 L65.0071901,114.57709 L65.0071901,114.092697 Z M53.5359262,114.819287 L53.0507602,114.355626 L53.5223415,114.071021 L53.5359262,114.819287 Z M63.2479783,114.823999 L62.4629798,114.528085 L62.9607601,114.044634 L63.2479783,114.823999 Z M56.5294001,114.819287 L55.9792219,114.771224 L56.4779725,114.286831 L56.5294001,114.819287 Z M59.0221828,114.819287 L59.0221828,114.335836 L59.5704203,114.771224 L59.0221828,114.819287 Z M57.774336,115.788074 L57.774336,115.30368 L58.3225735,115.740954 L57.774336,115.788074 Z" id="Fill-3360"></path>
                    <path d="M51.40997,51.8556688 C48.7846345,52.7466313 48.374547,52.5848991 47.0618792,53.7993259 C46.6508222,54.0424027 46.1592989,53.8806705 45.7492114,54.2041349 C45.4205597,54.3658671 41.0724688,56.7956778 41.0724688,56.8770224 L38.7748154,58.6589473 C38.4471332,58.9824117 37.7898298,59.9547188 36.5595673,61.1691456 C34.9192173,64.3281866 36.9696548,60.5212599 33.9342318,66.9197295 C33.6055801,68.3772331 32.9502156,69.592617 32.621564,71.2128098 C32.621564,72.0224277 32.2929123,75.5862776 31.801389,76.0714742 C32.0466659,76.1528187 31.801389,76.5576277 32.0466659,76.8007045 C31.3088962,78.5022418 31.3913015,80.6066742 31.3913015,82.3082116 C31.3913015,83.2795617 31.3913015,86.5199472 30.8164034,87.4912973 C30.8164034,87.7343741 30.8978392,88.7066812 31.0626498,88.8684133 C31.0626498,90.0828402 31.3088962,92.0264974 31.3913015,93.484958 L31.8837942,94.862074 C32.2929123,95.0238062 33.9342318,95.5913043 34.5905657,96.3195776 C34.7544068,96.3195776 35.0830584,96.1568884 35.2468995,96.1568884 C37.8722351,96.1568884 39.5959599,92.4322633 43.6978044,85.7907169 C44.4365436,84.1714811 45.091908,83.4422508 46.6508222,79.7166687 C47.554372,77.4485902 48.0468647,73.4799313 48.4569522,72.9937777 C48.9484756,71.7793509 49.0308809,71.7793509 49.0308809,71.7793509 L50.5073898,63.7616455 C50.8360414,63.1941474 50.9174773,59.711642 51.1637237,59.1451009 C51.40997,58.5776027 51.1637237,57.8483724 51.1637237,57.1200991 C51.1637237,56.7152902 51.2461289,56.2291366 51.4923753,55.7429831 C52.0663039,54.6099008 51.4923753,53.2327848 51.40997,51.8556688 M71.4296081,83.5226384 C70.1169403,83.6853276 68.2293744,84.6566777 66.5890244,84.7380223 L65.4401977,85.385908 C64.8662691,85.7103293 64.12753,86.6003348 62.4038052,87.3295651 C60.9272963,87.3295651 59.6146285,87.9774509 57.9742785,88.0587954 C56.8254518,88.0587954 55.512784,87.3295651 54.6102037,86.9247562 C53.6252181,86.3572581 52.3949556,85.5476402 52.3949556,84.3332133 C52.3949556,82.9560973 54.3639573,82.9560973 54.8564501,82.7130205 C55.2665376,82.6326329 58.7130177,81.1741723 61.0097016,81.1741723 C64.0451247,81.1741723 64.6200227,80.6066742 65.522603,79.7970563 C67.4091994,78.0151313 67.4916047,76.9633936 67.7368816,76.9633936 C68.6404314,75.0187795 68.9681136,73.5612759 69.2957958,72.751658 C69.6244475,70.564924 69.8706939,68.5399223 69.8706939,65.8670348 C69.8706939,64.7329956 69.7068528,63.1128028 69.21436,61.7366437 C68.8042725,60.6839491 68.2293744,58.9824117 67.4091994,57.4435635 C67.3267941,57.2818313 65.9326905,54.2041349 63.3897602,52.2604777 L63.3897602,52.1791331 C62.8972675,51.7743242 63.2249497,51.6939366 62.5686158,51.2077831 C60.844891,50.1550884 59.1231052,50.235476 56.9078571,50.235476 C56.4153643,50.235476 56.2505537,50.8833617 56.2505537,51.4508598 C56.2505537,52.5848991 56.2505537,52.989708 56.4153643,54.0424027 C56.4968001,55.2568296 56.0867126,56.7152902 56.2505537,57.929717 L55.8404662,60.4408723 C55.5942198,63.0324152 54.4463626,66.5149205 53.7076234,69.0260758 L51.2461289,76.9633936 C51.2461289,77.0437812 50.3435486,79.4735919 50.1797075,79.7166687 C50.0158664,82.3895562 47.4719667,85.4662956 46.4055453,87.7343741 C45.6668061,88.7880258 45.3391239,89.4349545 44.6818205,90.0024526 C43.6978044,91.3795686 42.631383,94.2945759 41.0724688,95.4286151 C39.6773957,98.2632348 37.2159012,98.5063115 35.4931459,99.5590062 L34.6729709,99.5590062 C34.1804781,99.4786186 33.1140568,99.4786186 32.7039693,99.3159294 C29.2574892,98.020158 28.51875,93.4036134 28.51875,87.4099527 C28.51875,86.6816794 28.6011553,86.1151383 28.6011553,85.0614866 C28.6835606,84.0901365 29.0936481,82.9560973 29.0936481,81.6603259 C29.0936481,81.2555169 29.0112428,80.850708 28.9288375,80.445899 C28.9288375,77.7730115 29.2574892,75.1001241 29.6675767,72.345892 C29.6675767,71.6989633 30.1600695,70.0787705 30.570157,68.2968455 C30.570157,67.405883 31.3913015,65.7856902 31.9652301,64.246842 C34.4267245,59.8733742 35.2468995,58.9824117 36.888219,57.1200991 C39.2673082,54.5285562 40.6623813,53.9610581 43.1238758,52.3418223 C44.6818205,51.5322044 47.7996489,50.0737438 48.5383881,49.5875903 C49.2771272,49.5062457 50.1797075,49.0210491 51.4923753,48.453551 L50.9998825,42.6225795 C50.589795,42.2177706 50.9998825,41.8129616 51.1637237,41.4081527 C51.3285342,41.2454635 50.3435486,40.2741134 50.6722003,39.5448831 C50.1797075,36.5485313 50.5073898,35.4958366 49.6048095,32.4994848 C46.0778631,33.7139117 46.9794739,33.1464135 42.5489777,35.3331475 L42.3027313,36.4671867 C44.5189489,36.0623778 45.4205597,35.6575688 47.7182131,35.6575688 C47.9644595,35.6575688 48.2921417,35.9006456 48.374547,36.1437224 C48.2107059,36.7102635 46.9794739,36.8719957 46.4055453,36.8719957 C44.9290364,37.196417 44.271733,37.8443027 42.9600347,38.4108439 C42.0564849,38.8969974 39.6773957,39.2204618 38.8572207,39.7066153 C37.7898298,40.354501 37.0520601,42.3795028 31.9652301,42.8656563 C30.6525623,43.0273885 30.2424748,42.5421919 29.5861409,41.8933492 C29.5861409,39.9496921 32.7854051,37.6816136 35.8208282,36.2241099 C37.2159012,34.6852617 40.579976,33.2277581 40.9076582,33.1464135 C42.2212955,32.661217 42.9600347,32.0937189 44.0254866,31.6075653 C44.4365436,31.3654455 49.0308809,29.9883295 49.3585631,28.6925581 L49.2771272,27.0723653 C49.6048095,25.7765939 49.8510559,25.2904403 51.821027,25.0483205 C52.9688842,25.2100527 52.5587967,25.7765939 53.3799412,26.4244796 L54.0353056,27.8015956 C55.5942198,27.6398634 58.8758893,26.0196706 62.6510211,25.3717849 C63.9636888,25.1287081 69.7068528,22.8615866 76.1877865,22.8615866 C76.1877865,22.9419742 83.1621824,22.4558207 83.1621824,22.5371653 C84.147168,22.8615866 87.01875,23.5094723 87.01875,24.562167 C87.01875,24.8856314 86.7725036,25.7765939 85.4598358,26.1010152 C84.4748502,25.7765939 83.6546752,26.0196706 82.5058485,26.0196706 C78.7316863,25.5335171 77.9115113,26.6675563 74.7112776,26.2627474 C74.137349,26.4244796 73.317174,26.7489009 69.8706939,27.2350545 C64.12753,27.2350545 58.9582946,29.4208314 54.4463626,30.4735261 C54.6916395,31.4467901 54.4463626,32.1750634 55.0202912,32.9042938 C55.0202912,32.9042938 55.0202912,35.2527599 55.7590304,38.2491117 C55.5942198,38.4921885 55.5942198,38.8156528 55.5942198,39.3018064 C55.6766251,39.6262277 55.5942198,41.6512295 56.2505537,44.0800832 C56.0867126,44.7289259 56.0867126,45.295467 56.0867126,45.7816205 C56.1691179,46.8343152 56.1691179,46.9147028 56.2505537,46.9960474 C56.9078571,46.9147028 57.9742785,46.9147028 58.1381196,46.7529706 C58.7944535,47.2391242 59.8608749,47.3204688 60.5996141,47.3204688 C62.4038052,47.3204688 67.4916047,50.0737438 67.4916047,51.4508598 C69.7882886,52.7466313 72.1683473,58.1727938 72.7422759,58.9824117 L72.7422759,59.0637563 C73.4810151,61.1691456 74.4660007,63.3568365 74.4660007,65.3004937 C74.4660007,66.5962651 74.2187848,67.6489598 74.4660007,68.9447312 C74.0549437,69.9160813 74.3011901,71.2931974 73.7272615,72.1841598 C72.9885223,75.1001241 72.1683473,76.0714742 71.4296081,78.0151313 C71.0195206,78.3395527 70.6094331,78.8257062 70.3631867,79.7970563 C70.3631867,80.2018652 70.5270278,80.5262866 70.9371153,80.6066742 C70.9371153,80.445899 73.8086973,79.9597455 74.2187848,79.3118597 C74.6298418,79.2305152 74.957524,79.3922473 75.5314526,79.3118597 C76.7626846,78.8257062 76.9265257,78.663017 77.1727721,78.663017" id="Fill-3362"></path>
                    <path d="M84.09375,106.133504 L84.143475,106.099379 C84.0957,106.112054 84.09375,106.133504 84.09375,106.133504" id="Fill-3364"></path>
                    <path d="M79.130025,109.006211 L78.975,109.017911 C79.046175,109.012061 79.083225,109.010111 79.130025,109.006211" id="Fill-3366"></path>
                    <path d="M40.95,109.030586 C40.99485,109.022786 41.0358,109.015961 41.089425,109.006211 C41.028975,109.012061 40.98315,109.019861 40.95,109.030586" id="Fill-3368"></path>
                    <path d="M89.2125,77.0310559 C89.2125,77.0310559 89.229075,77.0593309 89.24175,77.0807809 C89.23005,77.0612809 89.2125,77.0310559 89.2125,77.0310559" id="Fill-3370"></path>
                    <path d="M89.94375,77.0310559 L89.944725,77.0593309 L89.94375,77.0310559 Z" id="Fill-3372"></path>
                    <polygon id="Fill-3374" points="89.2437 77.0408059 89.234925 77.0310559 89.2125 77.0388559"></polygon>
                    <path d="M89.9457,77.757764 L89.94375,77.757764 L89.9457,77.757764 Z" id="Fill-3376"></path>
                    <path d="M89.94375,77.7928817 C89.954475,77.7704567 89.968125,77.7577817 89.968125,77.7577817 C89.968125,77.7577817 89.9574,77.7558317 89.94375,77.7928817" id="Fill-3378"></path>
                    <path d="M87.75,76.3043478 L87.828975,76.3404228 C87.799725,76.3189728 87.75,76.3043478 87.75,76.3043478" id="Fill-3380"></path>
                    <path d="M87.75,77.0310559 L87.768525,77.0359309 L87.75,77.0310559 Z" id="Fill-3382"></path>
                    <path d="M88.5095979,77.0593309 L88.4813229,77.0310559 C88.4813229,77.0310559 88.4783979,77.0437309 88.5095979,77.0593309" id="Fill-3384"></path>
                    <path d="M88.48125,77.0310559 L88.497825,77.0466559 L88.48125,77.0310559 Z" id="Fill-3386"></path>
                    <path d="M87.809475,77.0310559 C87.809475,77.0310559 87.7734,77.0846809 87.75,77.1344059 L87.809475,77.0310559 Z" id="Fill-3388"></path>
                    <path d="M89.97105,77.761664 L89.94375,77.757764 L89.97105,77.761664 Z" id="Fill-3390"></path>
                    <path d="M87.754875,77.777264 L87.75,77.757764 L87.754875,77.777264 Z" id="Fill-3392"></path>
                    <path d="M87.7851023,76.3940478 C87.7402523,76.3209228 87.8387273,76.3608978 87.7821773,76.3043478 C87.7763273,76.3287228 87.7110023,76.3072728 87.7851023,76.3940478" id="Fill-3394"></path>
                    <path d="M92.8707,79.2111801 L92.86875,79.2297051 L92.8707,79.2111801 Z" id="Fill-3396"></path>
                    <polygon id="Fill-3398" points="87.75 77.777264 87.75585 77.798714 87.7617 77.757764"></polygon>
                    <polygon id="Fill-3400" points="90.675 77.0447059 90.675975 77.0447059 90.681825 77.0310559"></polygon>
                    <path d="M90.675,77.0534809 L90.697425,77.0310559 L90.675,77.0534809 Z" id="Fill-3402"></path>
                    <path d="M87.784125,77.0310559 L87.75,77.0895559 C87.75,77.0895559 87.77145,77.0583559 87.784125,77.0310559" id="Fill-3404"></path>
                    <path d="M89.94375,77.0398309 L89.9535,77.0310559 L89.94375,77.0398309 Z" id="Fill-3406"></path>
                    <path d="M89.94375,77.0476309 L89.950575,77.0310559 L89.94375,77.0476309 Z" id="Fill-3408"></path>
                    <polygon id="Fill-3410" points="91.40625 75.5786148 91.407225 75.5786148 91.407225 75.5776398"></polygon>
                    <path d="M91.40625,75.6294819 C91.4082,75.6538569 91.46085,75.6197319 91.508625,75.5778069 C91.508625,75.5778069 91.473525,75.5719569 91.40625,75.6294819" id="Fill-3412"></path>
                    <path d="M91.40625,75.5893398 L91.4082,75.5776398 L91.40625,75.5893398 Z" id="Fill-3414"></path>
                    <polygon id="Fill-3416" points="90.677925 74.8509317 90.675 74.8597067 90.6789 74.8519067"></polygon>
                    <path d="M90.6789,75.5776398 L90.675,75.6156648 L90.6789,75.5776398 Z" id="Fill-3418"></path>
                    <polygon id="Fill-3420" points="92.140425 76.3043478 92.1375 76.3062978 92.13945 76.3062978"></polygon>
                    <path d="M92.865643,77.5354553 C92.8107487,77.3015658 92.6085063,77.0483388 92.6008018,76.8383907 C92.424562,76.8328657 92.4024117,76.7748538 92.3475173,76.7242084 L92.5603533,76.6551465 L92.4756042,76.6229176 C92.5333877,76.5805596 92.5285724,76.6514632 92.5969496,76.5879262 L92.4582691,76.6091052 C92.5343508,76.5814805 92.456343,76.4571691 92.6431764,76.4958437 L92.5593903,76.2840539 C92.5459075,76.2352502 92.3773721,76.3282536 92.4043378,76.2582708 C92.4592322,76.2223587 92.4544169,76.2582708 92.5256832,76.2232795 C92.5969496,75.9985981 92.0508951,76.236171 92.0711194,76.0704225 L92.1038634,76.0667392 C92.0383754,76.0741058 92.0200772,76.0317478 91.9921485,76.0464811 C91.8072412,76.1726341 92.1115679,76.0087272 92.0200772,76.110018 C91.852505,76.1974964 91.902584,76.1146221 91.7793125,76.1882881 C91.8216871,76.1275137 91.7196028,76.1661883 91.6955264,76.1505343 C91.770645,76.0510852 91.6647085,76.0409561 91.7658297,75.9313779 C91.7013047,75.9451903 91.5337325,76.0299062 91.4990623,75.9985981 C91.5953682,75.8853366 91.6175186,75.9230905 91.6310014,75.8521869 L91.5395108,75.9120406 C91.5279541,75.8724451 91.5558828,75.8577119 91.5972943,75.8273247 C91.5732179,75.7914125 91.4576508,75.8936241 91.4788381,75.809829 L91.5799593,75.7656294 C91.5221757,75.7610253 91.5241019,75.7380046 91.4913579,75.6910425 C91.5385477,75.6505262 91.5520306,75.6698636 91.5510675,75.693805 C91.6502626,75.5658103 91.4595769,75.7011716 91.4624661,75.678151 C91.4306851,75.7131423 91.4412788,75.7545795 91.3478621,75.8116706 C91.3440098,75.7794418 91.200514,75.8715243 91.2804479,75.7711543 L91.37868,75.7214298 C91.2756326,75.7389254 91.2582976,75.7932541 91.2438517,75.7195881 C91.2438517,75.7195881 91.2698543,75.6965675 91.2862263,75.6818343 C91.1600656,75.7499753 91.2101446,75.6275056 91.166807,75.5805435 L91.1956987,75.5658103 C91.151398,75.5768602 91.0724272,75.6275056 91.0724272,75.6275056 C91.0570182,75.6947258 91.0290895,75.7131423 90.9626385,75.7923333 C91.0464246,75.6311889 90.7796573,75.9092781 90.7979554,75.7904917 C90.8364777,75.7426087 90.8961874,75.6947258 90.8692217,75.7564211 C91.0030869,75.6302681 91.1051712,75.5133233 91.199551,75.4783319 C91.1475458,75.4912235 91.1051712,75.4903027 91.1591025,75.435974 L91.0444985,75.5602854 L91.0136806,75.5289773 C90.9414512,75.6090891 90.9289314,75.6864384 90.856702,75.7186673 C90.791214,75.7380046 90.9462665,75.5685728 90.8942613,75.6247431 C90.8046968,75.6459221 90.7652114,75.7573419 90.7536547,75.6827551 L90.7863987,75.6717052 C90.7931401,75.5943559 90.6891297,75.6459221 90.791214,75.4700445 C90.8210688,75.4350531 90.8557389,75.3853286 90.8595912,75.4083492 L90.8422561,75.4332115 C90.9655276,75.3365248 90.7863987,75.446103 90.9000396,75.3006127 C90.8422561,75.393616 90.8037337,75.341129 90.7892878,75.3098209 L90.7324674,75.4203199 C90.464737,75.6956467 90.8644065,75.2103718 90.7546177,75.2085302 C90.6583118,75.2545714 90.75847,75.2481256 90.6823883,75.3079793 C90.6573488,75.2720671 90.693945,75.167093 90.6140111,75.1901136 C90.6207525,75.1385474 90.6169003,75.0639606 90.6717947,74.9368867 C90.6053436,74.9414909 90.7026125,74.9571449 90.513853,74.882558 C90.513853,74.882558 90.4888134,74.872429 90.4608847,74.9341243 C90.4310299,75.0446233 90.6968342,74.8632207 90.6294201,75.0363358 L90.5543015,75.1505182 C90.5128899,75.1219726 90.3260565,75.1311808 90.3819139,75.098952 L90.3549482,75.1845887 C90.3010169,75.2205009 90.2451595,75.3438915 90.2220461,75.2932461 C90.2586423,75.1753804 90.2913863,75.1974802 90.2913863,75.1974802 C90.3010169,75.0971103 90.269236,75.182747 90.2461226,75.1321017 C90.2807927,75.0298901 90.269236,75.1468349 90.3087214,75.0483066 L90.2432334,75.0639606 L90.2499748,75.0437024 C90.1796715,75.2112926 90.1854499,75.0105527 90.1122574,75.0492274 C89.9774291,75.0188402 89.9071258,75.2527298 89.8310441,75.3862494 C89.8243027,75.3374457 89.8262289,75.2914044 89.8387486,75.2472048 C89.8512684,75.3291582 89.8551206,75.2656213 89.8714926,75.2214217 C89.8358594,75.2352341 89.8194874,75.0381775 89.8483792,74.9681948 C89.7838543,75.014236 89.8570467,75.0639606 89.8156352,75.1164476 L89.7405166,75.0971103 C89.7414797,75.1901136 89.76363,75.2122135 89.7212554,75.2785129 C89.6885114,75.3015335 89.6750286,75.2821962 89.6355432,75.2729879 C89.6432476,75.2287883 89.6278387,75.1330225 89.6605827,75.1403891 C89.6413215,75.1044769 89.6076145,75.0971103 89.5941316,75.1864303 C89.6345801,75.2702254 89.5199761,75.2656213 89.550794,75.4083492 L89.5093824,75.3254749 C89.5093824,75.3254749 89.5199761,75.2665421 89.535385,75.2840378 C89.5228653,75.1449932 89.485306,75.3374457 89.485306,75.3374457 C89.4708601,75.3107417 89.4304116,75.2996918 89.4246332,75.246284 C89.4130765,75.2849586 89.3784064,75.2554922 89.3668497,75.1845887 C89.3475885,75.2131343 89.371665,75.2757504 89.3687758,75.3208708 L89.3003986,75.314425 C89.2888419,75.2379966 89.2609132,75.0252859 89.2695808,74.9948987 C89.2474304,75.0694856 89.2830636,75.2223425 89.2426151,75.2205009 C89.2483935,75.0694856 89.1723118,75.1118435 89.1848316,74.9313618 C89.1453461,74.8254669 89.0683014,74.8402001 89.0345944,74.8843997 C89.0307421,75.0050278 89.0904518,74.9442533 89.1077868,75.0658023 C89.0047395,75.1228934 89.0740798,75.4571529 88.9951089,75.4129533 L89.0201485,75.4424197 C88.9951089,75.5179274 88.996072,75.5022734 88.9989612,75.6072474 C88.9748847,75.4589946 88.8448717,75.2232634 88.7793837,75.2766712 C88.7976818,75.3512581 88.8622068,75.4028243 88.8862833,75.5216107 L88.8506501,75.5566021 L88.8400564,75.5004317 C88.8198322,75.5630478 88.7013759,75.3374457 88.750492,75.5087192 L88.6301096,75.314425 L88.6811517,75.3972993 C88.7013759,75.4700445 88.6657428,75.5050359 88.6676689,75.5354231 C88.6561122,75.6275056 88.6175898,75.5750186 88.5530649,75.4967484 C88.5867719,75.5510771 88.6618905,75.6735469 88.6397402,75.7085382 C88.5376559,75.4838569 88.5318776,75.6551304 88.4779463,75.5400272 C88.4779463,75.5400272 88.4047538,75.4921443 88.4500175,75.583306 L88.3816404,75.446103 C88.4769832,75.6376347 88.4230519,75.6505262 88.4066799,75.7039341 C88.2699255,75.4470239 88.3797142,75.7444504 88.2265879,75.5262148 C88.3219307,75.69933 88.1996222,75.6302681 88.2853345,75.7748376 C88.2641472,75.7978583 88.163989,75.6431596 88.1206514,75.5943559 L88.1495431,75.6643386 C88.0830921,75.5971184 88.0204932,75.6210598 87.9492269,75.5925142 L88.0262716,75.751817 L87.9665619,75.6965675 C87.9896753,75.7343213 87.9819709,75.7711543 88.0378283,75.8125915 L88.0156779,75.8144331 C88.1360603,75.9654484 88.0281977,75.8687618 88.0532372,75.9553194 C88.0272346,75.9369029 87.9993059,75.9000698 87.9877492,75.8761284 C87.9877492,75.8761284 87.9155198,75.8061457 87.8644777,75.7637877 C87.9049262,75.794175 88.0426436,76.0639767 88.1360603,76.0998889 C88.1890286,76.1569801 88.2082897,76.2159129 88.1745827,76.199338 L88.0503481,76.0777891 L88.1601368,76.2232795 C88.1591737,76.25735 88.0753876,76.1827632 88.0464958,76.1818424 C88.0464958,76.1818424 87.8519579,75.9101989 87.8086203,75.9525569 C87.8172878,75.9157239 87.7623934,75.8356121 87.7517998,75.7978583 C87.7517998,75.7978583 87.7200188,75.794175 87.6863118,75.7269547 C87.6824595,75.7996999 87.7460214,75.8153539 87.722908,75.8632368 C87.6169715,75.751817 87.5697816,75.7232714 87.4965891,75.7195881 L87.6034887,75.7757585 L87.6294913,75.809829 C87.6506786,75.8125915 87.6699398,75.8282455 87.7142405,75.8687618 C87.7142405,75.8687618 87.8105464,76.0418769 87.7373539,75.9820233 C87.9444116,76.1173846 87.8172878,76.1661883 87.9463377,76.2444585 C87.9761925,76.278529 87.9636728,76.3043121 87.902037,76.2545875 C87.8404012,76.1505343 87.7498737,76.1579009 87.6718659,76.0833141 C87.6949793,76.1229095 87.7797285,76.1367219 87.8105464,76.189209 C87.803805,76.2122296 87.7190558,76.1615842 87.6718659,76.1394844 L87.6564569,76.1137013 L87.576523,76.0962056 C87.6323805,76.1486926 87.7026838,76.1542176 87.7113513,76.2039422 C87.6805334,76.189209 87.6911271,76.2389335 87.6429741,76.2002589 C87.5688186,76.1219887 87.4484362,76.0418769 87.4493992,76.0022814 C87.4397687,76.0289854 87.4022094,76.104493 87.5399268,76.1671091 L87.5168134,76.1864465 C87.5823014,76.2103879 87.706536,76.2463001 87.6892009,76.3015496 L87.6641614,76.2822123 L87.7373539,76.3816614 L87.6603092,76.3466701 C87.6930532,76.3696907 87.7094252,76.4037612 87.7094252,76.4037612 C87.6670506,76.3816614 87.6506786,76.3724532 87.5938581,76.3429868 C87.5745969,76.3807406 87.6439372,76.4212569 87.6786073,76.4507233 C87.6747551,76.4737439 87.642011,76.462694 87.5707447,76.404682 C87.5341484,76.4194152 87.5235548,76.4765064 87.4388056,76.4544066 C87.477328,76.526231 87.4725127,76.4636149 87.5514835,76.5372809 C87.2924206,76.4332276 87.3810221,76.6109469 87.3877635,76.6873754 C87.6160085,76.7665663 87.4041355,76.7159209 87.6015626,76.8116868 C87.5380007,76.768408 87.4022094,76.7987952 87.3646501,76.7186834 L87.3723545,76.7619622 C87.2375263,76.7380208 87.3068665,76.6661964 87.1219592,76.6348883 C87.1094394,76.6836921 87.3424997,76.8006369 87.2423416,76.8181325 C87.086326,76.7463082 87.28279,76.8752237 87.1084764,76.8033993 C87.053582,76.7730121 87.0689909,76.7444665 87.0689909,76.7444665 L87.0343208,76.7426249 C86.9524608,76.8282616 87.2153759,76.8356282 87.3116818,76.9175817 C87.315534,76.9774353 87.168186,76.9240274 87.0901782,76.9056109 C87.0545451,76.9065318 87.0709171,76.9442856 87.1094394,76.9700687 C87.0198749,76.9074526 87.233674,76.9323149 87.3328691,76.9774353 C87.1364051,76.9507314 87.2924206,77.0557054 87.363687,77.084251 C87.5861536,77.0612304 87.3896896,77.0336056 87.6227499,77.0290015 C87.5659294,77.0041392 87.3983571,76.9544147 87.4802171,76.9359982 C87.5553357,76.9866435 87.5736339,76.9636229 87.6025256,76.9663854 C87.5042936,76.9424439 87.5717077,76.9267899 87.5360746,76.9019276 C87.6169715,76.9194233 87.7469845,76.9986143 87.7989897,76.9792769 L87.5803753,76.8917986 C87.6198607,76.8899569 87.73928,76.9571771 87.6997946,76.9092942 C87.8086203,76.9673062 87.8808497,76.973752 87.9001109,77.0207141 C88.1071685,77.052943 87.8259553,76.9231066 87.7652826,76.8503614 L87.8182508,76.8825903 C87.7652826,76.8503614 87.7672087,76.8227367 87.7672087,76.8227367 C87.8269184,76.8227367 87.8558101,76.884432 87.9174459,76.9046901 L87.9280396,76.8687779 L87.9434485,76.8752237 C87.918409,76.8522031 87.9039631,76.8337866 87.9588575,76.8568072 C88.0233824,76.8964027 88.0898335,76.9378398 88.1428017,76.9700687 L88.0137518,76.8669363 C88.0802029,76.9046901 88.147617,76.9037693 88.1851763,76.9507314 L88.1822871,76.8936402 L88.3228938,76.968227 C88.3036326,76.9452064 88.2766669,76.9286316 88.2535535,76.9304732 C88.2911128,76.9387606 88.0561264,76.7232875 88.3151893,76.8964027 C88.228514,76.7969536 88.2814822,76.8144492 88.245849,76.7306541 C88.3421549,76.8429948 88.4182366,76.8098451 88.4500175,76.8770654 C88.5174317,76.9037693 88.3835665,76.7978744 88.3739359,76.7674872 C88.4365347,76.7969536 88.5521018,76.900086 88.5896611,76.9461272 L88.5434343,76.8890361 L88.5675107,76.9083734 L88.5097272,76.842074 C88.5858089,76.884432 88.6329988,76.9396815 88.6599644,76.9433648 L88.5569171,76.8503614 L88.6262573,76.8964027 C88.5752152,76.8568072 88.5617324,76.8153701 88.5617324,76.8153701 L88.5848458,76.836549 L88.5752152,76.8080035 C88.6272204,76.8752237 88.6069962,76.8190534 88.6753733,76.8917986 C88.6753733,76.8917986 88.685967,76.8871944 88.6830778,76.8540447 L88.6127745,76.7905078 C88.5771413,76.7131585 88.7138957,76.8890361 88.7370091,76.8807487 L88.6599644,76.8033993 C88.8111647,76.9166608 88.6339618,76.6910587 88.7331569,76.7619622 C88.7379722,76.7905078 88.8246475,76.8825903 88.8034602,76.8595697 C88.7928665,76.8153701 88.8371673,76.820895 88.7755315,76.704871 C88.8785788,76.8254991 88.9084336,76.8623321 88.9652541,76.9083734 C88.9652541,76.9083734 88.964291,76.8798278 88.9161381,76.8024785 C88.9614019,76.8439156 88.9363623,76.7573581 88.9989612,76.8522031 C88.9527343,76.7748538 89.0191854,76.8614113 88.9854783,76.7932703 L89.0114809,76.8319449 L88.9536974,76.7407832 C89.0991193,76.936919 88.9257687,76.599897 89.0519294,76.7711705 L89.06156,76.7987952 L89.0519294,76.7573581 C89.0731167,76.799716 89.0856365,76.8254991 89.1126021,76.8807487 L89.1626812,76.8816695 L89.1193435,76.8126076 C89.1193435,76.8126076 89.0865995,76.7011877 89.1251219,76.7564373 C89.1742379,76.9111359 89.142457,76.7555164 89.1944621,76.8687779 L89.2031297,76.9111359 C89.2031297,76.9111359 89.2098711,76.8964027 89.1665334,76.7978744 C89.1694226,76.7564373 89.2560979,76.9838811 89.2262431,76.8724612 L89.2146864,76.8706196 C89.1877207,76.8135284 89.1713487,76.7297333 89.1713487,76.7297333 L89.2012036,76.8015577 C89.2002405,76.7591997 89.2387629,76.805241 89.2310584,76.762883 C89.2483935,76.7923494 89.2705438,76.8650946 89.2763222,76.8927194 C89.2715069,76.7960327 89.2926942,76.9083734 89.290768,76.8116868 L89.3081031,76.8706196 L89.2975095,76.7987952 L89.3437363,76.921265 L89.3186968,76.8457573 C89.3186968,76.8457573 89.3196598,76.7905078 89.338921,76.8227367 L89.355293,76.9111359 C89.3678128,76.857728 89.4121135,77.0520221 89.4063351,76.9249483 L89.4140396,76.9838811 C89.4072982,76.8429948 89.452562,77.1413422 89.4419683,76.9700687 L89.4554511,77.0621512 L89.4544881,77.0041392 L89.469897,77.1247673 L89.452562,76.9461272 L89.4718231,77.0695178 L89.4679709,77.0115058 C89.5103455,77.2417121 89.4785646,77.068597 89.5093824,77.2407913 L89.4987888,77.0879343 C89.5161239,76.7711705 89.5498309,77.2638119 89.5642768,77.1220048 L89.551757,77.2426329 L89.5748705,77.1008259 C89.5623507,77.1965917 89.5613876,77.2039583 89.5536832,77.2656536 C89.5642768,77.200275 89.583538,77.0888551 89.5883533,77.0538638 C89.5777596,77.1348964 89.5777596,77.142263 89.5710182,77.184621 C89.567166,77.126609 89.5777596,77.0593887 89.5536832,77.121084 L89.5662029,77.0778052 C89.567166,77.0170308 89.5739074,77.0759636 89.6114667,77.0814885 C89.5922055,77.1339756 89.5710182,77.1487088 89.5710182,77.1487088 C89.5710182,77.1487088 89.5796857,77.200275 89.6076145,77.1487088 L89.5613876,77.2444746 C89.5758335,77.2720993 89.649026,77.19475 89.6124298,77.3126157 C89.6259126,77.2674952 89.6740655,77.1929084 89.6740655,77.1929084 C89.6451738,77.3798359 89.5979839,77.084251 89.6249495,77.2011958 C89.6037622,77.2407913 89.5989469,77.2509204 89.5989469,77.2509204 C89.5787227,77.2969616 89.617245,77.2177707 89.6451738,77.1671253 L89.6114667,77.2343455 L89.6692502,77.1459463 C89.5767966,77.3061699 89.6933267,77.1302923 89.6210973,77.2453954 C89.6210973,77.2453954 89.6673241,77.1772544 89.6788808,77.1588379 C89.6374693,77.2260581 89.7058465,77.1302923 89.6365062,77.2325039 L89.6278387,77.2435538 L89.6355432,77.237108 L89.5662029,77.3356363 C89.5825749,77.3144573 89.6538413,77.2177707 89.7077726,77.1431838 C89.6721394,77.1993542 89.7106618,77.1560754 89.6432476,77.2453954 L89.6249495,77.2674952 C89.6634719,77.2407913 89.4140396,77.5290096 89.551757,77.3743109 L89.5199761,77.4083815 L89.5170869,77.4139064 C89.5170869,77.4139064 89.4467836,77.4875724 89.4660448,77.4673143 L89.5527201,77.3825984 L89.5093824,77.4258771 C89.4910843,77.4461353 89.5363481,77.4157481 89.5363481,77.4157481 L89.5132347,77.4341646 C89.5902794,77.3798359 89.4679709,77.4756017 89.5238283,77.4369271 L89.502641,77.4525811 L89.5074563,77.4535019 L89.4573773,77.4884933 C89.5690921,77.4129856 89.3167706,77.589784 89.4092243,77.5253263 C89.4593034,77.4940182 89.5199761,77.4553436 89.5854641,77.4148272 C89.5854641,77.4148272 89.51805,77.4599477 89.4737493,77.4903349 C89.4737493,77.4903349 89.5633137,77.4415312 89.51805,77.4737601 L89.4621926,77.5041473 L89.5238283,77.4774434 L89.4978257,77.4912557 C89.616282,77.4369271 89.3321796,77.579655 89.5816119,77.4627102 C89.5363481,77.4857308 89.5710182,77.4682351 89.4593034,77.5262471 C89.5392373,77.4967807 89.5739074,77.4903349 89.6259126,77.4820475 C89.4304116,77.5547927 89.6393954,77.4802058 89.5286436,77.5244054 L89.6345801,77.4875724 C89.6586566,77.4995432 89.388037,77.5879424 89.4381161,77.5787341 L89.3283273,77.6035964 L89.4487097,77.5787341 C89.3976676,77.5934673 89.3514408,77.6072797 89.3514408,77.6072797 C89.4101874,77.6017548 89.5459787,77.5980715 89.5064933,77.6035964 L89.4910843,77.6035964 C89.5556093,77.6054381 89.5989469,77.6155671 89.5382742,77.6174088 C89.4910843,77.6146463 89.4583403,77.6118838 89.4284855,77.6100422 C89.5613876,77.6201713 89.4121135,77.6082005 89.4496728,77.610963 C89.4236702,77.6082005 89.5141977,77.616488 89.5141977,77.616488 C89.632654,77.6293795 89.4670078,77.6128047 89.4670078,77.6128047 L89.5546462,77.6247754 L89.5084194,77.6183296 L89.5662029,77.626617 C89.535385,77.6220129 89.453525,77.610963 89.4910843,77.6155671 C89.4910843,77.6155671 89.535385,77.6247754 89.6278387,77.6413502 C89.5825749,77.6330628 89.5459787,77.626617 89.5209391,77.6210921 L89.5633137,77.6303003 L89.5565723,77.6284587 C89.5970208,77.6376669 89.714514,77.6717375 89.6499891,77.6551626 C89.5286436,77.6201713 89.5796857,77.6358253 89.5796857,77.6358253 L89.5777596,77.6349045 C89.6413215,77.653321 89.6808069,77.6680542 89.6316909,77.6514793 L89.5960578,77.6404294 L89.6143559,77.6459544 C89.6143559,77.6459544 89.6153189,77.6459544 89.6403585,77.6560834 L89.632654,77.653321 L89.6470999,77.6597667 L89.6634719,77.6671333 L89.6682872,77.6698958 L89.6692502,77.6708166 L89.6711764,77.6717375 L89.6721394,77.6726583 L89.6731025,77.6735791 L89.6740655,77.6735791 L91.1273216,77.0750428 L91.1263585,77.0759636 C91.1244324,77.0078225 91.1533241,76.9056109 91.1629547,76.8439156 L91.0974667,77.0612304 C91.0493138,76.8015577 90.873074,76.9277107 90.8056599,76.7076335 C90.742098,76.7426249 90.6534965,76.8301033 90.6005283,76.7859037 L90.6149742,76.7591997 L90.5697104,76.6855337 L90.5880085,76.7960327 C90.5687473,76.8190534 90.5369664,76.8531239 90.5369664,76.8531239 C90.4936287,76.7463082 90.4339191,76.615551 90.3260565,76.7094752 C90.2124155,76.9507314 90.3462807,76.4774272 90.2509379,76.6505424 L90.2817558,76.5685889 C90.2076002,76.6404133 90.1681148,76.6781671 90.0775872,76.8144492 C90.1450014,76.5649056 90.040991,76.8116868 90.0775872,76.6809296 L90.0486955,76.7822204 C90.0515847,76.7168418 90.0294343,76.6882962 90.0515847,76.6164718 L89.9966903,76.7380208 L90.0198037,76.6330467 C89.9899489,76.6183135 89.9013475,76.689217 89.9369806,76.4737439 C89.8204505,76.6137094 89.7087357,76.5391225 89.6210973,76.4765064 C89.5864272,76.5584598 89.5556093,76.5593807 89.5315328,76.563064 L89.5382742,76.4332276 C89.5055302,76.4663773 89.4438944,76.6183135 89.4419683,76.5335976 L89.452562,76.5022895 C89.4236702,76.5225477 89.4169288,76.4516441 89.3678128,76.5612223 C89.3437363,76.5492516 89.3350688,76.4774272 89.371665,76.3632449 C89.3186968,76.5695097 89.3254382,76.3218078 89.3254382,76.3218078 C89.3254382,76.3218078 88.1495431,75.5280565 87.559188,76.5814805 C87.5245178,76.6809296 87.4792541,76.7407832 87.4599929,76.8641738 C87.4282119,76.8982443 87.461919,76.7150001 87.4330272,76.8162909 C87.4465101,76.8908777 87.3588717,77.0787261 87.3579086,77.2122457 L87.331906,77.2334247 C87.3107187,77.3052491 87.3790959,77.1560754 87.3415366,77.2877534 L87.3935418,77.0980634 C87.4022094,77.1302923 87.4012463,77.1717294 87.3916157,77.2380288 C87.4243597,77.1662045 87.4965891,76.9102151 87.5042936,77.0308432 L87.4917738,77.0400514 C87.5225917,77.0391306 87.4792541,77.1671253 87.477328,77.200275 L87.4715496,77.1965917 L87.4725127,77.2988033 C87.4696235,77.2297414 87.4205075,77.3706276 87.4205075,77.3706276 C87.4416948,77.4314021 87.4233967,77.3227447 87.4542145,77.3052491 C87.4542145,77.3052491 87.4436209,77.3991732 87.4282119,77.458106 L87.4580668,77.458106 C87.4359164,77.5465052 87.4407317,77.4488978 87.4301381,77.5428219 L87.4888847,77.4571852 C87.4416948,77.6827874 87.5543727,77.3577361 87.5197026,77.5732092 C87.4802171,77.6201713 87.5033305,77.6487168 87.4811802,77.7205412 L87.5485943,77.7223829 C87.5466682,77.7546117 87.527407,77.7785532 87.527407,77.7785532 C87.5235548,77.8430109 87.5659294,77.7315911 87.5659294,77.7315911 C87.5562988,77.7942072 87.6140823,77.7389577 87.576523,77.8881314 C87.5948212,77.9967888 87.6400849,77.7030455 87.6603092,77.7969697 C87.6429741,77.8881314 87.6227499,77.8107821 87.6179346,77.9083895 L87.6680136,77.8844481 C87.6535678,77.9277269 87.6237129,78.0290176 87.6131193,78.005997 C87.6969054,78.1505666 87.641048,78.6404455 87.7739501,78.5419172 C87.7623934,78.6533371 87.7460214,78.6119 87.7190558,78.6809618 C87.8278814,78.553888 87.7662457,78.9397137 87.8326967,78.9415554 L87.8558101,78.8531562 C87.8769974,79.1478202 88.0233824,79.006934 88.0956118,79.1441369 L88.0994641,79.0796791 C88.1331711,78.9968049 88.1582107,78.9931216 88.1842133,78.9572094 C88.1755457,79.0023298 88.1264297,79.1441369 88.163989,79.1137497 C88.1659151,79.0806 88.1610998,79.0446878 88.1755457,79.0023298 C88.2054006,79.2527943 88.4009015,79.2362194 88.5155056,79.3798681 C88.7225632,79.354085 88.8872463,79.5741623 89.0885257,79.5612707 C89.0586708,79.5621915 89.1241588,79.3457976 89.1328264,79.4010471 C89.1020085,79.785952 89.2503196,79.3614516 89.2493565,79.6284909 C89.3870739,79.533646 89.4063351,79.8771137 89.5777596,79.6155994 L89.5546462,79.7205735 C89.5575354,79.7721397 89.5979839,79.6929487 89.5979839,79.6929487 L89.5902794,79.7224151 C89.6182081,79.770298 89.6904375,79.6736114 89.7000681,79.7288609 L89.729923,79.6109953 C89.7539994,79.6063911 89.7193293,79.7049194 89.7578517,79.6432241 L89.7434058,79.702157 L89.7973371,79.5953412 C89.7443688,79.8025269 89.8560837,79.6266493 89.8512684,79.7242568 C89.8897907,79.6938695 89.9668355,79.6165202 90.0005425,79.6680864 C89.9822444,79.775823 90.0371388,79.7868729 90.057363,79.8485682 C90.1315186,79.8365974 90.2355289,79.8237059 90.3106475,79.880797 L90.3424285,79.7454357 L90.3665049,79.7417524 C90.3588005,79.7712188 90.351096,79.8006852 90.351096,79.8006852 C90.3308718,79.9572255 90.4136948,79.7656939 90.4088795,79.8642222 C90.4271777,79.7399108 90.3857661,79.8356766 90.3857661,79.8356766 C90.38384,79.7675355 90.431993,79.6423033 90.4406605,79.7141277 L90.432956,79.7435941 L90.4666631,79.6763739 C90.449328,79.7831896 90.4416236,79.8329141 90.4233254,79.9378882 L90.4310299,79.9369674 L92.2820293,79.1947823 L92.2820293,79.1929406 L92.2829924,79.1892573 L92.2858815,79.1818907 L92.2916599,79.1515035 C92.2916599,79.1515035 92.293586,79.1137497 92.2955121,79.090729 L92.2858815,78.9691801 C92.2762509,78.8899892 92.2791401,78.8190856 92.3330714,78.7573903 C92.4418971,78.8190856 92.3465542,78.6413664 92.5362769,78.7472613 C92.4967915,78.627554 92.3667785,78.7002992 92.2396547,78.6072958 C92.2521745,78.585196 92.2049846,78.5409964 92.2820293,78.5630962 C92.3272931,78.5916418 92.4149314,78.5861169 92.4264881,78.6128208 L92.4322665,78.548363 L92.4852347,78.5805919 C92.4110792,78.4249725 92.6894033,78.3982685 92.5959865,78.2546198 C92.5208679,78.2306783 92.5632425,78.2942153 92.4881239,78.269353 C92.358111,78.1303084 92.6518439,78.1984495 92.5565011,78.0769005 L92.6605115,78.1146544 C92.5921343,78.0686131 92.5016067,78.04283 92.5959865,77.9995512 C92.7250364,78.005997 92.6932555,78.0603257 92.7481498,78.0962379 C92.7597066,78.0575632 92.7404454,77.9544308 92.620063,77.9719265 C92.5844298,77.9222019 92.6999969,77.9175978 92.7375562,77.8945772 C92.7067383,77.8918147 92.6479917,77.9295685 92.5911712,77.8973396 C92.6730312,77.8430109 92.6711051,77.748166 92.685551,77.6735791 C92.717332,77.6754208 92.7799308,77.6772624 92.7799308,77.6772624 C92.6152477,77.6146463 92.9012762,77.6238546 92.865643,77.5354553" id="Fill-3422"></path>
                    <path d="M90.675,74.9065067 L90.70425,74.9347817 C90.71205,74.9074817 90.724725,74.8762817 90.75105,74.8509317 L90.675,74.9065067 Z" id="Fill-3424"></path>
                    <path d="M91.40625,75.5961648 L91.43745,75.5776398 L91.40625,75.5961648 Z" id="Fill-3426"></path>
                    <path d="M92.206725,76.3043658 C92.17065,76.3033908 92.157,76.3423908 92.1375,76.3716408 L92.206725,76.3043658 Z" id="Fill-3428"></path>
                    <path d="M89.94375,75.6341898 C89.94375,75.6341898 89.9457,75.6049398 89.94765,75.5776398 C89.9457,75.6010398 89.94375,75.6341898 89.94375,75.6341898" id="Fill-3430"></path>
                    <path d="M87.75,76.3043478 L87.768525,76.3140978 L87.75,76.3043478 Z" id="Fill-3432"></path>
                    <path d="M88.48125,76.3306728 L88.484175,76.3043478 L88.48125,76.3306728 Z" id="Fill-3434"></path>
                    <path d="M89.94375,75.6137148 C89.94375,75.6137148 89.962275,75.6029898 89.973975,75.5776398 L89.94375,75.6137148 Z" id="Fill-3436"></path>
                    <polygon id="Fill-3438" points="88.48125 76.3277478 88.50855 76.3248228 88.493925 76.3043478"></polygon>
                    <path d="M87.75,76.319982 L87.7851,76.310232 C87.75195,76.292682 87.75,76.319982 87.75,76.319982" id="Fill-3440"></path>
                    <path d="M89.213046,75.6159259 L89.214996,75.6120259 C89.214996,75.5535259 89.211096,75.5798509 89.213046,75.6159259" id="Fill-3442"></path>
                    <polygon id="Fill-3444" points="88.490025 75.6088398 88.495875 75.6107898 88.48125 75.5776398"></polygon>
                    <polygon id="Fill-3446" points="87.778275 76.3306728 87.77145 76.3043478 87.75 76.3043478"></polygon>
                    <path d="M88.48125,75.5776398 C88.497825,75.6234648 88.50855,75.6536898 88.517325,75.6770898 C88.517325,75.6770898 88.519275,75.6507648 88.48125,75.5776398" id="Fill-3448"></path>
                </g>
            </g>
        </g>
    </g>
</svg>