<?xml version="1.0" encoding="UTF-8"?>
<svg width="572px" height="649px" viewBox="0 0 572 649" version="1.1" xmlns="http://www.w3.org/2000/svg" xmlns:xlink="http://www.w3.org/1999/xlink">
    <!-- Generator: Sketch 52 (66869) - http://www.bohemiancoding.com/sketch -->
    <title>all</title>
    <desc>Created with Sketch.</desc>
    <defs>
        <rect id="path-1" x="0" y="0" width="572" height="649"></rect>
    </defs>
    <g id="Page-1" stroke="none" stroke-width="1" fill="none" fill-rule="evenodd">
        <g id="Artboard-1-Copy">
            <g id="all">
                <mask id="mask-2" fill="white">
                    <use xlink:href="#path-1"></use>
                </mask>
                <use id="Mask" fill-opacity="0" fill="#FFFFFF" fill-rule="nonzero" xlink:href="#path-1"></use>
                <g mask="url(#mask-2)" stroke="#6A6A6A" stroke-linecap="round" stroke-linejoin="round" stroke-width="0.8">
                    <path d="M311.084,621.7682 C311.402,625.6762 311.719,629.5852 312.037,633.4922" id="Stroke-179"></path>
                    <path d="M67.2265,577.2174 C58.2515,577.7034 49.2575,577.9704 40.2615,578.0154" id="Stroke-183"></path>
                    <path d="M61.3662,626.6217 L62.6162,629.9727 C62.9762,610.7717 65.5662,591.6117 70.3062,572.9727 C72.3762,564.8217 74.8762,556.7317 75.7862,548.3827 C76.5862,541.1117 76.1762,533.8027 76.0262,526.4917 C75.9762,524.3027 75.9562,522.1217 75.9962,519.9327 C76.1262,512.9517 76.8862,505.9617 76.4962,498.9917 C76.1062,492.1617 74.5962,485.4417 73.7562,478.6517 C73.6462,477.7517 73.5462,476.8427 73.4562,475.9417 C72.6062,467.2517 72.7262,458.4917 72.8562,449.7627 C73.0562,436.9217 73.2362,424.0927 73.4362,411.2517" id="Stroke-185"></path>
                    <path d="M288.8086,325.1524 C291.2146,333.5114 293.6186,341.8704 296.0256,350.2294 C299.6226,362.7324 303.2236,375.2434 306.0846,387.9404 C311.1586,410.4474 313.8926,433.7354 311.2046,456.6594 C310.2396,464.9024 308.5766,473.0624 307.9756,481.3404 C307.4356,488.8024 307.7636,496.2984 307.9526,503.7774 C309.0216,545.6214 305.7746,587.5774 298.2836,628.7434 C297.2306,629.0364 296.0216,628.1864 295.9226,627.0844" id="Stroke-187"></path>
                    <path d="M321.3457,363.8414 C324.8837,369.4964 321.1437,376.2684 319.1327,382.4504 C317.2427,388.2574 316.9487,394.3434 316.6667,400.3664 C313.1847,474.5244 309.7057,548.7404 311.6367,622.9404" id="Stroke-189"></path>
                    <path d="M310.8193,194.6661 C312.1733,190.0061 308.1353,184.6441 303.1393,184.4701 C298.1463,184.2961 293.7213,189.3671 294.7273,194.1081 C291.9403,190.2011 286.0073,188.7781 281.6573,190.9721 C277.3083,193.1661 275.1123,198.6881 276.8183,203.1431 C274.6223,200.7821 270.1393,201.4281 268.3623,204.0971 C266.5863,206.7661 267.4743,210.6171 269.9583,212.6901 C265.1773,208.8761 256.6233,211.7331 255.2893,217.5911 C254.5373,214.8641 253.7173,212.0131 251.7063,209.9661 C249.6963,207.9211 246.0933,207.0481 243.8493,208.8471 C241.9133,210.3971 241.7143,213.1971 242.0613,215.6041 C242.4083,218.0141 243.1433,220.4771 242.5133,222.8311 C241.3553,227.1621 225.7343,224.6501 224.3633,228.9241 C223.6713,231.0871 225.8913,233.5751 224.7523,235.5541 C223.4943,237.7401 219.9713,236.5881 218.1063,234.8551 C216.2383,233.1221 214.0183,230.8481 211.5623,231.6301 C211.6383,236.1751 212.2043,240.7101 213.2533,245.1401 C211.0993,247.0481 207.7643,245.1371 204.8633,244.8281 C202.9103,244.6221 200.7923,245.3151 199.6473,246.8621 C198.5023,248.4081 198.6113,250.8101 200.1153,252.0331 C197.8123,251.3521 195.3803,253.3741 194.9263,255.6651 C194.4743,257.9561 195.4723,260.2821 196.7113,262.2811 C197.5583,263.6451 198.5703,265.1111 198.3183,266.6841 C198.0723,268.2141 196.6333,269.3591 195.0943,269.7801 C193.5553,270.2031 191.9183,270.0431 190.3273,269.8801" id="Stroke-191"></path>
                    <path d="M185.517,294.6705 C184.034,296.7245 182.501,298.8945 182.17,301.4185 C181.841,303.9415 183.178,306.8855 185.639,307.3975 C187.395,307.7635 189.16,306.8325 190.591,305.7365 C190.008,308.8045 189.75,311.9345 189.82,315.0575 C189.849,316.3025 189.967,317.6435 190.768,318.5875 C191.569,319.5335 193.293,319.7265 193.925,318.6575 C191.842,322.3375 194.598,327.2655 198.433,328.9595 C202.271,330.6545 206.667,330.0545 210.806,329.4245 C214.662,333.8165 221.14,335.6285 226.672,333.8615" id="Stroke-193"></path>
                    <path d="M338.0488,265.8741 C341.9118,267.6451 349.0518,269.6141 353.1828,268.3421 C356.0348,267.4641 358.5128,265.6281 360.7058,263.5781 C361.4738,262.8601 362.2788,262.0791 363.3058,261.8871 C365.8238,261.4161 367.4908,264.8801 366.7338,267.3631 C365.9778,269.8471 363.9048,271.6501 362.5278,273.8421 C364.4098,272.6711 366.6958,271.9571 368.8398,272.4931 C370.9828,273.0281 372.8308,275.0871 372.6248,277.3181 C372.5188,278.4691 371.9158,279.5021 371.3058,280.4761 C369.8388,282.8221 368.2398,285.0831 366.5178,287.2431 C371.5898,285.7491 377.1068,285.8501 382.1208,287.5321 C384.4018,288.2951 386.8528,289.7311 387.2378,292.1381 C387.4878,293.6841 386.7888,295.2191 386.0038,296.5701 C384.3158,299.4651 382.1208,302.0551 379.5568,304.1851 C378.8478,303.5191 378.1388,302.8531 377.4298,302.1861 C378.6948,303.3541 381.0598,304.5811 382.6688,305.1711 C384.2768,305.7611 385.8998,307.3261 385.3908,308.9831 C385.2098,309.5751 384.7818,310.0531 384.3578,310.4961 C381.5698,313.3931 378.2378,315.7521 374.5968,317.4071 C375.6568,316.5171 377.4628,317.2461 377.9418,318.5561 C378.4218,319.8671 377.8108,321.3901 376.7928,322.3291 C375.7738,323.2691 374.4228,323.7371 373.0938,324.1051 C368.9158,325.2621 364.4098,325.6411 360.2828,324.3091" id="Stroke-195"></path>
                    <path d="M281.9482,285.3238 C286.0812,284.9258 290.2032,288.2618 290.5272,292.2668 C290.6112,293.3028 290.4482,294.4088 289.7822,295.2248 C289.1172,296.0398 287.8512,296.4468 286.9152,295.9328 C290.2892,297.8678 292.7092,301.2868 293.3572,305.0298 C293.5772,306.3008 293.5882,307.6558 293.0332,308.8288 C292.4762,309.9998 291.2422,310.9358 289.9122,310.8648 C290.4572,312.9938 289.4972,315.4088 287.6162,316.6378 C285.7352,317.8668 283.0602,317.8248 281.2212,316.5408 C282.3792,318.9788 283.5012,321.9668 281.9402,324.1858 C280.5492,326.1638 277.6742,326.4908 275.2132,326.2618 C273.4482,326.0978 271.2872,325.3078 271.2222,323.5948" id="Stroke-197"></path>
                    <path d="M297.0151,331.0147 C300.7451,346.7007 306.0461,362.0367 312.8201,376.7377 C315.0001,376.3417 315.5731,373.6187 315.6611,371.4727 C315.8551,366.8267 316.0501,362.1787 316.2441,357.5317 C318.7161,359.6317 323.3951,357.5137 323.3141,354.3287 C325.2021,355.3657 326.8681,356.7627 328.8061,357.7087 C330.7441,358.6537 333.1331,359.0997 335.0591,358.1297 C336.9841,357.1607 337.9301,354.3877 336.4491,352.8497 C338.8371,353.8627 341.6351,351.3887 341.5651,348.8627 C341.4951,346.3387 339.4321,344.2357 337.1201,343.0647 C338.9131,341.1707 340.8051,339.0507 340.9231,336.4847 C341.0421,333.9167 338.2341,331.2247 335.8761,332.3997" id="Stroke-199"></path>
                    <path d="M260.3667,319.2906 C261.6607,320.6936 261.6397,322.9996 260.6267,324.6196 C259.6157,326.2376 257.8057,327.2246 255.9467,327.6416 C253.7537,328.1336 250.9157,327.5426 250.2467,325.3896 C250.3607,327.0256 250.3677,328.6686 250.2717,330.3056 C250.2417,330.8026 250.1797,331.3496 249.8127,331.6846 C249.4457,332.0196 248.8957,332.0296 248.3997,332.0206 C246.2367,331.9816 244.0757,331.9426 241.9127,331.9036 C246.8627,335.8566 248.1027,343.7446 244.6067,349.0346 C245.7597,346.6576 248.6437,345.8036 251.2087,345.1926 C253.5327,344.6416 255.8557,344.0896 258.1807,343.5386 C259.6867,343.1806 261.3067,342.8296 262.7437,343.4006 C264.1837,343.9716 265.1837,345.8796 264.2707,347.1336 C263.5877,345.6786 264.5217,343.8746 265.8947,343.0446 C267.2687,342.2176 268.9447,342.1126 270.5447,342.0316 C271.1477,341.9996 271.7957,341.9796 272.3057,342.3046 C272.9907,342.7406 273.1947,343.6336 273.3377,344.4366 C273.8677,347.3886 274.3967,350.3386 274.9267,353.2906 C275.5047,348.1286 281.6777,344.4616 286.4637,346.4386" id="Stroke-201"></path>
                    <path d="M202.4243,335.7042 C202.2013,337.1452 201.4673,338.4612 201.0893,339.8722 C200.7093,341.2822 200.7743,342.9762 201.8813,343.9542 C202.9023,344.8542 204.4313,344.8462 205.8053,344.7862 C207.3503,344.7182 208.8963,344.6482 210.4423,344.5812 C209.1853,347.2182 209.8683,350.6142 212.0553,352.5882 C214.2433,354.5642 217.7603,354.9652 220.3543,353.5352 C219.9353,355.3392 220.7103,357.2562 221.9663,358.6412 C223.2203,360.0272 224.9033,360.9662 226.5923,361.8042 C230.3233,363.6522 235.1993,365.0062 238.3953,362.3682" id="Stroke-203"></path>
                    <path d="M248.9472,362.9395 C246.7912,361.8775 244.2182,364.1225 243.9102,366.5685 C243.6032,369.0105 244.7852,371.3615 245.9302,373.5255 C244.5942,372.8065 243.1942,372.0985 241.6862,372.0295 C240.1802,371.9625 238.5362,372.7055 237.9812,374.1495 C237.5762,375.2075 237.8122,376.3935 238.0532,377.5025 C238.4202,379.1835 238.7862,380.8645 239.1522,382.5475 C236.2802,380.1935 232.4632,379.1115 228.8302,379.6195 C227.7412,379.7715 226.5942,380.1065 225.8932,380.9785 C225.1912,381.8505 225.2072,383.3915 226.1642,383.9465 C221.8772,381.8785 216.5632,382.2715 212.6032,384.9445" id="Stroke-205"></path>
                    <path d="M229.0166,395.4967 C230.8616,400.4447 234.8546,404.7847 239.8966,405.7697 C244.9376,406.7577 250.7456,403.5587 251.8056,398.3697 C251.9066,402.0827 255.5266,404.8617 259.1026,405.2307 C262.6806,405.6007 266.1796,404.1927 269.5146,402.8107 C270.6076,405.4687 274.0356,405.7377 276.7556,406.3987 C279.4756,407.0607 282.4096,410.1987 280.5956,412.3947 C279.8726,413.2697 278.5206,413.7037 278.3496,414.8397 C277.8636,418.0677 286.0136,415.8967 285.4316,419.1097 C285.2536,420.0967 284.1716,420.5377 283.2986,420.9807 C280.1106,422.5947 278.1976,426.9617 279.9016,430.1807 C281.6056,433.3987 287.1216,433.5547 288.4016,430.1307 C288.6446,432.5717 288.9716,435.2087 290.6256,436.9707 C292.2796,438.7277 295.7356,438.7477 296.5836,436.4567 C296.5696,438.9787 296.6516,441.7707 298.3236,443.6087 C299.9936,445.4467 303.7926,445.0107 304.0496,442.5017" id="Stroke-207"></path>
                    <path d="M379.5053,331.1988 C380.5183,330.9658 381.7933,330.8158 382.4063,331.6358 C382.7663,332.1178 382.7443,332.7648 382.8643,333.3488 C383.2483,335.2198 385.2013,336.4738 387.1483,336.7188 C389.0913,336.9628 391.0413,336.4188 392.9233,335.8808 C393.7383,338.1778 392.2373,340.6288 390.5263,342.3968 C388.8133,344.1648 386.7383,345.7988 386.0293,348.1258 C385.3213,350.4538 387.0233,353.6098 389.4843,353.2118 C389.0883,356.4418 387.0593,359.4308 384.1943,361.1048 C382.6273,362.0198 380.7633,362.6158 379.6693,364.0428 C378.5763,365.4688 379.0513,368.1258 380.8753,368.2478 C381.7013,368.3028 382.5133,367.8078 383.3273,367.9638 C385.4593,368.3698 384.4093,371.6258 382.7083,372.9378 C379.5603,375.3698 375.6643,376.8748 371.6603,377.2048 C371.0043,377.2588 370.2713,377.3168 369.8393,377.7988 C368.1993,379.6368 373.6243,381.1398 373.1773,383.5348 C372.9543,384.7268 371.4123,385.1088 370.1683,385.2008 C366.0243,385.5058 361.8483,385.4068 357.7253,384.9078 C358.9943,388.1628 360.2713,391.4458 360.8253,394.8878 C361.2493,397.5238 361.1793,400.4238 359.5893,402.5988 C358.0003,404.7748 354.4753,405.7238 352.4323,403.9428 C349.6643,401.5268 351.4013,396.3988 348.6003,394.0158" id="Stroke-209"></path>
                    <path d="M314.916,438.3121 C316.056,439.3221 317.236,440.3121 318.646,440.8521 C320.186,441.4321 322.076,441.3821 323.316,440.2821 C324.896,438.8621 324.846,436.3921 324.666,434.2721 C324.516,432.5411 324.376,430.8221 324.236,429.1021 C327.126,431.9211 332.436,431.9211 334.946,428.7621 C337.466,425.5921 335.846,419.9211 331.916,419.0321 C333.726,418.7321 335.546,418.1621 336.926,416.9521 C338.306,415.7321 339.156,413.7821 338.686,412.0011 C338.416,410.9721 337.616,410.0921 336.656,409.6621 C335.926,409.8121 335.166,409.7911 334.456,409.5721 C335.176,409.2911 335.956,409.3621 336.656,409.6621 C337.826,409.4421 338.936,408.7911 339.736,407.8921 C341.036,406.4211 341.586,404.3921 341.566,402.4321 C341.526,397.7721 338.236,393.3321 333.816,391.9821" id="Stroke-211"></path>
                    <path d="M406.0478,533.8385 C404.9198,531.7495 403.7908,529.6565 402.6608,527.5665 C402.4858,527.2405 402.2978,526.9025 401.9758,526.6885 C401.2008,526.1705 400.1188,526.6125 399.2898,527.0595 C396.6618,528.4765 394.0358,529.8905 391.4088,531.3065 C391.3908,528.4455 390.7638,525.5885 389.5738,522.9405 C387.1328,522.8445 384.2918,521.2305 382.5558,522.7935 C380.9578,524.2305 382.2268,526.9135 380.9938,528.6185 C378.0898,525.7725 372.8268,525.2545 369.3228,527.4725 C368.6178,523.9115 364.1298,521.4025 360.3248,522.4425" id="Stroke-213"></path>
                    <path d="M351.4614,526.8043 C350.2484,530.9323 351.1164,535.6063 353.7394,539.0323 C350.1894,538.8503 347.4884,543.1343 348.7104,546.4423 C349.9284,549.7483 354.0684,551.4263 357.5054,550.5283 C354.7094,550.9263 351.8394,551.3653 349.3844,552.7493 C346.9294,554.1363 344.9444,556.7013 345.0904,559.4963 C345.2364,562.2933 348.1724,564.8573 350.8574,563.9883 C349.6014,568.1103 351.9154,572.9883 355.9204,574.6613 C359.9254,576.3343 365.0684,574.5733 367.1724,570.8053 C369.2884,574.4003 373.5614,576.6343 377.7524,576.3363 C381.9444,576.0373 385.8504,573.2213 387.4264,569.3633 C387.2694,572.1703 390.3724,573.9453 393.0584,574.8563 C402.4604,578.0423 412.5944,579.0993 422.4614,577.9233" id="Stroke-215"></path>
                    <path d="M570.9511,550.2672 C552.1201,547.8172 533.1441,546.7002 514.1801,546.9242 C509.3611,546.9822 504.4981,547.1322 499.8201,548.4022 C496.4051,546.2632 492.1651,545.7642 488.4111,547.0572 C488.3531,546.1672 488.2951,545.2802 488.2391,544.3902 C485.1871,544.6682 482.1361,544.9482 479.0851,545.2252 C476.9281,545.4212 474.0391,546.6262 474.5251,548.9312 C472.2731,547.7642 469.2291,549.1532 468.4041,551.7232 C467.5811,554.2942 469.1641,557.4542 471.5911,558.0792 C473.2431,558.5032 475.6971,559.6312 477.3931,559.6312 L571.3551,559.6312" id="Stroke-217"></path>
                    <path d="M148.3876,435.358 C148.6896,436.023 148.9916,436.687 149.2936,437.353 C146.3566,439.04 142.6826,439.427 139.4526,438.389 C141.2136,440.735 139.9326,444.642 137.1126,445.527 C135.8516,445.922 134.4896,445.774 133.1756,445.621 L117.7846,443.833 C119.2136,445.586 117.5446,448.407 115.3386,448.969 C113.1316,449.533 110.8456,448.611 108.7576,447.709 C109.4596,449.545 107.6926,451.563 105.7386,451.921 C103.7836,452.278 99.7846,455.08 97.9536,454.317 C100.4046,455.237 100.8616,458.414 100.8556,461.001 C100.8516,462.032 100.8286,463.105 100.3596,464.026 C99.8896,464.948 98.8366,465.665 97.8206,465.417 C98.7246,464.943 99.9026,465.368 100.5686,466.133 C101.2356,466.898 101.5016,467.921 101.6976,468.912 C102.1386,471.154 102.1716,473.827 100.4156,475.317 C99.2026,476.346 97.4166,476.494 95.8706,476.088 C94.3246,475.68 92.9596,474.797 91.6246,473.927 C92.6906,476.338 90.7576,479.51 88.0996,479.714 C88.0996,479.714 82.4676,481.164 82.4676,476.147" id="Stroke-219"></path>
                    <path d="M46.1235,407.7838 C46.6725,411.1218 50.4595,412.8238 53.2885,411.6478 C56.1165,410.4708 57.9365,407.2768 58.7515,404.0068 C58.4315,407.1818 58.9995,410.4668 60.3585,413.2728 C60.7005,413.9838 61.1195,414.6908 61.7535,415.0658 C63.2345,415.9408 64.9745,414.6188 66.1235,413.2528 C68.9355,409.9108 71.0125,405.7888 72.1175,401.3578 C71.4035,406.1018 72.4855,411.4598 75.8105,414.4838 C79.1365,417.5088 84.8445,417.1098 87.0495,412.9858 C87.7195,413.8438 89.0105,413.9578 89.7935,413.2308 C90.5745,412.5058 90.7185,411.0548 90.0985,410.1508 C92.2465,414.7818 97.2865,417.4478 101.8215,416.3548 C102.7945,416.1198 103.7865,415.6948 104.4165,414.8288 C106.4345,412.0618 103.3815,408.2218 103.1275,404.6528 C105.1025,409.3148 109.5375,412.5168 114.1225,412.5908" id="Stroke-221"></path>
                    <path d="M165.9165,359.152 C167.5135,359.659 169.2275,359.689 170.8075,360.248 C172.3865,360.808 173.9125,362.152 173.9145,363.875 C173.9145,365.242 171.7465,368.2 170.9225,368.358 C172.0555,368.865 173.3895,370.006 173.0835,372.089 C173.0835,372.089 172.6315,374.949 168.3955,375.165 C169.9875,378.086 170.2165,381.756 169.0015,384.863 C168.6595,385.741 168.1775,386.608 167.4045,387.121 C166.5625,387.682 165.5025,387.737 164.4995,387.734 C160.3925,387.719 156.2895,387.001 152.4075,385.618 C154.4775,386.703 156.5215,388.002 157.9085,389.923 C159.2975,391.845 159.9135,394.514 158.9375,396.69 C157.9615,398.865 155.1145,400.109 153.1355,398.852 C154.9625,399.144 155.3155,402.041 154.0135,403.393 C152.7105,404.745 150.6445,404.866 148.8035,404.696 C144.8975,404.338 141.0765,403.044 137.7245,400.945 C139.4025,401.433 140.0735,403.791 139.2575,405.38 C138.4425,406.971 136.5985,407.766 134.8545,407.779 C133.1105,407.79 131.4325,407.154 129.8055,406.508 C130.4985,408.511 129.7625,410.944 128.0895,412.186 C126.4175,413.429 123.9485,413.372 122.3285,412.059" id="Stroke-223"></path>
                    <path d="M143.4321,370.8756 C147.8231,370.5156 152.1411,369.2926 156.0661,367.2956 C156.7641,366.9416 157.4871,366.5256 157.8631,365.8396 C158.7521,364.2046 157.2231,362.3446 155.8271,361.1146 C155.3481,360.6916 154.8691,360.2696 154.3901,359.8486 C155.6631,360.8246 157.6481,360.2086 158.6251,358.9386 C159.6031,357.6696 159.8071,355.9766 159.8411,354.3746 C159.8571,353.5896 159.8391,352.7886 159.5721,352.0496 C158.8441,350.0436 156.5581,349.1136 154.4821,348.6006" id="Stroke-225"></path>
                    <path d="M150.603,330.6617 C150.158,329.1807 150.834,327.4087 152.117,326.6837 C153.399,325.9587 155.143,326.3667 156.029,327.5987 C156.866,328.7597 156.9,330.3477 156.875,331.8157 C156.838,333.8677 156.913,336.6207 156.785,338.6687 C157.956,337.8157 159.483,337.2737 160.785,337.8717 C162.086,338.4677 162.72,340.5797 161.645,341.5657" id="Stroke-227"></path>
                    <path d="M57.6059,454.1119 C55.1359,454.0719 53.5859,457.1919 54.6959,459.2819 C55.8059,461.3719 58.6359,462.2319 61.0659,461.8419 C59.7559,462.3719 59.5559,464.0819 59.9159,465.3919 C60.2059,466.4719 60.7659,467.5219 61.7059,468.1819 C62.6459,468.8419 64.0059,469.0319 64.9859,468.4219 C63.5559,470.8919 65.2759,473.9119 67.1759,476.0819 C67.9459,476.9719 69.1359,477.9119 70.2359,477.4319 C71.0059,477.1019 71.2559,476.3019 71.3059,475.4619 L71.3059,475.4519 C71.2459,475.1419 71.2559,474.8019 71.2959,474.5019 C71.3159,474.8019 71.3259,475.1329 71.3059,475.4519 L71.3059,475.4619 C71.3759,475.8619 71.5659,476.2019 71.9659,476.3119 C72.5559,476.4719 72.8559,476.5319 73.2859,476.1219 C73.3459,476.0619 73.4059,476.0019 73.4559,475.9419" id="Stroke-229"></path>
                    <path d="M56.6748,447.4166 C50.5408,448.1646 46.7228,451.7696 40.5438,451.7706 C38.7478,451.7706 36.7448,450.6086 36.5968,448.6426 C36.5288,447.7556 36.4758,446.9466 36.9708,446.2096 C38.1918,444.3916 39.4128,442.5716 40.6348,440.7526 C35.7718,443.7626 29.9298,445.1336 24.2478,444.6066 C23.8938,444.5726 23.5158,444.5206 23.2568,444.2776 C22.9998,444.0346 22.9218,443.6626 22.8618,443.3136 C22.3148,440.1186 22.3828,436.3846 24.7638,434.2006 C22.3418,434.6426 19.7268,433.8116 17.9938,432.0526 C17.5118,431.5636 17.0868,430.9906 16.9088,430.3276 C16.4778,428.7346 17.5768,427.0886 18.9418,426.1776 C20.3078,425.2656 21.9348,424.8436 23.3828,424.0726 C24.8298,423.3036 26.1908,421.9856 26.2458,420.3366 C26.3018,418.6886 24.3388,417.1206 22.9828,418.0476" id="Stroke-231"></path>
                    <path d="M10.3266,544.3902 C9.6416,541.5892 9.1736,538.1712 11.6376,536.3162 C12.4986,535.6682 13.6006,535.3322 14.6956,535.0812 C19.7456,533.9202 25.2266,534.3012 30.0116,536.1432 C27.8586,534.9152 26.1996,533.0242 25.3876,530.8712 C24.9386,529.6852 24.8386,528.1792 25.9196,527.3742 C26.6896,526.8012 27.7936,526.7902 28.7996,526.8082 C31.1256,526.8522 33.4776,526.8982 35.7246,527.4302 C37.9726,527.9612 40.1406,529.0392 41.4336,530.7532" id="Stroke-233"></path>
                    <path d="M76.0258,526.4918 C74.4658,524.4818 71.5958,523.8918 69.0458,523.8318 C66.6858,523.7718 64.2358,523.9918 62.1758,525.2418 C60.9158,526.0128 59.8558,527.2518 59.3058,528.6718 L59.3058,528.6818 C59.2658,529.6218 59.1558,530.5618 58.9758,531.4918 C58.8258,530.5318 58.9658,529.5718 59.3058,528.6818 L59.3058,528.6718 C59.3758,527.0528 59.2358,525.4318 58.8758,523.8618 C58.7458,523.3028 58.5758,522.7218 58.1858,522.3428 C57.7258,521.8828 57.0558,521.7718 56.4358,521.7218 C53.6058,521.4818 50.7358,521.8318 48.0258,522.7318 C48.1258,521.0718 48.2358,519.4118 48.3358,517.7518 C48.3558,517.4418 48.3658,517.1118 48.1958,516.8618 C48.0258,516.6218 47.7158,516.5418 47.4358,516.4818 C44.7858,515.9518 41.8758,516.2918 39.6658,517.9618 C37.4558,519.6328 36.1558,522.8218 37.0158,525.5718" id="Stroke-235"></path>
                    <path d="M82.4672,543.0553 C82.6752,538.6803 86.9402,535.6223 91.0942,534.3723 C93.2812,533.7143 95.8802,533.4373 97.6402,534.9073 C99.1942,536.2043 99.5742,538.5423 99.0532,540.5103 C98.5292,542.4793 97.2622,544.1483 95.9512,545.6973 C94.4202,547.5033 92.7892,549.2223 91.0662,550.8403 C93.5552,549.3473 96.4052,548.4733 99.2972,548.3153 C100.7682,548.2363 102.4642,548.4523 103.2972,549.6813 C104.6482,551.6653 102.6962,554.2043 100.8972,555.7843 C105.9562,553.3343 112.1372,553.3903 117.1522,555.9353 C117.9392,556.3343 118.7172,556.8073 119.2532,557.5103 C121.0562,559.8743 119.2472,563.4123 116.8112,565.1013 C114.3762,566.7873 111.3382,567.5883 109.2462,569.6953 C108.8562,570.0863 108.2482,570.5433 107.8382,570.1733 C109.6872,569.4023 111.6692,568.6173 113.6302,569.0063 C115.5922,569.3973 117.3392,571.5093 116.5932,573.3833 C115.3402,573.4893 114.0882,573.5933 112.8342,573.7003" id="Stroke-237"></path>
                    <path d="M80.916,416.4615 C76.616,428.4725 78.306,442.4015 79.186,455.5525 C80.246,471.4015 79.996,487.3315 79.746,503.2225 C79.416,524.5415 79.086,545.8715 78.746,567.1915 C78.586,577.3315 78.426,587.5315 76.946,597.5125 C76.246,602.1915 75.256,606.8825 75.456,611.6425 C75.756,618.6515 78.636,625.3025 78.446,632.3125 C78.996,632.4015 79.246,631.2015 78.736,630.9615" id="Stroke-239"></path>
                    <path d="M105.9155,575.6119 C102.7635,578.6209 98.5385,578.3189 95.5615,574.8729 C94.8225,577.5499 92.7695,578.3789 90.9835,578.7529 C86.9965,579.5829 82.9595,579.7739 78.9505,579.3269" id="Stroke-241"></path>
                    <path d="M157.4692,319.9176 C158.6912,316.6666 159.6502,312.3966 156.8672,310.2556 C154.9812,308.8026 152.2692,309.1616 149.9492,309.7686 C145.2312,311.0046 140.2752,313.3956 138.5292,317.8566 C137.8502,315.6396 138.4492,313.2646 138.3932,310.9496 C138.3392,308.6366 137.1842,305.9576 134.8482,305.5846 C131.4462,305.0396 129.1602,309.6896 125.7122,309.7196 C126.0322,307.6986 124.9902,305.5336 123.1932,304.4856 C121.3942,303.4376 118.9522,303.5696 117.2842,304.8056 C116.9082,303.1846 116.2282,301.5136 114.8382,300.5566 C113.4472,299.6006 111.1992,299.7116 110.3392,301.1456 C107.2792,297.3886 103.4852,294.2026 99.2242,291.8136 C97.7842,291.0046 95.5812,290.4696 94.7702,291.8866 C94.4612,292.4256 94.4952,293.0826 94.5472,293.6996 C94.8592,297.4006 95.5012,301.0746 96.4692,304.6656 C95.6432,304.5616 90.6452,306.8626 91.6372,309.1306 C88.4222,306.5206 85.0842,299.9976 80.9392,300.5236 C80.2632,300.6106 79.5692,300.7386 78.9092,300.5686 C78.0672,300.3516 77.4352,299.6846 76.8532,299.0476 C75.6362,297.7206 68.1892,286.4806 63.3252,291.0796 C61.9322,292.3966 60.8792,294.4616 62.0862,295.9446 C59.2982,294.9576 56.3842,293.9576 53.4402,294.2916 C50.4942,294.6256 47.5332,296.7416 47.3352,299.6336 C47.2512,300.8536 46.1792,305.2176 44.9322,305.2846 C39.8462,305.5516 38.5062,311.9336 38.7262,313.1806 C39.8372,319.4446 43.1602,322.0336 45.2962,328.0386 C42.1762,327.9976 32.2362,320.2436 29.7772,326.3056 C27.1062,332.8866 37.3062,339.6046 37.7062,346.1436 C34.3092,342.1566 29.7712,342.9306 28.1452,345.8446 C26.8452,348.4606 29.2672,350.7666 33.0212,353.9126 C28.5352,354.2936 18.5272,349.2876 16.1052,357.2306 C15.3312,359.7716 17.6622,362.1816 19.5732,364.0636 C18.6302,363.4416 16.2372,369.1356 16.0922,371.3446 C15.9492,373.5556 17.1042,375.8026 19.0042,377.0056 C17.8862,375.6616 15.4552,376.1886 14.4882,377.6396 C13.5192,379.0906 13.6762,381.0036 14.1802,382.6646 C11.7632,382.9166 7.4402,379.6746 5.5232,382.5016 C3.1442,386.0156 11.1362,393.6156 15.4382,396.6686" id="Stroke-243"></path>
                    <path d="M241.9126,425.4254 C245.1806,425.2324 248.4496,425.0394 251.7166,424.8434 C256.2156,424.5784 260.8496,425.7994 265.3606,425.7154" id="Stroke-109"></path>
                    <path d="M241.9126,418.4264 C244.9336,418.0994 247.9736,417.8894 251.0196,417.7934 C255.7376,417.6424 260.6386,418.3284 265.3606,418.4424" id="Stroke-111"></path>
                    <path d="M253.6367,417.7721 L253.6367,427.1511" id="Stroke-113"></path>
                    <path d="M127.0185,156.3282 L127.0185,311.0842" id="Stroke-245"></path>
                    <path d="M112.9497,512.7359 L112.9497,557.2869" id="Stroke-247"></path>
                    <path d="M422.4614,574.8726 C459.0404,575.9666 495.6184,577.0606 532.1954,578.1536 C531.5674,582.3296 532.1374,585.9206 532.6664,590.1136" id="Stroke-249"></path>
                    <path d="M461.1504,570.1822 L461.1504,574.8722" id="Stroke-251"></path>
                    <path d="M420.1167,57.8472 C418.8717,74.5032 418.0197,91.1942 417.6607,107.8962 L417.6607,129.3632 L415.4267,129.2322" id="Stroke-253"></path>
                    <path d="M471.7016,557.2867 L471.7016,563.1477 L532.2766,563.1477 C545.3226,563.1477 558.3096,561.2867 571.3546,561.0897" id="Stroke-261"></path>
                    <path d="M461.1504,565.4928 L472.8744,565.4928" id="Stroke-263"></path>
                    <path d="M531.4936,565.4928 L531.4936,577.2178" id="Stroke-265"></path>
                    <path d="M421.289,51.9854 C450.258,57.0164 478.445,66.5454 504.529,80.1224" id="Stroke-267"></path>
                    <path d="M420.1167,57.8472 C450.0587,66.4652 479.7727,75.8492 509.2187,85.9852" id="Stroke-269"></path>
                    <path d="M458.8056,504.5289 C459.1956,526.4139 459.5866,548.2979 459.9776,570.1829" id="Stroke-273"></path>
                    <path d="M417.7715,504.5289 C418.2855,521.1079 418.3545,572.4689 418.3545,572.4689 C421.3465,572.5999 420.1465,572.4689 421.9805,572.4689 C423.1845,550.0309 423.7315,527.5339 423.6195,505.0439" id="Stroke-275"></path>
                    <path d="M241.913,123.501 C236.639,156.975 235.975,190.726 239.11,224.327" id="Stroke-277"></path>
                    <path d="M237.2231,123.501 C245.0711,124.364 252.8781,125.607 260.6131,127.227 C260.9371,138.387 259.8031,149.855 259.5891,161.018" id="Stroke-281"></path>
                    <path d="M458.8056,117.6392 C469.3566,119.5422 479.9196,121.4502 490.2726,124.2552 C510.1736,129.6442 529.1166,138.3032 549.0796,143.4322" id="Stroke-283"></path>
                    <path d="M461.1504,123.501 C474.3894,126.018 487.6604,128.541 500.5524,132.538 C517.7184,137.858 534.0914,145.752 551.4244,150.466" id="Stroke-285"></path>
                    <path d="M461.1504,132.8804 C489.2404,140.2744 517.0214,148.8824 544.3904,158.6734" id="Stroke-287"></path>
                    <path d="M462.3227,502.1842 C490.0167,505.1192 517.7867,506.6812 545.5627,506.8732" id="Stroke-289"></path>
                    <path d="M241.9126,404.8756 L241.9126,509.2186" id="Stroke-291"></path>
                    <path d="M260.6709,162.19 L260.6709,211.431" id="Stroke-293"></path>
                    <path d="M266.5332,404.8756 L266.5332,504.5286" id="Stroke-295"></path>
                    <path d="M241.9126,425.4254 C245.1806,425.2324 248.4496,425.0394 251.7166,424.8434 C256.2156,424.5784 260.8496,425.7994 265.3606,425.7154" id="Stroke-297"></path>
                    <path d="M241.9126,418.4264 C244.9336,418.0994 247.9736,417.8894 251.0196,417.7934 C255.7376,417.6424 260.6386,418.3284 265.3606,418.4424" id="Stroke-299"></path>
                    <path d="M253.6367,417.7721 L253.6367,427.1511" id="Stroke-301"></path>
                    <path d="M260.6709,161.4913 C269.1469,161.0413 277.5509,159.2913 285.4969,156.3243 C290.1729,154.5763 294.7019,152.4083 299.5099,151.0643 C306.7239,149.0483 314.3169,148.9523 321.7369,147.9293 C332.3669,146.4633 342.6459,143.0903 353.2189,141.2723 C360.7989,139.9703 368.4949,139.4743 376.0969,138.3173 C383.2269,137.2343 390.2549,135.5733 397.2739,133.9153 C417.1129,129.2263 439.3199,122.3263 459.1609,117.6393 C460.9639,162.8383 462.4399,208.1163 460.1359,253.2933 C458.4419,286.5003 458.4119,320.7833 459.2439,354.0233 C460.2269,393.3303 461.2099,432.6363 462.1919,471.9433 C462.4069,480.5003 462.6089,489.1773 460.5799,497.4943" id="Stroke-303"></path>
                    <path d="M150.4663,78.9503 C155.8243,75.2563 161.2023,71.5473 166.0253,67.1673 C171.1743,62.4863 175.6303,57.0953 180.3193,51.9483 C192.3083,38.7903 205.8663,27.1973 219.3843,15.6413 C244.6693,22.4323 269.3833,28.8583 294.6703,35.6503" id="Stroke-305"></path>
                    <path d="M159.8452,78.3199 C181.9542,60.4979 202.8242,41.1069 222.2482,20.3309 C243.9552,25.9259 265.5422,31.5619 287.2502,37.1579 C288.0132,52.9829 289.2182,70.1609 289.9812,85.9849" id="Stroke-307"></path>
                    <path d="M295.622,83.6397 C294.914,66.8517 294.6,50.0377 294.684,33.2267" id="Stroke-309"></path>
                    <path d="M132.8803,506.8736 L238.8233,506.8736 C248.6383,506.8736 260.3263,503.6546 270.0733,502.7106 L308.7393,502.1846" id="Stroke-313"></path>
                    <polyline id="Stroke-315" points="312.2563 506.8736 458.8053 506.8736 458.7463 502.1846"></polyline>
                    <path d="M267.8481,93.2764 C267.6781,96.1134 267.9511,101.2424 267.7801,104.0794 C260.2051,103.2624 254.6691,100.5024 247.1881,101.8294 C239.3371,103.2214 228.5961,105.7864 220.8351,107.6034 C205.5191,111.1884 192.7131,114.2204 175.8891,118.5304 C154.3421,124.0514 133.4901,130.2854 111.6321,135.8974 C106.0351,137.3334 101.0481,139.0844 95.4101,140.3514 C89.6541,141.6444 80.9711,141.9364 75.7161,144.6044 C75.4101,142.5474 75.3511,140.4554 75.5431,138.3864 C93.1611,134.3894 110.7251,131.8754 128.1311,127.0514 C164.0961,117.0814 200.9071,109.7244 236.8831,99.7914 C258.3391,93.8674 280.7421,91.5784 301.9111,84.7224 C315.4281,80.3444 328.5001,73.4364 342.7121,73.1044 C349.3131,72.9494 354.5361,67.9384 360.8411,65.9894 C369.2071,63.4034 377.5881,60.8144 386.1601,59.0064 C397.2151,56.6764 408.7231,55.5994 418.9441,50.8134" id="Stroke-317"></path>
                    <path d="M458.8056,27.8292 C465.5986,29.8942 472.3486,32.0842 479.0476,34.3992 C499.0676,26.9812 519.8036,21.0722 540.8726,16.8132" id="Stroke-323"></path>
                    <path d="M458.8056,34.3995 C462.8666,38.0585 468.3686,39.5675 473.6356,41.0415 C502.2916,49.0585 530.2986,59.3965 557.2866,71.9165" id="Stroke-325"></path>
                    <path d="M146.9492,94.1915 C144.2602,97.1365 141.5112,100.1325 138.0022,102.1595 C136.1382,103.2345 134.0752,104.0285 132.4262,105.3805 C131.1762,106.4065 130.1942,107.7285 128.8132,108.5875 C127.0382,109.6945 124.6062,110.0565 123.5012,111.7775" id="Stroke-327"></path>
                    <path d="M77.246,141.087 C73.193,142.13 69.135,143.173 65.177,144.529 C62.927,145.297 60.712,146.169 58.428,146.828 C54.933,147.837 51.286,148.349 47.896,149.664 C45.821,150.467 43.742,151.589 41.522,151.417 C41.581,153.108 41.316,154.648 41.5,156.328 C45.383,156.055 48.929,154.648 52.596,153.352 C57.384,151.66 62.42,150.745 67.22,149.089 C70.702,147.887 74.109,146.284 77.778,145.938" id="Stroke-329"></path>
                    <path d="M6.5048,238.3956 C5.8818,232.6616 5.4098,226.9116 5.0898,221.1546 C16.6178,216.5836 28.9468,213.6206 41.3418,212.4806 C50.3268,211.6546 59.4998,211.7406 68.1668,209.2876 C72.2078,208.1436 76.0718,206.4616 80.0878,205.2326 C83.0048,204.3406 85.9928,203.6876 88.9788,203.0386 C92.2788,202.3186 95.5808,201.5986 98.8808,200.8786" id="Stroke-333"></path>
                    <polyline id="Stroke-335" points="66.0542 166.88 66.0542 167.07 66.0542 207.914"></polyline>
                    <path d="M98.8808,219.6373 C68.0358,227.3773 36.6648,233.0803 5.0478,236.6953 C3.8248,236.6953 2.6698,238.2953 1.4468,238.2953 C1.2948,260.5023 0.5528,282.7073 0.3998,304.9133 L0.3998,581.9073" id="Stroke-337"></path>
                    <path d="M20.3305,356.8072 L20.3305,250.4912 C37.6325,250.4912 55.8615,245.1752 72.2485,239.5682 C72.7795,256.6862 73.7285,273.8232 74.2605,290.9412 L74.2605,300.8492" id="Stroke-339"></path>
                    <path d="M164.5346,510.3902 L164.5346,510.7822 L164.5346,570.1832 L191.8976,570.1832 C193.0766,570.1832 195.0226,570.0172 196.1896,570.1832 L196.1896,511.1652" id="Stroke-341"></path>
                    <path d="M156.3281,77.7779 C157.2231,90.9879 157.6071,104.3229 157.4751,117.6389" id="Stroke-343"></path>
                    <path d="M150.4663,75.4332 C150.7183,89.1112 150.9713,102.7892 151.2233,116.4672" id="Stroke-345"></path>
                    <path d="M146.4692,104.5909 C139.1402,110.8199 131.5722,116.7379 123.7852,122.3289 C124.2132,119.8009 122.9122,116.9959 123.8492,114.5569 C124.7042,112.3299 126.9862,111.7409 128.1812,109.8559 C130.5022,106.1979 131.3092,100.6329 132.5132,96.4609 C136.1552,83.8419 138.5392,70.8249 139.6152,57.6949 C149.2442,55.5079 158.1222,54.0409 167.7532,51.8549 C170.1692,51.3069 172.6142,50.7539 175.0862,50.8179" id="Stroke-347"></path>
                    <path d="M100.0532,158.6729 L100.0532,293.4979" id="Stroke-349"></path>
                    <path d="M237.2231,17.4771 C243.4361,12.4331 249.0591,6.6911 253.9461,0.4001 C275.2761,0.6161 296.4641,4.6741 317.6021,7.4821 C324.3651,8.3821 331.1291,9.2811 337.8931,10.1801 C345.7331,11.2221 353.5731,12.2641 361.4141,13.3061 C393.9321,17.6271 426.4581,21.9511 458.8061,27.3651" id="Stroke-351"></path>
                    <path d="M241.9126,18.4771 C247.1586,15.1311 251.9276,11.0041 256.0256,6.2681 C280.2106,6.0711 304.4336,10.7971 328.3786,14.2781 C335.5526,15.3221 342.7306,16.3661 349.8366,17.8151 C356.9486,19.2671 363.9886,21.1231 371.1596,22.2361 C377.3836,23.2041 383.6756,23.6071 389.9546,24.0921 C413.0446,25.8701 436.0696,28.7361 458.8056,33.2271" id="Stroke-353"></path>
                    <path d="M297.0151,35.5718 C311.7731,41.2668 326.9701,45.8268 342.4251,49.1988 C342.2581,56.0428 342.8781,62.7258 342.7091,69.5718" id="Stroke-355"></path>
                    <path d="M132.8803,511.5631 L131.3423,511.5631 L107.4923,511.5631 C106.7493,510.7351 107.1983,508.7211 107.5053,507.6421 L107.5053,454.1161" id="Stroke-357"></path>
                    <path d="M127.0185,122.3287 L127.0185,128.1907" id="Stroke-359"></path>
                    <path d="M132.8803,117.6392 L132.8803,123.5012" id="Stroke-361"></path>
                    <path d="M17.9858,431.8404 L17.9858,536.1834" id="Stroke-363"></path>
                    <path d="M66.0542,476.3912 L66.0542,526.8042" id="Stroke-365"></path>
                    <path d="M98.8808,145.8639 L98.8808,147.3749 L98.8808,157.5009 C110.5688,157.5009 120.9738,150.1629 132.3988,147.7699 C163.9188,141.1619 195.4388,134.5549 226.9588,127.9489 C232.0698,126.8779 237.2438,125.7829 241.9128,123.5009" id="Stroke-509"></path>
                    <path d="M49.6406,152.8111 L49.6406,169.2251 C66.5766,169.2251 82.1016,159.5901 98.8806,157.3491" id="Stroke-331"></path>
                    <path d="M82.4672,582.5865 C129.3542,581.7595 176.2642,581.6885 223.1542,582.3675" id="Stroke-141"></path>
                    <path d="M241.9126,581.9068 L246.6026,581.9068" id="Stroke-143"></path>
                    <path d="M281.7744,581.9068 C287.6364,582.0878 293.4974,582.2698 299.3594,582.4498" id="Stroke-145"></path>
                    <path d="M312.2563,583.4625 C377.6443,582.5715 443.0413,583.2315 508.4153,585.4485 L505.7073,585.6405 C513.9133,586.3495 522.1153,587.0605 530.3213,587.7685" id="Stroke-147"></path>
                    <path d="M77.7778,593.6305 L221.9828,593.6305" id="Stroke-161"></path>
                    <path d="M240.7402,593.6305 L245.4302,593.6305" id="Stroke-163"></path>
                    <path d="M280.6015,594.8033 L302.8775,594.8033" id="Stroke-165"></path>
                    <path d="M312.2563,594.8072 L446.2753,594.8072 C467.8413,594.8072 489.4133,594.5962 510.8223,597.0232 C511.4743,597.0982 512.2133,597.2222 512.5623,597.7432 C513.1623,598.6392 512.0893,599.6982 511.1013,600.2112 C505.7353,603.0112 499.3393,603.3382 493.1993,603.6002 C470.3333,604.5752 447.4653,605.5512 424.5993,606.5272" id="Stroke-167"></path>
                    <path d="M496.0302,585.4234 C508.4052,587.5264 521.1812,589.7834 531.6702,596.7834 C533.3042,597.8764 535.0322,599.3864 535.0102,601.3774 C534.9872,603.4434 533.0922,604.9334 531.2982,605.9054 C524.6452,609.5184 516.9662,610.5614 509.4592,611.3114 C479.7992,614.2864 449.9142,613.6664 420.1162,613.0444" id="Stroke-169"></path>
                    <path d="M266.5332,557.2867 L266.5332,574.8727" id="Stroke-181"></path>
                    <path d="M115.2944,570.7183 C118.8984,570.5103 122.5104,570.3893 126.1154,570.1823 L219.6374,570.1823" id="Stroke-259"></path>
                    <path d="M285.2915,155.1559 L285.2915,109.9409 C298.9085,109.9409 312.9165,105.5919 325.7985,101.2259 C325.7985,102.4169 326.3255,103.3839 326.3255,104.5759 L326.3255,145.4589" id="Stroke-33" opacity="0.800000012"></path>
                    <path d="M309.9116,107.0875 L309.9116,148.1215" id="Stroke-35" opacity="0.800000012"></path>
                    <path d="M285.2915,129.3633 C298.1855,124.1763 311.5515,120.2433 325.1525,117.6393" id="Stroke-37" opacity="0.800000012"></path>
                    <path d="M204.3964,346.3507 C202.7594,346.8597 201.0234,346.9577 199.3084,347.0517 C191.0704,347.5027 180.9904,348.6007 172.7414,348.6007 L172.7414,288.1267 C172.8424,286.1387 172.8994,284.1467 173.0004,282.1587 C178.9904,281.4177 185.5114,281.1547 191.5254,280.6267 C191.2854,280.6177 191.0464,280.6097 190.8074,280.6017" id="Stroke-39" opacity="0.800000012"></path>
                    <path d="M176.2587,334.5318 C185.5767,332.4438 194.9667,330.8778 204.3967,329.8428" id="Stroke-41" opacity="0.800000012"></path>
                    <path d="M172.7417,355.3429 C184.6287,355.5449 196.5347,354.4629 208.1957,352.1179 C208.1417,362.8979 209.6177,374.1909 208.8777,384.9449" id="Stroke-43" opacity="0.800000012"></path>
                    <path d="M209.0102,385.7603 C209.6122,398.7753 210.7182,410.2493 210.0512,423.2593 C197.9782,424.9943 184.9292,425.4763 172.7412,425.9783 C173.5502,409.1863 173.9812,392.3763 174.0372,375.5663" id="Stroke-45" opacity="0.800000012"></path>
                    <path d="M176.2587,375.566 C187.0607,372.798 198.0617,371.228 209.0857,370.876" id="Stroke-47" opacity="0.800000012"></path>
                    <path d="M172.7417,409.565 C184.0037,408.093 195.2647,406.622 206.5247,405.153 C207.6947,404.999 209.0857,404.965 210.2587,404.876" id="Stroke-49" opacity="0.800000012"></path>
                    <path d="M306.3945,184.4654 C309.5205,184.6914 312.6475,184.9154 315.7735,185.1394 C315.1895,192.3694 314.8365,199.5124 314.2505,206.7414 C311.9915,206.7414 309.1735,206.7374 306.9145,206.7374" id="Stroke-51" opacity="0.800000012"></path>
                    <path d="M468.6377,118.1465 L468.6377,102.8095 C468.6487,99.9305 468.4977,97.0515 468.1847,94.1915 C479.6147,96.2485 490.5827,104.1435 501.9267,106.6515 C502.7947,113.7815 501.2397,119.8655 500.5787,127.0185" id="Stroke-53" opacity="0.800000012"></path>
                    <path d="M488.375,107.0875 C488.135,110.9875 488.061,114.9025 488.154,118.8115" id="Stroke-55" opacity="0.800000012"></path>
                    <path d="M470.5293,104.7427 C475.9313,106.1977 481.3333,107.6527 486.7353,109.1087 C491.6303,110.4287 497.2203,107.3367 502.1843,106.5697" id="Stroke-57" opacity="0.800000012"></path>
                    <path d="M438.875,121.1563 C439.463,108.1083 440.29,96.6983 440.01,83.6393 C444.547,84.8493 448.059,86.3543 452.597,87.5663 C452.731,88.6093 452.81,89.7833 452.943,90.8263 L452.943,117.5363 L438.875,121.1563 Z" id="Stroke-59" opacity="0.800000012"></path>
                    <path d="M458.8056,116.3765 L458.8056,95.8875 C458.9736,95.3815 459.1446,94.8755 459.3126,94.3695 C460.7056,94.4625 462.1046,94.1145 463.4946,94.2075 C463.1966,102.0205 462.8006,109.8325 462.3116,117.6395" id="Stroke-61" opacity="0.800000012"></path>
                    <path d="M433.0127,125.3174 L433.0127,83.9634 C431.1567,83.5794 429.3367,83.2254 427.5767,82.4674 C427.3397,83.2794 427.1697,84.1274 427.1507,84.9814 L427.1507,127.0184" id="Stroke-63" opacity="0.800000012"></path>
                    <path d="M208.415,429.6861 C200.832,429.0131 193.227,430.2451 185.711,431.4701 C181.522,432.1551 176.987,433.3621 172.742,433.3621 L172.742,489.2881 C175.812,489.2881 180.155,487.3051 183.217,487.0721 C193.032,486.3261 199.269,485.8521 209.086,485.1051 L208.415,429.6861 Z" id="Stroke-65" opacity="0.800000012"></path>
                    <path d="M172.7417,471.7018 C184.8927,470.9048 197.0207,469.3388 209.0857,467.0128" id="Stroke-67" opacity="0.800000012"></path>
                    <path d="M172.7417,451.7711 C184.0737,450.2091 195.4077,448.6451 206.7417,447.0821" id="Stroke-69" opacity="0.800000012"></path>
                    <path d="M190.3276,80.1226 C195.3696,78.2936 200.4536,76.7316 205.5686,75.4336" id="Stroke-71" opacity="0.800000012"></path>
                    <path d="M468.1845,155.1559 C472.1325,155.2979 476.0625,155.6909 479.9085,156.3279" id="Stroke-73" opacity="0.800000012"></path>
                    <path d="M488.1152,162.191 C492.0922,162.169 496.0732,162.567 499.8392,163.362" id="Stroke-75" opacity="0.800000012"></path>
                    <path d="M297.0151,440.0475 C297.1171,458.4145 297.2201,476.7805 297.3221,495.1505 C299.1141,495.1505 301.0841,495.1485 302.8771,495.1485" id="Stroke-149" opacity="0.800000012"></path>
                    <path d="M319.1201,441.2193 C319.6061,458.4253 319.0521,475.6543 317.4611,492.8053 L314.6011,492.8053" id="Stroke-151" opacity="0.800000012"></path>
                    <path d="M298.1875,481.36 C300.1245,481.062 302.0995,481.003 304.0495,481.182" id="Stroke-153" opacity="0.800000012"></path>
                    <path d="M312.2563,479.1275 C313.8353,479.2325 315.4473,479.0985 316.9453,478.7355" id="Stroke-155" opacity="0.800000012"></path>
                    <path d="M297.0151,447.8346 C300.1421,447.5836 303.2691,447.3316 306.3941,447.0816" id="Stroke-157" opacity="0.800000012"></path>
                    <path d="M314.601,443.5641 L319.29,443.5641" id="Stroke-159" opacity="0.800000012"></path>
                    <path d="M209.0102,385.7603 C209.6122,398.7753 210.7182,410.2493 210.0512,423.2593 C197.9782,424.9943 184.9292,425.4763 172.7412,425.9783 C173.5502,409.1863 173.9812,392.3763 174.0372,375.5663" id="Stroke-171" opacity="0.800000012"></path>
                    <path d="M306.3945,184.4654 C309.5205,184.6914 312.6475,184.9154 315.7735,185.1394 C315.1895,192.3694 314.8365,199.5124 314.2505,206.7414 C311.9915,206.7414 309.1735,206.7374 306.9145,206.7374" id="Stroke-173" opacity="0.800000012"></path>
                    <path d="M468.1845,155.1559 C472.1325,155.2979 476.0625,155.6909 479.9085,156.3279" id="Stroke-175" opacity="0.800000012"></path>
                    <path d="M488.1152,162.191 C492.0922,162.169 496.0732,162.567 499.8392,163.362" id="Stroke-177" opacity="0.800000012"></path>
                    <path d="M468.1845,155.1559 L468.1845,230.1889" id="Stroke-367" opacity="0.800000012"></path>
                    <path d="M468.1845,240.7403 L468.1845,314.6013" id="Stroke-369" opacity="0.800000012"></path>
                    <path d="M468.1845,328.67 L468.1845,406.047" id="Stroke-371" opacity="0.800000012"></path>
                    <path d="M470.5293,415.4273 L470.5293,490.4603" id="Stroke-373" opacity="0.800000012"></path>
                    <path d="M481.081,156.3282 L481.081,231.3612" id="Stroke-375" opacity="0.800000012"></path>
                    <path d="M481.081,245.4303 L481.081,319.2903" id="Stroke-377" opacity="0.800000012"></path>
                    <path d="M478.7363,329.8424 L478.7363,404.8754" id="Stroke-379" opacity="0.800000012"></path>
                    <path d="M478.7363,415.4273 L478.7363,492.8053" id="Stroke-381" opacity="0.800000012"></path>
                    <path d="M488.1152,162.19 L488.1152,234.878" id="Stroke-383" opacity="0.800000012"></path>
                    <path d="M499.8393,163.3624 L499.8393,240.7404" id="Stroke-385" opacity="0.800000012"></path>
                    <path d="M488.1152,245.4303 L488.1152,322.8083" id="Stroke-387" opacity="0.800000012"></path>
                    <path d="M498.6665,248.9474 L498.6665,322.8084" id="Stroke-389" opacity="0.800000012"></path>
                    <path d="M488.1152,331.0147 L488.1152,406.0477" id="Stroke-391" opacity="0.800000012"></path>
                    <path d="M499.8393,334.5318 L499.8393,409.5648" id="Stroke-393" opacity="0.800000012"></path>
                    <path d="M488.1152,415.4273 L488.1152,490.4603" id="Stroke-395" opacity="0.800000012"></path>
                    <path d="M499.8393,415.4273 L499.8393,490.4603" id="Stroke-397" opacity="0.800000012"></path>
                    <path d="M511.563,170.3971 L511.563,243.0851" id="Stroke-399" opacity="0.800000012"></path>
                    <path d="M520.9423,172.7418 L520.9423,245.4298" id="Stroke-401" opacity="0.800000012"></path>
                    <path d="M530.3212,175.0865 L530.3212,246.6025" id="Stroke-403" opacity="0.800000012"></path>
                    <path d="M543.2177,177.4312 L543.2177,250.1192" id="Stroke-405" opacity="0.800000012"></path>
                    <path d="M511.563,251.2921 L511.563,325.1521" id="Stroke-407" opacity="0.800000012"></path>
                    <path d="M522.1147,253.6368 L522.1147,327.4978" id="Stroke-409" opacity="0.800000012"></path>
                    <path d="M531.4936,257.1539 L531.4936,331.0149" id="Stroke-411" opacity="0.800000012"></path>
                    <path d="M543.2177,259.4986 L543.2177,332.1866" id="Stroke-413" opacity="0.800000012"></path>
                    <path d="M510.3906,335.7042 L510.3906,409.5652" id="Stroke-415" opacity="0.800000012"></path>
                    <path d="M522.1147,336.8766 L522.1147,411.9096" id="Stroke-417" opacity="0.800000012"></path>
                    <polyline id="Stroke-419" opacity="0.800000012" points="531.4936 339.2213 531.4936 413.0823 532.6656 413.0653"></polyline>
                    <path d="M539.7006,413.0826 L539.7006,340.3936" id="Stroke-421" opacity="0.800000012"></path>
                    <path d="M511.563,417.7721 L511.563,491.6321" id="Stroke-423" opacity="0.800000012"></path>
                    <path d="M522.1147,420.1168 L522.1147,493.9768" id="Stroke-425" opacity="0.800000012"></path>
                    <path d="M530.3212,420.1168 L530.3212,493.9768" id="Stroke-427" opacity="0.800000012"></path>
                    <path d="M539.7006,421.2887 L539.7006,493.9767" id="Stroke-429" opacity="0.800000012"></path>
                    <path d="M190.3276,110.605 L190.3276,66.734 L190.3276,65.187 C195.1686,62.996 200.6246,61.551 205.7576,60.192 C205.7576,61.568 206.7416,62.781 206.7416,64.155 L206.7416,105.939" id="Stroke-431" opacity="0.800000012"></path>
                    <path d="M216.1201,102.398 L216.1201,57.665 C221.7961,57.665 227.0261,52.406 232.4871,50.813 L232.5341,96.739" id="Stroke-433" opacity="0.800000012"></path>
                    <path d="M241.9126,95.3638 L241.9126,53.1878 C246.7316,48.6108 252.9176,45.1058 259.4986,44.9508 C259.2306,54.5548 258.8106,64.1568 258.5416,73.7608 L258.5416,91.7638" id="Stroke-435" opacity="0.800000012"></path>
                    <path d="M211.4306,132.8804 L211.4306,247.7754" id="Stroke-437" opacity="0.800000012"></path>
                    <path d="M176.2587,145.777 C181.7327,143.402 187.4877,141.963 193.2697,140.883 C199.0237,139.809 204.9187,139.057 210.2587,136.398" id="Stroke-439" opacity="0.800000012"></path>
                    <path d="M176.2587,182.1207 C187.6067,176.5157 201.0067,177.7317 212.6027,172.7417" id="Stroke-441" opacity="0.800000012"></path>
                    <path d="M190.3276,195.0172 C196.2336,193.8412 202.1026,192.2782 207.9136,190.3282" id="Stroke-443" opacity="0.800000012"></path>
                    <path d="M176.2587,221.982 L189.1557,220.203 C196.1907,219.233 203.2237,218.263 210.2587,217.293" id="Stroke-445" opacity="0.800000012"></path>
                    <path d="M176.2587,204.3961 C187.0477,201.7411 198.8827,202.6081 209.0857,198.5341" id="Stroke-447" opacity="0.800000012"></path>
                    <path d="M511.563,170.3971 C515.5,170.4771 519.427,170.7961 523.287,171.3521" id="Stroke-449" opacity="0.800000012"></path>
                    <path d="M530.3212,175.0865 C534.3062,175.1015 538.2862,175.4995 542.0452,176.2585" id="Stroke-451" opacity="0.800000012"></path>
                    <path d="M468.1845,231.3614 C472.1385,231.6184 476.0595,232.0104 479.9085,232.5334" id="Stroke-453" opacity="0.800000012"></path>
                    <path d="M488.1152,233.7062 C492.1332,234.8762 496.0602,236.4472 499.8392,238.3952" id="Stroke-455" opacity="0.800000012"></path>
                    <path d="M511.563,240.7403 C514.719,240.8173 517.867,241.1203 520.942,241.6483" id="Stroke-457" opacity="0.800000012"></path>
                    <path d="M530.3212,245.4303 C534.1642,245.9903 538.0892,246.3833 542.0452,246.6023" id="Stroke-459" opacity="0.800000012"></path>
                    <path d="M470.5293,240.7403 C473.6563,241.1063 476.7833,241.4723 479.9083,241.8403" id="Stroke-461" opacity="0.800000012"></path>
                    <path d="M488.1152,245.4303 C492.1172,245.5763 496.0742,245.9733 499.8392,246.6023" id="Stroke-463" opacity="0.800000012"></path>
                    <path d="M510.3906,251.2921 C514.2976,251.6831 518.2046,252.0731 522.1146,252.4641" id="Stroke-465" opacity="0.800000012"></path>
                    <path d="M530.3212,257.1539 L542.0452,258.3259" id="Stroke-467" opacity="0.800000012"></path>
                    <path d="M468.1845,314.6012 C472.0935,316.1642 475.9995,317.7272 479.9085,319.2902" id="Stroke-469" opacity="0.800000012"></path>
                    <path d="M488.1152,319.2906 C491.9692,319.8516 495.8902,320.2446 499.8392,320.4626" id="Stroke-471" opacity="0.800000012"></path>
                    <path d="M511.563,326.3253 C515.471,326.6643 519.377,327.0033 523.287,327.3423" id="Stroke-473" opacity="0.800000012"></path>
                    <path d="M531.4936,328.67 C534.5886,329.114 537.7276,329.382 540.8726,329.472" id="Stroke-475" opacity="0.800000012"></path>
                    <path d="M468.1845,328.67 C471.1225,329.469 474.3465,329.872 477.5635,329.84" id="Stroke-477" opacity="0.800000012"></path>
                    <path d="M488.1152,331.0147 C493.2012,331.2487 498.2822,331.5487 503.3562,331.9147" id="Stroke-479" opacity="0.800000012"></path>
                    <path d="M510.3906,335.7042 C514.2816,336.1462 518.1926,336.4962 522.1146,336.7542" id="Stroke-481" opacity="0.800000012"></path>
                    <path d="M531.4936,339.2213 L540.8726,340.3563" id="Stroke-483" opacity="0.800000012"></path>
                    <path d="M468.1845,404.8756 C472.0605,405.3386 475.9795,405.6196 479.9085,405.7186" id="Stroke-485" opacity="0.800000012"></path>
                    <path d="M488.1152,408.3922 C493.1712,408.8752 498.2562,409.2662 503.3562,409.5652" id="Stroke-487" opacity="0.800000012"></path>
                    <path d="M510.3906,408.3922 C514.3056,408.4562 518.2156,408.6212 522.1146,408.8872" id="Stroke-489" opacity="0.800000012"></path>
                    <path d="M531.4936,409.565 L537.3556,410.31" id="Stroke-491" opacity="0.800000012"></path>
                    <path d="M470.5293,415.4273 C473.6563,415.6623 476.7833,415.9013 479.9083,416.1373" id="Stroke-493" opacity="0.800000012"></path>
                    <path d="M488.1152,415.4273 C492.0212,415.8173 495.9312,416.2073 499.8392,416.5993" id="Stroke-495" opacity="0.800000012"></path>
                    <path d="M510.3906,417.7721 C514.2986,417.9931 518.2076,418.2121 522.1146,418.4331" id="Stroke-497" opacity="0.800000012"></path>
                    <path d="M526.8041,420.1168 C530.7221,420.3378 534.6331,420.6448 538.5281,421.0378" id="Stroke-499" opacity="0.800000012"></path>
                    <path d="M470.5293,486.943 C472.4513,487.421 474.4163,487.723 476.3913,487.843" id="Stroke-501" opacity="0.800000012"></path>
                    <path d="M489.2876,490.4605 C493.1966,490.6025 497.1026,490.7445 501.0116,490.8875" id="Stroke-503" opacity="0.800000012"></path>
                    <path d="M511.563,492.8043 C514.628,493.4363 517.781,493.7833 520.942,493.8323" id="Stroke-505" opacity="0.800000012"></path>
                    <path d="M530.3212,492.8043 C534.2302,492.9963 538.1362,493.1873 542.0452,493.3793" id="Stroke-507" opacity="0.800000012"></path>
                    <path d="M331.0146,146.9493 L331.0146,105.4773 L331.0146,100.2953 C338.9196,97.5923 346.9816,94.1563 355.1786,92.5393 C358.7046,91.8443 362.2806,91.3513 365.7436,90.3853 C368.9846,89.4813 372.0986,88.1703 375.2976,87.1253 C380.3376,85.4803 385.5666,84.4993 390.7976,83.6393 L390.8066,136.0553" id="Stroke-511" opacity="0.800000012"></path>
                    <path d="M285.2915,155.1559 L285.2915,109.9409 C298.9085,109.9409 312.9165,105.5919 325.7985,101.2259 C325.7985,102.4169 326.3255,103.3839 326.3255,104.5759 L326.3255,145.4589" id="Stroke-513" opacity="0.800000012"></path>
                    <path d="M309.9116,107.0875 L309.9116,148.1215" id="Stroke-515" opacity="0.800000012"></path>
                    <path d="M285.2915,129.3633 C298.1855,124.1763 311.5515,120.2433 325.1525,117.6393" id="Stroke-517" opacity="0.800000012"></path>
                    <path d="M204.3964,346.3507 C202.7594,346.8597 201.0234,346.9577 199.3084,347.0517 C191.0704,347.5027 180.9904,348.6007 172.7414,348.6007 L172.7414,288.1267 C172.8424,286.1387 172.8994,284.1467 173.0004,282.1587 C178.9904,281.4177 185.5114,281.1547 191.5254,280.6267 C191.2854,280.6177 191.0464,280.6097 190.8074,280.6017" id="Stroke-519" opacity="0.800000012"></path>
                    <path d="M176.2587,334.5318 C185.5767,332.4438 194.9667,330.8778 204.3967,329.8428" id="Stroke-521" opacity="0.800000012"></path>
                    <path d="M172.7417,355.3429 C184.6287,355.5449 196.5347,354.4629 208.1957,352.1179 C208.1417,362.8979 209.6177,374.1909 208.8777,384.9449" id="Stroke-523" opacity="0.800000012"></path>
                    <path d="M176.2587,375.566 C187.0607,372.798 198.0617,371.228 209.0857,370.876" id="Stroke-525" opacity="0.800000012"></path>
                    <path d="M172.7417,409.565 C184.0037,408.093 195.2647,406.622 206.5247,405.153 C207.6947,404.999 209.0857,404.965 210.2587,404.876" id="Stroke-527" opacity="0.800000012"></path>
                    <path d="M468.6377,118.1465 L468.6377,102.8095 C468.6487,99.9305 468.4977,97.0515 468.1847,94.1915 C479.6147,96.2485 490.5827,104.1435 501.9267,106.6515 C502.7947,113.7815 501.2397,119.8655 500.5787,127.0185" id="Stroke-529" opacity="0.800000012"></path>
                    <path d="M488.375,107.0875 C488.135,110.9875 488.061,114.9025 488.154,118.8115" id="Stroke-531" opacity="0.800000012"></path>
                    <path d="M470.5293,104.7427 C475.9313,106.1977 481.3333,107.6527 486.7353,109.1087 C491.6303,110.4287 497.2203,107.3367 502.1843,106.5697" id="Stroke-533" opacity="0.800000012"></path>
                    <path d="M438.875,121.1563 C439.463,108.1083 440.29,96.6983 440.01,83.6393 C444.547,84.8493 448.059,86.3543 452.597,87.5663 C452.731,88.6093 452.81,89.7833 452.943,90.8263 L452.943,117.5363 L438.875,121.1563 Z" id="Stroke-535" opacity="0.800000012"></path>
                    <path d="M458.8056,116.3765 L458.8056,95.8875 C458.9736,95.3815 459.1446,94.8755 459.3126,94.3695 C460.7056,94.4625 462.1046,94.1145 463.4946,94.2075 C463.1966,102.0205 462.8006,109.8325 462.3116,117.6395" id="Stroke-537" opacity="0.800000012"></path>
                    <path d="M433.0127,125.3174 L433.0127,83.9634 C431.1567,83.5794 429.3367,83.2254 427.5767,82.4674 C427.3397,83.2794 427.1697,84.1274 427.1507,84.9814 L427.1507,127.0184" id="Stroke-539" opacity="0.800000012"></path>
                    <path d="M468.1845,155.1559 L468.1845,230.1889" id="Stroke-541" opacity="0.800000012"></path>
                    <path d="M468.1845,240.7403 L468.1845,314.6013" id="Stroke-543" opacity="0.800000012"></path>
                    <path d="M468.1845,328.67 L468.1845,406.047" id="Stroke-545" opacity="0.800000012"></path>
                    <path d="M470.5293,415.4273 L470.5293,490.4603" id="Stroke-547" opacity="0.800000012"></path>
                    <path d="M481.081,156.3282 L481.081,231.3612" id="Stroke-549" opacity="0.800000012"></path>
                    <path d="M481.081,245.4303 L481.081,319.2903" id="Stroke-551" opacity="0.800000012"></path>
                    <path d="M478.7363,329.8424 L478.7363,404.8754" id="Stroke-553" opacity="0.800000012"></path>
                    <path d="M478.7363,415.4273 L478.7363,492.8053" id="Stroke-555" opacity="0.800000012"></path>
                    <path d="M488.1152,162.19 L488.1152,234.878" id="Stroke-557" opacity="0.800000012"></path>
                    <path d="M499.8393,163.3624 L499.8393,240.7404" id="Stroke-559" opacity="0.800000012"></path>
                    <path d="M488.1152,245.4303 L488.1152,322.8083" id="Stroke-561" opacity="0.800000012"></path>
                    <path d="M498.6665,248.9474 L498.6665,322.8084" id="Stroke-563" opacity="0.800000012"></path>
                    <path d="M488.1152,331.0147 L488.1152,406.0477" id="Stroke-565" opacity="0.800000012"></path>
                    <path d="M499.8393,334.5318 L499.8393,409.5648" id="Stroke-567" opacity="0.800000012"></path>
                    <path d="M488.1152,415.4273 L488.1152,490.4603" id="Stroke-569" opacity="0.800000012"></path>
                    <path d="M499.8393,415.4273 L499.8393,490.4603" id="Stroke-571" opacity="0.800000012"></path>
                    <path d="M511.563,170.3971 L511.563,243.0851" id="Stroke-573" opacity="0.800000012"></path>
                    <path d="M520.9423,172.7418 L520.9423,245.4298" id="Stroke-575" opacity="0.800000012"></path>
                    <path d="M530.3212,175.0865 L530.3212,246.6025" id="Stroke-577" opacity="0.800000012"></path>
                    <path d="M543.2177,177.4312 L543.2177,250.1192" id="Stroke-579" opacity="0.800000012"></path>
                    <path d="M511.563,251.2921 L511.563,325.1521" id="Stroke-581" opacity="0.800000012"></path>
                    <path d="M522.1147,253.6368 L522.1147,327.4978" id="Stroke-583" opacity="0.800000012"></path>
                    <path d="M531.4936,257.1539 L531.4936,331.0149" id="Stroke-585" opacity="0.800000012"></path>
                    <path d="M543.2177,259.4986 L543.2177,332.1866" id="Stroke-587" opacity="0.800000012"></path>
                    <path d="M510.3906,335.7042 L510.3906,409.5652" id="Stroke-589" opacity="0.800000012"></path>
                    <path d="M522.1147,336.8766 L522.1147,411.9096" id="Stroke-591" opacity="0.800000012"></path>
                    <polyline id="Stroke-593" opacity="0.800000012" points="531.4936 339.2213 531.4936 413.0823 532.6656 413.0653"></polyline>
                    <path d="M539.7006,413.0826 L539.7006,340.3936" id="Stroke-595" opacity="0.800000012"></path>
                    <path d="M511.563,417.7721 L511.563,491.6321" id="Stroke-597" opacity="0.800000012"></path>
                    <path d="M522.1147,420.1168 L522.1147,493.9768" id="Stroke-599" opacity="0.800000012"></path>
                    <path d="M530.3212,420.1168 L530.3212,493.9768" id="Stroke-601" opacity="0.800000012"></path>
                    <path d="M539.7006,421.2887 L539.7006,493.9767" id="Stroke-603" opacity="0.800000012"></path>
                    <path d="M208.415,429.6861 C200.832,429.0131 193.227,430.2451 185.711,431.4701 C181.522,432.1551 176.987,433.3621 172.742,433.3621 L172.742,489.2881 C175.812,489.2881 180.155,487.3051 183.217,487.0721 C193.032,486.3261 199.269,485.8521 209.086,485.1051 L208.415,429.6861 Z" id="Stroke-605" opacity="0.800000012"></path>
                    <path d="M172.7417,471.7018 C184.8927,470.9048 197.0207,469.3388 209.0857,467.0128" id="Stroke-607" opacity="0.800000012"></path>
                    <path d="M172.7417,451.7711 C184.0737,450.2091 195.4077,448.6451 206.7417,447.0821" id="Stroke-609" opacity="0.800000012"></path>
                    <path d="M190.3276,110.605 L190.3276,66.734 L190.3276,65.187 C195.1686,62.996 200.6246,61.551 205.7576,60.192 C205.7576,61.568 206.7416,62.781 206.7416,64.155 L206.7416,105.939" id="Stroke-611" opacity="0.800000012"></path>
                    <path d="M216.1201,102.398 L216.1201,57.665 C221.7961,57.665 227.0261,52.406 232.4871,50.813 L232.5341,96.739" id="Stroke-613" opacity="0.800000012"></path>
                    <path d="M241.9126,95.3638 L241.9126,53.1878 C246.7316,48.6108 252.9176,45.1058 259.4986,44.9508 C259.2306,54.5548 258.8106,64.1568 258.5416,73.7608 L258.5416,91.7638" id="Stroke-615" opacity="0.800000012"></path>
                    <path d="M190.3276,80.1226 C195.3696,78.2936 200.4536,76.7316 205.5686,75.4336" id="Stroke-617" opacity="0.800000012"></path>
                    <path d="M211.4306,132.8804 L211.4306,247.7754" id="Stroke-619" opacity="0.800000012"></path>
                    <path d="M176.2587,145.777 C181.7327,143.402 187.4877,141.963 193.2697,140.883 C199.0237,139.809 204.9187,139.057 210.2587,136.398" id="Stroke-621" opacity="0.800000012"></path>
                    <path d="M176.2587,182.1207 C187.6067,176.5157 201.0067,177.7317 212.6027,172.7417" id="Stroke-623" opacity="0.800000012"></path>
                    <path d="M190.3276,195.0172 C196.2336,193.8412 202.1026,192.2782 207.9136,190.3282" id="Stroke-625" opacity="0.800000012"></path>
                    <path d="M176.2587,221.982 L189.1557,220.203 C196.1907,219.233 203.2237,218.263 210.2587,217.293" id="Stroke-627" opacity="0.800000012"></path>
                    <path d="M176.2587,204.3961 C187.0477,201.7411 198.8827,202.6081 209.0857,198.5341" id="Stroke-629" opacity="0.800000012"></path>
                    <path d="M511.563,170.3971 C515.5,170.4771 519.427,170.7961 523.287,171.3521" id="Stroke-631" opacity="0.800000012"></path>
                    <path d="M530.3212,175.0865 C534.3062,175.1015 538.2862,175.4995 542.0452,176.2585" id="Stroke-633" opacity="0.800000012"></path>
                    <path d="M468.1845,231.3614 C472.1385,231.6184 476.0595,232.0104 479.9085,232.5334" id="Stroke-635" opacity="0.800000012"></path>
                    <path d="M488.1152,233.7062 C492.1332,234.8762 496.0602,236.4472 499.8392,238.3952" id="Stroke-637" opacity="0.800000012"></path>
                    <path d="M511.563,240.7403 C514.719,240.8173 517.867,241.1203 520.942,241.6483" id="Stroke-639" opacity="0.800000012"></path>
                    <path d="M530.3212,245.4303 C534.1642,245.9903 538.0892,246.3833 542.0452,246.6023" id="Stroke-641" opacity="0.800000012"></path>
                    <path d="M470.5293,240.7403 C473.6563,241.1063 476.7833,241.4723 479.9083,241.8403" id="Stroke-643" opacity="0.800000012"></path>
                    <path d="M488.1152,245.4303 C492.1172,245.5763 496.0742,245.9733 499.8392,246.6023" id="Stroke-645" opacity="0.800000012"></path>
                    <path d="M510.3906,251.2921 C514.2976,251.6831 518.2046,252.0731 522.1146,252.4641" id="Stroke-647" opacity="0.800000012"></path>
                    <path d="M530.3212,257.1539 L542.0452,258.3259" id="Stroke-649" opacity="0.800000012"></path>
                    <path d="M468.1845,314.6012 C472.0935,316.1642 475.9995,317.7272 479.9085,319.2902" id="Stroke-651" opacity="0.800000012"></path>
                    <path d="M488.1152,319.2906 C491.9692,319.8516 495.8902,320.2446 499.8392,320.4626" id="Stroke-653" opacity="0.800000012"></path>
                    <path d="M511.563,326.3253 C515.471,326.6643 519.377,327.0033 523.287,327.3423" id="Stroke-655" opacity="0.800000012"></path>
                    <path d="M531.4936,328.67 C534.5886,329.114 537.7276,329.382 540.8726,329.472" id="Stroke-657" opacity="0.800000012"></path>
                    <path d="M468.1845,328.67 C471.1225,329.469 474.3465,329.872 477.5635,329.84" id="Stroke-659" opacity="0.800000012"></path>
                    <path d="M488.1152,331.0147 C493.2012,331.2487 498.2822,331.5487 503.3562,331.9147" id="Stroke-661" opacity="0.800000012"></path>
                    <path d="M510.3906,335.7042 C514.2816,336.1462 518.1926,336.4962 522.1146,336.7542" id="Stroke-663" opacity="0.800000012"></path>
                    <path d="M531.4936,339.2213 L540.8726,340.3563" id="Stroke-665" opacity="0.800000012"></path>
                    <path d="M468.1845,404.8756 C472.0605,405.3386 475.9795,405.6196 479.9085,405.7186" id="Stroke-667" opacity="0.800000012"></path>
                    <path d="M488.1152,408.3922 C493.1712,408.8752 498.2562,409.2662 503.3562,409.5652" id="Stroke-669" opacity="0.800000012"></path>
                    <path d="M510.3906,408.3922 C514.3056,408.4562 518.2156,408.6212 522.1146,408.8872" id="Stroke-671" opacity="0.800000012"></path>
                    <path d="M531.4936,409.565 L537.3556,410.31" id="Stroke-673" opacity="0.800000012"></path>
                    <path d="M470.5293,415.4273 C473.6563,415.6623 476.7833,415.9013 479.9083,416.1373" id="Stroke-675" opacity="0.800000012"></path>
                    <path d="M488.1152,415.4273 C492.0212,415.8173 495.9312,416.2073 499.8392,416.5993" id="Stroke-677" opacity="0.800000012"></path>
                    <path d="M510.3906,417.7721 C514.2986,417.9931 518.2076,418.2121 522.1146,418.4331" id="Stroke-679" opacity="0.800000012"></path>
                    <path d="M526.8041,420.1168 C530.7221,420.3378 534.6331,420.6448 538.5281,421.0378" id="Stroke-681" opacity="0.800000012"></path>
                    <path d="M470.5293,486.943 C472.4513,487.421 474.4163,487.723 476.3913,487.843" id="Stroke-683" opacity="0.800000012"></path>
                    <path d="M489.2876,490.4605 C493.1966,490.6025 497.1026,490.7445 501.0116,490.8875" id="Stroke-685" opacity="0.800000012"></path>
                    <path d="M511.563,492.8043 C514.628,493.4363 517.781,493.7833 520.942,493.8323" id="Stroke-687" opacity="0.800000012"></path>
                    <path d="M530.3212,492.8043 C534.2302,492.9963 538.1362,493.1873 542.0452,493.3793" id="Stroke-689" opacity="0.800000012"></path>
                    <path d="M172.7417,273.5675 C180.3267,272.9445 187.8327,271.3645 195.0167,268.8785" id="Stroke-691" opacity="0.800000012"></path>
                    <path d="M130.5356,288.4503 C141.2216,287.5323 151.8216,285.6883 162.1586,282.9463 C162.1586,283.8763 162.1896,284.9123 162.1896,285.8433 L162.1896,334.5323" id="Stroke-693" opacity="0.800000012"></path>
                    <path d="M162.1899,259.4986 C156.6919,260.3106 151.1939,261.1226 145.6799,261.9516 C140.6319,262.6806 135.5839,263.4256 130.5359,264.1876" id="Stroke-695" opacity="0.800000012"></path>
                    <path d="M130.5356,305.2223 C139.9536,304.1633 149.3426,302.5993 158.6726,300.5323" id="Stroke-697" opacity="0.800000012"></path>
                    <path d="M144.6044,286.464 C144.6874,295.061 144.7714,303.659 144.8544,312.256" id="Stroke-699" opacity="0.800000012"></path>
                    <path d="M191.5,346.256 C190.555,337.35 190.179,328.306 190.38,319.291" id="Stroke-701" opacity="0.800000012"></path>
                    <polyline id="Stroke-703" opacity="0.800000012" points="192.8247 354.4625 192.8247 356.7485 192.8247 422.4615 192.6727 422.4615"></polyline>
                    <path d="M161.8598,391.9791 C162.3528,401.6751 162.2938,411.3991 161.6838,421.0891 C157.9848,421.2731 154.1688,421.3301 150.4658,421.2601" id="Stroke-705" opacity="0.800000012"></path>
                    <path d="M164.5351,409.565 C159.5321,410.299 154.3981,410.587 149.2941,410.417" id="Stroke-707" opacity="0.800000012"></path>
                    <path d="M127.0185,445.358 L127.0185,489.288 L159.8545,487.282 L161.0175,436.127 C157.5005,436.127 153.5925,435.358 150.0755,435.358" id="Stroke-709" opacity="0.800000012"></path>
                    <path d="M128.1909,457.6334 C138.6239,454.7834 149.2469,451.9194 159.8449,453.3024" id="Stroke-711" opacity="0.800000012"></path>
                    <path d="M127.0185,475.2193 C134.5185,473.9933 142.0195,472.7693 149.5185,471.5443 C152.5425,471.0503 155.5875,470.5543 158.6725,470.5303" id="Stroke-713" opacity="0.800000012"></path>
                    <path d="M144.6044,489.2877 L144.6044,440.0477" id="Stroke-715" opacity="0.800000012"></path>
                    <path d="M190.3276,485.7701 L190.3276,430.6681" id="Stroke-717" opacity="0.800000012"></path>
                    <path d="M216.1201,71.9161 L231.3611,67.2261" id="Stroke-719" opacity="0.800000012"></path>
                    <path d="M241.9126,66.0543 C247.4206,64.8393 252.8966,63.2743 258.3266,61.3643" id="Stroke-721" opacity="0.800000012"></path>
                    <polyline id="Stroke-723" opacity="0.800000012" points="130.5356 155.1559 130.5356 156.7309 130.5356 205.5689"></polyline>
                    <path d="M130.5356,279.4293 L130.5356,212.6033" id="Stroke-725" opacity="0.800000012"></path>
                    <path d="M130.5356,289.9811 L130.5356,309.9121" id="Stroke-727" opacity="0.800000012"></path>
                    <path d="M172.7417,205.5689 L172.7417,272.3949" id="Stroke-729" opacity="0.800000012"></path>
                    <path d="M176.2587,144.6041 L176.2587,195.0171" id="Stroke-731" opacity="0.800000012"></path>
                    <path d="M130.5356,213.9244 C140.3876,210.2874 151.7656,211.9884 161.9836,209.0864 L162.1896,274.9514 C158.9646,276.8864 155.2136,276.8864 151.4636,277.3704 C149.3346,277.6354 147.2686,278.2754 145.1866,278.8064 C140.4036,280.0084 135.4616,280.6164 130.5356,280.601671" id="Stroke-733" opacity="0.800000012"></path>
                    <path d="M162.1899,198.5343 C157.3189,200.1533 152.2359,201.2003 147.1039,202.0373 C144.1719,202.5123 141.2069,202.9303 138.2579,203.3353 C135.6839,203.6843 133.1099,204.0333 130.5359,204.3963" id="Stroke-735" opacity="0.800000012"></path>
                    <path d="M162.9135,196.1895 C163.5515,191.2105 163.3915,186.1515 163.1525,181.1255 C162.6265,169.8065 162.2915,158.2045 161.1435,146.9495 C158.4345,147.8815 155.7395,148.8145 153.0455,149.7315 C151.2915,150.3325 149.5545,150.9485 147.7685,151.3755 C147.4345,151.4545 147.0825,151.5335 146.7485,151.5965 C141.3925,152.7035 135.7325,152.4975 130.5355,154.0945" id="Stroke-737" opacity="0.800000012"></path>
                    <path d="M176.2587,196.1895 C180.8047,195.0955 186.8347,194.8345 191.0407,192.8975 C194.4457,191.3275 193.7957,190.5315 193.7937,186.7235 C193.7927,182.0675 193.7937,177.4145 193.7937,172.7595 C193.6107,162.2025 193.5387,151.6445 193.3557,141.0865" id="Stroke-739" opacity="0.800000012"></path>
                    <path d="M146.9492,152.8111 L146.9492,202.0511" id="Stroke-741" opacity="0.800000012"></path>
                    <path d="M163.3627,184.4654 C158.2177,186.4654 152.5917,187.2714 146.8847,187.9244 C141.3867,188.5664 135.8087,189.0574 130.5357,190.3274" id="Stroke-743" opacity="0.800000012"></path>
                    <path d="M158.6728,225.4996 C154.1898,227.1056 149.4228,227.9096 144.5668,228.5116 C139.9048,229.0906 135.1528,229.4686 130.5358,230.1886" id="Stroke-745" opacity="0.800000012"></path>
                    <polyline id="Stroke-747" opacity="0.800000012" points="144.6044 211.4308 144.6044 216.1478 144.6044 278.2568"></polyline>
                    <path d="M192.6723,202.0514 L192.6723,268.8784" id="Stroke-749" opacity="0.800000012"></path>
                    <path d="M67.2265,184.4659 C77.5435,179.8669 88.1205,175.9489 98.8805,172.7419" id="Stroke-751" opacity="0.800000012"></path>
                    <path d="M87.1801,162.19 C87.0731,175.484 87.3411,188.782 87.9821,202.051" id="Stroke-753" opacity="0.800000012"></path>
                </g>
                <g id="people" mask="url(#mask-2)" stroke="#6A6A6A" stroke-linecap="round" stroke-linejoin="round" stroke-width="0.8">
                    <g transform="translate(217.000000, 551.000000)">
                        <path d="M19.4472,14.3033 C19.4472,14.3033 23.7402,10.3933 23.7402,6.2883 C23.7402,2.1843 20.2272,0.4243 17.4952,0.4243 C13.4462,0.4243 11.6412,6.8743 11.6412,11.5663 C11.6412,16.2573 9.1042,14.9563 8.3232,17.6263 C7.6362,19.9703 5.7972,39.4643 9.4412,48.5513 C9.8642,49.6093 9.9812,50.7513 9.8582,51.8823 C8.7952,61.7223 -0.6558,96.5273 0.3702,96.3653 C5.8832,95.4843 16.9102,60.2403 16.9102,56.9163 C21.7062,67.2433 13.2502,89.2293 17.0552,94.6053 C19.1052,97.7333 23.0082,97.7333 23.0082,97.7333 C23.0082,97.7333 20.8582,95.0403 20.1772,94.0193 C18.8112,91.9653 22.4152,77.6493 22.7152,71.9303 C23.1052,64.5023 24.4712,34.7903 22.5192,27.1663" id="Stroke-135"></path>
                        <path d="M41.3506,97.6021 C41.3506,97.6021 45.4356,91.9891 45.3046,86.5041 C45.1726,81.0211 43.9916,59.6071 45.3076,54.9071 C46.6216,50.2061 48.9936,38.7161 48.2036,30.2291 C47.4126,21.7441 40.5596,21.7441 40.5596,18.6101 C40.5596,15.4761 44.7776,16.1281 45.0396,9.6011 C45.3046,3.0721 36.7376,3.9851 36.7376,3.9851 C36.7376,3.9851 33.0476,5.4221 33.4436,8.8171 C33.8386,12.2111 35.9466,13.5181 34.7606,14.8231 C33.5746,16.1281 29.2256,18.0861 28.9636,21.6121 C28.6996,25.1371 27.9086,61.3051 28.9636,65.6141 C30.0166,69.9231 35.1566,88.8551 33.5746,97.6021 C35.1566,98.3861 37.1326,95.6441 37.6616,89.3761 C38.1876,83.1091 36.4746,63.3941 38.9786,55.0391 C38.9786,63.0021 40.4286,75.1451 40.5596,79.1921 C40.6906,83.2411 40.4286,96.4271 41.3506,97.6021 Z" id="Stroke-137"></path>
                        <path d="M62.872,18.4371 C62.872,16.5891 64.217,15.3001 64.217,11.4781 C64.217,7.6551 59.221,7.4581 58.644,7.4581 C58.068,7.4581 52.208,8.7341 52.208,15.7911 C52.208,19.7101 57.011,20.6911 57.011,22.7491 C57.011,25.6421 50.671,32.1601 50.671,41.0811 C50.671,41.0811 48.556,55.4891 50.093,62.1551 C51.632,68.8201 47.692,71.1721 60.279,96.5601 C64.697,83.9151 56.531,71.7601 56.339,66.6641 C56.244,59.2131 61.143,57.6451 61.624,53.2341 C62.103,48.8241 65.947,33.3361 65.947,24.6131 C65.947,19.9071 62.872,20.1681 62.872,18.4371 Z" id="Stroke-139"></path>
                    </g>
                </g>
            </g>
        </g>
    </g>
</svg>