<?xml version="1.0" encoding="UTF-8"?>
<svg width="572px" height="614px" viewBox="0 0 572 614" version="1.1" xmlns="http://www.w3.org/2000/svg" xmlns:xlink="http://www.w3.org/1999/xlink">
    <!-- Generator: Sketch 52 (66869) - http://www.bohemiancoding.com/sketch -->
    <title>all_works</title>
    <desc>Created with Sketch.</desc>
    <defs>
        <rect id="path-1" x="0" y="0" width="572" height="649"></rect>
    </defs>
    <g id="Page-1" stroke="none" stroke-width="1" fill="none" fill-rule="evenodd">
        <g id="Artboard-1-Copy">
            <g id="all_works">
                <mask id="mask-2" fill="white">
                    <use xlink:href="#path-1"></use>
                </mask>
                <use id="Mask" fill-opacity="0" fill="#FFFFFF" fill-rule="nonzero" xlink:href="#path-1"></use>
                <g mask="url(#mask-2)" stroke="#70513F" stroke-linecap="round" stroke-linejoin="round" stroke-width="0.8">
                    <path d="M241.9126,425.4254 C245.1806,425.2324 248.4496,425.0394 251.7166,424.8434 C256.2156,424.5784 260.8496,425.7994 265.3606,425.7154" id="Stroke-109"></path>
                    <path d="M241.9126,418.4264 C244.9336,418.0994 247.9736,417.8894 251.0196,417.7934 C255.7376,417.6424 260.6386,418.3284 265.3606,418.4424" id="Stroke-111"></path>
                    <path d="M253.6367,417.7721 L253.6367,427.1511" id="Stroke-113"></path>
                    <path d="M127.0185,156.3282 L127.0185,311.0842" id="Stroke-245"></path>
                    <path d="M112.9497,512.7359 L112.9497,557.2869" id="Stroke-247"></path>
                    <path d="M422.4614,574.8726 C459.0404,575.9666 495.6184,577.0606 532.1954,578.1536 C531.5674,582.3296 532.1374,585.9206 532.6664,590.1136" id="Stroke-249"></path>
                    <path d="M461.1504,570.1822 L461.1504,574.8722" id="Stroke-251"></path>
                    <path d="M420.1167,57.8472 C418.8717,74.5032 418.0197,91.1942 417.6607,107.8962 L417.6607,129.3632 L415.4267,129.2322" id="Stroke-253"></path>
                    <path d="M471.7016,557.2867 L471.7016,563.1477 L532.2766,563.1477 C545.3226,563.1477 558.3096,561.2867 571.3546,561.0897" id="Stroke-261"></path>
                    <path d="M461.1504,565.4928 L472.8744,565.4928" id="Stroke-263"></path>
                    <path d="M531.4936,565.4928 L531.4936,577.2178" id="Stroke-265"></path>
                    <path d="M421.289,51.9854 C450.258,57.0164 478.445,66.5454 504.529,80.1224" id="Stroke-267"></path>
                    <path d="M420.1167,57.8472 C450.0587,66.4652 479.7727,75.8492 509.2187,85.9852" id="Stroke-269"></path>
                    <path d="M458.8056,504.5289 C459.1956,526.4139 459.5866,548.2979 459.9776,570.1829" id="Stroke-273"></path>
                    <path d="M417.7715,504.5289 C418.2855,521.1079 418.3545,572.4689 418.3545,572.4689 C421.3465,572.5999 420.1465,572.4689 421.9805,572.4689 C423.1845,550.0309 423.7315,527.5339 423.6195,505.0439" id="Stroke-275"></path>
                    <path d="M241.913,123.501 C236.639,156.975 235.975,190.726 239.11,224.327" id="Stroke-277"></path>
                    <path d="M237.2231,123.501 C245.0711,124.364 252.8781,125.607 260.6131,127.227 C260.9371,138.387 259.8031,149.855 259.5891,161.018" id="Stroke-281"></path>
                    <path d="M458.8056,117.6392 C469.3566,119.5422 479.9196,121.4502 490.2726,124.2552 C510.1736,129.6442 529.1166,138.3032 549.0796,143.4322" id="Stroke-283"></path>
                    <path d="M461.1504,123.501 C474.3894,126.018 487.6604,128.541 500.5524,132.538 C517.7184,137.858 534.0914,145.752 551.4244,150.466" id="Stroke-285"></path>
                    <path d="M461.1504,132.8804 C489.2404,140.2744 517.0214,148.8824 544.3904,158.6734" id="Stroke-287"></path>
                    <path d="M462.3227,502.1842 C490.0167,505.1192 517.7867,506.6812 545.5627,506.8732" id="Stroke-289"></path>
                    <path d="M241.9126,404.8756 L241.9126,509.2186" id="Stroke-291"></path>
                    <path d="M260.6709,162.19 L260.6709,211.431" id="Stroke-293"></path>
                    <path d="M266.5332,404.8756 L266.5332,504.5286" id="Stroke-295"></path>
                    <path d="M241.9126,425.4254 C245.1806,425.2324 248.4496,425.0394 251.7166,424.8434 C256.2156,424.5784 260.8496,425.7994 265.3606,425.7154" id="Stroke-297"></path>
                    <path d="M241.9126,418.4264 C244.9336,418.0994 247.9736,417.8894 251.0196,417.7934 C255.7376,417.6424 260.6386,418.3284 265.3606,418.4424" id="Stroke-299"></path>
                    <path d="M253.6367,417.7721 L253.6367,427.1511" id="Stroke-301"></path>
                    <path d="M260.6709,161.4913 C269.1469,161.0413 277.5509,159.2913 285.4969,156.3243 C290.1729,154.5763 294.7019,152.4083 299.5099,151.0643 C306.7239,149.0483 314.3169,148.9523 321.7369,147.9293 C332.3669,146.4633 342.6459,143.0903 353.2189,141.2723 C360.7989,139.9703 368.4949,139.4743 376.0969,138.3173 C383.2269,137.2343 390.2549,135.5733 397.2739,133.9153 C417.1129,129.2263 439.3199,122.3263 459.1609,117.6393 C460.9639,162.8383 462.4399,208.1163 460.1359,253.2933 C458.4419,286.5003 458.4119,320.7833 459.2439,354.0233 C460.2269,393.3303 461.2099,432.6363 462.1919,471.9433 C462.4069,480.5003 462.6089,489.1773 460.5799,497.4943" id="Stroke-303"></path>
                    <path d="M150.4663,78.9503 C155.8243,75.2563 161.2023,71.5473 166.0253,67.1673 C171.1743,62.4863 175.6303,57.0953 180.3193,51.9483 C192.3083,38.7903 205.8663,27.1973 219.3843,15.6413 C244.6693,22.4323 269.3833,28.8583 294.6703,35.6503" id="Stroke-305"></path>
                    <path d="M159.8452,78.3199 C181.9542,60.4979 202.8242,41.1069 222.2482,20.3309 C243.9552,25.9259 265.5422,31.5619 287.2502,37.1579 C288.0132,52.9829 289.2182,70.1609 289.9812,85.9849" id="Stroke-307"></path>
                    <path d="M295.622,83.6397 C294.914,66.8517 294.6,50.0377 294.684,33.2267" id="Stroke-309"></path>
                    <path d="M132.8803,506.8736 L238.8233,506.8736 C248.6383,506.8736 260.3263,503.6546 270.0733,502.7106 L308.7393,502.1846" id="Stroke-313"></path>
                    <polyline id="Stroke-315" points="312.2563 506.8736 458.8053 506.8736 458.7463 502.1846"></polyline>
                    <path d="M267.8481,93.2764 C267.6781,96.1134 267.9511,101.2424 267.7801,104.0794 C260.2051,103.2624 254.6691,100.5024 247.1881,101.8294 C239.3371,103.2214 228.5961,105.7864 220.8351,107.6034 C205.5191,111.1884 192.7131,114.2204 175.8891,118.5304 C154.3421,124.0514 133.4901,130.2854 111.6321,135.8974 C106.0351,137.3334 101.0481,139.0844 95.4101,140.3514 C89.6541,141.6444 80.9711,141.9364 75.7161,144.6044 C75.4101,142.5474 75.3511,140.4554 75.5431,138.3864 C93.1611,134.3894 110.7251,131.8754 128.1311,127.0514 C164.0961,117.0814 200.9071,109.7244 236.8831,99.7914 C258.3391,93.8674 280.7421,91.5784 301.9111,84.7224 C315.4281,80.3444 328.5001,73.4364 342.7121,73.1044 C349.3131,72.9494 354.5361,67.9384 360.8411,65.9894 C369.2071,63.4034 377.5881,60.8144 386.1601,59.0064 C397.2151,56.6764 408.7231,55.5994 418.9441,50.8134" id="Stroke-317"></path>
                    <path d="M458.8056,27.8292 C465.5986,29.8942 472.3486,32.0842 479.0476,34.3992 C499.0676,26.9812 519.8036,21.0722 540.8726,16.8132" id="Stroke-323"></path>
                    <path d="M458.8056,34.3995 C462.8666,38.0585 468.3686,39.5675 473.6356,41.0415 C502.2916,49.0585 530.2986,59.3965 557.2866,71.9165" id="Stroke-325"></path>
                    <path d="M146.9492,94.1915 C144.2602,97.1365 141.5112,100.1325 138.0022,102.1595 C136.1382,103.2345 134.0752,104.0285 132.4262,105.3805 C131.1762,106.4065 130.1942,107.7285 128.8132,108.5875 C127.0382,109.6945 124.6062,110.0565 123.5012,111.7775" id="Stroke-327"></path>
                    <path d="M77.246,141.087 C73.193,142.13 69.135,143.173 65.177,144.529 C62.927,145.297 60.712,146.169 58.428,146.828 C54.933,147.837 51.286,148.349 47.896,149.664 C45.821,150.467 43.742,151.589 41.522,151.417 C41.581,153.108 41.316,154.648 41.5,156.328 C45.383,156.055 48.929,154.648 52.596,153.352 C57.384,151.66 62.42,150.745 67.22,149.089 C70.702,147.887 74.109,146.284 77.778,145.938" id="Stroke-329"></path>
                    <path d="M6.5048,238.3956 C5.8818,232.6616 5.4098,226.9116 5.0898,221.1546 C16.6178,216.5836 28.9468,213.6206 41.3418,212.4806 C50.3268,211.6546 59.4998,211.7406 68.1668,209.2876 C72.2078,208.1436 76.0718,206.4616 80.0878,205.2326 C83.0048,204.3406 85.9928,203.6876 88.9788,203.0386 C92.2788,202.3186 95.5808,201.5986 98.8808,200.8786" id="Stroke-333"></path>
                    <polyline id="Stroke-335" points="66.0542 166.88 66.0542 167.07 66.0542 207.914"></polyline>
                    <path d="M98.8808,219.6373 C68.0358,227.3773 36.6648,233.0803 5.0478,236.6953 C3.8248,236.6953 2.6698,238.2953 1.4468,238.2953 C1.2948,260.5023 0.5528,282.7073 0.3998,304.9133 L0.3998,581.9073" id="Stroke-337"></path>
                    <path d="M20.3305,356.8072 L20.3305,250.4912 C37.6325,250.4912 55.8615,245.1752 72.2485,239.5682 C72.7795,256.6862 73.7285,273.8232 74.2605,290.9412 L74.2605,300.8492" id="Stroke-339"></path>
                    <path d="M164.5346,510.3902 L164.5346,510.7822 L164.5346,570.1832 L191.8976,570.1832 C193.0766,570.1832 195.0226,570.0172 196.1896,570.1832 L196.1896,511.1652" id="Stroke-341"></path>
                    <path d="M156.3281,77.7779 C157.2231,90.9879 157.6071,104.3229 157.4751,117.6389" id="Stroke-343"></path>
                    <path d="M150.4663,75.4332 C150.7183,89.1112 150.9713,102.7892 151.2233,116.4672" id="Stroke-345"></path>
                    <path d="M146.4692,104.5909 C139.1402,110.8199 131.5722,116.7379 123.7852,122.3289 C124.2132,119.8009 122.9122,116.9959 123.8492,114.5569 C124.7042,112.3299 126.9862,111.7409 128.1812,109.8559 C130.5022,106.1979 131.3092,100.6329 132.5132,96.4609 C136.1552,83.8419 138.5392,70.8249 139.6152,57.6949 C149.2442,55.5079 158.1222,54.0409 167.7532,51.8549 C170.1692,51.3069 172.6142,50.7539 175.0862,50.8179" id="Stroke-347"></path>
                    <path d="M100.0532,158.6729 L100.0532,293.4979" id="Stroke-349"></path>
                    <path d="M237.2231,17.4771 C243.4361,12.4331 249.0591,6.6911 253.9461,0.4001 C275.2761,0.6161 296.4641,4.6741 317.6021,7.4821 C324.3651,8.3821 331.1291,9.2811 337.8931,10.1801 C345.7331,11.2221 353.5731,12.2641 361.4141,13.3061 C393.9321,17.6271 426.4581,21.9511 458.8061,27.3651" id="Stroke-351"></path>
                    <path d="M241.9126,18.4771 C247.1586,15.1311 251.9276,11.0041 256.0256,6.2681 C280.2106,6.0711 304.4336,10.7971 328.3786,14.2781 C335.5526,15.3221 342.7306,16.3661 349.8366,17.8151 C356.9486,19.2671 363.9886,21.1231 371.1596,22.2361 C377.3836,23.2041 383.6756,23.6071 389.9546,24.0921 C413.0446,25.8701 436.0696,28.7361 458.8056,33.2271" id="Stroke-353"></path>
                    <path d="M297.0151,35.5718 C311.7731,41.2668 326.9701,45.8268 342.4251,49.1988 C342.2581,56.0428 342.8781,62.7258 342.7091,69.5718" id="Stroke-355"></path>
                    <path d="M132.8803,511.5631 L131.3423,511.5631 L107.4923,511.5631 C106.7493,510.7351 107.1983,508.7211 107.5053,507.6421 L107.5053,454.1161" id="Stroke-357"></path>
                    <path d="M127.0185,122.3287 L127.0185,128.1907" id="Stroke-359"></path>
                    <path d="M132.8803,117.6392 L132.8803,123.5012" id="Stroke-361"></path>
                    <path d="M17.9858,431.8404 L17.9858,536.1834" id="Stroke-363"></path>
                    <path d="M66.0542,476.3912 L66.0542,526.8042" id="Stroke-365"></path>
                    <path d="M98.8808,145.8639 L98.8808,147.3749 L98.8808,157.5009 C110.5688,157.5009 120.9738,150.1629 132.3988,147.7699 C163.9188,141.1619 195.4388,134.5549 226.9588,127.9489 C232.0698,126.8779 237.2438,125.7829 241.9128,123.5009" id="Stroke-509"></path>
                    <path d="M49.6406,152.8111 L49.6406,169.2251 C66.5766,169.2251 82.1016,159.5901 98.8806,157.3491" id="Stroke-331"></path>
                    <path d="M82.4672,582.5865 C129.3542,581.7595 176.2642,581.6885 223.1542,582.3675" id="Stroke-141"></path>
                    <path d="M241.9126,581.9068 L246.6026,581.9068" id="Stroke-143"></path>
                    <path d="M281.7744,581.9068 C287.6364,582.0878 293.4974,582.2698 299.3594,582.4498" id="Stroke-145"></path>
                    <path d="M312.2563,583.4625 C377.6443,582.5715 443.0413,583.2315 508.4153,585.4485 L505.7073,585.6405 C513.9133,586.3495 522.1153,587.0605 530.3213,587.7685" id="Stroke-147"></path>
                    <path d="M77.7778,593.6305 L221.9828,593.6305" id="Stroke-161"></path>
                    <path d="M240.7402,593.6305 L245.4302,593.6305" id="Stroke-163"></path>
                    <path d="M280.6015,594.8033 L302.8775,594.8033" id="Stroke-165"></path>
                    <path d="M312.2563,594.8072 L446.2753,594.8072 C467.8413,594.8072 489.4133,594.5962 510.8223,597.0232 C511.4743,597.0982 512.2133,597.2222 512.5623,597.7432 C513.1623,598.6392 512.0893,599.6982 511.1013,600.2112 C505.7353,603.0112 499.3393,603.3382 493.1993,603.6002 C470.3333,604.5752 447.4653,605.5512 424.5993,606.5272" id="Stroke-167"></path>
                    <path d="M496.0302,585.4234 C508.4052,587.5264 521.1812,589.7834 531.6702,596.7834 C533.3042,597.8764 535.0322,599.3864 535.0102,601.3774 C534.9872,603.4434 533.0922,604.9334 531.2982,605.9054 C524.6452,609.5184 516.9662,610.5614 509.4592,611.3114 C479.7992,614.2864 449.9142,613.6664 420.1162,613.0444" id="Stroke-169"></path>
                    <path d="M266.5332,557.2867 L266.5332,574.8727" id="Stroke-181"></path>
                    <path d="M115.2944,570.7183 C118.8984,570.5103 122.5104,570.3893 126.1154,570.1823 L219.6374,570.1823" id="Stroke-259"></path>
                    <path d="M285.2915,155.1559 L285.2915,109.9409 C298.9085,109.9409 312.9165,105.5919 325.7985,101.2259 C325.7985,102.4169 326.3255,103.3839 326.3255,104.5759 L326.3255,145.4589" id="Stroke-33" opacity="0.800000012"></path>
                    <path d="M309.9116,107.0875 L309.9116,148.1215" id="Stroke-35" opacity="0.800000012"></path>
                    <path d="M285.2915,129.3633 C298.1855,124.1763 311.5515,120.2433 325.1525,117.6393" id="Stroke-37" opacity="0.800000012"></path>
                    <path d="M204.3964,346.3507 C202.7594,346.8597 201.0234,346.9577 199.3084,347.0517 C191.0704,347.5027 180.9904,348.6007 172.7414,348.6007 L172.7414,288.1267 C172.8424,286.1387 172.8994,284.1467 173.0004,282.1587 C178.9904,281.4177 185.5114,281.1547 191.5254,280.6267 C191.2854,280.6177 191.0464,280.6097 190.8074,280.6017" id="Stroke-39" opacity="0.800000012"></path>
                    <path d="M176.2587,334.5318 C185.5767,332.4438 194.9667,330.8778 204.3967,329.8428" id="Stroke-41" opacity="0.800000012"></path>
                    <path d="M172.7417,355.3429 C184.6287,355.5449 196.5347,354.4629 208.1957,352.1179 C208.1417,362.8979 209.6177,374.1909 208.8777,384.9449" id="Stroke-43" opacity="0.800000012"></path>
                    <path d="M209.0102,385.7603 C209.6122,398.7753 210.7182,410.2493 210.0512,423.2593 C197.9782,424.9943 184.9292,425.4763 172.7412,425.9783 C173.5502,409.1863 173.9812,392.3763 174.0372,375.5663" id="Stroke-45" opacity="0.800000012"></path>
                    <path d="M176.2587,375.566 C187.0607,372.798 198.0617,371.228 209.0857,370.876" id="Stroke-47" opacity="0.800000012"></path>
                    <path d="M172.7417,409.565 C184.0037,408.093 195.2647,406.622 206.5247,405.153 C207.6947,404.999 209.0857,404.965 210.2587,404.876" id="Stroke-49" opacity="0.800000012"></path>
                    <path d="M306.3945,184.4654 C309.5205,184.6914 312.6475,184.9154 315.7735,185.1394 C315.1895,192.3694 314.8365,199.5124 314.2505,206.7414 C311.9915,206.7414 309.1735,206.7374 306.9145,206.7374" id="Stroke-51" opacity="0.800000012"></path>
                    <path d="M468.6377,118.1465 L468.6377,102.8095 C468.6487,99.9305 468.4977,97.0515 468.1847,94.1915 C479.6147,96.2485 490.5827,104.1435 501.9267,106.6515 C502.7947,113.7815 501.2397,119.8655 500.5787,127.0185" id="Stroke-53" opacity="0.800000012"></path>
                    <path d="M488.375,107.0875 C488.135,110.9875 488.061,114.9025 488.154,118.8115" id="Stroke-55" opacity="0.800000012"></path>
                    <path d="M470.5293,104.7427 C475.9313,106.1977 481.3333,107.6527 486.7353,109.1087 C491.6303,110.4287 497.2203,107.3367 502.1843,106.5697" id="Stroke-57" opacity="0.800000012"></path>
                    <path d="M438.875,121.1563 C439.463,108.1083 440.29,96.6983 440.01,83.6393 C444.547,84.8493 448.059,86.3543 452.597,87.5663 C452.731,88.6093 452.81,89.7833 452.943,90.8263 L452.943,117.5363 L438.875,121.1563 Z" id="Stroke-59" opacity="0.800000012"></path>
                    <path d="M458.8056,116.3765 L458.8056,95.8875 C458.9736,95.3815 459.1446,94.8755 459.3126,94.3695 C460.7056,94.4625 462.1046,94.1145 463.4946,94.2075 C463.1966,102.0205 462.8006,109.8325 462.3116,117.6395" id="Stroke-61" opacity="0.800000012"></path>
                    <path d="M433.0127,125.3174 L433.0127,83.9634 C431.1567,83.5794 429.3367,83.2254 427.5767,82.4674 C427.3397,83.2794 427.1697,84.1274 427.1507,84.9814 L427.1507,127.0184" id="Stroke-63" opacity="0.800000012"></path>
                    <path d="M208.415,429.6861 C200.832,429.0131 193.227,430.2451 185.711,431.4701 C181.522,432.1551 176.987,433.3621 172.742,433.3621 L172.742,489.2881 C175.812,489.2881 180.155,487.3051 183.217,487.0721 C193.032,486.3261 199.269,485.8521 209.086,485.1051 L208.415,429.6861 Z" id="Stroke-65" opacity="0.800000012"></path>
                    <path d="M172.7417,471.7018 C184.8927,470.9048 197.0207,469.3388 209.0857,467.0128" id="Stroke-67" opacity="0.800000012"></path>
                    <path d="M172.7417,451.7711 C184.0737,450.2091 195.4077,448.6451 206.7417,447.0821" id="Stroke-69" opacity="0.800000012"></path>
                    <path d="M190.3276,80.1226 C195.3696,78.2936 200.4536,76.7316 205.5686,75.4336" id="Stroke-71" opacity="0.800000012"></path>
                    <path d="M468.1845,155.1559 C472.1325,155.2979 476.0625,155.6909 479.9085,156.3279" id="Stroke-73" opacity="0.800000012"></path>
                    <path d="M488.1152,162.191 C492.0922,162.169 496.0732,162.567 499.8392,163.362" id="Stroke-75" opacity="0.800000012"></path>
                    <path d="M297.0151,440.0475 C297.1171,458.4145 297.2201,476.7805 297.3221,495.1505 C299.1141,495.1505 301.0841,495.1485 302.8771,495.1485" id="Stroke-149" opacity="0.800000012"></path>
                    <path d="M319.1201,441.2193 C319.6061,458.4253 319.0521,475.6543 317.4611,492.8053 L314.6011,492.8053" id="Stroke-151" opacity="0.800000012"></path>
                    <path d="M298.1875,481.36 C300.1245,481.062 302.0995,481.003 304.0495,481.182" id="Stroke-153" opacity="0.800000012"></path>
                    <path d="M312.2563,479.1275 C313.8353,479.2325 315.4473,479.0985 316.9453,478.7355" id="Stroke-155" opacity="0.800000012"></path>
                    <path d="M297.0151,447.8346 C300.1421,447.5836 303.2691,447.3316 306.3941,447.0816" id="Stroke-157" opacity="0.800000012"></path>
                    <path d="M314.601,443.5641 L319.29,443.5641" id="Stroke-159" opacity="0.800000012"></path>
                    <path d="M209.0102,385.7603 C209.6122,398.7753 210.7182,410.2493 210.0512,423.2593 C197.9782,424.9943 184.9292,425.4763 172.7412,425.9783 C173.5502,409.1863 173.9812,392.3763 174.0372,375.5663" id="Stroke-171" opacity="0.800000012"></path>
                    <path d="M306.3945,184.4654 C309.5205,184.6914 312.6475,184.9154 315.7735,185.1394 C315.1895,192.3694 314.8365,199.5124 314.2505,206.7414 C311.9915,206.7414 309.1735,206.7374 306.9145,206.7374" id="Stroke-173" opacity="0.800000012"></path>
                    <path d="M468.1845,155.1559 C472.1325,155.2979 476.0625,155.6909 479.9085,156.3279" id="Stroke-175" opacity="0.800000012"></path>
                    <path d="M488.1152,162.191 C492.0922,162.169 496.0732,162.567 499.8392,163.362" id="Stroke-177" opacity="0.800000012"></path>
                    <path d="M468.1845,155.1559 L468.1845,230.1889" id="Stroke-367" opacity="0.800000012"></path>
                    <path d="M468.1845,240.7403 L468.1845,314.6013" id="Stroke-369" opacity="0.800000012"></path>
                    <path d="M468.1845,328.67 L468.1845,406.047" id="Stroke-371" opacity="0.800000012"></path>
                    <path d="M470.5293,415.4273 L470.5293,490.4603" id="Stroke-373" opacity="0.800000012"></path>
                    <path d="M481.081,156.3282 L481.081,231.3612" id="Stroke-375" opacity="0.800000012"></path>
                    <path d="M481.081,245.4303 L481.081,319.2903" id="Stroke-377" opacity="0.800000012"></path>
                    <path d="M478.7363,329.8424 L478.7363,404.8754" id="Stroke-379" opacity="0.800000012"></path>
                    <path d="M478.7363,415.4273 L478.7363,492.8053" id="Stroke-381" opacity="0.800000012"></path>
                    <path d="M488.1152,162.19 L488.1152,234.878" id="Stroke-383" opacity="0.800000012"></path>
                    <path d="M499.8393,163.3624 L499.8393,240.7404" id="Stroke-385" opacity="0.800000012"></path>
                    <path d="M488.1152,245.4303 L488.1152,322.8083" id="Stroke-387" opacity="0.800000012"></path>
                    <path d="M498.6665,248.9474 L498.6665,322.8084" id="Stroke-389" opacity="0.800000012"></path>
                    <path d="M488.1152,331.0147 L488.1152,406.0477" id="Stroke-391" opacity="0.800000012"></path>
                    <path d="M499.8393,334.5318 L499.8393,409.5648" id="Stroke-393" opacity="0.800000012"></path>
                    <path d="M488.1152,415.4273 L488.1152,490.4603" id="Stroke-395" opacity="0.800000012"></path>
                    <path d="M499.8393,415.4273 L499.8393,490.4603" id="Stroke-397" opacity="0.800000012"></path>
                    <path d="M511.563,170.3971 L511.563,243.0851" id="Stroke-399" opacity="0.800000012"></path>
                    <path d="M520.9423,172.7418 L520.9423,245.4298" id="Stroke-401" opacity="0.800000012"></path>
                    <path d="M530.3212,175.0865 L530.3212,246.6025" id="Stroke-403" opacity="0.800000012"></path>
                    <path d="M543.2177,177.4312 L543.2177,250.1192" id="Stroke-405" opacity="0.800000012"></path>
                    <path d="M511.563,251.2921 L511.563,325.1521" id="Stroke-407" opacity="0.800000012"></path>
                    <path d="M522.1147,253.6368 L522.1147,327.4978" id="Stroke-409" opacity="0.800000012"></path>
                    <path d="M531.4936,257.1539 L531.4936,331.0149" id="Stroke-411" opacity="0.800000012"></path>
                    <path d="M543.2177,259.4986 L543.2177,332.1866" id="Stroke-413" opacity="0.800000012"></path>
                    <path d="M510.3906,335.7042 L510.3906,409.5652" id="Stroke-415" opacity="0.800000012"></path>
                    <path d="M522.1147,336.8766 L522.1147,411.9096" id="Stroke-417" opacity="0.800000012"></path>
                    <polyline id="Stroke-419" opacity="0.800000012" points="531.4936 339.2213 531.4936 413.0823 532.6656 413.0653"></polyline>
                    <path d="M539.7006,413.0826 L539.7006,340.3936" id="Stroke-421" opacity="0.800000012"></path>
                    <path d="M511.563,417.7721 L511.563,491.6321" id="Stroke-423" opacity="0.800000012"></path>
                    <path d="M522.1147,420.1168 L522.1147,493.9768" id="Stroke-425" opacity="0.800000012"></path>
                    <path d="M530.3212,420.1168 L530.3212,493.9768" id="Stroke-427" opacity="0.800000012"></path>
                    <path d="M539.7006,421.2887 L539.7006,493.9767" id="Stroke-429" opacity="0.800000012"></path>
                    <path d="M190.3276,110.605 L190.3276,66.734 L190.3276,65.187 C195.1686,62.996 200.6246,61.551 205.7576,60.192 C205.7576,61.568 206.7416,62.781 206.7416,64.155 L206.7416,105.939" id="Stroke-431" opacity="0.800000012"></path>
                    <path d="M216.1201,102.398 L216.1201,57.665 C221.7961,57.665 227.0261,52.406 232.4871,50.813 L232.5341,96.739" id="Stroke-433" opacity="0.800000012"></path>
                    <path d="M241.9126,95.3638 L241.9126,53.1878 C246.7316,48.6108 252.9176,45.1058 259.4986,44.9508 C259.2306,54.5548 258.8106,64.1568 258.5416,73.7608 L258.5416,91.7638" id="Stroke-435" opacity="0.800000012"></path>
                    <path d="M211.4306,132.8804 L211.4306,247.7754" id="Stroke-437" opacity="0.800000012"></path>
                    <path d="M176.2587,145.777 C181.7327,143.402 187.4877,141.963 193.2697,140.883 C199.0237,139.809 204.9187,139.057 210.2587,136.398" id="Stroke-439" opacity="0.800000012"></path>
                    <path d="M176.2587,182.1207 C187.6067,176.5157 201.0067,177.7317 212.6027,172.7417" id="Stroke-441" opacity="0.800000012"></path>
                    <path d="M190.3276,195.0172 C196.2336,193.8412 202.1026,192.2782 207.9136,190.3282" id="Stroke-443" opacity="0.800000012"></path>
                    <path d="M176.2587,221.982 L189.1557,220.203 C196.1907,219.233 203.2237,218.263 210.2587,217.293" id="Stroke-445" opacity="0.800000012"></path>
                    <path d="M176.2587,204.3961 C187.0477,201.7411 198.8827,202.6081 209.0857,198.5341" id="Stroke-447" opacity="0.800000012"></path>
                    <path d="M511.563,170.3971 C515.5,170.4771 519.427,170.7961 523.287,171.3521" id="Stroke-449" opacity="0.800000012"></path>
                    <path d="M530.3212,175.0865 C534.3062,175.1015 538.2862,175.4995 542.0452,176.2585" id="Stroke-451" opacity="0.800000012"></path>
                    <path d="M468.1845,231.3614 C472.1385,231.6184 476.0595,232.0104 479.9085,232.5334" id="Stroke-453" opacity="0.800000012"></path>
                    <path d="M488.1152,233.7062 C492.1332,234.8762 496.0602,236.4472 499.8392,238.3952" id="Stroke-455" opacity="0.800000012"></path>
                    <path d="M511.563,240.7403 C514.719,240.8173 517.867,241.1203 520.942,241.6483" id="Stroke-457" opacity="0.800000012"></path>
                    <path d="M530.3212,245.4303 C534.1642,245.9903 538.0892,246.3833 542.0452,246.6023" id="Stroke-459" opacity="0.800000012"></path>
                    <path d="M470.5293,240.7403 C473.6563,241.1063 476.7833,241.4723 479.9083,241.8403" id="Stroke-461" opacity="0.800000012"></path>
                    <path d="M488.1152,245.4303 C492.1172,245.5763 496.0742,245.9733 499.8392,246.6023" id="Stroke-463" opacity="0.800000012"></path>
                    <path d="M510.3906,251.2921 C514.2976,251.6831 518.2046,252.0731 522.1146,252.4641" id="Stroke-465" opacity="0.800000012"></path>
                    <path d="M530.3212,257.1539 L542.0452,258.3259" id="Stroke-467" opacity="0.800000012"></path>
                    <path d="M468.1845,314.6012 C472.0935,316.1642 475.9995,317.7272 479.9085,319.2902" id="Stroke-469" opacity="0.800000012"></path>
                    <path d="M488.1152,319.2906 C491.9692,319.8516 495.8902,320.2446 499.8392,320.4626" id="Stroke-471" opacity="0.800000012"></path>
                    <path d="M511.563,326.3253 C515.471,326.6643 519.377,327.0033 523.287,327.3423" id="Stroke-473" opacity="0.800000012"></path>
                    <path d="M531.4936,328.67 C534.5886,329.114 537.7276,329.382 540.8726,329.472" id="Stroke-475" opacity="0.800000012"></path>
                    <path d="M468.1845,328.67 C471.1225,329.469 474.3465,329.872 477.5635,329.84" id="Stroke-477" opacity="0.800000012"></path>
                    <path d="M488.1152,331.0147 C493.2012,331.2487 498.2822,331.5487 503.3562,331.9147" id="Stroke-479" opacity="0.800000012"></path>
                    <path d="M510.3906,335.7042 C514.2816,336.1462 518.1926,336.4962 522.1146,336.7542" id="Stroke-481" opacity="0.800000012"></path>
                    <path d="M531.4936,339.2213 L540.8726,340.3563" id="Stroke-483" opacity="0.800000012"></path>
                    <path d="M468.1845,404.8756 C472.0605,405.3386 475.9795,405.6196 479.9085,405.7186" id="Stroke-485" opacity="0.800000012"></path>
                    <path d="M488.1152,408.3922 C493.1712,408.8752 498.2562,409.2662 503.3562,409.5652" id="Stroke-487" opacity="0.800000012"></path>
                    <path d="M510.3906,408.3922 C514.3056,408.4562 518.2156,408.6212 522.1146,408.8872" id="Stroke-489" opacity="0.800000012"></path>
                    <path d="M531.4936,409.565 L537.3556,410.31" id="Stroke-491" opacity="0.800000012"></path>
                    <path d="M470.5293,415.4273 C473.6563,415.6623 476.7833,415.9013 479.9083,416.1373" id="Stroke-493" opacity="0.800000012"></path>
                    <path d="M488.1152,415.4273 C492.0212,415.8173 495.9312,416.2073 499.8392,416.5993" id="Stroke-495" opacity="0.800000012"></path>
                    <path d="M510.3906,417.7721 C514.2986,417.9931 518.2076,418.2121 522.1146,418.4331" id="Stroke-497" opacity="0.800000012"></path>
                    <path d="M526.8041,420.1168 C530.7221,420.3378 534.6331,420.6448 538.5281,421.0378" id="Stroke-499" opacity="0.800000012"></path>
                    <path d="M470.5293,486.943 C472.4513,487.421 474.4163,487.723 476.3913,487.843" id="Stroke-501" opacity="0.800000012"></path>
                    <path d="M489.2876,490.4605 C493.1966,490.6025 497.1026,490.7445 501.0116,490.8875" id="Stroke-503" opacity="0.800000012"></path>
                    <path d="M511.563,492.8043 C514.628,493.4363 517.781,493.7833 520.942,493.8323" id="Stroke-505" opacity="0.800000012"></path>
                    <path d="M530.3212,492.8043 C534.2302,492.9963 538.1362,493.1873 542.0452,493.3793" id="Stroke-507" opacity="0.800000012"></path>
                    <path d="M331.0146,146.9493 L331.0146,105.4773 L331.0146,100.2953 C338.9196,97.5923 346.9816,94.1563 355.1786,92.5393 C358.7046,91.8443 362.2806,91.3513 365.7436,90.3853 C368.9846,89.4813 372.0986,88.1703 375.2976,87.1253 C380.3376,85.4803 385.5666,84.4993 390.7976,83.6393 L390.8066,136.0553" id="Stroke-511" opacity="0.800000012"></path>
                    <path d="M285.2915,155.1559 L285.2915,109.9409 C298.9085,109.9409 312.9165,105.5919 325.7985,101.2259 C325.7985,102.4169 326.3255,103.3839 326.3255,104.5759 L326.3255,145.4589" id="Stroke-513" opacity="0.800000012"></path>
                    <path d="M309.9116,107.0875 L309.9116,148.1215" id="Stroke-515" opacity="0.800000012"></path>
                    <path d="M285.2915,129.3633 C298.1855,124.1763 311.5515,120.2433 325.1525,117.6393" id="Stroke-517" opacity="0.800000012"></path>
                    <path d="M204.3964,346.3507 C202.7594,346.8597 201.0234,346.9577 199.3084,347.0517 C191.0704,347.5027 180.9904,348.6007 172.7414,348.6007 L172.7414,288.1267 C172.8424,286.1387 172.8994,284.1467 173.0004,282.1587 C178.9904,281.4177 185.5114,281.1547 191.5254,280.6267 C191.2854,280.6177 191.0464,280.6097 190.8074,280.6017" id="Stroke-519" opacity="0.800000012"></path>
                    <path d="M176.2587,334.5318 C185.5767,332.4438 194.9667,330.8778 204.3967,329.8428" id="Stroke-521" opacity="0.800000012"></path>
                    <path d="M172.7417,355.3429 C184.6287,355.5449 196.5347,354.4629 208.1957,352.1179 C208.1417,362.8979 209.6177,374.1909 208.8777,384.9449" id="Stroke-523" opacity="0.800000012"></path>
                    <path d="M176.2587,375.566 C187.0607,372.798 198.0617,371.228 209.0857,370.876" id="Stroke-525" opacity="0.800000012"></path>
                    <path d="M172.7417,409.565 C184.0037,408.093 195.2647,406.622 206.5247,405.153 C207.6947,404.999 209.0857,404.965 210.2587,404.876" id="Stroke-527" opacity="0.800000012"></path>
                    <path d="M468.6377,118.1465 L468.6377,102.8095 C468.6487,99.9305 468.4977,97.0515 468.1847,94.1915 C479.6147,96.2485 490.5827,104.1435 501.9267,106.6515 C502.7947,113.7815 501.2397,119.8655 500.5787,127.0185" id="Stroke-529" opacity="0.800000012"></path>
                    <path d="M488.375,107.0875 C488.135,110.9875 488.061,114.9025 488.154,118.8115" id="Stroke-531" opacity="0.800000012"></path>
                    <path d="M470.5293,104.7427 C475.9313,106.1977 481.3333,107.6527 486.7353,109.1087 C491.6303,110.4287 497.2203,107.3367 502.1843,106.5697" id="Stroke-533" opacity="0.800000012"></path>
                    <path d="M438.875,121.1563 C439.463,108.1083 440.29,96.6983 440.01,83.6393 C444.547,84.8493 448.059,86.3543 452.597,87.5663 C452.731,88.6093 452.81,89.7833 452.943,90.8263 L452.943,117.5363 L438.875,121.1563 Z" id="Stroke-535" opacity="0.800000012"></path>
                    <path d="M458.8056,116.3765 L458.8056,95.8875 C458.9736,95.3815 459.1446,94.8755 459.3126,94.3695 C460.7056,94.4625 462.1046,94.1145 463.4946,94.2075 C463.1966,102.0205 462.8006,109.8325 462.3116,117.6395" id="Stroke-537" opacity="0.800000012"></path>
                    <path d="M433.0127,125.3174 L433.0127,83.9634 C431.1567,83.5794 429.3367,83.2254 427.5767,82.4674 C427.3397,83.2794 427.1697,84.1274 427.1507,84.9814 L427.1507,127.0184" id="Stroke-539" opacity="0.800000012"></path>
                    <path d="M468.1845,155.1559 L468.1845,230.1889" id="Stroke-541" opacity="0.800000012"></path>
                    <path d="M468.1845,240.7403 L468.1845,314.6013" id="Stroke-543" opacity="0.800000012"></path>
                    <path d="M468.1845,328.67 L468.1845,406.047" id="Stroke-545" opacity="0.800000012"></path>
                    <path d="M470.5293,415.4273 L470.5293,490.4603" id="Stroke-547" opacity="0.800000012"></path>
                    <path d="M481.081,156.3282 L481.081,231.3612" id="Stroke-549" opacity="0.800000012"></path>
                    <path d="M481.081,245.4303 L481.081,319.2903" id="Stroke-551" opacity="0.800000012"></path>
                    <path d="M478.7363,329.8424 L478.7363,404.8754" id="Stroke-553" opacity="0.800000012"></path>
                    <path d="M478.7363,415.4273 L478.7363,492.8053" id="Stroke-555" opacity="0.800000012"></path>
                    <path d="M488.1152,162.19 L488.1152,234.878" id="Stroke-557" opacity="0.800000012"></path>
                    <path d="M499.8393,163.3624 L499.8393,240.7404" id="Stroke-559" opacity="0.800000012"></path>
                    <path d="M488.1152,245.4303 L488.1152,322.8083" id="Stroke-561" opacity="0.800000012"></path>
                    <path d="M498.6665,248.9474 L498.6665,322.8084" id="Stroke-563" opacity="0.800000012"></path>
                    <path d="M488.1152,331.0147 L488.1152,406.0477" id="Stroke-565" opacity="0.800000012"></path>
                    <path d="M499.8393,334.5318 L499.8393,409.5648" id="Stroke-567" opacity="0.800000012"></path>
                    <path d="M488.1152,415.4273 L488.1152,490.4603" id="Stroke-569" opacity="0.800000012"></path>
                    <path d="M499.8393,415.4273 L499.8393,490.4603" id="Stroke-571" opacity="0.800000012"></path>
                    <path d="M511.563,170.3971 L511.563,243.0851" id="Stroke-573" opacity="0.800000012"></path>
                    <path d="M520.9423,172.7418 L520.9423,245.4298" id="Stroke-575" opacity="0.800000012"></path>
                    <path d="M530.3212,175.0865 L530.3212,246.6025" id="Stroke-577" opacity="0.800000012"></path>
                    <path d="M543.2177,177.4312 L543.2177,250.1192" id="Stroke-579" opacity="0.800000012"></path>
                    <path d="M511.563,251.2921 L511.563,325.1521" id="Stroke-581" opacity="0.800000012"></path>
                    <path d="M522.1147,253.6368 L522.1147,327.4978" id="Stroke-583" opacity="0.800000012"></path>
                    <path d="M531.4936,257.1539 L531.4936,331.0149" id="Stroke-585" opacity="0.800000012"></path>
                    <path d="M543.2177,259.4986 L543.2177,332.1866" id="Stroke-587" opacity="0.800000012"></path>
                    <path d="M510.3906,335.7042 L510.3906,409.5652" id="Stroke-589" opacity="0.800000012"></path>
                    <path d="M522.1147,336.8766 L522.1147,411.9096" id="Stroke-591" opacity="0.800000012"></path>
                    <polyline id="Stroke-593" opacity="0.800000012" points="531.4936 339.2213 531.4936 413.0823 532.6656 413.0653"></polyline>
                    <path d="M539.7006,413.0826 L539.7006,340.3936" id="Stroke-595" opacity="0.800000012"></path>
                    <path d="M511.563,417.7721 L511.563,491.6321" id="Stroke-597" opacity="0.800000012"></path>
                    <path d="M522.1147,420.1168 L522.1147,493.9768" id="Stroke-599" opacity="0.800000012"></path>
                    <path d="M530.3212,420.1168 L530.3212,493.9768" id="Stroke-601" opacity="0.800000012"></path>
                    <path d="M539.7006,421.2887 L539.7006,493.9767" id="Stroke-603" opacity="0.800000012"></path>
                    <path d="M208.415,429.6861 C200.832,429.0131 193.227,430.2451 185.711,431.4701 C181.522,432.1551 176.987,433.3621 172.742,433.3621 L172.742,489.2881 C175.812,489.2881 180.155,487.3051 183.217,487.0721 C193.032,486.3261 199.269,485.8521 209.086,485.1051 L208.415,429.6861 Z" id="Stroke-605" opacity="0.800000012"></path>
                    <path d="M172.7417,471.7018 C184.8927,470.9048 197.0207,469.3388 209.0857,467.0128" id="Stroke-607" opacity="0.800000012"></path>
                    <path d="M172.7417,451.7711 C184.0737,450.2091 195.4077,448.6451 206.7417,447.0821" id="Stroke-609" opacity="0.800000012"></path>
                    <path d="M190.3276,110.605 L190.3276,66.734 L190.3276,65.187 C195.1686,62.996 200.6246,61.551 205.7576,60.192 C205.7576,61.568 206.7416,62.781 206.7416,64.155 L206.7416,105.939" id="Stroke-611" opacity="0.800000012"></path>
                    <path d="M216.1201,102.398 L216.1201,57.665 C221.7961,57.665 227.0261,52.406 232.4871,50.813 L232.5341,96.739" id="Stroke-613" opacity="0.800000012"></path>
                    <path d="M241.9126,95.3638 L241.9126,53.1878 C246.7316,48.6108 252.9176,45.1058 259.4986,44.9508 C259.2306,54.5548 258.8106,64.1568 258.5416,73.7608 L258.5416,91.7638" id="Stroke-615" opacity="0.800000012"></path>
                    <path d="M190.3276,80.1226 C195.3696,78.2936 200.4536,76.7316 205.5686,75.4336" id="Stroke-617" opacity="0.800000012"></path>
                    <path d="M211.4306,132.8804 L211.4306,247.7754" id="Stroke-619" opacity="0.800000012"></path>
                    <path d="M176.2587,145.777 C181.7327,143.402 187.4877,141.963 193.2697,140.883 C199.0237,139.809 204.9187,139.057 210.2587,136.398" id="Stroke-621" opacity="0.800000012"></path>
                    <path d="M176.2587,182.1207 C187.6067,176.5157 201.0067,177.7317 212.6027,172.7417" id="Stroke-623" opacity="0.800000012"></path>
                    <path d="M190.3276,195.0172 C196.2336,193.8412 202.1026,192.2782 207.9136,190.3282" id="Stroke-625" opacity="0.800000012"></path>
                    <path d="M176.2587,221.982 L189.1557,220.203 C196.1907,219.233 203.2237,218.263 210.2587,217.293" id="Stroke-627" opacity="0.800000012"></path>
                    <path d="M176.2587,204.3961 C187.0477,201.7411 198.8827,202.6081 209.0857,198.5341" id="Stroke-629" opacity="0.800000012"></path>
                    <path d="M511.563,170.3971 C515.5,170.4771 519.427,170.7961 523.287,171.3521" id="Stroke-631" opacity="0.800000012"></path>
                    <path d="M530.3212,175.0865 C534.3062,175.1015 538.2862,175.4995 542.0452,176.2585" id="Stroke-633" opacity="0.800000012"></path>
                    <path d="M468.1845,231.3614 C472.1385,231.6184 476.0595,232.0104 479.9085,232.5334" id="Stroke-635" opacity="0.800000012"></path>
                    <path d="M488.1152,233.7062 C492.1332,234.8762 496.0602,236.4472 499.8392,238.3952" id="Stroke-637" opacity="0.800000012"></path>
                    <path d="M511.563,240.7403 C514.719,240.8173 517.867,241.1203 520.942,241.6483" id="Stroke-639" opacity="0.800000012"></path>
                    <path d="M530.3212,245.4303 C534.1642,245.9903 538.0892,246.3833 542.0452,246.6023" id="Stroke-641" opacity="0.800000012"></path>
                    <path d="M470.5293,240.7403 C473.6563,241.1063 476.7833,241.4723 479.9083,241.8403" id="Stroke-643" opacity="0.800000012"></path>
                    <path d="M488.1152,245.4303 C492.1172,245.5763 496.0742,245.9733 499.8392,246.6023" id="Stroke-645" opacity="0.800000012"></path>
                    <path d="M510.3906,251.2921 C514.2976,251.6831 518.2046,252.0731 522.1146,252.4641" id="Stroke-647" opacity="0.800000012"></path>
                    <path d="M530.3212,257.1539 L542.0452,258.3259" id="Stroke-649" opacity="0.800000012"></path>
                    <path d="M468.1845,314.6012 C472.0935,316.1642 475.9995,317.7272 479.9085,319.2902" id="Stroke-651" opacity="0.800000012"></path>
                    <path d="M488.1152,319.2906 C491.9692,319.8516 495.8902,320.2446 499.8392,320.4626" id="Stroke-653" opacity="0.800000012"></path>
                    <path d="M511.563,326.3253 C515.471,326.6643 519.377,327.0033 523.287,327.3423" id="Stroke-655" opacity="0.800000012"></path>
                    <path d="M531.4936,328.67 C534.5886,329.114 537.7276,329.382 540.8726,329.472" id="Stroke-657" opacity="0.800000012"></path>
                    <path d="M468.1845,328.67 C471.1225,329.469 474.3465,329.872 477.5635,329.84" id="Stroke-659" opacity="0.800000012"></path>
                    <path d="M488.1152,331.0147 C493.2012,331.2487 498.2822,331.5487 503.3562,331.9147" id="Stroke-661" opacity="0.800000012"></path>
                    <path d="M510.3906,335.7042 C514.2816,336.1462 518.1926,336.4962 522.1146,336.7542" id="Stroke-663" opacity="0.800000012"></path>
                    <path d="M531.4936,339.2213 L540.8726,340.3563" id="Stroke-665" opacity="0.800000012"></path>
                    <path d="M468.1845,404.8756 C472.0605,405.3386 475.9795,405.6196 479.9085,405.7186" id="Stroke-667" opacity="0.800000012"></path>
                    <path d="M488.1152,408.3922 C493.1712,408.8752 498.2562,409.2662 503.3562,409.5652" id="Stroke-669" opacity="0.800000012"></path>
                    <path d="M510.3906,408.3922 C514.3056,408.4562 518.2156,408.6212 522.1146,408.8872" id="Stroke-671" opacity="0.800000012"></path>
                    <path d="M531.4936,409.565 L537.3556,410.31" id="Stroke-673" opacity="0.800000012"></path>
                    <path d="M470.5293,415.4273 C473.6563,415.6623 476.7833,415.9013 479.9083,416.1373" id="Stroke-675" opacity="0.800000012"></path>
                    <path d="M488.1152,415.4273 C492.0212,415.8173 495.9312,416.2073 499.8392,416.5993" id="Stroke-677" opacity="0.800000012"></path>
                    <path d="M510.3906,417.7721 C514.2986,417.9931 518.2076,418.2121 522.1146,418.4331" id="Stroke-679" opacity="0.800000012"></path>
                    <path d="M526.8041,420.1168 C530.7221,420.3378 534.6331,420.6448 538.5281,421.0378" id="Stroke-681" opacity="0.800000012"></path>
                    <path d="M470.5293,486.943 C472.4513,487.421 474.4163,487.723 476.3913,487.843" id="Stroke-683" opacity="0.800000012"></path>
                    <path d="M489.2876,490.4605 C493.1966,490.6025 497.1026,490.7445 501.0116,490.8875" id="Stroke-685" opacity="0.800000012"></path>
                    <path d="M511.563,492.8043 C514.628,493.4363 517.781,493.7833 520.942,493.8323" id="Stroke-687" opacity="0.800000012"></path>
                    <path d="M530.3212,492.8043 C534.2302,492.9963 538.1362,493.1873 542.0452,493.3793" id="Stroke-689" opacity="0.800000012"></path>
                    <path d="M172.7417,273.5675 C180.3267,272.9445 187.8327,271.3645 195.0167,268.8785" id="Stroke-691" opacity="0.800000012"></path>
                    <path d="M130.5356,288.4503 C141.2216,287.5323 151.8216,285.6883 162.1586,282.9463 C162.1586,283.8763 162.1896,284.9123 162.1896,285.8433 L162.1896,334.5323" id="Stroke-693" opacity="0.800000012"></path>
                    <path d="M162.1899,259.4986 C156.6919,260.3106 151.1939,261.1226 145.6799,261.9516 C140.6319,262.6806 135.5839,263.4256 130.5359,264.1876" id="Stroke-695" opacity="0.800000012"></path>
                    <path d="M130.5356,305.2223 C139.9536,304.1633 149.3426,302.5993 158.6726,300.5323" id="Stroke-697" opacity="0.800000012"></path>
                    <path d="M144.6044,286.464 C144.6874,295.061 144.7714,303.659 144.8544,312.256" id="Stroke-699" opacity="0.800000012"></path>
                    <path d="M191.5,346.256 C190.555,337.35 190.179,328.306 190.38,319.291" id="Stroke-701" opacity="0.800000012"></path>
                    <polyline id="Stroke-703" opacity="0.800000012" points="192.8247 354.4625 192.8247 356.7485 192.8247 422.4615 192.6727 422.4615"></polyline>
                    <path d="M161.8598,391.9791 C162.3528,401.6751 162.2938,411.3991 161.6838,421.0891 C157.9848,421.2731 154.1688,421.3301 150.4658,421.2601" id="Stroke-705" opacity="0.800000012"></path>
                    <path d="M164.5351,409.565 C159.5321,410.299 154.3981,410.587 149.2941,410.417" id="Stroke-707" opacity="0.800000012"></path>
                    <path d="M127.0185,445.358 L127.0185,489.288 L159.8545,487.282 L161.0175,436.127 C157.5005,436.127 153.5925,435.358 150.0755,435.358" id="Stroke-709" opacity="0.800000012"></path>
                    <path d="M128.1909,457.6334 C138.6239,454.7834 149.2469,451.9194 159.8449,453.3024" id="Stroke-711" opacity="0.800000012"></path>
                    <path d="M127.0185,475.2193 C134.5185,473.9933 142.0195,472.7693 149.5185,471.5443 C152.5425,471.0503 155.5875,470.5543 158.6725,470.5303" id="Stroke-713" opacity="0.800000012"></path>
                    <path d="M144.6044,489.2877 L144.6044,440.0477" id="Stroke-715" opacity="0.800000012"></path>
                    <path d="M190.3276,485.7701 L190.3276,430.6681" id="Stroke-717" opacity="0.800000012"></path>
                    <path d="M216.1201,71.9161 L231.3611,67.2261" id="Stroke-719" opacity="0.800000012"></path>
                    <path d="M241.9126,66.0543 C247.4206,64.8393 252.8966,63.2743 258.3266,61.3643" id="Stroke-721" opacity="0.800000012"></path>
                    <polyline id="Stroke-723" opacity="0.800000012" points="130.5356 155.1559 130.5356 156.7309 130.5356 205.5689"></polyline>
                    <path d="M130.5356,279.4293 L130.5356,212.6033" id="Stroke-725" opacity="0.800000012"></path>
                    <path d="M130.5356,289.9811 L130.5356,309.9121" id="Stroke-727" opacity="0.800000012"></path>
                    <path d="M172.7417,205.5689 L172.7417,272.3949" id="Stroke-729" opacity="0.800000012"></path>
                    <path d="M176.2587,144.6041 L176.2587,195.0171" id="Stroke-731" opacity="0.800000012"></path>
                    <path d="M130.5356,213.9244 C140.3876,210.2874 151.7656,211.9884 161.9836,209.0864 L162.1896,274.9514 C158.9646,276.8864 155.2136,276.8864 151.4636,277.3704 C149.3346,277.6354 147.2686,278.2754 145.1866,278.8064 C140.4036,280.0084 135.4616,280.6164 130.5356,280.601671" id="Stroke-733" opacity="0.800000012"></path>
                    <path d="M162.1899,198.5343 C157.3189,200.1533 152.2359,201.2003 147.1039,202.0373 C144.1719,202.5123 141.2069,202.9303 138.2579,203.3353 C135.6839,203.6843 133.1099,204.0333 130.5359,204.3963" id="Stroke-735" opacity="0.800000012"></path>
                    <path d="M162.9135,196.1895 C163.5515,191.2105 163.3915,186.1515 163.1525,181.1255 C162.6265,169.8065 162.2915,158.2045 161.1435,146.9495 C158.4345,147.8815 155.7395,148.8145 153.0455,149.7315 C151.2915,150.3325 149.5545,150.9485 147.7685,151.3755 C147.4345,151.4545 147.0825,151.5335 146.7485,151.5965 C141.3925,152.7035 135.7325,152.4975 130.5355,154.0945" id="Stroke-737" opacity="0.800000012"></path>
                    <path d="M176.2587,196.1895 C180.8047,195.0955 186.8347,194.8345 191.0407,192.8975 C194.4457,191.3275 193.7957,190.5315 193.7937,186.7235 C193.7927,182.0675 193.7937,177.4145 193.7937,172.7595 C193.6107,162.2025 193.5387,151.6445 193.3557,141.0865" id="Stroke-739" opacity="0.800000012"></path>
                    <path d="M146.9492,152.8111 L146.9492,202.0511" id="Stroke-741" opacity="0.800000012"></path>
                    <path d="M163.3627,184.4654 C158.2177,186.4654 152.5917,187.2714 146.8847,187.9244 C141.3867,188.5664 135.8087,189.0574 130.5357,190.3274" id="Stroke-743" opacity="0.800000012"></path>
                    <path d="M158.6728,225.4996 C154.1898,227.1056 149.4228,227.9096 144.5668,228.5116 C139.9048,229.0906 135.1528,229.4686 130.5358,230.1886" id="Stroke-745" opacity="0.800000012"></path>
                    <polyline id="Stroke-747" opacity="0.800000012" points="144.6044 211.4308 144.6044 216.1478 144.6044 278.2568"></polyline>
                    <path d="M192.6723,202.0514 L192.6723,268.8784" id="Stroke-749" opacity="0.800000012"></path>
                    <path d="M67.2265,184.4659 C77.5435,179.8669 88.1205,175.9489 98.8805,172.7419" id="Stroke-751" opacity="0.800000012"></path>
                    <path d="M87.1801,162.19 C87.0731,175.484 87.3411,188.782 87.9821,202.051" id="Stroke-753" opacity="0.800000012"></path>
                </g>
            </g>
        </g>
    </g>
</svg>