<?xml version="1.0" encoding="UTF-8"?>
<svg width="300px" height="350px" viewBox="0 0 384 437" version="1.1" xmlns="http://www.w3.org/2000/svg" xmlns:xlink="http://www.w3.org/1999/xlink">
    <!-- Generator: Sketch 52 (66869) - http://www.bohemiancoding.com/sketch -->
    <title>communications</title>
    <desc>Created with Sketch.</desc>
    <defs>
        <rect id="path-1" x="0" y="0" width="572" height="649"></rect>
    </defs>
    <g id="Page-1" stroke="none" stroke-width="1" fill="none" fill-rule="evenodd">
        <g id="Artboard-1-Copy" transform="translate(-56.000000, -127.000000)">
            <g id="communications">
                <mask id="mask-2" fill="white">
                    <use xlink:href="#path-1"></use>
                </mask>
                <use id="Mask" fill-opacity="0" fill="#FFFFFF" fill-rule="nonzero" xlink:href="#path-1"></use>
                <g mask="url(#mask-2)" stroke="#BF7F50" stroke-linecap="round" stroke-linejoin="round" stroke-width="0.8">
                    <g transform="translate(57.000000, 127.000000)">
                        <polyline id="Stroke-755" points="381.6718 436.148 349.0478 436.148 349.0478 424.424 381.6718 424.424 381.6718 413.287"></polyline>
                        <polyline id="Stroke-757" points="381.6718 412.4078 349.0478 412.4078 349.0478 400.6828 381.6718 400.6828 381.6718 389.5458"></polyline>
                        <polyline id="Stroke-759" points="381.6718 388.9596 349.0478 388.9596 349.0478 377.2356 381.6718 377.2356 381.6718 366.0986"></polyline>
                        <polyline id="Stroke-761" points="381.6718 365.7906 349.0478 365.7906 349.0478 354.0666 381.6718 354.0666 381.6718 342.9286"></polyline>
                        <polyline id="Stroke-763" points="381.6718 342.6217 349.0478 342.6217 349.0478 330.8967 381.6718 330.8967 381.6718 319.7597"></polyline>
                        <polyline id="Stroke-765" points="381.6718 319.7887 349.0478 319.7887 349.0478 308.0647 381.6718 308.0647 381.6718 296.9277"></polyline>
                        <polyline id="Stroke-767" points="381.6718 296.9557 349.0478 296.9557 349.0478 285.2317 381.6718 285.2317 381.6718 274.0947"></polyline>
                        <polyline id="Stroke-769" points="381.6718 274.1227 349.0478 274.1227 349.0478 262.3987 381.6718 262.3987 381.6718 251.2617"></polyline>
                        <polyline id="Stroke-771" points="381.6718 251.2896 349.0478 251.2896 349.0478 239.5656 381.6718 239.5656 381.6718 228.4286"></polyline>
                        <polyline id="Stroke-773" points="381.6718 228.4571 349.0478 228.4571 349.0478 216.7331 381.6718 216.7331 381.6718 205.5961"></polyline>
                        <polyline id="Stroke-775" points="381.6718 205.6246 349.0478 205.6246 349.0478 193.9006 381.6718 193.9006 381.6718 182.7626"></polyline>
                        <polyline id="Stroke-777" points="381.6718 182.7916 349.0478 182.7916 349.0478 171.0676 381.6718 171.0676 381.6718 159.9306"></polyline>
                        <polyline id="Stroke-779" points="381.6718 159.9591 349.0478 159.9591 349.0478 148.2351 381.6718 148.2351 381.6718 137.0971"></polyline>
                        <polyline id="Stroke-781" points="381.6718 137.1261 349.0478 137.1261 349.0478 125.4021 381.6718 125.4021 381.6718 114.2641"></polyline>
                        <polyline id="Stroke-783" points="381.6718 114.2936 349.0478 114.2936 349.0478 102.5696 381.6718 102.5696 381.6718 91.4316"></polyline>
                        <polyline id="Stroke-785" points="381.6718 91.4605 349.0478 91.4605 349.0478 79.7365 381.6718 79.7365 381.6718 68.5985"></polyline>
                        <polyline id="Stroke-787" points="381.6718 68.6275 349.0478 68.6275 349.0478 56.9035 381.6718 56.9035 381.6718 45.7665"></polyline>
                        <polyline id="Stroke-789" points="381.6718 45.795 349.0478 45.795 349.0478 34.071 381.6718 34.071 381.6718 22.933"></polyline>
                        <polyline id="Stroke-791" points="381.6718 22.962 349.0478 22.962 349.0478 11.238 381.6718 11.238 381.6718 0.101"></polyline>
                        <polyline id="Stroke-793" points="286.0859 436.148 253.4619 436.148 253.4619 424.424 286.0859 424.424 286.0859 413.287"></polyline>
                        <polyline id="Stroke-795" points="286.0859 412.4078 253.4619 412.4078 253.4619 400.6828 286.0859 400.6828 286.0859 389.5458"></polyline>
                        <polyline id="Stroke-797" points="286.0859 388.9596 253.4619 388.9596 253.4619 377.2356 286.0859 377.2356 286.0859 366.0986"></polyline>
                        <polyline id="Stroke-799" points="286.0859 365.7906 253.4619 365.7906 253.4619 354.0666 286.0859 354.0666 286.0859 342.9286"></polyline>
                        <polyline id="Stroke-801" points="286.0859 342.6217 253.4619 342.6217 253.4619 330.8967 286.0859 330.8967 286.0859 319.7597"></polyline>
                        <polyline id="Stroke-803" points="286.0859 319.7887 253.4619 319.7887 253.4619 308.0647 286.0859 308.0647 286.0859 296.9277"></polyline>
                        <polyline id="Stroke-805" points="286.0859 296.9557 253.4619 296.9557 253.4619 285.2317 286.0859 285.2317 286.0859 274.0947"></polyline>
                        <polyline id="Stroke-807" points="286.0859 274.1227 253.4619 274.1227 253.4619 262.3987 286.0859 262.3987 286.0859 251.2617"></polyline>
                        <polyline id="Stroke-809" points="286.0859 251.2896 253.4619 251.2896 253.4619 239.5656 286.0859 239.5656 286.0859 228.4286"></polyline>
                        <polyline id="Stroke-811" points="286.0859 228.4571 253.4619 228.4571 253.4619 216.7331 286.0859 216.7331 286.0859 205.5961"></polyline>
                        <polyline id="Stroke-813" points="286.0859 205.6246 253.4619 205.6246 253.4619 193.9006 286.0859 193.9006 286.0859 182.7626"></polyline>
                        <polyline id="Stroke-815" points="286.0859 182.7916 253.4619 182.7916 253.4619 171.0676 286.0859 171.0676 286.0859 159.9306"></polyline>
                        <polyline id="Stroke-817" points="286.0859 159.9591 253.4619 159.9591 253.4619 148.2351 286.0859 148.2351 286.0859 137.0971"></polyline>
                        <polyline id="Stroke-819" points="286.0859 137.1261 253.4619 137.1261 253.4619 125.4021 286.0859 125.4021 286.0859 114.2641"></polyline>
                        <polyline id="Stroke-821" points="286.0859 114.2936 253.4619 114.2936 253.4619 102.5696 286.0859 102.5696 286.0859 91.4316"></polyline>
                        <polyline id="Stroke-823" points="286.0859 91.4605 253.4619 91.4605 253.4619 79.7365 286.0859 79.7365 286.0859 68.5985"></polyline>
                        <polyline id="Stroke-825" points="286.0859 68.6275 253.4619 68.6275 253.4619 56.9035 286.0859 56.9035 286.0859 45.7665"></polyline>
                        <polyline id="Stroke-827" points="161.4726 436.148 128.8486 436.148 128.8486 424.424 161.4726 424.424 161.4726 413.287"></polyline>
                        <polyline id="Stroke-829" points="161.4726 412.4078 128.8486 412.4078 128.8486 400.6828 161.4726 400.6828 161.4726 389.5458"></polyline>
                        <polyline id="Stroke-831" points="161.4726 388.9596 128.8486 388.9596 128.8486 377.2356 161.4726 377.2356 161.4726 366.0986"></polyline>
                        <polyline id="Stroke-833" points="161.4726 365.7906 128.8486 365.7906 128.8486 354.0666 161.4726 354.0666 161.4726 342.9286"></polyline>
                        <polyline id="Stroke-835" points="161.4726 342.6217 128.8486 342.6217 128.8486 330.8967 161.4726 330.8967 161.4726 319.7597"></polyline>
                        <polyline id="Stroke-837" points="161.4726 319.7887 128.8486 319.7887 128.8486 308.0647 161.4726 308.0647 161.4726 296.9277"></polyline>
                        <polyline id="Stroke-839" points="161.4726 296.9557 128.8486 296.9557 128.8486 285.2317 161.4726 285.2317 161.4726 274.0947"></polyline>
                        <polyline id="Stroke-841" points="161.4726 274.1227 128.8486 274.1227 128.8486 262.3987 161.4726 262.3987 161.4726 251.2617"></polyline>
                        <polyline id="Stroke-843" points="161.4726 251.2896 128.8486 251.2896 128.8486 239.5656 161.4726 239.5656 161.4726 228.4286"></polyline>
                        <polyline id="Stroke-845" points="161.4726 228.4571 128.8486 228.4571 128.8486 216.7331 161.4726 216.7331 161.4726 205.5961"></polyline>
                        <polyline id="Stroke-847" points="161.4726 205.6246 128.8486 205.6246 128.8486 193.9006 161.4726 193.9006 161.4726 182.7626"></polyline>
                        <polyline id="Stroke-849" points="161.4726 182.7916 128.8486 182.7916 128.8486 171.0676 161.4726 171.0676 161.4726 159.9306"></polyline>
                        <polyline id="Stroke-851" points="161.4726 159.9591 128.8486 159.9591 128.8486 148.2351 161.4726 148.2351 161.4726 137.0971"></polyline>
                        <polyline id="Stroke-853" points="161.4726 137.1261 128.8486 137.1261 128.8486 125.4021 161.4726 125.4021 161.4726 114.2641"></polyline>
                        <polyline id="Stroke-855" points="161.4726 114.2936 128.8486 114.2936 128.8486 102.5696 161.4726 102.5696 161.4726 91.4316"></polyline>
                        <polyline id="Stroke-857" points="32.768 436.148 0.144 436.148 0.144 424.424 32.768 424.424 32.768 413.287"></polyline>
                        <polyline id="Stroke-859" points="32.768 412.4078 0.144 412.4078 0.144 400.6828 32.768 400.6828 32.768 389.5458"></polyline>
                        <polyline id="Stroke-861" points="32.768 388.9596 0.144 388.9596 0.144 377.2356 32.768 377.2356 32.768 366.0986"></polyline>
                        <polyline id="Stroke-863" points="32.768 365.7906 0.144 365.7906 0.144 354.0666 32.768 354.0666 32.768 342.9286"></polyline>
                        <polyline id="Stroke-865" points="32.768 342.6217 0.144 342.6217 0.144 330.8967 32.768 330.8967 32.768 319.7597"></polyline>
                        <polyline id="Stroke-867" points="32.768 319.7887 0.144 319.7887 0.144 308.0647 32.768 308.0647 32.768 296.9277"></polyline>
                        <polyline id="Stroke-869" points="32.768 296.9557 0.144 296.9557 0.144 285.2317 32.768 285.2317 32.768 274.0947"></polyline>
                        <polyline id="Stroke-871" points="32.768 274.1227 0.144 274.1227 0.144 262.3987 32.768 262.3987 32.768 251.2617"></polyline>
                        <polyline id="Stroke-873" points="32.768 251.2896 0.144 251.2896 0.144 239.5656 32.768 239.5656 32.768 228.4286"></polyline>
                        <polyline id="Stroke-875" points="32.768 228.4571 0.144 228.4571 0.144 216.7331 32.768 216.7331 32.768 205.5961"></polyline>
                        <polyline id="Stroke-877" points="32.768 205.6246 0.144 205.6246 0.144 193.9006 32.768 193.9006 32.768 182.7626"></polyline>
                        <polyline id="Stroke-879" points="32.768 182.7916 0.144 182.7916 0.144 171.0676 32.768 171.0676 32.768 159.9306"></polyline>
                        <polyline id="Stroke-881" points="32.768 159.9591 0.144 159.9591 0.144 148.2351 32.768 148.2351 32.768 137.0971"></polyline>
                    </g>
                </g>
            </g>
        </g>
    </g>
</svg>