<?xml version="1.0" encoding="UTF-8"?>
<svg width="572px" height="591px" viewBox="0 0 572 591" version="1.1" xmlns="http://www.w3.org/2000/svg" xmlns:xlink="http://www.w3.org/1999/xlink">
    <!-- Generator: Sketch 52 (66869) - http://www.bohemiancoding.com/sketch -->
    <title>fasad</title>
    <desc>Created with Sketch.</desc>
    <defs>
        <rect id="path-1" x="0" y="0" width="572" height="649"></rect>
    </defs>
    <g id="Page-1" stroke="none" stroke-width="1" fill="none" fill-rule="evenodd">
        <g id="Artboard-1-Copy">
            <g id="fasad">
                <mask id="mask-2" fill="white">
                    <use xlink:href="#path-1"></use>
                </mask>
                <use id="Mask" fill-opacity="0" fill="#FFFFFF" fill-rule="nonzero" xlink:href="#path-1"></use>
                <g mask="url(#mask-2)" stroke="#4F9CB5" stroke-linecap="round" stroke-linejoin="round" stroke-width="0.8">
                    <path d="M241.9126,425.4254 C245.1806,425.2324 248.4496,425.0394 251.7166,424.8434 C256.2156,424.5784 260.8496,425.7994 265.3606,425.7154" id="Stroke-109"></path>
                    <path d="M241.9126,418.4264 C244.9336,418.0994 247.9736,417.8894 251.0196,417.7934 C255.7376,417.6424 260.6386,418.3284 265.3606,418.4424" id="Stroke-111"></path>
                    <path d="M253.6367,417.7721 L253.6367,427.1511" id="Stroke-113"></path>
                    <path d="M127.0185,156.3282 L127.0185,311.0842" id="Stroke-245"></path>
                    <path d="M112.9497,512.7359 L112.9497,557.2869" id="Stroke-247"></path>
                    <path d="M422.4614,574.8726 C459.0404,575.9666 495.6184,577.0606 532.1954,578.1536 C531.5674,582.3296 532.1374,585.9206 532.6664,590.1136" id="Stroke-249"></path>
                    <path d="M461.1504,570.1822 L461.1504,574.8722" id="Stroke-251"></path>
                    <path d="M420.1167,57.8472 C418.8717,74.5032 418.0197,91.1942 417.6607,107.8962 L417.6607,129.3632 L415.4267,129.2322" id="Stroke-253"></path>
                    <path d="M471.7016,557.2867 L471.7016,563.1477 L532.2766,563.1477 C545.3226,563.1477 558.3096,561.2867 571.3546,561.0897" id="Stroke-261"></path>
                    <path d="M461.1504,565.4928 L472.8744,565.4928" id="Stroke-263"></path>
                    <path d="M531.4936,565.4928 L531.4936,577.2178" id="Stroke-265"></path>
                    <path d="M421.289,51.9854 C450.258,57.0164 478.445,66.5454 504.529,80.1224" id="Stroke-267"></path>
                    <path d="M420.1167,57.8472 C450.0587,66.4652 479.7727,75.8492 509.2187,85.9852" id="Stroke-269"></path>
                    <path d="M458.8056,504.5289 C459.1956,526.4139 459.5866,548.2979 459.9776,570.1829" id="Stroke-273"></path>
                    <path d="M417.7715,504.5289 C418.2855,521.1079 418.3545,572.4689 418.3545,572.4689 C421.3465,572.5999 420.1465,572.4689 421.9805,572.4689 C423.1845,550.0309 423.7315,527.5339 423.6195,505.0439" id="Stroke-275"></path>
                    <path d="M241.913,123.501 C236.639,156.975 235.975,190.726 239.11,224.327" id="Stroke-277"></path>
                    <path d="M237.2231,123.501 C245.0711,124.364 252.8781,125.607 260.6131,127.227 C260.9371,138.387 259.8031,149.855 259.5891,161.018" id="Stroke-281"></path>
                    <path d="M458.8056,117.6392 C469.3566,119.5422 479.9196,121.4502 490.2726,124.2552 C510.1736,129.6442 529.1166,138.3032 549.0796,143.4322" id="Stroke-283"></path>
                    <path d="M461.1504,123.501 C474.3894,126.018 487.6604,128.541 500.5524,132.538 C517.7184,137.858 534.0914,145.752 551.4244,150.466" id="Stroke-285"></path>
                    <path d="M461.1504,132.8804 C489.2404,140.2744 517.0214,148.8824 544.3904,158.6734" id="Stroke-287"></path>
                    <path d="M462.3227,502.1842 C490.0167,505.1192 517.7867,506.6812 545.5627,506.8732" id="Stroke-289"></path>
                    <path d="M241.9126,404.8756 L241.9126,509.2186" id="Stroke-291"></path>
                    <path d="M260.6709,162.19 L260.6709,211.431" id="Stroke-293"></path>
                    <path d="M266.5332,404.8756 L266.5332,504.5286" id="Stroke-295"></path>
                    <path d="M241.9126,425.4254 C245.1806,425.2324 248.4496,425.0394 251.7166,424.8434 C256.2156,424.5784 260.8496,425.7994 265.3606,425.7154" id="Stroke-297"></path>
                    <path d="M241.9126,418.4264 C244.9336,418.0994 247.9736,417.8894 251.0196,417.7934 C255.7376,417.6424 260.6386,418.3284 265.3606,418.4424" id="Stroke-299"></path>
                    <path d="M253.6367,417.7721 L253.6367,427.1511" id="Stroke-301"></path>
                    <path d="M260.6709,161.4913 C269.1469,161.0413 277.5509,159.2913 285.4969,156.3243 C290.1729,154.5763 294.7019,152.4083 299.5099,151.0643 C306.7239,149.0483 314.3169,148.9523 321.7369,147.9293 C332.3669,146.4633 342.6459,143.0903 353.2189,141.2723 C360.7989,139.9703 368.4949,139.4743 376.0969,138.3173 C383.2269,137.2343 390.2549,135.5733 397.2739,133.9153 C417.1129,129.2263 439.3199,122.3263 459.1609,117.6393 C460.9639,162.8383 462.4399,208.1163 460.1359,253.2933 C458.4419,286.5003 458.4119,320.7833 459.2439,354.0233 C460.2269,393.3303 461.2099,432.6363 462.1919,471.9433 C462.4069,480.5003 462.6089,489.1773 460.5799,497.4943" id="Stroke-303"></path>
                    <path d="M150.4663,78.9503 C155.8243,75.2563 161.2023,71.5473 166.0253,67.1673 C171.1743,62.4863 175.6303,57.0953 180.3193,51.9483 C192.3083,38.7903 205.8663,27.1973 219.3843,15.6413 C244.6693,22.4323 269.3833,28.8583 294.6703,35.6503" id="Stroke-305"></path>
                    <path d="M159.8452,78.3199 C181.9542,60.4979 202.8242,41.1069 222.2482,20.3309 C243.9552,25.9259 265.5422,31.5619 287.2502,37.1579 C288.0132,52.9829 289.2182,70.1609 289.9812,85.9849" id="Stroke-307"></path>
                    <path d="M295.622,83.6397 C294.914,66.8517 294.6,50.0377 294.684,33.2267" id="Stroke-309"></path>
                    <path d="M132.8803,506.8736 L238.8233,506.8736 C248.6383,506.8736 260.3263,503.6546 270.0733,502.7106 L308.7393,502.1846" id="Stroke-313"></path>
                    <polyline id="Stroke-315" points="312.2563 506.8736 458.8053 506.8736 458.7463 502.1846"></polyline>
                    <path d="M267.8481,93.2764 C267.6781,96.1134 267.9511,101.2424 267.7801,104.0794 C260.2051,103.2624 254.6691,100.5024 247.1881,101.8294 C239.3371,103.2214 228.5961,105.7864 220.8351,107.6034 C205.5191,111.1884 192.7131,114.2204 175.8891,118.5304 C154.3421,124.0514 133.4901,130.2854 111.6321,135.8974 C106.0351,137.3334 101.0481,139.0844 95.4101,140.3514 C89.6541,141.6444 80.9711,141.9364 75.7161,144.6044 C75.4101,142.5474 75.3511,140.4554 75.5431,138.3864 C93.1611,134.3894 110.7251,131.8754 128.1311,127.0514 C164.0961,117.0814 200.9071,109.7244 236.8831,99.7914 C258.3391,93.8674 280.7421,91.5784 301.9111,84.7224 C315.4281,80.3444 328.5001,73.4364 342.7121,73.1044 C349.3131,72.9494 354.5361,67.9384 360.8411,65.9894 C369.2071,63.4034 377.5881,60.8144 386.1601,59.0064 C397.2151,56.6764 408.7231,55.5994 418.9441,50.8134" id="Stroke-317"></path>
                    <path d="M458.8056,27.8292 C465.5986,29.8942 472.3486,32.0842 479.0476,34.3992 C499.0676,26.9812 519.8036,21.0722 540.8726,16.8132" id="Stroke-323"></path>
                    <path d="M458.8056,34.3995 C462.8666,38.0585 468.3686,39.5675 473.6356,41.0415 C502.2916,49.0585 530.2986,59.3965 557.2866,71.9165" id="Stroke-325"></path>
                    <path d="M146.9492,94.1915 C144.2602,97.1365 141.5112,100.1325 138.0022,102.1595 C136.1382,103.2345 134.0752,104.0285 132.4262,105.3805 C131.1762,106.4065 130.1942,107.7285 128.8132,108.5875 C127.0382,109.6945 124.6062,110.0565 123.5012,111.7775" id="Stroke-327"></path>
                    <path d="M77.246,141.087 C73.193,142.13 69.135,143.173 65.177,144.529 C62.927,145.297 60.712,146.169 58.428,146.828 C54.933,147.837 51.286,148.349 47.896,149.664 C45.821,150.467 43.742,151.589 41.522,151.417 C41.581,153.108 41.316,154.648 41.5,156.328 C45.383,156.055 48.929,154.648 52.596,153.352 C57.384,151.66 62.42,150.745 67.22,149.089 C70.702,147.887 74.109,146.284 77.778,145.938" id="Stroke-329"></path>
                    <path d="M6.5048,238.3956 C5.8818,232.6616 5.4098,226.9116 5.0898,221.1546 C16.6178,216.5836 28.9468,213.6206 41.3418,212.4806 C50.3268,211.6546 59.4998,211.7406 68.1668,209.2876 C72.2078,208.1436 76.0718,206.4616 80.0878,205.2326 C83.0048,204.3406 85.9928,203.6876 88.9788,203.0386 C92.2788,202.3186 95.5808,201.5986 98.8808,200.8786" id="Stroke-333"></path>
                    <polyline id="Stroke-335" points="66.0542 166.88 66.0542 167.07 66.0542 207.914"></polyline>
                    <path d="M98.8808,219.6373 C68.0358,227.3773 36.6648,233.0803 5.0478,236.6953 C3.8248,236.6953 2.6698,238.2953 1.4468,238.2953 C1.2948,260.5023 0.5528,282.7073 0.3998,304.9133 L0.3998,581.9073" id="Stroke-337"></path>
                    <path d="M20.3305,356.8072 L20.3305,250.4912 C37.6325,250.4912 55.8615,245.1752 72.2485,239.5682 C72.7795,256.6862 73.7285,273.8232 74.2605,290.9412 L74.2605,300.8492" id="Stroke-339"></path>
                    <path d="M164.5346,510.3902 L164.5346,510.7822 L164.5346,570.1832 L191.8976,570.1832 C193.0766,570.1832 195.0226,570.0172 196.1896,570.1832 L196.1896,511.1652" id="Stroke-341"></path>
                    <path d="M156.3281,77.7779 C157.2231,90.9879 157.6071,104.3229 157.4751,117.6389" id="Stroke-343"></path>
                    <path d="M150.4663,75.4332 C150.7183,89.1112 150.9713,102.7892 151.2233,116.4672" id="Stroke-345"></path>
                    <path d="M146.4692,104.5909 C139.1402,110.8199 131.5722,116.7379 123.7852,122.3289 C124.2132,119.8009 122.9122,116.9959 123.8492,114.5569 C124.7042,112.3299 126.9862,111.7409 128.1812,109.8559 C130.5022,106.1979 131.3092,100.6329 132.5132,96.4609 C136.1552,83.8419 138.5392,70.8249 139.6152,57.6949 C149.2442,55.5079 158.1222,54.0409 167.7532,51.8549 C170.1692,51.3069 172.6142,50.7539 175.0862,50.8179" id="Stroke-347"></path>
                    <path d="M100.0532,158.6729 L100.0532,293.4979" id="Stroke-349"></path>
                    <path d="M237.2231,17.4771 C243.4361,12.4331 249.0591,6.6911 253.9461,0.4001 C275.2761,0.6161 296.4641,4.6741 317.6021,7.4821 C324.3651,8.3821 331.1291,9.2811 337.8931,10.1801 C345.7331,11.2221 353.5731,12.2641 361.4141,13.3061 C393.9321,17.6271 426.4581,21.9511 458.8061,27.3651" id="Stroke-351"></path>
                    <path d="M241.9126,18.4771 C247.1586,15.1311 251.9276,11.0041 256.0256,6.2681 C280.2106,6.0711 304.4336,10.7971 328.3786,14.2781 C335.5526,15.3221 342.7306,16.3661 349.8366,17.8151 C356.9486,19.2671 363.9886,21.1231 371.1596,22.2361 C377.3836,23.2041 383.6756,23.6071 389.9546,24.0921 C413.0446,25.8701 436.0696,28.7361 458.8056,33.2271" id="Stroke-353"></path>
                    <path d="M297.0151,35.5718 C311.7731,41.2668 326.9701,45.8268 342.4251,49.1988 C342.2581,56.0428 342.8781,62.7258 342.7091,69.5718" id="Stroke-355"></path>
                    <path d="M132.8803,511.5631 L131.3423,511.5631 L107.4923,511.5631 C106.7493,510.7351 107.1983,508.7211 107.5053,507.6421 L107.5053,454.1161" id="Stroke-357"></path>
                    <path d="M127.0185,122.3287 L127.0185,128.1907" id="Stroke-359"></path>
                    <path d="M132.8803,117.6392 L132.8803,123.5012" id="Stroke-361"></path>
                    <path d="M17.9858,431.8404 L17.9858,536.1834" id="Stroke-363"></path>
                    <path d="M66.0542,476.3912 L66.0542,526.8042" id="Stroke-365"></path>
                    <path d="M98.8808,145.8639 L98.8808,147.3749 L98.8808,157.5009 C110.5688,157.5009 120.9738,150.1629 132.3988,147.7699 C163.9188,141.1619 195.4388,134.5549 226.9588,127.9489 C232.0698,126.8779 237.2438,125.7829 241.9128,123.5009" id="Stroke-509"></path>
                    <path d="M49.6406,152.8111 L49.6406,169.2251 C66.5766,169.2251 82.1016,159.5901 98.8806,157.3491" id="Stroke-331"></path>
                </g>
            </g>
        </g>
    </g>
</svg>