<?xml version="1.0" encoding="UTF-8"?>
<svg width="568px" height="450px" viewBox="0 0 568 450" version="1.1" xmlns="http://www.w3.org/2000/svg" xmlns:xlink="http://www.w3.org/1999/xlink">
    <!-- Generator: Sketch 52 (66869) - http://www.bohemiancoding.com/sketch -->
    <title>trees</title>
    <desc>Created with Sketch.</desc>
    <defs>
        <rect id="path-1" x="0" y="0" width="572" height="649"></rect>
    </defs>
    <g id="Page-1" stroke="none" stroke-width="1" fill="none" fill-rule="evenodd">
        <g id="Artboard-1-Copy" transform="translate(-4.000000, -184.000000)">
            <g id="trees">
                <mask id="mask-2" fill="white">
                    <use xlink:href="#path-1"></use>
                </mask>
                <use id="Mask" fill-opacity="0" fill="#FFFFFF" fill-rule="nonzero" xlink:href="#path-1"></use>
                <g mask="url(#mask-2)" stroke="#2E9632" stroke-linecap="round" stroke-linejoin="round" stroke-width="0.8">
                    <g transform="translate(5.000000, 184.000000)">
                        <path d="M306.084,437.7682 C306.402,441.6762 306.719,445.5852 307.037,449.4922" id="Stroke-179"></path>
                        <path d="M62.2265,393.2174 C53.2515,393.7034 44.2575,393.9704 35.2615,394.0154" id="Stroke-183"></path>
                        <path d="M56.3662,442.6217 L57.6162,445.9727 C57.9762,426.7717 60.5662,407.6117 65.3062,388.9727 C67.3762,380.8217 69.8762,372.7317 70.7862,364.3827 C71.5862,357.1117 71.1762,349.8027 71.0262,342.4917 C70.9762,340.3027 70.9562,338.1217 70.9962,335.9327 C71.1262,328.9517 71.8862,321.9617 71.4962,314.9917 C71.1062,308.1617 69.5962,301.4417 68.7562,294.6517 C68.6462,293.7517 68.5462,292.8427 68.4562,291.9417 C67.6062,283.2517 67.7262,274.4917 67.8562,265.7627 C68.0562,252.9217 68.2362,240.0927 68.4362,227.2517" id="Stroke-185"></path>
                        <path d="M283.8086,141.1524 C286.2146,149.5114 288.6186,157.8704 291.0256,166.2294 C294.6226,178.7324 298.2236,191.2434 301.0846,203.9404 C306.1586,226.4474 308.8926,249.7354 306.2046,272.6594 C305.2396,280.9024 303.5766,289.0624 302.9756,297.3404 C302.4356,304.8024 302.7636,312.2984 302.9526,319.7774 C304.0216,361.6214 300.7746,403.5774 293.2836,444.7434 C292.2306,445.0364 291.0216,444.1864 290.9226,443.0844" id="Stroke-187"></path>
                        <path d="M316.3457,179.8414 C319.8837,185.4964 316.1437,192.2684 314.1327,198.4504 C312.2427,204.2574 311.9487,210.3434 311.6667,216.3664 C308.1847,290.5244 304.7057,364.7404 306.6367,438.9404" id="Stroke-189"></path>
                        <path d="M305.8193,10.6661 C307.1733,6.0061 303.1353,0.6441 298.1393,0.4701 C293.1463,0.2961 288.7213,5.3671 289.7273,10.1081 C286.9403,6.2011 281.0073,4.7781 276.6573,6.9721 C272.3083,9.1661 270.1123,14.6881 271.8183,19.1431 C269.6223,16.7821 265.1393,17.4281 263.3623,20.0971 C261.5863,22.7661 262.4743,26.6171 264.9583,28.6901 C260.1773,24.8761 251.6233,27.7331 250.2893,33.5911 C249.5373,30.8641 248.7173,28.0131 246.7063,25.9661 C244.6963,23.9211 241.0933,23.0481 238.8493,24.8471 C236.9133,26.3971 236.7143,29.1971 237.0613,31.6041 C237.4083,34.0141 238.1433,36.4771 237.5133,38.8311 C236.3553,43.1621 220.7343,40.6501 219.3633,44.9241 C218.6713,47.0871 220.8913,49.5751 219.7523,51.5541 C218.4943,53.7401 214.9713,52.5881 213.1063,50.8551 C211.2383,49.1221 209.0183,46.8481 206.5623,47.6301 C206.6383,52.1751 207.2043,56.7101 208.2533,61.1401 C206.0993,63.0481 202.7643,61.1371 199.8633,60.8281 C197.9103,60.6221 195.7923,61.3151 194.6473,62.8621 C193.5023,64.4081 193.6113,66.8101 195.1153,68.0331 C192.8123,67.3521 190.3803,69.3741 189.9263,71.6651 C189.4743,73.9561 190.4723,76.2821 191.7113,78.2811 C192.5583,79.6451 193.5703,81.1111 193.3183,82.6841 C193.0723,84.2141 191.6333,85.3591 190.0943,85.7801 C188.5553,86.2031 186.9183,86.0431 185.3273,85.8801" id="Stroke-191"></path>
                        <path d="M180.517,110.6705 C179.034,112.7245 177.501,114.8945 177.17,117.4185 C176.841,119.9415 178.178,122.8855 180.639,123.3975 C182.395,123.7635 184.16,122.8325 185.591,121.7365 C185.008,124.8045 184.75,127.9345 184.82,131.0575 C184.849,132.3025 184.967,133.6435 185.768,134.5875 C186.569,135.5335 188.293,135.7265 188.925,134.6575 C186.842,138.3375 189.598,143.2655 193.433,144.9595 C197.271,146.6545 201.667,146.0545 205.806,145.4245 C209.662,149.8165 216.14,151.6285 221.672,149.8615" id="Stroke-193"></path>
                        <path d="M333.0488,81.8741 C336.9118,83.6451 344.0518,85.6141 348.1828,84.3421 C351.0348,83.4641 353.5128,81.6281 355.7058,79.5781 C356.4738,78.8601 357.2788,78.0791 358.3058,77.8871 C360.8238,77.4161 362.4908,80.8801 361.7338,83.3631 C360.9778,85.8471 358.9048,87.6501 357.5278,89.8421 C359.4098,88.6711 361.6958,87.9571 363.8398,88.4931 C365.9828,89.0281 367.8308,91.0871 367.6248,93.3181 C367.5188,94.4691 366.9158,95.5021 366.3058,96.4761 C364.8388,98.8221 363.2398,101.0831 361.5178,103.2431 C366.5898,101.7491 372.1068,101.8501 377.1208,103.5321 C379.4018,104.2951 381.8528,105.7311 382.2378,108.1381 C382.4878,109.6841 381.7888,111.2191 381.0038,112.5701 C379.3158,115.4651 377.1208,118.0551 374.5568,120.1851 C373.8478,119.5191 373.1388,118.8531 372.4298,118.1861 C373.6948,119.3541 376.0598,120.5811 377.6688,121.1711 C379.2768,121.7611 380.8998,123.3261 380.3908,124.9831 C380.2098,125.5751 379.7818,126.0531 379.3578,126.4961 C376.5698,129.3931 373.2378,131.7521 369.5968,133.4071 C370.6568,132.5171 372.4628,133.2461 372.9418,134.5561 C373.4218,135.8671 372.8108,137.3901 371.7928,138.3291 C370.7738,139.2691 369.4228,139.7371 368.0938,140.1051 C363.9158,141.2621 359.4098,141.6411 355.2828,140.3091" id="Stroke-195"></path>
                        <path d="M276.9482,101.3238 C281.0812,100.9258 285.2032,104.2618 285.5272,108.2668 C285.6112,109.3028 285.4482,110.4088 284.7822,111.2248 C284.1172,112.0398 282.8512,112.4468 281.9152,111.9328 C285.2892,113.8678 287.7092,117.2868 288.3572,121.0298 C288.5772,122.3008 288.5882,123.6558 288.0332,124.8288 C287.4762,125.9998 286.2422,126.9358 284.9122,126.8648 C285.4572,128.9938 284.4972,131.4088 282.6162,132.6378 C280.7352,133.8668 278.0602,133.8248 276.2212,132.5408 C277.3792,134.9788 278.5012,137.9668 276.9402,140.1858 C275.5492,142.1638 272.6742,142.4908 270.2132,142.2618 C268.4482,142.0978 266.2872,141.3078 266.2222,139.5948" id="Stroke-197"></path>
                        <path d="M292.0151,147.0147 C295.7451,162.7007 301.0461,178.0367 307.8201,192.7377 C310.0001,192.3417 310.5731,189.6187 310.6611,187.4727 C310.8551,182.8267 311.0501,178.1787 311.2441,173.5317 C313.7161,175.6317 318.3951,173.5137 318.3141,170.3287 C320.2021,171.3657 321.8681,172.7627 323.8061,173.7087 C325.7441,174.6537 328.1331,175.0997 330.0591,174.1297 C331.9841,173.1607 332.9301,170.3877 331.4491,168.8497 C333.8371,169.8627 336.6351,167.3887 336.5651,164.8627 C336.4951,162.3387 334.4321,160.2357 332.1201,159.0647 C333.9131,157.1707 335.8051,155.0507 335.9231,152.4847 C336.0421,149.9167 333.2341,147.2247 330.8761,148.3997" id="Stroke-199"></path>
                        <path d="M255.3667,135.2906 C256.6607,136.6936 256.6397,138.9996 255.6267,140.6196 C254.6157,142.2376 252.8057,143.2246 250.9467,143.6416 C248.7537,144.1336 245.9157,143.5426 245.2467,141.3896 C245.3607,143.0256 245.3677,144.6686 245.2717,146.3056 C245.2417,146.8026 245.1797,147.3496 244.8127,147.6846 C244.4457,148.0196 243.8957,148.0296 243.3997,148.0206 C241.2367,147.9816 239.0757,147.9426 236.9127,147.9036 C241.8627,151.8566 243.1027,159.7446 239.6067,165.0346 C240.7597,162.6576 243.6437,161.8036 246.2087,161.1926 C248.5327,160.6416 250.8557,160.0896 253.1807,159.5386 C254.6867,159.1806 256.3067,158.8296 257.7437,159.4006 C259.1837,159.9716 260.1837,161.8796 259.2707,163.1336 C258.5877,161.6786 259.5217,159.8746 260.8947,159.0446 C262.2687,158.2176 263.9447,158.1126 265.5447,158.0316 C266.1477,157.9996 266.7957,157.9796 267.3057,158.3046 C267.9907,158.7406 268.1947,159.6336 268.3377,160.4366 C268.8677,163.3886 269.3967,166.3386 269.9267,169.2906 C270.5047,164.1286 276.6777,160.4616 281.4637,162.4386" id="Stroke-201"></path>
                        <path d="M197.4243,151.7042 C197.2013,153.1452 196.4673,154.4612 196.0893,155.8722 C195.7093,157.2822 195.7743,158.9762 196.8813,159.9542 C197.9023,160.8542 199.4313,160.8462 200.8053,160.7862 C202.3503,160.7182 203.8963,160.6482 205.4423,160.5812 C204.1853,163.2182 204.8683,166.6142 207.0553,168.5882 C209.2433,170.5642 212.7603,170.9652 215.3543,169.5352 C214.9353,171.3392 215.7103,173.2562 216.9663,174.6412 C218.2203,176.0272 219.9033,176.9662 221.5923,177.8042 C225.3233,179.6522 230.1993,181.0062 233.3953,178.3682" id="Stroke-203"></path>
                        <path d="M243.9472,178.9395 C241.7912,177.8775 239.2182,180.1225 238.9102,182.5685 C238.6032,185.0105 239.7852,187.3615 240.9302,189.5255 C239.5942,188.8065 238.1942,188.0985 236.6862,188.0295 C235.1802,187.9625 233.5362,188.7055 232.9812,190.1495 C232.5762,191.2075 232.8122,192.3935 233.0532,193.5025 C233.4202,195.1835 233.7862,196.8645 234.1522,198.5475 C231.2802,196.1935 227.4632,195.1115 223.8302,195.6195 C222.7412,195.7715 221.5942,196.1065 220.8932,196.9785 C220.1912,197.8505 220.2072,199.3915 221.1642,199.9465 C216.8772,197.8785 211.5632,198.2715 207.6032,200.9445" id="Stroke-205"></path>
                        <path d="M224.0166,211.4967 C225.8616,216.4447 229.8546,220.7847 234.8966,221.7697 C239.9376,222.7577 245.7456,219.5587 246.8056,214.3697 C246.9066,218.0827 250.5266,220.8617 254.1026,221.2307 C257.6806,221.6007 261.1796,220.1927 264.5146,218.8107 C265.6076,221.4687 269.0356,221.7377 271.7556,222.3987 C274.4756,223.0607 277.4096,226.1987 275.5956,228.3947 C274.8726,229.2697 273.5206,229.7037 273.3496,230.8397 C272.8636,234.0677 281.0136,231.8967 280.4316,235.1097 C280.2536,236.0967 279.1716,236.5377 278.2986,236.9807 C275.1106,238.5947 273.1976,242.9617 274.9016,246.1807 C276.6056,249.3987 282.1216,249.5547 283.4016,246.1307 C283.6446,248.5717 283.9716,251.2087 285.6256,252.9707 C287.2796,254.7277 290.7356,254.7477 291.5836,252.4567 C291.5696,254.9787 291.6516,257.7707 293.3236,259.6087 C294.9936,261.4467 298.7926,261.0107 299.0496,258.5017" id="Stroke-207"></path>
                        <path d="M374.5053,147.1988 C375.5183,146.9658 376.7933,146.8158 377.4063,147.6358 C377.7663,148.1178 377.7443,148.7648 377.8643,149.3488 C378.2483,151.2198 380.2013,152.4738 382.1483,152.7188 C384.0913,152.9628 386.0413,152.4188 387.9233,151.8808 C388.7383,154.1778 387.2373,156.6288 385.5263,158.3968 C383.8133,160.1648 381.7383,161.7988 381.0293,164.1258 C380.3213,166.4538 382.0233,169.6098 384.4843,169.2118 C384.0883,172.4418 382.0593,175.4308 379.1943,177.1048 C377.6273,178.0198 375.7633,178.6158 374.6693,180.0428 C373.5763,181.4688 374.0513,184.1258 375.8753,184.2478 C376.7013,184.3028 377.5133,183.8078 378.3273,183.9638 C380.4593,184.3698 379.4093,187.6258 377.7083,188.9378 C374.5603,191.3698 370.6643,192.8748 366.6603,193.2048 C366.0043,193.2588 365.2713,193.3168 364.8393,193.7988 C363.1993,195.6368 368.6243,197.1398 368.1773,199.5348 C367.9543,200.7268 366.4123,201.1088 365.1683,201.2008 C361.0243,201.5058 356.8483,201.4068 352.7253,200.9078 C353.9943,204.1628 355.2713,207.4458 355.8253,210.8878 C356.2493,213.5238 356.1793,216.4238 354.5893,218.5988 C353.0003,220.7748 349.4753,221.7238 347.4323,219.9428 C344.6643,217.5268 346.4013,212.3988 343.6003,210.0158" id="Stroke-209"></path>
                        <path d="M309.916,254.3121 C311.056,255.3221 312.236,256.3121 313.646,256.8521 C315.186,257.4321 317.076,257.3821 318.316,256.2821 C319.896,254.8621 319.846,252.3921 319.666,250.2721 C319.516,248.5411 319.376,246.8221 319.236,245.1021 C322.126,247.9211 327.436,247.9211 329.946,244.7621 C332.466,241.5921 330.846,235.9211 326.916,235.0321 C328.726,234.7321 330.546,234.1621 331.926,232.9521 C333.306,231.7321 334.156,229.7821 333.686,228.0011 C333.416,226.9721 332.616,226.0921 331.656,225.6621 C330.926,225.8121 330.166,225.7911 329.456,225.5721 C330.176,225.2911 330.956,225.3621 331.656,225.6621 C332.826,225.4421 333.936,224.7911 334.736,223.8921 C336.036,222.4211 336.586,220.3921 336.566,218.4321 C336.526,213.7721 333.236,209.3321 328.816,207.9821" id="Stroke-211"></path>
                        <path d="M401.0478,349.8385 C399.9198,347.7495 398.7908,345.6565 397.6608,343.5665 C397.4858,343.2405 397.2978,342.9025 396.9758,342.6885 C396.2008,342.1705 395.1188,342.6125 394.2898,343.0595 C391.6618,344.4765 389.0358,345.8905 386.4088,347.3065 C386.3908,344.4455 385.7638,341.5885 384.5738,338.9405 C382.1328,338.8445 379.2918,337.2305 377.5558,338.7935 C375.9578,340.2305 377.2268,342.9135 375.9938,344.6185 C373.0898,341.7725 367.8268,341.2545 364.3228,343.4725 C363.6178,339.9115 359.1298,337.4025 355.3248,338.4425" id="Stroke-213"></path>
                        <path d="M346.4614,342.8043 C345.2484,346.9323 346.1164,351.6063 348.7394,355.0323 C345.1894,354.8503 342.4884,359.1343 343.7104,362.4423 C344.9284,365.7483 349.0684,367.4263 352.5054,366.5283 C349.7094,366.9263 346.8394,367.3653 344.3844,368.7493 C341.9294,370.1363 339.9444,372.7013 340.0904,375.4963 C340.2364,378.2933 343.1724,380.8573 345.8574,379.9883 C344.6014,384.1103 346.9154,388.9883 350.9204,390.6613 C354.9254,392.3343 360.0684,390.5733 362.1724,386.8053 C364.2884,390.4003 368.5614,392.6343 372.7524,392.3363 C376.9444,392.0373 380.8504,389.2213 382.4264,385.3633 C382.2694,388.1703 385.3724,389.9453 388.0584,390.8563 C397.4604,394.0423 407.5944,395.0993 417.4614,393.9233" id="Stroke-215"></path>
                        <path d="M565.9511,366.2672 C547.1201,363.8172 528.1441,362.7002 509.1801,362.9242 C504.3611,362.9822 499.4981,363.1322 494.8201,364.4022 C491.4051,362.2632 487.1651,361.7642 483.4111,363.0572 C483.3531,362.1672 483.2951,361.2802 483.2391,360.3902 C480.1871,360.6682 477.1361,360.9482 474.0851,361.2252 C471.9281,361.4212 469.0391,362.6262 469.5251,364.9312 C467.2731,363.7642 464.2291,365.1532 463.4041,367.7232 C462.5811,370.2942 464.1641,373.4542 466.5911,374.0792 C468.2431,374.5032 470.6971,375.6312 472.3931,375.6312 L566.3551,375.6312" id="Stroke-217"></path>
                        <path d="M143.3876,251.358 C143.6896,252.023 143.9916,252.687 144.2936,253.353 C141.3566,255.04 137.6826,255.427 134.4526,254.389 C136.2136,256.735 134.9326,260.642 132.1126,261.527 C130.8516,261.922 129.4896,261.774 128.1756,261.621 L112.7846,259.833 C114.2136,261.586 112.5446,264.407 110.3386,264.969 C108.1316,265.533 105.8456,264.611 103.7576,263.709 C104.4596,265.545 102.6926,267.563 100.7386,267.921 C98.7836,268.278 94.7846,271.08 92.9536,270.317 C95.4046,271.237 95.8616,274.414 95.8556,277.001 C95.8516,278.032 95.8286,279.105 95.3596,280.026 C94.8896,280.948 93.8366,281.665 92.8206,281.417 C93.7246,280.943 94.9026,281.368 95.5686,282.133 C96.2356,282.898 96.5016,283.921 96.6976,284.912 C97.1386,287.154 97.1716,289.827 95.4156,291.317 C94.2026,292.346 92.4166,292.494 90.8706,292.088 C89.3246,291.68 87.9596,290.797 86.6246,289.927 C87.6906,292.338 85.7576,295.51 83.0996,295.714 C83.0996,295.714 77.4676,297.164 77.4676,292.147" id="Stroke-219"></path>
                        <path d="M41.1235,223.7838 C41.6725,227.1218 45.4595,228.8238 48.2885,227.6478 C51.1165,226.4708 52.9365,223.2768 53.7515,220.0068 C53.4315,223.1818 53.9995,226.4668 55.3585,229.2728 C55.7005,229.9838 56.1195,230.6908 56.7535,231.0658 C58.2345,231.9408 59.9745,230.6188 61.1235,229.2528 C63.9355,225.9108 66.0125,221.7888 67.1175,217.3578 C66.4035,222.1018 67.4855,227.4598 70.8105,230.4838 C74.1365,233.5088 79.8445,233.1098 82.0495,228.9858 C82.7195,229.8438 84.0105,229.9578 84.7935,229.2308 C85.5745,228.5058 85.7185,227.0548 85.0985,226.1508 C87.2465,230.7818 92.2865,233.4478 96.8215,232.3548 C97.7945,232.1198 98.7865,231.6948 99.4165,230.8288 C101.4345,228.0618 98.3815,224.2218 98.1275,220.6528 C100.1025,225.3148 104.5375,228.5168 109.1225,228.5908" id="Stroke-221"></path>
                        <path d="M160.9165,175.152 C162.5135,175.659 164.2275,175.689 165.8075,176.248 C167.3865,176.808 168.9125,178.152 168.9145,179.875 C168.9145,181.242 166.7465,184.2 165.9225,184.358 C167.0555,184.865 168.3895,186.006 168.0835,188.089 C168.0835,188.089 167.6315,190.949 163.3955,191.165 C164.9875,194.086 165.2165,197.756 164.0015,200.863 C163.6595,201.741 163.1775,202.608 162.4045,203.121 C161.5625,203.682 160.5025,203.737 159.4995,203.734 C155.3925,203.719 151.2895,203.001 147.4075,201.618 C149.4775,202.703 151.5215,204.002 152.9085,205.923 C154.2975,207.845 154.9135,210.514 153.9375,212.69 C152.9615,214.865 150.1145,216.109 148.1355,214.852 C149.9625,215.144 150.3155,218.041 149.0135,219.393 C147.7105,220.745 145.6445,220.866 143.8035,220.696 C139.8975,220.338 136.0765,219.044 132.7245,216.945 C134.4025,217.433 135.0735,219.791 134.2575,221.38 C133.4425,222.971 131.5985,223.766 129.8545,223.779 C128.1105,223.79 126.4325,223.154 124.8055,222.508 C125.4985,224.511 124.7625,226.944 123.0895,228.186 C121.4175,229.429 118.9485,229.372 117.3285,228.059" id="Stroke-223"></path>
                        <path d="M138.4321,186.8756 C142.8231,186.5156 147.1411,185.2926 151.0661,183.2956 C151.7641,182.9416 152.4871,182.5256 152.8631,181.8396 C153.7521,180.2046 152.2231,178.3446 150.8271,177.1146 C150.3481,176.6916 149.8691,176.2696 149.3901,175.8486 C150.6631,176.8246 152.6481,176.2086 153.6251,174.9386 C154.6031,173.6696 154.8071,171.9766 154.8411,170.3746 C154.8571,169.5896 154.8391,168.7886 154.5721,168.0496 C153.8441,166.0436 151.5581,165.1136 149.4821,164.6006" id="Stroke-225"></path>
                        <path d="M145.603,146.6617 C145.158,145.1807 145.834,143.4087 147.117,142.6837 C148.399,141.9587 150.143,142.3667 151.029,143.5987 C151.866,144.7597 151.9,146.3477 151.875,147.8157 C151.838,149.8677 151.913,152.6207 151.785,154.6687 C152.956,153.8157 154.483,153.2737 155.785,153.8717 C157.086,154.4677 157.72,156.5797 156.645,157.5657" id="Stroke-227"></path>
                        <path d="M52.6059,270.1119 C50.1359,270.0719 48.5859,273.1919 49.6959,275.2819 C50.8059,277.3719 53.6359,278.2319 56.0659,277.8419 C54.7559,278.3719 54.5559,280.0819 54.9159,281.3919 C55.2059,282.4719 55.7659,283.5219 56.7059,284.1819 C57.6459,284.8419 59.0059,285.0319 59.9859,284.4219 C58.5559,286.8919 60.2759,289.9119 62.1759,292.0819 C62.9459,292.9719 64.1359,293.9119 65.2359,293.4319 C66.0059,293.1019 66.2559,292.3019 66.3059,291.4619 L66.3059,291.4519 C66.2459,291.1419 66.2559,290.8019 66.2959,290.5019 C66.3159,290.8019 66.3259,291.1329 66.3059,291.4519 L66.3059,291.4619 C66.3759,291.8619 66.5659,292.2019 66.9659,292.3119 C67.5559,292.4719 67.8559,292.5319 68.2859,292.1219 C68.3459,292.0619 68.4059,292.0019 68.4559,291.9419" id="Stroke-229"></path>
                        <path d="M51.6748,263.4166 C45.5408,264.1646 41.7228,267.7696 35.5438,267.7706 C33.7478,267.7706 31.7448,266.6086 31.5968,264.6426 C31.5288,263.7556 31.4758,262.9466 31.9708,262.2096 C33.1918,260.3916 34.4128,258.5716 35.6348,256.7526 C30.7718,259.7626 24.9298,261.1336 19.2478,260.6066 C18.8938,260.5726 18.5158,260.5206 18.2568,260.2776 C17.9998,260.0346 17.9218,259.6626 17.8618,259.3136 C17.3148,256.1186 17.3828,252.3846 19.7638,250.2006 C17.3418,250.6426 14.7268,249.8116 12.9938,248.0526 C12.5118,247.5636 12.0868,246.9906 11.9088,246.3276 C11.4778,244.7346 12.5768,243.0886 13.9418,242.1776 C15.3078,241.2656 16.9348,240.8436 18.3828,240.0726 C19.8298,239.3036 21.1908,237.9856 21.2458,236.3366 C21.3018,234.6886 19.3388,233.1206 17.9828,234.0476" id="Stroke-231"></path>
                        <path d="M5.3266,360.3902 C4.6416,357.5892 4.1736,354.1712 6.6376,352.3162 C7.4986,351.6682 8.6006,351.3322 9.6956,351.0812 C14.7456,349.9202 20.2266,350.3012 25.0116,352.1432 C22.8586,350.9152 21.1996,349.0242 20.3876,346.8712 C19.9386,345.6852 19.8386,344.1792 20.9196,343.3742 C21.6896,342.8012 22.7936,342.7902 23.7996,342.8082 C26.1256,342.8522 28.4776,342.8982 30.7246,343.4302 C32.9726,343.9612 35.1406,345.0392 36.4336,346.7532" id="Stroke-233"></path>
                        <path d="M71.0258,342.4918 C69.4658,340.4818 66.5958,339.8918 64.0458,339.8318 C61.6858,339.7718 59.2358,339.9918 57.1758,341.2418 C55.9158,342.0128 54.8558,343.2518 54.3058,344.6718 L54.3058,344.6818 C54.2658,345.6218 54.1558,346.5618 53.9758,347.4918 C53.8258,346.5318 53.9658,345.5718 54.3058,344.6818 L54.3058,344.6718 C54.3758,343.0528 54.2358,341.4318 53.8758,339.8618 C53.7458,339.3028 53.5758,338.7218 53.1858,338.3428 C52.7258,337.8828 52.0558,337.7718 51.4358,337.7218 C48.6058,337.4818 45.7358,337.8318 43.0258,338.7318 C43.1258,337.0718 43.2358,335.4118 43.3358,333.7518 C43.3558,333.4418 43.3658,333.1118 43.1958,332.8618 C43.0258,332.6218 42.7158,332.5418 42.4358,332.4818 C39.7858,331.9518 36.8758,332.2918 34.6658,333.9618 C32.4558,335.6328 31.1558,338.8218 32.0158,341.5718" id="Stroke-235"></path>
                        <path d="M77.4672,359.0553 C77.6752,354.6803 81.9402,351.6223 86.0942,350.3723 C88.2812,349.7143 90.8802,349.4373 92.6402,350.9073 C94.1942,352.2043 94.5742,354.5423 94.0532,356.5103 C93.5292,358.4793 92.2622,360.1483 90.9512,361.6973 C89.4202,363.5033 87.7892,365.2223 86.0662,366.8403 C88.5552,365.3473 91.4052,364.4733 94.2972,364.3153 C95.7682,364.2363 97.4642,364.4523 98.2972,365.6813 C99.6482,367.6653 97.6962,370.2043 95.8972,371.7843 C100.9562,369.3343 107.1372,369.3903 112.1522,371.9353 C112.9392,372.3343 113.7172,372.8073 114.2532,373.5103 C116.0562,375.8743 114.2472,379.4123 111.8112,381.1013 C109.3762,382.7873 106.3382,383.5883 104.2462,385.6953 C103.8562,386.0863 103.2482,386.5433 102.8382,386.1733 C104.6872,385.4023 106.6692,384.6173 108.6302,385.0063 C110.5922,385.3973 112.3392,387.5093 111.5932,389.3833 C110.3402,389.4893 109.0882,389.5933 107.8342,389.7003" id="Stroke-237"></path>
                        <path d="M75.916,232.4615 C71.616,244.4725 73.306,258.4015 74.186,271.5525 C75.246,287.4015 74.996,303.3315 74.746,319.2225 C74.416,340.5415 74.086,361.8715 73.746,383.1915 C73.586,393.3315 73.426,403.5315 71.946,413.5125 C71.246,418.1915 70.256,422.8825 70.456,427.6425 C70.756,434.6515 73.636,441.3025 73.446,448.3125 C73.996,448.4015 74.246,447.2015 73.736,446.9615" id="Stroke-239"></path>
                        <path d="M100.9155,391.6119 C97.7635,394.6209 93.5385,394.3189 90.5615,390.8729 C89.8225,393.5499 87.7695,394.3789 85.9835,394.7529 C81.9965,395.5829 77.9595,395.7739 73.9505,395.3269" id="Stroke-241"></path>
                        <path d="M152.4692,135.9176 C153.6912,132.6666 154.6502,128.3966 151.8672,126.2556 C149.9812,124.8026 147.2692,125.1616 144.9492,125.7686 C140.2312,127.0046 135.2752,129.3956 133.5292,133.8566 C132.8502,131.6396 133.4492,129.2646 133.3932,126.9496 C133.3392,124.6366 132.1842,121.9576 129.8482,121.5846 C126.4462,121.0396 124.1602,125.6896 120.7122,125.7196 C121.0322,123.6986 119.9902,121.5336 118.1932,120.4856 C116.3942,119.4376 113.9522,119.5696 112.2842,120.8056 C111.9082,119.1846 111.2282,117.5136 109.8382,116.5566 C108.4472,115.6006 106.1992,115.7116 105.3392,117.1456 C102.2792,113.3886 98.4852,110.2026 94.2242,107.8136 C92.7842,107.0046 90.5812,106.4696 89.7702,107.8866 C89.4612,108.4256 89.4952,109.0826 89.5472,109.6996 C89.8592,113.4006 90.5012,117.0746 91.4692,120.6656 C90.6432,120.5616 85.6452,122.8626 86.6372,125.1306 C83.4222,122.5206 80.0842,115.9976 75.9392,116.5236 C75.2632,116.6106 74.5692,116.7386 73.9092,116.5686 C73.0672,116.3516 72.4352,115.6846 71.8532,115.0476 C70.6362,113.7206 63.1892,102.4806 58.3252,107.0796 C56.9322,108.3966 55.8792,110.4616 57.0862,111.9446 C54.2982,110.9576 51.3842,109.9576 48.4402,110.2916 C45.4942,110.6256 42.5332,112.7416 42.3352,115.6336 C42.2512,116.8536 41.1792,121.2176 39.9322,121.2846 C34.8462,121.5516 33.5062,127.9336 33.7262,129.1806 C34.8372,135.4446 38.1602,138.0336 40.2962,144.0386 C37.1762,143.9976 27.2362,136.2436 24.7772,142.3056 C22.1062,148.8866 32.3062,155.6046 32.7062,162.1436 C29.3092,158.1566 24.7712,158.9306 23.1452,161.8446 C21.8452,164.4606 24.2672,166.7666 28.0212,169.9126 C23.5352,170.2936 13.5272,165.2876 11.1052,173.2306 C10.3312,175.7716 12.6622,178.1816 14.5732,180.0636 C13.6302,179.4416 11.2372,185.1356 11.0922,187.3446 C10.9492,189.5556 12.1042,191.8026 14.0042,193.0056 C12.8862,191.6616 10.4552,192.1886 9.4882,193.6396 C8.5192,195.0906 8.6762,197.0036 9.1802,198.6646 C6.7632,198.9166 2.4402,195.6746 0.5232,198.5016 C-1.8558,202.0156 6.1362,209.6156 10.4382,212.6686" id="Stroke-243"></path>
                    </g>
                </g>
            </g>
        </g>
    </g>
</svg>