<?xml version="1.0" encoding="UTF-8"?>
<svg width="50px" height="50px" viewBox="0 0 50 50" version="1.1" xmlns="http://www.w3.org/2000/svg" xmlns:xlink="http://www.w3.org/1999/xlink">
    <!-- Generator: Sketch 52 (66869) - http://www.bohemiancoding.com/sketch -->
    <title>Group 12</title>
    <desc>Created with Sketch.</desc>
    <g id="Page-1" stroke="none" stroke-width="1" fill="none" fill-rule="evenodd">
        <g id="08-О-комплексе-" transform="translate(-60.000000, -2429.000000)">
            <g id="Group-15" transform="translate(0.000000, 2343.000000)">
                <g id="Group-12" transform="translate(60.000000, 86.000000)">
                    <g id="Group-7" fill="#F9A01A">
                        <circle id="Oval" cx="25" cy="25" r="25"></circle>
                    </g>
                    <path d="M26.9270833,26.2856649 L26.9270833,26.8065418 L28.3159722,26.8065418 L28.3159722,34.2724432 C28.3159722,35.0971648 29.0104167,35.7916673 29.8350694,35.7916673 C30.6597222,35.7916673 31.3541667,35.0971648 31.3541667,34.2724432 L31.3541667,15 C28.4895833,18.0818547 26.9270833,22.1186502 26.9270833,26.2856649 Z" id="Shape" fill="#FFFFFF" fill-rule="nonzero"></path>
                    <path d="M22.5868056,21.9010417 L21.71875,21.9010417 L21.71875,15 L20.6770833,15 L20.6770833,21.9010417 L19.8090278,21.9010417 L19.8090278,15 L18.3333333,15 L18.3333333,21.1197917 C18.3333333,22.2482639 18.8541667,23.2899306 19.765625,23.9409722 L19.765625,34.4444444 C19.765625,35.2256944 20.3732639,35.8333333 21.1545139,35.8333333 C21.9357639,35.8333333 22.5434028,35.2256944 22.5434028,34.4444444 L22.5434028,23.9409722 C23.4548611,23.2899306 23.9756944,22.2482639 23.9756944,21.1197917 L23.9756944,15 L22.5434028,15 L22.5434028,21.9010417 L22.5868056,21.9010417 Z" id="Shape" fill="#FFFFFF" fill-rule="nonzero"></path>
                </g>
            </g>
        </g>
    </g>
</svg>