<svg xmlns="http://www.w3.org/2000/svg" xmlns:xlink="http://www.w3.org/1999/xlink" width="50px" height="50px" viewBox="0 0 50 50" version="1.1">
    <!-- Generator: Sketch 52 (66869) - http://www.bohemiancoding.com/sketch -->
    <title>Group 7</title>
    <desc>Created with Sketch.</desc>
    <g id="Page-1" stroke="none" stroke-width="1" fill="none" fill-rule="evenodd">
        <g id="08-О-комплексе-" transform="translate(-60.000000, -2355.000000)">
            <g id="Group-15" transform="translate(0.000000, 2343.000000)">
                <g id="Group-7" transform="translate(60.000000, 12.000000)">
                    <g id="Group-23">
                        <circle id="Oval" fill="#F9A01A" cx="25" cy="25" r="25"/>
                        <g id="Group-13" transform="translate(12.000000, 18.000000)" fill="#fff">
                            <path d="M1.75051071,13.5349048 L25.1412024,13.5349048 C25.5880452,13.5349048 25.9477774,13.8721548 25.9477774,14.2910714 C25.9477774,14.7099881 25.5880452,15.0472381 25.1412024,15.0472381 L1.75051071,15.0472381 C1.30366786,15.0472381 0.943935714,14.7099881 0.943935714,14.2910714 C0.943935714,13.8721548 1.30366786,13.5349048 1.75051071,13.5349048 Z" id="Shape"/>
                            <path d="M13.4458583,2.8477619 C19.3943524,2.8477619 24.1329833,6.98146429 24.1329833,12.0225595 L2.75873214,12.0225595 C2.75873214,6.98146429 7.59818571,2.8477619 13.4458583,2.8477619 Z" id="Shape"/>
                            <path d="M14.3532554,1.03296951 C14.3532554,1.53411102 13.9469995,1.94036698 13.445858,1.94036698 C12.9447165,1.94036698 12.5384605,1.53411102 12.5384605,1.03296951 C12.5384605,0.531828007 12.9447165,0.125572048 13.445858,0.125572048 C13.9469995,0.125572048 14.3532554,0.531828007 14.3532554,1.03296951 Z" id="Shape"/>
                        </g>
                    </g>
                </g>
            </g>
        </g>
    </g>
</svg>