<?xml version="1.0" encoding="UTF-8"?>
<svg width="50px" height="50px" viewBox="0 0 50 50" version="1.1" xmlns="http://www.w3.org/2000/svg" xmlns:xlink="http://www.w3.org/1999/xlink">
    <!-- Generator: Sketch 52 (66869) - http://www.bohemiancoding.com/sketch -->
    <title>Group 11</title>
    <desc>Created with Sketch.</desc>
    <g id="Page-1" stroke="none" stroke-width="1" fill="none" fill-rule="evenodd">
        <g id="08-О-комплексе-" transform="translate(-60.000000, -2504.000000)">
            <g id="Group-15" transform="translate(0.000000, 2343.000000)">
                <g id="Group-11" transform="translate(60.000000, 161.000000)">
                    <g id="Group-7-Copy" fill="#F9A01A">
                        <circle id="Oval" cx="25" cy="25" r="25"></circle>
                    </g>
                    <g id="Group-8" transform="translate(12.500000, 19.166667)" fill="#FFFFFF" fill-rule="nonzero">
                        <polygon id="Rectangle-path" points="8.36472222 4.20861111 16.7813889 4.20861111 16.7813889 8.01333333 8.36472222 8.01333333"></polygon>
                        <path d="M6.12194444,0.189444444 C5.43111111,0.189444444 4.86916667,0.806111111 4.86916667,1.56444444 L4.86916667,2.55416667 C4.87583333,2.62027778 4.87972222,2.68722222 4.87972222,2.755 L4.87972222,9.46722222 C4.87972222,9.535 4.87583333,9.60194444 4.86916667,9.66805556 L4.86916667,10.6580556 C4.86916667,11.4161111 5.43111111,12.0327778 6.12194444,12.0327778 C6.81277778,12.0327778 7.37472222,11.4161111 7.37472222,10.6580556 L7.37472222,1.56444444 C7.37472222,0.806111111 6.81277778,0.189444444 6.12194444,0.189444444 Z" id="Shape"></path>
                        <path d="M3.09444444,1.87 C2.65611111,1.87 2.29944444,2.26694444 2.29944444,2.755 L2.29944444,9.46722222 C2.29944444,9.955 2.65583333,10.3519444 3.09444444,10.3519444 C3.53305556,10.3519444 3.88972222,9.955 3.88972222,9.46722222 L3.88972222,2.75527778 C3.88944444,2.26722222 3.53277778,1.87 3.09444444,1.87 Z" id="Shape"></path>
                        <path d="M20.2666667,2.75527778 C20.2666667,2.6875 20.2705556,2.62027778 20.2772222,2.55444444 L20.2772222,1.56472222 C20.2772222,0.806388889 19.7152778,0.189722222 19.0244444,0.189722222 C18.3336111,0.189722222 17.7716667,0.806388889 17.7716667,1.56472222 L17.7716667,10.6583333 C17.7716667,11.4163889 18.3336111,12.0330556 19.0244444,12.0330556 C19.7152778,12.0330556 20.2772222,11.4163889 20.2772222,10.6583333 L20.2772222,9.66833333 C20.2705556,9.60222222 20.2666667,9.53527778 20.2666667,9.4675 L20.2666667,2.75527778 Z" id="Shape"></path>
                        <path d="M22.0519444,1.87 C21.6136111,1.87 21.2566667,2.26694444 21.2566667,2.755 L21.2566667,9.46722222 C21.2566667,9.955 21.6133333,10.3519444 22.0519444,10.3519444 C22.4902778,10.3519444 22.8469444,9.955 22.8469444,9.46722222 L22.8469444,2.75527778 C22.8469444,2.26722222 22.4902778,1.87 22.0519444,1.87 Z" id="Shape"></path>
                        <path d="M1.46944444,6.39833333 C1.46944444,6.81277778 1.14055556,7.14861111 0.734722222,7.14861111 C0.328888889,7.14861111 0,6.81277778 0,6.39833333 L0,5.82361111 C0,5.40916667 0.328888889,5.07333333 0.734722222,5.07333333 C1.14055556,5.07333333 1.46944444,5.40916667 1.46944444,5.82361111 L1.46944444,6.39833333 Z" id="Shape"></path>
                        <path d="M23.5305556,6.39833333 C23.5305556,6.81277778 23.8594444,7.14861111 24.2652778,7.14861111 C24.6711111,7.14861111 25,6.81277778 25,6.39833333 L25,5.82361111 C25,5.40916667 24.6711111,5.07333333 24.2652778,5.07333333 C23.8594444,5.07333333 23.5305556,5.40916667 23.5305556,5.82361111 L23.5305556,6.39833333 Z" id="Shape"></path>
                    </g>
                </g>
            </g>
        </g>
    </g>
</svg>